<?xml version="1.0" standalone="no"?>
<!DOCTYPE svg PUBLIC "-//W3C//DTD SVG 1.1//EN" "http://www.w3.org/Graphics/SVG/1.1/DTD/svg11.dtd" >
<svg xmlns="http://www.w3.org/2000/svg" xmlns:xlink="http://www.w3.org/1999/xlink" version="1.1">
<metadata>
Created by FontForge 20201107 at Tue Jul 25 15:38:30 2023
 By 
Copyright 2023 The Teko Project Authors (https://www.github.com/googlefonts/teko)
</metadata>
<defs>
<font id="Teko-Light" horiz-adv-x="179" >
  <font-face 
    font-family="Teko Light"
    font-weight="300"
    font-stretch="normal"
    units-per-em="1000"
    panose-1="0 0 0 0 0 0 0 0 0 0"
    ascent="800"
    descent="-200"
    x-height="485"
    cap-height="622"
    bbox="-353 -373 1518 833"
    underline-thickness="50"
    underline-position="-125"
    unicode-range="U+000D-FEFF"
  />
<missing-glyph horiz-adv-x="750" 
d="M180 0v701h390v-701h-390zM234 651v-601h282v601h-282z" />
    <glyph glyph-name="fi" unicode="fi" horiz-adv-x="341" 
d="M296 0h-69v485h69v-485zM122 574v-574h-69v590q0 40 19.5 59.5t59.5 19.5h42v-64h-21q-19 0 -25 -5.5t-6 -25.5zM296 485v-59h-291v59h291zM227 605v64h69v-64h-69z" />
    <glyph glyph-name="fl" unicode="fl" horiz-adv-x="341" 
d="M122 574v-574h-69v590q0 40 19.5 59.5t59.5 19.5h42v-64h-21q-19 0 -25 -5.5t-6 -25.5zM296 485v-59h-291v59h291zM296 0h-69v669h69v-669z" />
    <glyph glyph-name=".notdef" horiz-adv-x="750" 
d="M180 0v701h390v-701h-390zM234 651v-601h282v601h-282z" />
    <glyph glyph-name=".null" horiz-adv-x="0" 
 />
    <glyph glyph-name="nonmarkingreturn" horiz-adv-x="333" 
 />
    <glyph glyph-name="NULL" horiz-adv-x="0" 
 />
    <glyph glyph-name="NULL" horiz-adv-x="0" 
 />
    <glyph glyph-name="CR" unicode="&#xd;" horiz-adv-x="130" 
 />
    <glyph glyph-name="space" unicode=" " horiz-adv-x="130" 
 />
    <glyph glyph-name="exclam" unicode="!" horiz-adv-x="185" 
d="M50 622h85l-13 -426h-59zM51 0v112h82v-112h-82z" />
    <glyph glyph-name="quotedbl" unicode="&#x22;" horiz-adv-x="254" 
d="M35 622h64v-212h-64v212zM155 622h64v-212h-64v212z" />
    <glyph glyph-name="numbersign" unicode="#" horiz-adv-x="448" 
d="M154 622h63l-103 -622h-63zM418 456v-58h-358v58h358zM294 0h-63l103 622h63zM30 166v58h358v-58h-358z" />
    <glyph glyph-name="dollar" unicode="$" horiz-adv-x="327" 
d="M196 612h-65v85h65v-85zM196 -75h-65v85h65v-85zM218 90v170q0 20 -5.5 25.5t-25.5 5.5h-68q-40 0 -59.5 19.5t-19.5 59.5v173q0 40 19.5 59.5t59.5 19.5h88q40 0 59.5 -19.5t19.5 -59.5v-96h-69v85q0 20 -5.5 25.5t-25.5 5.5h-46q-19 0 -25 -5.5t-6 -25.5v-151
q0 -19 6 -25t25 -6h68q40 0 59.5 -19.5t19.5 -59.5v-192q0 -40 -19.5 -59.5t-59.5 -19.5h-87q-40 0 -59.5 19.5t-19.5 59.5v96h69v-85q0 -19 6 -25t25 -6h45q20 0 25.5 6t5.5 25z" />
    <glyph glyph-name="percent" unicode="%" horiz-adv-x="573" 
d="M221 551v-184q0 -37 -16 -54t-51 -17h-57q-34 0 -50.5 17t-16.5 54v184q0 37 16.5 54t50.5 17h57q35 0 51 -17t16 -54zM543 255v-184q0 -37 -16 -54t-51 -17h-57q-34 0 -50.5 17t-16.5 54v184q0 37 16.5 54t50.5 17h57q35 0 51 -17t16 -54zM165 376v166q0 19 -4.5 24.5
t-23.5 5.5h-23q-19 0 -23.5 -5.5t-4.5 -24.5v-166q0 -19 4.5 -24.5t23.5 -5.5h23q19 0 23.5 5.5t4.5 24.5zM487 80v166q0 19 -4.5 24.5t-23.5 5.5h-23q-19 0 -23.5 -5.5t-4.5 -24.5v-166q0 -19 4.5 -24.5t23.5 -5.5h23q19 0 23.5 5.5t4.5 24.5zM392 622h61l-273 -622h-60z
" />
    <glyph glyph-name="ampersand" unicode="&#x26;" horiz-adv-x="418" 
d="M475 -35h-75l-258 322q-28 38 -55 74.5t-27 78.5v103q0 40 19.5 59.5t59.5 19.5h92q40 0 59.5 -19.5t19.5 -59.5v-99q0 -35 -8 -59.5t-23 -41.5t-38 -32l-102 -73q-16 -11 -23.5 -23t-7.5 -38v-87q0 -19 6 -25t25 -6h164q20 0 25.5 6t5.5 25v134h56v-145
q0 -40 -19.5 -59.5t-59.5 -19.5h-192q-40 0 -59.5 19.5t-19.5 59.5v116q0 19 5 33.5t16.5 27t30.5 25.5l93 72q29 20 43 39t14 52v88q0 20 -5.5 25.5t-25.5 5.5h-52q-19 0 -25 -5.5t-6 -25.5v-98q0 -19 12 -39t27.5 -38.5t27.5 -34.5z" />
    <glyph glyph-name="quotesingle" unicode="'" horiz-adv-x="139" 
d="M35 622h69v-212h-69v212z" />
    <glyph glyph-name="parenleft" unicode="(" horiz-adv-x="245" 
d="M49 342q0 214 49.5 331.5t156.5 117.5h16v-57l-14 -1q-55 -4 -86 -55.5t-43 -138.5t-12 -196v-73q0 -109 12 -195.5t43 -138.5t86 -56l14 -1v-57h-16q-107 0 -156.5 117.5t-49.5 331.5v71z" />
    <glyph glyph-name="parenright" unicode=")" horiz-adv-x="245" 
d="M193 271q0 -214 -49.5 -331.5t-156.5 -117.5h-16v57l14 1q56 4 86.5 56t42.5 138.5t12 195.5v73q0 109 -12 196t-42.5 138.5t-86.5 55.5l-14 1v57h16q107 0 156.5 -117.5t49.5 -331.5v-71z" />
    <glyph glyph-name="asterisk" unicode="*" horiz-adv-x="302" 
d="M166 489h-30l-4 10.5t-8 31t-4 50.5v41h62v-41q0 -30 -4 -50.5t-8 -31zM156 503l-10 -28l-11 -0.5t-31.5 2t-49.5 11.5l-39 13l19 59l39 -13q29 -9 47 -19.5t27 -17.5zM139 498l24 -18l-2.5 -11t-11.5 -29.5t-27 -43.5l-24 -33l-51 37l25 33q18 24 33 38t24.5 20.5z
M139 480l24 18l9.5 -6t25 -20t32.5 -39l24 -33l-50 -37l-24 34q-17 24 -26 42.5t-12 29.5zM156 475l-10 28l8.5 7.5t27 17.5t47.5 19l38 12l20 -59l-40 -12q-28 -9 -48.5 -11.5t-31.5 -2z" />
    <glyph glyph-name="plus" unicode="+" horiz-adv-x="380" 
d="M25 281v60h330v-60h-330zM155 491h70v-360h-70v360z" />
    <glyph glyph-name="comma" unicode="," horiz-adv-x="142" 
d="M30 112h82v-58l-55 -191h-27v249z" />
    <glyph glyph-name="hyphen" unicode="-" horiz-adv-x="307" 
d="M55 263v58h196v-58h-196z" />
    <glyph glyph-name="period" unicode="." horiz-adv-x="142" 
d="M30 0v112h82v-112h-82z" />
    <glyph glyph-name="slash" unicode="/" horiz-adv-x="384" 
d="M272 699h68l-264 -835h-68z" />
    <glyph glyph-name="zero" unicode="0" horiz-adv-x="361" 
d="M311 543v-464q0 -40 -19.5 -59.5t-59.5 -19.5h-103q-40 0 -59.5 19.5t-19.5 59.5v464q0 40 19.5 59.5t59.5 19.5h103q40 0 59.5 -19.5t19.5 -59.5zM242 90v442q0 20 -5.5 25.5t-25.5 5.5h-61q-19 0 -25 -5.5t-6 -25.5v-442q0 -19 6 -25t25 -6h61q20 0 25.5 6t5.5 25z" />
    <glyph glyph-name="one" unicode="1" horiz-adv-x="211" 
d="M115 622v-59h-95v59h95zM88 622h68v-622h-68v622z" />
    <glyph glyph-name="two" unicode="2" horiz-adv-x="290" 
d="M93 532v-110h-68v121q0 40 19.5 59.5t59.5 19.5h77q40 0 59.5 -19.5t19.5 -59.5v-55q0 -37 -5.5 -66t-20.5 -64l-137 -299h168v-59h-239v58l142 311q14 32 18.5 59.5t4.5 63.5v40q0 20 -5.5 25.5t-25.5 5.5h-36q-19 0 -25 -5.5t-6 -25.5z" />
    <glyph glyph-name="three" unicode="3" horiz-adv-x="322" 
d="M98 532v-102h-68v113q0 40 19.5 59.5t59.5 19.5h84q40 0 59.5 -19.5t19.5 -59.5v-179q0 -22 -10 -34t-27 -14q17 -3 27 -14t10 -33v-190q0 -40 -19.5 -59.5t-59.5 -19.5h-84q-40 0 -59.5 19.5t-19.5 59.5v112h68v-101q0 -19 6 -25t25 -6h44q20 0 25.5 6t5.5 25v164
q0 20 -5.5 25.5t-25.5 5.5h-73v60h73q20 0 25.5 6t5.5 25v156q0 20 -5.5 25.5t-25.5 5.5h-44q-19 0 -25 -5.5t-6 -25.5z" />
    <glyph glyph-name="four" unicode="4" horiz-adv-x="325" 
d="M38 127v59h287v-59h-287zM5 127v53l164 442h67l-183 -495h-48zM206 304h66v-304h-66v304z" />
    <glyph glyph-name="five" unicode="5" horiz-adv-x="321" 
d="M109 192v-102q0 -19 6 -25t25 -6h44q20 0 25.5 6t5.5 25v203q0 20 -5.5 25.5t-25.5 5.5h-101v59h122q40 0 59.5 -19.5t19.5 -59.5v-225q0 -40 -19.5 -59.5t-59.5 -19.5h-86q-40 0 -59.5 19.5t-19.5 59.5v113h69zM109 324h-69v298h244v-59h-175v-239z" />
    <glyph glyph-name="six" unicode="6" horiz-adv-x="352" 
d="M238 90v173q0 20 -5.5 25.5t-25.5 5.5h-113v59h134q40 0 59.5 -19.5t19.5 -59.5v-195q0 -40 -19.5 -59.5t-59.5 -19.5h-54v59h33q20 0 25.5 6t5.5 25zM119 532v-442q0 -19 6 -25t25 -6h33v-59h-54q-40 0 -59.5 19.5t-19.5 59.5v464q0 40 19.5 59.5t59.5 19.5h53v-59h-32
q-19 0 -25 -5.5t-6 -25.5zM238 426v106q0 20 -5.5 25.5t-25.5 5.5h-36v59h56q40 0 59.5 -19.5t19.5 -59.5v-117h-68z" />
    <glyph glyph-name="seven" unicode="7" horiz-adv-x="256" 
d="M224 622v-59h-219v59h219zM251 622v-46l-161 -576h-68l171 622h58z" />
    <glyph glyph-name="eight" unicode="8" horiz-adv-x="360" 
d="M118 252v-162q0 -19 6 -25t25 -6h31v-59h-51q-40 0 -59.5 19.5t-19.5 59.5v186q0 22 10 33t27 14q-17 2 -27 14t-10 34v183q0 40 19.5 59.5t59.5 19.5h54v-59h-34q-19 0 -25 -5.5t-6 -25.5v-158q0 -19 6 -25t25 -6h37v-60h-37q-19 0 -25 -5.5t-6 -25.5zM242 374v158
q0 20 -5.5 25.5t-25.5 5.5h-34v59h54q40 0 59.5 -19.5t19.5 -59.5v-183q0 -22 -10 -34t-27 -14q17 -3 27 -14t10 -33v-186q0 -40 -19.5 -59.5t-59.5 -19.5h-61v59h41q20 0 25.5 6t5.5 25v162q0 20 -5.5 25.5t-25.5 5.5h-37v60h37q20 0 25.5 6t5.5 25z" />
    <glyph glyph-name="nine" unicode="9" horiz-adv-x="347" 
d="M109 532v-183q0 -19 6 -25t25 -6h113v-59h-134q-40 0 -59.5 19.5t-19.5 59.5v205q0 40 19.5 59.5t59.5 19.5h54v-59h-33q-19 0 -25 -5.5t-6 -25.5zM228 90v442q0 20 -5.5 25.5t-25.5 5.5h-33v59h54q40 0 59.5 -19.5t19.5 -59.5v-464q0 -40 -19.5 -59.5t-59.5 -19.5h-53
v59h32q20 0 25.5 6t5.5 25zM109 196v-106q0 -19 6 -25t25 -6h36v-59h-56q-40 0 -59.5 19.5t-19.5 59.5v117h68z" />
    <glyph glyph-name="colon" unicode=":" horiz-adv-x="142" 
d="M30 373v112h82v-112h-82zM30 0v112h82v-112h-82z" />
    <glyph glyph-name="semicolon" unicode=";" horiz-adv-x="142" 
d="M30 112h82v-58l-55 -191h-27v249zM30 373v112h82v-112h-82z" />
    <glyph glyph-name="less" unicode="&#x3c;" horiz-adv-x="390" 
d="M360 399l-267 -88l267 -88v-66l-330 115v78l330 115v-66z" />
    <glyph glyph-name="equal" unicode="=" horiz-adv-x="390" 
d="M30 366v62h330v-62h-330zM30 194v62h330v-62h-330z" />
    <glyph glyph-name="greater" unicode="&#x3e;" horiz-adv-x="390" 
d="M297 311l-267 88v66l330 -115v-78l-330 -115v66z" />
    <glyph glyph-name="question" unicode="?" horiz-adv-x="308" 
d="M194 354v177q0 18 -4.5 25.5t-23.5 7.5h-40v58h58q42 0 60.5 -21t18.5 -56v-204q0 -35 -18.5 -56.5t-60.5 -21.5h-49v59h31q19 0 23.5 7t4.5 25zM100 322h69l-6 -126h-57zM93 0v112h82v-112h-82zM89 531v-72h-69v86q0 35 18.5 56t60.5 21h58v-58h-39q-19 0 -24 -7.5
t-5 -25.5z" />
    <glyph glyph-name="at" unicode="@" horiz-adv-x="651" 
d="M229 348q0 40 19.5 59.5t59.5 19.5h30q20 0 34.5 -8t20.5 -26v34h68v-287h45q20 0 25.5 6t5.5 25v300q0 20 -5.5 26t-25.5 6h-321q-19 0 -25 -6t-6 -26v-440q0 -19 6 -25t25 -6h277v-61h-298q-40 0 -59.5 19.5t-19.5 59.5v467q0 40 19.5 59.5t59.5 19.5h362
q40 0 59.5 -19.5t19.5 -59.5v-325q0 -40 -19.5 -59.5t-59.5 -19.5h-126v49q-3 -27 -21 -38t-41 -11h-30q-40 0 -59.5 19.5t-19.5 59.5v188zM298 337v-166q0 -19 6 -25t25 -6h30q18 0 26 8t8 28v156q0 20 -8 28t-26 8h-30q-19 0 -25 -5.5t-6 -25.5z" />
    <glyph glyph-name="A" unicode="A" horiz-adv-x="343" 
d="M257 217v-59h-174v59h174zM328 0h-69l-93 574l-82 -574h-69l97 622h109z" />
    <glyph glyph-name="B" unicode="B" horiz-adv-x="381" 
d="M55 622h197q40 0 59.5 -19.5t19.5 -59.5v-179q0 -22 -10 -34.5t-27 -14.5q17 -3 27 -13.5t10 -32.5v-190q0 -40 -19.5 -59.5t-59.5 -19.5h-197v622zM262 90v167q0 20 -5.5 25.5t-25.5 5.5h-107v-229h107q20 0 25.5 6t5.5 25zM262 378v154q0 20 -5.5 25.5t-25.5 5.5h-107
v-216h107q20 0 25.5 6t5.5 25z" />
    <glyph glyph-name="C" unicode="C" horiz-adv-x="345" 
d="M119 532v-443q0 -19 6 -25t25 -6h29v-59h-50q-40 0 -59.5 19.5t-19.5 59.5v465q0 40 19.5 59.5t59.5 19.5h57v-59h-36q-19 0 -25 -5.5t-6 -25.5zM236 438v94q0 20 -5.5 25.5t-25.5 5.5h-34v59h55q40 0 59.5 -19.5t19.5 -59.5v-105h-69zM236 89v94h69v-105
q0 -40 -19.5 -59.5t-59.5 -19.5h-55v59h34q20 0 25.5 6t5.5 25z" />
    <glyph glyph-name="D" unicode="D" horiz-adv-x="381" 
d="M262 397v135q0 20 -5.5 25.5t-25.5 5.5h-137v59h158q40 0 59.5 -19.5t19.5 -59.5v-146h-69zM262 90v332h69v-343q0 -40 -19.5 -59.5t-59.5 -19.5h-158v59h137q20 0 25.5 6t5.5 25zM55 622h69v-622h-69v622z" />
    <glyph glyph-name="E" unicode="E" horiz-adv-x="315" 
d="M55 622h69v-622h-69v622zM258 353v-59h-159v59h159zM288 622v-59h-189v59h189zM295 59v-59h-196v59h196z" />
    <glyph glyph-name="F" unicode="F" horiz-adv-x="303" 
d="M55 622h69v-622h-69v622zM258 343v-59h-159v59h159zM298 622v-59h-199v59h199z" />
    <glyph glyph-name="G" unicode="G" horiz-adv-x="350" 
d="M119 532v-443q0 -19 6 -25t25 -6h29v-59h-50q-40 0 -59.5 19.5t-19.5 59.5v465q0 40 19.5 59.5t59.5 19.5h57v-59h-36q-19 0 -25 -5.5t-6 -25.5zM305 313v-59h-119v59h119zM236 448v84q0 20 -5.5 25.5t-25.5 5.5h-34v59h55q40 0 59.5 -19.5t19.5 -59.5v-95h-69zM236 89
v184h69v-195q0 -40 -19.5 -59.5t-59.5 -19.5h-55v59h34q20 0 25.5 6t5.5 25z" />
    <glyph glyph-name="H" unicode="H" horiz-adv-x="382" 
d="M288 340v-59h-189v59h189zM55 622h69v-622h-69v622zM258 622h69v-622h-69v622z" />
    <glyph glyph-name="I" unicode="I" horiz-adv-x="198" 
d="M65 622h68v-622h-68v622z" />
    <glyph glyph-name="J" unicode="J" horiz-adv-x="301" 
d="M15 192h69v-102q0 -19 6 -25t25 -6h34q20 0 25.5 6t5.5 25v532h69v-543q0 -40 -19.5 -59.5t-59.5 -19.5h-76q-40 0 -59.5 19.5t-19.5 59.5v113z" />
    <glyph glyph-name="K" unicode="K" horiz-adv-x="345" 
d="M130 308h71l132 -308h-74zM201 308h-71l131 314h74zM55 622h68v-622h-68v622z" />
    <glyph glyph-name="L" unicode="L" horiz-adv-x="271" 
d="M55 622h68v-622h-68v622zM96 0v59h170v-59h-170z" />
    <glyph glyph-name="M" unicode="M" horiz-adv-x="475" 
d="M274 135h-73l-87 336v-471h-59v622h75l107 -400l108 400h75v-622h-59v471z" />
    <glyph glyph-name="N" unicode="N" horiz-adv-x="377" 
d="M259 622h63v-622h-75l-129 482v-482h-63v622h80l124 -465v465z" />
    <glyph glyph-name="O" unicode="O" horiz-adv-x="360" 
d="M242 141v391q0 20 -5.5 25.5t-25.5 5.5h-34v59h54q40 0 59.5 -19.5t19.5 -59.5v-402h-68zM242 90v101h68v-112q0 -40 -19.5 -59.5t-59.5 -19.5h-61v59h41q20 0 25.5 6t5.5 25zM118 532v-392h-68v403q0 40 19.5 59.5t59.5 19.5h54v-59h-34q-19 0 -25 -5.5t-6 -25.5z
M118 199v-109q0 -19 6 -25t25 -6h31v-59h-51q-40 0 -59.5 19.5t-19.5 59.5v120h68z" />
    <glyph glyph-name="P" unicode="P" horiz-adv-x="345" 
d="M247 340v192q0 20 -5.5 25.5t-25.5 5.5h-161v59h181q40 0 59.5 -19.5t19.5 -59.5v-214q0 -40 -19.5 -59.5t-59.5 -19.5h-140v59h120q20 0 25.5 6t5.5 25zM55 622h68v-622h-68v622z" />
    <glyph glyph-name="Q" unicode="Q" horiz-adv-x="360" 
d="M242 141v391q0 20 -5.5 25.5t-25.5 5.5h-34v59h54q40 0 59.5 -19.5t19.5 -59.5v-402h-68zM242 90v101h68v-112q0 -40 -19.5 -59.5t-59.5 -19.5h-61v59h41q20 0 25.5 6t5.5 25zM118 532v-392h-68v403q0 40 19.5 59.5t59.5 19.5h54v-59h-34q-19 0 -25 -5.5t-6 -25.5z
M118 199v-109q0 -19 6 -25t25 -6h31v-59h-51q-40 0 -59.5 19.5t-19.5 59.5v120h68zM158 36h67l88 -133h-68z" />
    <glyph glyph-name="R" unicode="R" horiz-adv-x="364" 
d="M247 350v182q0 20 -5.5 25.5t-25.5 5.5h-161v59h181q40 0 59.5 -19.5t19.5 -59.5v-204q0 -40 -19.5 -59.5t-59.5 -19.5h-140v59h120q20 0 25.5 6t5.5 25zM55 622h68v-622h-68v622zM173 286h71l103 -286h-74z" />
    <glyph glyph-name="S" unicode="S" horiz-adv-x="327" 
d="M218 90v170q0 20 -5.5 25.5t-25.5 5.5h-68q-40 0 -59.5 19.5t-19.5 59.5v173q0 40 19.5 59.5t59.5 19.5h88q40 0 59.5 -19.5t19.5 -59.5v-96h-69v85q0 20 -5.5 25.5t-25.5 5.5h-46q-19 0 -25 -5.5t-6 -25.5v-151q0 -19 6 -25t25 -6h68q40 0 59.5 -19.5t19.5 -59.5v-192
q0 -40 -19.5 -59.5t-59.5 -19.5h-87q-40 0 -59.5 19.5t-19.5 59.5v96h69v-85q0 -19 6 -25t25 -6h45q20 0 25.5 6t5.5 25z" />
    <glyph glyph-name="T" unicode="T" horiz-adv-x="278" 
d="M105 622h68v-622h-68v622zM273 622v-59h-268v59h268z" />
    <glyph glyph-name="U" unicode="U" horiz-adv-x="364" 
d="M244 90v532h68v-543q0 -40 -19.5 -59.5t-59.5 -19.5h-61v59h41q20 0 25.5 6t5.5 25zM120 622v-532q0 -19 6 -25t25 -6h31v-59h-51q-40 0 -59.5 19.5t-19.5 59.5v543h68z" />
    <glyph glyph-name="V" unicode="V" horiz-adv-x="319" 
d="M245 622h69l-100 -622h-109l-100 622h69l85 -574z" />
    <glyph glyph-name="W" unicode="W" horiz-adv-x="549" 
d="M470 622h69l-91 -622h-104l-70 493l-69 -493h-104l-91 622h69l75 -574l79 574h82l79 -574z" />
    <glyph glyph-name="X" unicode="X" horiz-adv-x="334" 
d="M203 318l126 -318h-74l-88 253l-88 -253h-74l126 318l-116 304h74l78 -242l78 242h74z" />
    <glyph glyph-name="Y" unicode="Y" horiz-adv-x="319" 
d="M196 190h-68l-123 432h69l88 -365l83 365h69zM128 229h68v-229h-68v229z" />
    <glyph glyph-name="Z" unicode="Z" horiz-adv-x="273" 
d="M268 623v-59h-253v59h253zM200 564h68l-195 -505h-68zM263 59v-59h-258v59h258z" />
    <glyph glyph-name="bracketleft" unicode="[" horiz-adv-x="309" 
d="M102 722v59h131v-59h-131zM63 781h69v-948h-69v948zM91 -167v59h142v-59h-142z" />
    <glyph glyph-name="backslash" unicode="\" horiz-adv-x="385" 
d="M44 699h69l264 -835h-69z" />
    <glyph glyph-name="bracketright" unicode="]" horiz-adv-x="309" 
d="M184 781v-59h-131v59h131zM154 781h69v-948h-69v948zM195 -108v-59h-142v59h142z" />
    <glyph glyph-name="asciicircum" unicode="^" horiz-adv-x="443" 
d="M180 671h83l135 -344h-72l-105 277l-104 -277h-72z" />
    <glyph glyph-name="underscore" unicode="_" horiz-adv-x="474" 
d="M0 -103v59h474v-59h-474z" />
    <glyph glyph-name="grave" unicode="`" horiz-adv-x="400" 
d="M203 643l78 -127h-62l-98 127h82z" />
    <glyph glyph-name="a" unicode="a" horiz-adv-x="328" 
d="M109 224h-69v182q0 40 19.5 59.5t59.5 19.5h40q26 0 42.5 -13.5t16.5 -47.5v-62h-4v28q0 20 -8 28t-26 8h-40q-19 0 -25 -5.5t-6 -25.5v-171zM283 0h-69v422v8v55h69v-485zM40 261h69v-171q0 -19 6 -25t25 -6h40q18 0 26 8t8 28v26h4v-60q0 -34 -16.5 -47.5t-42.5 -13.5
h-40q-40 0 -59.5 19.5t-19.5 59.5v182z" />
    <glyph glyph-name="b" unicode="b" horiz-adv-x="328" 
d="M219 262h69v-183q0 -40 -19.5 -59.5t-59.5 -19.5h-40q-26 0 -42.5 13.5t-16.5 47.5v56l4 1v-23q0 -20 8 -28t26 -8h40q20 0 25.5 6t5.5 25v172zM288 225h-69v171q0 20 -5.5 25.5t-25.5 5.5h-40q-18 0 -26 -8t-8 -28v-34h-4v68q0 34 16.5 47.5t42.5 13.5h40
q40 0 59.5 -19.5t19.5 -59.5v-182zM45 669h69v-609v-7v-53h-69v669z" />
    <glyph glyph-name="c" unicode="c" horiz-adv-x="325" 
d="M109 395v-305q0 -19 6 -25t25 -6h24v-59h-45q-40 0 -59.5 19.5t-19.5 59.5v327q0 40 19.5 59.5t59.5 19.5h52v-59h-31q-19 0 -25 -5.5t-6 -25.5zM221 341v54q0 20 -5.5 25.5t-25.5 5.5h-34v59h55q40 0 59.5 -19.5t19.5 -59.5v-65h-69zM221 90v54h69v-65
q0 -40 -19.5 -59.5t-59.5 -19.5h-55v59h34q20 0 25.5 6t5.5 25z" />
    <glyph glyph-name="d" unicode="d" horiz-adv-x="328" 
d="M109 225h-69v182q0 40 19.5 59.5t59.5 19.5h40q26 0 42.5 -13.5t16.5 -47.5v-68h-4v34q0 20 -8 28t-26 8h-40q-19 0 -25 -5.5t-6 -25.5v-171zM214 669h69v-669h-69v53v7v609zM40 262h69v-172q0 -19 6 -25t25 -6h40q18 0 26 8t8 28v23l4 -1v-56q0 -34 -16.5 -47.5
t-42.5 -13.5h-40q-40 0 -59.5 19.5t-19.5 59.5v183z" />
    <glyph glyph-name="e" unicode="e" horiz-adv-x="330" 
d="M114 395v-305q0 -19 6 -25t25 -6h24v-59h-45q-40 0 -59.5 19.5t-19.5 59.5v327q0 40 19.5 59.5t59.5 19.5h52v-59h-31q-19 0 -25 -5.5t-6 -25.5zM226 229v166q0 20 -5.5 25.5t-25.5 5.5h-34v59h55q40 0 59.5 -19.5t19.5 -59.5v-177h-69zM223 90v44h69v-55
q0 -40 -19.5 -59.5t-59.5 -19.5h-52v59h31q20 0 25.5 6t5.5 25zM295 278v-59h-220v59h220z" />
    <glyph glyph-name="f" unicode="f" horiz-adv-x="197" 
d="M122 574v-574h-69v590q0 40 19.5 59.5t59.5 19.5h60v-64h-39q-19 0 -25 -5.5t-6 -25.5zM192 485v-59h-187v59h187z" />
    <glyph glyph-name="g" unicode="g" horiz-adv-x="328" 
d="M40 262h69v-172q0 -19 6 -25t25 -6h40q18 0 26 8t8 28v23l4 -1v-56q0 -34 -16.5 -47.5t-42.5 -13.5h-40q-40 0 -59.5 19.5t-19.5 59.5v183zM109 224h-69v182q0 40 19.5 59.5t59.5 19.5h40q26 0 42.5 -13.5t16.5 -47.5v-68h-4v34q0 20 -8 28t-26 8h-40q-19 0 -25 -5.5
t-6 -25.5v-171zM214 -51v61h69v-72q0 -40 -19.5 -59.5t-59.5 -19.5h-149v59h128q20 0 25.5 6t5.5 25zM283 -2h-69v434v3v50h69v-487z" />
    <glyph glyph-name="h" unicode="h" horiz-adv-x="333" 
d="M288 0h-69v395q0 20 -5.5 25.5t-25.5 5.5h-40q-18 0 -26 -8t-8 -28v-31h-4v65q0 34 16.5 47.5t42.5 13.5h40q40 0 59.5 -19.5t19.5 -59.5v-406zM114 0h-69v669h69v-669z" />
    <glyph glyph-name="i" unicode="i" horiz-adv-x="159" 
d="M114 0h-69v485h69v-485zM43 589v81h73v-81h-73z" />
    <glyph glyph-name="j" unicode="j" horiz-adv-x="159" 
d="M45 -51v536h69v-547q0 -40 -19.5 -59.5t-59.5 -19.5h-35v59h14q20 0 25.5 6t5.5 25zM43 589v81h73v-81h-73z" />
    <glyph glyph-name="k" unicode="k" horiz-adv-x="325" 
d="M114 0h-69v669h69v-669zM136 256h71l113 -256h-74zM207 256h-71l110 229h74z" />
    <glyph glyph-name="l" unicode="l" horiz-adv-x="159" 
d="M114 0h-69v669h69v-669z" />
    <glyph glyph-name="m" unicode="m" horiz-adv-x="502" 
d="M288 0h-69v395q0 20 -5.5 25.5t-25.5 5.5h-40q-18 0 -26 -8t-8 -28v-34h-4v68q0 34 16.5 47.5t42.5 13.5h40q40 0 59.5 -19.5t19.5 -59.5v-406zM114 0h-69v485h69v-52v-7v-426zM462 0h-69v395q0 20 -5.5 25.5t-25.5 5.5h-40q-18 0 -26 -8t-8 -28v-34h-9v67q0 34 18 48
t46 14h40q40 0 59.5 -19.5t19.5 -59.5v-406z" />
    <glyph glyph-name="n" unicode="n" horiz-adv-x="333" 
d="M114 0h-69v485h69v-52v-7v-426zM288 0h-69v395q0 20 -5.5 25.5t-25.5 5.5h-40q-18 0 -26 -8t-8 -28v-34h-4v68q0 34 16.5 47.5t42.5 13.5h40q40 0 59.5 -19.5t19.5 -59.5v-406z" />
    <glyph glyph-name="o" unicode="o" horiz-adv-x="340" 
d="M232 141v254q0 20 -5.5 25.5t-25.5 5.5h-34v59h54q40 0 59.5 -19.5t19.5 -59.5v-265h-68zM232 90v101h68v-112q0 -40 -19.5 -59.5t-59.5 -19.5h-61v59h41q20 0 25.5 6t5.5 25zM108 395v-255h-68v266q0 40 19.5 59.5t59.5 19.5h54v-59h-34q-19 0 -25 -5.5t-6 -25.5z
M108 199v-109q0 -19 6 -25t25 -6h31v-59h-51q-40 0 -59.5 19.5t-19.5 59.5v120h68z" />
    <glyph glyph-name="p" unicode="p" horiz-adv-x="328" 
d="M288 224h-69v171q0 20 -5.5 25.5t-25.5 5.5h-40q-18 0 -26 -8t-8 -28v-34h-4v68q0 34 16.5 47.5t42.5 13.5h40q40 0 59.5 -19.5t19.5 -59.5v-182zM114 -141h-69v626h69v-48v-13v-565zM219 262h69v-183q0 -40 -19.5 -59.5t-59.5 -19.5h-40q-26 0 -42.5 13.5t-16.5 47.5v56
l4 1v-23q0 -20 8 -28t26 -8h40q20 0 25.5 6t5.5 25v172z" />
    <glyph glyph-name="q" unicode="q" horiz-adv-x="328" 
d="M109 224h-69v182q0 40 19.5 59.5t59.5 19.5h40q26 0 42.5 -13.5t16.5 -47.5v-68h-4v34q0 20 -8 28t-26 8h-40q-19 0 -25 -5.5t-6 -25.5v-171zM283 -141h-69v565v13v48h69v-626zM40 262h69v-172q0 -19 6 -25t25 -6h40q18 0 26 8t8 28v23l4 -1v-56q0 -34 -16.5 -47.5
t-42.5 -13.5h-40q-40 0 -59.5 19.5t-19.5 59.5v183z" />
    <glyph glyph-name="r" unicode="r" horiz-adv-x="212" 
d="M207 485v-60h-30q-63 0 -63 -75v-19h-4v73q0 17 8.5 36t25.5 32t42 13h21zM114 0h-69v485h69v-85v-5v-395z" />
    <glyph glyph-name="s" unicode="s" horiz-adv-x="297" 
d="M194 89v92q0 20 -5.5 25.5t-25.5 5.5h-49q-40 0 -59.5 19.5t-19.5 59.5v115q0 40 19.5 59.5t59.5 19.5h68q40 0 59.5 -19.5t19.5 -59.5v-49h-68v39q0 20 -5.5 25.5t-25.5 5.5h-28q-19 0 -25 -5.5t-6 -25.5v-95q0 -19 6 -25t25 -6h49q40 0 59.5 -19.5t19.5 -59.5v-112
q0 -40 -19.5 -59.5t-59.5 -19.5h-67q-40 0 -59.5 19.5t-19.5 59.5v49h68v-39q0 -19 6 -25t25 -6h27q20 0 25.5 6t5.5 25z" />
    <glyph glyph-name="t" unicode="t" horiz-adv-x="197" 
d="M118 564v-469q0 -19 6 -25t25 -6h38v-64h-59q-40 0 -59.5 19.5t-19.5 59.5v485h69zM187 485v-59h-182v59h182z" />
    <glyph glyph-name="u" unicode="u" horiz-adv-x="333" 
d="M45 485h69v-395q0 -19 6 -25t25 -6h40q18 0 26 8t8 28v34h4v-68q0 -34 -16.5 -47.5t-42.5 -13.5h-40q-40 0 -59.5 19.5t-19.5 59.5v406zM219 485h69v-485h-69v52v7v426z" />
    <glyph glyph-name="v" unicode="v" horiz-adv-x="279" 
d="M74 485l65 -437l66 437h69l-80 -485h-109l-80 485h69z" />
    <glyph glyph-name="w" unicode="w" horiz-adv-x="507" 
d="M436 485h66l-86 -485h-105l-58 389l-57 -389h-105l-86 485h66l72 -437l63 437h95l62 -437z" />
    <glyph glyph-name="x" unicode="x" horiz-adv-x="314" 
d="M188 248l121 -248h-74l-78 175l-78 -175h-74l121 248l-111 237h74l69 -165l67 165h74z" />
    <glyph glyph-name="y" unicode="y" horiz-adv-x="309" 
d="M10 485h69l78 -437l73 437h69l-97 -547q-7 -39 -31 -59t-64 -20h-54v59h33q20 0 33 6t17 25l12 51h-45z" />
    <glyph glyph-name="z" unicode="z" horiz-adv-x="266" 
d="M251 485v-59h-226v59h226zM182 426h69l-167 -367h-69zM251 59v-59h-236v59h236z" />
    <glyph glyph-name="braceleft" unicode="{" horiz-adv-x="271" 
d="M180 689v-261q0 -52 -18.5 -83.5t-56.5 -36.5q38 -5 56.5 -36.5t18.5 -82.5v-263q0 -18 7.5 -25.5t26.5 -7.5h50v-59h-83q-42 0 -55.5 21t-13.5 57v251q0 60 -21 88t-67 28h-19v58h19q46 0 67 28t21 89v249q0 35 13.5 56.5t55.5 21.5h83v-59h-50q-19 0 -26.5 -7.5
t-7.5 -25.5z" />
    <glyph glyph-name="bar" unicode="|" 
d="M55 719h69v-817h-69v817z" />
    <glyph glyph-name="braceright" unicode="}" horiz-adv-x="271" 
d="M90 428v261q0 18 -7 25.5t-27 7.5h-50v59h83q42 0 55.5 -21.5t13.5 -56.5v-249q0 -61 21 -89t67 -28h19v-58h-19q-46 0 -67 -28t-21 -88v-251q0 -36 -13.5 -57t-55.5 -21h-83v59h50q20 0 27 7.5t7 25.5v263q0 51 18.5 82.5t56.5 36.5q-38 5 -56.5 36.5t-18.5 83.5z" />
    <glyph glyph-name="asciitilde" unicode="~" horiz-adv-x="472" 
d="M318 216q-36 0 -57.5 12.5t-37.5 28.5t-33.5 28.5t-43.5 12.5q-19 0 -24.5 -9t-5.5 -25v-47h-64v60q0 35 18 55.5t59 20.5h29q30 0 50.5 -12.5t37 -28.5t36 -28.5t49.5 -12.5q18 0 22.5 9t4.5 26v46h64v-60q0 -34 -18 -55t-60 -21h-26z" />
    <glyph glyph-name="uni00A0" unicode="&#xa0;" horiz-adv-x="130" 
 />
    <glyph glyph-name="exclamdown" unicode="&#xa1;" horiz-adv-x="185" 
d="M50 -137l13 426h59l13 -426h-85zM51 485h82v-112h-82v112z" />
    <glyph glyph-name="cent" unicode="&#xa2;" horiz-adv-x="325" 
d="M109 395v-305q0 -19 6 -25t25 -6h24v-59h-45q-40 0 -59.5 19.5t-19.5 59.5v327q0 40 19.5 59.5t59.5 19.5h52v-59h-31q-19 0 -25 -5.5t-6 -25.5zM221 341v54q0 20 -5.5 25.5t-25.5 5.5h-34v59h55q40 0 59.5 -19.5t19.5 -59.5v-65h-69zM221 90v54h69v-65
q0 -40 -19.5 -59.5t-59.5 -19.5h-55v59h34q20 0 25.5 6t5.5 25zM201 475h-65v86h65v-86zM201 -75h-65v85h65v-85z" />
    <glyph glyph-name="sterling" unicode="&#xa3;" horiz-adv-x="355" 
d="M153 532v-390q0 -28 -4 -50t-22 -33h203v-59h-295v59q26 0 37.5 23.5t11.5 74.5v386q0 40 19.5 59.5t59.5 19.5h84q40 0 59.5 -19.5t19.5 -59.5v-91h-68v80q0 20 -5.5 25.5t-25.5 5.5h-43q-19 0 -25 -5.5t-6 -25.5zM35 273v59h245v-59h-245z" />
    <glyph glyph-name="currency" unicode="&#xa4;" horiz-adv-x="454" 
d="M368 407v-217q0 -26 -8.5 -44t-26 -26.5t-44.5 -8.5h-102q-26 0 -44 8.5t-26.5 26.5t-8.5 44v217q0 27 8.5 44.5t26.5 26t44 8.5h102q27 0 44.5 -8.5t26 -26t8.5 -44.5zM207 170h62q20 0 25.5 6t5.5 25v195q0 20 -5.5 25.5t-25.5 5.5h-62q-19 0 -25 -5.5t-6 -25.5v-195
q0 -19 6 -25t25 -6zM192 452l-46 -46l-81 80l46 46zM322 406l-46 46l81 80l46 -46zM146 193l46 -46l-81 -80l-46 46zM276 147l46 46l81 -80l-46 -46z" />
    <glyph glyph-name="yen" unicode="&#xa5;" horiz-adv-x="344" 
d="M142 340v-59h-125v59h125zM327 340v-59h-114v59h114zM327 215v-56h-310v56h310zM206 190h-68l-123 432h68l89 -347l89 347h68zM138 229h68v-229h-68v229z" />
    <glyph glyph-name="brokenbar" unicode="&#xa6;" 
d="M55 247h69v-345h-69v345zM124 374h-69v345h69v-345z" />
    <glyph glyph-name="section" unicode="&#xa7;" horiz-adv-x="387" 
d="M213 203v39h24q20 0 25.5 6t5.5 25v91q0 20 -5.5 25.5t-25.5 5.5h-68q-40 0 -59.5 19.5t-19.5 59.5v115q0 40 19.5 59.5t59.5 19.5h88q40 0 59.5 -19.5t19.5 -59.5v-49h-69v38q0 20 -5.5 25.5t-25.5 5.5h-46q-19 0 -25 -5.5t-6 -25.5v-93q0 -19 6 -25t25 -6h68
q40 0 59.5 -19.5t19.5 -59.5v-83q0 -40 -14.5 -64.5t-54.5 -24.5h-55zM174 434v-39h-24q-19 0 -25 -5.5t-6 -25.5v-91q0 -19 6 -25t25 -6h68q40 0 59.5 -19.5t19.5 -59.5v-115q0 -40 -19.5 -59.5t-59.5 -19.5h-88q-40 0 -59.5 19.5t-19.5 59.5v49h69v-38q0 -19 6 -25t25 -6
h46q20 0 25.5 6t5.5 25v93q0 20 -5.5 25.5t-25.5 5.5h-68q-40 0 -59.5 19.5t-19.5 59.5v83q0 40 14.5 64.5t54.5 24.5h55z" />
    <glyph glyph-name="dieresis" unicode="&#xa8;" horiz-adv-x="400" 
d="M68 541v84h88v-84h-88zM244 541v84h88v-84h-88z" />
    <glyph glyph-name="copyright" unicode="&#xa9;" horiz-adv-x="682" 
d="M651 342v-71q0 -92 -21.5 -152.5t-67 -89.5t-117.5 -29h-190q-71 0 -117 29t-67.5 89.5t-21.5 152.5v71q0 93 21.5 155t67.5 93.5t117 31.5h190q72 0 117.5 -31.5t67 -93.5t21.5 -155zM257 60h186q56 0 86.5 28t42.5 75.5t12 106.5v73q0 59 -12 109.5t-42.5 81
t-86.5 30.5h-186q-55 0 -86 -30.5t-43 -81t-12 -109.5v-73q0 -59 12 -106.5t43 -75.5t86 -28zM406 240v24h69v-35q0 -40 -19.5 -59.5t-59.5 -19.5h-92q-40 0 -59.5 19.5t-19.5 59.5v177q0 40 19.5 59.5t59.5 19.5h92q40 0 59.5 -19.5t19.5 -59.5v-35h-69v24q0 20 -5.5 25.5
t-25.5 5.5h-50q-19 0 -25 -5.5t-6 -25.5v-155q0 -19 6 -25t25 -6h50q20 0 25.5 6t5.5 25z" />
    <glyph glyph-name="ordfeminine" unicode="&#xaa;" horiz-adv-x="236" 
d="M73 438h-48v128q0 29 14 42.5t42 13.5h37q19 0 30.5 -10t11.5 -34v-44h-3v20q0 26 -24 26h-37q-14 0 -18.5 -4t-4.5 -18v-120zM206 280h-49v297v5v40h49v-342zM25 465h48v-120q0 -13 4.5 -17.5t18.5 -4.5h37q13 0 18.5 5.5t5.5 19.5v18h3v-42q0 -24 -11.5 -34t-30.5 -10
h-37q-28 0 -42 14t-14 42v129z" />
    <glyph glyph-name="guillemotleft" unicode="&#xab;" horiz-adv-x="487" 
d="M164 106l-121 156l121 156h77l-124 -157l124 -155h-77zM364 106l-121 156l121 156h77l-124 -157l124 -155h-77z" />
    <glyph glyph-name="logicalnot" unicode="&#xac;" horiz-adv-x="432" 
d="M392 395v-68h-362v68h362zM392 177h-59v218h59v-218z" />
    <glyph glyph-name="uni00AD" unicode="&#xad;" horiz-adv-x="307" 
d="M55 263v58h196v-58h-196z" />
    <glyph glyph-name="registered" unicode="&#xae;" horiz-adv-x="397" 
d="M362 529v-39q0 -50 -11.5 -82.5t-36.5 -48.5t-64 -16h-103q-39 0 -64 16t-36.5 48.5t-11.5 82.5v39q0 50 11.5 84t36.5 51t64 17h103q39 0 64 -17t36.5 -51t11.5 -84zM148 376h102q30 0 46.5 15t23 41t6.5 57v40q0 32 -6.5 59.5t-23 44.5t-46.5 17h-102q-30 0 -46.5 -17
t-23 -44.5t-6.5 -59.5v-40q0 -31 6.5 -57t23 -41t46.5 -15zM152 620h64q16 0 23.5 -7t7.5 -23v-66q0 -25 -21 -30l32 -87h-32l-31 86h-12v-86h-31v213zM216 527v60q0 7 -6 7h-27v-73h27q6 0 6 6z" />
    <glyph glyph-name="macron" unicode="&#xaf;" horiz-adv-x="400" 
d="M82 550v58h236v-58h-236z" />
    <glyph glyph-name="degree" unicode="&#xb0;" horiz-adv-x="356" 
d="M292 545v-115q0 -39 -19 -58t-58 -19h-80q-39 0 -58 19t-19 58v115q0 39 19 58t58 19h80q39 0 58 -19t19 -58zM228 439v97q0 19 -5.5 24.5t-25.5 5.5h-44q-19 0 -25 -5.5t-6 -24.5v-97q0 -19 6 -24.5t25 -5.5h44q20 0 25.5 5.5t5.5 24.5z" />
    <glyph glyph-name="plusminus" unicode="&#xb1;" horiz-adv-x="390" 
d="M30 349v60h330v-60h-330zM160 489h70v-220h-70v220zM30 179v60h330v-60h-330z" />
    <glyph glyph-name="uni00B2" unicode="&#xb2;" 
d="M61 563v-51h-47v67q0 22 10.5 32.5t32.5 10.5h63q22 0 32.5 -10.5t10.5 -32.5v-31q0 -20 -3 -39t-13 -38l-79 -146h98v-45h-152v44l86 158q9 17 12 33t3 36v12q0 11 -3 14t-14 3h-20q-10 0 -13.5 -3t-3.5 -14z" />
    <glyph glyph-name="uni00B3" unicode="&#xb3;" horiz-adv-x="196" 
d="M64 563v-46h-48v62q0 22 11 32.5t33 10.5h66q22 0 33 -10.5t11 -32.5v-99q0 -12 -5.5 -18.5t-15.5 -7.5q10 -1 15.5 -7.5t5.5 -18.5v-105q0 -22 -11 -32.5t-33 -10.5h-66q-22 0 -33 10.5t-11 32.5v62h48v-45q0 -11 3.5 -14.5t13.5 -3.5h24q11 0 14 3.5t3 14.5v75
q0 11 -3 14t-14 3h-30v43h30q11 0 14 3.5t3 13.5v71q0 11 -3 14t-14 3h-24q-10 0 -13.5 -3t-3.5 -14z" />
    <glyph glyph-name="acute" unicode="&#xb4;" horiz-adv-x="400" 
d="M118 516l78 127h82l-98 -127h-62z" />
    <glyph glyph-name="uni03BC.math" unicode="&#xb5;" horiz-adv-x="339" 
d="M40 485h69v-395q0 -19 6 -25t25 -6h40q18 0 26 8t8 28v34h4v-68q0 -34 -16.5 -47.5t-42.5 -13.5h-40q-40 0 -59.5 19.5t-19.5 59.5v406zM214 485h69v-485h-69v52v7v426zM40 435h69v-576h-69v576z" />
    <glyph glyph-name="paragraph" unicode="&#xb6;" horiz-adv-x="490" 
d="M243 622v-392h-109q-40 0 -59.5 19.5t-19.5 59.5v234q0 40 19.5 59.5t59.5 19.5h109zM207 622h68v-763h-68v763zM357 622h68v-763h-68v763z" />
    <glyph glyph-name="periodcentered" unicode="&#xb7;" horiz-adv-x="202" 
d="M30 259v112h82v-112h-82z" />
    <glyph glyph-name="cedilla" unicode="&#xb8;" horiz-adv-x="400" 
d="M208 -73v22h65v-28q0 -46 -24 -67.5t-65 -21.5h-48v58h37q20 0 27.5 9t7.5 28z" />
    <glyph glyph-name="uni00B9" unicode="&#xb9;" horiz-adv-x="126" 
d="M63 622v-42h-52v42h52zM48 622h48v-342h-48v342z" />
    <glyph glyph-name="ordmasculine" unicode="&#xba;" horiz-adv-x="226" 
d="M152 379v179q0 14 -4.5 18t-18.5 4h-14v42h29q28 0 42 -13.5t14 -42.5v-187h-48zM152 344v71h48v-79q0 -28 -14 -42t-42 -14h-34v42h19q14 0 18.5 4.5t4.5 17.5zM74 558v-179h-48v187q0 29 14 42.5t42 13.5h47v-42h-33q-14 0 -18 -4t-4 -18zM74 420v-76q0 -13 4 -17.5
t18 -4.5h31v-42h-45q-28 0 -42 14t-14 42v84h48z" />
    <glyph glyph-name="guillemotright" unicode="&#xbb;" horiz-adv-x="487" 
d="M241 262l-121 -156h-77l124 155l-124 157h77zM441 262l-121 -156h-77l124 155l-124 157h77z" />
    <glyph glyph-name="questiondown" unicode="&#xbf;" horiz-adv-x="308" 
d="M89 131v-177q0 -18 4.5 -25.5t23.5 -7.5h40v-58h-58q-42 0 -60.5 21t-18.5 56v204q0 35 18.5 56.5t60.5 21.5h49v-59h-31q-19 0 -23.5 -7t-4.5 -25zM183 163h-69l6 126h57zM190 485v-112h-82v112h82zM194 -46v72h69v-86q0 -35 -18.5 -56t-60.5 -21h-58v58h39
q20 0 24.5 7.5t4.5 25.5z" />
    <glyph glyph-name="Agrave" unicode="&#xc0;" horiz-adv-x="343" 
d="M257 217v-59h-174v59h174zM328 0h-69l-93 574l-82 -574h-69l97 622h109zM113 780l78 -127h-62l-98 127h82z" />
    <glyph glyph-name="Aacute" unicode="&#xc1;" horiz-adv-x="343" 
d="M257 217v-59h-174v59h174zM328 0h-69l-93 574l-82 -574h-69l97 622h109zM135 653l78 127h82l-98 -127h-62z" />
    <glyph glyph-name="Acircumflex" unicode="&#xc2;" horiz-adv-x="343" 
d="M257 217v-59h-174v59h174zM328 0h-69l-93 574l-82 -574h-69l97 622h109zM38 653l85 127h87l85 -127h-76l-53 84l-52 -84h-76z" />
    <glyph glyph-name="Atilde" unicode="&#xc3;" horiz-adv-x="343" 
d="M257 217v-59h-174v59h174zM328 0h-69l-93 574l-82 -574h-69l97 622h109zM215 653q-21 0 -38 9t-30.5 17.5t-26.5 8.5q-17 0 -17 -24v-11h-62v14q0 35 15.5 55.5t56.5 20.5h6q21 0 37 -8.5t29 -17.5t25 -9q11 0 15 4.5t4 20.5v10h62v-14q0 -34 -14.5 -55t-56.5 -21h-5z
" />
    <glyph glyph-name="Adieresis" unicode="&#xc4;" horiz-adv-x="343" 
d="M34 653v84h88v-84h-88zM210 653v84h88v-84h-88zM257 217v-59h-174v59h174zM328 0h-69l-93 574l-82 -574h-69l97 622h109z" />
    <glyph glyph-name="Aring" unicode="&#xc5;" horiz-adv-x="343" 
d="M257 217v-59h-174v59h174zM328 0h-69l-93 574l-82 -574h-69l97 622h109zM261 735v-17q0 -34 -16 -49.5t-49 -15.5h-60q-33 0 -49 15.5t-16 49.5v17q0 34 16 49.5t49 15.5h60q33 0 49 -15.5t16 -49.5zM210 724v5q0 17 -4.5 22t-23.5 5h-32q-19 0 -23.5 -5t-4.5 -22v-5
q0 -16 4.5 -21.5t23.5 -5.5h32q19 0 23.5 5.5t4.5 21.5z" />
    <glyph glyph-name="AE" unicode="&#xc6;" horiz-adv-x="528" 
d="M304 622l-221 -622h-69l226 622h64zM279 217v-59h-174v59h174zM264 622h69v-622h-69v622zM504 59v-59h-196v59h196zM467 353v-59h-159v59h159zM497 622v-59h-189v59h189z" />
    <glyph glyph-name="Ccedilla" unicode="&#xc7;" horiz-adv-x="345" 
d="M119 532v-443q0 -19 6 -25t25 -6h29v-59h-50q-40 0 -59.5 19.5t-19.5 59.5v465q0 40 19.5 59.5t59.5 19.5h57v-59h-36q-19 0 -25 -5.5t-6 -25.5zM236 438v94q0 20 -5.5 25.5t-25.5 5.5h-34v59h55q40 0 59.5 -19.5t19.5 -59.5v-105h-69zM236 89v94h69v-105
q0 -40 -19.5 -59.5t-59.5 -19.5h-55v59h34q20 0 25.5 6t5.5 25zM149 -73v22h65v-28q0 -46 -24 -67.5t-65 -21.5h-48v58h37q20 0 27.5 9t7.5 28z" />
    <glyph glyph-name="Egrave" unicode="&#xc8;" horiz-adv-x="315" 
d="M55 622h69v-622h-69v622zM258 353v-59h-159v59h159zM288 622v-59h-189v59h189zM295 59v-59h-196v59h196zM124 780l78 -127h-62l-98 127h82z" />
    <glyph glyph-name="Eacute" unicode="&#xc9;" horiz-adv-x="315" 
d="M55 622h69v-622h-69v622zM258 353v-59h-159v59h159zM288 622v-59h-189v59h189zM295 59v-59h-196v59h196zM136 653l78 127h82l-98 -127h-62z" />
    <glyph glyph-name="Ecircumflex" unicode="&#xca;" horiz-adv-x="315" 
d="M55 622h69v-622h-69v622zM258 353v-59h-159v59h159zM288 622v-59h-189v59h189zM295 59v-59h-196v59h196zM44 653l85 127h87l85 -127h-76l-53 84l-52 -84h-76z" />
    <glyph glyph-name="Edieresis" unicode="&#xcb;" horiz-adv-x="315" 
d="M37 653v84h88v-84h-88zM213 653v84h88v-84h-88zM55 622h69v-622h-69v622zM258 353v-59h-159v59h159zM288 622v-59h-189v59h189zM295 59v-59h-196v59h196z" />
    <glyph glyph-name="Igrave" unicode="&#xcc;" horiz-adv-x="198" 
d="M65 622h68v-622h-68v622zM52 780l78 -127h-62l-98 127h82z" />
    <glyph glyph-name="Iacute" unicode="&#xcd;" horiz-adv-x="198" 
d="M65 622h68v-622h-68v622zM72 653l78 127h82l-98 -127h-62z" />
    <glyph glyph-name="Icircumflex" unicode="&#xce;" horiz-adv-x="198" 
d="M65 622h68v-622h-68v622zM-28 653l85 127h87l85 -127h-76l-53 84l-52 -84h-76z" />
    <glyph glyph-name="Idieresis" unicode="&#xcf;" horiz-adv-x="198" 
d="M-35 653v84h88v-84h-88zM141 653v84h88v-84h-88zM65 622h68v-622h-68v622z" />
    <glyph glyph-name="Eth" unicode="&#xd0;" horiz-adv-x="381" 
d="M262 397v135q0 20 -5.5 25.5t-25.5 5.5h-137v59h158q40 0 59.5 -19.5t19.5 -59.5v-146h-69zM262 90v332h69v-343q0 -40 -19.5 -59.5t-59.5 -19.5h-158v59h137q20 0 25.5 6t5.5 25zM55 622h69v-622h-69v622zM204 342v-59h-199v59h199z" />
    <glyph glyph-name="Ntilde" unicode="&#xd1;" horiz-adv-x="377" 
d="M259 622h63v-622h-75l-129 482v-482h-63v622h80l124 -465v465zM237 653q-21 0 -38 9t-30.5 17.5t-26.5 8.5q-17 0 -17 -24v-11h-62v14q0 35 15.5 55.5t56.5 20.5h6q21 0 37 -8.5t29 -17.5t25 -9q11 0 15 4.5t4 20.5v10h62v-14q0 -34 -14.5 -55t-56.5 -21h-5z" />
    <glyph glyph-name="Ograve" unicode="&#xd2;" horiz-adv-x="360" 
d="M242 141v391q0 20 -5.5 25.5t-25.5 5.5h-34v59h54q40 0 59.5 -19.5t19.5 -59.5v-402h-68zM242 90v101h68v-112q0 -40 -19.5 -59.5t-59.5 -19.5h-61v59h41q20 0 25.5 6t5.5 25zM118 532v-392h-68v403q0 40 19.5 59.5t59.5 19.5h54v-59h-34q-19 0 -25 -5.5t-6 -25.5z
M118 199v-109q0 -19 6 -25t25 -6h31v-59h-51q-40 0 -59.5 19.5t-19.5 59.5v120h68zM122 780l78 -127h-62l-98 127h82z" />
    <glyph glyph-name="Oacute" unicode="&#xd3;" horiz-adv-x="360" 
d="M242 141v391q0 20 -5.5 25.5t-25.5 5.5h-34v59h54q40 0 59.5 -19.5t19.5 -59.5v-402h-68zM242 90v101h68v-112q0 -40 -19.5 -59.5t-59.5 -19.5h-61v59h41q20 0 25.5 6t5.5 25zM118 532v-392h-68v403q0 40 19.5 59.5t59.5 19.5h54v-59h-34q-19 0 -25 -5.5t-6 -25.5z
M118 199v-109q0 -19 6 -25t25 -6h31v-59h-51q-40 0 -59.5 19.5t-19.5 59.5v120h68zM140 653l78 127h82l-98 -127h-62z" />
    <glyph glyph-name="Ocircumflex" unicode="&#xd4;" horiz-adv-x="360" 
d="M242 141v391q0 20 -5.5 25.5t-25.5 5.5h-34v59h54q40 0 59.5 -19.5t19.5 -59.5v-402h-68zM242 90v101h68v-112q0 -40 -19.5 -59.5t-59.5 -19.5h-61v59h41q20 0 25.5 6t5.5 25zM118 532v-392h-68v403q0 40 19.5 59.5t59.5 19.5h54v-59h-34q-19 0 -25 -5.5t-6 -25.5z
M118 199v-109q0 -19 6 -25t25 -6h31v-59h-51q-40 0 -59.5 19.5t-19.5 59.5v120h68zM51 653l85 127h87l85 -127h-76l-53 84l-52 -84h-76z" />
    <glyph glyph-name="Otilde" unicode="&#xd5;" horiz-adv-x="360" 
d="M242 141v391q0 20 -5.5 25.5t-25.5 5.5h-34v59h54q40 0 59.5 -19.5t19.5 -59.5v-402h-68zM242 90v101h68v-112q0 -40 -19.5 -59.5t-59.5 -19.5h-61v59h41q20 0 25.5 6t5.5 25zM118 532v-392h-68v403q0 40 19.5 59.5t59.5 19.5h54v-59h-34q-19 0 -25 -5.5t-6 -25.5z
M118 199v-109q0 -19 6 -25t25 -6h31v-59h-51q-40 0 -59.5 19.5t-19.5 59.5v120h68zM228 653q-21 0 -38 9t-30.5 17.5t-26.5 8.5q-17 0 -17 -24v-11h-62v14q0 35 15.5 55.5t56.5 20.5h6q21 0 37 -8.5t29 -17.5t25 -9q11 0 15 4.5t4 20.5v10h62v-14q0 -34 -14.5 -55t-56.5 -21
h-5z" />
    <glyph glyph-name="Odieresis" unicode="&#xd6;" horiz-adv-x="360" 
d="M48 653v84h88v-84h-88zM224 653v84h88v-84h-88zM242 141v391q0 20 -5.5 25.5t-25.5 5.5h-34v59h54q40 0 59.5 -19.5t19.5 -59.5v-402h-68zM242 90v101h68v-112q0 -40 -19.5 -59.5t-59.5 -19.5h-61v59h41q20 0 25.5 6t5.5 25zM118 532v-392h-68v403q0 40 19.5 59.5
t59.5 19.5h54v-59h-34q-19 0 -25 -5.5t-6 -25.5zM118 199v-109q0 -19 6 -25t25 -6h31v-59h-51q-40 0 -59.5 19.5t-19.5 59.5v120h68z" />
    <glyph glyph-name="multiply" unicode="&#xd7;" horiz-adv-x="350" 
d="M325 206l-45 -45l-255 255l45 45zM280 461l45 -45l-255 -255l-45 45z" />
    <glyph glyph-name="Oslash" unicode="&#xd8;" horiz-adv-x="370" 
d="M315 543v-464q0 -40 -19.5 -59.5t-59.5 -19.5h-102q-40 0 -59.5 19.5t-19.5 59.5v464q0 40 19.5 59.5t59.5 19.5h102q40 0 59.5 -19.5t19.5 -59.5zM248 87v448q0 20 -6 25.5t-26 5.5h-63q-19 0 -25 -5.5t-6 -25.5v-448q0 -19 6 -25t25 -6h63q20 0 26 6t6 25zM267 642h48
l-212 -662h-48z" />
    <glyph glyph-name="Ugrave" unicode="&#xd9;" horiz-adv-x="364" 
d="M244 90v532h68v-543q0 -40 -19.5 -59.5t-59.5 -19.5h-61v59h41q20 0 25.5 6t5.5 25zM120 622v-532q0 -19 6 -25t25 -6h31v-59h-51q-40 0 -59.5 19.5t-19.5 59.5v543h68zM135 780l78 -127h-62l-98 127h82z" />
    <glyph glyph-name="Uacute" unicode="&#xda;" horiz-adv-x="364" 
d="M244 90v532h68v-543q0 -40 -19.5 -59.5t-59.5 -19.5h-61v59h41q20 0 25.5 6t5.5 25zM120 622v-532q0 -19 6 -25t25 -6h31v-59h-51q-40 0 -59.5 19.5t-19.5 59.5v543h68zM150 653l78 127h82l-98 -127h-62z" />
    <glyph glyph-name="Ucircumflex" unicode="&#xdb;" horiz-adv-x="364" 
d="M244 90v532h68v-543q0 -40 -19.5 -59.5t-59.5 -19.5h-61v59h41q20 0 25.5 6t5.5 25zM120 622v-532q0 -19 6 -25t25 -6h31v-59h-51q-40 0 -59.5 19.5t-19.5 59.5v543h68zM53 653l85 127h87l85 -127h-76l-53 84l-52 -84h-76z" />
    <glyph glyph-name="Udieresis" unicode="&#xdc;" horiz-adv-x="364" 
d="M50 653v84h88v-84h-88zM226 653v84h88v-84h-88zM244 90v532h68v-543q0 -40 -19.5 -59.5t-59.5 -19.5h-61v59h41q20 0 25.5 6t5.5 25zM120 622v-532q0 -19 6 -25t25 -6h31v-59h-51q-40 0 -59.5 19.5t-19.5 59.5v543h68z" />
    <glyph glyph-name="Yacute" unicode="&#xdd;" horiz-adv-x="319" 
d="M196 190h-68l-123 432h69l88 -365l83 365h69zM128 229h68v-229h-68v229zM131 653l78 127h82l-98 -127h-62z" />
    <glyph glyph-name="Thorn" unicode="&#xde;" horiz-adv-x="345" 
d="M247 215v192q0 20 -5.5 25.5t-25.5 5.5h-131v59h151q40 0 59.5 -19.5t19.5 -59.5v-214q0 -40 -19.5 -59.5t-59.5 -19.5h-140v59h120q20 0 25.5 6t5.5 25zM55 622h68v-622h-68v622z" />
    <glyph glyph-name="germandbls" unicode="&#xdf;" horiz-adv-x="424" 
d="M184 148h67v-59q0 -19 6 -25t25 -6h9q20 0 25.5 6t5.5 25v92q0 20 -5.5 25.5t-25.5 5.5h-30q-40 0 -59.5 19.5t-19.5 59.5v65q0 41 20.5 60t54.5 19q26 0 33 4.5t7 20.5v35q0 20 -5.5 26t-25.5 6h-121q-19 0 -25.5 -6t-6.5 -26v-495h-68v510q0 40 19.5 59.5t59.5 19.5
h160q40 0 59.5 -19.5t19.5 -59.5v-68q0 -21 -8 -35.5t-23 -22t-37 -7.5h-15q-19 0 -25.5 -5.5t-6.5 -25.5v-45q0 -19 6.5 -25t25.5 -6h30q40 0 59.5 -19.5t19.5 -59.5v-112q0 -40 -19.5 -59.5t-59.5 -19.5h-47q-40 0 -59.5 19.5t-19.5 59.5v69z" />
    <glyph glyph-name="agrave" unicode="&#xe0;" horiz-adv-x="328" 
d="M109 224h-69v182q0 40 19.5 59.5t59.5 19.5h40q26 0 42.5 -13.5t16.5 -47.5v-62h-4v28q0 20 -8 28t-26 8h-40q-19 0 -25 -5.5t-6 -25.5v-171zM283 0h-69v422v8v55h69v-485zM40 261h69v-171q0 -19 6 -25t25 -6h40q18 0 26 8t8 28v26h4v-60q0 -34 -16.5 -47.5t-42.5 -13.5
h-40q-40 0 -59.5 19.5t-19.5 59.5v182zM143 643l78 -127h-62l-98 127h82z" />
    <glyph glyph-name="aacute" unicode="&#xe1;" horiz-adv-x="328" 
d="M109 224h-69v182q0 40 19.5 59.5t59.5 19.5h40q26 0 42.5 -13.5t16.5 -47.5v-62h-4v28q0 20 -8 28t-26 8h-40q-19 0 -25 -5.5t-6 -25.5v-171zM283 0h-69v422v8v55h69v-485zM40 261h69v-171q0 -19 6 -25t25 -6h40q18 0 26 8t8 28v26h4v-60q0 -34 -16.5 -47.5t-42.5 -13.5
h-40q-40 0 -59.5 19.5t-19.5 59.5v182zM138 516l78 127h82l-98 -127h-62z" />
    <glyph glyph-name="acircumflex" unicode="&#xe2;" horiz-adv-x="328" 
d="M109 224h-69v182q0 40 19.5 59.5t59.5 19.5h40q26 0 42.5 -13.5t16.5 -47.5v-62h-4v28q0 20 -8 28t-26 8h-40q-19 0 -25 -5.5t-6 -25.5v-171zM283 0h-69v422v8v55h69v-485zM40 261h69v-171q0 -19 6 -25t25 -6h40q18 0 26 8t8 28v26h4v-60q0 -34 -16.5 -47.5t-42.5 -13.5
h-40q-40 0 -59.5 19.5t-19.5 59.5v182zM38 516l85 127h87l85 -127h-76l-53 84l-52 -84h-76z" />
    <glyph glyph-name="atilde" unicode="&#xe3;" horiz-adv-x="328" 
d="M109 224h-69v182q0 40 19.5 59.5t59.5 19.5h40q26 0 42.5 -13.5t16.5 -47.5v-62h-4v28q0 20 -8 28t-26 8h-40q-19 0 -25 -5.5t-6 -25.5v-171zM283 0h-69v422v8v55h69v-485zM40 261h69v-171q0 -19 6 -25t25 -6h40q18 0 26 8t8 28v26h4v-60q0 -34 -16.5 -47.5t-42.5 -13.5
h-40q-40 0 -59.5 19.5t-19.5 59.5v182zM208 534q-21 0 -38 9t-30.5 17.5t-26.5 8.5q-17 0 -17 -24v-11h-62v14q0 35 15.5 55.5t56.5 20.5h6q21 0 37 -8.5t29 -17.5t25 -9q11 0 15 4.5t4 20.5v10h62v-14q0 -34 -14.5 -55t-56.5 -21h-5z" />
    <glyph glyph-name="adieresis" unicode="&#xe4;" horiz-adv-x="328" 
d="M28 541v84h88v-84h-88zM204 541v84h88v-84h-88zM109 224h-69v182q0 40 19.5 59.5t59.5 19.5h40q26 0 42.5 -13.5t16.5 -47.5v-62h-4v28q0 20 -8 28t-26 8h-40q-19 0 -25 -5.5t-6 -25.5v-171zM283 0h-69v422v8v55h69v-485zM40 261h69v-171q0 -19 6 -25t25 -6h40q18 0 26 8
t8 28v26h4v-60q0 -34 -16.5 -47.5t-42.5 -13.5h-40q-40 0 -59.5 19.5t-19.5 59.5v182z" />
    <glyph glyph-name="aring" unicode="&#xe5;" horiz-adv-x="328" 
d="M109 224h-69v182q0 40 19.5 59.5t59.5 19.5h40q26 0 42.5 -13.5t16.5 -47.5v-62h-4v28q0 20 -8 28t-26 8h-40q-19 0 -25 -5.5t-6 -25.5v-171zM283 0h-69v422v8v55h69v-485zM40 261h69v-171q0 -19 6 -25t25 -6h40q18 0 26 8t8 28v26h4v-60q0 -34 -16.5 -47.5t-42.5 -13.5
h-40q-40 0 -59.5 19.5t-19.5 59.5v182zM263 609v-17q0 -34 -16 -49.5t-49 -15.5h-60q-33 0 -49 15.5t-16 49.5v17q0 34 16 49.5t49 15.5h60q33 0 49 -15.5t16 -49.5zM212 598v5q0 17 -4.5 22t-23.5 5h-32q-19 0 -23.5 -5t-4.5 -22v-5q0 -16 4.5 -21.5t23.5 -5.5h32
q19 0 23.5 5.5t4.5 21.5z" />
    <glyph glyph-name="ae" unicode="&#xe6;" horiz-adv-x="509" 
d="M252 285l20 -56l-158 -63l-69 34zM45 200l69 -34v-76q0 -19 6 -25t25 -6h40q17 0 25 6.5t9 23.5v307q-3 30 -34 30h-40q-19 0 -25 -5.5t-6 -25.5v-83h-69v94q0 40 19.5 59.5t59.5 19.5h71q24 0 38.5 -12t18.5 -26q4 14 18.5 26t36.5 12h83q40 0 59.5 -19.5t19.5 -59.5
v-187h-69v176q0 20 -5.5 25.5t-25.5 5.5h-50q-19 0 -25 -5.5t-6 -25.5v-305q0 -19 6 -25t25 -6h47q20 0 25.5 6t5.5 25v44h69v-55q0 -40 -19.5 -59.5t-59.5 -19.5h-80q-22 0 -36.5 12.5t-18.5 25.5q-4 -13 -18.5 -25.5t-38.5 -12.5h-71q-40 0 -59.5 19.5t-19.5 59.5v121z
M456 278v-59h-207v59h207z" />
    <glyph glyph-name="ccedilla" unicode="&#xe7;" horiz-adv-x="325" 
d="M109 395v-305q0 -19 6 -25t25 -6h24v-59h-45q-40 0 -59.5 19.5t-19.5 59.5v327q0 40 19.5 59.5t59.5 19.5h52v-59h-31q-19 0 -25 -5.5t-6 -25.5zM221 341v54q0 20 -5.5 25.5t-25.5 5.5h-34v59h55q40 0 59.5 -19.5t19.5 -59.5v-65h-69zM221 90v54h69v-65
q0 -40 -19.5 -59.5t-59.5 -19.5h-55v59h34q20 0 25.5 6t5.5 25zM136 -73v22h65v-28q0 -46 -24 -67.5t-65 -21.5h-48v58h37q20 0 27.5 9t7.5 28z" />
    <glyph glyph-name="egrave" unicode="&#xe8;" horiz-adv-x="330" 
d="M114 395v-305q0 -19 6 -25t25 -6h24v-59h-45q-40 0 -59.5 19.5t-19.5 59.5v327q0 40 19.5 59.5t59.5 19.5h52v-59h-31q-19 0 -25 -5.5t-6 -25.5zM226 229v166q0 20 -5.5 25.5t-25.5 5.5h-34v59h55q40 0 59.5 -19.5t19.5 -59.5v-177h-69zM223 90v44h69v-55
q0 -40 -19.5 -59.5t-59.5 -19.5h-52v59h31q20 0 25.5 6t5.5 25zM295 278v-59h-220v59h220zM119 643l78 -127h-62l-98 127h82z" />
    <glyph glyph-name="eacute" unicode="&#xe9;" horiz-adv-x="330" 
d="M114 395v-305q0 -19 6 -25t25 -6h24v-59h-45q-40 0 -59.5 19.5t-19.5 59.5v327q0 40 19.5 59.5t59.5 19.5h52v-59h-31q-19 0 -25 -5.5t-6 -25.5zM226 229v166q0 20 -5.5 25.5t-25.5 5.5h-34v59h55q40 0 59.5 -19.5t19.5 -59.5v-177h-69zM223 90v44h69v-55
q0 -40 -19.5 -59.5t-59.5 -19.5h-52v59h31q20 0 25.5 6t5.5 25zM295 278v-59h-220v59h220zM138 516l78 127h82l-98 -127h-62z" />
    <glyph glyph-name="ecircumflex" unicode="&#xea;" horiz-adv-x="328" 
d="M43 516l85 127h87l85 -127h-76l-53 84l-52 -84h-76zM114 395v-305q0 -19 6 -25t25 -6h24v-59h-45q-40 0 -59.5 19.5t-19.5 59.5v327q0 40 19.5 59.5t59.5 19.5h52v-59h-31q-19 0 -25 -5.5t-6 -25.5zM226 229v166q0 20 -5.5 25.5t-25.5 5.5h-34v59h55q40 0 59.5 -19.5
t19.5 -59.5v-177h-69zM223 90v44h69v-55q0 -40 -19.5 -59.5t-59.5 -19.5h-52v59h31q20 0 25.5 6t5.5 25zM295 278v-59h-220v59h220z" />
    <glyph glyph-name="edieresis" unicode="&#xeb;" horiz-adv-x="328" 
d="M32 541v84h88v-84h-88zM208 541v84h88v-84h-88zM114 395v-305q0 -19 6 -25t25 -6h24v-59h-45q-40 0 -59.5 19.5t-19.5 59.5v327q0 40 19.5 59.5t59.5 19.5h52v-59h-31q-19 0 -25 -5.5t-6 -25.5zM226 229v166q0 20 -5.5 25.5t-25.5 5.5h-34v59h55q40 0 59.5 -19.5
t19.5 -59.5v-177h-69zM223 90v44h69v-55q0 -40 -19.5 -59.5t-59.5 -19.5h-52v59h31q20 0 25.5 6t5.5 25zM295 278v-59h-220v59h220z" />
    <glyph glyph-name="igrave" unicode="&#xec;" horiz-adv-x="159" 
d="M114 0h-69v485h69v-485zM32 643l78 -127h-62l-98 127h82z" />
    <glyph glyph-name="iacute" unicode="&#xed;" horiz-adv-x="159" 
d="M114 0h-69v485h69v-485zM45 516l78 127h82l-98 -127h-62z" />
    <glyph glyph-name="icircumflex" unicode="&#xee;" horiz-adv-x="159" 
d="M114 0h-69v485h69v-485zM-48 516l85 127h87l85 -127h-76l-53 84l-52 -84h-76z" />
    <glyph glyph-name="idieresis" unicode="&#xef;" horiz-adv-x="159" 
d="M114 0h-69v485h69v-485zM-52 541v84h88v-84h-88zM124 541v84h88v-84h-88z" />
    <glyph glyph-name="eth" unicode="&#xf0;" horiz-adv-x="347" 
d="M109 90q0 -19 6 -25t25 -6h33v-59h-54q-40 0 -59.5 19.5t-19.5 59.5v255q0 40 19.5 59.5t59.5 19.5h134v-59h-113q-19 0 -25 -5.5t-6 -25.5v-233zM228 298q0 41 -7.5 79.5t-22 73t-34 65.5t-43 57.5t-50.5 48.5h95q26 -26 49.5 -59t42 -72.5t29 -85t10.5 -96.5v-230
q0 -40 -19.5 -59.5t-59.5 -19.5h-54v59h33q20 0 25.5 6t5.5 25v208zM69 486v48l220 84v-48z" />
    <glyph glyph-name="ntilde" unicode="&#xf1;" horiz-adv-x="333" 
d="M114 0h-69v485h69v-52v-7v-426zM288 0h-69v395q0 20 -5.5 25.5t-25.5 5.5h-40q-18 0 -26 -8t-8 -28v-34h-4v68q0 34 16.5 47.5t42.5 13.5h40q40 0 59.5 -19.5t19.5 -59.5v-406zM208 534q-21 0 -38 9t-30.5 17.5t-26.5 8.5q-17 0 -17 -24v-11h-62v14q0 35 15.5 55.5
t56.5 20.5h6q21 0 37 -8.5t29 -17.5t25 -9q11 0 15 4.5t4 20.5v10h62v-14q0 -34 -14.5 -55t-56.5 -21h-5z" />
    <glyph glyph-name="ograve" unicode="&#xf2;" horiz-adv-x="340" 
d="M232 141v254q0 20 -5.5 25.5t-25.5 5.5h-34v59h54q40 0 59.5 -19.5t19.5 -59.5v-265h-68zM232 90v101h68v-112q0 -40 -19.5 -59.5t-59.5 -19.5h-61v59h41q20 0 25.5 6t5.5 25zM108 395v-255h-68v266q0 40 19.5 59.5t59.5 19.5h54v-59h-34q-19 0 -25 -5.5t-6 -25.5z
M108 199v-109q0 -19 6 -25t25 -6h31v-59h-51q-40 0 -59.5 19.5t-19.5 59.5v120h68zM120 643l78 -127h-62l-98 127h82z" />
    <glyph glyph-name="oacute" unicode="&#xf3;" horiz-adv-x="340" 
d="M232 141v254q0 20 -5.5 25.5t-25.5 5.5h-34v59h54q40 0 59.5 -19.5t19.5 -59.5v-265h-68zM232 90v101h68v-112q0 -40 -19.5 -59.5t-59.5 -19.5h-61v59h41q20 0 25.5 6t5.5 25zM108 395v-255h-68v266q0 40 19.5 59.5t59.5 19.5h54v-59h-34q-19 0 -25 -5.5t-6 -25.5z
M108 199v-109q0 -19 6 -25t25 -6h31v-59h-51q-40 0 -59.5 19.5t-19.5 59.5v120h68zM134 516l78 127h82l-98 -127h-62z" />
    <glyph glyph-name="ocircumflex" unicode="&#xf4;" horiz-adv-x="340" 
d="M232 141v254q0 20 -5.5 25.5t-25.5 5.5h-34v59h54q40 0 59.5 -19.5t19.5 -59.5v-265h-68zM232 90v101h68v-112q0 -40 -19.5 -59.5t-59.5 -19.5h-61v59h41q20 0 25.5 6t5.5 25zM108 395v-255h-68v266q0 40 19.5 59.5t59.5 19.5h54v-59h-34q-19 0 -25 -5.5t-6 -25.5z
M108 199v-109q0 -19 6 -25t25 -6h31v-59h-51q-40 0 -59.5 19.5t-19.5 59.5v120h68zM39 516l85 127h87l85 -127h-76l-53 84l-52 -84h-76z" />
    <glyph glyph-name="otilde" unicode="&#xf5;" horiz-adv-x="340" 
d="M232 141v254q0 20 -5.5 25.5t-25.5 5.5h-34v59h54q40 0 59.5 -19.5t19.5 -59.5v-265h-68zM232 90v101h68v-112q0 -40 -19.5 -59.5t-59.5 -19.5h-61v59h41q20 0 25.5 6t5.5 25zM108 395v-255h-68v266q0 40 19.5 59.5t59.5 19.5h54v-59h-34q-19 0 -25 -5.5t-6 -25.5z
M108 199v-109q0 -19 6 -25t25 -6h31v-59h-51q-40 0 -59.5 19.5t-19.5 59.5v120h68zM212 534q-21 0 -38 9t-30.5 17.5t-26.5 8.5q-17 0 -17 -24v-11h-62v14q0 35 15.5 55.5t56.5 20.5h6q21 0 37 -8.5t29 -17.5t25 -9q11 0 15 4.5t4 20.5v10h62v-14q0 -34 -14.5 -55t-56.5 -21
h-5z" />
    <glyph glyph-name="odieresis" unicode="&#xf6;" horiz-adv-x="340" 
d="M37 541v84h88v-84h-88zM213 541v84h88v-84h-88zM232 141v254q0 20 -5.5 25.5t-25.5 5.5h-34v59h54q40 0 59.5 -19.5t19.5 -59.5v-265h-68zM232 90v101h68v-112q0 -40 -19.5 -59.5t-59.5 -19.5h-61v59h41q20 0 25.5 6t5.5 25zM108 395v-255h-68v266q0 40 19.5 59.5
t59.5 19.5h54v-59h-34q-19 0 -25 -5.5t-6 -25.5zM108 199v-109q0 -19 6 -25t25 -6h31v-59h-51q-40 0 -59.5 19.5t-19.5 59.5v120h68z" />
    <glyph glyph-name="divide" unicode="&#xf7;" horiz-adv-x="380" 
d="M25 281v60h330v-60h-330zM155 491h70v-80h-70v80zM155 211h70v-80h-70v80z" />
    <glyph glyph-name="oslash" unicode="&#xf8;" horiz-adv-x="350" 
d="M305 406v-327q0 -40 -19.5 -59.5t-59.5 -19.5h-102q-40 0 -59.5 19.5t-19.5 59.5v327q0 40 19.5 59.5t59.5 19.5h102q40 0 59.5 -19.5t19.5 -59.5zM239 85v315q0 20 -6 26t-26 6h-64q-20 0 -26 -6t-6 -26v-315q0 -20 6 -26t26 -6h64q20 0 26 6t6 26zM257 505h48
l-212 -525h-48z" />
    <glyph glyph-name="ugrave" unicode="&#xf9;" horiz-adv-x="333" 
d="M45 485h69v-395q0 -19 6 -25t25 -6h40q18 0 26 8t8 28v34h4v-68q0 -34 -16.5 -47.5t-42.5 -13.5h-40q-40 0 -59.5 19.5t-19.5 59.5v406zM219 485h69v-485h-69v52v7v426zM122 643l78 -127h-62l-98 127h82z" />
    <glyph glyph-name="uacute" unicode="&#xfa;" horiz-adv-x="333" 
d="M45 485h69v-395q0 -19 6 -25t25 -6h40q18 0 26 8t8 28v34h4v-68q0 -34 -16.5 -47.5t-42.5 -13.5h-40q-40 0 -59.5 19.5t-19.5 59.5v406zM219 485h69v-485h-69v52v7v426zM137 516l78 127h82l-98 -127h-62z" />
    <glyph glyph-name="ucircumflex" unicode="&#xfb;" horiz-adv-x="328" 
d="M33 516l85 127h87l85 -127h-76l-53 84l-52 -84h-76zM45 485h69v-395q0 -19 6 -25t25 -6h40q18 0 26 8t8 28v34h4v-68q0 -34 -16.5 -47.5t-42.5 -13.5h-40q-40 0 -59.5 19.5t-19.5 59.5v406zM219 485h69v-485h-69v52v7v426z" />
    <glyph glyph-name="udieresis" unicode="&#xfc;" horiz-adv-x="328" 
d="M29 541v84h88v-84h-88zM205 541v84h88v-84h-88zM45 485h69v-395q0 -19 6 -25t25 -6h40q18 0 26 8t8 28v34h4v-68q0 -34 -16.5 -47.5t-42.5 -13.5h-40q-40 0 -59.5 19.5t-19.5 59.5v406zM219 485h69v-485h-69v52v7v426z" />
    <glyph glyph-name="yacute" unicode="&#xfd;" horiz-adv-x="309" 
d="M10 485h69l78 -437l73 437h69l-97 -547q-7 -39 -31 -59t-64 -20h-54v59h33q20 0 33 6t17 25l12 51h-45zM128 516l78 127h82l-98 -127h-62z" />
    <glyph glyph-name="thorn" unicode="&#xfe;" horiz-adv-x="328" 
d="M288 224h-69v171q0 20 -5.5 25.5t-25.5 5.5h-40q-18 0 -26 -8t-8 -28v-34h-4v68q0 34 16.5 47.5t42.5 13.5h40q40 0 59.5 -19.5t19.5 -59.5v-182zM114 -141h-69v810h69v-232v-13v-565zM219 262h69v-183q0 -40 -19.5 -59.5t-59.5 -19.5h-40q-26 0 -42.5 13.5t-16.5 47.5
v56l4 1v-23q0 -20 8 -28t26 -8h40q20 0 25.5 6t5.5 25v172z" />
    <glyph glyph-name="ydieresis" unicode="&#xff;" horiz-adv-x="309" 
d="M21 541v84h88v-84h-88zM197 541v84h88v-84h-88zM10 485h69l78 -437l73 437h69l-97 -547q-7 -39 -31 -59t-64 -20h-54v59h33q20 0 33 6t17 25l12 51h-45z" />
    <glyph glyph-name="Amacron" unicode="&#x100;" horiz-adv-x="343" 
d="M257 217v-59h-174v59h174zM328 0h-69l-93 574l-82 -574h-69l97 622h109zM48 653v58h236v-58h-236z" />
    <glyph glyph-name="amacron" unicode="&#x101;" horiz-adv-x="328" 
d="M109 224h-69v182q0 40 19.5 59.5t59.5 19.5h40q26 0 42.5 -13.5t16.5 -47.5v-62h-4v28q0 20 -8 28t-26 8h-40q-19 0 -25 -5.5t-6 -25.5v-171zM283 0h-69v422v8v55h69v-485zM40 261h69v-171q0 -19 6 -25t25 -6h40q18 0 26 8t8 28v26h4v-60q0 -34 -16.5 -47.5t-42.5 -13.5
h-40q-40 0 -59.5 19.5t-19.5 59.5v182zM42 550v58h236v-58h-236z" />
    <glyph glyph-name="Abreve" unicode="&#x102;" horiz-adv-x="343" 
d="M257 217v-59h-174v59h174zM328 0h-69l-93 574l-82 -574h-69l97 622h109zM230 780h66v-48q0 -40 -19.5 -59.5t-59.5 -19.5h-56v56h38q20 0 25.5 6t5.5 25v40zM36 780h66v-40q0 -19 6 -25t25 -6h38v-56h-56q-40 0 -59.5 19.5t-19.5 59.5v48z" />
    <glyph glyph-name="abreve" unicode="&#x103;" horiz-adv-x="328" 
d="M109 224h-69v182q0 40 19.5 59.5t59.5 19.5h40q26 0 42.5 -13.5t16.5 -47.5v-62h-4v28q0 20 -8 28t-26 8h-40q-19 0 -25 -5.5t-6 -25.5v-171zM283 0h-69v422v8v55h69v-485zM40 261h69v-171q0 -19 6 -25t25 -6h40q18 0 26 8t8 28v26h4v-60q0 -34 -16.5 -47.5t-42.5 -13.5
h-40q-40 0 -59.5 19.5t-19.5 59.5v182zM226 643h66v-48q0 -40 -19.5 -59.5t-59.5 -19.5h-56v56h38q20 0 25.5 6t5.5 25v40zM32 643h66v-40q0 -19 6 -25t25 -6h38v-56h-56q-40 0 -59.5 19.5t-19.5 59.5v48z" />
    <glyph glyph-name="Aogonek" unicode="&#x104;" horiz-adv-x="343" 
d="M257 217v-59h-174v59h174zM328 0h-69l-93 574l-82 -574h-69l97 622h109zM174 -104q0 40 19.5 59.5t59.5 19.5h74v-53h-60q-19 0 -25.5 -5t-6.5 -25v-20q0 -19 6.5 -24.5t25.5 -5.5h78v-54h-92q-40 0 -59.5 19.5t-19.5 59.5v29zM327 -28h-66v38h66v-38z" />
    <glyph glyph-name="aogonek" unicode="&#x105;" horiz-adv-x="328" 
d="M109 224h-69v182q0 40 19.5 59.5t59.5 19.5h40q26 0 42.5 -13.5t16.5 -47.5v-62h-4v28q0 20 -8 28t-26 8h-40q-19 0 -25 -5.5t-6 -25.5v-171zM283 0h-69v422v8v55h69v-485zM40 261h69v-171q0 -19 6 -25t25 -6h40q18 0 26 8t8 28v26h4v-60q0 -34 -16.5 -47.5t-42.5 -13.5
h-40q-40 0 -59.5 19.5t-19.5 59.5v182zM130 -104q0 40 19.5 59.5t59.5 19.5h74v-53h-60q-19 0 -25.5 -5t-6.5 -25v-20q0 -19 6.5 -24.5t25.5 -5.5h78v-54h-92q-40 0 -59.5 19.5t-19.5 59.5v29zM283 -28h-66v38h66v-38z" />
    <glyph glyph-name="Cacute" unicode="&#x106;" horiz-adv-x="345" 
d="M119 532v-443q0 -19 6 -25t25 -6h29v-59h-50q-40 0 -59.5 19.5t-19.5 59.5v465q0 40 19.5 59.5t59.5 19.5h57v-59h-36q-19 0 -25 -5.5t-6 -25.5zM236 438v94q0 20 -5.5 25.5t-25.5 5.5h-34v59h55q40 0 59.5 -19.5t19.5 -59.5v-105h-69zM236 89v94h69v-105
q0 -40 -19.5 -59.5t-59.5 -19.5h-55v59h34q20 0 25.5 6t5.5 25zM146 653l78 127h82l-98 -127h-62z" />
    <glyph glyph-name="cacute" unicode="&#x107;" horiz-adv-x="325" 
d="M109 395v-305q0 -19 6 -25t25 -6h24v-59h-45q-40 0 -59.5 19.5t-19.5 59.5v327q0 40 19.5 59.5t59.5 19.5h52v-59h-31q-19 0 -25 -5.5t-6 -25.5zM221 341v54q0 20 -5.5 25.5t-25.5 5.5h-34v59h55q40 0 59.5 -19.5t19.5 -59.5v-65h-69zM221 90v54h69v-65
q0 -40 -19.5 -59.5t-59.5 -19.5h-55v59h34q20 0 25.5 6t5.5 25zM131 516l78 127h82l-98 -127h-62z" />
    <glyph glyph-name="Ccaron" unicode="&#x10c;" horiz-adv-x="345" 
d="M119 532v-443q0 -19 6 -25t25 -6h29v-59h-50q-40 0 -59.5 19.5t-19.5 59.5v465q0 40 19.5 59.5t59.5 19.5h57v-59h-36q-19 0 -25 -5.5t-6 -25.5zM236 438v94q0 20 -5.5 25.5t-25.5 5.5h-34v59h55q40 0 59.5 -19.5t19.5 -59.5v-105h-69zM236 89v94h69v-105
q0 -40 -19.5 -59.5t-59.5 -19.5h-55v59h34q20 0 25.5 6t5.5 25zM135 653l-85 127h76l52 -84l53 84h76l-85 -127h-87z" />
    <glyph glyph-name="ccaron" unicode="&#x10d;" horiz-adv-x="325" 
d="M109 395v-305q0 -19 6 -25t25 -6h24v-59h-45q-40 0 -59.5 19.5t-19.5 59.5v327q0 40 19.5 59.5t59.5 19.5h52v-59h-31q-19 0 -25 -5.5t-6 -25.5zM221 341v54q0 20 -5.5 25.5t-25.5 5.5h-34v59h55q40 0 59.5 -19.5t19.5 -59.5v-65h-69zM221 90v54h69v-65
q0 -40 -19.5 -59.5t-59.5 -19.5h-55v59h34q20 0 25.5 6t5.5 25zM123 516l-85 127h76l52 -84l53 84h76l-85 -127h-87z" />
    <glyph glyph-name="Dcaron" unicode="&#x10e;" horiz-adv-x="381" 
d="M262 397v135q0 20 -5.5 25.5t-25.5 5.5h-137v59h158q40 0 59.5 -19.5t19.5 -59.5v-146h-69zM262 90v332h69v-343q0 -40 -19.5 -59.5t-59.5 -19.5h-158v59h137q20 0 25.5 6t5.5 25zM55 622h69v-622h-69v622zM144 653l-85 127h76l52 -84l53 84h76l-85 -127h-87z" />
    <glyph glyph-name="dcaron" unicode="&#x10f;" horiz-adv-x="354" 
d="M328 669h62v-39l-35 -121h-27v160zM109 225h-69v182q0 40 19.5 59.5t59.5 19.5h40q26 0 42.5 -13.5t16.5 -47.5v-68h-4v34q0 20 -8 28t-26 8h-40q-19 0 -25 -5.5t-6 -25.5v-171zM214 669h69v-669h-69v53v7v609zM40 262h69v-172q0 -19 6 -25t25 -6h40q18 0 26 8t8 28v23
l4 -1v-56q0 -34 -16.5 -47.5t-42.5 -13.5h-40q-40 0 -59.5 19.5t-19.5 59.5v183z" />
    <glyph glyph-name="Dcroat" unicode="&#x110;" horiz-adv-x="381" 
d="M262 397v135q0 20 -5.5 25.5t-25.5 5.5h-137v59h158q40 0 59.5 -19.5t19.5 -59.5v-146h-69zM262 90v332h69v-343q0 -40 -19.5 -59.5t-59.5 -19.5h-158v59h137q20 0 25.5 6t5.5 25zM55 622h69v-622h-69v622zM204 342v-59h-199v59h199z" />
    <glyph glyph-name="dcroat" unicode="&#x111;" horiz-adv-x="333" 
d="M114 224h-69v182q0 40 19.5 59.5t59.5 19.5h40q26 0 42.5 -13.5t16.5 -47.5v-68h-4v34q0 20 -8 28t-26 8h-40q-19 0 -25 -5.5t-6 -25.5v-171zM219 669h69v-669h-69v53v7v609zM45 262h69v-172q0 -19 6 -25t25 -6h40q18 0 26 8t8 28v23l4 -1v-56q0 -34 -16.5 -47.5
t-42.5 -13.5h-40q-40 0 -59.5 19.5t-19.5 59.5v183zM333 603v-59h-199v59h199z" />
    <glyph glyph-name="Emacron" unicode="&#x112;" horiz-adv-x="315" 
d="M55 622h69v-622h-69v622zM258 353v-59h-159v59h159zM288 622v-59h-189v59h189zM295 59v-59h-196v59h196zM53 670v58h236v-58h-236z" />
    <glyph glyph-name="emacron" unicode="&#x113;" horiz-adv-x="330" 
d="M114 395v-305q0 -19 6 -25t25 -6h24v-59h-45q-40 0 -59.5 19.5t-19.5 59.5v327q0 40 19.5 59.5t59.5 19.5h52v-59h-31q-19 0 -25 -5.5t-6 -25.5zM226 229v166q0 20 -5.5 25.5t-25.5 5.5h-34v59h55q40 0 59.5 -19.5t19.5 -59.5v-177h-69zM223 90v44h69v-55
q0 -40 -19.5 -59.5t-59.5 -19.5h-52v59h31q20 0 25.5 6t5.5 25zM295 278v-59h-220v59h220zM47 550v58h236v-58h-236z" />
    <glyph glyph-name="Edotaccent" unicode="&#x116;" horiz-adv-x="315" 
d="M55 622h69v-622h-69v622zM258 353v-59h-159v59h159zM288 622v-59h-189v59h189zM295 59v-59h-196v59h196zM134 653v86h92v-86h-92z" />
    <glyph glyph-name="edotaccent" unicode="&#x117;" horiz-adv-x="330" 
d="M114 395v-305q0 -19 6 -25t25 -6h24v-59h-45q-40 0 -59.5 19.5t-19.5 59.5v327q0 40 19.5 59.5t59.5 19.5h52v-59h-31q-19 0 -25 -5.5t-6 -25.5zM226 229v166q0 20 -5.5 25.5t-25.5 5.5h-34v59h55q40 0 59.5 -19.5t19.5 -59.5v-177h-69zM223 90v44h69v-55
q0 -40 -19.5 -59.5t-59.5 -19.5h-52v59h31q20 0 25.5 6t5.5 25zM295 278v-59h-220v59h220zM128 536v86h92v-86h-92z" />
    <glyph glyph-name="Eogonek" unicode="&#x118;" horiz-adv-x="315" 
d="M55 622h69v-622h-69v622zM258 353v-59h-159v59h159zM288 622v-59h-189v59h189zM295 59v-59h-196v59h196zM142 -104q0 40 19.5 59.5t59.5 19.5h74v-53h-60q-19 0 -25.5 -5t-6.5 -25v-20q0 -19 6.5 -24.5t25.5 -5.5h78v-54h-92q-40 0 -59.5 19.5t-19.5 59.5v29zM295 -28
h-66v38h66v-38z" />
    <glyph glyph-name="eogonek" unicode="&#x119;" horiz-adv-x="330" 
d="M114 395v-305q0 -19 6 -25t25 -6h24v-59h-45q-40 0 -59.5 19.5t-19.5 59.5v327q0 40 19.5 59.5t59.5 19.5h52v-59h-31q-19 0 -25 -5.5t-6 -25.5zM226 229v166q0 20 -5.5 25.5t-25.5 5.5h-34v59h55q40 0 59.5 -19.5t19.5 -59.5v-177h-69zM223 90v44h69v-55
q0 -40 -19.5 -59.5t-59.5 -19.5h-52v59h31q20 0 25.5 6t5.5 25zM295 278v-59h-220v59h220zM54 -104q0 40 19.5 59.5t59.5 19.5h74v-53h-60q-19 0 -25.5 -5t-6.5 -25v-20q0 -19 6.5 -24.5t25.5 -5.5h78v-54h-92q-40 0 -59.5 19.5t-19.5 59.5v29zM207 -28h-66v38h66v-38z" />
    <glyph glyph-name="Ecaron" unicode="&#x11a;" horiz-adv-x="315" 
d="M55 622h69v-622h-69v622zM258 353v-59h-159v59h159zM288 622v-59h-189v59h189zM295 59v-59h-196v59h196zM126 653l-85 127h76l52 -84l53 84h76l-85 -127h-87z" />
    <glyph glyph-name="ecaron" unicode="&#x11b;" horiz-adv-x="330" 
d="M114 395v-305q0 -19 6 -25t25 -6h24v-59h-45q-40 0 -59.5 19.5t-19.5 59.5v327q0 40 19.5 59.5t59.5 19.5h52v-59h-31q-19 0 -25 -5.5t-6 -25.5zM226 229v166q0 20 -5.5 25.5t-25.5 5.5h-34v59h55q40 0 59.5 -19.5t19.5 -59.5v-177h-69zM223 90v44h69v-55
q0 -40 -19.5 -59.5t-59.5 -19.5h-52v59h31q20 0 25.5 6t5.5 25zM295 278v-59h-220v59h220zM126 516l-85 127h76l52 -84l53 84h76l-85 -127h-87z" />
    <glyph glyph-name="Gbreve" unicode="&#x11e;" horiz-adv-x="350" 
d="M119 532v-443q0 -19 6 -25t25 -6h29v-59h-50q-40 0 -59.5 19.5t-19.5 59.5v465q0 40 19.5 59.5t59.5 19.5h57v-59h-36q-19 0 -25 -5.5t-6 -25.5zM305 313v-59h-119v59h119zM236 448v84q0 20 -5.5 25.5t-25.5 5.5h-34v59h55q40 0 59.5 -19.5t19.5 -59.5v-95h-69zM236 89
v184h69v-195q0 -40 -19.5 -59.5t-59.5 -19.5h-55v59h34q20 0 25.5 6t5.5 25zM242 780h66v-48q0 -40 -19.5 -59.5t-59.5 -19.5h-56v56h38q20 0 25.5 6t5.5 25v40zM48 780h66v-40q0 -19 6 -25t25 -6h38v-56h-56q-40 0 -59.5 19.5t-19.5 59.5v48z" />
    <glyph glyph-name="gbreve" unicode="&#x11f;" horiz-adv-x="328" 
d="M40 262h69v-172q0 -19 6 -25t25 -6h40q18 0 26 8t8 28v23l4 -1v-56q0 -34 -16.5 -47.5t-42.5 -13.5h-40q-40 0 -59.5 19.5t-19.5 59.5v183zM109 224h-69v182q0 40 19.5 59.5t59.5 19.5h40q26 0 42.5 -13.5t16.5 -47.5v-68h-4v34q0 20 -8 28t-26 8h-40q-19 0 -25 -5.5
t-6 -25.5v-171zM214 -51v61h69v-72q0 -40 -19.5 -59.5t-59.5 -19.5h-149v59h128q20 0 25.5 6t5.5 25zM283 -2h-69v434v3v50h69v-487zM228 643h66v-48q0 -40 -19.5 -59.5t-59.5 -19.5h-56v56h38q20 0 25.5 6t5.5 25v40zM34 643h66v-40q0 -19 6 -25t25 -6h38v-56h-56
q-40 0 -59.5 19.5t-19.5 59.5v48z" />
    <glyph glyph-name="uni0122" unicode="&#x122;" horiz-adv-x="350" 
d="M119 532v-443q0 -19 6 -25t25 -6h29v-59h-50q-40 0 -59.5 19.5t-19.5 59.5v465q0 40 19.5 59.5t59.5 19.5h57v-59h-36q-19 0 -25 -5.5t-6 -25.5zM305 313v-59h-119v59h119zM236 448v84q0 20 -5.5 25.5t-25.5 5.5h-34v59h55q40 0 59.5 -19.5t19.5 -59.5v-95h-69zM236 89
v184h69v-195q0 -40 -19.5 -59.5t-59.5 -19.5h-55v59h34q20 0 25.5 6t5.5 25zM140 -51h80v-39l-53 -121h-27v160z" />
    <glyph glyph-name="uni0123" unicode="&#x123;" horiz-adv-x="328" 
d="M210 516h-80v39l53 121h27v-160zM40 262h69v-172q0 -19 6 -25t25 -6h40q18 0 26 8t8 28v23l4 -1v-56q0 -34 -16.5 -47.5t-42.5 -13.5h-40q-40 0 -59.5 19.5t-19.5 59.5v183zM109 224h-69v182q0 40 19.5 59.5t59.5 19.5h40q26 0 42.5 -13.5t16.5 -47.5v-68h-4v34
q0 20 -8 28t-26 8h-40q-19 0 -25 -5.5t-6 -25.5v-171zM214 -51v61h69v-72q0 -40 -19.5 -59.5t-59.5 -19.5h-149v59h128q20 0 25.5 6t5.5 25zM283 -2h-69v434v3v50h69v-487z" />
    <glyph glyph-name="Imacron" unicode="&#x12a;" horiz-adv-x="198" 
d="M65 622h68v-622h-68v622zM-20 670v58h236v-58h-236z" />
    <glyph glyph-name="imacron" unicode="&#x12b;" horiz-adv-x="159" 
d="M114 0h-69v485h69v-485zM-38 550v58h236v-58h-236z" />
    <glyph glyph-name="Iogonek" unicode="&#x12e;" horiz-adv-x="198" 
d="M65 622h68v-622h-68v622zM-20 -104q0 40 19.5 59.5t59.5 19.5h74v-53h-60q-19 0 -25.5 -5t-6.5 -25v-20q0 -19 6.5 -24.5t25.5 -5.5h78v-54h-92q-40 0 -59.5 19.5t-19.5 59.5v29zM133 -28h-66v38h66v-38z" />
    <glyph glyph-name="iogonek" unicode="&#x12f;" horiz-adv-x="159" 
d="M114 0h-69v485h69v-485zM43 589v81h73v-81h-73zM-39 -104q0 40 19.5 59.5t59.5 19.5h74v-53h-60q-19 0 -25.5 -5t-6.5 -25v-20q0 -19 6.5 -24.5t25.5 -5.5h78v-54h-92q-40 0 -59.5 19.5t-19.5 59.5v29zM114 -28h-66v38h66v-38z" />
    <glyph glyph-name="Idotaccent" unicode="&#x130;" horiz-adv-x="198" 
d="M65 622h68v-622h-68v622zM52 669v86h92v-86h-92z" />
    <glyph glyph-name="dotlessi" unicode="&#x131;" horiz-adv-x="159" 
d="M114 0h-69v485h69v-485z" />
    <glyph glyph-name="uni0136" unicode="&#x136;" horiz-adv-x="345" 
d="M130 308h71l132 -308h-74zM201 308h-71l131 314h74zM55 622h68v-622h-68v622zM141 -51h80v-39l-53 -121h-27v160z" />
    <glyph glyph-name="uni0137" unicode="&#x137;" horiz-adv-x="325" 
d="M114 0h-69v669h69v-669zM136 256h71l113 -256h-74zM207 256h-71l110 229h74zM130 -51h80v-39l-53 -121h-27v160z" />
    <glyph glyph-name="Lacute" unicode="&#x139;" horiz-adv-x="271" 
d="M55 622h68v-622h-68v622zM96 0v59h170v-59h-170zM57 653l78 127h82l-98 -127h-62z" />
    <glyph glyph-name="lacute" unicode="&#x13a;" horiz-adv-x="159" 
d="M114 0h-69v669h69v-669zM48 700l78 127h82l-98 -127h-62z" />
    <glyph glyph-name="uni013B" unicode="&#x13b;" horiz-adv-x="271" 
d="M55 622h68v-622h-68v622zM96 0v59h170v-59h-170zM119 -51h80v-39l-53 -121h-27v160z" />
    <glyph glyph-name="uni013C" unicode="&#x13c;" horiz-adv-x="159" 
d="M114 0h-69v669h69v-669zM40 -51h80v-39l-53 -121h-27v160z" />
    <glyph glyph-name="lcaron" unicode="&#x13e;" horiz-adv-x="186" 
d="M159 669h62v-39l-35 -121h-27v160zM114 0h-69v669h69v-669z" />
    <glyph glyph-name="Lslash" unicode="&#x141;" horiz-adv-x="276" 
d="M220 392v-59l-238 -110v59zM55 622h68v-622h-68v622zM96 0v59h170v-59h-170z" />
    <glyph glyph-name="lslash" unicode="&#x142;" horiz-adv-x="169" 
d="M210 442v-59l-238 -110v59zM119 0h-69v669h69v-669z" />
    <glyph glyph-name="Nacute" unicode="&#x143;" horiz-adv-x="377" 
d="M259 622h63v-622h-75l-129 482v-482h-63v622h80l124 -465v465zM161 653l78 127h82l-98 -127h-62z" />
    <glyph glyph-name="nacute" unicode="&#x144;" horiz-adv-x="333" 
d="M114 0h-69v485h69v-52v-7v-426zM288 0h-69v395q0 20 -5.5 25.5t-25.5 5.5h-40q-18 0 -26 -8t-8 -28v-34h-4v68q0 34 16.5 47.5t42.5 13.5h40q40 0 59.5 -19.5t19.5 -59.5v-406zM136 516l78 127h82l-98 -127h-62z" />
    <glyph glyph-name="uni0145" unicode="&#x145;" horiz-adv-x="377" 
d="M259 622h63v-622h-75l-129 482v-482h-63v622h80l124 -465v465zM139 -51h80v-39l-53 -121h-27v160z" />
    <glyph glyph-name="uni0146" unicode="&#x146;" horiz-adv-x="333" 
d="M114 0h-69v485h69v-52v-7v-426zM288 0h-69v395q0 20 -5.5 25.5t-25.5 5.5h-40q-18 0 -26 -8t-8 -28v-34h-4v68q0 34 16.5 47.5t42.5 13.5h40q40 0 59.5 -19.5t19.5 -59.5v-406zM122 -51h80v-39l-53 -121h-27v160z" />
    <glyph glyph-name="Ncaron" unicode="&#x147;" horiz-adv-x="377" 
d="M259 622h63v-622h-75l-129 482v-482h-63v622h80l124 -465v465zM149 653l-85 127h76l52 -84l53 84h76l-85 -127h-87z" />
    <glyph glyph-name="ncaron" unicode="&#x148;" horiz-adv-x="333" 
d="M114 0h-69v485h69v-52v-7v-426zM288 0h-69v395q0 20 -5.5 25.5t-25.5 5.5h-40q-18 0 -26 -8t-8 -28v-34h-4v68q0 34 16.5 47.5t42.5 13.5h40q40 0 59.5 -19.5t19.5 -59.5v-406zM117 516l-85 127h76l52 -84l53 84h76l-85 -127h-87z" />
    <glyph glyph-name="Omacron" unicode="&#x14c;" horiz-adv-x="360" 
d="M242 141v391q0 20 -5.5 25.5t-25.5 5.5h-34v59h54q40 0 59.5 -19.5t19.5 -59.5v-402h-68zM242 90v101h68v-112q0 -40 -19.5 -59.5t-59.5 -19.5h-61v59h41q20 0 25.5 6t5.5 25zM118 532v-392h-68v403q0 40 19.5 59.5t59.5 19.5h54v-59h-34q-19 0 -25 -5.5t-6 -25.5z
M118 199v-109q0 -19 6 -25t25 -6h31v-59h-51q-40 0 -59.5 19.5t-19.5 59.5v120h68zM62 653v58h236v-58h-236z" />
    <glyph glyph-name="omacron" unicode="&#x14d;" horiz-adv-x="340" 
d="M232 141v254q0 20 -5.5 25.5t-25.5 5.5h-34v59h54q40 0 59.5 -19.5t19.5 -59.5v-265h-68zM232 90v101h68v-112q0 -40 -19.5 -59.5t-59.5 -19.5h-61v59h41q20 0 25.5 6t5.5 25zM108 395v-255h-68v266q0 40 19.5 59.5t59.5 19.5h54v-59h-34q-19 0 -25 -5.5t-6 -25.5z
M108 199v-109q0 -19 6 -25t25 -6h31v-59h-51q-40 0 -59.5 19.5t-19.5 59.5v120h68zM51 550v58h236v-58h-236z" />
    <glyph glyph-name="Ohungarumlaut" unicode="&#x150;" horiz-adv-x="360" 
d="M202 653l78 127h74l-98 -127h-54zM102 653l78 127h74l-98 -127h-54zM242 141v391q0 20 -5.5 25.5t-25.5 5.5h-34v59h54q40 0 59.5 -19.5t19.5 -59.5v-402h-68zM242 90v101h68v-112q0 -40 -19.5 -59.5t-59.5 -19.5h-61v59h41q20 0 25.5 6t5.5 25zM118 532v-392h-68v403
q0 40 19.5 59.5t59.5 19.5h54v-59h-34q-19 0 -25 -5.5t-6 -25.5zM118 199v-109q0 -19 6 -25t25 -6h31v-59h-51q-40 0 -59.5 19.5t-19.5 59.5v120h68z" />
    <glyph glyph-name="ohungarumlaut" unicode="&#x151;" horiz-adv-x="340" 
d="M193 516l78 127h74l-98 -127h-54zM93 516l78 127h74l-98 -127h-54zM232 141v254q0 20 -5.5 25.5t-25.5 5.5h-34v59h54q40 0 59.5 -19.5t19.5 -59.5v-265h-68zM232 90v101h68v-112q0 -40 -19.5 -59.5t-59.5 -19.5h-61v59h41q20 0 25.5 6t5.5 25zM108 395v-255h-68v266
q0 40 19.5 59.5t59.5 19.5h54v-59h-34q-19 0 -25 -5.5t-6 -25.5zM108 199v-109q0 -19 6 -25t25 -6h31v-59h-51q-40 0 -59.5 19.5t-19.5 59.5v120h68z" />
    <glyph glyph-name="OE" unicode="&#x152;" horiz-adv-x="517" 
d="M242 141v391q0 20 -5.5 25.5t-25.5 5.5h-34v59h28q27 0 43.5 -8.5t24 -26t7.5 -44.5v-402h-38zM242 90v101h38v-112q0 -26 -7.5 -44t-23.5 -26.5t-43 -8.5h-36v59h41q20 0 25.5 6t5.5 25zM118 532v-392h-68v403q0 40 19.5 59.5t59.5 19.5h54v-59h-34q-19 0 -25 -5.5
t-6 -25.5zM118 199v-109q0 -19 6 -25t25 -6h31v-59h-51q-40 0 -59.5 19.5t-19.5 59.5v120h68zM262 622h59v-622h-59v622zM455 353v-59h-159v59h159zM485 622v-59h-189v59h189zM492 59v-59h-196v59h196z" />
    <glyph glyph-name="oe" unicode="&#x153;" horiz-adv-x="518" 
d="M124 0q-40 0 -59.5 19.5t-19.5 59.5v327q0 40 19.5 59.5t59.5 19.5h71q24 0 38.5 -12t18.5 -26q4 14 18.5 26t36.5 12h83q40 0 59.5 -19.5t19.5 -59.5v-187h-69v176q0 20 -5.5 25.5t-25.5 5.5h-50q-19 0 -25 -5.5t-6 -25.5v-305q0 -19 6 -25t25 -6h47q20 0 25.5 6t5.5 25
v44h69v-55q0 -40 -19.5 -59.5t-59.5 -19.5h-80q-22 0 -36.5 12.5t-18.5 25.5q-4 -13 -18.5 -25.5t-38.5 -12.5h-71zM114 395v-305q0 -19 6 -25t25 -6h40q17 0 25 6.5t9 23.5v307q-3 30 -34 30h-40q-19 0 -25 -5.5t-6 -25.5zM469 278v-59h-220v59h220z" />
    <glyph glyph-name="Racute" unicode="&#x154;" horiz-adv-x="364" 
d="M247 350v182q0 20 -5.5 25.5t-25.5 5.5h-161v59h181q40 0 59.5 -19.5t19.5 -59.5v-204q0 -40 -19.5 -59.5t-59.5 -19.5h-140v59h120q20 0 25.5 6t5.5 25zM55 622h68v-622h-68v622zM173 286h71l103 -286h-74zM147 653l78 127h82l-98 -127h-62z" />
    <glyph glyph-name="racute" unicode="&#x155;" horiz-adv-x="212" 
d="M207 485v-60h-30q-63 0 -63 -75v-19h-4v73q0 17 8.5 36t25.5 32t42 13h21zM114 0h-69v485h69v-85v-5v-395zM99 516l78 127h82l-98 -127h-62z" />
    <glyph glyph-name="uni0156" unicode="&#x156;" horiz-adv-x="364" 
d="M247 350v182q0 20 -5.5 25.5t-25.5 5.5h-161v59h181q40 0 59.5 -19.5t19.5 -59.5v-204q0 -40 -19.5 -59.5t-59.5 -19.5h-140v59h120q20 0 25.5 6t5.5 25zM55 622h68v-622h-68v622zM173 286h71l103 -286h-74zM148 -51h80v-39l-53 -121h-27v160z" />
    <glyph glyph-name="uni0157" unicode="&#x157;" horiz-adv-x="212" 
d="M207 485v-60h-30q-63 0 -63 -75v-19h-4v73q0 17 8.5 36t25.5 32t42 13h21zM114 0h-69v485h69v-85v-5v-395zM42 -51h80v-39l-53 -121h-27v160z" />
    <glyph glyph-name="Rcaron" unicode="&#x158;" horiz-adv-x="364" 
d="M247 350v182q0 20 -5.5 25.5t-25.5 5.5h-161v59h181q40 0 59.5 -19.5t19.5 -59.5v-204q0 -40 -19.5 -59.5t-59.5 -19.5h-140v59h120q20 0 25.5 6t5.5 25zM55 622h68v-622h-68v622zM173 286h71l103 -286h-74zM137 653l-85 127h76l52 -84l53 84h76l-85 -127h-87z" />
    <glyph glyph-name="rcaron" unicode="&#x159;" horiz-adv-x="212" 
d="M207 485v-60h-30q-63 0 -63 -75v-19h-4v73q0 17 8.5 36t25.5 32t42 13h21zM114 0h-69v485h69v-85v-5v-395zM83 516l-85 127h76l52 -84l53 84h76l-85 -127h-87z" />
    <glyph glyph-name="Sacute" unicode="&#x15a;" horiz-adv-x="327" 
d="M218 90v170q0 20 -5.5 25.5t-25.5 5.5h-68q-40 0 -59.5 19.5t-19.5 59.5v173q0 40 19.5 59.5t59.5 19.5h88q40 0 59.5 -19.5t19.5 -59.5v-96h-69v85q0 20 -5.5 25.5t-25.5 5.5h-46q-19 0 -25 -5.5t-6 -25.5v-151q0 -19 6 -25t25 -6h68q40 0 59.5 -19.5t19.5 -59.5v-192
q0 -40 -19.5 -59.5t-59.5 -19.5h-87q-40 0 -59.5 19.5t-19.5 59.5v96h69v-85q0 -19 6 -25t25 -6h45q20 0 25.5 6t5.5 25zM128 653l78 127h82l-98 -127h-62z" />
    <glyph glyph-name="sacute" unicode="&#x15b;" horiz-adv-x="297" 
d="M194 89v92q0 20 -5.5 25.5t-25.5 5.5h-49q-40 0 -59.5 19.5t-19.5 59.5v115q0 40 19.5 59.5t59.5 19.5h68q40 0 59.5 -19.5t19.5 -59.5v-49h-68v39q0 20 -5.5 25.5t-25.5 5.5h-28q-19 0 -25 -5.5t-6 -25.5v-95q0 -19 6 -25t25 -6h49q40 0 59.5 -19.5t19.5 -59.5v-112
q0 -40 -19.5 -59.5t-59.5 -19.5h-67q-40 0 -59.5 19.5t-19.5 59.5v49h68v-39q0 -19 6 -25t25 -6h27q20 0 25.5 6t5.5 25zM125 516l78 127h82l-98 -127h-62z" />
    <glyph glyph-name="Scedilla" unicode="&#x15e;" horiz-adv-x="327" 
d="M218 90v170q0 20 -5.5 25.5t-25.5 5.5h-68q-40 0 -59.5 19.5t-19.5 59.5v173q0 40 19.5 59.5t59.5 19.5h88q40 0 59.5 -19.5t19.5 -59.5v-96h-69v85q0 20 -5.5 25.5t-25.5 5.5h-46q-19 0 -25 -5.5t-6 -25.5v-151q0 -19 6 -25t25 -6h68q40 0 59.5 -19.5t19.5 -59.5v-192
q0 -40 -19.5 -59.5t-59.5 -19.5h-87q-40 0 -59.5 19.5t-19.5 59.5v96h69v-85q0 -19 6 -25t25 -6h45q20 0 25.5 6t5.5 25zM127 -51h80v-39l-53 -121h-27v160z" />
    <glyph glyph-name="scedilla" unicode="&#x15f;" horiz-adv-x="297" 
d="M194 89v92q0 20 -5.5 25.5t-25.5 5.5h-49q-40 0 -59.5 19.5t-19.5 59.5v115q0 40 19.5 59.5t59.5 19.5h68q40 0 59.5 -19.5t19.5 -59.5v-49h-68v39q0 20 -5.5 25.5t-25.5 5.5h-28q-19 0 -25 -5.5t-6 -25.5v-95q0 -19 6 -25t25 -6h49q40 0 59.5 -19.5t19.5 -59.5v-112
q0 -40 -19.5 -59.5t-59.5 -19.5h-67q-40 0 -59.5 19.5t-19.5 59.5v49h68v-39q0 -19 6 -25t25 -6h27q20 0 25.5 6t5.5 25zM108 -51h80v-39l-53 -121h-27v160z" />
    <glyph glyph-name="Scaron" unicode="&#x160;" horiz-adv-x="327" 
d="M218 90v170q0 20 -5.5 25.5t-25.5 5.5h-68q-40 0 -59.5 19.5t-19.5 59.5v173q0 40 19.5 59.5t59.5 19.5h88q40 0 59.5 -19.5t19.5 -59.5v-96h-69v85q0 20 -5.5 25.5t-25.5 5.5h-46q-19 0 -25 -5.5t-6 -25.5v-151q0 -19 6 -25t25 -6h68q40 0 59.5 -19.5t19.5 -59.5v-192
q0 -40 -19.5 -59.5t-59.5 -19.5h-87q-40 0 -59.5 19.5t-19.5 59.5v96h69v-85q0 -19 6 -25t25 -6h45q20 0 25.5 6t5.5 25zM121 653l-85 127h76l52 -84l53 84h76l-85 -127h-87z" />
    <glyph glyph-name="scaron" unicode="&#x161;" horiz-adv-x="297" 
d="M194 89v92q0 20 -5.5 25.5t-25.5 5.5h-49q-40 0 -59.5 19.5t-19.5 59.5v115q0 40 19.5 59.5t59.5 19.5h68q40 0 59.5 -19.5t19.5 -59.5v-49h-68v39q0 20 -5.5 25.5t-25.5 5.5h-28q-19 0 -25 -5.5t-6 -25.5v-95q0 -19 6 -25t25 -6h49q40 0 59.5 -19.5t19.5 -59.5v-112
q0 -40 -19.5 -59.5t-59.5 -19.5h-67q-40 0 -59.5 19.5t-19.5 59.5v49h68v-39q0 -19 6 -25t25 -6h27q20 0 25.5 6t5.5 25zM103 516l-85 127h76l52 -84l53 84h76l-85 -127h-87z" />
    <glyph glyph-name="uni0162" unicode="&#x162;" horiz-adv-x="278" 
d="M105 622h68v-622h-68v622zM273 622v-59h-268v59h268zM97 -51h80v-39l-53 -121h-27v160z" />
    <glyph glyph-name="uni0163" unicode="&#x163;" horiz-adv-x="278" 
d="M105 622h68v-622h-68v622zM273 622v-59h-268v59h268zM100 -51h80v-39l-53 -121h-27v160z" />
    <glyph glyph-name="Tcaron" unicode="&#x164;" horiz-adv-x="278" 
d="M105 622h68v-622h-68v622zM273 622v-59h-268v59h268zM96 653l-85 127h76l52 -84l53 84h76l-85 -127h-87z" />
    <glyph glyph-name="tcaron" unicode="&#x165;" horiz-adv-x="197" 
d="M160 653h77v-39l-50 -101h-27v140zM118 564v-469q0 -19 6 -25t25 -6h38v-64h-59q-40 0 -59.5 19.5t-19.5 59.5v485h69zM187 485v-59h-182v59h182z" />
    <glyph glyph-name="Umacron" unicode="&#x16a;" horiz-adv-x="364" 
d="M244 90v532h68v-543q0 -40 -19.5 -59.5t-59.5 -19.5h-61v59h41q20 0 25.5 6t5.5 25zM120 622v-532q0 -19 6 -25t25 -6h31v-59h-51q-40 0 -59.5 19.5t-19.5 59.5v543h68zM65 653v58h236v-58h-236z" />
    <glyph glyph-name="umacron" unicode="&#x16b;" horiz-adv-x="333" 
d="M45 485h69v-395q0 -19 6 -25t25 -6h40q18 0 26 8t8 28v34h4v-68q0 -34 -16.5 -47.5t-42.5 -13.5h-40q-40 0 -59.5 19.5t-19.5 59.5v406zM219 485h69v-485h-69v52v7v426zM47 550v58h236v-58h-236z" />
    <glyph glyph-name="Uring" unicode="&#x16e;" horiz-adv-x="364" 
d="M244 90v532h68v-543q0 -40 -19.5 -59.5t-59.5 -19.5h-61v59h41q20 0 25.5 6t5.5 25zM120 622v-532q0 -19 6 -25t25 -6h31v-59h-51q-40 0 -59.5 19.5t-19.5 59.5v543h68zM276 735v-17q0 -34 -16 -49.5t-49 -15.5h-60q-33 0 -49 15.5t-16 49.5v17q0 34 16 49.5t49 15.5h60
q33 0 49 -15.5t16 -49.5zM225 724v5q0 17 -4.5 22t-23.5 5h-32q-19 0 -23.5 -5t-4.5 -22v-5q0 -16 4.5 -21.5t23.5 -5.5h32q19 0 23.5 5.5t4.5 21.5z" />
    <glyph glyph-name="uring" unicode="&#x16f;" horiz-adv-x="333" 
d="M45 485h69v-395q0 -19 6 -25t25 -6h40q18 0 26 8t8 28v34h4v-68q0 -34 -16.5 -47.5t-42.5 -13.5h-40q-40 0 -59.5 19.5t-19.5 59.5v406zM219 485h69v-485h-69v52v7v426zM262 608v-17q0 -34 -16 -49.5t-49 -15.5h-60q-33 0 -49 15.5t-16 49.5v17q0 34 16 49.5t49 15.5h60
q33 0 49 -15.5t16 -49.5zM211 597v5q0 17 -4.5 22t-23.5 5h-32q-19 0 -23.5 -5t-4.5 -22v-5q0 -16 4.5 -21.5t23.5 -5.5h32q19 0 23.5 5.5t4.5 21.5z" />
    <glyph glyph-name="Uhungarumlaut" unicode="&#x170;" horiz-adv-x="364" 
d="M202 653l78 127h74l-98 -127h-54zM102 653l78 127h74l-98 -127h-54zM244 90v532h68v-543q0 -40 -19.5 -59.5t-59.5 -19.5h-61v59h41q20 0 25.5 6t5.5 25zM120 622v-532q0 -19 6 -25t25 -6h31v-59h-51q-40 0 -59.5 19.5t-19.5 59.5v543h68z" />
    <glyph glyph-name="uhungarumlaut" unicode="&#x171;" horiz-adv-x="333" 
d="M174 516l78 127h74l-98 -127h-54zM74 516l78 127h74l-98 -127h-54zM45 485h69v-395q0 -19 6 -25t25 -6h40q18 0 26 8t8 28v34h4v-68q0 -34 -16.5 -47.5t-42.5 -13.5h-40q-40 0 -59.5 19.5t-19.5 59.5v406zM219 485h69v-485h-69v52v7v426z" />
    <glyph glyph-name="Uogonek" unicode="&#x172;" horiz-adv-x="364" 
d="M244 90v532h68v-543q0 -40 -19.5 -59.5t-59.5 -19.5h-61v59h41q20 0 25.5 6t5.5 25zM120 622v-532q0 -19 6 -25t25 -6h31v-59h-51q-40 0 -59.5 19.5t-19.5 59.5v543h68zM69 -104q0 40 19.5 59.5t59.5 19.5h74v-53h-60q-19 0 -25.5 -5t-6.5 -25v-20q0 -19 6.5 -24.5
t25.5 -5.5h78v-54h-92q-40 0 -59.5 19.5t-19.5 59.5v29zM222 -28h-66v38h66v-38z" />
    <glyph glyph-name="uogonek" unicode="&#x173;" horiz-adv-x="333" 
d="M45 485h69v-395q0 -19 6 -25t25 -6h40q18 0 26 8t8 28v34h4v-68q0 -34 -16.5 -47.5t-42.5 -13.5h-40q-40 0 -59.5 19.5t-19.5 59.5v406zM219 485h69v-485h-69v52v7v426zM135 -104q0 40 19.5 59.5t59.5 19.5h74v-53h-60q-19 0 -25.5 -5t-6.5 -25v-20q0 -19 6.5 -24.5
t25.5 -5.5h78v-54h-92q-40 0 -59.5 19.5t-19.5 59.5v29zM288 -28h-66v38h66v-38z" />
    <glyph glyph-name="Ydieresis" unicode="&#x178;" horiz-adv-x="319" 
d="M31 653v84h88v-84h-88zM207 653v84h88v-84h-88zM196 190h-68l-123 432h69l88 -365l83 365h69zM128 229h68v-229h-68v229z" />
    <glyph glyph-name="Zacute" unicode="&#x179;" horiz-adv-x="273" 
d="M268 623v-59h-253v59h253zM200 564h68l-195 -505h-68zM263 59v-59h-258v59h258zM116 653l78 127h82l-98 -127h-62z" />
    <glyph glyph-name="zacute" unicode="&#x17a;" horiz-adv-x="266" 
d="M251 485v-59h-226v59h226zM182 426h69l-167 -367h-69zM251 59v-59h-236v59h236zM116 516l78 127h82l-98 -127h-62z" />
    <glyph glyph-name="Zdotaccent" unicode="&#x17b;" horiz-adv-x="273" 
d="M268 623v-59h-253v59h253zM200 564h68l-195 -505h-68zM263 59v-59h-258v59h258zM98 653v86h92v-86h-92z" />
    <glyph glyph-name="zdotaccent" unicode="&#x17c;" horiz-adv-x="266" 
d="M251 485v-59h-226v59h226zM182 426h69l-167 -367h-69zM251 59v-59h-236v59h236zM95 536v86h92v-86h-92z" />
    <glyph glyph-name="Zcaron" unicode="&#x17d;" horiz-adv-x="273" 
d="M268 623v-59h-253v59h253zM200 564h68l-195 -505h-68zM263 59v-59h-258v59h258zM95 653l-85 127h76l52 -84l53 84h76l-85 -127h-87z" />
    <glyph glyph-name="zcaron" unicode="&#x17e;" horiz-adv-x="266" 
d="M251 485v-59h-226v59h226zM182 426h69l-167 -367h-69zM251 59v-59h-236v59h236zM93 516l-85 127h76l52 -84l53 84h76l-85 -127h-87z" />
    <glyph glyph-name="florin" unicode="&#x192;" horiz-adv-x="328" 
d="M202 574l-80 -636q-3 -26 -11.5 -44t-24.5 -26.5t-43 -8.5h-67v64h46q20 0 24.5 6t6.5 25l80 636q3 27 11.5 44.5t25 26t42.5 8.5h67v-64h-46q-19 0 -24 -5.5t-7 -25.5zM279 485v-59h-232v59h232z" />
    <glyph glyph-name="uni0218" unicode="&#x218;" horiz-adv-x="327" 
d="M218 90v170q0 20 -5.5 25.5t-25.5 5.5h-68q-40 0 -59.5 19.5t-19.5 59.5v173q0 40 19.5 59.5t59.5 19.5h88q40 0 59.5 -19.5t19.5 -59.5v-96h-69v85q0 20 -5.5 25.5t-25.5 5.5h-46q-19 0 -25 -5.5t-6 -25.5v-151q0 -19 6 -25t25 -6h68q40 0 59.5 -19.5t19.5 -59.5v-192
q0 -40 -19.5 -59.5t-59.5 -19.5h-87q-40 0 -59.5 19.5t-19.5 59.5v96h69v-85q0 -19 6 -25t25 -6h45q20 0 25.5 6t5.5 25zM126 -51h80v-39l-53 -121h-27v160z" />
    <glyph glyph-name="uni0219" unicode="&#x219;" horiz-adv-x="297" 
d="M194 89v92q0 20 -5.5 25.5t-25.5 5.5h-49q-40 0 -59.5 19.5t-19.5 59.5v115q0 40 19.5 59.5t59.5 19.5h68q40 0 59.5 -19.5t19.5 -59.5v-49h-68v39q0 20 -5.5 25.5t-25.5 5.5h-28q-19 0 -25 -5.5t-6 -25.5v-95q0 -19 6 -25t25 -6h49q40 0 59.5 -19.5t19.5 -59.5v-112
q0 -40 -19.5 -59.5t-59.5 -19.5h-67q-40 0 -59.5 19.5t-19.5 59.5v49h68v-39q0 -19 6 -25t25 -6h27q20 0 25.5 6t5.5 25zM125 -51h80v-39l-53 -121h-27v160z" />
    <glyph glyph-name="uni021A" unicode="&#x21a;" horiz-adv-x="278" 
d="M105 622h68v-622h-68v622zM273 622v-59h-268v59h268zM101 -51h80v-39l-53 -121h-27v160z" />
    <glyph glyph-name="uni021B" unicode="&#x21b;" horiz-adv-x="197" 
d="M118 564v-469q0 -19 6 -25t25 -6h38v-64h-59q-40 0 -59.5 19.5t-19.5 59.5v485h69zM187 485v-59h-182v59h182zM78 -51h80v-39l-53 -121h-27v160z" />
    <glyph glyph-name="uni02BC" unicode="&#x2bc;" horiz-adv-x="142" 
d="M30 622h82v-58l-55 -191h-27v249z" />
    <glyph glyph-name="circumflex" unicode="&#x2c6;" horiz-adv-x="400" 
d="M71 516l85 127h87l85 -127h-76l-53 84l-52 -84h-76z" />
    <glyph glyph-name="caron" unicode="&#x2c7;" horiz-adv-x="400" 
d="M156 516l-85 127h76l52 -84l53 84h76l-85 -127h-87z" />
    <glyph glyph-name="macronmod" unicode="&#x2c9;" horiz-adv-x="400" 
d="M82 550v58h236v-58h-236z" />
    <glyph glyph-name="breve" unicode="&#x2d8;" horiz-adv-x="400" 
d="M264 643h66v-48q0 -40 -19.5 -59.5t-59.5 -19.5h-56v56h38q20 0 25.5 6t5.5 25v40zM70 643h66v-40q0 -19 6 -25t25 -6h38v-56h-56q-40 0 -59.5 19.5t-19.5 59.5v48z" />
    <glyph glyph-name="dotaccent" unicode="&#x2d9;" horiz-adv-x="400" 
d="M154 536v86h92v-86h-92z" />
    <glyph glyph-name="ring" unicode="&#x2da;" horiz-adv-x="400" 
d="M295 588v-17q0 -34 -16 -49.5t-49 -15.5h-60q-33 0 -49 15.5t-16 49.5v17q0 34 16 49.5t49 15.5h60q33 0 49 -15.5t16 -49.5zM244 577v5q0 17 -4.5 22t-23.5 5h-32q-19 0 -23.5 -5t-4.5 -22v-5q0 -16 4.5 -21.5t23.5 -5.5h32q19 0 23.5 5.5t4.5 21.5z" />
    <glyph glyph-name="ogonek" unicode="&#x2db;" horiz-adv-x="400" 
d="M113 -104q0 40 19.5 59.5t59.5 19.5h74v-53h-60q-19 0 -25.5 -5t-6.5 -25v-20q0 -19 6.5 -24.5t25.5 -5.5h78v-54h-92q-40 0 -59.5 19.5t-19.5 59.5v29zM266 -28h-66v38h66v-38z" />
    <glyph glyph-name="tilde" unicode="&#x2dc;" horiz-adv-x="400" 
d="M249 534q-21 0 -38 9t-30.5 17.5t-26.5 8.5q-17 0 -17 -24v-11h-62v14q0 35 15.5 55.5t56.5 20.5h6q21 0 37 -8.5t29 -17.5t25 -9q11 0 15 4.5t4 20.5v10h62v-14q0 -34 -14.5 -55t-56.5 -21h-5z" />
    <glyph glyph-name="hungarumlaut" unicode="&#x2dd;" horiz-adv-x="400" 
d="M174 516l78 127h74l-98 -127h-54zM74 516l78 127h74l-98 -127h-54z" />
    <glyph glyph-name="uni0901" unicode="&#x901;" horiz-adv-x="0" 
d="M-218 791h64v-40q0 -19 6 -25t25 -6h68q20 0 25.5 6t5.5 25v40h64v-46q0 -40 -19.5 -59.5t-59.5 -19.5h-100q-40 0 -59.5 19.5t-19.5 59.5v46zM-124 830h68v-69h-68v69z" />
    <glyph glyph-name="uni0902" unicode="&#x902;" horiz-adv-x="0" 
d="M-130 813h73v-86h-73v86z" />
    <glyph glyph-name="uni0903" unicode="&#x903;" horiz-adv-x="153" 
d="M40 149h73v-86h-73v86zM40 499h73v-86h-73v86z" />
    <glyph glyph-name="uni0905" unicode="&#x905;" horiz-adv-x="500" 
d="M377 622h68v-622h-68v622zM189 347h235v-58h-194zM399 622h121v-59h-121v59zM192 622q40 0 59.5 -19.5t19.5 -59.5v-147q0 -22 -10 -33.5t-27 -13.5v-2q17 -1 27 -12.5t10 -33.5v-144q0 -40 -19.5 -59.5t-59.5 -19.5h-83q-40 0 -59.5 19.5t-19.5 59.5v96h69v-85
q0 -19 6 -25t25 -6h41q20 0 25.5 6t5.5 25v116q0 20 -7 27t-27 7h-68v59h68q20 0 27 7.5t7 26.5v121q0 20 -5.5 25.5t-25.5 5.5h-41q-19 0 -25 -5.5t-6 -25.5v-85h-69v96q0 40 19.5 59.5t59.5 19.5h83z" />
    <glyph glyph-name="uni0906" unicode="&#x906;" horiz-adv-x="680" 
d="M377 622h68v-622h-68v622zM189 347h235v-58h-194zM399 622h121v-59h-121v59zM192 622q40 0 59.5 -19.5t19.5 -59.5v-147q0 -22 -10 -33.5t-27 -13.5v-2q17 -1 27 -12.5t10 -33.5v-144q0 -40 -19.5 -59.5t-59.5 -19.5h-83q-40 0 -59.5 19.5t-19.5 59.5v96h69v-85
q0 -19 6 -25t25 -6h41q20 0 25.5 6t5.5 25v116q0 20 -7 27t-27 7h-68v59h68q20 0 27 7.5t7 26.5v121q0 20 -5.5 25.5t-25.5 5.5h-41q-19 0 -25 -5.5t-6 -25.5v-85h-69v96q0 40 19.5 59.5t59.5 19.5h83zM556 582h68v-582h-68v582zM481 622h218v-59h-218v59z" />
    <glyph glyph-name="uni0907" unicode="&#x907;" horiz-adv-x="340" 
d="M-20 622h380v-59h-380v59zM48 190h69v-190h-69v190zM215 594h69v-168h-149q-19 0 -25 -5.5t-6 -25.5v-40q0 -19 6 -25t25 -6h81q40 0 59.5 -19.5t19.5 -59.5v-88q0 -40 -19.5 -59.5t-59.5 -19.5h-134v59h113q20 0 25.5 6t5.5 25v66q0 20 -5.5 25.5t-25.5 5.5h-81
q-40 0 -59.5 19.5t-19.5 59.5v62q0 40 19.5 59.5t59.5 19.5h101v109z" />
    <glyph glyph-name="uni0908" unicode="&#x908;" horiz-adv-x="340" 
d="M-20 622h380v-59h-380v59zM48 190h69v-190h-69v190zM215 594h69v-168h-149q-19 0 -25 -5.5t-6 -25.5v-40q0 -19 6 -25t25 -6h81q40 0 59.5 -19.5t19.5 -59.5v-88q0 -40 -19.5 -59.5t-59.5 -19.5h-134v59h113q20 0 25.5 6t5.5 25v66q0 20 -5.5 25.5t-25.5 5.5h-81
q-40 0 -59.5 19.5t-19.5 59.5v62q0 40 19.5 59.5t59.5 19.5h101v109zM349 714h-34q-19 0 -25 -5t-6 -25v-75h-69v86q0 40 19.5 59t59.5 19h55v-59z" />
    <glyph glyph-name="uni0909" unicode="&#x909;" horiz-adv-x="324" 
d="M-20 622h364v-59h-364v59zM269 406q0 -22 -10 -33.5t-27 -13.5v-2q17 -1 27 -12.5t10 -33.5v-232q0 -40 -19.5 -59.5t-59.5 -19.5h-86q-40 0 -59.5 19.5t-19.5 59.5v127h69v-116q0 -19 6 -25t25 -6h44q20 0 25.5 6t5.5 25v205q0 20 -5.5 25.5t-25.5 5.5h-85v59h85
q20 0 25.5 6t5.5 25v115q0 21 -6.5 26.5t-39.5 5.5l80 8q17 0 26 -7t9 -28v-130z" />
    <glyph glyph-name="uni090A" unicode="&#x90a;" horiz-adv-x="456" 
d="M347 357q40 0 59.5 -19.5t19.5 -59.5v-199q0 -40 -19.5 -59.5t-59.5 -19.5h-43v59h22q20 0 25.5 6t5.5 25v177q0 20 -5.5 25.5t-25.5 5.5h-116v59h137zM476 622v-59h-496v59h496zM269 406q0 -22 -10 -33.5t-27 -13.5v-2q17 -1 27 -12.5t10 -33.5v-232q0 -40 -19.5 -59.5
t-59.5 -19.5h-86q-40 0 -59.5 19.5t-19.5 59.5v127h69v-116q0 -19 6 -25t25 -6h44q20 0 25.5 6t5.5 25v205q0 20 -5.5 25.5t-25.5 5.5h-85v59h85q20 0 25.5 6t5.5 25v115q0 21 -6.5 26.5t-39.5 5.5l80 8q17 0 26 -7t9 -28v-130z" />
    <glyph glyph-name="uni090B" unicode="&#x90b;" horiz-adv-x="623" 
d="M317 600v-600h-68v600h68zM-20 622h658v-59h-658v59zM42 485q37 0 59 -6t36 -20.5t27 -41.5l89 -177l-172 -240h-77l201 281l-6 -77l-81 164q-14 29 -29 42t-47 13h-37v62h37zM520 394q0 18 -4.5 25t-24.5 7h-8q-19 0 -24 -7t-5 -25v-99q0 -18 5 -25t24 -7h8q20 0 24.5 7
t4.5 25v99zM597 0h-133q-32 0 -50.5 18.5t-18.5 50.5v26q0 32 18.5 50.5t50.5 18.5h17l-41 39h-225v60h227l-24 -12q-22 5 -27.5 23t-5.5 49v84q0 36 18.5 57t60.5 21h45q42 0 60.5 -21t18.5 -57v-126q0 -36 -18.5 -57t-60.5 -21h-1l43 -39v-57h-68q-12 0 -15.5 -4.5
t-3.5 -16.5v-9q0 -12 3.5 -16.5t15.5 -4.5h114v-56z" />
    <glyph glyph-name="uni090C" unicode="&#x90c;" horiz-adv-x="488" 
d="M-20 622h528v-59h-528v59zM196 485q22 0 34 -10t13 -27h2q2 17 13 27t33 10h112v-59h-95q-19 0 -25 -5.5t-6 -25.5v-206h-69v206q0 20 -5.5 25.5t-25.5 5.5h-32q-19 0 -25 -5.5t-6 -25.5v-302q0 -19 6 -25t25 -6h61v-62h-82q-40 0 -59.5 19.5t-19.5 59.5v327
q0 40 19.5 59.5t59.5 19.5h72zM371 592h69v-558h-48q-19 0 -25 -5.5t-6 -25.5v-36q0 -19 6 -25t25 -6h89v-59h-110q-40 0 -59.5 19.5t-19.5 59.5v58q0 40 19 59.5t57 19.5h3v499z" />
    <glyph glyph-name="uni090F" unicode="&#x90f;" horiz-adv-x="377" 
d="M55 578h69v-488q0 -19 6 -25t25 -6h74q20 0 25.5 6t5.5 25v106h69v-117q0 -40 -19.5 -59.5t-59.5 -19.5h-116q-40 0 -59.5 19.5t-19.5 59.5v499zM263 578h69v-215q0 -40 -19.5 -59.5t-59.5 -19.5h-65v59h44q20 0 25.5 6t5.5 25v204zM-20 622h417v-59h-417v59z" />
    <glyph glyph-name="uni0910" unicode="&#x910;" horiz-adv-x="377" 
d="M55 578h69v-488q0 -19 6 -25t25 -6h74q20 0 25.5 6t5.5 25v106h69v-117q0 -40 -19.5 -59.5t-59.5 -19.5h-116q-40 0 -59.5 19.5t-19.5 59.5v499zM263 578h69v-215q0 -40 -19.5 -59.5t-59.5 -19.5h-65v59h44q20 0 25.5 6t5.5 25v204zM-20 622h417v-59h-417v59zM188 813
l143 -204h-69q-16 15 -39 43t-50 65l-68 96h83z" />
    <glyph glyph-name="uni0911" unicode="&#x911;" horiz-adv-x="680" 
d="M655 751v0v40h64v-46q0 -40 -19.5 -59.5t-59.5 -19.5h-100q-40 0 -59.5 19.5t-19.5 59.5v46h64v-40q0 -19 5.5 -25t25.5 -6h68q20 0 25.5 6t5.5 25zM377 622v0h322v-59h-75v-563h-68v563h-111v-563h-68v289h-106v-132q0 -40 -19.5 -59.5t-59.5 -19.5h-83
q-40 0 -59.5 19.5t-19.5 59.5v96h69v-85q0 -20 5.5 -25.5t25.5 -5.5h41q19 0 25 5.5t6 25.5v116q0 20 -7 27t-27 7h-68v59h68q20 0 27 7.5t7 26.5v121q0 20 -6 25.5t-25 5.5h-41q-20 0 -25.5 -5.5t-5.5 -25.5v-85h-69v96q0 40 19.5 59.5t59.5 19.5h83q40 0 59.5 -19.5
t19.5 -59.5v-147q0 -43 -37 -49h143v275z" />
    <glyph glyph-name="uni0913" unicode="&#x913;" horiz-adv-x="679" 
d="M492 813l143 -204h-69q-16 15 -39 43t-50 65l-68 96h83zM377 622h68v-622h-68v622zM189 347h235v-58h-194zM399 622h121v-59h-121v59zM192 622q40 0 59.5 -19.5t19.5 -59.5v-147q0 -22 -10 -33.5t-27 -13.5v-2q17 -1 27 -12.5t10 -33.5v-144q0 -40 -19.5 -59.5
t-59.5 -19.5h-83q-40 0 -59.5 19.5t-19.5 59.5v96h69v-85q0 -19 6 -25t25 -6h41q20 0 25.5 6t5.5 25v116q0 20 -7 27t-27 7h-68v59h68q20 0 27 7.5t7 26.5v121q0 20 -5.5 25.5t-25.5 5.5h-41q-19 0 -25 -5.5t-6 -25.5v-85h-69v96q0 40 19.5 59.5t59.5 19.5h83zM556 582h68
v-582h-68v582zM481 622h218v-59h-218v59z" />
    <glyph glyph-name="uni0914" unicode="&#x914;" horiz-adv-x="680" 
d="M335 813h91l42 -46q44 -48 69 -80.5t44 -64.5h4q-16 29 -29 62.5t-32 76.5l-22 52h74l47 -201h-66l-9 6.5t-27 21.5t-46 41zM377 622h68v-622h-68v622zM189 347h235v-58h-194zM399 622h121v-59h-121v59zM192 622q40 0 59.5 -19.5t19.5 -59.5v-147q0 -22 -10 -33.5
t-27 -13.5v-2q17 -1 27 -12.5t10 -33.5v-144q0 -40 -19.5 -59.5t-59.5 -19.5h-83q-40 0 -59.5 19.5t-19.5 59.5v96h69v-85q0 -19 6 -25t25 -6h41q20 0 25.5 6t5.5 25v116q0 20 -7 27t-27 7h-68v59h68q20 0 27 7.5t7 26.5v121q0 20 -5.5 25.5t-25.5 5.5h-41q-19 0 -25 -5.5
t-6 -25.5v-85h-69v96q0 40 19.5 59.5t59.5 19.5h83zM556 582h68v-582h-68v582zM481 622h218v-59h-218v59z" />
    <glyph glyph-name="uni0915" unicode="&#x915;" horiz-adv-x="507" 
d="M219 592h69v-592h-69v592zM179 485v-59h-34q-19 0 -25 -5.5t-6 -25.5v-227q0 -19 6 -25t25 -6h40q20 0 27 7.5t7 26.5l11 -46q0 -27 -10 -37t-33 -10h-63q-40 0 -59.5 19.5t-19.5 59.5v249q0 40 19.5 59.5t59.5 19.5h55zM383 485q40 0 59.5 -19.5t19.5 -59.5v-249
q0 -40 -19.5 -59.5t-59.5 -19.5h-55v59h34q20 0 25.5 6t5.5 25v227q0 20 -5.5 25.5t-25.5 5.5h-40q-19 0 -26.5 -7t-7.5 -27l-11 46q0 27 10.5 37t32.5 10h63zM-20 622h547v-59h-547v59z" />
    <glyph glyph-name="uni0916" unicode="&#x916;" horiz-adv-x="584" 
d="M464 601h65v-601h-65v601zM434 471v-59h-42q-19 0 -25 -5.5t-6 -25.5v-172q0 -19 6 -25t25 -6h31q23 0 32 8.5t9 30.5l7 -51q0 -27 -10.5 -37t-33.5 -10h-52q-40 0 -59.5 19.5t-19.5 59.5v194q0 40 19.5 59.5t59.5 19.5h59zM48 471h69v-378q0 -19 6 -25t25 -6h213v-62
h-234q-40 0 -59.5 19.5t-19.5 59.5v392zM-20 622h624v-59h-387v7q17 0 26 -6t9 -27v-212q0 -40 -19.5 -59.5t-59.5 -19.5h-91v59h70q20 0 25.5 6t5.5 25v196q0 20 -5.5 25.5t-25.5 5.5h-172v59z" />
    <glyph glyph-name="uni0917" unicode="&#x917;" horiz-adv-x="512" 
d="M388 599h69v-599h-69v599zM-20 622h552v-59h-552v59zM215 594h69v-437q0 -40 -19.5 -59.5t-59.5 -19.5h-91q-40 0 -59.5 19.5t-19.5 59.5v190q0 40 19.5 59.5t59.5 19.5h116v-59h-95q-19 0 -25 -5.5t-6 -25.5v-168q0 -19 6 -25t25 -6h49q20 0 25.5 6t5.5 25v426z" />
    <glyph glyph-name="uni0918" unicode="&#x918;" horiz-adv-x="416" 
d="M48 532q0 26 15 32t41 6l74 -7q-26 0 -39.5 -0.5t-17.5 -7t-4 -23.5v-122q0 -19 6 -25t25 -6h68v-59h-68q-19 0 -25 -5.5t-6 -25.5v-121q0 -19 6 -25t25 -6h110q20 0 27 7.5t7 26.5l11 -46q0 -27 -10 -37t-33 -10h-133q-40 0 -59.5 19.5t-19.5 59.5v144q0 22 10 33.5
t27 12.5v2q-17 2 -27 13.5t-10 33.5v136zM-20 622h456v-59h-456v59zM292 592h69v-592h-69v592z" />
    <glyph glyph-name="uni0919" unicode="&#x919;" horiz-adv-x="351" 
d="M-20 622h391v-59h-391v59zM212 594h69v-168h-121q-19 0 -25 -5.5t-6 -25.5v-70q0 -19 6 -25t25 -6h52q40 0 59.5 -19.5t19.5 -59.5v-136q0 -40 -19.5 -59.5t-59.5 -19.5h-85q-40 0 -59.5 19.5t-19.5 59.5v86h69v-75q0 -19 6 -25t25 -6h43q20 0 25.5 6t5.5 25v114
q0 20 -5.5 25.5t-25.5 5.5h-52q-40 0 -59.5 19.5t-19.5 59.5v92q0 40 19.5 59.5t59.5 19.5h73v109zM273 394h73v-86h-73v86z" />
    <glyph glyph-name="uni091A" unicode="&#x91a;" horiz-adv-x="386" 
d="M-20 622h426v-59h-426v59zM262 594h69v-594h-69v594zM5 485h204v-59h-204v59zM68 400q0 27 15 30.5t41 1.5l74 -6q-26 0 -39.5 -0.5t-17.5 -7t-4 -23.5v-227q0 -19 6 -25t25 -6h60q20 0 27 7.5t7 26.5l11 -46q0 -27 -10 -37t-33 -10h-83q-40 0 -59.5 19.5t-19.5 59.5v243
z" />
    <glyph glyph-name="uni091B" unicode="&#x91b;" horiz-adv-x="501" 
d="M-20 622h541v-59h-541v59zM318 591h64v-126h-64v126zM55 537q0 27 15 30.5t41 1.5l74 -7q-40 2 -50.5 -1t-10.5 -29v-163q0 -19 6 -25t25 -6h37v-59h-37q-19 0 -25 -5.5t-6 -25.5v-158q0 -19 6 -25t25 -6h203q20 0 25.5 6t5.5 25v305q0 20 -5.5 25.5t-25.5 5.5h-20
q-19 0 -25 -5.5t-6 -25.5v-132q0 -19 6 -25t25 -6h20v-59h-36q-40 0 -59.5 19.5t-19.5 59.5v154q0 40 19.5 59.5t59.5 19.5h52q40 0 59.5 -19.5t19.5 -59.5v-327q0 -40 -19.5 -59.5t-59.5 -19.5h-240q-40 0 -59.5 19.5t-19.5 59.5v181q0 22 10 33.5t27 12.5v2
q-17 2 -27 13.5t-10 33.5v182z" />
    <glyph glyph-name="uni091C" unicode="&#x91c;" horiz-adv-x="490" 
d="M366 592h69v-592h-69v592zM-20 622h530v-59h-530v59zM45 485h69v-317q0 -19 6 -25t25 -6h34q20 0 25.5 6t5.5 25v317h194v-59h-125v-269q0 -40 -19.5 -59.5t-59.5 -19.5h-76q-40 0 -59.5 19.5t-19.5 59.5v328z" />
    <glyph glyph-name="uni091D" unicode="&#x91d;" horiz-adv-x="532" 
d="M48 190h69v-190h-69v190zM-20 622h572v-59h-572v59zM408 592h69v-592h-69v592zM223 594h69v-168h-146q-19 0 -25 -5.5t-6 -25.5v-40q0 -19 6 -25t25 -6h285v-59h-177l37 24q9 -16 9 -44v-88q0 -40 -19.5 -59.5t-59.5 -19.5h-142v59h121q20 0 25.5 6t5.5 25v66
q0 20 -5.5 25.5t-25.5 5.5h-75q-40 0 -59.5 19.5t-19.5 59.5v62q0 40 19.5 59.5t59.5 19.5h98v109z" />
    <glyph glyph-name="uni091E" unicode="&#x91e;" horiz-adv-x="484" 
d="M360 597h69v-597h-69v597zM-20 622h524v-59h-524v59zM30 256h69v-88q0 -19 6 -25t25 -6h29q20 0 25.5 6t5.5 25v227q0 20 -5.5 25.5t-25.5 5.5h-86v59h107q40 0 59.5 -19.5t19.5 -59.5v-249q0 -40 -19.5 -59.5t-59.5 -19.5h-71q-40 0 -59.5 19.5t-19.5 59.5v99zM231 274
v59h146v-59h-146z" />
    <glyph glyph-name="uni091F" unicode="&#x91f;" horiz-adv-x="334" 
d="M213 580h69v-154h-127q-19 0 -25 -5.5t-6 -25.5v-305q0 -19 6 -25t25 -6h34q20 0 25.5 6t5.5 25v104h69v-115q0 -40 -19.5 -59.5t-59.5 -19.5h-76q-40 0 -59.5 19.5t-19.5 59.5v327q0 40 19.5 59.5t59.5 19.5h79v95zM-20 622h374v-59h-374v59z" />
    <glyph glyph-name="uni0920" unicode="&#x920;" horiz-adv-x="368" 
d="M-20 622h408v-59h-408v59zM241 485q40 0 59.5 -19.5t19.5 -59.5v-327q0 -40 -19.5 -59.5t-59.5 -19.5h-107q-40 0 -59.5 19.5t-19.5 59.5v327q0 40 19.5 59.5t59.5 19.5h107zM153 580h69v-113h-69v113zM251 395q0 20 -5.5 25.5t-25.5 5.5h-65q-19 0 -25 -5.5t-6 -25.5
v-305q0 -19 6 -25t25 -6h65q20 0 25.5 6t5.5 25v305z" />
    <glyph glyph-name="uni0921" unicode="&#x921;" horiz-adv-x="351" 
d="M-20 622h391v-59h-391v59zM212 594h69v-168h-121q-19 0 -25 -5.5t-6 -25.5v-70q0 -19 6 -25t25 -6h52q40 0 59.5 -19.5t19.5 -59.5v-136q0 -40 -19.5 -59.5t-59.5 -19.5h-85q-40 0 -59.5 19.5t-19.5 59.5v86h69v-75q0 -19 6 -25t25 -6h43q20 0 25.5 6t5.5 25v114
q0 20 -5.5 25.5t-25.5 5.5h-52q-40 0 -59.5 19.5t-19.5 59.5v92q0 40 19.5 59.5t59.5 19.5h73v109z" />
    <glyph glyph-name="uni0922" unicode="&#x922;" horiz-adv-x="377" 
d="M-20 622h417v-59h-417v59zM213 580h69v-154h-127q-19 0 -25 -5.5t-6 -25.5v-305q0 -19 6 -25t25 -6h67q20 0 25.5 6t5.5 25v103q0 20 -5.5 25.5t-25.5 5.5h-41v59h62q40 0 59.5 -19.5t19.5 -59.5v-125q0 -40 -19.5 -59.5t-59.5 -19.5h-109q-40 0 -59.5 19.5t-19.5 59.5
v327q0 40 19.5 59.5t59.5 19.5h79v95z" />
    <glyph glyph-name="uni0923" unicode="&#x923;" horiz-adv-x="490" 
d="M366 592h69v-592h-69v592zM-20 622h530v-59h-530v59zM45 585h69v-417q0 -19 6 -25t25 -6h34q20 0 25.5 6t5.5 25v417h69v-428q0 -40 -19.5 -59.5t-59.5 -19.5h-76q-40 0 -59.5 19.5t-19.5 59.5v428z" />
    <glyph glyph-name="uni0924" unicode="&#x924;" horiz-adv-x="373" 
d="M318 604v-604h-69v604h69zM-20 622h413v-59h-413v59zM283 485v-59h-138q-19 0 -25 -5.5t-6 -25.5v-302q0 -19 6 -25t25 -6h34v-62h-55q-40 0 -59.5 19.5t-19.5 59.5v327q0 40 19.5 59.5t59.5 19.5h159z" />
    <glyph glyph-name="uni0925" unicode="&#x925;" horiz-adv-x="430" 
d="M306 622h144v-59h-144v59zM306 592h69v-592h-69v592zM162 627q40 0 59.5 -19.5t19.5 -59.5v-176q0 -40 -19.5 -59.5t-59.5 -19.5h-47v-125q0 -19 6 -25t25 -6h126q20 0 27 7.5t7 26.5l11 -46q0 -27 -10 -37t-33 -10h-149q-40 0 -59.5 19.5t-19.5 59.5v195h95q20 0 25.5 6
t5.5 25v154q0 20 -5.5 25.5t-25.5 5.5h-5q-19 0 -25 -5.5t-6 -25.5v-45h-52v56q0 40 18 59.5t58 19.5h33z" />
    <glyph glyph-name="uni0926" unicode="&#x926;" horiz-adv-x="347" 
d="M-20 622h387v-59h-387v59zM223 580h69v-154h-137q-19 0 -25 -5.5t-6 -25.5v-227q0 -19 6 -25t25 -6h41q20 0 27 7.5t7 26.5l11 -46q0 -27 -10 -37t-33 -10h-64q-40 0 -59.5 19.5t-19.5 59.5v249q0 40 19.5 59.5t59.5 19.5h89v95zM230 266h69v-266h-69v266z" />
    <glyph glyph-name="uni0927" unicode="&#x927;" horiz-adv-x="444" 
d="M320 622h144v-59h-144v59zM320 592h69v-592h-69v592zM141 404q0 -19 6 -25t25 -6h68v-59h-68q-19 0 -25 -5.5t-6 -25.5v-115q0 -19 6 -25t25 -6h114q20 0 27 7.5t7 26.5l11 -46q0 -27 -10 -37t-33 -10h-137q-40 0 -59.5 19.5t-19.5 59.5v138q0 22 10 33.5t27 12.5v2
q-17 2 -27 13.5t-10 33.5v158q0 40 19.5 59.5t59.5 19.5h35q40 0 59.5 -19.5t19.5 -59.5v-56h-52v45q0 20 -5.5 25.5t-25.5 5.5h-10q-19 0 -25 -5.5t-6 -25.5v-133z" />
    <glyph glyph-name="uni0928" unicode="&#x928;" horiz-adv-x="476" 
d="M352 597h69v-597h-69v597zM-20 622h516v-59h-516v59zM264 157q0 -40 -19.5 -59.5t-59.5 -19.5h-71q-40 0 -59.5 19.5t-19.5 59.5v249q0 40 19.5 59.5t59.5 19.5h259v-59h-238q-19 0 -25 -5.5t-6 -25.5v-227q0 -19 6 -25t25 -6h29q20 0 25.5 6t5.5 25v276h69v-287z" />
    <glyph glyph-name="uni092A" unicode="&#x92a;" horiz-adv-x="353" 
d="M-20 622h393v-59h-393v59zM229 594h69v-594h-69v594zM55 591h69v-423q0 -19 6 -25t25 -6h40q20 0 27 7.5t7 26.5l11 -46q0 -27 -10 -37t-33 -10h-63q-40 0 -59.5 19.5t-19.5 59.5v434z" />
    <glyph glyph-name="uni092B" unicode="&#x92b;" horiz-adv-x="510" 
d="M222 592h69v-592h-69v592zM48 591h69v-423q0 -19 6 -25t25 -6h40q20 0 27 7.5t7 26.5l11 -46q0 -27 -10 -37t-33 -10h-63q-40 0 -59.5 19.5t-19.5 59.5v434zM386 485q40 0 59.5 -19.5t19.5 -59.5v-249q0 -40 -19.5 -59.5t-59.5 -19.5h-55v59h34q20 0 25.5 6t5.5 25v227
q0 20 -5.5 25.5t-25.5 5.5h-40q-19 0 -26.5 -7t-7.5 -27l-11 46q0 27 10.5 37t32.5 10h63zM-20 622h550v-59h-550v59z" />
    <glyph glyph-name="uni092C" unicode="&#x92c;" horiz-adv-x="384" 
d="M-20 622h424v-59h-424v59zM220 485v-59h-76l76 -140q13 -23 23.5 -45.5t16.5 -36.5l6 -14l-1.5 15t-3 45.5t-1.5 74.5v269h69v-594h-69v98l5 12l-95 178q-27 51 -39 79l-12 28v-227q0 -19 6 -25t25 -6h76q20 0 27 7.5t7 26.5l11 -46q0 -27 -10 -37t-33 -10h-99
q-40 0 -59.5 19.5t-19.5 59.5v249q0 40 19.5 59.5t59.5 19.5h91z" />
    <glyph glyph-name="uni092D" unicode="&#x92d;" horiz-adv-x="529" 
d="M405 597h69v-597h-69v597zM405 622h144v-59h-144v59zM213 622q40 0 59.5 -19.5t19.5 -59.5v-386q0 -40 -19.5 -59.5t-59.5 -19.5h-89q-40 0 -59.5 19.5t-19.5 59.5v165q0 40 19.5 59.5t59.5 19.5h302v-59h-281q-19 0 -25 -5.5t-6 -25.5v-143q0 -19 6 -25t25 -6h47
q20 0 25.5 6t5.5 25v364q0 20 -5.5 25.5t-25.5 5.5h-39q-19 0 -25 -5.5t-6 -25.5v-56h-69v67q0 40 19.5 59.5t59.5 19.5h81z" />
    <glyph glyph-name="uni092E" unicode="&#x92e;" horiz-adv-x="519" 
d="M213 574h69v-387q0 -40 -19.5 -59.5t-59.5 -19.5h-89q-40 0 -59.5 19.5t-19.5 59.5v166q0 40 19.5 59.5t59.5 19.5h302v-59h-281q-19 0 -25 -5.5t-6 -25.5v-144q0 -19 6 -25t25 -6h47q20 0 25.5 6t5.5 25v376zM395 597h69v-597h-69v597zM-20 622h559v-59h-559v59z" />
    <glyph glyph-name="uni092F" unicode="&#x92f;" horiz-adv-x="428" 
d="M-40 622h488v-59h-488v59zM304 592h69v-592h-69v592zM215 394q0 -26 -8.5 -44t-26 -26.5t-44.5 -8.5h-32v-147q0 -19 6 -25t25 -6h135q20 0 27 7.5t7 26.5l11 -46q0 -27 -10 -37t-33 -10h-158q-40 0 -59.5 19.5t-19.5 59.5v217h80q20 0 25.5 6t5.5 25v126q0 21 -6.5 26.5
t-39.5 5.5l80 8q17 0 26 -7t9 -28v-142z" />
    <glyph glyph-name="uni0930" unicode="&#x930;" horiz-adv-x="331" 
d="M45 446h69v-356q0 -19 6 -25t25 -6h44q20 0 25.5 6t5.5 25v121h69v-132q0 -40 -19.5 -59.5t-59.5 -19.5h-86q-40 0 -59.5 19.5t-19.5 59.5v367zM-20 622h371v-59h-95v7q17 0 26 -6t9 -27v-173q0 -40 -19.5 -59.5t-59.5 -19.5h-120v59h99q20 0 25.5 6t5.5 25v157
q0 20 -5.5 25.5t-25.5 5.5h-211v59z" />
    <glyph glyph-name="uni0931" unicode="&#x931;" horiz-adv-x="331" 
d="M45 446h69v-356q0 -19 6 -25t25 -6h44q20 0 25.5 6t5.5 25v121h69v-132q0 -40 -19.5 -59.5t-59.5 -19.5h-86q-40 0 -59.5 19.5t-19.5 59.5v367zM-20 622h371v-59h-95v7q17 0 26 -6t9 -27v-173q0 -40 -19.5 -59.5t-59.5 -19.5h-120v59h99q20 0 25.5 6t5.5 25v157
q0 20 -5.5 25.5t-25.5 5.5h-211v59zM122 -71h73v-86h-73v86z" />
    <glyph glyph-name="uni0932" unicode="&#x932;" horiz-adv-x="488" 
d="M-20 622h528v-59h-528v59zM196 485q22 0 34 -10t13 -27h2q2 17 13 27t33 10h112v-59h-95q-19 0 -25 -5.5t-6 -25.5v-206h-69v206q0 20 -5.5 25.5t-25.5 5.5h-32q-19 0 -25 -5.5t-6 -25.5v-302q0 -19 6 -25t25 -6h61v-62h-82q-40 0 -59.5 19.5t-19.5 59.5v327
q0 40 19.5 59.5t59.5 19.5h72zM440 0h-69v592h69v-592z" />
    <glyph glyph-name="uni0933" unicode="&#x933;" horiz-adv-x="523" 
d="M-40 622h603v-59h-603v59zM323 592h69v-132h-69v132zM409 485q40 0 59.5 -19.5t19.5 -59.5v-249q0 -40 -19.5 -59.5t-59.5 -19.5h-99q-43 0 -46 37h-2q-3 -37 -47 -37h-101q-40 0 -59.5 19.5t-19.5 59.5v249q0 40 19.5 59.5t59.5 19.5h101q44 0 47 -37h2q3 37 46 37h99z
M419 395q0 20 -5.5 25.5t-25.5 5.5h-61q-19 0 -25 -5.5t-6 -25.5v-227q0 -19 6 -25t25 -6h61q20 0 25.5 6t5.5 25v227zM227 395q0 20 -5.5 25.5t-25.5 5.5h-61q-19 0 -25 -5.5t-6 -25.5v-227q0 -19 6 -25t25 -6h61q20 0 25.5 6t5.5 25v227zM121 28h73v-86h-73v86z" />
    <glyph glyph-name="uni0934" unicode="&#x934;" horiz-adv-x="523" 
d="M-40 622h603v-59h-603v59zM323 592h69v-132h-69v132zM409 485q40 0 59.5 -19.5t19.5 -59.5v-249q0 -40 -19.5 -59.5t-59.5 -19.5h-99q-43 0 -46 37h-2q-3 -37 -47 -37h-101q-40 0 -59.5 19.5t-19.5 59.5v249q0 40 19.5 59.5t59.5 19.5h101q44 0 47 -37h2q3 37 46 37h99z
M419 395q0 20 -5.5 25.5t-25.5 5.5h-61q-19 0 -25 -5.5t-6 -25.5v-227q0 -19 6 -25t25 -6h61q20 0 25.5 6t5.5 25v227zM227 395q0 20 -5.5 25.5t-25.5 5.5h-61q-19 0 -25 -5.5t-6 -25.5v-227q0 -19 6 -25t25 -6h61q20 0 25.5 6t5.5 25v227zM121 28h73v-86h-73v86z" />
    <glyph glyph-name="uni0935" unicode="&#x935;" horiz-adv-x="346" 
d="M-20 622h386v-59h-386v59zM222 594h69v-594h-69v594zM182 485v-59h-34q-19 0 -25 -5.5t-6 -25.5v-227q0 -19 6 -25t25 -6h40q20 0 27 7.5t7 26.5l11 -46q0 -27 -10 -37t-33 -10h-63q-40 0 -59.5 19.5t-19.5 59.5v249q0 40 19.5 59.5t59.5 19.5h55z" />
    <glyph glyph-name="uni0936" unicode="&#x936;" horiz-adv-x="496" 
d="M45 374h69v-284q0 -19 6 -25t25 -6h44q20 0 25.5 6t5.5 25v104h69v-115q0 -40 -19.5 -59.5t-59.5 -19.5h-86q-40 0 -59.5 19.5t-19.5 59.5v295zM212 623q40 0 59.5 -19.5t19.5 -59.5v-197q0 -40 -19.5 -59.5t-59.5 -19.5h-120v59h99q20 0 25.5 6t5.5 25v175
q0 20 -5.5 25.5t-25.5 5.5h-44q-19 0 -25 -5.5t-6 -25.5v-84h-69v95q0 40 19.5 59.5t59.5 19.5h86zM372 622h144v-59h-76v-563h-68v622z" />
    <glyph glyph-name="uni0937" unicode="&#x937;" horiz-adv-x="392" 
d="M-20 622h432v-59h-432v59zM55 591h65v-28l104 -217q24 -51 38 -86l14 -35l-4 39.5t-4 101.5v228h69v-594h-69v116l5 20l-109 229q-22 47 -35.5 78l-13.5 31l4.5 -34t4.5 -87v-185q0 -19 6 -25t25 -6h79q20 0 27 7.5t7 26.5l11 -46q0 -27 -10 -37t-33 -10h-102
q-40 0 -59.5 19.5t-19.5 59.5v434z" />
    <glyph glyph-name="uni0938" unicode="&#x938;" horiz-adv-x="508" 
d="M45 446h69v-356q0 -19 6 -25t25 -6h44q20 0 25.5 6t5.5 25v121h69v-132q0 -40 -19.5 -59.5t-59.5 -19.5h-86q-40 0 -59.5 19.5t-19.5 59.5v367zM-20 622h548v-59h-272v7q17 0 26 -6t9 -27v-133q0 -31 -5.5 -49t-27.5 -23l-24 12h164v-59h-306v59h99q20 0 25.5 6t5.5 25
v157q0 20 -5.5 25.5t-25.5 5.5h-211v59zM385 582h68v-582h-68v582z" />
    <glyph glyph-name="uni0939" unicode="&#x939;" horiz-adv-x="363" 
d="M-20 622h413v-59h-413v59zM239 485v95h69v-154h-153q-19 0 -25 -5.5t-6 -25.5v-49q0 -19 6 -25t25 -6h84q40 0 59.5 -19.5t19.5 -59.5v-62h-69v51q0 20 -5.5 25.5t-25.5 5.5h-63q-19 0 -25 -5.5t-6 -25.5v-135q0 -19 6 -25t25 -6h163v-59h-184q-40 0 -59.5 19.5
t-19.5 59.5v158q0 22 10 33.5t27 12.5v2q-17 2 -27 13.5t-10 33.5v74q0 40 19.5 59.5t59.5 19.5h105z" />
    <glyph glyph-name="uni093C" unicode="&#x93c;" horiz-adv-x="0" 
d="M-125 -71h73v-86h-73v86z" />
    <glyph glyph-name="uni093D" unicode="&#x93d;" horiz-adv-x="343" 
d="M280 563h-118q-19 0 -25 -5.5t-6 -25.5v-133q0 -19 6 -25t25 -6h52q40 0 59.5 -19.5t19.5 -59.5v-210q0 -40 -19.5 -59.5t-59.5 -19.5h-85q-40 0 -59.5 19.5t-19.5 59.5v86h69v-75q0 -19 6 -25t25 -6h43q20 0 25.5 6t5.5 25v188q0 20 -5.5 25.5t-25.5 5.5h-52
q-40 0 -59.5 19.5t-19.5 59.5v155q0 40 19.5 59.5t59.5 19.5h139v-59z" />
    <glyph glyph-name="uni093E" unicode="&#x93e;" horiz-adv-x="180" 
d="M56 582h68v-582h-68v582zM-19 622h218v-59h-218v59z" />
    <glyph glyph-name="uni093F" unicode="&#x93f;" 
d="M-20 622h219v-59h-219v59zM55 593h69v-593h-69v593zM387 813q40 0 59.5 -19.5t19.5 -59.5v-67h-69v56q0 20 -5 25.5t-26 5.5h-211q-19 0 -25 -5.5t-6 -25.5v-113h-69v124q0 40 19.5 59.5t59.5 19.5h253z" />
    <glyph glyph-name="uni0940" unicode="&#x940;" 
d="M199 622v-59h-219v59h219zM124 593v-593h-69v593h69zM45 813q40 0 59.5 -19.5t19.5 -59.5v-124h-69v113q0 20 -5.5 25.5t-25.5 5.5h-48q-21 0 -26 -5.5t-5 -25.5v-56h-69v67q0 40 19.5 59.5t59.5 19.5h90z" />
    <glyph glyph-name="uni0941" unicode="&#x941;" horiz-adv-x="0" 
d="M-36 1q40 0 59.5 -19.5t19.5 -59.5v-58q0 -40 -19.5 -59.5t-59.5 -19.5h-100q-35 0 -57.5 4.5t-38.5 19t-34 44.5l-37 64h82l26 -43q10 -16 23.5 -23t32.5 -7h82q20 0 25.5 6t5.5 25v36q0 20 -5.5 25.5t-25.5 5.5h-67v59h88z" />
    <glyph glyph-name="uni0942" unicode="&#x942;" horiz-adv-x="0" 
d="M-59 0q33 0 53 -5t35 -19t31 -41l93 -149h-83l-75 120q-10 16 -20.5 25.5t-29.5 9.5h-53q-19 0 -25 -5.5t-6 -25.5v-36q0 -19 6 -25t25 -6h55v-59h-76q-40 0 -59.5 19.5t-19.5 59.5v58q0 40 19.5 59.5t59.5 19.5h70z" />
    <glyph glyph-name="uni0943" unicode="&#x943;" horiz-adv-x="0" 
d="M-55 0v-59h-48q-19 0 -25 -5.5t-6 -25.5v-36q0 -19 6 -25t25 -6h89v-59h-110q-40 0 -59.5 19.5t-19.5 59.5v58q0 40 19.5 59.5t59.5 19.5h69z" />
    <glyph glyph-name="uni0944" unicode="&#x944;" horiz-adv-x="0" 
d="M-203 -79q0 40 19.5 59.5t59.5 19.5h69v-59h-48q-19 0 -25 -5.5t-6 -25.5v-36q0 -19 6 -25t25 -6h48v-59h-48q-19 0 -25 -5.5t-6 -25.5v-36q0 -19 6 -25t25 -6h89v-59h-110q-40 0 -59.5 19.5t-19.5 59.5v59q0 22 10 33.5t27 12.5v2q-17 2 -27 13.5t-10 33.5v61z" />
    <glyph glyph-name="uni0946" unicode="&#x946;" horiz-adv-x="0" 
d="M-303 767v0v46h69v-35q0 -20 6 -25.5t25 -5.5h69q79 0 79 -79v-84h-69v73q0 19 -6 25t-25 6h-69q-79 0 -79 79z" />
    <glyph glyph-name="uni0947" unicode="&#x947;" horiz-adv-x="0" 
d="M-202 813l143 -204h-69q-16 15 -39 43t-50 65l-68 96h83z" />
    <glyph glyph-name="uni0948" unicode="&#x948;" horiz-adv-x="0" 
d="M-346 813h91l42 -46q44 -48 69 -80.5t44 -64.5h4q-16 29 -29 62.5t-32 76.5l-22 52h74l47 -201h-66l-9 6.5t-27 21.5t-46 41z" />
    <glyph glyph-name="uni0949" unicode="&#x949;" horiz-adv-x="180" 
d="M56 582h68v-582h-68v582zM-19 622h218v-59h-218v59zM-39 791h64v-40q0 -19 6 -25t25 -6h68q20 0 25.5 6t5.5 25v40h64v-46q0 -40 -19.5 -59.5t-59.5 -19.5h-100q-40 0 -59.5 19.5t-19.5 59.5v46z" />
    <glyph glyph-name="uni094B" unicode="&#x94b;" horiz-adv-x="180" 
d="M56 582h68v-582h-68v582zM-19 622h218v-59h-218v59zM-20 813l143 -204h-69q-16 15 -39 43t-50 65l-68 96h83z" />
    <glyph glyph-name="uni094C" unicode="&#x94c;" horiz-adv-x="180" 
d="M56 582h68v-582h-68v582zM-19 622h218v-59h-218v59zM-165 813h91l42 -46q44 -48 69 -80.5t44 -64.5h4q-16 29 -29 62.5t-32 76.5l-22 52h74l47 -201h-66l-9 6.5t-27 21.5t-46 41z" />
    <glyph glyph-name="uni094D" unicode="&#x94d;" horiz-adv-x="0" 
d="M-64 -61l100 -130h-76l-100 130h76z" />
    <glyph glyph-name="uni0950" unicode="&#x950;" horiz-adv-x="600" 
d="M315 622h68v-69h-68v69zM251 485h157q20 0 25.5 6t5.5 25v40h64v-50q0 -40 -19.5 -60t-59.5 -20h-173v59zM192 622q40 0 59.5 -19.5t19.5 -59.5v-158q0 -27 -9.5 -38.5t-26.5 -11.5v6h239q40 0 59.5 -19.5t19.5 -59.5v-183q0 -40 -19.5 -59.5t-59.5 -19.5h-63
q-40 0 -59.5 19.5t-19.5 59.5v96h69v-85q0 -19 6 -25t25 -6h21q20 0 25.5 6t5.5 25v161q0 20 -5.5 25.5t-25.5 5.5h-218v6q17 0 26.5 -11.5t9.5 -38.5v-159q0 -40 -19.5 -59.5t-59.5 -19.5h-83q-40 0 -59.5 19.5t-19.5 59.5v96h69v-85q0 -19 6 -25t25 -6h41q20 0 25.5 6
t5.5 25v158q0 20 -7 27t-27 7h-68v59h68q20 0 27 7.5t7 26.5v157q0 20 -5.5 25.5t-25.5 5.5h-41q-19 0 -25 -5.5t-6 -25.5v-85h-69v96q0 40 19.5 59.5t59.5 19.5h83z" />
    <glyph glyph-name="uni0958" unicode="&#x958;" horiz-adv-x="507" 
d="M219 592h69v-592h-69v592zM179 485v-59h-34q-19 0 -25 -5.5t-6 -25.5v-227q0 -19 6 -25t25 -6h40q20 0 27 7.5t7 26.5l11 -46q0 -27 -10 -37t-33 -10h-63q-40 0 -59.5 19.5t-19.5 59.5v249q0 40 19.5 59.5t59.5 19.5h55zM383 485q40 0 59.5 -19.5t19.5 -59.5v-249
q0 -40 -19.5 -59.5t-59.5 -19.5h-55v59h34q20 0 25.5 6t5.5 25v227q0 20 -5.5 25.5t-25.5 5.5h-40q-19 0 -26.5 -7t-7.5 -27l-11 46q0 27 10.5 37t32.5 10h63zM-20 622h547v-59h-547v59zM52 30h73v-86h-73v86z" />
    <glyph glyph-name="uni0959" unicode="&#x959;" horiz-adv-x="584" 
d="M464 601h65v-601h-65v601zM434 471v-59h-42q-19 0 -25 -5.5t-6 -25.5v-172q0 -19 6 -25t25 -6h31q23 0 32 8.5t9 30.5l7 -51q0 -27 -10.5 -37t-33.5 -10h-52q-40 0 -59.5 19.5t-19.5 59.5v194q0 40 19.5 59.5t59.5 19.5h59zM48 471h69v-378q0 -19 6 -25t25 -6h213v-62
h-234q-40 0 -59.5 19.5t-19.5 59.5v392zM-20 622h624v-59h-387v7q17 0 26 -6t9 -27v-212q0 -40 -19.5 -59.5t-59.5 -19.5h-91v59h70q20 0 25.5 6t5.5 25v196q0 20 -5.5 25.5t-25.5 5.5h-172v59zM126 -62h73v-86h-73v86z" />
    <glyph glyph-name="uni095A" unicode="&#x95a;" horiz-adv-x="512" 
d="M388 599h69v-599h-69v599zM-20 622h552v-59h-552v59zM215 594h69v-437q0 -40 -19.5 -59.5t-59.5 -19.5h-91q-40 0 -59.5 19.5t-19.5 59.5v190q0 40 19.5 59.5t59.5 19.5h116v-59h-95q-19 0 -25 -5.5t-6 -25.5v-168q0 -19 6 -25t25 -6h49q20 0 25.5 6t5.5 25v426zM119 -1
h73v-86h-73v86z" />
    <glyph glyph-name="uni095B" unicode="&#x95b;" horiz-adv-x="490" 
d="M366 592h69v-592h-69v592zM-20 622h530v-59h-530v59zM45 485h69v-317q0 -19 6 -25t25 -6h34q20 0 25.5 6t5.5 25v317h194v-59h-125v-269q0 -40 -19.5 -59.5t-59.5 -19.5h-76q-40 0 -59.5 19.5t-19.5 59.5v328zM121 0h73v-86h-73v86z" />
    <glyph glyph-name="uni095C" unicode="&#x95c;" horiz-adv-x="351" 
d="M-20 622h391v-59h-391v59zM212 594h69v-168h-121q-19 0 -25 -5.5t-6 -25.5v-70q0 -19 6 -25t25 -6h52q40 0 59.5 -19.5t19.5 -59.5v-136q0 -40 -19.5 -59.5t-59.5 -19.5h-85q-40 0 -59.5 19.5t-19.5 59.5v86h69v-75q0 -19 6 -25t25 -6h43q20 0 25.5 6t5.5 25v114
q0 20 -5.5 25.5t-25.5 5.5h-52q-40 0 -59.5 19.5t-19.5 59.5v92q0 40 19.5 59.5t59.5 19.5h73v109zM129 -53h73v-86h-73v86z" />
    <glyph glyph-name="uni095D" unicode="&#x95d;" horiz-adv-x="377" 
d="M-20 622h417v-59h-417v59zM213 580h69v-154h-127q-19 0 -25 -5.5t-6 -25.5v-305q0 -19 6 -25t25 -6h67q20 0 25.5 6t5.5 25v103q0 20 -5.5 25.5t-25.5 5.5h-41v59h62q40 0 59.5 -19.5t19.5 -59.5v-125q0 -40 -19.5 -59.5t-59.5 -19.5h-109q-40 0 -59.5 19.5t-19.5 59.5
v327q0 40 19.5 59.5t59.5 19.5h79v95zM154 -53h73v-86h-73v86z" />
    <glyph glyph-name="uni095E" unicode="&#x95e;" horiz-adv-x="510" 
d="M222 592h69v-592h-69v592zM48 591h69v-423q0 -19 6 -25t25 -6h40q20 0 27 7.5t7 26.5l11 -46q0 -27 -10 -37t-33 -10h-63q-40 0 -59.5 19.5t-19.5 59.5v434zM386 485q40 0 59.5 -19.5t19.5 -59.5v-249q0 -40 -19.5 -59.5t-59.5 -19.5h-55v59h34q20 0 25.5 6t5.5 25v227
q0 20 -5.5 25.5t-25.5 5.5h-40q-19 0 -26.5 -7t-7.5 -27l-11 46q0 27 10.5 37t32.5 10h63zM-20 622h550v-59h-550v59zM97 1h73v-86h-73v86z" />
    <glyph glyph-name="uni0960" unicode="&#x960;" horiz-adv-x="618" 
d="M317 600v-600h-68v600h68zM-20 622h658v-59h-658v59zM42 485q37 0 59 -6t36 -20.5t27 -41.5l89 -177l-172 -240h-77l201 281l-6 -77l-81 164q-14 29 -29 42t-47 13h-37v62h37zM520 394q0 18 -4.5 25t-24.5 7h-8q-19 0 -24 -7t-5 -25v-99q0 -18 5 -25t24 -7h8q20 0 24.5 7
t4.5 25v99zM509 485q42 0 60.5 -21t18.5 -57v-126q0 -36 -18.5 -57t-60.5 -21h-28q-15 -1 -21 -6t-6 -25v-36q0 -19 6 -25t25 -6h43v-59h-43q-19 0 -25 -5.5t-6 -25.5v-36q0 -19 6 -25t25 -6h84v-59h-105q-40 0 -59.5 19.5t-19.5 59.5v59q0 22 10 33.5t27 12.5v2
q-17 2 -27 13.5t-10 33.5v50q0 22 12 30t33 4l14 -3h-229v60h227l-24 -12q-22 5 -27.5 23t-5.5 49v84q0 36 18.5 57t60.5 21h45z" />
    <glyph glyph-name="uni0961" unicode="&#x961;" horiz-adv-x="488" 
d="M-20 622h528v-59h-528v59zM196 485q22 0 34 -10t13 -27h2q2 17 13 27t33 10h112v-59h-95q-19 0 -25 -5.5t-6 -25.5v-137h-69v137q0 20 -5.5 25.5t-25.5 5.5h-32q-19 0 -25 -5.5t-6 -25.5v-302q0 -19 6 -25t25 -6h61v-62h-82q-40 0 -59.5 19.5t-19.5 59.5v327
q0 40 19.5 59.5t59.5 19.5h72zM292 171q0 40 19.5 59.5t59.5 19.5h69v-59h-48q-19 0 -25 -5.5t-6 -25.5v-36q0 -19 6 -25t25 -6h48v-59h-48q-19 0 -25 -5.5t-6 -25.5v-36q0 -19 6 -25t25 -6h89v-59h-110q-40 0 -59.5 19.5t-19.5 59.5v59q0 22 10 33.5t27 12.5v2
q-17 2 -27 13.5t-10 33.5v61zM371 582h69v-350h-69v350z" />
    <glyph glyph-name="uni0962" unicode="&#x962;" horiz-adv-x="0" 
d="M-182 10q21 0 23 -18h1q1 8 6.5 13t15.5 5h54v-34h-41q-9 0 -12 -2.5t-3 -11.5v-94h-43v94q0 9 -2.5 11.5t-12.5 2.5h-5q-10 0 -12.5 -2.5t-2.5 -11.5v-135q0 -10 2.5 -12.5t12.5 -2.5h24v-35h-44q-19 0 -28.5 9.5t-9.5 28.5v157q0 19 9.5 28.5t28.5 9.5h39zM-98 10h43
v-221h-23q-9 0 -12 -3t-3 -12v-8q0 -9 3 -11.5t12 -2.5h33v-34h-53q-19 0 -28.5 9.5t-9.5 28.5v28q0 19 9 28.5t28 9.5h1v188z" />
    <glyph glyph-name="uni0963" unicode="&#x963;" horiz-adv-x="0" 
d="M-25 -248v-34h-73q-19 0 -28.5 9.5t-9.5 28.5v25q0 11 5 16.5t13 6.5v1q-8 1 -13 6.5t-5 15.5v28q0 19 9 28.5t28 9.5h1v83h-30q-9 0 -12 -2.5t-3 -11.5v-74h-43v74q0 9 -2.5 11.5t-12.5 2.5h-10q-10 0 -12.5 -2.5t-2.5 -11.5v-135q0 -10 2.5 -12.5t12.5 -2.5h24v-35h-44
q-19 0 -28.5 9.5t-9.5 28.5v157q0 19 9.5 28.5t28.5 9.5h44q21 0 23 -18h1q1 8 6.5 13t15.5 5h86v-150h-23q-9 0 -12 -3t-3 -12v-8q0 -9 3 -11.5t12 -2.5h23v-34h-23q-9 0 -12 -3t-3 -12v-8q0 -9 3 -11.5t12 -2.5h53z" />
    <glyph glyph-name="uni0964" unicode="&#x964;" horiz-adv-x="324" 
d="M194 653v-684h-64v684h64z" />
    <glyph glyph-name="uni0965" unicode="&#x965;" horiz-adv-x="489" 
d="M194 653v-684h-64v684h64zM359 653v-684h-64v684h64z" />
    <glyph glyph-name="uni0966" unicode="&#x966;" horiz-adv-x="361" 
d="M311 543v-464q0 -40 -19.5 -59.5t-59.5 -19.5h-103q-40 0 -59.5 19.5t-19.5 59.5v464q0 40 19.5 59.5t59.5 19.5h103q40 0 59.5 -19.5t19.5 -59.5zM242 90v442q0 20 -5.5 25.5t-25.5 5.5h-61q-19 0 -25 -5.5t-6 -25.5v-442q0 -19 6 -25t25 -6h61q20 0 25.5 6t5.5 25z" />
    <glyph glyph-name="uni0967" unicode="&#x967;" horiz-adv-x="211" 
d="M115 622v-59h-95v59h95zM88 622h68v-622h-68v622z" />
    <glyph glyph-name="uni0968" unicode="&#x968;" horiz-adv-x="290" 
d="M93 532v-110h-68v121q0 40 19.5 59.5t59.5 19.5h77q40 0 59.5 -19.5t19.5 -59.5v-55q0 -37 -5.5 -66t-20.5 -64l-137 -299h168v-59h-239v58l142 311q14 32 18.5 59.5t4.5 63.5v40q0 20 -5.5 25.5t-25.5 5.5h-36q-19 0 -25 -5.5t-6 -25.5z" />
    <glyph glyph-name="uni0969" unicode="&#x969;" horiz-adv-x="322" 
d="M98 532v-102h-68v113q0 40 19.5 59.5t59.5 19.5h84q40 0 59.5 -19.5t19.5 -59.5v-179q0 -22 -10 -34t-27 -14q17 -3 27 -14t10 -33v-190q0 -40 -19.5 -59.5t-59.5 -19.5h-84q-40 0 -59.5 19.5t-19.5 59.5v112h68v-101q0 -19 6 -25t25 -6h44q20 0 25.5 6t5.5 25v164
q0 20 -5.5 25.5t-25.5 5.5h-73v60h73q20 0 25.5 6t5.5 25v156q0 20 -5.5 25.5t-25.5 5.5h-44q-19 0 -25 -5.5t-6 -25.5z" />
    <glyph glyph-name="uni096A" unicode="&#x96a;" horiz-adv-x="325" 
d="M38 127v59h287v-59h-287zM5 127v53l164 442h67l-183 -495h-48zM206 304h66v-304h-66v304z" />
    <glyph glyph-name="uni096B" unicode="&#x96b;" horiz-adv-x="321" 
d="M109 192v-102q0 -19 6 -25t25 -6h44q20 0 25.5 6t5.5 25v203q0 20 -5.5 25.5t-25.5 5.5h-101v59h122q40 0 59.5 -19.5t19.5 -59.5v-225q0 -40 -19.5 -59.5t-59.5 -19.5h-86q-40 0 -59.5 19.5t-19.5 59.5v113h69zM109 324h-69v298h244v-59h-175v-239z" />
    <glyph glyph-name="uni096C" unicode="&#x96c;" horiz-adv-x="352" 
d="M238 90v173q0 20 -5.5 25.5t-25.5 5.5h-113v59h134q40 0 59.5 -19.5t19.5 -59.5v-195q0 -40 -19.5 -59.5t-59.5 -19.5h-54v59h33q20 0 25.5 6t5.5 25zM119 532v-442q0 -19 6 -25t25 -6h33v-59h-54q-40 0 -59.5 19.5t-19.5 59.5v464q0 40 19.5 59.5t59.5 19.5h53v-59h-32
q-19 0 -25 -5.5t-6 -25.5zM238 426v106q0 20 -5.5 25.5t-25.5 5.5h-36v59h56q40 0 59.5 -19.5t19.5 -59.5v-117h-68z" />
    <glyph glyph-name="uni096D" unicode="&#x96d;" horiz-adv-x="256" 
d="M224 622v-59h-219v59h219zM251 622v-46l-161 -576h-68l171 622h58z" />
    <glyph glyph-name="uni096E" unicode="&#x96e;" horiz-adv-x="360" 
d="M118 252v-162q0 -19 6 -25t25 -6h31v-59h-51q-40 0 -59.5 19.5t-19.5 59.5v186q0 22 10 33t27 14q-17 2 -27 14t-10 34v183q0 40 19.5 59.5t59.5 19.5h54v-59h-34q-19 0 -25 -5.5t-6 -25.5v-158q0 -19 6 -25t25 -6h37v-60h-37q-19 0 -25 -5.5t-6 -25.5zM242 374v158
q0 20 -5.5 25.5t-25.5 5.5h-34v59h54q40 0 59.5 -19.5t19.5 -59.5v-183q0 -22 -10 -34t-27 -14q17 -3 27 -14t10 -33v-186q0 -40 -19.5 -59.5t-59.5 -19.5h-61v59h41q20 0 25.5 6t5.5 25v162q0 20 -5.5 25.5t-25.5 5.5h-37v60h37q20 0 25.5 6t5.5 25z" />
    <glyph glyph-name="uni096F" unicode="&#x96f;" horiz-adv-x="347" 
d="M109 532v-183q0 -19 6 -25t25 -6h113v-59h-134q-40 0 -59.5 19.5t-19.5 59.5v205q0 40 19.5 59.5t59.5 19.5h54v-59h-33q-19 0 -25 -5.5t-6 -25.5zM228 90v442q0 20 -5.5 25.5t-25.5 5.5h-33v59h54q40 0 59.5 -19.5t19.5 -59.5v-464q0 -40 -19.5 -59.5t-59.5 -19.5h-53
v59h32q20 0 25.5 6t5.5 25zM109 196v-106q0 -19 6 -25t25 -6h36v-59h-56q-40 0 -59.5 19.5t-19.5 59.5v117h68z" />
    <glyph glyph-name="uni0970" unicode="&#x970;" horiz-adv-x="353" 
d="M60 305q0 60 32 93t84 33q53 0 85 -33t32 -93t-32 -93t-85 -33q-52 0 -84 33t-32 93zM123 305q0 -34 13.5 -51.5t39.5 -17.5t40 17.5t14 51.5t-14 51.5t-40 17.5t-39.5 -17.5t-13.5 -51.5z" />
    <glyph glyph-name="uni200B" unicode="&#x200b;" horiz-adv-x="0" 
 />
    <glyph glyph-name="uni200C" unicode="&#x200c;" horiz-adv-x="0" 
d="M24 -230h-47v1041h47v-1041z" />
    <glyph glyph-name="uni200D" unicode="&#x200d;" horiz-adv-x="0" 
 />
    <glyph glyph-name="endash" unicode="&#x2013;" horiz-adv-x="370" 
d="M20 263v58h330v-58h-330z" />
    <glyph glyph-name="emdash" unicode="&#x2014;" horiz-adv-x="479" 
d="M0 263v58h479v-58h-479z" />
    <glyph glyph-name="quoteleft" unicode="&#x2018;" horiz-adv-x="142" 
d="M112 373h-82v58l55 191h27v-249z" />
    <glyph glyph-name="quoteright" unicode="&#x2019;" horiz-adv-x="142" 
d="M30 622h82v-58l-55 -191h-27v249z" />
    <glyph glyph-name="quotesinglbase" unicode="&#x201a;" horiz-adv-x="142" 
d="M30 112h82v-58l-55 -191h-27v249z" />
    <glyph glyph-name="quotedblleft" unicode="&#x201c;" horiz-adv-x="274" 
d="M244 373h-82v58l55 191h27v-249zM112 373h-82v58l55 191h27v-249z" />
    <glyph glyph-name="quotedblright" unicode="&#x201d;" horiz-adv-x="274" 
d="M30 622h82v-58l-55 -191h-27v249zM162 622h82v-58l-55 -191h-27v249z" />
    <glyph glyph-name="quotedblbase" unicode="&#x201e;" horiz-adv-x="274" 
d="M30 112h82v-58l-55 -191h-27v249zM162 112h82v-58l-55 -191h-27v249z" />
    <glyph glyph-name="dagger" unicode="&#x2020;" horiz-adv-x="338" 
d="M135 622h68v-732h-68v732zM333 458v-59h-328v59h328z" />
    <glyph glyph-name="daggerdbl" unicode="&#x2021;" horiz-adv-x="358" 
d="M145 622h68v-779h-68v779zM343 458v-59h-328v59h328zM343 66v-59h-328v59h328z" />
    <glyph glyph-name="bullet" unicode="&#x2022;" horiz-adv-x="396" 
d="M71 321q0 35 17 64t46 46t64 17t64 -17t46 -46t17 -64t-17 -64t-46 -46t-64 -17t-64 17t-46 46t-17 64z" />
    <glyph glyph-name="ellipsis" unicode="&#x2026;" horiz-adv-x="502" 
d="M55 0v107h92v-107h-92zM235 0v107h92v-107h-92zM415 0v107h92v-107h-92z" />
    <glyph glyph-name="perthousand" unicode="&#x2030;" horiz-adv-x="820" 
d="M221 551v-184q0 -37 -16 -54t-51 -17h-57q-34 0 -50.5 17t-16.5 54v184q0 37 16.5 54t50.5 17h57q35 0 51 -17t16 -54zM543 255v-184q0 -37 -16 -54t-51 -17h-57q-34 0 -50.5 17t-16.5 54v184q0 37 16.5 54t50.5 17h57q35 0 51 -17t16 -54zM165 376v166q0 19 -4.5 24.5
t-23.5 5.5h-23q-19 0 -23.5 -5.5t-4.5 -24.5v-166q0 -19 4.5 -24.5t23.5 -5.5h23q19 0 23.5 5.5t4.5 24.5zM487 80v166q0 19 -4.5 24.5t-23.5 5.5h-23q-19 0 -23.5 -5.5t-4.5 -24.5v-166q0 -19 4.5 -24.5t23.5 -5.5h23q19 0 23.5 5.5t4.5 24.5zM392 622h61l-273 -622h-60z
M790 255v-184q0 -37 -16 -54t-51 -17h-57q-34 0 -50.5 17t-16.5 54v184q0 37 16.5 54t50.5 17h57q35 0 51 -17t16 -54zM734 80v166q0 19 -4.5 24.5t-23.5 5.5h-23q-19 0 -23.5 -5.5t-4.5 -24.5v-166q0 -19 4.5 -24.5t23.5 -5.5h23q19 0 23.5 5.5t4.5 24.5z" />
    <glyph glyph-name="guilsinglleft" unicode="&#x2039;" horiz-adv-x="287" 
d="M164 106l-121 156l121 156h77l-124 -157l124 -155h-77z" />
    <glyph glyph-name="guilsinglright" unicode="&#x203a;" horiz-adv-x="289" 
d="M241 262l-121 -156h-77l124 155l-124 157h77z" />
    <glyph glyph-name="fraction" unicode="&#x2044;" horiz-adv-x="384" 
d="M272 699h68l-264 -835h-68z" />
    <glyph glyph-name="Euro" unicode="&#x20ac;" horiz-adv-x="368" 
d="M142 532v-443q0 -19 6 -25t25 -6h29v-59h-50q-40 0 -59.5 19.5t-19.5 59.5v465q0 40 19.5 59.5t59.5 19.5h57v-59h-36q-19 0 -25 -5.5t-6 -25.5zM259 438v94q0 20 -5.5 25.5t-25.5 5.5h-34v59h55q40 0 59.5 -19.5t19.5 -59.5v-105h-69zM259 89v94h69v-105
q0 -40 -19.5 -59.5t-59.5 -19.5h-55v59h34q20 0 25.5 6t5.5 25zM237 283v-59h-212v59h212zM237 398v-58h-212v58h212z" />
    <glyph glyph-name="uni20B9" unicode="&#x20b9;" horiz-adv-x="343" 
d="M293 471v-59h-253v59h253zM293 622v-59h-253v59h253zM140 585q40 0 61.5 -5.5t30 -18.5t8.5 -38v-183q0 -40 -19.5 -59.5t-59.5 -19.5h-95l23 39l172 -300h-74l-147 261v59h100q20 0 25.5 6t5.5 25v181q0 20 -5.5 25.5t-25.5 5.5v22z" />
    <glyph glyph-name="uni20BA" unicode="&#x20ba;" horiz-adv-x="336" 
d="M219 302h69v-223q0 -40 -19.5 -59.5t-59.5 -19.5h-123l-17 59h119q20 0 25.5 6t5.5 25v212zM45 669h69v-609v-7v-53h-69v669zM205 472v-59l-238 -110v59zM205 592v-59l-238 -110v59z" />
    <glyph glyph-name="uni2113" unicode="&#x2113;" horiz-adv-x="434" 
d="M278 512h-4q-19 0 -25 -5.5t-6 -25.5v-391q0 -19 6 -25t25 -6h81v-59h-102q-40 0 -59.5 19.5t-19.5 59.5v413q0 40 19.5 59.5t59.5 19.5h46q26 0 41 -9t21.5 -24.5t6.5 -34.5q0 -28 -11 -54.5t-31 -50.5l-260 -319v84l203 256q11 13 21 33t10 36q0 10 -4.5 17t-17.5 7z
" />
    <glyph glyph-name="trademark" unicode="&#x2122;" horiz-adv-x="598" 
d="M85 622h68v-322h-68v322zM233 622v-59h-228v59h228zM271 622h87l62 -186l60 186h88v-322h-63v221l-52 -163h-65l-54 164v-222h-63v322z" />
    <glyph glyph-name="uni03A9.math" unicode="&#x2126;" horiz-adv-x="370" 
d="M247 141v391q0 20 -5.5 25.5t-25.5 5.5h-34v59h54q40 0 59.5 -19.5t19.5 -59.5v-402h-68zM247 90v101h68v-82q0 -40 -19.5 -49.5t-59.5 -9.5h-31v9h11q20 0 25.5 6t5.5 25zM123 532v-392h-68v403q0 40 19.5 59.5t59.5 19.5h54v-59h-34q-19 0 -25 -5.5t-6 -25.5zM123 199
v-109q0 -19 6 -25t25 -6h11v-9h-31q-40 0 -59.5 9.5t-19.5 49.5v90h68zM360 59v-59h-158v59h158zM168 59v-59h-158v59h158z" />
    <glyph glyph-name="estimated" unicode="&#x212e;" horiz-adv-x="603" 
d="M138 234h444v6q0 69 -37 125t-99.5 89.5t-138.5 33.5q-56 0 -105.5 -19.5t-87 -53.5t-59 -79t-21.5 -96t21.5 -95t59 -78t87 -53t105.5 -19q68 0 124 26t93 69h-39q-32 -37 -78 -59t-99 -22q-49 0 -92 19.5t-76 53.5q-5 7 -5 15v135q0 2 3 2zM481 387v-135q0 -5 -3 -5
h-340q-3 0 -3 5v132q0 10 6 17q33 32 75.5 52t91.5 20t91.5 -19t75.5 -51q6 -6 6 -16z" />
    <glyph glyph-name="product" unicode="&#x220f;" horiz-adv-x="408" 
d="M70 95v497h69v-513q0 -40 -19.5 -59.5t-59.5 -19.5h-50v64h29q20 0 25.5 6t5.5 25zM285 592h68v-592h-68v592zM353 622v-59h-283v59h283z" />
    <glyph glyph-name="minus" unicode="&#x2212;" horiz-adv-x="380" 
d="M25 281v60h330v-60h-330z" />
    <glyph glyph-name="uni2215" unicode="&#x2215;" horiz-adv-x="384" 
d="M272 699h68l-264 -835h-68z" />
    <glyph glyph-name="uni2219" unicode="&#x2219;" horiz-adv-x="142" 
d="M30 255v112h82v-112h-82z" />
    <glyph glyph-name="radical" unicode="&#x221a;" horiz-adv-x="645" 
d="M135 250h68l89 -309l230 758h68l-264 -835h-68zM178 250v-59h-103v59h103z" />
    <glyph glyph-name="infinity" unicode="&#x221e;" horiz-adv-x="586" 
d="M145 212l10 54h22q15 0 28.5 9.5t20.5 20.5l86 126q17 25 28.5 38.5t27 18.5t44.5 5h13v-53h-27q-13 0 -20 -7t-16 -19l-74 -117q-20 -31 -36 -47.5t-37.5 -22.5t-57.5 -6h-12zM165 266l-13 -54h-25q-41 0 -59 20.5t-18 55.5v121q0 34 18 54.5t59 20.5h37v-54h-18
q-22 0 -27 -8t-5 -27v-94q0 -19 5 -27t27 -8h19zM301 380l-40 -40l-42 58q-12 17 -22 24.5t-31 7.5h-11v54h8q28 0 44.5 -4.5t28.5 -16t28 -33.5zM285 305l35 44l50 -64q8 -10 16 -14.5t24 -4.5h20v-54h-11q-28 0 -45.5 4t-30.5 15.5t-30 34.5zM427 212v54h13q22 0 27 8
t5 27v95q0 19 -5 27t-27 8h-16v53h34q42 0 60 -20.5t18 -54.5v-121q0 -35 -18 -55.5t-60 -20.5h-31z" />
    <glyph glyph-name="integral" unicode="&#x222b;" horiz-adv-x="243" 
d="M156 639v-676q0 -40 -19.5 -59.5t-59.5 -19.5h-67v64h46q20 0 24.5 6t6.5 25v676q0 40 19.5 59.5t59.5 19.5h67v-64h-46q-19 0 -25 -5.5t-6 -25.5z" />
    <glyph glyph-name="approxequal" unicode="&#x2248;" horiz-adv-x="472" 
d="M317 386q-36 0 -57.5 12.5t-37.5 28.5t-33.5 28.5t-43.5 12.5q-19 0 -24.5 -9t-5.5 -25v-47h-64v60q0 35 18 55.5t59 20.5h29q30 0 50.5 -12.5t37 -28.5t36 -28.5t49.5 -12.5q18 0 22.5 9t4.5 26v46h64v-60q0 -34 -18 -55t-60 -21h-26zM317 216q-36 0 -57.5 12.5
t-37.5 28.5t-33.5 28.5t-43.5 12.5q-19 0 -24.5 -9t-5.5 -25v-47h-64v60q0 35 18 55.5t59 20.5h29q30 0 50.5 -12.5t37 -28.5t36 -28.5t49.5 -12.5q18 0 22.5 9t4.5 26v46h64v-60q0 -34 -18 -55t-60 -21h-26z" />
    <glyph glyph-name="notequal" unicode="&#x2260;" horiz-adv-x="474" 
d="M424 208h-374v58h374v-58zM424 364h-374v58h374v-58zM170 108h-55l189 408h55z" />
    <glyph glyph-name="lessequal" unicode="&#x2264;" horiz-adv-x="434" 
d="M374 444l-252 -88l252 -90v-65l-334 132v50l334 125v-64zM374 165v-57h-334v57h334z" />
    <glyph glyph-name="greaterequal" unicode="&#x2265;" horiz-adv-x="434" 
d="M302 356l-252 88v64l334 -125v-50l-334 -132v65zM50 108v57h334v-57h-334z" />
    <glyph glyph-name="lozenge" unicode="&#x25ca;" horiz-adv-x="446" 
d="M415 311h-72l-111 242l-112 -242h-72l155 311h57zM343 311h72l-155 -311h-57l-155 311h72l112 -241z" />
    <glyph glyph-name="uni25CC" unicode="&#x25cc;" horiz-adv-x="660" 
d="M139 517q0 19 12.5 31.5t31.5 12.5q20 0 32 -12.5t12 -31.5t-12 -32t-32 -13q-19 0 -31.5 13t-12.5 32zM57 407q0 19 13.5 31.5t32.5 12.5q18 0 31 -12.5t13 -31.5t-13 -31.5t-31 -12.5q-19 0 -32.5 12.5t-13.5 31.5zM44 281q0 20 12.5 32.5t31.5 12.5q20 0 32 -12.5
t12 -32.5q0 -19 -12 -31t-32 -12q-19 0 -31.5 12t-12.5 31zM96 165q0 19 12.5 31.5t31.5 12.5t31.5 -12.5t12.5 -31.5t-12.5 -31.5t-31.5 -12.5t-31.5 12.5t-12.5 31.5zM197 90q0 18 13 31t32 13t31.5 -13t12.5 -31q0 -19 -12.5 -32.5t-31.5 -13.5t-32 13.5t-13 32.5z
M324 74q0 20 12.5 32t31.5 12q20 0 32.5 -12t12.5 -32q0 -19 -12.5 -31.5t-32.5 -12.5q-19 0 -31.5 12.5t-12.5 31.5zM445 127q0 19 12.5 31.5t31.5 12.5t32 -12.5t13 -31.5t-13 -31.5t-32 -12.5t-31.5 12.5t-12.5 31.5zM518 225q0 20 13 32.5t32 12.5q18 0 30.5 -12.5
t12.5 -32.5q0 -19 -12.5 -31.5t-30.5 -12.5q-19 0 -32 12.5t-13 31.5zM528 359q0 20 12.5 32t31.5 12t31.5 -12t12.5 -32q0 -19 -12.5 -31.5t-31.5 -12.5t-31.5 12.5t-12.5 31.5zM478 477q0 20 12.5 32.5t31.5 12.5q20 0 32 -12.5t12 -32.5q0 -19 -12 -31.5t-32 -12.5
q-19 0 -31.5 12.5t-12.5 31.5zM383 545q0 20 13 32.5t32 12.5t31 -12.5t12 -32.5q0 -18 -12 -31t-31 -13t-32 13t-13 31zM257 560q0 20 12.5 32t31.5 12q20 0 32 -12t12 -32q0 -19 -12 -31.5t-32 -12.5q-19 0 -31.5 12.5t-12.5 31.5z" />
    <glyph glyph-name="uni200D.1" unicode="&#xfeff;" horiz-adv-x="0" 
 />
    <glyph glyph-name="uni093F.01" 
d="M382 813q40 0 59.5 -19.5t19.5 -59.5v-67h-69v56q0 20 -5.5 25.5t-25.5 5.5h-206q-19 0 -25 -5.5t-6 -25.5v-101h75v-59h-75v-563h-69v563h-75v59h75v112q0 40 19.5 59.5t59.5 19.5h248z" />
    <glyph glyph-name="uni093F.02" 
d="M404 813q40 0 59.5 -19.5t19.5 -59.5v-67h-69v56q0 20 -5.5 25.5t-25.5 5.5h-228q-19 0 -25 -5.5t-6 -25.5v-101h75v-59h-75v-563h-69v563h-75v59h75v112q0 40 19.5 59.5t59.5 19.5h270z" />
    <glyph glyph-name="uni093F.03" 
d="M425 813q40 0 59.5 -19.5t19.5 -59.5v-67h-69v56q0 20 -5.5 25.5t-25.5 5.5h-249q-19 0 -25 -5.5t-6 -25.5v-101h75v-59h-75v-563h-69v563h-75v59h75v112q0 40 19.5 59.5t59.5 19.5h291z" />
    <glyph glyph-name="uni093F.04" 
d="M447 813q40 0 59.5 -19.5t19.5 -59.5v-67h-69v56q0 20 -5.5 25.5t-25.5 5.5h-271q-19 0 -25 -5.5t-6 -25.5v-101h75v-59h-75v-563h-69v563h-75v59h75v112q0 40 19.5 59.5t59.5 19.5h313z" />
    <glyph glyph-name="uni093F.05" 
d="M468 813q40 0 59.5 -19.5t19.5 -59.5v-67h-69v56q0 20 -5.5 25.5t-25.5 5.5h-292q-19 0 -25 -5.5t-6 -25.5v-101h75v-59h-75v-563h-69v563h-75v59h75v112q0 40 19.5 59.5t59.5 19.5h334z" />
    <glyph glyph-name="uni093F.06" 
d="M490 813q40 0 59.5 -19.5t19.5 -59.5v-67h-69v56q0 20 -5.5 25.5t-25.5 5.5h-314q-19 0 -25 -5.5t-6 -25.5v-101h75v-59h-75v-563h-69v563h-75v59h75v112q0 40 19.5 59.5t59.5 19.5h356z" />
    <glyph glyph-name="uni093F.08" 
d="M533 813q40 0 59.5 -19.5t19.5 -59.5v-67h-69v56q0 20 -5.5 25.5t-25.5 5.5h-357q-19 0 -25 -5.5t-6 -25.5v-101h75v-59h-75v-563h-69v563h-75v59h75v112q0 40 19.5 59.5t59.5 19.5h399z" />
    <glyph glyph-name="uni093F.09" 
d="M555 813q40 0 59.5 -19.5t19.5 -59.5v-67h-69v56q0 20 -5.5 25.5t-25.5 5.5h-379q-19 0 -25 -5.5t-6 -25.5v-101h75v-59h-75v-563h-69v563h-75v59h75v112q0 40 19.5 59.5t59.5 19.5h421z" />
    <glyph glyph-name="uni093F.10" 
d="M576 813q40 0 59.5 -19.5t19.5 -59.5v-67h-69v56q0 20 -5.5 25.5t-25.5 5.5h-400q-19 0 -25 -5.5t-6 -25.5v-101h75v-59h-75v-563h-69v563h-75v59h75v112q0 40 19.5 59.5t59.5 19.5h442z" />
    <glyph glyph-name="uni093F.11" 
d="M598 813q40 0 59.5 -19.5t19.5 -59.5v-67h-69v56q0 20 -5.5 25.5t-25.5 5.5h-422q-19 0 -25 -5.5t-6 -25.5v-101h75v-59h-75v-563h-69v563h-75v59h75v112q0 40 19.5 59.5t59.5 19.5h464z" />
    <glyph glyph-name="uni093F.12" 
d="M619 813q40 0 59.5 -19.5t19.5 -59.5v-67h-69v56q0 20 -5.5 25.5t-25.5 5.5h-443q-19 0 -25 -5.5t-6 -25.5v-101h75v-59h-75v-563h-69v563h-75v59h75v112q0 40 19.5 59.5t59.5 19.5h485z" />
    <glyph glyph-name="uni093F.13" 
d="M641 813q40 0 59.5 -19.5t19.5 -59.5v-67h-69v56q0 20 -5.5 25.5t-25.5 5.5h-465q-19 0 -25 -5.5t-6 -25.5v-101h75v-59h-75v-563h-69v563h-75v59h75v112q0 40 19.5 59.5t59.5 19.5h507z" />
    <glyph glyph-name="uni093F.14" 
d="M662 813q40 0 59.5 -19.5t19.5 -59.5v-67h-69v56q0 20 -5.5 25.5t-25.5 5.5h-486q-19 0 -25 -5.5t-6 -25.5v-101h75v-59h-75v-563h-69v563h-75v59h75v112q0 40 19.5 59.5t59.5 19.5h528z" />
    <glyph glyph-name="uni093F.15" 
d="M684 813q40 0 59.5 -19.5t19.5 -59.5v-67h-69v56q0 20 -5.5 25.5t-25.5 5.5h-508q-19 0 -25 -5.5t-6 -25.5v-101h75v-59h-75v-563h-69v563h-75v59h75v112q0 40 19.5 59.5t59.5 19.5h550z" />
    <glyph glyph-name="uni093F.16" 
d="M706 813q40 0 59.5 -19.5t19.5 -59.5v-67h-69v56q0 20 -5.5 25.5t-25.5 5.5h-530q-19 0 -25 -5.5t-6 -25.5v-101h75v-59h-75v-563h-69v563h-75v59h75v112q0 40 19.5 59.5t59.5 19.5h572z" />
    <glyph glyph-name="uni093F.17" 
d="M727 813q40 0 59.5 -19.5t19.5 -59.5v-67h-69v56q0 20 -5.5 25.5t-25.5 5.5h-551q-19 0 -25 -5.5t-6 -25.5v-101h75v-59h-75v-563h-69v563h-75v59h75v112q0 40 19.5 59.5t59.5 19.5h593z" />
    <glyph glyph-name="uni093F.18" 
d="M749 813q40 0 59.5 -19.5t19.5 -59.5v-67h-69v56q0 20 -5.5 25.5t-25.5 5.5h-573q-19 0 -25 -5.5t-6 -25.5v-101h75v-59h-75v-563h-69v563h-75v59h75v112q0 40 19.5 59.5t59.5 19.5h615z" />
    <glyph glyph-name="uni093F.19" 
d="M770 813q40 0 59.5 -19.5t19.5 -59.5v-67h-69v56q0 20 -5.5 25.5t-25.5 5.5h-594q-19 0 -25 -5.5t-6 -25.5v-101h75v-59h-75v-563h-69v563h-75v59h75v112q0 40 19.5 59.5t59.5 19.5h636z" />
    <glyph glyph-name="uni093F.20" 
d="M792 813q40 0 59.5 -19.5t19.5 -59.5v-67h-69v56q0 20 -5.5 25.5t-25.5 5.5h-616q-19 0 -25 -5.5t-6 -25.5v-101h75v-59h-75v-563h-69v563h-75v59h75v112q0 40 19.5 59.5t59.5 19.5h658z" />
    <glyph glyph-name="uni093F.21" 
d="M813 813q40 0 59.5 -19.5t19.5 -59.5v-67h-69v56q0 20 -5.5 25.5t-25.5 5.5h-637q-19 0 -25 -5.5t-6 -25.5v-101h75v-59h-75v-563h-69v563h-75v59h75v112q0 40 19.5 59.5t59.5 19.5h679z" />
    <glyph glyph-name="uni093F.22" 
d="M835 813q40 0 59.5 -19.5t19.5 -59.5v-67h-69v56q0 20 -5.5 25.5t-25.5 5.5h-659q-19 0 -25 -5.5t-6 -25.5v-101h75v-59h-75v-563h-69v563h-75v59h75v112q0 40 19.5 59.5t59.5 19.5h701z" />
    <glyph glyph-name="uni093F.23" 
d="M857 813q40 0 59.5 -19.5t19.5 -59.5v-67h-69v56q0 20 -5.5 25.5t-25.5 5.5h-681q-19 0 -25 -5.5t-6 -25.5v-101h75v-59h-75v-563h-69v563h-75v59h75v112q0 40 19.5 59.5t59.5 19.5h723z" />
    <glyph glyph-name="uni093F.24" 
d="M878 813q40 0 59.5 -19.5t19.5 -59.5v-67h-69v56q0 20 -5.5 25.5t-25.5 5.5h-702q-19 0 -25 -5.5t-6 -25.5v-101h75v-59h-75v-563h-69v563h-75v59h75v112q0 40 19.5 59.5t59.5 19.5h744z" />
    <glyph glyph-name="uni093F.25" 
d="M900 813q40 0 59.5 -19.5t19.5 -59.5v-67h-69v56q0 20 -5.5 25.5t-25.5 5.5h-724q-19 0 -25 -5.5t-6 -25.5v-101h75v-59h-75v-563h-69v563h-75v59h75v112q0 40 19.5 59.5t59.5 19.5h766z" />
    <glyph glyph-name="uni093F.26" 
d="M921 813q40 0 59.5 -19.5t19.5 -59.5v-67h-69v56q0 20 -5.5 25.5t-25.5 5.5h-745q-19 0 -25 -5.5t-6 -25.5v-101h75v-59h-75v-563h-69v563h-75v59h75v112q0 40 19.5 59.5t59.5 19.5h787z" />
    <glyph glyph-name="uni093F.27" 
d="M943 813q40 0 59.5 -19.5t19.5 -59.5v-67h-69v56q0 20 -5.5 25.5t-25.5 5.5h-767q-19 0 -25 -5.5t-6 -25.5v-101h75v-59h-75v-563h-69v563h-75v59h75v112q0 40 19.5 59.5t59.5 19.5h809z" />
    <glyph glyph-name="uni093F.28" 
d="M964 813q40 0 59.5 -19.5t19.5 -59.5v-67h-69v56q0 20 -5.5 25.5t-25.5 5.5h-788q-19 0 -25 -5.5t-6 -25.5v-101h75v-59h-75v-563h-69v563h-75v59h75v112q0 40 19.5 59.5t59.5 19.5h830z" />
    <glyph glyph-name="uni093F.29" 
d="M986 813q40 0 59.5 -19.5t19.5 -59.5v-67h-69v56q0 20 -5.5 25.5t-25.5 5.5h-810q-19 0 -25 -5.5t-6 -25.5v-101h75v-59h-75v-563h-69v563h-75v59h75v112q0 40 19.5 59.5t59.5 19.5h852z" />
    <glyph glyph-name="uni093F.30" 
d="M1008 813q40 0 59.5 -19.5t19.5 -59.5v-67h-69v56q0 20 -5.5 25.5t-25.5 5.5h-832q-19 0 -25 -5.5t-6 -25.5v-101h75v-59h-75v-563h-69v563h-75v59h75v112q0 40 19.5 59.5t59.5 19.5h874z" />
    <glyph glyph-name="uni093F.31" 
d="M1029 813q40 0 59.5 -19.5t19.5 -59.5v-67h-69v56q0 20 -5.5 25.5t-25.5 5.5h-853q-19 0 -25 -5.5t-6 -25.5v-101h75v-59h-75v-563h-69v563h-75v59h75v112q0 40 19.5 59.5t59.5 19.5h895z" />
    <glyph glyph-name="uni093F.32" 
d="M1051 813q40 0 59.5 -19.5t19.5 -59.5v-67h-69v56q0 20 -5.5 25.5t-25.5 5.5h-875q-19 0 -25 -5.5t-6 -25.5v-101h75v-59h-75v-563h-69v563h-75v59h75v112q0 40 19.5 59.5t59.5 19.5h917z" />
    <glyph glyph-name="uni093F.33" 
d="M1072 813q40 0 59.5 -19.5t19.5 -59.5v-67h-69v56q0 20 -5.5 25.5t-25.5 5.5h-896q-19 0 -25 -5.5t-6 -25.5v-101h75v-59h-75v-563h-69v563h-75v59h75v112q0 40 19.5 59.5t59.5 19.5h938z" />
    <glyph glyph-name="uni093F.35" 
d="M1115 813q40 0 59.5 -19.5t19.5 -59.5v-67h-69v56q0 20 -5.5 25.5t-25.5 5.5h-939q-19 0 -25 -5.5t-6 -25.5v-101h75v-59h-75v-563h-69v563h-75v59h75v112q0 40 19.5 59.5t59.5 19.5h981z" />
    <glyph glyph-name="uni093F.36" 
d="M1137 813q40 0 59.5 -19.5t19.5 -59.5v-67h-69v56q0 20 -5.5 25.5t-25.5 5.5h-961q-19 0 -25 -5.5t-6 -25.5v-101h75v-59h-75v-563h-69v563h-75v59h75v112q0 40 19.5 59.5t59.5 19.5h1003z" />
    <glyph glyph-name="uni093F.37" 
d="M1159 813q40 0 59.5 -19.5t19.5 -59.5v-67h-69v56q0 20 -5.5 25.5t-25.5 5.5h-983q-19 0 -25 -5.5t-6 -25.5v-101h75v-59h-75v-563h-69v563h-75v59h75v112q0 40 19.5 59.5t59.5 19.5h1025z" />
    <glyph glyph-name="uni093F.38" 
d="M1180 813q40 0 59.5 -19.5t19.5 -59.5v-67h-69v56q0 20 -5.5 25.5t-25.5 5.5h-1004q-19 0 -25 -5.5t-6 -25.5v-101h75v-59h-75v-563h-69v563h-75v59h75v112q0 40 19.5 59.5t59.5 19.5h1046z" />
    <glyph glyph-name="uni093F.47" 
d="M1374 813q40 0 59.5 -19.5t19.5 -59.5v-67h-69v56q0 20 -5.5 25.5t-25.5 5.5h-1198q-19 0 -25 -5.5t-6 -25.5v-101h75v-59h-75v-563h-69v563h-75v59h75v112q0 40 19.5 59.5t59.5 19.5h1240z" />
    <glyph glyph-name="uni093F.50" 
d="M1439 813q40 0 59.5 -19.5t19.5 -59.5v-67h-69v56q0 20 -5.5 25.5t-25.5 5.5h-1263q-19 0 -25 -5.5t-6 -25.5v-101h75v-59h-75v-563h-69v563h-75v59h75v112q0 40 19.5 59.5t59.5 19.5h1305z" />
    <glyph glyph-name="uni0940.02" 
d="M55 593h69v-593h-69v593zM-20 622h219v-59h-219v59zM45 813q40 0 59.5 -19.5t19.5 -59.5v-124h-69v113q0 20 -5.5 25.5t-25.5 5.5h-210q-21 0 -26 -5.5t-5 -25.5v-56h-69v67q0 40 19.5 59.5t59.5 19.5h252z" />
    <glyph glyph-name="uni092C094D" horiz-adv-x="205" 
d="M296 622v-59h-316v59h316zM129 78q-40 0 -59.5 19.5t-19.5 59.5v249q0 40 19.5 59.5t59.5 19.5h91v-59h-76l76 -140q10 -18 23 -45t25 -54l20 -45l8 -18v-46h-167zM119 168q0 -19 6 -25t25 -6h101l-81 151q-27 51 -39 79l-12 28v-227z" />
    <glyph glyph-name="uni092D094D" horiz-adv-x="355" 
d="M213 622q40 0 59.5 -19.5t19.5 -59.5v-386q0 -40 -19.5 -59.5t-59.5 -19.5h-89q-40 0 -59.5 19.5t-19.5 59.5v165q0 40 19.5 59.5t59.5 19.5h321v-59h-300q-19 0 -25 -5.5t-6 -25.5v-143q0 -19 6 -25t25 -6h47q20 0 25.5 6t5.5 25v364q0 20 -5.5 25.5t-25.5 5.5h-39
q-19 0 -25 -5.5t-6 -25.5v-56h-69v67q0 40 19.5 59.5t59.5 19.5h81z" />
    <glyph glyph-name="uni091A094D" horiz-adv-x="207" 
d="M296 622v-59h-316v59h316zM209 485v-59h-41q-19 0 -25 -5.5t-6 -25.5v-227q0 -19 6 -25t25 -6h128v-59h-149q-40 0 -59.5 19.5t-19.5 59.5v243q0 21 9.5 27t25.5 6v-7h-98v59h204z" />
    <glyph glyph-name="uni091B094D" horiz-adv-x="501" 
d="M521 622v-59h-541v59h541zM55 537q0 27 15 30.5t41 1.5l74 -7q-40 2 -50.5 -1t-10.5 -29v-163q0 -19 6 -25t25 -6h37v-59h-37q-19 0 -25 -5.5t-6 -25.5v-158q0 -19 6 -25t25 -6h203q20 0 25.5 6t5.5 25v305q0 20 -5.5 25.5t-25.5 5.5h-20q-19 0 -25 -5.5t-6 -25.5v-132
q0 -19 6 -25t25 -6h20v-59h-36q-40 0 -59.5 19.5t-19.5 59.5v154q0 40 19.5 59.5t59.5 19.5h52q40 0 59.5 -19.5t19.5 -59.5v-327q0 -40 -19.5 -59.5t-59.5 -19.5h-240q-40 0 -59.5 19.5t-19.5 59.5v181q0 22 10 33.5t27 12.5v2q-17 2 -27 13.5t-10 33.5v182z" />
    <glyph glyph-name="uni0926094D" horiz-adv-x="377" 
d="M-20 622h387v-59h-387v59zM223 580h69v-154h-137q-19 0 -25 -5.5t-6 -25.5v-227q0 -19 6 -25t25 -6h41q20 0 27 7.5t7 26.5l11 -46q0 -27 -10 -37t-33 -10h-64q-40 0 -59.5 19.5t-19.5 59.5v249q0 40 19.5 59.5t59.5 19.5h89v95zM230 266h69v-266h-69v266zM297 -61
l100 -130h-76l-100 130h76z" />
    <glyph glyph-name="uni0921094D" horiz-adv-x="351" 
d="M-20 622h391v-59h-391v59zM212 594h69v-168h-121q-19 0 -25 -5.5t-6 -25.5v-70q0 -19 6 -25t25 -6h52q40 0 59.5 -19.5t19.5 -59.5v-136q0 -40 -19.5 -59.5t-59.5 -19.5h-85q-40 0 -59.5 19.5t-19.5 59.5v86h69v-75q0 -19 6 -25t25 -6h43q20 0 25.5 6t5.5 25v114
q0 20 -5.5 25.5t-25.5 5.5h-52q-40 0 -59.5 19.5t-19.5 59.5v92q0 40 19.5 59.5t59.5 19.5h73v109zM207 -61l100 -130h-76l-100 130h76z" />
    <glyph glyph-name="uni0922094D" horiz-adv-x="377" 
d="M-20 622h417v-59h-417v59zM213 580h69v-154h-127q-19 0 -25 -5.5t-6 -25.5v-305q0 -19 6 -25t25 -6h67q20 0 25.5 6t5.5 25v103q0 20 -5.5 25.5t-25.5 5.5h-41v59h62q40 0 59.5 -19.5t19.5 -59.5v-125q0 -40 -19.5 -59.5t-59.5 -19.5h-109q-40 0 -59.5 19.5t-19.5 59.5
v327q0 40 19.5 59.5t59.5 19.5h79v95zM207 -61l100 -130h-76l-100 130h76z" />
    <glyph glyph-name="uni0927094D" horiz-adv-x="330" 
d="M141 404q0 -19 6 -25t25 -6h68v-59h-68q-19 0 -25 -5.5t-6 -25.5v-115q0 -19 6 -25t25 -6h249v-59h-270q-40 0 -59.5 19.5t-19.5 59.5v138q0 22 10 33.5t27 12.5v2q-17 2 -27 13.5t-10 33.5v158q0 40 19.5 59.5t59.5 19.5h35q40 0 59.5 -19.5t19.5 -59.5v-56h-52v45
q0 20 -5.5 25.5t-25.5 5.5h-10q-19 0 -25 -5.5t-6 -25.5v-133z" />
    <glyph glyph-name="uni095E094D" horiz-adv-x="410" 
d="M291 592v-592h-69v592h69zM117 591v-423q0 -19 6 -25t25 -6h40q20 0 27 7.5t7 26.5l11 -46q0 -27 -10 -37t-33 -10h-63q-40 0 -59.5 19.5t-19.5 59.5v434h69zM430 396h-105q-19 0 -26.5 -7t-7.5 -27l-11 46q0 27 10.5 37t32.5 10h107v-59zM430 622v-59h-450v59h450z
M82 -1h73v-86h-73v86z" />
    <glyph glyph-name="uni0917094D" horiz-adv-x="334" 
d="M354 622v-59h-374v59h374zM284 594v-437q0 -40 -19.5 -59.5t-59.5 -19.5h-91q-40 0 -59.5 19.5t-19.5 59.5v190q0 40 19.5 59.5t59.5 19.5h116v-59h-95q-19 0 -25 -5.5t-6 -25.5v-168q0 -19 6 -25t25 -6h49q20 0 25.5 6t5.5 25v426h69z" />
    <glyph glyph-name="uni0918094D" horiz-adv-x="237" 
d="M324 622v-59h-176q-19 0 -25 -5.5t-6 -25.5v-122q0 -19 6 -25t25 -6h68v-59h-68q-19 0 -25 -5.5t-6 -25.5v-121q0 -19 6 -25t25 -6h176v-59h-197q-40 0 -59.5 19.5t-19.5 59.5v144q0 22 10 33.5t27 12.5v2q-17 2 -27 13.5t-10 33.5v141q0 21 9.5 27t25.5 6v-7h-103v59
h344z" />
    <glyph glyph-name="uni095A094D" horiz-adv-x="334" 
d="M354 622v-59h-374v59h374zM284 594v-437q0 -40 -19.5 -59.5t-59.5 -19.5h-91q-40 0 -59.5 19.5t-19.5 59.5v190q0 40 19.5 59.5t59.5 19.5h116v-59h-95q-19 0 -25 -5.5t-6 -25.5v-168q0 -19 6 -25t25 -6h49q20 0 25.5 6t5.5 25v426h69zM120 -1h73v-86h-73v86z" />
    <glyph glyph-name="uni0939094D" horiz-adv-x="363" 
d="M-20 622h413v-59h-413v59zM239 485v95h69v-154h-153q-19 0 -25 -5.5t-6 -25.5v-49q0 -19 6 -25t25 -6h84q40 0 59.5 -19.5t19.5 -59.5v-62h-69v51q0 20 -5.5 25.5t-25.5 5.5h-63q-19 0 -25 -5.5t-6 -25.5v-135q0 -19 6 -25t25 -6h163v-59h-184q-40 0 -59.5 19.5
t-19.5 59.5v158q0 22 10 33.5t27 12.5v2q-17 2 -27 13.5t-10 33.5v74q0 40 19.5 59.5t59.5 19.5h105zM236 -61l100 -130h-76l-100 130h76z" />
    <glyph glyph-name="uni091C094D" horiz-adv-x="311" 
d="M399 622v-59h-419v59h419zM114 485v-317q0 -19 6 -25t25 -6h34q20 0 25.5 6t5.5 25v317h189v-59h-120v-269q0 -40 -19.5 -59.5t-59.5 -19.5h-76q-40 0 -59.5 19.5t-19.5 59.5v328h69z" />
    <glyph glyph-name="uni091D094D" horiz-adv-x="353" 
d="M117 190v-190h-69v190h69zM438 622v-59h-458v59h458zM292 594v-168h-146q-19 0 -25 -5.5t-6 -25.5v-40q0 -19 6 -25t25 -6h292v-59h-184l37 24q9 -16 9 -44v-88q0 -40 -19.5 -59.5t-59.5 -19.5h-142v59h121q20 0 25.5 6t5.5 25v66q0 20 -5.5 25.5t-25.5 5.5h-75
q-40 0 -59.5 19.5t-19.5 59.5v62q0 40 19.5 59.5t59.5 19.5h98v109h69z" />
    <glyph glyph-name="uni0915094D" horiz-adv-x="352" 
d="M288 592v-592h-69v592h69zM179 426h-34q-19 0 -25 -5.5t-6 -25.5v-227q0 -19 6 -25t25 -6h40q20 0 27 7.5t7 26.5l11 -46q0 -27 -10 -37t-33 -10h-63q-40 0 -59.5 19.5t-19.5 59.5v249q0 40 19.5 59.5t59.5 19.5h55v-59zM441 396h-119q-19 0 -26.5 -7t-7.5 -27l-11 46
q0 27 10.5 37t32.5 10h121v-59zM441 622v-59h-461v59h461z" />
    <glyph glyph-name="uni0916094D" horiz-adv-x="409" 
d="M434 471v-59h-42q-19 0 -25 -5.5t-6 -25.5v-172q0 -19 6 -25t25 -6h106v-59h-123q-40 0 -59.5 19.5t-19.5 59.5v194q0 40 19.5 59.5t59.5 19.5h59zM117 471v-378q0 -19 6 -25t25 -6h177v-62h-198q-40 0 -59.5 19.5t-19.5 59.5v392h69zM498 622v-59h-281v7q17 0 26 -6
t9 -27v-227q0 -40 -19.5 -59.5t-59.5 -19.5h-91v59h70q20 0 25.5 6t5.5 25v211q0 20 -5.5 25.5t-25.5 5.5h-172v59h518z" />
    <glyph glyph-name="uni0959094D" horiz-adv-x="409" 
d="M434 471v-59h-42q-19 0 -25 -5.5t-6 -25.5v-172q0 -19 6 -25t25 -6h106v-59h-123q-40 0 -59.5 19.5t-19.5 59.5v194q0 40 19.5 59.5t59.5 19.5h59zM117 471v-378q0 -19 6 -25t25 -6h177v-62h-198q-40 0 -59.5 19.5t-19.5 59.5v392h69zM498 622v-59h-281v7q17 0 26 -6
t9 -27v-227q0 -40 -19.5 -59.5t-59.5 -19.5h-91v59h70q20 0 25.5 6t5.5 25v211q0 20 -5.5 25.5t-25.5 5.5h-172v59h518zM126 -62h73v-86h-73v86z" />
    <glyph glyph-name="uni0932094D" horiz-adv-x="316" 
d="M403 622v-59h-423v59h423zM196 485q22 0 34 -10t13 -27h2q2 17 13 27t33 10h112v-59h-95q-19 0 -25 -5.5t-6 -25.5v-206h-69v206q0 20 -5.5 25.5t-25.5 5.5h-32q-19 0 -25 -5.5t-6 -25.5v-302q0 -19 6 -25t25 -6h61v-62h-82q-40 0 -59.5 19.5t-19.5 59.5v327
q0 40 19.5 59.5t59.5 19.5h72z" />
    <glyph glyph-name="uni0933094D" horiz-adv-x="523" 
d="M563 622v-59h-603v59h603zM409 485q40 0 59.5 -19.5t19.5 -59.5v-249q0 -40 -19.5 -59.5t-59.5 -19.5h-99q-43 0 -46 37h-2q-3 -37 -47 -37h-101q-40 0 -59.5 19.5t-19.5 59.5v249q0 40 19.5 59.5t59.5 19.5h101q44 0 47 -37h2q3 37 46 37h99zM419 395q0 20 -5.5 25.5
t-25.5 5.5h-61q-19 0 -25 -5.5t-6 -25.5v-227q0 -19 6 -25t25 -6h61q20 0 25.5 6t5.5 25v227zM227 395q0 20 -5.5 25.5t-25.5 5.5h-61q-19 0 -25 -5.5t-6 -25.5v-227q0 -19 6 -25t25 -6h61q20 0 25.5 6t5.5 25v227z" />
    <glyph glyph-name="uni092E094D" horiz-adv-x="340" 
d="M282 574v-387q0 -40 -19.5 -59.5t-59.5 -19.5h-89q-40 0 -59.5 19.5t-19.5 59.5v166q0 40 19.5 59.5t59.5 19.5h311v-59h-290q-19 0 -25 -5.5t-6 -25.5v-144q0 -19 6 -25t25 -6h47q20 0 25.5 6t5.5 25v376h69zM425 622v-59h-445v59h445z" />
    <glyph glyph-name="uni0928094D" horiz-adv-x="297" 
d="M383 622v-59h-403v59h403zM264 157q0 -40 -19.5 -59.5t-59.5 -19.5h-71q-40 0 -59.5 19.5t-19.5 59.5v249q0 40 19.5 59.5t59.5 19.5h269v-59h-248q-19 0 -25 -5.5t-6 -25.5v-227q0 -19 6 -25t25 -6h29q20 0 25.5 6t5.5 25v276h69v-287z" />
    <glyph glyph-name="uni0919094D" horiz-adv-x="351" 
d="M-20 622h391v-59h-391v59zM212 594h69v-168h-121q-19 0 -25 -5.5t-6 -25.5v-70q0 -19 6 -25t25 -6h52q40 0 59.5 -19.5t19.5 -59.5v-136q0 -40 -19.5 -59.5t-59.5 -19.5h-85q-40 0 -59.5 19.5t-19.5 59.5v86h69v-75q0 -19 6 -25t25 -6h43q20 0 25.5 6t5.5 25v114
q0 20 -5.5 25.5t-25.5 5.5h-52q-40 0 -59.5 19.5t-19.5 59.5v92q0 40 19.5 59.5t59.5 19.5h73v109zM273 394h73v-86h-73v86zM207 -61l100 -130h-76l-100 130h76z" />
    <glyph glyph-name="uni0923094D" horiz-adv-x="311" 
d="M344 622v-59h-364v59h364zM114 585v-417q0 -19 6 -25t25 -6h34q20 0 25.5 6t5.5 25v417h69v-428q0 -40 -19.5 -59.5t-59.5 -19.5h-76q-40 0 -59.5 19.5t-19.5 59.5v428h69z" />
    <glyph glyph-name="uni091E094D" horiz-adv-x="305" 
d="M395 622v-59h-415v59h415zM99 256v-88q0 -19 6 -25t25 -6h29q20 0 25.5 6t5.5 25v227q0 20 -5.5 25.5t-25.5 5.5h-86v59h107q40 0 59.5 -19.5t19.5 -59.5v-249q0 -40 -19.5 -59.5t-59.5 -19.5h-71q-40 0 -59.5 19.5t-19.5 59.5v99h69zM231 333h164v-59h-164v59z" />
    <glyph glyph-name="uni092A094D" horiz-adv-x="167" 
d="M258 622v-59h-278v59h278zM117 591v-423q0 -19 6 -25t25 -6h110v-59h-131q-40 0 -59.5 19.5t-19.5 59.5v434h69z" />
    <glyph glyph-name="uni092B094D" horiz-adv-x="341" 
d="M291 592v-592h-69v592h69zM117 591v-423q0 -19 6 -25t25 -6h40q20 0 27 7.5t7 26.5l11 -46q0 -27 -10 -37t-33 -10h-63q-40 0 -59.5 19.5t-19.5 59.5v434h69zM430 396h-105q-19 0 -26.5 -7t-7.5 -27l-11 46q0 27 10.5 37t32.5 10h107v-59zM430 622v-59h-450v59h450z" />
    <glyph glyph-name="uni0958094D" horiz-adv-x="352" 
d="M288 592v-592h-69v592h69zM179 426h-34q-19 0 -25 -5.5t-6 -25.5v-227q0 -19 6 -25t25 -6h40q20 0 27 7.5t7 26.5l11 -46q0 -27 -10 -37t-33 -10h-63q-40 0 -59.5 19.5t-19.5 59.5v249q0 40 19.5 59.5t59.5 19.5h55v-59zM441 396h-119q-19 0 -26.5 -7t-7.5 -27l-11 46
q0 27 10.5 37t32.5 10h121v-59zM441 622v-59h-461v59h461zM52 30h73v-86h-73v86z" />
    <glyph glyph-name="uni0938094D" horiz-adv-x="330" 
d="M114 446v-356q0 -19 6 -25t25 -6h44q20 0 25.5 6t5.5 25v121h69v-132q0 -40 -19.5 -59.5t-59.5 -19.5h-86q-40 0 -59.5 19.5t-19.5 59.5v367h69zM405 622v-59h-149v7q17 0 26 -6t9 -27v-133q0 -31 -5.5 -49t-27.5 -23l-24 12h171v-59h-313v59h99q20 0 25.5 6t5.5 25v157
q0 20 -5.5 25.5t-25.5 5.5h-211v59h425z" />
    <glyph glyph-name="uni0936094D" horiz-adv-x="341" 
d="M114 374v-284q0 -19 6 -25t25 -6h44q20 0 25.5 6t5.5 25v104h69v-115q0 -40 -19.5 -59.5t-59.5 -19.5h-86q-40 0 -59.5 19.5t-19.5 59.5v295h69zM212 623q40 0 59.5 -19.5t19.5 -59.5v-197q0 -40 -19.5 -59.5t-59.5 -19.5h-120v59h99q20 0 25.5 6t5.5 25v175
q0 20 -5.5 25.5t-25.5 5.5h-44q-19 0 -25 -5.5t-6 -25.5v-84h-69v95q0 40 19.5 59.5t59.5 19.5h86z" />
    <glyph glyph-name="uni0937094D" horiz-adv-x="213" 
d="M303 622v-59h-323v59h323zM120 591v-28l104 -217q15 -32 30.5 -69t27 -64.5t13.5 -30.5l2 -57q-5 -24 -21.5 -35.5t-39.5 -11.5h-102q-40 0 -59.5 19.5t-19.5 59.5v434h65zM124 168q0 -19 6 -25t25 -6h79q26 0 31 15l-101 213q-22 47 -35.5 78l-13.5 31l4.5 -34t4.5 -87
v-185z" />
    <glyph glyph-name="uni0924094D" horiz-adv-x="194" 
d="M269 622v-59h-289v59h289zM269 485v-59h-124q-19 0 -25 -5.5t-6 -25.5v-302q0 -19 6 -25t25 -6h34v-62h-55q-40 0 -59.5 19.5t-19.5 59.5v327q0 40 19.5 59.5t59.5 19.5h145z" />
    <glyph glyph-name="uni0925094D" horiz-adv-x="301" 
d="M396 78h-271q-40 0 -59.5 19.5t-19.5 59.5v195h95q20 0 25.5 6t5.5 25v154q0 20 -5.5 25.5t-25.5 5.5h-5q-19 0 -25 -5.5t-6 -25.5v-45h-52v56q0 40 18 59.5t58 19.5h33q40 0 59.5 -19.5t19.5 -59.5v-176q0 -40 -19.5 -59.5t-59.5 -19.5h-47v-125q0 -19 6 -25t25 -6h250
v-59z" />
    <glyph glyph-name="uni091F094D" horiz-adv-x="334" 
d="M213 580h69v-154h-127q-19 0 -25 -5.5t-6 -25.5v-305q0 -19 6 -25t25 -6h34q20 0 25.5 6t5.5 25v104h69v-115q0 -40 -19.5 -59.5t-59.5 -19.5h-76q-40 0 -59.5 19.5t-19.5 59.5v327q0 40 19.5 59.5t59.5 19.5h79v95zM-20 622h374v-59h-374v59zM207 -61l100 -130h-76
l-100 130h76z" />
    <glyph glyph-name="uni0920094D" horiz-adv-x="368" 
d="M-20 622h408v-59h-408v59zM241 485q40 0 59.5 -19.5t19.5 -59.5v-327q0 -40 -19.5 -59.5t-59.5 -19.5h-107q-40 0 -59.5 19.5t-19.5 59.5v327q0 40 19.5 59.5t59.5 19.5h107zM153 580h69v-113h-69v113zM251 395q0 20 -5.5 25.5t-25.5 5.5h-65q-19 0 -25 -5.5t-6 -25.5
v-305q0 -19 6 -25t25 -6h65q20 0 25.5 6t5.5 25v305zM207 -61l100 -130h-76l-100 130h76z" />
    <glyph glyph-name="uni0935094D" horiz-adv-x="167" 
d="M258 622v-59h-278v59h278zM182 485v-59h-34q-19 0 -25 -5.5t-6 -25.5v-227q0 -19 6 -25t25 -6h110v-59h-131q-40 0 -59.5 19.5t-19.5 59.5v249q0 40 19.5 59.5t59.5 19.5h55z" />
    <glyph glyph-name="uni092F094D" horiz-adv-x="249" 
d="M336 622v-59h-376v59h376zM336 78h-222q-40 0 -59.5 19.5t-19.5 59.5v217h80q20 0 25.5 6t5.5 25v126q0 21 -6.5 26.5t-39.5 5.5l80 8q17 0 26 -7t9 -28v-142q0 -26 -8.5 -44t-26 -26.5t-44.5 -8.5h-32v-147q0 -19 6 -25t25 -6h201v-59z" />
    <glyph glyph-name="uni095B094D" horiz-adv-x="311" 
d="M399 622v-59h-419v59h419zM114 485v-317q0 -19 6 -25t25 -6h34q20 0 25.5 6t5.5 25v317h189v-59h-120v-269q0 -40 -19.5 -59.5t-59.5 -19.5h-76q-40 0 -59.5 19.5t-19.5 59.5v328h69zM121 0h73v-86h-73v86z" />
    <glyph glyph-name="onehalf" horiz-adv-x="471" 
d="M63 622v-42h-52v42h52zM130 0h-68l208 622h68zM96 622v-342h-48v342h48zM335 283v-51h-47v67q0 22 10.5 32.5t32.5 10.5h63q22 0 32.5 -10.5t10.5 -32.5v-31q0 -20 -3 -39t-13 -38l-79 -146h98v-45h-152v44l86 158q9 17 12 33t3 36v12q0 11 -3 14t-14 3h-20
q-10 0 -13.5 -3t-3.5 -14z" />
    <glyph glyph-name="onequarter" horiz-adv-x="464" 
d="M254 68v41h171v-41h-171zM236 68v34l89 244h53l-101 -278h-41zM345 172h52v-172h-52v172zM63 622v-42h-52v42h52zM130 0h-68l208 622h68zM96 622v-342h-48v342h48z" />
    <glyph glyph-name="threequarters" horiz-adv-x="507" 
d="M64 563v-46h-48v62q0 22 11 32.5t33 10.5h66q22 0 33 -10.5t11 -32.5v-99q0 -12 -5.5 -18.5t-15.5 -7.5q10 -1 15.5 -7.5t5.5 -18.5v-105q0 -22 -11 -32.5t-33 -10.5h-66q-22 0 -33 10.5t-11 32.5v62h48v-45q0 -11 3.5 -14.5t13.5 -3.5h24q11 0 14 3.5t3 14.5v75
q0 11 -3 14t-14 3h-30v43h30q11 0 14 3.5t3 13.5v71q0 11 -3 14t-14 3h-24q-10 0 -13.5 -3t-3.5 -14zM314 68v41h171v-41h-171zM296 68v34l89 244h53l-101 -278h-41zM405 172h52v-172h-52v172zM330 622h68l-208 -622h-68z" />
    <glyph glyph-name="uni094D0930.1" horiz-adv-x="0" 
d="M-138 24h99l86 -164h-72l-63 130l-65 -130h-72z" />
    <glyph glyph-name="uni0930094D" horiz-adv-x="0" 
d="M10 704h-34q-19 0 -25 -5t-6 -25v-75h-69v86q0 40 19.5 59t59.5 19h55v-59z" />
    <glyph glyph-name="uni0902.01" horiz-adv-x="0" 
d="M-30 763h73v-86h-73v86z" />
    <glyph glyph-name="uni0930094D.01" horiz-adv-x="0" 
d="M10 704h-34q-19 0 -25 -5t-6 -25v-75h-69v86q0 40 19.5 59t59.5 19h55v-59z" />
    <glyph glyph-name="aiMatraanusvaradeva" horiz-adv-x="0" 
d="M-346 813h91l42 -46q44 -48 69 -80.5t44 -64.5h4q-16 29 -29 62.5t-32 76.5l-22 52h74l47 -201h-66l-9 6.5t-27 21.5t-46 41zM-52 743h73v-86h-73v86z" />
    <glyph glyph-name="aiMatrarephanusvaradeva" horiz-adv-x="0" 
d="M-352 813h91l43 -46q47 -50 72.5 -81.5t47.5 -63.5h4q-23 33 -41 61t-38 68l-32 62h74l14 -43q8 -25 15 -50.5t10 -41.5h3l-2.5 16t-5 38.5t-2.5 39.5q0 19 8.5 32.5t24 21t37.5 7.5h38v-59h-29q-20 0 -28 -7.5t-8 -27.5v-127h-64l-8.5 7t-26.5 22t-47 40zM-31 730h63
v-66h-63v66z" />
    <glyph glyph-name="aiMatrarephdeva" horiz-adv-x="0" 
d="M-353 813h91l43 -46q47 -50 72.5 -81.5t47.5 -63.5h4q-23 33 -41 61t-38 68l-32 62h74l14 -43q8 -25 15 -50.5t10 -41.5h3l-2.5 15.5t-5 37.5t-2.5 41t8.5 32.5t24 21t37.5 7.5h38v-59h-29q-20 0 -28 -7.5t-8 -27.5v-127h-64l-8.5 7t-26.5 22t-47 40z" />
    <glyph glyph-name="auMatraanusvaradeva" horiz-adv-x="180" 
d="M56 582h68v-582h-68v582zM-19 622h218v-59h-218v59zM-162 813h91l42 -46q44 -48 69 -80.5t44 -64.5h4q-16 29 -29 62.5t-32 76.5l-22 52h74l47 -201h-66l-9 6.5t-27 21.5t-46 41zM132 743h73v-86h-73v86z" />
    <glyph glyph-name="auMatrarephanusvaradeva" horiz-adv-x="180" 
d="M56 582h68v-582h-68v582zM-19 622h218v-59h-218v59zM-172 813h91l43 -46q47 -50 72.5 -81.5t47.5 -63.5h4q-23 33 -41 61t-38 68l-32 62h74l14 -43q8 -25 15 -50.5t10 -41.5h3l-2.5 16t-5 38.5t-2.5 39.5q0 19 8.5 32.5t24 21t37.5 7.5h38v-59h-29q-20 0 -28 -7.5
t-8 -27.5v-127h-64l-8.5 7t-26.5 22t-47 40zM149 730h63v-66h-63v66z" />
    <glyph glyph-name="auMatrarephdeva" horiz-adv-x="180" 
d="M56 582h68v-582h-68v582zM-19 622h218v-59h-218v59zM-172 813h91l43 -46q47 -50 72.5 -81.5t47.5 -63.5h4q-23 33 -41 61t-38 68l-32 62h74l14 -43q8 -25 15 -50.5t10 -41.5h3l-2.5 15.5t-5 37.5t-2.5 41t8.5 32.5t24 21t37.5 7.5h38v-59h-29q-20 0 -28 -7.5t-8 -27.5
v-127h-64l-8.5 7t-26.5 22t-47 40z" />
    <glyph glyph-name="bbadeva" horiz-adv-x="599" 
d="M-20 622h639v-59h-639v59zM225 485v-59h-76l76 -140q13 -23 23.5 -45.5t16.5 -36.5l6 -14l-3 19t-3 62v135q0 40 19.5 59.5t59.5 19.5h91v-59h-76l76 -140q13 -23 23.5 -45.5t16.5 -36.5l6 -14l-1.5 15t-3 45.5t-1.5 74.5v269h69v-594h-69v98l5 12l-95 178q-27 51 -39 79
l-12 28v-227q0 -19 6 -25t25 -6h76q20 0 27 7.5t7 26.5l11 -46q0 -27 -10 -37t-33 -10h-99q-31 0 -49.5 12t-25.5 35l-11 7l-83 156q-27 51 -39 79l-12 28v-227q0 -19 6 -25t25 -6h76q20 0 27 7.5t7 26.5l29 -46q-3 -26 -16 -36.5t-42 -10.5h-102q-40 0 -59.5 19.5
t-19.5 59.5v249q0 40 19.5 59.5t59.5 19.5h91z" />
    <glyph glyph-name="bbhradeva" horiz-adv-x="744" 
d="M220 485v-59h-76l76 -140q13 -23 23.5 -45.5t16.5 -36.5l6 -14l-3 19t-3 62v51q0 40 19.5 59.5t59.5 19.5h302v-59h-281q-19 0 -25 -5.5t-6 -25.5v-93q0 -19 6 -25t25 -6h47q20 0 25.5 6t5.5 25v314q0 20 -5.5 25.5t-25.5 5.5h-39q-19 0 -25 -5.5t-6 -25.5v-56h-69v67
q0 40 19.5 59.5t59.5 19.5h81q40 0 59.5 -19.5t19.5 -59.5v-336q0 -40 -19.5 -59.5t-59.5 -19.5h-89q-41 0 -61 21l-25 -17l-83 156q-27 51 -39 79l-12 28v-227q0 -19 6 -25t25 -6h76q20 0 27 7.5t7 26.5l55 -26q-5 -32 -24 -49.5t-57 -17.5h-105q-40 0 -59.5 19.5
t-19.5 59.5v249q0 40 19.5 59.5t59.5 19.5h91zM620 622h144v-59h-144v59zM620 599h69v-599h-69v147l-177 -197h-85l262 289v360zM-20 622h245v-59h-245v59z" />
    <glyph glyph-name="bbhadeva" horiz-adv-x="749" 
d="M-20 622h245v-59h-245v59zM258 132l-83 156q-27 51 -39 79l-12 28v-227q0 -19 6 -25t25 -6h76q20 0 27 7.5t7 26.5l29 -46q-3 -26 -16 -36.5t-42 -10.5h-102q-40 0 -59.5 19.5t-19.5 59.5v249q0 40 19.5 59.5t59.5 19.5h91v-59h-76l76 -140q13 -23 23.5 -45.5t16.5 -36.5
l6 -14l-3 19t-3 62v51q0 40 19.5 59.5t59.5 19.5h302v-59h-281q-19 0 -25 -5.5t-6 -25.5v-143q0 -19 6 -25t25 -6h47q20 0 25.5 6t5.5 25v364q0 20 -5.5 25.5t-25.5 5.5h-39q-19 0 -25 -5.5t-6 -25.5v-56h-69v67q0 40 19.5 59.5t59.5 19.5h81q40 0 59.5 -19.5t19.5 -59.5
v-386q0 -40 -19.5 -59.5t-59.5 -19.5h-89q-29 0 -47.5 10.5t-26.5 32.5zM625 597h69v-597h-69v597zM625 622h144v-59h-144v59z" />
    <glyph glyph-name="bdadeva" horiz-adv-x="544" 
d="M-20 622h584v-59h-584v59zM427 266h69v-266h-69v266zM212 485v-59h-76l76 -140q13 -23 23.5 -45.5t16.5 -36.5l6 -14l-1.5 15t-3 45.5t-1.5 74.5v81q0 40 19.5 59.5t59.5 19.5h89v95h69v-154h-137q-19 0 -25 -5.5t-6 -25.5v-227q0 -19 6 -25t25 -6h41q20 0 27 7.5t7 26.5
l11 -46q0 -27 -10 -37t-33 -10h-64q-32 0 -51 13t-25 39l-10 2l-83 156q-27 51 -39 79l-12 28v-227q0 -19 6 -25t25 -6h76q20 0 27 7.5t7 26.5l29 -46q-3 -26 -16 -36.5t-42 -10.5h-102q-40 0 -59.5 19.5t-19.5 59.5v249q0 40 19.5 59.5t59.5 19.5h91z" />
    <glyph glyph-name="bdhvadeva" horiz-adv-x="811" 
d="M-20 622h245v-59h-245v59zM344 78q-32 0 -51 13t-25 39l-10 2l-83 156q-27 51 -39 79l-12 28v-227q0 -19 6 -25t25 -6h76q20 0 27 7.5t7 26.5l29 -46q-3 -26 -16 -36.5t-42 -10.5h-102q-40 0 -59.5 19.5t-19.5 59.5v249q0 40 19.5 59.5t59.5 19.5h91v-59h-76l76 -140
q13 -23 23.5 -45.5t16.5 -36.5l6 -14l-3 19t-3 62v24q0 22 10 33.5t27 12.5v2q-17 2 -27 13.5t-10 33.5v158q0 40 19.5 59.5t59.5 19.5h35q40 0 59.5 -19.5t19.5 -59.5v-56h-52v45q0 20 -5.5 25.5t-25.5 5.5h-10q-19 0 -25 -5.5t-6 -25.5v-133q0 -19 6 -25t25 -6h68v-59h-68
q-19 0 -25 -5.5t-6 -25.5v-115q0 -19 6 -25t25 -6h114q20 0 27 7.5t7 26.5l29 -46q-3 -26 -16 -36.5t-42 -10.5h-140zM496 622h335v-59h-335v59zM687 594h69v-594h-69v594zM647 485v-59h-34q-19 0 -25 -5.5t-6 -25.5v-227q0 -19 6 -25t25 -6h40q20 0 27 7.5t7 26.5l11 -46
q0 -27 -10 -37t-33 -10h-63q-40 0 -59.5 19.5t-19.5 59.5v249q0 40 19.5 59.5t59.5 19.5h55z" />
    <glyph glyph-name="bdhadeva" horiz-adv-x="637" 
d="M-20 622h245v-59h-245v59zM225 485v-59h-76l76 -140q13 -23 23.5 -45.5t16.5 -36.5l6 -14l-3 19t-3 62v24q0 22 10 33.5t27 12.5v2q-17 2 -27 13.5t-10 33.5v158q0 40 19.5 59.5t59.5 19.5h35q40 0 59.5 -19.5t19.5 -59.5v-56h-52v45q0 20 -5.5 25.5t-25.5 5.5h-10
q-19 0 -25 -5.5t-6 -25.5v-133q0 -19 6 -25t25 -6h68v-59h-68q-19 0 -25 -5.5t-6 -25.5v-115q0 -19 6 -25t25 -6h114q20 0 27 7.5t7 26.5l11 -46q0 -27 -10 -37t-33 -10h-137q-32 0 -51 13t-25 39l-10 2l-83 156q-27 51 -39 79l-12 28v-227q0 -19 6 -25t25 -6h76
q20 0 27 7.5t7 26.5l29 -46q-3 -26 -16 -36.5t-42 -10.5h-102q-40 0 -59.5 19.5t-19.5 59.5v249q0 40 19.5 59.5t59.5 19.5h91zM513 622h144v-59h-144v59zM513 592h69v-592h-69v592z" />
    <glyph glyph-name="bjyadeva" horiz-adv-x="954" 
d="M111 168q0 -19 6 -25t25 -6h76q15 0 22 4l-78 147q-27 51 -39 79l-12 28v-227zM212 485v-59h-76l76 -140q13 -23 23.5 -45.5t16.5 -36.5l6 -14l-1.5 15t-3 45.5t-1.5 74.5v160h69v-317q0 -19 6 -25t25 -6h34q20 0 25.5 6t5.5 25v236h194v-59h-125v-188q0 -40 -19.5 -59.5
t-59.5 -19.5h-76q-29 0 -47.5 10.5t-26.5 32.5l20 4q0 -27 -10 -37t-33 -10h-113q-40 0 -59.5 19.5t-19.5 59.5v249q0 40 19.5 59.5t59.5 19.5h91zM-20 622h1006v-59h-1006v59zM842 592h69v-592h-69v592zM753 424q0 -26 -8.5 -44t-26 -26.5t-44.5 -8.5h-32v-177q0 -19 6 -25
t25 -6h135q20 0 27 7.5t7 26.5l11 -46q0 -27 -10 -37t-33 -10h-158q-40 0 -59.5 19.5t-19.5 59.5v247h80q20 0 25.5 6t5.5 25v96q0 21 -6.5 26.5t-39.5 5.5l80 8q17 0 26 -7t9 -28v-112z" />
    <glyph glyph-name="bjadeva" horiz-adv-x="692" 
d="M573 592h69v-592h-69v592zM-20 622h737v-59h-737v59zM111 168q0 -19 6 -25t25 -6h76q15 0 22 4l-78 147q-27 51 -39 79l-12 28v-227zM212 485v-59h-76l76 -140q13 -23 23.5 -45.5t16.5 -36.5l6 -14l-1.5 15t-3 45.5t-1.5 74.5v160h69v-317q0 -19 6 -25t25 -6h34
q20 0 25.5 6t5.5 25v317h194v-59h-125v-269q0 -40 -19.5 -59.5t-59.5 -19.5h-76q-29 0 -47.5 10.5t-26.5 32.5l20 4q0 -27 -10 -37t-33 -10h-113q-40 0 -59.5 19.5t-19.5 59.5v249q0 40 19.5 59.5t59.5 19.5h91z" />
    <glyph glyph-name="bjhadeva" horiz-adv-x="736" 
d="M212 485v-59h-117l25 40l160 -317h-8v91h69v-240h-69v122l16 3q-4 -22 -18 -34.5t-43 -12.5h-106q-40 0 -59.5 19.5t-19.5 59.5v249q0 40 19.5 59.5t59.5 19.5h91zM111 168q0 -19 6 -25t25 -6h76q15 0 22 4l-78 147q-27 51 -39 79l-12 28v-227zM-20 622h796v-59h-796v59z
M632 592h69v-592h-69v592zM447 594h69v-168h-146q-19 0 -25 -5.5t-6 -25.5v-40q0 -19 6 -25t25 -6h285v-59h-177l37 24q9 -16 9 -44v-88q0 -40 -19.5 -59.5t-59.5 -19.5h-142v59h121q20 0 25.5 6t5.5 25v66q0 20 -5.5 25.5t-25.5 5.5h-75q-40 0 -59.5 19.5t-19.5 59.5v62
q0 40 19.5 59.5t59.5 19.5h98v109z" />
    <glyph glyph-name="blyadeva" horiz-adv-x="984" 
d="M265 336q0 40 19.5 59.5t59.5 19.5h72q22 0 34 -10t13 -27h2q2 17 13 27t33 10h112v-59h-95q-19 0 -25 -5.5t-6 -25.5v-176h-69v176q0 20 -5.5 25.5t-25.5 5.5h-32q-19 0 -25 -5.5t-6 -25.5v-232q0 -19 6 -25t25 -6h61v-62h-82q-40 0 -59.5 19.5t-19.5 59.5v19l5 12
l-95 178q-27 51 -39 79l-12 28v-227q0 -19 6 -25t25 -6h76q20 0 27 7.5t7 26.5l11 -46q0 -27 -10 -37t-33 -10h-99q-40 0 -59.5 19.5t-19.5 59.5v249q0 40 19.5 59.5t59.5 19.5h91v-59h-76l76 -140q13 -23 23.5 -45.5t16.5 -36.5l6 -14l-3 34t-3 101v11zM-20 622h1024v-59
h-1024v59zM860 592h69v-592h-69v592zM771 435q0 -26 -8.5 -44t-26 -26.5t-44.5 -8.5h-32v-188q0 -19 6 -25t25 -6h135q20 0 27 7.5t7 26.5l11 -46q0 -27 -10 -37t-33 -10h-158q-40 0 -59.5 19.5t-19.5 59.5v258h80q20 0 25.5 6t5.5 25v85q0 21 -6.5 26.5t-39.5 5.5l80 8
q17 0 26 -7t9 -28v-101z" />
    <glyph glyph-name="bladeva" horiz-adv-x="708" 
d="M-20 622h748v-59h-748v59zM265 406q0 40 19.5 59.5t59.5 19.5h72q22 0 34 -10t13 -27h2q2 17 13 27t33 10h112v-59h-95q-19 0 -25 -5.5t-6 -25.5v-206h-69v206q0 20 -5.5 25.5t-25.5 5.5h-32q-19 0 -25 -5.5t-6 -25.5v-302q0 -19 6 -25t25 -6h61v-62h-82
q-40 0 -59.5 19.5t-19.5 59.5v19l5 12l-95 178q-27 51 -39 79l-12 28v-227q0 -19 6 -25t25 -6h76q20 0 27 7.5t7 26.5l11 -46q0 -27 -10 -37t-33 -10h-99q-40 0 -59.5 19.5t-19.5 59.5v249q0 40 19.5 59.5t59.5 19.5h91v-59h-76l76 -140q13 -23 23.5 -45.5t16.5 -36.5l6 -14
l-1.5 15t-3 45.5t-1.5 74.5v81zM660 0h-69v592h69v-592z" />
    <glyph glyph-name="bnadeva" horiz-adv-x="706" 
d="M582 597h69v-597h-69v597zM-20 622h746v-59h-746v59zM225 485v-59h-76l76 -140q13 -23 23.5 -45.5t16.5 -36.5l6 -14l-3 19t-3 62v135q0 40 19.5 59.5t59.5 19.5h259v-59h-238q-19 0 -25 -5.5t-6 -25.5v-227q0 -19 6 -25t25 -6h29q20 0 25.5 6t5.5 25v276h69v-287
q0 -40 -19.5 -59.5t-59.5 -19.5h-71q-28 0 -46 9.5t-26 28.5l-14 16l-83 156q-27 51 -39 79l-12 28v-227q0 -19 6 -25t25 -6h76q20 0 27 7.5t7 26.5l29 -46q-3 -26 -16 -36.5t-42 -10.5h-102q-40 0 -59.5 19.5t-19.5 59.5v249q0 40 19.5 59.5t59.5 19.5h91z" />
    <glyph glyph-name="brdeva" horiz-adv-x="278" 
d="M-20 622h316v-59h-316v59zM119 168q0 -19 6 -25t25 -6h101l-81 151q-27 51 -39 79l-12 28v-227zM50 406q0 40 19.5 59.5t59.5 19.5h91v-59h-76l76 -140q10 -18 23 -45t25 -54l20 -45l8 -18v-46l-101 -128h-81l107 128h-92q-40 0 -59.5 19.5t-19.5 59.5v249z" />
    <glyph glyph-name="bradeva" horiz-adv-x="384" 
d="M-20 622h424v-59h-424v59zM220 485v-59h-76l76 -124q14 -23 24.5 -42.5t16 -31.5l5.5 -12l-1.5 15t-3 45.5t-1.5 74.5v243h69v-594h-69v117l-111 -167h-76l108 158h-52q-40 0 -59.5 19.5t-19.5 59.5v219q0 40 19.5 59.5t59.5 19.5h91zM119 198q0 -19 6 -25t25 -6h76
q14 0 21 3l-77 132q-29 50 -40 70l-11 20v-194z" />
    <glyph glyph-name="bsadeva" horiz-adv-x="728" 
d="M-20 622h768v-59h-272v7q17 0 26 -6t9 -27v-133q0 -31 -5.5 -49t-27.5 -23l-24 12h164v-59h-306v59h99q20 0 25.5 6t5.5 25v157q0 20 -5.5 25.5t-25.5 5.5h-431v59zM605 582h68v-582h-68v582zM265 446h69v-356q0 -19 6 -25t25 -6h44q20 0 25.5 6t5.5 25v121h69v-132
q0 -40 -19.5 -59.5t-59.5 -19.5h-86q-40 0 -59.5 19.5t-19.5 59.5v19l5 12l-95 178q-27 51 -39 79l-12 28v-227q0 -19 6 -25t25 -6h76q20 0 27 7.5t7 26.5l11 -46q0 -27 -10 -37t-33 -10h-99q-40 0 -59.5 19.5t-19.5 59.5v249q0 40 19.5 59.5t59.5 19.5h91v-59h-76l76 -140
q13 -23 23.5 -45.5t16.5 -36.5l6 -14l-1.5 15t-3 45.5t-1.5 74.5v121z" />
    <glyph glyph-name="bshadeva" horiz-adv-x="726" 
d="M442 623q40 0 59.5 -19.5t19.5 -59.5v-197q0 -40 -19.5 -59.5t-59.5 -19.5h-120v59h99q20 0 25.5 6t5.5 25v175q0 20 -5.5 25.5t-25.5 5.5h-44q-19 0 -25 -5.5t-6 -25.5v-84h-69v95q0 40 19.5 59.5t59.5 19.5h86zM602 622h144v-59h-76v-563h-68v622zM275 374h69v-284
q0 -19 6 -25t25 -6h44q20 0 25.5 6t5.5 25v104h69v-115q0 -40 -19.5 -59.5t-59.5 -19.5h-86q-40 0 -59.5 19.5t-19.5 59.5v19l5 12l-95 178q-27 51 -39 79l-12 28v-227q0 -19 6 -25t25 -6h76q20 0 27 7.5t7 26.5l11 -46q0 -27 -10 -37t-33 -10h-99q-40 0 -59.5 19.5
t-19.5 59.5v249q0 40 19.5 59.5t59.5 19.5h91v-59h-76l76 -140q13 -23 23.5 -45.5t16.5 -36.5l6 -14l-1.5 15t-3 45.5t-1.5 74.5v49zM-20 622h255v-59h-255v59z" />
    <glyph glyph-name="btadeva" horiz-adv-x="583" 
d="M225 485v-59h-76l76 -140q13 -23 23.5 -45.5t16.5 -36.5l6 -14l-1.5 15t-3 45.5t-1.5 74.5v81q0 40 19.5 59.5t59.5 19.5h159v-59h-138q-19 0 -25 -5.5t-6 -25.5v-302q0 -19 6 -25t25 -6h34v-62h-55q-40 0 -59.5 19.5t-19.5 59.5v19l5 12l-95 178q-27 51 -39 79l-12 28
v-227q0 -19 6 -25t25 -6h76q20 0 27 7.5t7 26.5l11 -46q0 -27 -10 -37t-33 -10h-99q-40 0 -59.5 19.5t-19.5 59.5v249q0 40 19.5 59.5t59.5 19.5h91zM538 604v-604h-69v604h69zM-20 622h633v-59h-633v59z" />
    <glyph glyph-name="bvadeva" horiz-adv-x="563" 
d="M258 132l-83 156q-27 51 -39 79l-12 28v-227q0 -19 6 -25t25 -6h76q20 0 27 7.5t7 26.5l29 -46q-3 -26 -16 -36.5t-42 -10.5h-102q-40 0 -59.5 19.5t-19.5 59.5v249q0 40 19.5 59.5t59.5 19.5h91v-59h-76l76 -140q13 -23 23.5 -45.5t16.5 -36.5l6 -14l-1.5 8t-3 26
t-1.5 47v135q0 40 19.5 59.5t59.5 19.5h55v-59h-34q-19 0 -25 -5.5t-6 -25.5v-227q0 -19 6 -25t25 -6h40q20 0 27 7.5t7 26.5l11 -46q0 -27 -10 -37t-33 -10h-63q-27 0 -45 9t-26 27zM-20 622h603v-59h-603v59zM439 594h69v-594h-69v594z" />
    <glyph glyph-name="byadeva" horiz-adv-x="658" 
d="M-20 622h698v-59h-698v59zM534 592h69v-592h-69v592zM225 485v-59h-76l76 -140q13 -23 23.5 -45.5t16.5 -36.5l6 -14l-3 19t-3 62v103h80q20 0 25.5 6t5.5 25v126q0 21 -6.5 26.5t-39.5 5.5l80 8q17 0 26 -7t9 -28v-142q0 -26 -8.5 -44t-26 -26.5t-44.5 -8.5h-32v-147
q0 -19 6 -25t25 -6h135q20 0 27 7.5t7 26.5l11 -46q0 -27 -10 -37t-33 -10h-158q-29 0 -47.5 10.5t-26.5 32.5l-12 11l-83 156q-27 51 -39 79l-12 28v-227q0 -19 6 -25t25 -6h76q20 0 27 7.5t7 26.5l29 -46q-3 -26 -16 -36.5t-42 -10.5h-102q-40 0 -59.5 19.5t-19.5 59.5
v249q0 40 19.5 59.5t59.5 19.5h91z" />
    <glyph glyph-name="bzadeva" horiz-adv-x="710" 
d="M225 485v-59h-76l76 -140q13 -23 23.5 -45.5t16.5 -36.5l6 -14l-1.5 8t-3 26t-1.5 47v214h69v-317q0 -19 6 -25t25 -6h34q20 0 25.5 6t5.5 25v317h194v-59h-125v-269q0 -40 -19 -59.5t-60 -19.5h-76q-27 0 -45 9t-26 27l-15 18l-83 156q-27 51 -39 79l-12 28v-227
q0 -19 6 -25t25 -6h76q20 0 27 7.5t7 26.5l29 -46q-3 -26 -16 -36.5t-42 -10.5h-102q-40 0 -59.5 19.5t-19.5 59.5v249q0 40 19.5 59.5t59.5 19.5h91zM586 592h69v-592h-69v592zM-20 622h750v-59h-750v59zM351 0h73v-86h-73v86z" />
    <glyph glyph-name="bhladeva" horiz-adv-x="843" 
d="M213 622q40 0 59.5 -19.5t19.5 -59.5v-386q0 -40 -19.5 -59.5t-59.5 -19.5h-89q-40 0 -59.5 19.5t-19.5 59.5v165q0 40 19.5 59.5t59.5 19.5h281v-59h-260q-19 0 -25 -5.5t-6 -25.5v-143q0 -19 6 -25t25 -6h47q20 0 25.5 6t5.5 25v364q0 20 -5.5 25.5t-25.5 5.5h-39
q-19 0 -25 -5.5t-6 -25.5v-56h-69v67q0 40 19.5 59.5t59.5 19.5h81zM337 622h523v-59h-523v59zM548 485q22 0 34 -10t13 -27h2q2 17 13 27t33 10h112v-59h-95q-19 0 -25 -5.5t-6 -25.5v-206h-69v206q0 20 -5.5 25.5t-25.5 5.5h-32q-19 0 -25 -5.5t-6 -25.5v-302q0 -19 6 -25
t25 -6h61v-62h-82q-40 0 -59.5 19.5t-19.5 59.5v327q0 40 19.5 59.5t59.5 19.5h72zM792 0h-69v592h69v-592z" />
    <glyph glyph-name="bhnadeva" horiz-adv-x="821" 
d="M213 622q40 0 59.5 -19.5t19.5 -59.5v-386q0 -40 -19.5 -59.5t-59.5 -19.5h-89q-40 0 -59.5 19.5t-19.5 59.5v165q0 40 19.5 59.5t59.5 19.5h281v-59h-260q-19 0 -25 -5.5t-6 -25.5v-143q0 -19 6 -25t25 -6h47q20 0 25.5 6t5.5 25v364q0 20 -5.5 25.5t-25.5 5.5h-39
q-19 0 -25 -5.5t-6 -25.5v-56h-69v67q0 40 19.5 59.5t59.5 19.5h81zM697 597h69v-597h-69v597zM380 622h461v-59h-461v59zM609 157q0 -40 -19.5 -59.5t-59.5 -19.5h-71q-40 0 -59.5 19.5t-19.5 59.5v249q0 40 19.5 59.5t59.5 19.5h259v-59h-238q-19 0 -25 -5.5t-6 -25.5
v-227q0 -19 6 -25t25 -6h29q20 0 25.5 6t5.5 25v276h69v-287z" />
    <glyph glyph-name="bhrdeva" horiz-adv-x="406" 
d="M213 622q40 0 59.5 -19.5t19.5 -59.5v-336q0 -40 -19.5 -59.5t-59.5 -19.5h-89q-40 0 -59.5 19.5t-19.5 59.5v115q0 40 19.5 59.5t59.5 19.5h302v-59h-281q-19 0 -25 -5.5t-6 -25.5v-93q0 -19 6 -25t25 -6h47q20 0 25.5 6t5.5 25v314q0 20 -5.5 25.5t-25.5 5.5h-39
q-19 0 -25 -5.5t-6 -25.5v-56h-69v67q0 40 19.5 59.5t59.5 19.5h81zM426 262v-92l-198 -220h-85z" />
    <glyph glyph-name="bhryadeva" horiz-adv-x="798" 
d="M335 622h483v-59h-483v59zM674 592h69v-592h-69v592zM585 421q0 -26 -8.5 -44t-26 -26.5t-44.5 -8.5h-32v-174q0 -19 6 -25t25 -6h135q20 0 27 7.5t7 26.5l11 -46q0 -27 -10 -37t-33 -10h-158q-40 0 -59.5 19.5t-19.5 59.5v244h80q20 0 25.5 6t5.5 25v99q0 21 -6.5 26.5
t-39.5 5.5l80 8q17 0 26 -7t9 -28v-115zM408 242l16 -76l-196 -216h-85zM213 622q40 0 59.5 -19.5t19.5 -59.5v-336q0 -40 -19.5 -59.5t-59.5 -19.5h-89q-40 0 -59.5 19.5t-19.5 59.5v115q0 40 19.5 59.5t59.5 19.5h302v-59h-281q-19 0 -25 -5.5t-6 -25.5v-93q0 -19 6 -25
t25 -6h47q20 0 25.5 6t5.5 25v314q0 20 -5.5 25.5t-25.5 5.5h-39q-19 0 -25 -5.5t-6 -25.5v-56h-69v67q0 40 19.5 59.5t59.5 19.5h81z" />
    <glyph glyph-name="bhradeva" horiz-adv-x="529" 
d="M405 622h144v-59h-144v59zM213 622q40 0 59.5 -19.5t19.5 -59.5v-336q0 -40 -19.5 -59.5t-59.5 -19.5h-89q-40 0 -59.5 19.5t-19.5 59.5v115q0 40 19.5 59.5t59.5 19.5h302v-59h-281q-19 0 -25 -5.5t-6 -25.5v-93q0 -19 6 -25t25 -6h47q20 0 25.5 6t5.5 25v314
q0 20 -5.5 25.5t-25.5 5.5h-39q-19 0 -25 -5.5t-6 -25.5v-56h-69v67q0 40 19.5 59.5t59.5 19.5h81zM405 599h69v-599h-69v147l-177 -197h-85l262 289v360z" />
    <glyph glyph-name="bhvadeva" horiz-adv-x="695" 
d="M213 622q40 0 59.5 -19.5t19.5 -59.5v-386q0 -40 -19.5 -59.5t-59.5 -19.5h-89q-40 0 -59.5 19.5t-19.5 59.5v165q0 40 19.5 59.5t59.5 19.5h281v-59h-260q-19 0 -25 -5.5t-6 -25.5v-143q0 -19 6 -25t25 -6h47q20 0 25.5 6t5.5 25v364q0 20 -5.5 25.5t-25.5 5.5h-39
q-19 0 -25 -5.5t-6 -25.5v-56h-69v67q0 40 19.5 59.5t59.5 19.5h81zM337 622h378v-59h-378v59zM571 594h69v-594h-69v594zM531 485v-59h-34q-19 0 -25 -5.5t-6 -25.5v-227q0 -19 6 -25t25 -6h40q20 0 27 7.5t7 26.5l11 -46q0 -27 -10 -37t-33 -10h-63q-40 0 -59.5 19.5
t-19.5 59.5v249q0 40 19.5 59.5t59.5 19.5h55z" />
    <glyph glyph-name="bhyadeva" horiz-adv-x="773" 
d="M213 622q40 0 59.5 -19.5t19.5 -59.5v-386q0 -40 -19.5 -59.5t-59.5 -19.5h-89q-40 0 -59.5 19.5t-19.5 59.5v165q0 40 19.5 59.5t59.5 19.5h301v-59h-280q-19 0 -25 -5.5t-6 -25.5v-143q0 -19 6 -25t25 -6h47q20 0 25.5 6t5.5 25v364q0 20 -5.5 25.5t-25.5 5.5h-39
q-19 0 -25 -5.5t-6 -25.5v-56h-69v67q0 40 19.5 59.5t59.5 19.5h81zM380 622h413v-59h-413v59zM649 592h69v-592h-69v592zM560 421q0 -26 -8.5 -44t-26 -26.5t-44.5 -8.5h-32v-174q0 -19 6 -25t25 -6h135q20 0 27 7.5t7 26.5l11 -46q0 -27 -10 -37t-33 -10h-158
q-40 0 -59.5 19.5t-19.5 59.5v244h80q20 0 25.5 6t5.5 25v99q0 21 -6.5 26.5t-39.5 5.5l80 8q17 0 26 -7t9 -28v-115z" />
    <glyph glyph-name="ccadeva" horiz-adv-x="580" 
d="M5 485h174v-59h-174v59zM68 400q0 27 15 30.5t41 1.5l46 -6q-21 0 -27 -7.5t-6 -23.5v-227q0 -19 6 -25t25 -6h60q20 0 27 7.5t7 25.5l39 -21q0 -36 -14.5 -53.5t-54.5 -17.5h-85q-40 0 -59.5 19.5t-19.5 59.5v243zM-20 622h620v-59h-620v59zM456 594h69v-594h-69v594z
M229 485h174v-59h-174v59zM262 400q0 27 15 30.5t41 1.5l46 -6q-21 0 -27 -7.5t-6 -23.5v-227q0 -19 6 -25t25 -6h60q20 0 27 7.5t7 26.5l11 -46q0 -27 -10 -37t-33 -10h-83q-40 0 -59.5 19.5t-19.5 59.5v243z" />
    <glyph glyph-name="cchvadeva" horiz-adv-x="708" 
d="M5 485h204v-59h-41q-19 0 -25 -5.5t-6 -25.5v-227q0 -19 6 -25t25 -6h60q20 0 27 7.5t7 25.5l28 -21q0 -36 -14.5 -53.5t-54.5 -17.5h-74q-40 0 -59.5 19.5t-19.5 59.5v243q0 21 9.5 27t25.5 6v-7h-98v59zM-20 622h748v-59h-748v59zM525 591h64v-126h-64v126zM262 537
q0 27 15 30.5t41 1.5l74 -7q-40 2 -50.5 -1t-10.5 -29v-163q0 -19 6 -25t25 -6h37v-59h-37q-19 0 -25 -5.5t-6 -25.5v-158q0 -19 6 -25t25 -6h203q20 0 25.5 6t5.5 25v305q0 20 -5.5 25.5t-25.5 5.5h-20q-19 0 -25 -5.5t-6 -25.5v-132q0 -19 6 -25t25 -6h20v-59h-36
q-40 0 -59.5 19.5t-19.5 59.5v154q0 40 19.5 59.5t59.5 19.5h52q40 0 59.5 -19.5t19.5 -59.5v-327q0 -40 -19.5 -59.5t-59.5 -19.5h-240q-40 0 -59.5 19.5t-19.5 59.5v181q0 22 10 33.5t27 12.5v2q-17 2 -27 13.5t-10 33.5v182zM398 -71q0 -17 5.5 -22.5t22.5 -5.5h68
q17 0 23.5 6.5t6.5 24.5l10 -47q0 -24 -9 -33.5t-29 -9.5h-89q-40 0 -59 21t-19 56v56q0 27 15 30.5t41 1.5l74 -7q-40 2 -50.5 -1t-10.5 -29v-41zM524 28h69v-243h-69v243z" />
    <glyph glyph-name="cchadeva" horiz-adv-x="708" 
d="M-20 622h748v-59h-748v59zM525 591h64v-126h-64v126zM262 537q0 27 15 30.5t41 1.5l74 -7q-40 2 -50.5 -1t-10.5 -29v-163q0 -19 6 -25t25 -6h37v-59h-37q-19 0 -25 -5.5t-6 -25.5v-158q0 -19 6 -25t25 -6h203q20 0 25.5 6t5.5 25v305q0 20 -5.5 25.5t-25.5 5.5h-20
q-19 0 -25 -5.5t-6 -25.5v-132q0 -19 6 -25t25 -6h20v-59h-36q-40 0 -59.5 19.5t-19.5 59.5v154q0 40 19.5 59.5t59.5 19.5h52q40 0 59.5 -19.5t19.5 -59.5v-327q0 -40 -19.5 -59.5t-59.5 -19.5h-240q-40 0 -59.5 19.5t-19.5 59.5v181q0 22 10 33.5t27 12.5v2
q-17 2 -27 13.5t-10 33.5v182zM5 485h204v-59h-41q-19 0 -25 -5.5t-6 -25.5v-227q0 -19 6 -25t25 -6h60q20 0 27 7.5t7 25.5l28 -21q0 -36 -14.5 -53.5t-54.5 -17.5h-74q-40 0 -59.5 19.5t-19.5 59.5v243q0 21 9.5 27t25.5 6v-7h-98v59z" />
    <glyph glyph-name="cmadeva" horiz-adv-x="746" 
d="M5 485h204v-59h-41q-19 0 -25 -5.5t-6 -25.5v-227q0 -19 6 -25t25 -6h60q20 0 27 7.5t7 25.5l28 -21q0 -36 -14.5 -53.5t-54.5 -17.5h-74q-40 0 -59.5 19.5t-19.5 59.5v243q0 21 9.5 27t25.5 6v-7h-98v59zM440 574h69v-417q0 -40 -19.5 -59.5t-59.5 -19.5h-89
q-40 0 -59.5 19.5t-19.5 59.5v196q0 40 19.5 59.5t59.5 19.5h302v-59h-281q-19 0 -25 -5.5t-6 -25.5v-174q0 -19 6 -25t25 -6h47q20 0 25.5 6t5.5 25v406zM622 597h69v-597h-69v597zM-20 622h786v-59h-786v59z" />
    <glyph glyph-name="cnadeva" horiz-adv-x="703" 
d="M5 485h204v-59h-41q-19 0 -25 -5.5t-6 -25.5v-227q0 -19 6 -25t25 -6h60q20 0 27 7.5t7 25.5l28 -21q0 -36 -14.5 -53.5t-54.5 -17.5h-74q-40 0 -59.5 19.5t-19.5 59.5v243q0 21 9.5 27t25.5 6v-7h-98v59zM579 597h69v-597h-69v597zM-20 622h743v-59h-743v59zM491 157
q0 -40 -19.5 -59.5t-59.5 -19.5h-71q-40 0 -59.5 19.5t-19.5 59.5v249q0 40 19.5 59.5t59.5 19.5h259v-59h-238q-19 0 -25 -5.5t-6 -25.5v-227q0 -19 6 -25t25 -6h29q20 0 25.5 6t5.5 25v276h69v-287z" />
    <glyph glyph-name="crdeva" horiz-adv-x="246" 
d="M-20 622h286v-59h-286v59zM5 485h204v-59h-204v59zM68 400q0 27 15 30.5t41 1.5l74 -6q-26 0 -39.5 -0.5t-17.5 -7t-4 -23.5v-197q0 -19 6 -25t25 -6h98v-42l-115 -175h-76l108 158h-20h-16q-79 0 -79 79v213z" />
    <glyph glyph-name="cradeva" horiz-adv-x="391" 
d="M-20 622h426v-59h-426v59zM262 594h69v-594h-69v594zM5 485h204v-59h-204v59zM68 400q0 27 15 30.5t41 1.5l74 -6q-26 0 -39.5 -0.5t-17.5 -7t-4 -23.5v-197q0 -19 6 -25t25 -6h60q20 0 27 7.5t7 26.5l5 -76l-116 -175h-76l108 158h-20h-16q-79 0 -79 79v213z" />
    <glyph glyph-name="cyadeva" horiz-adv-x="655" 
d="M5 485h204v-59h-41q-19 0 -25 -5.5t-6 -25.5v-227q0 -19 6 -25t25 -6h60q20 0 27 7.5t7 25.5l28 -21q0 -36 -14.5 -53.5t-54.5 -17.5h-74q-40 0 -59.5 19.5t-19.5 59.5v243q0 21 9.5 27t25.5 6v-7h-98v59zM-20 622h695v-59h-695v59zM531 592h69v-592h-69v592zM442 394
q0 -26 -8.5 -44t-26 -26.5t-44.5 -8.5h-32v-147q0 -19 6 -25t25 -6h135q20 0 27 7.5t7 26.5l11 -46q0 -27 -10 -37t-33 -10h-158q-40 0 -59.5 19.5t-19.5 59.5v217h80q20 0 25.5 6t5.5 25v126q0 21 -6.5 26.5t-39.5 5.5l80 8q17 0 26 -7t9 -28v-142z" />
    <glyph glyph-name="chrdeva" horiz-adv-x="501" 
d="M521 563h-541v59h541v-59zM358 173h-36q-40 0 -59.5 19.5t-19.5 59.5v154q0 40 19.5 59.5t59.5 19.5h52q40 0 59.5 -19.5t19.5 -59.5v-327q0 -40 -19.5 -59.5t-59.5 -19.5h-240q-40 0 -59.5 19.5t-19.5 59.5v181q0 22 10 33.5t27 12.5v2q-17 2 -27 13.5t-10 33.5v182
q0 27 15 30.5t41 1.5l74 -7q-40 2 -50.5 -1t-10.5 -29v-163q0 -19 6 -25t25 -6h37v-59h-37q-19 0 -25 -5.5t-6 -25.5v-158q0 -19 6 -25t25 -6h203q20 0 25.5 6t5.5 25v305q0 20 -5.5 25.5t-25.5 5.5h-20q-19 0 -25 -5.5t-6 -25.5v-132q0 -19 6 -25t25 -6h20v-59zM206 24h99
l86 -164h-72l-63 130l-65 -130h-72z" />
    <glyph glyph-name="chryadeva" horiz-adv-x="928" 
d="M55 537q0 27 15 30.5t41 1.5l74 -7q-40 2 -50.5 -1t-10.5 -29v-163q0 -19 6 -25t25 -6h37v-59h-37q-19 0 -25 -5.5t-6 -25.5v-158q0 -19 6 -25t25 -6h203q20 0 25.5 6t5.5 25v305q0 20 -5.5 25.5t-25.5 5.5h-20q-19 0 -25 -5.5t-6 -25.5v-132q0 -19 6 -25t25 -6h20v-59
h-36q-40 0 -59.5 19.5t-19.5 59.5v154q0 40 19.5 59.5t59.5 19.5h52q40 0 59.5 -19.5t19.5 -59.5v-327q0 -40 -19.5 -59.5t-59.5 -19.5h-240q-40 0 -59.5 19.5t-19.5 59.5v181q0 22 10 33.5t27 12.5v2q-17 2 -27 13.5t-10 33.5v182zM804 592h69v-592h-69v592zM948 622v-59
h-968v59h968zM815 125q0 -27 -10 -37t-33 -10h-158q-40 0 -59.5 19.5t-19.5 59.5v127h80q20 0 25.5 6t5.5 25v80q0 20 -5.5 25.5t-25.5 5.5h-182l-84 59h287q27 0 44.5 -8.5t26 -26t8.5 -44.5v-102q0 -26 -8.5 -44t-26 -26.5t-44.5 -8.5h-32v-57q0 -19 6 -25t25 -6h135
q20 0 27 7.5t7 26.5zM202 24h99l86 -164h-72l-63 130l-65 -130h-72z" />
    <glyph glyph-name="chradeva" horiz-adv-x="501" 
d="M-20 622h541v-59h-541v59zM318 591h64v-126h-64v126zM55 537q0 27 15 30.5t41 1.5l74 -7q-40 2 -50.5 -1t-10.5 -29v-163q0 -19 6 -25t25 -6h37v-59h-37q-19 0 -25 -5.5t-6 -25.5v-158q0 -19 6 -25t25 -6h203q20 0 25.5 6t5.5 25v305q0 20 -5.5 25.5t-25.5 5.5h-20
q-19 0 -25 -5.5t-6 -25.5v-132q0 -19 6 -25t25 -6h20v-59h-36q-40 0 -59.5 19.5t-19.5 59.5v154q0 40 19.5 59.5t59.5 19.5h52q40 0 59.5 -19.5t19.5 -59.5v-327q0 -40 -19.5 -59.5t-59.5 -19.5h-240q-40 0 -59.5 19.5t-19.5 59.5v181q0 22 10 33.5t27 12.5v2
q-17 2 -27 13.5t-10 33.5v182zM206 24h99l86 -164h-72l-63 130l-65 -130h-72z" />
    <glyph glyph-name="chyadeva" horiz-adv-x="928" 
d="M55 537q0 27 15 30.5t41 1.5l74 -7q-40 2 -50.5 -1t-10.5 -29v-163q0 -19 6 -25t25 -6h37v-59h-37q-19 0 -25 -5.5t-6 -25.5v-158q0 -19 6 -25t25 -6h203q20 0 25.5 6t5.5 25v305q0 20 -5.5 25.5t-25.5 5.5h-20q-19 0 -25 -5.5t-6 -25.5v-132q0 -19 6 -25t25 -6h20v-59
h-36q-40 0 -59.5 19.5t-19.5 59.5v154q0 40 19.5 59.5t59.5 19.5h52q40 0 59.5 -19.5t19.5 -59.5v-327q0 -40 -19.5 -59.5t-59.5 -19.5h-240q-40 0 -59.5 19.5t-19.5 59.5v181q0 22 10 33.5t27 12.5v2q-17 2 -27 13.5t-10 33.5v182zM804 592h69v-592h-69v592zM948 622v-59
h-968v59h968zM815 125q0 -27 -10 -37t-33 -10h-158q-40 0 -59.5 19.5t-19.5 59.5v127h80q20 0 25.5 6t5.5 25v80q0 20 -5.5 25.5t-25.5 5.5h-182l-84 59h287q27 0 44.5 -8.5t26 -26t8.5 -44.5v-102q0 -26 -8.5 -44t-26 -26.5t-44.5 -8.5h-32v-57q0 -19 6 -25t25 -6h135
q20 0 27 7.5t7 26.5z" />
    <glyph glyph-name="dbradeva" horiz-adv-x="379" 
d="M244 594h69v-168h-158q-19 0 -25 -5.5t-6 -25.5v-91q0 -19 6 -25t25 -6h74q20 0 25.5 5t5.5 21v48h69v-404h-69v69l-111 -120h-76l103 108h-43q-40 0 -59 21t-19 56v118q0 22 10 33.5t27 12.5v2q-17 2 -27 13.5t-10 33.5v116q0 40 19.5 59.5t59.5 19.5h110v109zM155 214
q-19 0 -25 -5.5t-6 -25.5v-96q0 -17 5.5 -22.5t22.5 -5.5h74q20 0 27 7.5t7 26.5v126q-17 -5 -36 -5h-69zM-10 622h399v-59h-399v59zM91 221h44l161 -169h-44z" />
    <glyph glyph-name="dbadeva" horiz-adv-x="379" 
d="M55 406q0 40 19.5 59.5t59.5 19.5h110v109h69v-168h-158q-19 0 -25 -5.5t-6 -25.5v-99q0 -19 6 -25t25 -6h74q20 0 25.5 5t5.5 21v48h69v-396h-69v65q-8 -8 -28 -8h-99q-40 0 -59 21t-19 56v110q0 22 10 33.5t27 12.5v2q-17 2 -27 13.5t-10 33.5v124zM155 206
q-19 0 -25 -5.5t-6 -25.5v-88q0 -17 5.5 -22.5t22.5 -5.5h78q17 0 23.5 6.5t6.5 24.5v121q-17 -5 -36 -5h-69zM-10 622h399v-59h-399v59zM91 210h44l161 -169h-44z" />
    <glyph glyph-name="dbhadeva" horiz-adv-x="476" 
d="M-20 622h516v-59h-516v59zM352 580h69v-184h-137q-19 0 -25 -5.5t-6 -25.5v-164q0 -19 6 -25t25 -6h41q20 0 27 7.5t7 26.5l11 -46q0 -27 -10 -37t-33 -10h-64q-40 0 -59.5 19.5t-19.5 59.5v186q0 40 19.5 59.5t59.5 19.5h89v125zM359 286h69v-286h-69v286zM126 -77h-69
v241q0 20 -5.5 25.5t-25.5 5.5h-9v59h30q40 0 59.5 -19.5t19.5 -59.5v-252zM109 0v59h186v-59h-186z" />
    <glyph glyph-name="ddadeva" horiz-adv-x="384" 
d="M-20 622h424v-59h-424v59zM260 266h69v-266h-69v266zM245 580h69v-154h-159q-19 0 -25 -5.5t-6 -25.5v-48q0 -19 6 -25t25 -6h56v-59h-56q-19 0 -25 -5.5t-6 -25.5v-58q0 -19 6 -25t25 -6h71q20 0 27 7.5t7 26.5l11 -46q0 -27 -10 -37t-33 -10h-94q-40 0 -59.5 19.5
t-19.5 59.5v81q0 22 10 33.5t27 12.5v2q-17 2 -27 13.5t-10 33.5v73q0 40 19.5 59.5t59.5 19.5h111v95z" />
    <glyph glyph-name="ddhadeva" horiz-adv-x="540" 
d="M359 19v-59h-225q-40 0 -59.5 19.5t-19.5 59.5v69q0 22 10 33.5t27 12.5v2q-17 2 -27 13.5t-10 33.5v73q0 40 19.5 59.5t59.5 19.5h57v-59h-36q-19 0 -25 -5.5t-6 -25.5v-48q0 -19 6 -25t25 -6h36v-59h-36q-19 0 -25 -5.5t-6 -25.5v-46q0 -19 6 -25t25 -6h204zM-20 622
h580v-59h-580v59zM416 580h69v-184h-137q-19 0 -25 -5.5t-6 -25.5v-204q0 -19 6 -25t25 -6h41q20 0 27 7.5t7 26.5l11 -46q0 -27 -10 -37t-33 -10h-64q-40 0 -59.5 19.5t-19.5 59.5v226q0 40 19.5 59.5t59.5 19.5h89v125zM423 257h69v-297h-69v297z" />
    <glyph glyph-name="dgradeva" horiz-adv-x="347" 
d="M234 -6l12 -62l-123 -114h-78zM177 78v-60q0 -32 -16 -49.5t-49 -17.5h-48v50h18q17 0 21.5 5t4.5 21v82zM230 266h69v-420h-69v420zM-20 622h394v-59h-394v59zM223 580h69v-154h-137q-19 0 -25 -5.5t-6 -25.5v-227q0 -19 6 -25t25 -6h41q20 0 27 7.5t7 26.5l11 -46
q0 -27 -10 -37t-33 -10h-64q-40 0 -59.5 19.5t-19.5 59.5v249q0 40 19.5 59.5t59.5 19.5h89v95z" />
    <glyph glyph-name="dgadeva" horiz-adv-x="347" 
d="M177 78v-60q0 -32 -16 -49.5t-49 -17.5h-48v50h18q17 0 21.5 5t4.5 21v82zM230 266h69v-357h-69v357zM-20 622h394v-59h-394v59zM223 580h69v-154h-137q-19 0 -25 -5.5t-6 -25.5v-227q0 -19 6 -25t25 -6h41q20 0 27 7.5t7 26.5l11 -46q0 -27 -10 -37t-33 -10h-64
q-40 0 -59.5 19.5t-19.5 59.5v249q0 40 19.5 59.5t59.5 19.5h89v95z" />
    <glyph glyph-name="dghadeva" horiz-adv-x="540" 
d="M359 19v-59h-225q-40 0 -59.5 19.5t-19.5 59.5v69q0 22 10 33.5t27 12.5v2q-17 2 -27 13.5t-10 33.5v73q0 40 19.5 59.5t59.5 19.5h137v-59h-116q-19 0 -25 -5.5t-6 -25.5v-48q0 -19 6 -25t25 -6h36v-59h-36q-19 0 -25 -5.5t-6 -25.5v-46q0 -19 6 -25t25 -6h204zM-20 622
h580v-59h-580v59zM416 580h69v-184h-137q-19 0 -25 -5.5t-6 -25.5v-204q0 -19 6 -25t25 -6h41q20 0 27 7.5t7 26.5l11 -46q0 -27 -10 -37t-33 -10h-64q-40 0 -59.5 19.5t-19.5 59.5v226q0 40 19.5 59.5t59.5 19.5h89v125zM423 257h69v-297h-69v297z" />
    <glyph glyph-name="dmadeva" horiz-adv-x="531" 
d="M218 580h69v-154h-137q-19 0 -25 -5.5t-6 -25.5v-167q0 -19 6 -25t25 -6h41q20 0 27 7.5t7 26.5l11 -46q0 -27 -10 -37t-33 -10h-64q-40 0 -59.5 19.5t-19.5 59.5v189q0 40 19.5 59.5t59.5 19.5h89v95zM225 296h69v-296h-69v296zM407 597h69v-597h-69v597zM-20 622h571
v-59h-571v59zM258 100v59h179v-59h-179z" />
    <glyph glyph-name="dnadeva" horiz-adv-x="347" 
d="M263 20v-59h-76q-19 0 -25 -5.5t-6 -25.5v-26h-69v37q0 40 19.5 59.5t59.5 19.5h97zM230 266h69v-404h-69v404zM-20 622h387v-59h-387v59zM223 580h69v-154h-137q-19 0 -25 -5.5t-6 -25.5v-227q0 -19 6 -25t25 -6h41q20 0 27 7.5t7 26.5l11 -46q0 -27 -10 -37t-33 -10
h-64q-40 0 -59.5 19.5t-19.5 59.5v249q0 40 19.5 59.5t59.5 19.5h89v95z" />
    <glyph glyph-name="drdeva" horiz-adv-x="347" 
d="M-20 622h387v-59h-387v59zM230 266h69v-266h-69v266zM55 406q0 40 19.5 59.5t59.5 19.5h89v95h69v-154h-137q-19 0 -25 -5.5t-6 -25.5v-197q0 -19 6 -25t25 -6h41q20 0 27 7.5t7 26.5l5 -76l-116 -175h-76l108 158h-12h-5q-79 0 -79 79v219zM297 -61l100 -130h-76
l-100 130h76z" />
    <glyph glyph-name="dradeva" horiz-adv-x="347" 
d="M-20 622h387v-59h-387v59zM230 266h69v-266h-69v266zM55 406q0 40 19.5 59.5t59.5 19.5h89v95h69v-154h-137q-19 0 -25 -5.5t-6 -25.5v-197q0 -19 6 -25t25 -6h41q20 0 27 7.5t7 26.5l5 -76l-116 -175h-76l108 158h-12h-5q-79 0 -79 79v219z" />
    <glyph glyph-name="dvadeva" horiz-adv-x="359" 
d="M45 406q0 40 19.5 59.5t59.5 19.5h119v109h69v-168h-167q-19 0 -25 -5.5t-6 -25.5v-99q0 -19 6 -25t25 -6h74q20 0 25.5 5t5.5 21v48h69v-396h-69v65q-8 -8 -28 -8h-99q-40 0 -59 21t-19 56v110q0 22 10 33.5t27 12.5v2q-17 2 -27 13.5t-10 33.5v124zM145 206
q-19 0 -25 -5.5t-6 -25.5v-88q0 -17 5.5 -22.5t22.5 -5.5h78q17 0 23.5 6.5t6.5 24.5v121q-17 -5 -36 -5h-69zM-20 622h399v-59h-399v59z" />
    <glyph glyph-name="dyadeva" horiz-adv-x="443" 
d="M-20 622h483v-59h-483v59zM319 576h69v-576h-69v576zM161 580h69v-154h-80q-19 0 -25 -5.5t-6 -25.5v-48q0 -19 6 -25t25 -6h56v-59h-56q-19 0 -25 -5.5t-6 -25.5v-58q0 -19 6 -25t25 -6h135q20 0 27 7.5t7 26.5l11 -46q0 -27 -10 -37t-33 -10h-158q-40 0 -59.5 19.5
t-19.5 59.5v81q0 22 10 33.5t27 12.5v2q-17 2 -27 13.5t-10 33.5v73q0 40 19.5 59.5t59.5 19.5h32v95z" />
    <glyph glyph-name="ddddadeva" horiz-adv-x="369" 
d="M-20 622h409v-59h-409v59zM252 594h69v-168h-171q-19 0 -25 -5.5t-6 -25.5v-18q0 -19 6 -25t25 -6h102q40 0 59.5 -19.5t19.5 -59.5v-47q0 -40 -19.5 -59.5t-59.5 -19.5h-114q-19 0 -25 -5.5t-6 -25.5v-18q0 -19 6 -25t25 -6h114q40 0 59.5 -19.5t19.5 -59.5v-46
q0 -40 -19.5 -59.5t-59.5 -19.5h-135q-40 0 -59.5 19.5t-19.5 59.5v23h69v-12q0 -19 6 -25t25 -6h93q20 0 25.5 6t5.5 25v24q0 20 -5.5 25.5t-25.5 5.5h-114q-26 0 -44 8.5t-26.5 26.5t-8.5 44v40q0 22 10 33.5t27 12.5v2q-17 2 -27 13.5t-10 33.5v40h69v-25q0 -19 6 -25
t25 -6h93q20 0 25.5 6t5.5 25v25q0 20 -5.5 25.5t-25.5 5.5h-102q-40 0 -59.5 19.5t-19.5 59.5v40q0 40 19.5 59.5t59.5 19.5h123v109z" />
    <glyph glyph-name="ddddhadeva" horiz-adv-x="369" 
d="M-20 622h409v-59h-409v59zM252 594h69v-168h-171q-19 0 -25 -5.5t-6 -25.5v-18q0 -19 6 -25t25 -6h102q40 0 59.5 -19.5t19.5 -59.5v-47q0 -40 -19.5 -59.5t-59.5 -19.5h-114q-19 0 -25 -5.5t-6 -25.5v-163q0 -19 6 -25t25 -6h93q20 0 25.5 6t5.5 25v24q0 20 -5.5 25.5
t-25.5 5.5h-70v59h91q40 0 59.5 -19.5t19.5 -59.5v-46q0 -40 -19.5 -59.5t-59.5 -19.5h-135q-40 0 -59.5 19.5t-19.5 59.5v185q0 22 10 33.5t27 12.5v2q-17 2 -27 13.5t-10 33.5v40h69v-25q0 -19 6 -25t25 -6h93q20 0 25.5 6t5.5 25v25q0 20 -5.5 25.5t-25.5 5.5h-102
q-40 0 -59.5 19.5t-19.5 59.5v40q0 40 19.5 59.5t59.5 19.5h123v109z" />
    <glyph glyph-name="ddrdeva" horiz-adv-x="351" 
d="M207 -152l100 -130h-76l-100 130h76zM-20 622h391v-59h-391v59zM212 594h69v-168h-121q-19 0 -25 -5.5t-6 -25.5v-70q0 -19 6 -25t25 -6h52q40 0 59.5 -19.5t19.5 -59.5v-136q0 -40 -19.5 -59.5t-59.5 -19.5h-85q-40 0 -59.5 19.5t-19.5 59.5v86h69v-75q0 -19 6 -25
t25 -6h43q20 0 25.5 6t5.5 25v114q0 20 -5.5 25.5t-25.5 5.5h-52q-40 0 -59.5 19.5t-19.5 59.5v92q0 40 19.5 59.5t59.5 19.5h73v109zM124 24h99l86 -164h-72l-63 130l-65 -130h-72z" />
    <glyph glyph-name="ddradeva" horiz-adv-x="351" 
d="M-20 622h391v-59h-391v59zM212 594h69v-168h-121q-19 0 -25 -5.5t-6 -25.5v-70q0 -19 6 -25t25 -6h52q40 0 59.5 -19.5t19.5 -59.5v-136q0 -40 -19.5 -59.5t-59.5 -19.5h-85q-40 0 -59.5 19.5t-19.5 59.5v86h69v-75q0 -19 6 -25t25 -6h43q20 0 25.5 6t5.5 25v114
q0 20 -5.5 25.5t-25.5 5.5h-52q-40 0 -59.5 19.5t-19.5 59.5v92q0 40 19.5 59.5t59.5 19.5h73v109zM124 24h99l86 -164h-72l-63 130l-65 -130h-72z" />
    <glyph glyph-name="ddvadeva" horiz-adv-x="359" 
d="M-20 622h399v-59h-399v59zM234 594h69v-168h-145q-19 0 -25 -5.5t-6 -25.5v-13q0 -16 6 -21t25 -5h82q40 0 59.5 -19.5t19.5 -59.5v-334h-69v65q-8 -8 -28 -8h-99q-40 0 -59 21t-19 56v55q0 22 10 33.5t27 12.5v2q-17 2 -27 13.5t-10 33.5v27h69v-13q0 -19 6 -25t25 -6
h74q20 0 25.5 5t5.5 21v35q0 16 -5.5 21t-25.5 5h-82q-40 0 -59.5 19.5t-19.5 59.5v30q0 40 19.5 59.5t59.5 19.5h97v109zM220 59q17 0 23.5 6.5t6.5 24.5v66q-17 -5 -36 -5h-69q-19 0 -25 -5.5t-6 -25.5v-33q0 -17 5.5 -22.5t22.5 -5.5h78z" />
    <glyph glyph-name="ddyadeva" horiz-adv-x="747" 
d="M623 592h69v-592h-69v592zM767 622v-59h-787v59h787zM634 125q0 -27 -10 -37t-33 -10h-158q-40 0 -59.5 19.5t-19.5 59.5v162h80q20 0 25.5 6t5.5 25v45q0 20 -5.5 25.5t-25.5 5.5h-183v59h204q27 0 44.5 -8.5t26 -26t8.5 -44.5v-67q0 -26 -8.5 -44t-26 -26.5t-44.5 -8.5
h-32v-92q0 -19 6 -25t25 -6h135q20 0 27 7.5t7 26.5zM212 594h69v-168h-121q-19 0 -25 -5.5t-6 -25.5v-70q0 -19 6 -25t25 -6h52q40 0 59.5 -19.5t19.5 -59.5v-136q0 -40 -19.5 -59.5t-59.5 -19.5h-85q-40 0 -59.5 19.5t-19.5 59.5v86h69v-75q0 -19 6 -25t25 -6h43
q20 0 25.5 6t5.5 25v114q0 20 -5.5 25.5t-25.5 5.5h-52q-40 0 -59.5 19.5t-19.5 59.5v92q0 40 19.5 59.5t59.5 19.5h73v109z" />
    <glyph glyph-name="ddhddhadeva" horiz-adv-x="377" 
d="M-20 622h417v-59h-417v59zM55 406q0 40 19.5 59.5t59.5 19.5h79v95h69v-154h-127q-19 0 -25 -5.5t-6 -25.5v-163q0 -19 6 -25t25 -6h93q20 0 25.5 6t5.5 25v24q0 20 -5.5 25.5t-25.5 5.5h-70v59h91q40 0 59.5 -19.5t19.5 -59.5v-46q0 -40 -19.5 -59.5t-59.5 -19.5h-114
q-19 0 -25 -5.5t-6 -25.5v-164q0 -19 6 -25t25 -6h93q20 0 25.5 6t5.5 25v19q0 20 -5.5 25.5t-25.5 5.5h-70v59h91q40 0 59.5 -19.5t19.5 -59.5v-41q0 -40 -19.5 -59.5t-59.5 -19.5h-135q-40 0 -59.5 19.5t-19.5 59.5v186q0 22 10 33.5t27 12.5v2q-17 2 -27 13.5t-10 33.5
v189z" />
    <glyph glyph-name="ddhrdeva" horiz-adv-x="377" 
d="M227 -152l100 -130h-76l-100 130h76zM-20 622h417v-59h-417v59zM213 580h69v-154h-127q-19 0 -25 -5.5t-6 -25.5v-305q0 -19 6 -25t25 -6h67q20 0 25.5 6t5.5 25v103q0 20 -5.5 25.5t-25.5 5.5h-41v59h62q40 0 59.5 -19.5t19.5 -59.5v-125q0 -40 -19.5 -59.5t-59.5 -19.5
h-109q-40 0 -59.5 19.5t-19.5 59.5v327q0 40 19.5 59.5t59.5 19.5h79v95zM140 24h99l86 -164h-72l-63 130l-65 -130h-72z" />
    <glyph glyph-name="ddhradeva" horiz-adv-x="377" 
d="M-20 622h417v-59h-417v59zM213 580h69v-154h-127q-19 0 -25 -5.5t-6 -25.5v-305q0 -19 6 -25t25 -6h67q20 0 25.5 6t5.5 25v103q0 20 -5.5 25.5t-25.5 5.5h-41v59h62q40 0 59.5 -19.5t19.5 -59.5v-125q0 -40 -19.5 -59.5t-59.5 -19.5h-109q-40 0 -59.5 19.5t-19.5 59.5
v327q0 40 19.5 59.5t59.5 19.5h79v95zM140 24h99l86 -164h-72l-63 130l-65 -130h-72z" />
    <glyph glyph-name="ddhvadeva" horiz-adv-x="377" 
d="M-20 622h417v-59h-417v59zM55 221v185q0 40 19.5 59.5t59.5 19.5h79v95h69v-154h-127q-19 0 -25 -5.5t-6 -25.5v-163q0 -19 6 -25t25 -6h93q20 0 25.5 6t5.5 25v24q0 20 -5.5 25.5t-25.5 5.5h-70v59h91q40 0 59.5 -19.5t19.5 -59.5v-46q0 -40 -19.5 -59.5t-59.5 -19.5
h-135q-40 0 -59.5 19.5t-19.5 59.5zM71 171h69v-134q0 -17 5.5 -22.5t22.5 -5.5h48q17 0 23.5 6.5t6.5 24.5v119h69v-256h-69v55q-8 -8 -28 -8h-69q-40 0 -59 21t-19 56v144z" />
    <glyph glyph-name="ddhyadeva" horiz-adv-x="778" 
d="M654 592h69v-592h-69v592zM798 622v-59h-818v59h818zM665 125q0 -27 -10 -37t-33 -10h-158q-40 0 -59.5 19.5t-19.5 59.5v162h80q20 0 25.5 6t5.5 25v45q0 20 -5.5 25.5t-25.5 5.5h-193v59h214q27 0 44.5 -8.5t26 -26t8.5 -44.5v-67q0 -26 -8.5 -44t-26 -26.5t-44.5 -8.5
h-32v-92q0 -19 6 -25t25 -6h135q20 0 27 7.5t7 26.5zM213 580h69v-154h-127q-19 0 -25 -5.5t-6 -25.5v-305q0 -19 6 -25t25 -6h67q20 0 25.5 6t5.5 25v103q0 20 -5.5 25.5t-25.5 5.5h-41v59h62q40 0 59.5 -19.5t19.5 -59.5v-125q0 -40 -19.5 -59.5t-59.5 -19.5h-109
q-40 0 -59.5 19.5t-19.5 59.5v327q0 40 19.5 59.5t59.5 19.5h79v95z" />
    <glyph glyph-name="dhmadeva" horiz-adv-x="804" 
d="M141 404q0 -19 6 -25t25 -6h68v-59h-68q-19 0 -25 -5.5t-6 -25.5v-115q0 -19 6 -25t25 -6h114q20 0 27 7.5t7 26.5l25 -46q0 -27 -10 -37t-33 -10h-151q-40 0 -59.5 19.5t-19.5 59.5v138q0 22 10 33.5t27 12.5v2q-17 2 -27 13.5t-10 33.5v158q0 40 19.5 59.5t59.5 19.5
h35q40 0 59.5 -19.5t19.5 -59.5v-56h-52v45q0 20 -5.5 25.5t-25.5 5.5h-10q-19 0 -25 -5.5t-6 -25.5v-133zM498 574h69v-417q0 -40 -19.5 -59.5t-59.5 -19.5h-89q-40 0 -59.5 19.5t-19.5 59.5v166q0 40 19.5 59.5t59.5 19.5h302v-59h-281q-19 0 -25 -5.5t-6 -25.5v-144
q0 -19 6 -25t25 -6h47q20 0 25.5 6t5.5 25v406zM680 597h69v-597h-69v597zM320 622h504v-59h-504v59z" />
    <glyph glyph-name="dhnyadeva" horiz-adv-x="1033" 
d="M320 622h733v-59h-733v59zM549 157q0 -40 -19.5 -59.5t-59.5 -19.5h-71q-40 0 -59.5 19.5t-19.5 59.5v189q0 40 19.5 59.5t59.5 19.5h256v-59h-235q-19 0 -25 -5.5t-6 -25.5v-167q0 -19 6 -25t25 -6h29q20 0 25.5 6t5.5 25v216h69v-227zM909 592h69v-592h-69v592z
M820 445q0 -26 -8.5 -44t-26 -26.5t-44.5 -8.5h-32v-198q0 -19 6 -25t25 -6h135q20 0 27 7.5t7 26.5l11 -46q0 -27 -10 -37t-33 -10h-158q-40 0 -59.5 19.5t-19.5 59.5v268h80q20 0 25.5 6t5.5 25v75q0 21 -6.5 26.5t-39.5 5.5l80 8q17 0 26 -7t9 -28v-91zM141 404
q0 -19 6 -25t25 -6h68v-59h-68q-19 0 -25 -5.5t-6 -25.5v-115q0 -19 6 -25t25 -6h114q20 0 27 7.5t7 26.5l25 -46q0 -27 -10 -37t-33 -10h-151q-40 0 -59.5 19.5t-19.5 59.5v138q0 22 10 33.5t27 12.5v2q-17 2 -27 13.5t-10 33.5v158q0 40 19.5 59.5t59.5 19.5h35
q40 0 59.5 -19.5t19.5 -59.5v-56h-52v45q0 20 -5.5 25.5t-25.5 5.5h-10q-19 0 -25 -5.5t-6 -25.5v-133z" />
    <glyph glyph-name="dhnadeva" horiz-adv-x="761" 
d="M141 404q0 -19 6 -25t25 -6h68v-59h-68q-19 0 -25 -5.5t-6 -25.5v-115q0 -19 6 -25t25 -6h114q20 0 27 7.5t7 26.5l25 -46q0 -27 -10 -37t-33 -10h-151q-40 0 -59.5 19.5t-19.5 59.5v138q0 22 10 33.5t27 12.5v2q-17 2 -27 13.5t-10 33.5v158q0 40 19.5 59.5t59.5 19.5
h35q40 0 59.5 -19.5t19.5 -59.5v-56h-52v45q0 20 -5.5 25.5t-25.5 5.5h-10q-19 0 -25 -5.5t-6 -25.5v-133zM637 597h69v-597h-69v597zM549 157q0 -40 -19.5 -59.5t-59.5 -19.5h-71q-40 0 -59.5 19.5t-19.5 59.5v249q0 40 19.5 59.5t59.5 19.5h259v-59h-238q-19 0 -25 -5.5
t-6 -25.5v-227q0 -19 6 -25t25 -6h29q20 0 25.5 6t5.5 25v276h69v-287zM320 622h461v-59h-461v59z" />
    <glyph glyph-name="dhrdeva" horiz-adv-x="295" 
d="M72 315q0 22 10 33.5t27 12.5v2q-17 2 -27 13.5t-10 33.5v138q0 40 19.5 59.5t59.5 19.5h35q40 0 59.5 -19.5t19.5 -59.5v-56h-52v45q0 20 -5.5 25.5t-25.5 5.5h-10q-19 0 -25 -5.5t-6 -25.5v-113q0 -19 6 -25t25 -6h68v-59h-68q-19 0 -25 -5.5t-6 -25.5v-105
q0 -19 6 -25t25 -6h153v-42l-116 -175h-76l108 158h-74h-16q-79 0 -79 79v128z" />
    <glyph glyph-name="dhradeva" horiz-adv-x="444" 
d="M320 622h144v-59h-144v59zM320 592h69v-592h-69v592zM72 315q0 22 10 33.5t27 12.5v2q-17 2 -27 13.5t-10 33.5v138q0 40 19.5 59.5t59.5 19.5h35q40 0 59.5 -19.5t19.5 -59.5v-56h-52v45q0 20 -5.5 25.5t-25.5 5.5h-10q-19 0 -25 -5.5t-6 -25.5v-113q0 -19 6 -25t25 -6
h68v-59h-68q-19 0 -25 -5.5t-6 -25.5v-105q0 -19 6 -25t25 -6h114q20 0 27 7.5t7 26.5l5 -76l-116 -175h-76l108 158h-74h-16q-79 0 -79 79v128z" />
    <glyph glyph-name="dhvadeva" horiz-adv-x="618" 
d="M141 404q0 -19 6 -25t25 -6h68v-59h-68q-19 0 -25 -5.5t-6 -25.5v-115q0 -19 6 -25t25 -6h114q20 0 27 7.5t7 26.5l25 -46q0 -27 -10 -37t-33 -10h-151q-40 0 -59.5 19.5t-19.5 59.5v138q0 22 10 33.5t27 12.5v2q-17 2 -27 13.5t-10 33.5v158q0 40 19.5 59.5t59.5 19.5
h35q40 0 59.5 -19.5t19.5 -59.5v-56h-52v45q0 20 -5.5 25.5t-25.5 5.5h-10q-19 0 -25 -5.5t-6 -25.5v-133zM320 622h318v-59h-318v59zM494 594h69v-594h-69v594zM454 485v-59h-34q-19 0 -25 -5.5t-6 -25.5v-227q0 -19 6 -25t25 -6h40q20 0 27 7.5t7 26.5l11 -46
q0 -27 -10 -37t-33 -10h-63q-40 0 -59.5 19.5t-19.5 59.5v249q0 40 19.5 59.5t59.5 19.5h55z" />
    <glyph glyph-name="dhyadeva" horiz-adv-x="713" 
d="M141 404q0 -19 6 -25t25 -6h68v-59h-68q-19 0 -25 -5.5t-6 -25.5v-115q0 -19 6 -25t25 -6h114q20 0 27 7.5t7 26.5l25 -46q0 -27 -10 -37t-33 -10h-151q-40 0 -59.5 19.5t-19.5 59.5v138q0 22 10 33.5t27 12.5v2q-17 2 -27 13.5t-10 33.5v158q0 40 19.5 59.5t59.5 19.5
h35q40 0 59.5 -19.5t19.5 -59.5v-56h-52v45q0 20 -5.5 25.5t-25.5 5.5h-10q-19 0 -25 -5.5t-6 -25.5v-133zM320 622h413v-59h-413v59zM589 592h69v-592h-69v592zM500 394q0 -26 -8.5 -44t-26 -26.5t-44.5 -8.5h-32v-147q0 -19 6 -25t25 -6h135q20 0 27 7.5t7 26.5l11 -46
q0 -27 -10 -37t-33 -10h-158q-40 0 -59.5 19.5t-19.5 59.5v217h80q20 0 25.5 6t5.5 25v126q0 21 -6.5 26.5t-39.5 5.5l80 8q17 0 26 -7t9 -28v-142z" />
    <glyph glyph-name="eMatraanusvaradeva" horiz-adv-x="0" 
d="M-194 813l143 -204h-69q-16 15 -39 43t-50 65l-68 96h83zM-108 802h73v-86h-73v86z" />
    <glyph glyph-name="eMatrarephanusvaradeva" horiz-adv-x="0" 
d="M-36 731h63v-66h-63v66zM-275 813h79l43 -61q17 -25 28.5 -47t18.5 -43h2q-6 20 -9 48t-3 45q0 40 19.5 59t59.5 19h45v-59h-34q-19 0 -25 -5t-6 -25v-135h-61q-16 15 -39 43t-50 65z" />
    <glyph glyph-name="eMatrarephdeva" horiz-adv-x="0" 
d="M-275 813h79l43 -61q17 -25 28.5 -47t18.5 -43h2q-6 20 -9 48t-3 45q0 40 19.5 59t59.5 19h45v-59h-34q-19 0 -25 -5t-6 -25v-135h-61q-16 15 -39 43t-50 65z" />
    <glyph glyph-name="eyelashdeva" horiz-adv-x="289" 
d="M309 374v-59h-125q-26 0 -44 8.5t-26.5 26.5t-8.5 44v73h69v-62q0 -19 6 -25t25 -6h104zM-20 622h329v-59h-329v59z" />
    <glyph glyph-name="eyelashhadeva" horiz-adv-x="507" 
d="M-20 622h557v-59h-557v59zM25 437h69v-62q0 -19 6 -25t25 -6h119l-45 -45v107q0 27 8.5 44.5t26 26t44.5 8.5h105v95h69v-154h-153q-19 0 -25 -5.5t-6 -25.5v-49q0 -19 6 -25t25 -6h84q40 0 59.5 -19.5t19.5 -59.5v-62h-69v51q0 20 -5.5 25.5t-25.5 5.5h-63
q-19 0 -25 -5.5t-6 -25.5v-135q0 -19 6 -25t25 -6h163v-59h-184q-40 0 -59.5 19.5t-19.5 59.5v158q0 22 10 33.5t27 12.5v2h-132q-26 0 -44 8.5t-26.5 26.5t-8.5 44v73z" />
    <glyph glyph-name="eyelashyadeva" horiz-adv-x="539" 
d="M-20 622h579v-59h-579v59zM415 592h69v-592h-69v592zM104 467v-62q0 -19 6 -25t25 -6h91q20 0 25.5 6t5.5 25v126q0 21 -6.5 26.5t-39.5 5.5l80 8q17 0 26 -7t9 -28v-142q0 -26 -8.5 -44t-26 -26.5t-44.5 -8.5h-32v-147q0 -19 6 -25t25 -6h135q20 0 27 7.5t7 26.5l11 -46
q0 -27 -10 -37t-33 -10h-158q-40 0 -59.5 19.5t-19.5 59.5v158h-32q-26 0 -44 8.5t-26.5 26.5t-8.5 44v73h69z" />
    <glyph glyph-name="ffadeva" horiz-adv-x="858" 
d="M222 592h69v-592h-69v592zM48 591h69v-423q0 -19 6 -25t25 -6h40q20 0 27 7.5t7 26.5l11 -46q0 -27 -10 -37t-33 -10h-63q-40 0 -59.5 19.5t-19.5 59.5v434zM430 455v-59h-105q-19 0 -26.5 -7t-7.5 -27l-11 46q0 27 10.5 37t32.5 10h107zM570 592h69v-592h-69v592z
M734 485q40 0 59.5 -19.5t19.5 -59.5v-249q0 -40 -19.5 -59.5t-59.5 -19.5h-55v59h34q20 0 25.5 6t5.5 25v227q0 20 -5.5 25.5t-25.5 5.5h-40q-19 0 -26.5 -7t-7.5 -27l-11 46q0 27 10.5 37t32.5 10h63zM-20 622h898v-59h-898v59zM396 591h69v-423q0 -19 6 -25t25 -6h40
q20 0 27 7.5t7 26.5l11 -46q0 -27 -10 -37t-33 -10h-63q-40 0 -59.5 19.5t-19.5 59.5v434zM95 1h73v-86h-73v86zM442 1h73v-86h-73v86z" />
    <glyph glyph-name="fradeva" horiz-adv-x="510" 
d="M222 592h69v-592h-69v592zM386 485q40 0 59.5 -19.5t19.5 -59.5v-249q0 -40 -19.5 -59.5t-59.5 -19.5h-55v59h34q20 0 25.5 6t5.5 25v227q0 20 -5.5 25.5t-25.5 5.5h-40q-19 0 -26.5 -7t-7.5 -27l-11 46q0 27 10.5 37t32.5 10h63zM-20 622h550v-59h-550v59zM48 591h69
v-393q0 -19 6 -25t25 -6h40q20 0 27 7.5t7 26.5l5 -76l-116 -175h-76l108 158h-10h-6q-79 0 -79 79v404zM167 -44h73v-86h-73v86z" />
    <glyph glyph-name="fsadeva" horiz-adv-x="859" 
d="M222 601h69v-601h-69v601zM48 599h69v-431q0 -19 6 -25t25 -6h40q20 0 27 7.5t7 26.5l11 -46q0 -27 -10 -37t-33 -10h-63q-40 0 -59.5 19.5t-19.5 59.5v442zM-20 622h899v-59h-272v7q17 0 26 -6t9 -27v-133q0 -31 -5.5 -49t-27.5 -23l-24 12h164v-59h-306v59h99
q20 0 25.5 6t5.5 25v157q0 20 -5.5 25.5t-25.5 5.5h-562v59zM736 582h68v-582h-68v582zM465 446v-356q0 -19 6 -25t25 -6h44q20 0 25.5 6t5.5 25v121h69v-132q0 -40 -19.5 -59.5t-59.5 -19.5h-86q-40 0 -59.5 19.5t-19.5 59.5v308h-71q-19 0 -26.5 -7t-7.5 -27l-11 46
q0 27 10.5 37t32.5 10h142zM83 3h73v-86h-73v86z" />
    <glyph glyph-name="ftadeva" horiz-adv-x="724" 
d="M222 592h69v-592h-69v592zM48 591h69v-423q0 -19 6 -25t25 -6h40q20 0 27 7.5t7 26.5l11 -46q0 -27 -10 -37t-33 -10h-63q-40 0 -59.5 19.5t-19.5 59.5v434zM522 485l-92 -59h-105q-19 0 -26.5 -7t-7.5 -27l-11 46q0 27 10.5 37t32.5 10h199zM669 604v-604h-69v604h69z
M-20 622h764v-59h-764v59zM634 485v-59h-138q-19 0 -25 -5.5t-6 -25.5v-302q0 -19 6 -25t25 -6h34v-62h-55q-40 0 -59.5 19.5t-19.5 59.5v327q0 40 19.5 59.5t59.5 19.5h159zM83 3h73v-86h-73v86z" />
    <glyph glyph-name="fzadeva" horiz-adv-x="841" 
d="M83 3h73v-86h-73v86zM481 3h73v-86h-73v86zM291 592v-592h-69v592h69zM117 591v-423q0 -19 6 -25t25 -6h40q20 0 27 7.5t7 26.5l11 -46q0 -27 -10 -37t-33 -10h-63q-40 0 -59.5 19.5t-19.5 59.5v434h69zM430 396h-105q-19 0 -26.5 -7t-7.5 -27l-11 46q0 27 10.5 37
t32.5 10h107v-59zM430 622v-59h-450v59h450zM717 592h69v-592h-69v592zM331 622h530v-59h-530v59zM396 485h69v-317q0 -19 6 -25t25 -6h34q20 0 25.5 6t5.5 25v317h194v-59h-125v-269q0 -40 -19.5 -59.5t-59.5 -19.5h-76q-40 0 -59.5 19.5t-19.5 59.5v328z" />
    <glyph glyph-name="gbadeva" horiz-adv-x="709" 
d="M354 622v-59h-374v59h374zM284 594v-437q0 -40 -19.5 -59.5t-59.5 -19.5h-91q-40 0 -59.5 19.5t-19.5 59.5v190q0 40 19.5 59.5t59.5 19.5h116v-59h-95q-19 0 -25 -5.5t-6 -25.5v-168q0 -19 6 -25t25 -6h49q20 0 25.5 6t5.5 25v426h69zM313 622h424v-59h-424v59zM553 485
v-59h-76l76 -140q13 -23 23.5 -45.5t16.5 -36.5l6 -14l-1.5 15t-3 45.5t-1.5 74.5v269h69v-594h-69v98l5 12l-95 178q-27 51 -39 79l-12 28v-227q0 -19 6 -25t25 -6h76q20 0 27 7.5t7 26.5l11 -46q0 -27 -10 -37t-33 -10h-99q-40 0 -59.5 19.5t-19.5 59.5v249
q0 40 19.5 59.5t59.5 19.5h91z" />
    <glyph glyph-name="gbhyadeva" horiz-adv-x="1128" 
d="M-20 622h368v-59h-368v59zM215 594h69v-437q0 -40 -19.5 -59.5t-59.5 -19.5h-91q-40 0 -59.5 19.5t-19.5 59.5v190q0 40 19.5 59.5t59.5 19.5h116v-59h-95q-19 0 -25 -5.5t-6 -25.5v-168q0 -19 6 -25t25 -6h49q20 0 25.5 6t5.5 25v426zM543 622q40 0 59.5 -19.5
t19.5 -59.5v-386q0 -40 -19.5 -59.5t-59.5 -19.5h-89q-40 0 -59.5 19.5t-19.5 59.5v165q0 40 19.5 59.5t59.5 19.5h301v-59h-280q-19 0 -25 -5.5t-6 -25.5v-143q0 -19 6 -25t25 -6h47q20 0 25.5 6t5.5 25v364q0 20 -5.5 25.5t-25.5 5.5h-39q-19 0 -25 -5.5t-6 -25.5v-56h-69
v67q0 40 19.5 59.5t59.5 19.5h81zM710 622h413v-59h-413v59zM979 592h69v-592h-69v592zM890 421q0 -26 -8.5 -44t-26 -26.5t-44.5 -8.5h-32v-174q0 -19 6 -25t25 -6h135q20 0 27 7.5t7 26.5l11 -46q0 -27 -10 -37t-33 -10h-158q-40 0 -59.5 19.5t-19.5 59.5v244h80
q20 0 25.5 6t5.5 25v99q0 21 -6.5 26.5t-39.5 5.5l80 8q17 0 26 -7t9 -28v-115z" />
    <glyph glyph-name="gbhadeva" horiz-adv-x="859" 
d="M-20 622h368v-59h-368v59zM215 594h69v-437q0 -40 -19.5 -59.5t-59.5 -19.5h-91q-40 0 -59.5 19.5t-19.5 59.5v190q0 40 19.5 59.5t59.5 19.5h116v-59h-95q-19 0 -25 -5.5t-6 -25.5v-168q0 -19 6 -25t25 -6h49q20 0 25.5 6t5.5 25v426zM735 597h69v-597h-69v597zM735 622
h144v-59h-144v59zM543 622q40 0 59.5 -19.5t19.5 -59.5v-386q0 -40 -19.5 -59.5t-59.5 -19.5h-89q-40 0 -59.5 19.5t-19.5 59.5v165q0 40 19.5 59.5t59.5 19.5h302v-59h-281q-19 0 -25 -5.5t-6 -25.5v-143q0 -19 6 -25t25 -6h47q20 0 25.5 6t5.5 25v364q0 20 -5.5 25.5
t-25.5 5.5h-39q-19 0 -25 -5.5t-6 -25.5v-56h-69v67q0 40 19.5 59.5t59.5 19.5h81z" />
    <glyph glyph-name="gdadeva" horiz-adv-x="679" 
d="M354 622v-59h-374v59h374zM284 594v-437q0 -40 -19.5 -59.5t-59.5 -19.5h-91q-40 0 -59.5 19.5t-19.5 59.5v190q0 40 19.5 59.5t59.5 19.5h116v-59h-95q-19 0 -25 -5.5t-6 -25.5v-168q0 -19 6 -25t25 -6h49q20 0 25.5 6t5.5 25v426h69zM305 622h387v-59h-387v59zM548 580
h69v-154h-137q-19 0 -25 -5.5t-6 -25.5v-227q0 -19 6 -25t25 -6h41q20 0 27 7.5t7 26.5l11 -46q0 -27 -10 -37t-33 -10h-64q-40 0 -59.5 19.5t-19.5 59.5v249q0 40 19.5 59.5t59.5 19.5h89v95zM555 266h69v-266h-69v266z" />
    <glyph glyph-name="gdhvadeva" horiz-adv-x="926" 
d="M-20 622h368v-59h-368v59zM215 594h69v-437q0 -40 -19.5 -59.5t-59.5 -19.5h-91q-40 0 -59.5 19.5t-19.5 59.5v190q0 40 19.5 59.5t59.5 19.5h116v-59h-95q-19 0 -25 -5.5t-6 -25.5v-168q0 -19 6 -25t25 -6h49q20 0 25.5 6t5.5 25v426zM449 404q0 -19 6 -25t25 -6h68v-59
h-68q-19 0 -25 -5.5t-6 -25.5v-115q0 -19 6 -25t25 -6h114q20 0 27 7.5t7 26.5l22 -46q0 -27 -10 -37t-33 -10h-148q-40 0 -59.5 19.5t-19.5 59.5v138q0 22 10 33.5t27 12.5v2q-17 2 -27 13.5t-10 33.5v158q0 40 19.5 59.5t59.5 19.5h35q40 0 59.5 -19.5t19.5 -59.5v-56h-52
v45q0 20 -5.5 25.5t-25.5 5.5h-10q-19 0 -25 -5.5t-6 -25.5v-133zM628 622h318v-59h-318v59zM802 594h69v-594h-69v594zM762 485v-59h-34q-19 0 -25 -5.5t-6 -25.5v-227q0 -19 6 -25t25 -6h40q20 0 27 7.5t7 26.5l11 -46q0 -27 -10 -37t-33 -10h-63q-40 0 -59.5 19.5
t-19.5 59.5v249q0 40 19.5 59.5t59.5 19.5h55z" />
    <glyph glyph-name="gdhyadeva" horiz-adv-x="1021" 
d="M-20 622h368v-59h-368v59zM215 594h69v-437q0 -40 -19.5 -59.5t-59.5 -19.5h-91q-40 0 -59.5 19.5t-19.5 59.5v190q0 40 19.5 59.5t59.5 19.5h116v-59h-95q-19 0 -25 -5.5t-6 -25.5v-168q0 -19 6 -25t25 -6h49q20 0 25.5 6t5.5 25v426zM449 404q0 -19 6 -25t25 -6h68v-59
h-68q-19 0 -25 -5.5t-6 -25.5v-115q0 -19 6 -25t25 -6h114q20 0 27 7.5t7 26.5l22 -46q0 -27 -10 -37t-33 -10h-148q-40 0 -59.5 19.5t-19.5 59.5v138q0 22 10 33.5t27 12.5v2q-17 2 -27 13.5t-10 33.5v158q0 40 19.5 59.5t59.5 19.5h35q40 0 59.5 -19.5t19.5 -59.5v-56h-52
v45q0 20 -5.5 25.5t-25.5 5.5h-10q-19 0 -25 -5.5t-6 -25.5v-133zM628 622h413v-59h-413v59zM897 592h69v-592h-69v592zM808 394q0 -26 -8.5 -44t-26 -26.5t-44.5 -8.5h-32v-147q0 -19 6 -25t25 -6h135q20 0 27 7.5t7 26.5l11 -46q0 -27 -10 -37t-33 -10h-158
q-40 0 -59.5 19.5t-19.5 59.5v217h80q20 0 25.5 6t5.5 25v126q0 21 -6.5 26.5t-39.5 5.5l80 8q17 0 26 -7t9 -28v-142z" />
    <glyph glyph-name="gdhadeva" horiz-adv-x="752" 
d="M-20 622h368v-59h-368v59zM215 594h69v-437q0 -40 -19.5 -59.5t-59.5 -19.5h-91q-40 0 -59.5 19.5t-19.5 59.5v190q0 40 19.5 59.5t59.5 19.5h116v-59h-95q-19 0 -25 -5.5t-6 -25.5v-168q0 -19 6 -25t25 -6h49q20 0 25.5 6t5.5 25v426zM628 622h144v-59h-144v59zM628 592
h69v-592h-69v592zM449 404q0 -19 6 -25t25 -6h68v-59h-68q-19 0 -25 -5.5t-6 -25.5v-115q0 -19 6 -25t25 -6h114q20 0 27 7.5t7 26.5l11 -46q0 -27 -10 -37t-33 -10h-137q-40 0 -59.5 19.5t-19.5 59.5v138q0 22 10 33.5t27 12.5v2q-17 2 -27 13.5t-10 33.5v158
q0 40 19.5 59.5t59.5 19.5h35q40 0 59.5 -19.5t19.5 -59.5v-56h-52v45q0 20 -5.5 25.5t-25.5 5.5h-10q-19 0 -25 -5.5t-6 -25.5v-133z" />
    <glyph glyph-name="ggadeva" horiz-adv-x="842" 
d="M354 622v-59h-374v59h374zM284 594v-437q0 -40 -19.5 -59.5t-59.5 -19.5h-91q-40 0 -59.5 19.5t-19.5 59.5v190q0 40 19.5 59.5t59.5 19.5h116v-59h-95q-19 0 -25 -5.5t-6 -25.5v-168q0 -19 6 -25t25 -6h49q20 0 25.5 6t5.5 25v426h69zM718 599h69v-599h-69v599zM310 622
h552v-59h-552v59zM545 594h69v-437q0 -40 -19.5 -59.5t-59.5 -19.5h-91q-40 0 -59.5 19.5t-19.5 59.5v190q0 40 19.5 59.5t59.5 19.5h116v-59h-95q-19 0 -25 -5.5t-6 -25.5v-168q0 -19 6 -25t25 -6h49q20 0 25.5 6t5.5 25v426z" />
    <glyph glyph-name="gghadeva" horiz-adv-x="754" 
d="M354 622v-59h-374v59h374zM284 594v-437q0 -40 -19.5 -59.5t-59.5 -19.5h-91q-40 0 -59.5 19.5t-19.5 59.5v190q0 40 19.5 59.5t59.5 19.5h116v-59h-95q-19 0 -25 -5.5t-6 -25.5v-168q0 -19 6 -25t25 -6h49q20 0 25.5 6t5.5 25v426h69zM386 532q0 26 15 32t41 6l74 -7
q-26 0 -39.5 -0.5t-17.5 -7t-4 -23.5v-122q0 -19 6 -25t25 -6h68v-59h-68q-19 0 -25 -5.5t-6 -25.5v-121q0 -19 6 -25t25 -6h110q20 0 27 7.5t7 26.5l11 -46q0 -27 -10 -37t-33 -10h-133q-40 0 -59.5 19.5t-19.5 59.5v144q0 22 10 33.5t27 12.5v2q-17 2 -27 13.5t-10 33.5
v136zM318 622h456v-59h-456v59zM630 592h69v-592h-69v592z" />
    <glyph glyph-name="gjadeva" horiz-adv-x="825" 
d="M354 622v-59h-374v59h374zM284 594v-437q0 -40 -19.5 -59.5t-59.5 -19.5h-91q-40 0 -59.5 19.5t-19.5 59.5v190q0 40 19.5 59.5t59.5 19.5h116v-59h-95q-19 0 -25 -5.5t-6 -25.5v-168q0 -19 6 -25t25 -6h49q20 0 25.5 6t5.5 25v426h69zM701 592h69v-592h-69v592zM315 622
h530v-59h-530v59zM380 485h69v-317q0 -19 6 -25t25 -6h34q20 0 25.5 6t5.5 25v317h194v-59h-125v-269q0 -40 -19.5 -59.5t-59.5 -19.5h-76q-40 0 -59.5 19.5t-19.5 59.5v328z" />
    </font>
</defs>
</svg>
