<?xml version="1.0" standalone="no"?>
<!DOCTYPE svg PUBLIC "-//W3C//DTD SVG 1.1//EN" "http://www.w3.org/Graphics/SVG/1.1/DTD/svg11.dtd" >
<svg xmlns="http://www.w3.org/2000/svg" xmlns:xlink="http://www.w3.org/1999/xlink" version="1.1">
<metadata>
Created by FontForge 20201107 at Tue Jul 25 15:38:30 2023
 By 
Copyright 2023 The Teko Project Authors (https://www.github.com/googlefonts/teko)
</metadata>
<defs>
<font id="Teko-Bold" horiz-adv-x="250" >
  <font-face 
    font-family="Teko"
    font-weight="700"
    font-stretch="normal"
    units-per-em="1000"
    panose-1="0 0 0 0 0 0 0 0 0 0"
    ascent="800"
    descent="-200"
    x-height="499"
    cap-height="642"
    bbox="-548 -475 2240 958"
    underline-thickness="50"
    underline-position="-125"
    unicode-range="U+000D-FEFF"
  />
<missing-glyph horiz-adv-x="756" 
d="M160 0v701h436v-701h-436zM241 625v-549h275v549h-275z" />
    <glyph glyph-name="fi" unicode="fi" horiz-adv-x="510" 
d="M470 0h-167v499h167v-499zM228 529v-529h-167v545q0 56 33.5 90t113.5 34h61v-118h-16q-13 0 -19 -5.5t-6 -16.5zM373 499v-125h-363v125h363zM303 551v118h167v-118h-167z" />
    <glyph glyph-name="fl" unicode="fl" horiz-adv-x="510" 
d="M228 529v-529h-167v545q0 56 33.5 90t113.5 34h61v-118h-16q-13 0 -19 -5.5t-6 -16.5zM373 499v-125h-363v125h363zM470 0h-166v669h166v-669z" />
    <glyph glyph-name=".notdef" horiz-adv-x="756" 
d="M160 0v701h436v-701h-436zM241 625v-549h275v549h-275z" />
    <glyph glyph-name=".null" horiz-adv-x="0" 
 />
    <glyph glyph-name="nonmarkingreturn" horiz-adv-x="333" 
 />
    <glyph glyph-name="NULL" horiz-adv-x="0" 
 />
    <glyph glyph-name="NULL" horiz-adv-x="0" 
 />
    <glyph glyph-name="CR" unicode="&#xd;" horiz-adv-x="200" 
 />
    <glyph glyph-name="space" unicode=" " horiz-adv-x="200" 
 />
    <glyph glyph-name="exclam" unicode="!" horiz-adv-x="297" 
d="M50 642h197l-30 -409h-137zM62 0v164h172v-164h-172z" />
    <glyph glyph-name="quotedbl" unicode="&#x22;" horiz-adv-x="434" 
d="M40 642h153v-266h-153v266zM241 642h153v-266h-153v266z" />
    <glyph glyph-name="numbersign" unicode="#" horiz-adv-x="678" 
d="M216 641h145l-144 -641h-146zM648 499v-110h-571v110h571zM462 0h-145l144 641h146zM30 142v110h571v-110h-571z" />
    <glyph glyph-name="dollar" unicode="$" horiz-adv-x="491" 
d="M328 576h-166v151h166v-151zM328 -84h-166v151h166v-151zM286 147v91q0 11 -6 16.5t-19 5.5h-96q-78 0 -106.5 35t-28.5 91v132q0 56 33 90t113 34h137q80 0 113 -34t33 -90v-77h-175v54q0 11 -6 16.5t-19 5.5h-29q-13 0 -19 -5.5t-6 -16.5v-95q0 -11 6 -16.5t19 -5.5h94
q78 0 107.5 -33t29.5 -89v-132q0 -56 -33 -90t-113 -34h-136q-80 0 -113.5 34t-33.5 90v77h175v-54q0 -11 6 -16.5t19 -5.5h29q13 0 19 5.5t6 16.5z" />
    <glyph glyph-name="percent" unicode="%" horiz-adv-x="898" 
d="M363 542v-183q0 -45 -26.5 -72.5t-91.5 -27.5h-102q-64 0 -91 27.5t-27 72.5v183q0 46 27 73t91 27h102q65 0 91.5 -27t26.5 -73zM873 283v-183q0 -45 -26.5 -72.5t-91.5 -27.5h-102q-64 0 -91 27.5t-27 72.5v183q0 46 27 73t91 27h102q65 0 91.5 -27t26.5 -73zM222 379
v143q0 9 -4.5 13.5t-15.5 4.5h-16q-10 0 -15 -4.5t-5 -13.5v-143q0 -9 5 -13t15 -4h16q11 0 15.5 4t4.5 13zM732 120v143q0 9 -4.5 13.5t-15.5 4.5h-16q-10 0 -15 -4.5t-5 -13.5v-143q0 -9 5 -13t15 -4h16q11 0 15.5 4t4.5 13zM568 642h127l-363 -642h-125z" />
    <glyph glyph-name="ampersand" unicode="&#x26;" horiz-adv-x="625" 
d="M662 -36h-174l-352 366q-38 40 -54 64.5t-16 55.5v68q0 56 33.5 90t113.5 34h117q80 0 112 -34t32 -90v-68q0 -39 -12 -64t-35.5 -43.5t-57.5 -39.5l-151 -86q-11 -7 -17 -15t-6 -23v-42q0 -11 6 -16.5t19 -5.5h214q13 0 19 5.5t6 16.5v114h138v-127q0 -56 -37.5 -90
t-117.5 -34h-265q-80 0 -113.5 34t-33.5 90v58q0 35 9 57.5t29.5 40t55.5 36.5l129 73q29 17 42.5 27.5t13.5 30.5v61q0 11 -6 16.5t-19 5.5h-23q-13 0 -19 -5.5t-6 -16.5v-65q0 -17 5 -27.5t20 -25t44 -45.5z" />
    <glyph glyph-name="quotesingle" unicode="'" horiz-adv-x="243" 
d="M40 642h163v-266h-163v266z" />
    <glyph glyph-name="parenleft" unicode="(" horiz-adv-x="337" 
d="M40 497q0 151 73.5 229t204.5 78h9v-145h-9q-27 0 -50.5 -14t-38 -48.5t-14.5 -96.5v-362q0 -62 14.5 -96.5t38 -48.5t50.5 -14h9v-145h-9q-131 0 -204.5 78t-73.5 229v356z" />
    <glyph glyph-name="parenright" unicode=")" horiz-adv-x="337" 
d="M297 141q0 -151 -73.5 -229t-204.5 -78h-9v145h9q28 0 51 14t37.5 48.5t14.5 96.5v362q0 62 -14.5 96.5t-37.5 48.5t-51 14h-9v145h9q131 0 204.5 -78t73.5 -229v-356z" />
    <glyph glyph-name="asterisk" unicode="*" horiz-adv-x="390" 
d="M211 476h-31l-11.5 16.5t-23.5 50t-12 83.5v16h125v-17q0 -49 -11.5 -82.5t-23.5 -50zM200 491l-9 -30l-19.5 -6t-55 -7t-83.5 15l-15 5l39 118l16 -5q47 -15 75 -36t40 -37.5zM183 485l25 -18v-20.5t-10 -54.5t-40 -75l-10 -13l-101 73l11 15q29 40 57.5 59.5t48 26.5z
M183 467l25 18l19.5 -6.5t49 -26.5t58.5 -61l10 -13l-101 -73l-11 14q-28 40 -38.5 73.5t-11 54zM200 461l-9 30l12 16.5t40.5 38t75.5 36.5l16 5l38 -118l-16 -6q-46 -15 -81.5 -14.5t-55.5 6.5z" />
    <glyph glyph-name="plus" unicode="+" horiz-adv-x="513" 
d="M15 257v125h483v-125h-483zM175 537h163v-435h-163v435z" />
    <glyph glyph-name="comma" unicode="," horiz-adv-x="252" 
d="M40 164h172v-90l-120 -223h-52v313z" />
    <glyph glyph-name="hyphen" unicode="-" horiz-adv-x="343" 
d="M20 245v115h303v-115h-303z" />
    <glyph glyph-name="period" unicode="." horiz-adv-x="252" 
d="M40 0v164h172v-164h-172z" />
    <glyph glyph-name="slash" unicode="/" horiz-adv-x="411" 
d="M287 702h144l-307 -762h-144z" />
    <glyph glyph-name="zero" unicode="0" horiz-adv-x="501" 
d="M464 518v-394q0 -56 -33.5 -90t-113.5 -34h-133q-80 0 -113.5 34t-33.5 90v394q0 56 33.5 90t113.5 34h133q80 0 113.5 -34t33.5 -90zM289 147v348q0 11 -6 16.5t-19 5.5h-27q-13 0 -19 -5.5t-6 -16.5v-348q0 -11 6 -16.5t19 -5.5h27q13 0 19 5.5t6 16.5z" />
    <glyph glyph-name="one" unicode="1" horiz-adv-x="323" 
d="M224 642v-125h-206v125h206zM108 642h175v-642h-175v642z" />
    <glyph glyph-name="two" unicode="2" horiz-adv-x="469" 
d="M198 495v-73h-175v96q0 56 33.5 90t113.5 34h121q80 0 114.5 -34t34.5 -90v-92q0 -52 -17.5 -88t-52.5 -74l-124 -139h194v-125h-412v114l190 204q30 32 40 54t10 55v68q0 11 -6 16.5t-19 5.5h-20q-13 0 -19 -5.5t-6 -16.5z" />
    <glyph glyph-name="three" unicode="3" horiz-adv-x="477" 
d="M200 495v-63h-175v86q0 56 33.5 90t113.5 34h123q80 0 113.5 -34t33.5 -90v-78q0 -39 -9.5 -68t-38.5 -45q29 -13 38.5 -39t9.5 -64v-100q0 -56 -33.5 -90t-113.5 -34h-123q-80 0 -113.5 34t-33.5 90v86h175v-63q0 -11 6 -16.5t19 -5.5h20q13 0 19 5.5t6 16.5v99
q0 11 -6 16.5t-19 5.5h-81v115h81q13 0 19 5.5t6 16.5v90q0 11 -6 16.5t-19 5.5h-20q-13 0 -19 -5.5t-6 -16.5z" />
    <glyph glyph-name="four" unicode="4" horiz-adv-x="507" 
d="M57 115v127h450v-127h-450zM10 115v155l241 372h176l-340 -527h-77zM275 369h164v-369h-164v369z" />
    <glyph glyph-name="five" unicode="5" horiz-adv-x="498" 
d="M215 225v-78q0 -11 6 -16.5t19 -5.5h31q13 0 19 5.5t6 16.5v129q0 11 -6 16.5t-19 5.5h-120v125h170q80 0 113.5 -34t33.5 -90v-175q0 -56 -33.5 -90t-113.5 -34h-134q-80 0 -113.5 34t-33.5 90v101h175zM220 298h-172v344h410v-125h-238v-219z" />
    <glyph glyph-name="six" unicode="6" horiz-adv-x="494" 
d="M294 147v96q0 11 -6 16.5t-19 5.5h-105v120h153q80 0 113.5 -34t33.5 -90v-137q0 -56 -33.5 -90t-113.5 -34h-71v125h23q13 0 19 5.5t6 16.5zM207 495v-348q0 -11 6 -16.5t19 -5.5h23v-125h-71q-80 0 -113.5 34t-33.5 90v394q0 56 33.5 90t113.5 34h71v-125h-23
q-13 0 -19 -5.5t-6 -16.5zM284 446v49q0 11 -6 16.5t-19 5.5h-19v125h67q80 0 113.5 -34t33.5 -90v-72h-170z" />
    <glyph glyph-name="seven" unicode="7" horiz-adv-x="422" 
d="M379 642v-135h-369v135h369zM417 642v-95l-195 -547h-181l239 642h137z" />
    <glyph glyph-name="eight" unicode="8" horiz-adv-x="498" 
d="M202 251v-106q0 -11 6 -16.5t19 -5.5h31v-123h-76q-80 0 -113.5 34t-33.5 90v100q0 38 9.5 64t37.5 39q-28 16 -37.5 45t-9.5 68v78q0 56 33.5 90t113.5 34h73v-123h-28q-13 0 -19 -5.5t-6 -16.5v-97q0 -11 6 -16.5t19 -5.5h24v-105h-24q-13 0 -19 -5.5t-6 -16.5z
M296 400v97q0 11 -6 16.5t-19 5.5h-21v123h66q80 0 113.5 -34t33.5 -90v-78q0 -39 -9.5 -68t-38.5 -45q29 -13 38.5 -39t9.5 -64v-100q0 -56 -33.5 -90t-113.5 -34h-63v123h18q13 0 19 5.5t6 16.5v106q0 11 -6 16.5t-19 5.5h-25v105h25q13 0 19 5.5t6 16.5z" />
    <glyph glyph-name="nine" unicode="9" horiz-adv-x="494" 
d="M200 495v-111q0 -11 6 -16.5t19 -5.5h105v-115h-153q-80 0 -113.5 34t-33.5 90v147q0 56 33.5 90t113.5 34h71v-125h-23q-13 0 -19 -5.5t-6 -16.5zM287 147v348q0 11 -6 16.5t-19 5.5h-23v125h71q80 0 113.5 -34t33.5 -90v-394q0 -56 -33.5 -90t-113.5 -34h-71v125h23
q13 0 19 5.5t6 16.5zM208 191v-44q0 -11 6 -16.5t19 -5.5h21v-125h-69q-80 0 -113.5 34t-33.5 90v67h170z" />
    <glyph glyph-name="colon" unicode=":" horiz-adv-x="252" 
d="M40 335v164h172v-164h-172zM40 0v164h172v-164h-172z" />
    <glyph glyph-name="semicolon" unicode=";" horiz-adv-x="252" 
d="M40 164h172v-90l-120 -223h-52v313zM40 335v164h172v-164h-172z" />
    <glyph glyph-name="less" unicode="&#x3c;" horiz-adv-x="533" 
d="M508 402l-315 -79l315 -81v-136l-483 146v146l483 138v-134z" />
    <glyph glyph-name="equal" unicode="=" horiz-adv-x="533" 
d="M25 361v129h483v-129h-483zM25 149v129h483v-129h-483z" />
    <glyph glyph-name="greater" unicode="&#x3e;" horiz-adv-x="533" 
d="M340 323l-315 79v134l483 -138v-146l-483 -146v136z" />
    <glyph glyph-name="question" unicode="?" horiz-adv-x="469" 
d="M274 408v97q0 11 -6 16.5t-19 5.5h-22v115h75q80 0 113.5 -34t33.5 -90v-100q0 -56 -33.5 -90t-113.5 -34h-108v92h55q13 0 19 5.5t6 16.5zM139 386h177l-16 -153h-146zM139 0v164h172v-164h-172zM195 505v-68h-175v81q0 56 33.5 90t113.5 34h63v-115h-10q-13 0 -19 -5.5
t-6 -16.5z" />
    <glyph glyph-name="at" unicode="@" horiz-adv-x="863" 
d="M247 324q0 51 28.5 82t92.5 31h16q35 0 55.5 -15.5t27.5 -42.5v58h135v-253h44q13 0 19 5.5t6 16.5v275q0 11 -6 16.5t-19 5.5h-431q-13 0 -19 -5.5t-6 -16.5v-448q0 -11 6 -16.5t19 -5.5h388v-115h-430q-71 0 -102 34t-31 90v474q0 56 31 90t102 34h513q71 0 101 -34
t30 -90v-290q0 -56 -31 -90t-102 -34h-216v61q-6 -28 -26.5 -44.5t-57.5 -16.5h-16q-64 0 -92.5 31t-28.5 82v131zM393 312v-107q0 -10 5.5 -15t16.5 -5h25q12 0 18 6.5t6 20.5v93q0 14 -6 20.5t-18 6.5h-25q-11 0 -16.5 -4.5t-5.5 -15.5z" />
    <glyph glyph-name="A" unicode="A" horiz-adv-x="543" 
d="M433 220v-124h-321v124h321zM543 0h-176l-96 451l-99 -451h-172l165 642h213z" />
    <glyph glyph-name="B" unicode="B" horiz-adv-x="516" 
d="M40 642h294q80 0 113.5 -34t33.5 -90v-82q0 -39 -9.5 -68t-38.5 -45q29 -13 38.5 -39t9.5 -64v-96q0 -56 -33.5 -90t-113.5 -34h-294v642zM309 137v105q0 11 -6 16.5t-19 5.5h-72v-149h72q13 0 19 5.5t6 16.5zM309 401v104q0 11 -6 16.5t-19 5.5h-72v-148h72q13 0 19 5.5
t6 16.5z" />
    <glyph glyph-name="C" unicode="C" horiz-adv-x="495" 
d="M210 505v-368q0 -11 6 -16.5t19 -5.5h26v-115h-79q-80 0 -113.5 34t-33.5 90v394q0 56 33.5 90t113.5 34h79v-115h-26q-13 0 -19 -5.5t-6 -16.5zM295 402v103q0 11 -6 16.5t-19 5.5h-26v115h79q80 0 113.5 -34t33.5 -90v-116h-175zM295 137v99h175v-112q0 -56 -33.5 -90
t-113.5 -34h-79v115h26q13 0 19 5.5t6 16.5z" />
    <glyph glyph-name="D" unicode="D" horiz-adv-x="529" 
d="M317 374v131q0 11 -6 16.5t-19 5.5h-184v115h237q80 0 113.5 -34t33.5 -90v-144h-175zM317 137v250h175v-263q0 -56 -33.5 -90t-113.5 -34h-237v115h184q13 0 19 5.5t6 16.5zM50 642h175v-642h-175v642z" />
    <glyph glyph-name="E" unicode="E" horiz-adv-x="449" 
d="M40 642h175v-642h-175v642zM396 386v-125h-281v125h281zM425 642v-125h-323v125h323zM434 125v-125h-332v125h332z" />
    <glyph glyph-name="F" unicode="F" horiz-adv-x="440" 
d="M40 642h175v-642h-175v642zM397 361v-115h-281v115h281zM425 642v-125h-323v125h323z" />
    <glyph glyph-name="G" unicode="G" horiz-adv-x="501" 
d="M210 505v-368q0 -11 6 -16.5t19 -5.5h23v-115h-76q-80 0 -113.5 34t-33.5 90v394q0 56 33.5 90t113.5 34h80v-115h-27q-13 0 -19 -5.5t-6 -16.5zM471 355v-111h-225v111h225zM296 422v83q0 11 -6 16.5t-19 5.5h-27v115h80q80 0 113.5 -34t33.5 -90v-96h-175zM296 137v141
h175v-154q0 -56 -33.5 -90t-113.5 -34h-76v115h23q13 0 19 5.5t6 16.5z" />
    <glyph glyph-name="H" unicode="H" horiz-adv-x="550" 
d="M360 379v-125h-180v125h180zM40 642h172v-642h-172v642zM338 642h172v-642h-172v642z" />
    <glyph glyph-name="I" unicode="I" horiz-adv-x="255" 
d="M40 642h175v-642h-175v642z" />
    <glyph glyph-name="J" unicode="J" horiz-adv-x="457" 
d="M10 257h175v-110q0 -11 6 -16.5t19 -5.5h11q13 0 19 5.5t6 16.5v495h175v-518q0 -56 -33.5 -90t-113.5 -34h-117q-80 0 -113.5 34t-33.5 90v133z" />
    <glyph glyph-name="K" unicode="K" horiz-adv-x="530" 
d="M216 328h182l126 -328h-188zM398 328h-182l119 314h188zM40 642h175v-642h-175v642z" />
    <glyph glyph-name="L" unicode="L" horiz-adv-x="414" 
d="M40 642h175v-642h-175v642zM98 0v125h316v-125h-316z" />
    <glyph glyph-name="M" unicode="M" horiz-adv-x="670" 
d="M395 139h-120l-79 267v-406h-156v642h191l104 -343l104 343h191v-642h-155v408z" />
    <glyph glyph-name="N" unicode="N" horiz-adv-x="533" 
d="M333 642h160v-642h-150l-143 337v-337h-160v642h150l143 -343v343z" />
    <glyph glyph-name="O" unicode="O" horiz-adv-x="516" 
d="M304 374v121q0 11 -6 16.5t-19 5.5h-33v125h86q80 0 113.5 -34t33.5 -90v-144h-175zM304 147v240h175v-263q0 -56 -33.5 -90t-113.5 -34h-86v125h33q13 0 19 5.5t6 16.5zM212 495v-121h-175v144q0 56 33.5 90t113.5 34h86v-125h-33q-13 0 -19 -5.5t-6 -16.5zM212 387
v-240q0 -11 6 -16.5t19 -5.5h33v-125h-86q-80 0 -113.5 34t-33.5 90v263h175z" />
    <glyph glyph-name="P" unicode="P" horiz-adv-x="504" 
d="M309 357v138q0 11 -6 16.5t-19 5.5h-186v125h239q80 0 113.5 -34t33.5 -90v-184q0 -56 -33.5 -90t-113.5 -34h-239v125h186q13 0 19 5.5t6 16.5zM40 642h175v-642h-175v642z" />
    <glyph glyph-name="Q" unicode="Q" horiz-adv-x="516" 
d="M304 374v121q0 11 -6 16.5t-19 5.5h-33v125h86q80 0 113.5 -34t33.5 -90v-144h-175zM304 147v240h175v-263q0 -56 -33.5 -90t-113.5 -34h-86v125h33q13 0 19 5.5t6 16.5zM212 495v-121h-175v144q0 56 33.5 90t113.5 34h86v-125h-33q-13 0 -19 -5.5t-6 -16.5zM212 387
v-240q0 -11 6 -16.5t19 -5.5h33v-125h-86q-80 0 -113.5 34t-33.5 90v263h175zM158 125h196l181 -193h-199z" />
    <glyph glyph-name="R" unicode="R" horiz-adv-x="514" 
d="M309 369v126q0 11 -6 16.5t-19 5.5h-186v125h239q80 0 113.5 -34t33.5 -90v-166q0 -56 -33.5 -90t-113.5 -34h-239v119h186q13 0 19 5.5t6 16.5zM40 642h175v-642h-175v642zM195 298h171l150 -298h-188z" />
    <glyph glyph-name="S" unicode="S" horiz-adv-x="491" 
d="M286 147v91q0 11 -6 16.5t-19 5.5h-96q-78 0 -106.5 35t-28.5 91v132q0 56 33 90t113 34h137q80 0 113 -34t33 -90v-77h-175v54q0 11 -6 16.5t-19 5.5h-29q-13 0 -19 -5.5t-6 -16.5v-95q0 -11 6 -16.5t19 -5.5h94q78 0 107.5 -33t29.5 -89v-132q0 -56 -33 -90t-113 -34
h-136q-80 0 -113.5 34t-33.5 90v77h175v-54q0 -11 6 -16.5t19 -5.5h29q13 0 19 5.5t6 16.5z" />
    <glyph glyph-name="T" unicode="T" horiz-adv-x="432" 
d="M128 582h175v-582h-175v582zM427 642v-125h-422v125h422z" />
    <glyph glyph-name="U" unicode="U" horiz-adv-x="522" 
d="M307 147v495h175v-518q0 -56 -33.5 -90t-113.5 -34h-86v125h33q13 0 19 5.5t6 16.5zM215 642v-495q0 -11 6 -16.5t19 -5.5h33v-125h-86q-80 0 -113.5 34t-33.5 90v518h175z" />
    <glyph glyph-name="V" unicode="V" horiz-adv-x="533" 
d="M344 642h182l-158 -642h-203l-158 642h182l77 -429z" />
    <glyph glyph-name="W" unicode="W" horiz-adv-x="836" 
d="M653 642h173l-136 -642h-201l-71 383l-71 -383h-201l-136 642h182l54 -432l86 432h171l86 -432z" />
    <glyph glyph-name="X" unicode="X" horiz-adv-x="521" 
d="M354 326l167 -326h-197l-69 180l-69 -180h-186l157 326l-153 316h198l53 -164l54 164h188z" />
    <glyph glyph-name="Y" unicode="Y" horiz-adv-x="519" 
d="M340 179h-151l-189 463h179l84 -271l78 271h178zM177 272h175v-272h-175v272z" />
    <glyph glyph-name="Z" unicode="Z" horiz-adv-x="464" 
d="M444 642v-125h-411v125h411zM261 517h183l-241 -392h-183zM437 125v-125h-417v125h417z" />
    <glyph glyph-name="bracketleft" unicode="[" horiz-adv-x="317" 
d="M99 666v125h208v-125h-208zM40 791h175v-948h-175v948zM99 -157v125h208v-125h-208z" />
    <glyph glyph-name="backslash" unicode="\" horiz-adv-x="411" 
d="M-20 702h144l307 -762h-144z" />
    <glyph glyph-name="bracketright" unicode="]" horiz-adv-x="317" 
d="M218 791v-125h-208v125h208zM102 791h175v-948h-175v948zM218 -32v-125h-208v125h208z" />
    <glyph glyph-name="asciicircum" unicode="^" horiz-adv-x="704" 
d="M214 669h232l122 -389h-177l-61 245l-61 -245h-177z" />
    <glyph glyph-name="underscore" unicode="_" horiz-adv-x="474" 
d="M0 -155v115h474v-115h-474z" />
    <glyph glyph-name="grave" unicode="`" horiz-adv-x="500" 
d="M266 682l97 -150h-134l-133 150h170z" />
    <glyph glyph-name="a" unicode="a" horiz-adv-x="479" 
d="M200 240h-170v135q0 56 31 90t102 34h18q47 0 70.5 -25t23.5 -67v-90h-6v27q0 16 -6.5 23t-20.5 7h-17q-13 0 -19 -5.5t-6 -16.5v-112zM439 0h-170v404h3v95h167v-499zM30 259h170v-112q0 -11 6 -16.5t19 -5.5h17q14 0 20.5 7t6.5 23v27h6v-90q0 -42 -23.5 -67t-70.5 -25
h-18q-71 0 -102 34t-31 90v135z" />
    <glyph glyph-name="b" unicode="b" horiz-adv-x="479" 
d="M279 259h170v-135q0 -56 -31 -90t-102 -34h-18q-47 0 -70.5 25t-23.5 67v90h6v-27q0 -16 7 -23t20 -7h17q13 0 19 5.5t6 16.5v112zM449 240h-170v112q0 11 -6 16.5t-19 5.5h-17q-13 0 -20 -7t-7 -23v-27h-6v90q0 42 23.5 67t70.5 25h18q71 0 102 -34t31 -90v-135zM40 669
h170v-574h-3v-95h-167v669z" />
    <glyph glyph-name="c" unicode="c" horiz-adv-x="451" 
d="M200 352v-205q0 -11 6 -16.5t19 -5.5h20v-125h-68q-80 0 -113.5 34t-33.5 90v251q0 56 33.5 90t113.5 34h67v-125h-19q-13 0 -19 -5.5t-6 -16.5zM267 306v46q0 11 -6 16.5t-19 5.5h-12v125h54q80 0 113.5 -34t33.5 -90v-69h-164zM267 147v46h164v-69q0 -56 -33.5 -90
t-113.5 -34h-54v125h12q13 0 19 5.5t6 16.5z" />
    <glyph glyph-name="d" unicode="d" horiz-adv-x="479" 
d="M200 240h-170v135q0 56 31 90t102 34h18q47 0 70.5 -25t23.5 -67v-90h-6v27q0 16 -6.5 23t-20.5 7h-17q-13 0 -19 -5.5t-6 -16.5v-112zM269 669h170v-669h-167v95h-3v574zM30 259h170v-112q0 -11 6 -16.5t19 -5.5h17q14 0 20.5 7t6.5 23v27h6v-90q0 -42 -23.5 -67
t-70.5 -25h-18q-71 0 -102 34t-31 90v135z" />
    <glyph glyph-name="e" unicode="e" horiz-adv-x="471" 
d="M191 360v-221q0 -11 6 -16.5t19 -5.5h29v-117h-68q-80 0 -113.5 34t-33.5 90v251q0 56 33.5 90t113.5 34h67v-117h-28q-13 0 -19 -5.5t-6 -16.5zM285 227v133q0 11 -6 16.5t-19 5.5h-21v117h60q80 0 113.5 -34t33.5 -90v-148h-161zM285 141v28h161v-45q0 -56 -33.5 -90
t-113.5 -34h-60v117h21q13 0 19 6.5t6 17.5zM446 297v-92h-375v92h375z" />
    <glyph glyph-name="f" unicode="f" horiz-adv-x="314" 
d="M231 527v-527h-170v545q0 56 33.5 90t113.5 34h101v-120h-53q-13 0 -19 -5.5t-6 -16.5zM309 499v-125h-299v125h299z" />
    <glyph glyph-name="g" unicode="g" horiz-adv-x="479" 
d="M30 259h170v-82q0 -11 6 -16.5t19 -5.5h17q14 0 20.5 7t6.5 23v27h6v-90q0 -42 -23.5 -67t-70.5 -25h-18q-71 0 -102 34t-31 90v105zM200 240h-170v135q0 56 31 90t102 34h18q47 0 70.5 -25t23.5 -67v-90h-6v27q0 16 -6.5 23t-20.5 7h-17q-13 0 -19 -5.5t-6 -16.5v-112z
M269 13v28h170v-46q0 -56 -33.5 -90t-113.5 -34h-239v120h191q13 0 19 5.5t6 16.5zM439 30h-170v374h3v95h167v-469z" />
    <glyph glyph-name="h" unicode="h" horiz-adv-x="484" 
d="M449 0h-170v352q0 11 -6 16.5t-19 5.5h-17q-13 0 -20 -7t-7 -23v-27h-6v90q0 42 23.5 67t70.5 25h18q71 0 102 -34t31 -90v-375zM210 0h-170v669h170v-669z" />
    <glyph glyph-name="i" unicode="i" 
d="M210 0h-170v499h170v-499zM37 549v120h176v-120h-176z" />
    <glyph glyph-name="j" unicode="j" 
d="M40 13v486h170v-504q0 -56 -33.5 -90t-113.5 -34h-81v120h33q13 0 19 5.5t6 16.5zM37 549v120h176v-120h-176z" />
    <glyph glyph-name="k" unicode="k" horiz-adv-x="475" 
d="M210 0h-170v669h170v-669zM202 253h171l107 -253h-177zM373 253h-171l102 246h176z" />
    <glyph glyph-name="l" unicode="l" 
d="M210 0h-170v669h170v-669z" />
    <glyph glyph-name="m" unicode="m" horiz-adv-x="723" 
d="M449 0h-170v352q0 11 -6 16.5t-19 5.5h-17q-13 0 -20 -7t-7 -23v-27h-6v90q0 42 23.5 67t70.5 25h18q71 0 102 -34t31 -90v-375zM210 0h-170v499h167v-95h3v-404zM688 0h-170v352q0 11 -6 16.5t-19 5.5h-17q-13 0 -20 -7t-7 -23v-27h-6l-8 87q-4 42 25.5 68.5t76.5 26.5
h18q71 0 102 -34t31 -90v-375z" />
    <glyph glyph-name="n" unicode="n" horiz-adv-x="484" 
d="M210 0h-170v499h167v-95h3v-404zM449 0h-170v352q0 11 -6 16.5t-19 5.5h-17q-13 0 -20 -7t-7 -23v-27h-6v90q0 42 23.5 67t70.5 25h18q71 0 102 -34t31 -90v-375z" />
    <glyph glyph-name="o" unicode="o" horiz-adv-x="481" 
d="M279 231v128q0 11 -6 16.5t-19 5.5h-15v118h65q80 0 111 -34t31 -90v-144h-167zM279 140v104h167v-120q0 -56 -31 -90t-111 -34h-65v118h15q13 0 19 5.5t6 16.5zM202 359v-128h-167v144q0 56 31 90t111 34h65v-118h-15q-13 0 -19 -5.5t-6 -16.5zM202 244v-104
q0 -11 6 -16.5t19 -5.5h15v-118h-65q-80 0 -111 34t-31 90v120h167z" />
    <glyph glyph-name="p" unicode="p" horiz-adv-x="479" 
d="M449 240h-170v112q0 11 -6 16.5t-19 5.5h-17q-13 0 -20 -7t-7 -23v-27h-6v90q0 42 23.5 67t70.5 25h18q71 0 102 -34t31 -90v-135zM210 -129h-170v628h167v-95h3v-533zM279 259h170v-135q0 -56 -31 -90t-102 -34h-18q-47 0 -70.5 25t-23.5 67v90h6v-27q0 -16 7 -23t20 -7
h17q13 0 19 5.5t6 16.5v112z" />
    <glyph glyph-name="q" unicode="q" horiz-adv-x="479" 
d="M200 240h-170v135q0 56 31 90t102 34h18q47 0 70.5 -25t23.5 -67v-90h-6v27q0 16 -6.5 23t-20.5 7h-17q-13 0 -19 -5.5t-6 -16.5v-112zM439 -129h-170v533h3v95h167v-628zM30 259h170v-112q0 -11 6 -16.5t19 -5.5h17q14 0 20.5 7t6.5 23v27h6v-90q0 -42 -23.5 -67
t-70.5 -25h-18q-71 0 -102 34t-31 90v135z" />
    <glyph glyph-name="r" unicode="r" horiz-adv-x="335" 
d="M330 504v-148h-57q-63 0 -63 -68v-27h-6v131q0 34 13 59t38 39t60 14h15zM210 0h-170v499h167v-115l3 20v-404z" />
    <glyph glyph-name="s" unicode="s" horiz-adv-x="445" 
d="M255 132v40q0 11 -6 16.5t-19 5.5h-61q-80 0 -112 33.5t-32 89.5v58q0 56 33.5 90t113.5 34h93q80 0 113.5 -34t33.5 -90v-42h-162v34q0 11 -6 16.5t-19 5.5h-10q-13 0 -19 -5.5t-6 -16.5v-44q0 -11 6 -16.5t19 -5.5h61q80 0 112 -33t32 -89v-55q0 -56 -33.5 -90
t-113.5 -34h-98q-80 0 -113.5 34t-33.5 90v41h165v-33q0 -11 6 -16.5t19 -5.5h12q13 0 19 5.5t6 16.5z" />
    <glyph glyph-name="t" unicode="t" horiz-adv-x="303" 
d="M230 597v-450q0 -11 6 -16.5t19 -5.5h37v-125h-85q-80 0 -113.5 34t-33.5 90v473h170zM293 499v-125h-288v125h288z" />
    <glyph glyph-name="u" unicode="u" horiz-adv-x="484" 
d="M35 499h170v-352q0 -11 6 -16.5t19 -5.5h17q14 0 20.5 7t6.5 23v27h6v-90q0 -42 -23.5 -67t-70.5 -25h-18q-71 0 -102 34t-31 90v375zM274 499h170v-499h-167v95h-3v404z" />
    <glyph glyph-name="v" unicode="v" horiz-adv-x="459" 
d="M169 499l61 -320l60 320h169l-128 -499h-203l-128 499h169z" />
    <glyph glyph-name="w" unicode="w" horiz-adv-x="679" 
d="M518 499h156l-107 -499h-169l-61 294l-62 -294h-169l-101 499h158l37 -315l65 315h149l58 -313z" />
    <glyph glyph-name="x" unicode="x" horiz-adv-x="447" 
d="M323 258l124 -258h-172l-54 148l-49 -148h-166l114 255l-120 244h178l43 -139l43 139h169z" />
    <glyph glyph-name="y" unicode="y" horiz-adv-x="464" 
d="M0 499h178l61 -304l54 304h171l-125 -489q-19 -65 -61 -102t-128 -37h-84v123h74q22 0 37 7.5t23 32.5l2 6h-65z" />
    <glyph glyph-name="z" unicode="z" horiz-adv-x="391" 
d="M371 499v-119h-348v119h348zM189 380h182l-182 -261h-179zM381 119v-119h-371v119h371z" />
    <glyph glyph-name="braceleft" unicode="{" horiz-adv-x="326" 
d="M265 654v-211q0 -61 -23 -89t-55 -36q35 -2 56.5 -31.5t21.5 -82.5v-223q0 -11 6 -16.5t19 -5.5h26v-115h-79q-80 0 -113.5 39t-33.5 95v202q0 41 -15 60.5t-52 19.5h-7v115h7q37 0 52 19.5t15 62.5v200q0 56 33.5 95t113.5 39h79v-115h-26q-13 0 -19 -5.5t-6 -16.5z" />
    <glyph glyph-name="bar" unicode="|" horiz-adv-x="266" 
d="M50 833h155v-1026h-155v1026z" />
    <glyph glyph-name="braceright" unicode="}" horiz-adv-x="326" 
d="M61 443v211q0 11 -6 16.5t-19 5.5h-26v115h79q80 0 113.5 -39t33.5 -95v-200q0 -43 15 -62.5t52 -19.5h7v-115h-7q-37 0 -52 -19.5t-15 -60.5v-202q0 -56 -33.5 -95t-113.5 -39h-79v115h26q13 0 19 5.5t6 16.5v223q0 53 22 82.5t56 31.5q-31 8 -54.5 36t-23.5 89z" />
    <glyph glyph-name="asciitilde" unicode="~" horiz-adv-x="719" 
d="M441 204q-27 0 -49 11.5t-40.5 27t-36.5 27t-36 11.5q-17 0 -22.5 -7.5t-5.5 -24.5v-45h-155v85q0 52 25.5 76t85.5 24h67q33 0 57.5 -11.5t43 -27t33.5 -27t28 -11.5q17 0 22.5 7.5t5.5 24.5v45h155v-85q0 -52 -25.5 -76t-85.5 -24h-67z" />
    <glyph glyph-name="uni00A0" unicode="&#xa0;" horiz-adv-x="200" 
 />
    <glyph glyph-name="exclamdown" unicode="&#xa1;" horiz-adv-x="297" 
d="M50 -143l30 409h137l30 -409h-197zM62 499h172v-164h-172v164z" />
    <glyph glyph-name="cent" unicode="&#xa2;" horiz-adv-x="451" 
d="M200 352v-205q0 -11 6 -16.5t19 -5.5h20v-125h-68q-80 0 -113.5 34t-33.5 90v251q0 56 33.5 90t113.5 34h67v-125h-19q-13 0 -19 -5.5t-6 -16.5zM267 306v46q0 11 -6 16.5t-19 5.5h-12v125h54q80 0 113.5 -34t33.5 -90v-69h-164zM267 147v46h164v-69q0 -56 -33.5 -90
t-113.5 -34h-54v125h12q13 0 19 5.5t6 16.5zM315 434h-165v145h165v-145zM315 -80h-165v151h165v-151z" />
    <glyph glyph-name="sterling" unicode="&#xa3;" horiz-adv-x="506" 
d="M239 495v-298q0 -24 -6 -42.5t-21 -29.5h279v-125h-471v116q32 5 38 25t6 57v320q0 56 33.5 90t113.5 34h129q80 0 113.5 -34t33.5 -90v-93h-175v70q0 11 -6 16.5t-19 5.5h-23q-13 0 -19 -5.5t-6 -16.5zM20 244v115h367v-115h-367z" />
    <glyph glyph-name="currency" unicode="&#xa4;" horiz-adv-x="595" 
d="M508 326v-52q0 -56 -15.5 -98t-55 -64.5t-111.5 -22.5h-75q-72 0 -111.5 22.5t-55 64.5t-15.5 98v52q0 57 15.5 98.5t55 64.5t111.5 23h75q72 0 111.5 -23t55 -64.5t15.5 -98.5zM280 198h15q38 0 57.5 13t19.5 63v51q0 50 -19.5 63.5t-57.5 13.5h-15q-39 0 -58 -13.5
t-19 -63.5v-51q0 -50 19 -63t58 -13zM241 480l-103 -101l-106 106l101 102zM434 379l-103 101l108 107l101 -102zM138 241l103 -101l-108 -107l-101 102zM331 140l103 101l106 -106l-101 -102z" />
    <glyph glyph-name="yen" unicode="&#xa5;" horiz-adv-x="529" 
d="M180 369v-105h-137v105h137zM492 369v-105h-137v105h137zM493 230v-105h-450v105h450zM345 179h-151l-189 463h179l84 -271l78 271h178zM182 272h175v-272h-175v272z" />
    <glyph glyph-name="brokenbar" unicode="&#xa6;" horiz-adv-x="266" 
d="M40 262h175v-355h-175v355zM215 378h-175v355h175v-355z" />
    <glyph glyph-name="section" unicode="&#xa7;" horiz-adv-x="540" 
d="M256 153v79h31q13 0 19 5.5t6 16.5v84q0 11 -6 16.5t-19 5.5h-71q-80 0 -113.5 34t-33.5 90v61q0 56 33.5 90t113.5 34h117q80 0 113.5 -34t33.5 -90v-33h-170v25q0 11 -6 16.5t-19 5.5h-21q-13 0 -19 -5.5t-6 -16.5v-40q0 -11 6 -16.5t19 -5.5h61q80 0 113.5 -34
t33.5 -90v-71q0 -61 -29 -94t-110 -33h-77zM284 424v-64h-31q-13 0 -19 -5.5t-6 -16.5v-84q0 -11 6 -16.5t19 -5.5h71q80 0 113.5 -34t33.5 -90v-61q0 -56 -33.5 -90t-113.5 -34h-117q-80 0 -113.5 34t-33.5 90v33h170v-25q0 -11 6 -16.5t19 -5.5h21q13 0 19 5.5t6 16.5v40
q0 11 -6 16.5t-19 5.5h-61q-80 0 -113.5 34t-33.5 90v57q0 61 29 93.5t109 32.5h78z" />
    <glyph glyph-name="dieresis" unicode="&#xa8;" horiz-adv-x="500" 
d="M54 542v130h152v-130h-152zM294 542v130h152v-130h-152z" />
    <glyph glyph-name="copyright" unicode="&#xa9;" horiz-adv-x="772" 
d="M742 338v-34q0 -90 -22 -158.5t-77.5 -107t-158.5 -38.5h-196q-102 0 -158 38.5t-78 107t-22 158.5v34q0 91 22 159t78 106.5t158 38.5h196q103 0 158.5 -38.5t77.5 -106.5t22 -159zM321 99h130q55 0 90.5 13.5t53 54t17.5 119.5v70q0 80 -17.5 120t-53 53.5t-90.5 13.5
h-130q-54 0 -90 -13.5t-53.5 -53.5t-17.5 -120v-70q0 -79 17.5 -119.5t53.5 -54t90 -13.5zM413 260v34h117v-54q0 -38 -23 -61.5t-78 -23.5h-84q-55 0 -78 23.5t-23 61.5v163q0 38 23 61.5t78 23.5h84q55 0 78 -23.5t23 -61.5v-53h-117v33q0 8 -4.5 11.5t-12.5 3.5h-18
q-9 0 -13 -3.5t-4 -11.5v-123q0 -7 4 -11t13 -4h18q8 0 12.5 4t4.5 11z" />
    <glyph glyph-name="ordfeminine" unicode="&#xaa;" horiz-adv-x="337" 
d="M130 459h-105v95q0 41 22 64.5t72 23.5h27q34 0 47.5 -17.5t13.5 -47.5v-60h-5v20q0 21 -19 21h-36q-9 0 -13 -4t-4 -12v-83zM307 289h-105v286h3v67h102v-353zM25 472h105v-81q0 -8 4 -12t13 -4h36q10 0 14.5 5.5t4.5 16.5v19h5v-62q0 -30 -11.5 -47.5t-45.5 -17.5h-31
q-50 0 -72 24t-22 64v95z" />
    <glyph glyph-name="guillemotleft" unicode="&#xab;" horiz-adv-x="501" 
d="M125 96l-110 153l110 151h159l-107 -151l107 -153h-159zM337 96l-110 153l110 151h159l-107 -151l107 -153h-159z" />
    <glyph glyph-name="logicalnot" unicode="&#xac;" horiz-adv-x="567" 
d="M442 417v-175h-392v175h392zM507 101h-115v316h115v-316z" />
    <glyph glyph-name="uni00AD" unicode="&#xad;" horiz-adv-x="343" 
d="M20 245v115h303v-115h-303z" />
    <glyph glyph-name="registered" unicode="&#xae;" horiz-adv-x="478" 
d="M448 556v-19q0 -53 -13 -93.5t-46 -63t-93 -22.5h-115q-60 0 -92.5 22.5t-45.5 63t-13 93.5v19q0 54 13 94t45.5 62.5t92.5 22.5h115q60 0 93 -22.5t46 -62.5t13 -94zM201 420h76q32 0 53 7t31 30t10 69v42q0 46 -10 68.5t-31 29.5t-53 7h-76q-32 0 -53 -7t-31.5 -29.5
t-10.5 -68.5v-42q0 -46 10.5 -69t31.5 -30t53 -7zM169 642h96q26 0 37 -11t11 -29v-42q0 -30 -27 -39l39 -68h-62l-33 66h-4v-66h-57v189zM256 567v28q0 7 -8 7h-22v-42h22q8 0 8 7z" />
    <glyph glyph-name="macron" unicode="&#xaf;" horiz-adv-x="500" 
d="M55 555v106h389v-106h-389z" />
    <glyph glyph-name="degree" unicode="&#xb0;" horiz-adv-x="484" 
d="M444 518v-91q0 -56 -31 -90t-111 -34h-120q-80 0 -111 34t-31 90v91q0 56 31 90t111 34h120q80 0 111 -34t31 -90zM286 430v85q0 11 -6 16.5t-19 5.5h-38q-13 0 -19 -5.5t-6 -16.5v-85q0 -11 6 -16.5t19 -5.5h38q13 0 19 5.5t6 16.5z" />
    <glyph glyph-name="plusminus" unicode="&#xb1;" horiz-adv-x="533" 
d="M25 371v121h483v-121h-483zM185 567h163v-271h-163v271zM25 139v125h483v-125h-483z" />
    <glyph glyph-name="uni00B2" unicode="&#xb2;" horiz-adv-x="287" 
d="M119 561v-50h-106v63q0 31 18.5 49.5t62.5 18.5h88q44 0 62 -18.5t18 -49.5v-42q0 -37 -11.5 -61.5t-32.5 -43.5l-73 -65h117v-73h-247v64l120 111q15 14 18.5 25t3.5 35v37q0 6 -3 9t-10 3h-11q-7 0 -10.5 -3t-3.5 -9z" />
    <glyph glyph-name="uni00B3" unicode="&#xb3;" horiz-adv-x="283" 
d="M119 561v-34h-106v47q0 31 18.5 49.5t62.5 18.5h87q44 0 62.5 -18.5t18.5 -49.5v-47q0 -22 -5 -38t-21 -24q16 -7 21 -21.5t5 -35.5v-51q0 -31 -18.5 -49.5t-62.5 -18.5h-87q-44 0 -62.5 18.5t-18.5 49.5v48h106v-35q0 -6 3.5 -9t10.5 -3h11q7 0 10 3t3 9v50q0 7 -3 9.5
t-10 2.5h-37v64h37q7 0 10 3t3 9v53q0 6 -3 9t-10 3h-11q-7 0 -10.5 -3t-3.5 -9z" />
    <glyph glyph-name="acute" unicode="&#xb4;" horiz-adv-x="500" 
d="M116 532l97 150h170l-133 -150h-134z" />
    <glyph glyph-name="uni03BC.math" unicode="&#xb5;" horiz-adv-x="489" 
d="M40 499h170v-352q0 -11 6 -16.5t19 -5.5h17q14 0 20.5 7t6.5 23v27h6v-90q0 -42 -23.5 -67t-70.5 -25h-18q-71 0 -102 34t-31 90v375zM279 499h170v-499h-167v95h-3v404zM40 449h170v-578h-170v578z" />
    <glyph glyph-name="paragraph" unicode="&#xb6;" horiz-adv-x="569" 
d="M293 642v-432h-119q-80 0 -113.5 34t-33.5 90v184q0 56 33.5 90t113.5 34h119zM196 642h135v-771h-135v771zM384 642h135v-771h-135v771z" />
    <glyph glyph-name="periodcentered" unicode="&#xb7;" horiz-adv-x="272" 
d="M49 258v154h172v-154h-172z" />
    <glyph glyph-name="cedilla" unicode="&#xb8;" horiz-adv-x="500" 
d="M199 -123v77h160v-90q0 -56 -33.5 -90t-113.5 -34h-91v115h53q13 0 19 5.5t6 16.5z" />
    <glyph glyph-name="uni00B9" unicode="&#xb9;" horiz-adv-x="218" 
d="M123 642v-69h-113v69h113zM59 642h110v-353h-110v353z" />
    <glyph glyph-name="ordmasculine" unicode="&#xba;" horiz-adv-x="331" 
d="M201 453v104q0 8 -4.5 12t-13.5 4h-14v69h36q57 0 79 -23.5t22 -64.5v-101h-105zM201 373v89h105v-85q0 -40 -22 -64t-79 -24h-36v69h14q9 0 13.5 3.5t4.5 11.5zM130 557v-104h-105v101q0 41 22 64.5t78 23.5h46v-69h-23q-9 0 -13.5 -4t-4.5 -12zM130 462v-89
q0 -8 4.5 -11.5t13.5 -3.5h23v-69h-46q-56 0 -78 24t-22 64v85h105z" />
    <glyph glyph-name="guillemotright" unicode="&#xbb;" horiz-adv-x="501" 
d="M284 249l-110 -153h-159l107 153l-107 151h159zM496 249l-110 -153h-159l107 153l-107 151h159z" />
    <glyph glyph-name="questiondown" unicode="&#xbf;" horiz-adv-x="469" 
d="M195 91v-97q0 -11 6 -16.5t19 -5.5h22v-115h-75q-80 0 -113.5 34t-33.5 90v100q0 56 33.5 90t113.5 34h108v-92h-55q-13 0 -19 -5.5t-6 -16.5zM330 113h-177l16 153h146zM330 499v-164h-172v164h172zM274 -6v68h175v-81q0 -56 -33.5 -90t-113.5 -34h-63v115h10
q13 0 19 5.5t6 16.5z" />
    <glyph glyph-name="Agrave" unicode="&#xc0;" horiz-adv-x="543" 
d="M433 220v-124h-321v124h321zM543 0h-176l-96 451l-99 -451h-172l165 642h213zM234 825l97 -150h-134l-133 150h170z" />
    <glyph glyph-name="Aacute" unicode="&#xc1;" horiz-adv-x="543" 
d="M433 220v-124h-321v124h321zM543 0h-176l-96 451l-99 -451h-172l165 642h213zM207 675l97 150h170l-133 -150h-134z" />
    <glyph glyph-name="Acircumflex" unicode="&#xc2;" horiz-adv-x="543" 
d="M433 220v-124h-321v124h321zM543 0h-176l-96 451l-99 -451h-172l165 642h213zM61 675l133 150h154l133 -150h-157l-53 69l-53 -69h-157z" />
    <glyph glyph-name="Atilde" unicode="&#xc3;" horiz-adv-x="543" 
d="M433 220v-124h-321v124h321zM543 0h-176l-96 451l-99 -451h-172l165 642h213zM338 675q-29 0 -52.5 13t-41 26t-28.5 13q-18 0 -18 -21v-31h-135v55q0 44 21.5 69.5t77.5 25.5h19q29 0 52.5 -13t41.5 -26t28 -13q9 0 13.5 5.5t4.5 15.5v31h135v-60q0 -44 -22 -67t-79 -23
h-17z" />
    <glyph glyph-name="Adieresis" unicode="&#xc4;" horiz-adv-x="543" 
d="M75 675v130h152v-130h-152zM315 675v130h152v-130h-152zM433 220v-124h-321v124h321zM543 0h-176l-96 451l-99 -451h-172l165 642h213z" />
    <glyph glyph-name="Aring" unicode="&#xc5;" horiz-adv-x="543" 
d="M433 220v-124h-321v124h321zM543 0h-176l-96 451l-99 -451h-172l165 642h213zM417 779v-16q0 -40 -22 -64.5t-80 -24.5h-86q-58 0 -80 24.5t-22 64.5v16q0 41 22 65.5t80 24.5h86q58 0 80 -24.5t22 -65.5zM311 764v14q0 10 -4.5 14.5t-15.5 4.5h-38q-11 0 -15.5 -4.5
t-4.5 -14.5v-14q0 -10 4.5 -14.5t15.5 -4.5h38q11 0 15.5 4.5t4.5 14.5z" />
    <glyph glyph-name="AE" unicode="&#xc6;" horiz-adv-x="770" 
d="M410 642l-238 -642h-172l255 642h155zM433 235v-120h-321v120h321zM369 642h165v-642h-165v642zM753 125v-125h-330v125h330zM715 386v-125h-279v125h279zM744 642v-125h-321v125h321z" />
    <glyph glyph-name="Ccedilla" unicode="&#xc7;" horiz-adv-x="495" 
d="M210 505v-368q0 -11 6 -16.5t19 -5.5h26v-115h-79q-80 0 -113.5 34t-33.5 90v394q0 56 33.5 90t113.5 34h79v-115h-26q-13 0 -19 -5.5t-6 -16.5zM295 402v103q0 11 -6 16.5t-19 5.5h-26v115h79q80 0 113.5 -34t33.5 -90v-116h-175zM295 137v99h175v-112q0 -56 -33.5 -90
t-113.5 -34h-79v115h26q13 0 19 5.5t6 16.5zM170 -123v77h160v-90q0 -56 -33.5 -90t-113.5 -34h-91v115h53q13 0 19 5.5t6 16.5z" />
    <glyph glyph-name="Egrave" unicode="&#xc8;" horiz-adv-x="449" 
d="M40 642h175v-642h-175v642zM396 386v-125h-281v125h281zM425 642v-125h-323v125h323zM434 125v-125h-332v125h332zM205 825l97 -150h-134l-133 150h170z" />
    <glyph glyph-name="Eacute" unicode="&#xc9;" horiz-adv-x="449" 
d="M40 642h175v-642h-175v642zM396 386v-125h-281v125h281zM425 642v-125h-323v125h323zM434 125v-125h-332v125h332zM165 675l97 150h170l-133 -150h-134z" />
    <glyph glyph-name="Ecircumflex" unicode="&#xca;" horiz-adv-x="449" 
d="M40 642h175v-642h-175v642zM396 386v-125h-281v125h281zM425 642v-125h-323v125h323zM434 125v-125h-332v125h332zM26 675l133 150h154l133 -150h-157l-53 69l-53 -69h-157z" />
    <glyph glyph-name="Edieresis" unicode="&#xcb;" horiz-adv-x="500" 
d="M38 675v130h152v-130h-152zM278 675v130h152v-130h-152zM40 642h175v-642h-175v642zM396 386v-125h-281v125h281zM425 642v-125h-323v125h323zM434 125v-125h-332v125h332z" />
    <glyph glyph-name="Igrave" unicode="&#xcc;" horiz-adv-x="255" 
d="M40 642h175v-642h-175v642zM97 825l97 -150h-134l-133 150h170z" />
    <glyph glyph-name="Iacute" unicode="&#xcd;" horiz-adv-x="255" 
d="M40 642h175v-642h-175v642zM56 675l97 150h170l-133 -150h-134z" />
    <glyph glyph-name="Icircumflex" unicode="&#xce;" horiz-adv-x="255" 
d="M40 642h175v-642h-175v642zM-83 675l133 150h154l133 -150h-157l-53 69l-53 -69h-157z" />
    <glyph glyph-name="Idieresis" unicode="&#xcf;" horiz-adv-x="255" 
d="M-68 675v130h152v-130h-152zM172 675v130h152v-130h-152zM40 642h175v-642h-175v642z" />
    <glyph glyph-name="Eth" unicode="&#xd0;" horiz-adv-x="527" 
d="M317 374v131q0 11 -6 16.5t-19 5.5h-184v115h237q80 0 113.5 -34t33.5 -90v-144h-175zM317 137v250h175v-263q0 -56 -33.5 -90t-113.5 -34h-237v115h184q13 0 19 5.5t6 16.5zM50 642h175v-642h-175v642zM280 384v-115h-285v115h285z" />
    <glyph glyph-name="Ntilde" unicode="&#xd1;" horiz-adv-x="533" 
d="M333 642h160v-642h-150l-143 337v-337h-160v642h150l143 -343v343zM347 675q-29 0 -52.5 13t-41 26t-28.5 13q-18 0 -18 -21v-31h-135v55q0 44 21.5 69.5t77.5 25.5h19q29 0 52.5 -13t41.5 -26t28 -13q9 0 13.5 5.5t4.5 15.5v31h135v-60q0 -44 -22 -67t-79 -23h-17z" />
    <glyph glyph-name="Ograve" unicode="&#xd2;" horiz-adv-x="516" 
d="M304 374v121q0 11 -6 16.5t-19 5.5h-33v125h86q80 0 113.5 -34t33.5 -90v-144h-175zM304 147v240h175v-263q0 -56 -33.5 -90t-113.5 -34h-86v125h33q13 0 19 5.5t6 16.5zM212 495v-121h-175v144q0 56 33.5 90t113.5 34h86v-125h-33q-13 0 -19 -5.5t-6 -16.5zM212 387
v-240q0 -11 6 -16.5t19 -5.5h33v-125h-86q-80 0 -113.5 34t-33.5 90v263h175zM225 825l97 -150h-134l-133 150h170z" />
    <glyph glyph-name="Oacute" unicode="&#xd3;" horiz-adv-x="516" 
d="M304 374v121q0 11 -6 16.5t-19 5.5h-33v125h86q80 0 113.5 -34t33.5 -90v-144h-175zM304 147v240h175v-263q0 -56 -33.5 -90t-113.5 -34h-86v125h33q13 0 19 5.5t6 16.5zM212 495v-121h-175v144q0 56 33.5 90t113.5 34h86v-125h-33q-13 0 -19 -5.5t-6 -16.5zM212 387
v-240q0 -11 6 -16.5t19 -5.5h33v-125h-86q-80 0 -113.5 34t-33.5 90v263h175zM195 675l97 150h170l-133 -150h-134z" />
    <glyph glyph-name="Ocircumflex" unicode="&#xd4;" horiz-adv-x="516" 
d="M304 374v121q0 11 -6 16.5t-19 5.5h-33v125h86q80 0 113.5 -34t33.5 -90v-144h-175zM304 147v240h175v-263q0 -56 -33.5 -90t-113.5 -34h-86v125h33q13 0 19 5.5t6 16.5zM212 495v-121h-175v144q0 56 33.5 90t113.5 34h86v-125h-33q-13 0 -19 -5.5t-6 -16.5zM212 387
v-240q0 -11 6 -16.5t19 -5.5h33v-125h-86q-80 0 -113.5 34t-33.5 90v263h175zM46 675l133 150h154l133 -150h-157l-53 69l-53 -69h-157z" />
    <glyph glyph-name="Otilde" unicode="&#xd5;" horiz-adv-x="516" 
d="M304 374v121q0 11 -6 16.5t-19 5.5h-33v125h86q80 0 113.5 -34t33.5 -90v-144h-175zM304 147v240h175v-263q0 -56 -33.5 -90t-113.5 -34h-86v125h33q13 0 19 5.5t6 16.5zM212 495v-121h-175v144q0 56 33.5 90t113.5 34h86v-125h-33q-13 0 -19 -5.5t-6 -16.5zM212 387
v-240q0 -11 6 -16.5t19 -5.5h33v-125h-86q-80 0 -113.5 34t-33.5 90v263h175zM334 675q-29 0 -52.5 13t-41 26t-28.5 13q-18 0 -18 -21v-31h-135v55q0 44 21.5 69.5t77.5 25.5h19q29 0 52.5 -13t41.5 -26t28 -13q9 0 13.5 5.5t4.5 15.5v31h135v-60q0 -44 -22 -67t-79 -23
h-17z" />
    <glyph glyph-name="Odieresis" unicode="&#xd6;" horiz-adv-x="500" 
d="M62 675v130h152v-130h-152zM302 675v130h152v-130h-152zM304 374v121q0 11 -6 16.5t-19 5.5h-33v125h86q80 0 113.5 -34t33.5 -90v-144h-175zM304 147v240h175v-263q0 -56 -33.5 -90t-113.5 -34h-86v125h33q13 0 19 5.5t6 16.5zM212 495v-121h-175v144q0 56 33.5 90
t113.5 34h86v-125h-33q-13 0 -19 -5.5t-6 -16.5zM212 387v-240q0 -11 6 -16.5t19 -5.5h33v-125h-86q-80 0 -113.5 34t-33.5 90v263h175z" />
    <glyph glyph-name="multiply" unicode="&#xd7;" horiz-adv-x="482" 
d="M462 187l-97 -97l-345 345l97 97zM365 532l97 -97l-345 -345l-97 97z" />
    <glyph glyph-name="Oslash" unicode="&#xd8;" horiz-adv-x="516" 
d="M479 518v-394q0 -56 -33.5 -90t-113.5 -34h-148q-80 0 -113.5 34t-33.5 90v394q0 56 33.5 90t113.5 34h148q80 0 113.5 -34t33.5 -90zM314 137v368q0 11 -6 16.5t-19 5.5h-62q-13 0 -19 -5.5t-6 -16.5v-368q0 -11 6 -16.5t19 -5.5h62q13 0 19 5.5t6 16.5zM418 662h74
l-388 -682h-74z" />
    <glyph glyph-name="Ugrave" unicode="&#xd9;" horiz-adv-x="522" 
d="M307 147v495h175v-518q0 -56 -33.5 -90t-113.5 -34h-86v125h33q13 0 19 5.5t6 16.5zM215 642v-495q0 -11 6 -16.5t19 -5.5h33v-125h-86q-80 0 -113.5 34t-33.5 90v518h175zM229 825l97 -150h-134l-133 150h170z" />
    <glyph glyph-name="Uacute" unicode="&#xda;" horiz-adv-x="522" 
d="M307 147v495h175v-518q0 -56 -33.5 -90t-113.5 -34h-86v125h33q13 0 19 5.5t6 16.5zM215 642v-495q0 -11 6 -16.5t19 -5.5h33v-125h-86q-80 0 -113.5 34t-33.5 90v518h175zM186 675l97 150h170l-133 -150h-134z" />
    <glyph glyph-name="Ucircumflex" unicode="&#xdb;" horiz-adv-x="522" 
d="M307 147v495h175v-518q0 -56 -33.5 -90t-113.5 -34h-86v125h33q13 0 19 5.5t6 16.5zM215 642v-495q0 -11 6 -16.5t19 -5.5h33v-125h-86q-80 0 -113.5 34t-33.5 90v518h175zM51 675l133 150h154l133 -150h-157l-53 69l-53 -69h-157z" />
    <glyph glyph-name="Udieresis" unicode="&#xdc;" horiz-adv-x="522" 
d="M64 675v130h152v-130h-152zM304 675v130h152v-130h-152zM307 147v495h175v-518q0 -56 -33.5 -90t-113.5 -34h-86v125h33q13 0 19 5.5t6 16.5zM215 642v-495q0 -11 6 -16.5t19 -5.5h33v-125h-86q-80 0 -113.5 34t-33.5 90v518h175z" />
    <glyph glyph-name="Yacute" unicode="&#xdd;" horiz-adv-x="519" 
d="M340 179h-151l-189 463h179l84 -271l78 271h178zM177 272h175v-272h-175v272zM186 675l97 150h170l-133 -150h-134z" />
    <glyph glyph-name="Thorn" unicode="&#xde;" horiz-adv-x="534" 
d="M304 257v127q0 11 -6 16.5t-19 5.5h-176v120h229q80 0 113.5 -34t33.5 -90v-163q0 -56 -33.5 -90t-113.5 -34h-229v120h176q13 0 19 5.5t6 16.5zM45 642h175v-642h-175v642z" />
    <glyph glyph-name="germandbls" unicode="&#xdf;" horiz-adv-x="677" 
d="M262 163h170v-26q0 -10 5 -15.5t15 -6.5h18q13 0 19 5.5t6 16.5v40q0 11 -6 16.5t-19 5.5h-66q-80 0 -108.5 34t-28.5 90v22q0 56 31.5 84t105.5 28q13 0 17.5 5.5t4.5 16.5v16q0 11 -4.5 16.5t-17.5 5.5h-159q-13 0 -19 -5.5t-6 -16.5v-495h-175v518q0 56 28.5 90
t108.5 34h291q74 0 106 -32t32 -84v-63q0 -37 -9.5 -60t-36.5 -33.5t-81 -10.5h-26q-13 0 -19 -5.5t-6 -16.5v-7q0 -11 6 -16.5t19 -5.5h60q80 0 113.5 -34t33.5 -90v-60q0 -56 -28.5 -90t-108.5 -34h-126q-77 2 -108.5 35.5t-31.5 88.5v39z" />
    <glyph glyph-name="agrave" unicode="&#xe0;" horiz-adv-x="479" 
d="M200 240h-170v135q0 56 31 90t102 34h18q47 0 70.5 -25t23.5 -67v-90h-6v27q0 16 -6.5 23t-20.5 7h-17q-13 0 -19 -5.5t-6 -16.5v-112zM439 0h-170v404h3v95h167v-499zM30 259h170v-112q0 -11 6 -16.5t19 -5.5h17q14 0 20.5 7t6.5 23v27h6v-90q0 -42 -23.5 -67t-70.5 -25
h-18q-71 0 -102 34t-31 90v135zM237 682l97 -150h-134l-133 150h170z" />
    <glyph glyph-name="aacute" unicode="&#xe1;" horiz-adv-x="479" 
d="M200 240h-170v135q0 56 31 90t102 34h18q47 0 70.5 -25t23.5 -67v-90h-6v27q0 16 -6.5 23t-20.5 7h-17q-13 0 -19 -5.5t-6 -16.5v-112zM439 0h-170v404h3v95h167v-499zM30 259h170v-112q0 -11 6 -16.5t19 -5.5h17q14 0 20.5 7t6.5 23v27h6v-90q0 -42 -23.5 -67t-70.5 -25
h-18q-71 0 -102 34t-31 90v135zM176 532l97 150h170l-133 -150h-134z" />
    <glyph glyph-name="acircumflex" unicode="&#xe2;" horiz-adv-x="479" 
d="M200 240h-170v135q0 56 31 90t102 34h18q47 0 70.5 -25t23.5 -67v-90h-6v27q0 16 -6.5 23t-20.5 7h-17q-13 0 -19 -5.5t-6 -16.5v-112zM439 0h-170v404h3v95h167v-499zM30 259h170v-112q0 -11 6 -16.5t19 -5.5h17q14 0 20.5 7t6.5 23v27h6v-90q0 -42 -23.5 -67t-70.5 -25
h-18q-71 0 -102 34t-31 90v135zM31 532l133 150h154l133 -150h-157l-53 69l-53 -69h-157z" />
    <glyph glyph-name="atilde" unicode="&#xe3;" horiz-adv-x="479" 
d="M200 240h-170v135q0 56 31 90t102 34h18q47 0 70.5 -25t23.5 -67v-90h-6v27q0 16 -6.5 23t-20.5 7h-17q-13 0 -19 -5.5t-6 -16.5v-112zM439 0h-170v404h3v95h167v-499zM30 259h170v-112q0 -11 6 -16.5t19 -5.5h17q14 0 20.5 7t6.5 23v27h6v-90q0 -42 -23.5 -67t-70.5 -25
h-18q-71 0 -102 34t-31 90v135zM317 532q-29 0 -52.5 13t-41 26t-28.5 13q-18 0 -18 -21v-31h-135v55q0 44 21.5 69.5t77.5 25.5h19q29 0 52.5 -13t41.5 -26t28 -13q9 0 13.5 5.5t4.5 15.5v31h135v-60q0 -44 -22 -67t-79 -23h-17z" />
    <glyph glyph-name="adieresis" unicode="&#xe4;" horiz-adv-x="479" 
d="M54 542v130h152v-130h-152zM294 542v130h152v-130h-152zM200 240h-170v135q0 56 31 90t102 34h18q47 0 70.5 -25t23.5 -67v-90h-6v27q0 16 -6.5 23t-20.5 7h-17q-13 0 -19 -5.5t-6 -16.5v-112zM439 0h-170v404h3v95h167v-499zM30 259h170v-112q0 -11 6 -16.5t19 -5.5h17
q14 0 20.5 7t6.5 23v27h6v-90q0 -42 -23.5 -67t-70.5 -25h-18q-71 0 -102 34t-31 90v135z" />
    <glyph glyph-name="aring" unicode="&#xe5;" horiz-adv-x="479" 
d="M200 240h-170v135q0 56 31 90t102 34h18q47 0 70.5 -25t23.5 -67v-90h-6v27q0 16 -6.5 23t-20.5 7h-17q-13 0 -19 -5.5t-6 -16.5v-112zM439 0h-170v404h3v95h167v-499zM30 259h170v-112q0 -11 6 -16.5t19 -5.5h17q14 0 20.5 7t6.5 23v27h6v-90q0 -42 -23.5 -67t-70.5 -25
h-18q-71 0 -102 34t-31 90v135zM385 635v-16q0 -40 -22 -64.5t-80 -24.5h-86q-58 0 -80 24.5t-22 64.5v16q0 41 22 65.5t80 24.5h86q58 0 80 -24.5t22 -65.5zM279 620v14q0 10 -4.5 14.5t-15.5 4.5h-38q-11 0 -15.5 -4.5t-4.5 -14.5v-14q0 -10 4.5 -14.5t15.5 -4.5h38
q11 0 15.5 4.5t4.5 14.5z" />
    <glyph glyph-name="ae" unicode="&#xe6;" horiz-adv-x="736" 
d="M305 319l40 -86l-140 -59l-170 34zM35 208l170 -34v-27q0 -11 6 -16.5t19 -5.5h17q14 0 20.5 7t6.5 23v189q0 30 -27 30h-17q-13 0 -19 -5.5t-6 -16.5v-43h-170v66q0 56 31 90t102 34h68q36 0 68 -15t46 -41q16 26 47.5 41t83.5 15h62q80 0 113.5 -34t33.5 -90v-152h-165
v134q0 11 -6 16.5t-19 5.5h-36q-13 0 -19 -5.5t-6 -16.5v-215q0 -11 6 -16.5t19 -5.5h36q13 0 19 5.5t6 16.5v25h165v-43q0 -56 -33.5 -90t-113.5 -34h-63q-52 0 -83.5 15t-47.5 41q-14 -26 -46 -41t-68 -15h-67q-71 0 -102 34t-31 90v84zM690 300v-99h-375v99h375z" />
    <glyph glyph-name="ccedilla" unicode="&#xe7;" horiz-adv-x="451" 
d="M200 352v-205q0 -11 6 -16.5t19 -5.5h20v-125h-68q-80 0 -113.5 34t-33.5 90v251q0 56 33.5 90t113.5 34h67v-125h-19q-13 0 -19 -5.5t-6 -16.5zM267 306v46q0 11 -6 16.5t-19 5.5h-12v125h54q80 0 113.5 -34t33.5 -90v-69h-164zM267 147v46h164v-69q0 -56 -33.5 -90
t-113.5 -34h-54v125h12q13 0 19 5.5t6 16.5zM156 -123v77h160v-90q0 -56 -33.5 -90t-113.5 -34h-91v115h53q13 0 19 5.5t6 16.5z" />
    <glyph glyph-name="egrave" unicode="&#xe8;" horiz-adv-x="471" 
d="M191 360v-221q0 -11 6 -16.5t19 -5.5h29v-117h-68q-80 0 -113.5 34t-33.5 90v251q0 56 33.5 90t113.5 34h67v-117h-28q-13 0 -19 -5.5t-6 -16.5zM285 227v133q0 11 -6 16.5t-19 5.5h-21v117h60q80 0 113.5 -34t33.5 -90v-148h-161zM285 141v28h161v-45q0 -56 -33.5 -90
t-113.5 -34h-60v117h21q13 0 19 6.5t6 17.5zM446 297v-92h-375v92h375zM196 682l97 -150h-134l-133 150h170z" />
    <glyph glyph-name="eacute" unicode="&#xe9;" horiz-adv-x="471" 
d="M191 360v-221q0 -11 6 -16.5t19 -5.5h29v-117h-68q-80 0 -113.5 34t-33.5 90v251q0 56 33.5 90t113.5 34h67v-117h-28q-13 0 -19 -5.5t-6 -16.5zM285 227v133q0 11 -6 16.5t-19 5.5h-21v117h60q80 0 113.5 -34t33.5 -90v-148h-161zM285 141v28h161v-45q0 -56 -33.5 -90
t-113.5 -34h-60v117h21q13 0 19 6.5t6 17.5zM446 297v-92h-375v92h375zM170 532l97 150h170l-133 -150h-134z" />
    <glyph glyph-name="ecircumflex" unicode="&#xea;" horiz-adv-x="471" 
d="M30 532l133 150h154l133 -150h-157l-53 69l-53 -69h-157zM191 360v-221q0 -11 6 -16.5t19 -5.5h29v-117h-68q-80 0 -113.5 34t-33.5 90v251q0 56 33.5 90t113.5 34h67v-117h-28q-13 0 -19 -5.5t-6 -16.5zM285 227v133q0 11 -6 16.5t-19 5.5h-21v117h60q80 0 113.5 -34
t33.5 -90v-148h-161zM285 141v28h161v-45q0 -56 -33.5 -90t-113.5 -34h-60v117h21q13 0 19 6.5t6 17.5zM446 297v-92h-375v92h375z" />
    <glyph glyph-name="edieresis" unicode="&#xeb;" horiz-adv-x="471" 
d="M42 542v130h152v-130h-152zM282 542v130h152v-130h-152zM191 360v-221q0 -11 6 -16.5t19 -5.5h29v-117h-68q-80 0 -113.5 34t-33.5 90v251q0 56 33.5 90t113.5 34h67v-117h-28q-13 0 -19 -5.5t-6 -16.5zM285 227v133q0 11 -6 16.5t-19 5.5h-21v117h60q80 0 113.5 -34
t33.5 -90v-148h-161zM285 141v28h161v-45q0 -56 -33.5 -90t-113.5 -34h-60v117h21q13 0 19 6.5t6 17.5zM446 297v-92h-375v92h375z" />
    <glyph glyph-name="igrave" unicode="&#xec;" 
d="M210 0h-170v499h170v-499zM98 682l97 -150h-134l-133 150h170z" />
    <glyph glyph-name="iacute" unicode="&#xed;" 
d="M210 0h-170v499h170v-499zM54 532l97 150h170l-133 -150h-134z" />
    <glyph glyph-name="icircumflex" unicode="&#xee;" 
d="M210 0h-170v499h170v-499zM-87 532l133 150h154l133 -150h-157l-53 69l-53 -69h-157z" />
    <glyph glyph-name="idieresis" unicode="&#xef;" 
d="M210 0h-170v499h170v-499zM-74 542v130h152v-130h-152zM166 542v130h152v-130h-152z" />
    <glyph glyph-name="eth" unicode="&#xf0;" horiz-adv-x="494" 
d="M200 147q0 -11 6 -16.5t19 -5.5h23v-125h-71q-80 0 -113.5 34t-33.5 90v179q0 56 33.5 90t113.5 34h153v-115h-105q-13 0 -19 -5.5t-6 -16.5v-143zM290 309q0 57 -18 104.5t-46 85.5t-59 66.5t-58 47.5t-42 29h235q17 -13 42.5 -40t51.5 -68.5t43.5 -98t17.5 -128.5v-183
q0 -56 -33.5 -90t-113.5 -34h-71v125h26q13 0 19 5.5t6 16.5v162zM115 456v84l312 94v-84z" />
    <glyph glyph-name="ntilde" unicode="&#xf1;" horiz-adv-x="484" 
d="M210 0h-170v499h167v-95h3v-404zM449 0h-170v352q0 11 -6 16.5t-19 5.5h-17q-13 0 -20 -7t-7 -23v-27h-6v90q0 42 23.5 67t70.5 25h18q71 0 102 -34t31 -90v-375zM312 532q-29 0 -52.5 13t-41 26t-28.5 13q-18 0 -18 -21v-31h-135v55q0 44 21.5 69.5t77.5 25.5h19
q29 0 52.5 -13t41.5 -26t28 -13q9 0 13.5 5.5t4.5 15.5v31h135v-60q0 -44 -22 -67t-79 -23h-17z" />
    <glyph glyph-name="ograve" unicode="&#xf2;" horiz-adv-x="481" 
d="M279 231v128q0 11 -6 16.5t-19 5.5h-15v118h65q80 0 111 -34t31 -90v-144h-167zM279 140v104h167v-120q0 -56 -31 -90t-111 -34h-65v118h15q13 0 19 5.5t6 16.5zM202 359v-128h-167v144q0 56 31 90t111 34h65v-118h-15q-13 0 -19 -5.5t-6 -16.5zM202 244v-104
q0 -11 6 -16.5t19 -5.5h15v-118h-65q-80 0 -111 34t-31 90v120h167zM206 682l97 -150h-134l-133 150h170z" />
    <glyph glyph-name="oacute" unicode="&#xf3;" horiz-adv-x="481" 
d="M279 231v128q0 11 -6 16.5t-19 5.5h-15v118h65q80 0 111 -34t31 -90v-144h-167zM279 140v104h167v-120q0 -56 -31 -90t-111 -34h-65v118h15q13 0 19 5.5t6 16.5zM202 359v-128h-167v144q0 56 31 90t111 34h65v-118h-15q-13 0 -19 -5.5t-6 -16.5zM202 244v-104
q0 -11 6 -16.5t19 -5.5h15v-118h-65q-80 0 -111 34t-31 90v120h167zM180 532l97 150h170l-133 -150h-134z" />
    <glyph glyph-name="ocircumflex" unicode="&#xf4;" horiz-adv-x="481" 
d="M279 231v128q0 11 -6 16.5t-19 5.5h-15v118h65q80 0 111 -34t31 -90v-144h-167zM279 140v104h167v-120q0 -56 -31 -90t-111 -34h-65v118h15q13 0 19 5.5t6 16.5zM202 359v-128h-167v144q0 56 31 90t111 34h65v-118h-15q-13 0 -19 -5.5t-6 -16.5zM202 244v-104
q0 -11 6 -16.5t19 -5.5h15v-118h-65q-80 0 -111 34t-31 90v120h167zM31 532l133 150h154l133 -150h-157l-53 69l-53 -69h-157z" />
    <glyph glyph-name="otilde" unicode="&#xf5;" horiz-adv-x="481" 
d="M279 231v128q0 11 -6 16.5t-19 5.5h-15v118h65q80 0 111 -34t31 -90v-144h-167zM279 140v104h167v-120q0 -56 -31 -90t-111 -34h-65v118h15q13 0 19 5.5t6 16.5zM202 359v-128h-167v144q0 56 31 90t111 34h65v-118h-15q-13 0 -19 -5.5t-6 -16.5zM202 244v-104
q0 -11 6 -16.5t19 -5.5h15v-118h-65q-80 0 -111 34t-31 90v120h167zM315 532q-29 0 -52.5 13t-41 26t-28.5 13q-18 0 -18 -21v-31h-135v55q0 44 21.5 69.5t77.5 25.5h19q29 0 52.5 -13t41.5 -26t28 -13q9 0 13.5 5.5t4.5 15.5v31h135v-60q0 -44 -22 -67t-79 -23h-17z" />
    <glyph glyph-name="odieresis" unicode="&#xf6;" horiz-adv-x="481" 
d="M45 542v130h152v-130h-152zM285 542v130h152v-130h-152zM279 231v128q0 11 -6 16.5t-19 5.5h-15v118h65q80 0 111 -34t31 -90v-144h-167zM279 140v104h167v-120q0 -56 -31 -90t-111 -34h-65v118h15q13 0 19 5.5t6 16.5zM202 359v-128h-167v144q0 56 31 90t111 34h65v-118
h-15q-13 0 -19 -5.5t-6 -16.5zM202 244v-104q0 -11 6 -16.5t19 -5.5h15v-118h-65q-80 0 -111 34t-31 90v120h167z" />
    <glyph glyph-name="divide" unicode="&#xf7;" horiz-adv-x="533" 
d="M25 257v125h483v-125h-483zM185 537h163v-115h-163v115zM185 217h163v-115h-163v115z" />
    <glyph glyph-name="oslash" unicode="&#xf8;" horiz-adv-x="481" 
d="M446 375v-251q0 -56 -31 -90t-111 -34h-127q-80 0 -111 34t-31 90v251q0 56 31 90t111 34h127q80 0 111 -34t31 -90zM284 135v229q0 11 -6 16.5t-19 5.5h-37q-13 0 -19 -5.5t-6 -16.5v-229q0 -11 6 -16.5t19 -5.5h37q13 0 19 5.5t6 16.5zM383 519h74l-358 -539h-74z" />
    <glyph glyph-name="ugrave" unicode="&#xf9;" horiz-adv-x="484" 
d="M35 499h170v-352q0 -11 6 -16.5t19 -5.5h17q14 0 20.5 7t6.5 23v27h6v-90q0 -42 -23.5 -67t-70.5 -25h-18q-71 0 -102 34t-31 90v375zM274 499h170v-499h-167v95h-3v404zM215 682l97 -150h-134l-133 150h170z" />
    <glyph glyph-name="uacute" unicode="&#xfa;" horiz-adv-x="484" 
d="M35 499h170v-352q0 -11 6 -16.5t19 -5.5h17q14 0 20.5 7t6.5 23v27h6v-90q0 -42 -23.5 -67t-70.5 -25h-18q-71 0 -102 34t-31 90v375zM274 499h170v-499h-167v95h-3v404zM163 532l97 150h170l-133 -150h-134z" />
    <glyph glyph-name="ucircumflex" unicode="&#xfb;" horiz-adv-x="484" 
d="M31 532l133 150h154l133 -150h-157l-53 69l-53 -69h-157zM35 499h170v-352q0 -11 6 -16.5t19 -5.5h17q14 0 20.5 7t6.5 23v27h6v-90q0 -42 -23.5 -67t-70.5 -25h-18q-71 0 -102 34t-31 90v375zM274 499h170v-499h-167v95h-3v404z" />
    <glyph glyph-name="udieresis" unicode="&#xfc;" horiz-adv-x="500" 
d="M43 542v130h152v-130h-152zM283 542v130h152v-130h-152zM35 499h170v-352q0 -11 6 -16.5t19 -5.5h17q14 0 20.5 7t6.5 23v27h6v-90q0 -42 -23.5 -67t-70.5 -25h-18q-71 0 -102 34t-31 90v375zM274 499h170v-499h-167v95h-3v404z" />
    <glyph glyph-name="yacute" unicode="&#xfd;" horiz-adv-x="464" 
d="M0 499h178l61 -304l54 304h171l-125 -489q-19 -65 -61 -102t-128 -37h-84v123h74q22 0 37 7.5t23 32.5l2 6h-65zM166 532l97 150h170l-133 -150h-134z" />
    <glyph glyph-name="thorn" unicode="&#xfe;" horiz-adv-x="489" 
d="M443 240h-170v112q0 11 -6 16.5t-19 5.5h-17q-13 0 -20 -7t-7 -23v-27h-6v90q0 42 23.5 67t70.5 25h18q71 0 102 -34t31 -90v-135zM204 -129h-170v798h167v-265h3v-533zM273 259h170v-135q0 -56 -31 -90t-102 -34h-18q-47 0 -70.5 25t-23.5 67v90h6v-27q0 -16 7 -23
t20 -7h17q13 0 19 5.5t6 16.5v112z" />
    <glyph glyph-name="ydieresis" unicode="&#xff;" horiz-adv-x="500" 
d="M38 542v130h152v-130h-152zM278 542v130h152v-130h-152zM0 499h178l61 -304l54 304h171l-125 -489q-19 -65 -61 -102t-128 -37h-84v123h74q22 0 37 7.5t23 32.5l2 6h-65z" />
    <glyph glyph-name="Amacron" unicode="&#x100;" horiz-adv-x="543" 
d="M433 220v-124h-321v124h321zM543 0h-176l-96 451l-99 -451h-172l165 642h213zM77 675v106h389v-106h-389z" />
    <glyph glyph-name="amacron" unicode="&#x101;" horiz-adv-x="479" 
d="M200 240h-170v135q0 56 31 90t102 34h18q47 0 70.5 -25t23.5 -67v-90h-6v27q0 16 -6.5 23t-20.5 7h-17q-13 0 -19 -5.5t-6 -16.5v-112zM439 0h-170v404h3v95h167v-499zM30 259h170v-112q0 -11 6 -16.5t19 -5.5h17q14 0 20.5 7t6.5 23v27h6v-90q0 -42 -23.5 -67t-70.5 -25
h-18q-71 0 -102 34t-31 90v135zM45 555v106h389v-106h-389z" />
    <glyph glyph-name="Abreve" unicode="&#x102;" horiz-adv-x="543" 
d="M433 220v-124h-321v124h321zM543 0h-176l-96 451l-99 -451h-172l165 642h213zM318 825h150v-26q0 -56 -33.5 -90t-113.5 -34h-60v95h32q13 0 19 5.5t6 16.5v33zM74 825h150v-33q0 -11 6 -16.5t19 -5.5h32v-95h-60q-80 0 -113.5 34t-33.5 90v26z" />
    <glyph glyph-name="abreve" unicode="&#x103;" horiz-adv-x="479" 
d="M200 240h-170v135q0 56 31 90t102 34h18q47 0 70.5 -25t23.5 -67v-90h-6v27q0 16 -6.5 23t-20.5 7h-17q-13 0 -19 -5.5t-6 -16.5v-112zM439 0h-170v404h3v95h167v-499zM30 259h170v-112q0 -11 6 -16.5t19 -5.5h17q14 0 20.5 7t6.5 23v27h6v-90q0 -42 -23.5 -67t-70.5 -25
h-18q-71 0 -102 34t-31 90v135zM307 682h150v-26q0 -56 -33.5 -90t-113.5 -34h-60v95h32q13 0 19 5.5t6 16.5v33zM63 682h150v-33q0 -11 6 -16.5t19 -5.5h32v-95h-60q-80 0 -113.5 34t-33.5 90v26z" />
    <glyph glyph-name="Aogonek" unicode="&#x104;" horiz-adv-x="543" 
d="M433 220v-124h-321v124h321zM543 0h-176l-96 451l-99 -451h-172l165 642h213zM333 -121q0 47 24 75.5t91 28.5h97v-97h-73q-11 0 -16 -4.5t-5 -13.5v-27q0 -9 5 -13.5t16 -4.5h91v-97h-115q-67 0 -91 28.5t-24 76.5v48zM545 -22h-91v37h91v-37z" />
    <glyph glyph-name="aogonek" unicode="&#x105;" horiz-adv-x="479" 
d="M200 240h-170v135q0 56 31 90t102 34h18q47 0 70.5 -25t23.5 -67v-90h-6v27q0 16 -6.5 23t-20.5 7h-17q-13 0 -19 -5.5t-6 -16.5v-112zM439 0h-170v404h3v95h167v-499zM30 259h170v-112q0 -11 6 -16.5t19 -5.5h17q14 0 20.5 7t6.5 23v27h6v-90q0 -42 -23.5 -67t-70.5 -25
h-18q-71 0 -102 34t-31 90v135zM227 -121q0 47 24 75.5t91 28.5h97v-97h-73q-11 0 -16 -4.5t-5 -13.5v-27q0 -9 5 -13.5t16 -4.5h91v-97h-115q-67 0 -91 28.5t-24 76.5v48zM439 -22h-91v37h91v-37z" />
    <glyph glyph-name="Cacute" unicode="&#x106;" horiz-adv-x="495" 
d="M210 505v-368q0 -11 6 -16.5t19 -5.5h26v-115h-79q-80 0 -113.5 34t-33.5 90v394q0 56 33.5 90t113.5 34h79v-115h-26q-13 0 -19 -5.5t-6 -16.5zM295 402v103q0 11 -6 16.5t-19 5.5h-26v115h79q80 0 113.5 -34t33.5 -90v-116h-175zM295 137v99h175v-112q0 -56 -33.5 -90
t-113.5 -34h-79v115h26q13 0 19 5.5t6 16.5zM183 675l97 150h170l-133 -150h-134z" />
    <glyph glyph-name="cacute" unicode="&#x107;" horiz-adv-x="451" 
d="M200 352v-205q0 -11 6 -16.5t19 -5.5h20v-125h-68q-80 0 -113.5 34t-33.5 90v251q0 56 33.5 90t113.5 34h67v-125h-19q-13 0 -19 -5.5t-6 -16.5zM267 306v46q0 11 -6 16.5t-19 5.5h-12v125h54q80 0 113.5 -34t33.5 -90v-69h-164zM267 147v46h164v-69q0 -56 -33.5 -90
t-113.5 -34h-54v125h12q13 0 19 5.5t6 16.5zM166 532l97 150h170l-133 -150h-134z" />
    <glyph glyph-name="Ccaron" unicode="&#x10c;" horiz-adv-x="495" 
d="M210 505v-368q0 -11 6 -16.5t19 -5.5h26v-115h-79q-80 0 -113.5 34t-33.5 90v394q0 56 33.5 90t113.5 34h79v-115h-26q-13 0 -19 -5.5t-6 -16.5zM295 402v103q0 11 -6 16.5t-19 5.5h-26v115h79q80 0 113.5 -34t33.5 -90v-116h-175zM295 137v99h175v-112q0 -56 -33.5 -90
t-113.5 -34h-79v115h26q13 0 19 5.5t6 16.5zM173 675l-133 150h157l53 -69l53 69h157l-133 -150h-154z" />
    <glyph glyph-name="ccaron" unicode="&#x10d;" horiz-adv-x="451" 
d="M200 352v-205q0 -11 6 -16.5t19 -5.5h20v-125h-68q-80 0 -113.5 34t-33.5 90v251q0 56 33.5 90t113.5 34h67v-125h-19q-13 0 -19 -5.5t-6 -16.5zM267 306v46q0 11 -6 16.5t-19 5.5h-12v125h54q80 0 113.5 -34t33.5 -90v-69h-164zM267 147v46h164v-69q0 -56 -33.5 -90
t-113.5 -34h-54v125h12q13 0 19 5.5t6 16.5zM149 532l-133 150h157l53 -69l53 69h157l-133 -150h-154z" />
    <glyph glyph-name="Dcaron" unicode="&#x10e;" horiz-adv-x="529" 
d="M317 374v131q0 11 -6 16.5t-19 5.5h-184v115h237q80 0 113.5 -34t33.5 -90v-144h-175zM317 137v250h175v-263q0 -56 -33.5 -90t-113.5 -34h-237v115h184q13 0 19 5.5t6 16.5zM50 642h175v-642h-175v642zM183 675l-133 150h157l53 -69l53 69h157l-133 -150h-154z" />
    <glyph glyph-name="dcaron" unicode="&#x10f;" horiz-adv-x="520" 
d="M479 669h116v-77l-76 -136h-40v213zM200 240h-170v135q0 56 31 90t102 34h18q47 0 70.5 -25t23.5 -67v-90h-6v27q0 16 -6.5 23t-20.5 7h-17q-13 0 -19 -5.5t-6 -16.5v-112zM269 669h170v-669h-167v95h-3v574zM30 259h170v-112q0 -11 6 -16.5t19 -5.5h17q14 0 20.5 7
t6.5 23v27h6v-90q0 -42 -23.5 -67t-70.5 -25h-18q-71 0 -102 34t-31 90v135z" />
    <glyph glyph-name="Dcroat" unicode="&#x110;" horiz-adv-x="537" 
d="M317 374v121q0 11 -6 16.5t-19 5.5h-184v125h237q80 0 113.5 -34t33.5 -90v-144h-175zM317 147v240h175v-263q0 -56 -33.5 -90t-113.5 -34h-237v125h184q13 0 19 5.5t6 16.5zM50 642h175v-642h-175v642zM280 384v-115h-285v115h285z" />
    <glyph glyph-name="dcroat" unicode="&#x111;" horiz-adv-x="484" 
d="M205 240h-170v135q0 56 31 90t102 34h18q47 0 70.5 -25t23.5 -67v-90h-6v27q0 16 -6.5 23t-20.5 7h-17q-13 0 -19 -5.5t-6 -16.5v-112zM274 669h170v-669h-167v95h-3v574zM35 259h170v-112q0 -11 6 -16.5t19 -5.5h17q14 0 20.5 7t6.5 23v27h6v-90q0 -42 -23.5 -67
t-70.5 -25h-18q-71 0 -102 34t-31 90v135zM494 622v-75h-280v75h280z" />
    <glyph glyph-name="Emacron" unicode="&#x112;" horiz-adv-x="449" 
d="M40 642h175v-642h-175v642zM396 386v-125h-281v125h281zM425 642v-125h-323v125h323zM434 125v-125h-332v125h332zM36 675v106h389v-106h-389z" />
    <glyph glyph-name="emacron" unicode="&#x113;" horiz-adv-x="471" 
d="M191 360v-221q0 -11 6 -16.5t19 -5.5h29v-117h-68q-80 0 -113.5 34t-33.5 90v251q0 56 33.5 90t113.5 34h67v-117h-28q-13 0 -19 -5.5t-6 -16.5zM285 227v133q0 11 -6 16.5t-19 5.5h-21v117h60q80 0 113.5 -34t33.5 -90v-148h-161zM285 141v28h161v-45q0 -56 -33.5 -90
t-113.5 -34h-60v117h21q13 0 19 6.5t6 17.5zM446 297v-92h-375v92h375zM41 555v106h389v-106h-389z" />
    <glyph glyph-name="Edotaccent" unicode="&#x116;" horiz-adv-x="449" 
d="M40 642h175v-642h-175v642zM396 386v-125h-281v125h281zM425 642v-125h-323v125h323zM434 125v-125h-332v125h332zM158 675v130h162v-130h-162z" />
    <glyph glyph-name="edotaccent" unicode="&#x117;" horiz-adv-x="471" 
d="M191 360v-221q0 -11 6 -16.5t19 -5.5h29v-117h-68q-80 0 -113.5 34t-33.5 90v251q0 56 33.5 90t113.5 34h67v-117h-28q-13 0 -19 -5.5t-6 -16.5zM285 227v133q0 11 -6 16.5t-19 5.5h-21v117h60q80 0 113.5 -34t33.5 -90v-148h-161zM285 141v28h161v-45q0 -56 -33.5 -90
t-113.5 -34h-60v117h21q13 0 19 6.5t6 17.5zM446 297v-92h-375v92h375zM155 542v130h162v-130h-162z" />
    <glyph glyph-name="Eogonek" unicode="&#x118;" horiz-adv-x="449" 
d="M40 642h175v-642h-175v642zM396 386v-125h-281v125h281zM425 642v-125h-323v125h323zM434 125v-125h-332v125h332zM223 -121q0 47 24 75.5t91 28.5h97v-97h-73q-11 0 -16 -4.5t-5 -13.5v-27q0 -9 5 -13.5t16 -4.5h91v-97h-115q-67 0 -91 28.5t-24 76.5v48zM435 -22h-91
v37h91v-37z" />
    <glyph glyph-name="eogonek" unicode="&#x119;" horiz-adv-x="471" 
d="M191 360v-221q0 -11 6 -16.5t19 -5.5h29v-117h-68q-80 0 -113.5 34t-33.5 90v251q0 56 33.5 90t113.5 34h67v-117h-28q-13 0 -19 -5.5t-6 -16.5zM285 227v133q0 11 -6 16.5t-19 5.5h-21v117h60q80 0 113.5 -34t33.5 -90v-148h-161zM285 141v28h161v-45q0 -56 -33.5 -90
t-113.5 -34h-60v117h21q13 0 19 6.5t6 17.5zM446 297v-92h-375v92h375zM85 -121q0 47 24 75.5t91 28.5h97v-97h-73q-11 0 -16 -4.5t-5 -13.5v-27q0 -9 5 -13.5t16 -4.5h91v-97h-115q-67 0 -91 28.5t-24 76.5v48zM297 -22h-91v37h91v-37z" />
    <glyph glyph-name="Ecaron" unicode="&#x11a;" horiz-adv-x="449" 
d="M40 642h175v-642h-175v642zM396 386v-125h-281v125h281zM425 642v-125h-323v125h323zM434 125v-125h-332v125h332zM162 675l-133 150h157l53 -69l53 69h157l-133 -150h-154z" />
    <glyph glyph-name="ecaron" unicode="&#x11b;" horiz-adv-x="471" 
d="M191 360v-221q0 -11 6 -16.5t19 -5.5h29v-117h-68q-80 0 -113.5 34t-33.5 90v251q0 56 33.5 90t113.5 34h67v-117h-28q-13 0 -19 -5.5t-6 -16.5zM285 227v133q0 11 -6 16.5t-19 5.5h-21v117h60q80 0 113.5 -34t33.5 -90v-148h-161zM285 141v28h161v-45q0 -56 -33.5 -90
t-113.5 -34h-60v117h21q13 0 19 6.5t6 17.5zM446 297v-92h-375v92h375zM162 532l-133 150h157l53 -69l53 69h157l-133 -150h-154z" />
    <glyph glyph-name="Gbreve" unicode="&#x11e;" horiz-adv-x="501" 
d="M210 505v-368q0 -11 6 -16.5t19 -5.5h23v-115h-76q-80 0 -113.5 34t-33.5 90v394q0 56 33.5 90t113.5 34h80v-115h-27q-13 0 -19 -5.5t-6 -16.5zM471 355v-111h-225v111h225zM296 422v83q0 11 -6 16.5t-19 5.5h-27v115h80q80 0 113.5 -34t33.5 -90v-96h-175zM296 137v141
h175v-154q0 -56 -33.5 -90t-113.5 -34h-76v115h23q13 0 19 5.5t6 16.5zM300 825h150v-26q0 -56 -33.5 -90t-113.5 -34h-60v95h32q13 0 19 5.5t6 16.5v33zM56 825h150v-33q0 -11 6 -16.5t19 -5.5h32v-95h-60q-80 0 -113.5 34t-33.5 90v26z" />
    <glyph glyph-name="gbreve" unicode="&#x11f;" horiz-adv-x="479" 
d="M30 259h170v-82q0 -11 6 -16.5t19 -5.5h17q14 0 20.5 7t6.5 23v27h6v-90q0 -42 -23.5 -67t-70.5 -25h-18q-71 0 -102 34t-31 90v105zM200 240h-170v135q0 56 31 90t102 34h18q47 0 70.5 -25t23.5 -67v-90h-6v27q0 16 -6.5 23t-20.5 7h-17q-13 0 -19 -5.5t-6 -16.5v-112z
M269 13v28h170v-46q0 -56 -33.5 -90t-113.5 -34h-239v120h191q13 0 19 5.5t6 16.5zM439 30h-170v374h3v95h167v-469zM286 682h150v-26q0 -56 -33.5 -90t-113.5 -34h-60v95h32q13 0 19 5.5t6 16.5v33zM42 682h150v-33q0 -11 6 -16.5t19 -5.5h32v-95h-60q-80 0 -113.5 34
t-33.5 90v26z" />
    <glyph glyph-name="uni0122" unicode="&#x122;" horiz-adv-x="501" 
d="M210 505v-368q0 -11 6 -16.5t19 -5.5h23v-115h-76q-80 0 -113.5 34t-33.5 90v394q0 56 33.5 90t113.5 34h80v-115h-27q-13 0 -19 -5.5t-6 -16.5zM471 355v-111h-225v111h225zM296 422v83q0 11 -6 16.5t-19 5.5h-27v115h80q80 0 113.5 -34t33.5 -90v-96h-175zM296 137v141
h175v-154q0 -56 -33.5 -90t-113.5 -34h-76v115h23q13 0 19 5.5t6 16.5zM180 -46h167v-87l-115 -166h-52v253z" />
    <glyph glyph-name="uni0123" unicode="&#x123;" horiz-adv-x="479" 
d="M335 531h-167v87l115 166h52v-253zM30 259h170v-82q0 -11 6 -16.5t19 -5.5h17q14 0 20.5 7t6.5 23v27h6v-90q0 -42 -23.5 -67t-70.5 -25h-18q-71 0 -102 34t-31 90v105zM200 240h-170v135q0 56 31 90t102 34h18q47 0 70.5 -25t23.5 -67v-90h-6v27q0 16 -6.5 23t-20.5 7
h-17q-13 0 -19 -5.5t-6 -16.5v-112zM269 13v28h170v-46q0 -56 -33.5 -90t-113.5 -34h-239v120h191q13 0 19 5.5t6 16.5zM439 30h-170v374h3v95h167v-469z" />
    <glyph glyph-name="Imacron" unicode="&#x12a;" horiz-adv-x="255" 
d="M40 642h175v-642h-175v642zM-66 675v106h389v-106h-389z" />
    <glyph glyph-name="imacron" unicode="&#x12b;" 
d="M210 0h-170v499h170v-499zM-70 555v106h389v-106h-389z" />
    <glyph glyph-name="Iogonek" unicode="&#x12e;" horiz-adv-x="255" 
d="M40 642h175v-642h-175v642zM3 -121q0 47 24 75.5t91 28.5h97v-97h-73q-11 0 -16 -4.5t-5 -13.5v-27q0 -9 5 -13.5t16 -4.5h91v-97h-115q-67 0 -91 28.5t-24 76.5v48zM215 -22h-91v37h91v-37z" />
    <glyph glyph-name="iogonek" unicode="&#x12f;" 
d="M210 0h-170v499h170v-499zM37 549v120h176v-120h-176zM-2 -121q0 47 24 75.5t91 28.5h97v-97h-73q-11 0 -16 -4.5t-5 -13.5v-27q0 -9 5 -13.5t16 -4.5h91v-97h-115q-67 0 -91 28.5t-24 76.5v48zM210 -22h-91v37h91v-37z" />
    <glyph glyph-name="Idotaccent" unicode="&#x130;" horiz-adv-x="255" 
d="M40 642h175v-642h-175v642zM47 675v130h162v-130h-162z" />
    <glyph glyph-name="dotlessi" unicode="&#x131;" 
d="M210 0h-170v499h170v-499z" />
    <glyph glyph-name="uni0136" unicode="&#x136;" horiz-adv-x="530" 
d="M216 328h182l126 -328h-188zM398 328h-182l119 314h188zM40 642h175v-642h-175v642zM173 -46h167v-87l-115 -166h-52v253z" />
    <glyph glyph-name="uni0137" unicode="&#x137;" horiz-adv-x="475" 
d="M210 0h-170v669h170v-669zM202 253h171l107 -253h-177zM373 253h-171l102 246h176zM164 -46h167v-87l-115 -166h-52v253z" />
    <glyph glyph-name="Lacute" unicode="&#x139;" horiz-adv-x="414" 
d="M40 642h175v-642h-175v642zM98 0v125h316v-125h-316zM65 675l97 150h170l-133 -150h-134z" />
    <glyph glyph-name="lacute" unicode="&#x13a;" 
d="M210 0h-170v669h170v-669zM56 702l97 150h170l-133 -150h-134z" />
    <glyph glyph-name="uni013B" unicode="&#x13b;" horiz-adv-x="414" 
d="M40 642h175v-642h-175v642zM98 0v125h316v-125h-316zM142 -46h167v-87l-115 -166h-52v253z" />
    <glyph glyph-name="uni013C" unicode="&#x13c;" 
d="M210 0h-170v669h170v-669zM41 -46h167v-87l-115 -166h-52v253z" />
    <glyph glyph-name="lcaron" unicode="&#x13e;" horiz-adv-x="300" 
d="M250 669h116v-77l-76 -136h-40v213zM210 0h-170v669h170v-669z" />
    <glyph glyph-name="Lslash" unicode="&#x141;" horiz-adv-x="434" 
d="M335 489v-115l-374 -180v115zM50 642h175v-642h-175v642zM108 0v125h316v-125h-316z" />
    <glyph glyph-name="lslash" unicode="&#x142;" horiz-adv-x="260" 
d="M319 529v-115l-374 -180v115zM215 0h-170v669h170v-669z" />
    <glyph glyph-name="Nacute" unicode="&#x143;" horiz-adv-x="533" 
d="M333 642h160v-642h-150l-143 337v-337h-160v642h150l143 -343v343zM188 675l97 150h170l-133 -150h-134z" />
    <glyph glyph-name="nacute" unicode="&#x144;" horiz-adv-x="484" 
d="M210 0h-170v499h167v-95h3v-404zM449 0h-170v352q0 11 -6 16.5t-19 5.5h-17q-13 0 -20 -7t-7 -23v-27h-6v90q0 42 23.5 67t70.5 25h18q71 0 102 -34t31 -90v-375zM156 532l97 150h170l-133 -150h-134z" />
    <glyph glyph-name="uni0145" unicode="&#x145;" horiz-adv-x="533" 
d="M333 642h160v-642h-150l-143 337v-337h-160v642h150l143 -343v343zM175 -46h167v-87l-115 -166h-52v253z" />
    <glyph glyph-name="uni0146" unicode="&#x146;" horiz-adv-x="484" 
d="M210 0h-170v499h167v-95h3v-404zM449 0h-170v352q0 11 -6 16.5t-19 5.5h-17q-13 0 -20 -7t-7 -23v-27h-6v90q0 42 23.5 67t70.5 25h18q71 0 102 -34t31 -90v-375zM162 -46h167v-87l-115 -166h-52v253z" />
    <glyph glyph-name="Ncaron" unicode="&#x147;" horiz-adv-x="533" 
d="M333 642h160v-642h-150l-143 337v-337h-160v642h150l143 -343v343zM187 674l-133 150h157l53 -69l53 69h157l-133 -150h-154z" />
    <glyph glyph-name="ncaron" unicode="&#x148;" horiz-adv-x="484" 
d="M210 0h-170v499h167v-95h3v-404zM449 0h-170v352q0 11 -6 16.5t-19 5.5h-17q-13 0 -20 -7t-7 -23v-27h-6v90q0 42 23.5 67t70.5 25h18q71 0 102 -34t31 -90v-375zM155 532l-133 150h157l53 -69l53 69h157l-133 -150h-154z" />
    <glyph glyph-name="Omacron" unicode="&#x14c;" horiz-adv-x="516" 
d="M304 374v121q0 11 -6 16.5t-19 5.5h-33v125h86q80 0 113.5 -34t33.5 -90v-144h-175zM304 147v240h175v-263q0 -56 -33.5 -90t-113.5 -34h-86v125h33q13 0 19 5.5t6 16.5zM212 495v-121h-175v144q0 56 33.5 90t113.5 34h86v-125h-33q-13 0 -19 -5.5t-6 -16.5zM212 387
v-240q0 -11 6 -16.5t19 -5.5h33v-125h-86q-80 0 -113.5 34t-33.5 90v263h175zM63 675v106h389v-106h-389z" />
    <glyph glyph-name="omacron" unicode="&#x14d;" horiz-adv-x="481" 
d="M279 231v128q0 11 -6 16.5t-19 5.5h-15v118h65q80 0 111 -34t31 -90v-144h-167zM279 140v104h167v-120q0 -56 -31 -90t-111 -34h-65v118h15q13 0 19 5.5t6 16.5zM202 359v-128h-167v144q0 56 31 90t111 34h65v-118h-15q-13 0 -19 -5.5t-6 -16.5zM202 244v-104
q0 -11 6 -16.5t19 -5.5h15v-118h-65q-80 0 -111 34t-31 90v120h167zM38 555v106h389v-106h-389z" />
    <glyph glyph-name="Ohungarumlaut" unicode="&#x150;" horiz-adv-x="500" 
d="M299 674l97 150h147l-133 -150h-111zM109 674l97 150h147l-133 -150h-111zM304 374v121q0 11 -6 16.5t-19 5.5h-33v125h86q80 0 113.5 -34t33.5 -90v-144h-175zM304 147v240h175v-263q0 -56 -33.5 -90t-113.5 -34h-86v125h33q13 0 19 5.5t6 16.5zM212 495v-121h-175v144
q0 56 33.5 90t113.5 34h86v-125h-33q-13 0 -19 -5.5t-6 -16.5zM212 387v-240q0 -11 6 -16.5t19 -5.5h33v-125h-86q-80 0 -113.5 34t-33.5 90v263h175z" />
    <glyph glyph-name="ohungarumlaut" unicode="&#x151;" horiz-adv-x="481" 
d="M273 532l97 150h147l-133 -150h-111zM83 532l97 150h147l-133 -150h-111zM279 231v128q0 11 -6 16.5t-19 5.5h-15v118h65q80 0 111 -34t31 -90v-144h-167zM279 140v104h167v-120q0 -56 -31 -90t-111 -34h-65v118h15q13 0 19 5.5t6 16.5zM202 359v-128h-167v144
q0 56 31 90t111 34h65v-118h-15q-13 0 -19 -5.5t-6 -16.5zM202 244v-104q0 -11 6 -16.5t19 -5.5h15v-118h-65q-80 0 -111 34t-31 90v120h167z" />
    <glyph glyph-name="OE" unicode="&#x152;" horiz-adv-x="740" 
d="M332 374v131q0 11 -6 16.5t-19 5.5h-33v115h16q54 0 81 -26t36.5 -65.5t9.5 -82.5v-94h-85zM332 137v250h85v-213q0 -42 -9.5 -82t-36.5 -66t-81 -26h-16v115h33q13 0 19 5.5t6 16.5zM240 505v-131h-175v144q0 56 33.5 90t113.5 34h66v-115h-13q-13 0 -19 -5.5t-6 -16.5z
M240 387v-250q0 -11 6 -16.5t19 -5.5h13v-115h-66q-80 0 -113.5 34t-33.5 90v263h175zM362 642h125v-642h-125v642zM668 381v-115h-281v115h281zM697 642v-115h-323v115h323zM706 115v-115h-332v115h332z" />
    <glyph glyph-name="oe" unicode="&#x153;" horiz-adv-x="833" 
d="M168 0q-71 0 -102 34t-31 90v251q0 56 31 90t102 34h68q36 0 68 -15t46 -41q16 26 47.5 41t83.5 15h62q80 0 113.5 -34t33.5 -90v-152h-165v134q0 11 -6 16.5t-19 5.5h-36q-13 0 -19 -5.5t-6 -16.5v-215q0 -11 6 -16.5t19 -5.5h36q13 0 19 5.5t6 16.5v25h165v-43
q0 -56 -33.5 -90t-113.5 -34h-63q-52 0 -83.5 15t-47.5 41q-14 -26 -46 -41t-68 -15h-67zM205 352v-205q0 -11 6 -16.5t19 -5.5h17q14 0 20.5 7t6.5 23v189q0 30 -27 30h-17q-13 0 -19 -5.5t-6 -16.5zM690 300v-99h-375v99h375z" />
    <glyph glyph-name="Racute" unicode="&#x154;" horiz-adv-x="514" 
d="M309 369v126q0 11 -6 16.5t-19 5.5h-186v125h239q80 0 113.5 -34t33.5 -90v-166q0 -56 -33.5 -90t-113.5 -34h-239v119h186q13 0 19 5.5t6 16.5zM40 642h175v-642h-175v642zM195 298h171l150 -298h-188zM176 674l97 150h170l-133 -150h-134z" />
    <glyph glyph-name="racute" unicode="&#x155;" horiz-adv-x="335" 
d="M330 504v-148h-57q-63 0 -63 -68v-27h-6v131q0 34 13 59t38 39t60 14h15zM210 0h-170v499h167v-115l3 20v-404zM116 532l97 150h170l-133 -150h-134z" />
    <glyph glyph-name="uni0156" unicode="&#x156;" horiz-adv-x="514" 
d="M309 369v126q0 11 -6 16.5t-19 5.5h-186v125h239q80 0 113.5 -34t33.5 -90v-166q0 -56 -33.5 -90t-113.5 -34h-239v119h186q13 0 19 5.5t6 16.5zM40 642h175v-642h-175v642zM195 298h171l150 -298h-188zM164 -46h167v-87l-115 -166h-52v253z" />
    <glyph glyph-name="uni0157" unicode="&#x157;" horiz-adv-x="335" 
d="M330 504v-148h-57q-63 0 -63 -68v-27h-6v131q0 34 13 59t38 39t60 14h15zM210 0h-170v499h167v-115l3 20v-404zM41 -46h167v-87l-115 -166h-52v253z" />
    <glyph glyph-name="Rcaron" unicode="&#x158;" horiz-adv-x="514" 
d="M309 369v126q0 11 -6 16.5t-19 5.5h-186v125h239q80 0 113.5 -34t33.5 -90v-166q0 -56 -33.5 -90t-113.5 -34h-239v119h186q13 0 19 5.5t6 16.5zM40 642h175v-642h-175v642zM195 298h171l150 -298h-188zM177 674l-133 150h157l53 -69l53 69h157l-133 -150h-154z" />
    <glyph glyph-name="rcaron" unicode="&#x159;" horiz-adv-x="335" 
d="M330 504v-148h-57q-63 0 -63 -68v-27h-6v131q0 34 13 59t38 39t60 14h15zM210 0h-170v499h167v-115l3 20v-404zM107 532l-133 150h157l53 -69l53 69h157l-133 -150h-154z" />
    <glyph glyph-name="Sacute" unicode="&#x15a;" horiz-adv-x="491" 
d="M286 147v91q0 11 -6 16.5t-19 5.5h-96q-78 0 -106.5 35t-28.5 91v132q0 56 33 90t113 34h137q80 0 113 -34t33 -90v-77h-175v54q0 11 -6 16.5t-19 5.5h-29q-13 0 -19 -5.5t-6 -16.5v-95q0 -11 6 -16.5t19 -5.5h94q78 0 107.5 -33t29.5 -89v-132q0 -56 -33 -90t-113 -34
h-136q-80 0 -113.5 34t-33.5 90v77h175v-54q0 -11 6 -16.5t19 -5.5h29q13 0 19 5.5t6 16.5zM193 675l97 150h170l-133 -150h-134z" />
    <glyph glyph-name="sacute" unicode="&#x15b;" horiz-adv-x="445" 
d="M255 132v40q0 11 -6 16.5t-19 5.5h-61q-80 0 -112 33.5t-32 89.5v58q0 56 33.5 90t113.5 34h93q80 0 113.5 -34t33.5 -90v-42h-162v34q0 11 -6 16.5t-19 5.5h-10q-13 0 -19 -5.5t-6 -16.5v-44q0 -11 6 -16.5t19 -5.5h61q80 0 112 -33t32 -89v-55q0 -56 -33.5 -90
t-113.5 -34h-98q-80 0 -113.5 34t-33.5 90v41h165v-33q0 -11 6 -16.5t19 -5.5h12q13 0 19 5.5t6 16.5zM162 532l97 150h170l-133 -150h-134z" />
    <glyph glyph-name="Scedilla" unicode="&#x15e;" horiz-adv-x="491" 
d="M286 147v91q0 11 -6 16.5t-19 5.5h-96q-78 0 -106.5 35t-28.5 91v132q0 56 33 90t113 34h137q80 0 113 -34t33 -90v-77h-175v54q0 11 -6 16.5t-19 5.5h-29q-13 0 -19 -5.5t-6 -16.5v-95q0 -11 6 -16.5t19 -5.5h94q78 0 107.5 -33t29.5 -89v-132q0 -56 -33 -90t-113 -34
h-136q-80 0 -113.5 34t-33.5 90v77h175v-54q0 -11 6 -16.5t19 -5.5h29q13 0 19 5.5t6 16.5zM156 -46h167v-87l-115 -166h-52v253z" />
    <glyph glyph-name="scedilla" unicode="&#x15f;" horiz-adv-x="445" 
d="M255 132v40q0 11 -6 16.5t-19 5.5h-61q-80 0 -112 33.5t-32 89.5v58q0 56 33.5 90t113.5 34h93q80 0 113.5 -34t33.5 -90v-42h-162v34q0 11 -6 16.5t-19 5.5h-10q-13 0 -19 -5.5t-6 -16.5v-44q0 -11 6 -16.5t19 -5.5h61q80 0 112 -33t32 -89v-55q0 -56 -33.5 -90
t-113.5 -34h-98q-80 0 -113.5 34t-33.5 90v41h165v-33q0 -11 6 -16.5t19 -5.5h12q13 0 19 5.5t6 16.5zM138 -46h167v-87l-115 -166h-52v253z" />
    <glyph glyph-name="Scaron" unicode="&#x160;" horiz-adv-x="491" 
d="M286 147v91q0 11 -6 16.5t-19 5.5h-96q-78 0 -106.5 35t-28.5 91v132q0 56 33 90t113 34h137q80 0 113 -34t33 -90v-77h-175v54q0 11 -6 16.5t-19 5.5h-29q-13 0 -19 -5.5t-6 -16.5v-95q0 -11 6 -16.5t19 -5.5h94q78 0 107.5 -33t29.5 -89v-132q0 -56 -33 -90t-113 -34
h-136q-80 0 -113.5 34t-33.5 90v77h175v-54q0 -11 6 -16.5t19 -5.5h29q13 0 19 5.5t6 16.5zM168 675l-133 150h157l53 -69l53 69h157l-133 -150h-154z" />
    <glyph glyph-name="scaron" unicode="&#x161;" horiz-adv-x="445" 
d="M255 132v40q0 11 -6 16.5t-19 5.5h-61q-80 0 -112 33.5t-32 89.5v58q0 56 33.5 90t113.5 34h93q80 0 113.5 -34t33.5 -90v-42h-162v34q0 11 -6 16.5t-19 5.5h-10q-13 0 -19 -5.5t-6 -16.5v-44q0 -11 6 -16.5t19 -5.5h61q80 0 112 -33t32 -89v-55q0 -56 -33.5 -90
t-113.5 -34h-98q-80 0 -113.5 34t-33.5 90v41h165v-33q0 -11 6 -16.5t19 -5.5h12q13 0 19 5.5t6 16.5zM145 532l-133 150h157l53 -69l53 69h157l-133 -150h-154z" />
    <glyph glyph-name="uni0162" unicode="&#x162;" horiz-adv-x="432" 
d="M128 582h175v-582h-175v582zM427 642v-125h-422v125h422zM133 -46h167v-87l-115 -166h-52v253z" />
    <glyph glyph-name="uni0163" unicode="&#x163;" horiz-adv-x="432" 
d="M128 582h175v-582h-175v582zM427 642v-125h-422v125h422zM132 -46h167v-87l-115 -166h-52v253z" />
    <glyph glyph-name="Tcaron" unicode="&#x164;" horiz-adv-x="432" 
d="M128 582h175v-582h-175v582zM427 642v-125h-422v125h422zM136 675l-133 150h157l53 -69l53 69h157l-133 -150h-154z" />
    <glyph glyph-name="tcaron" unicode="&#x165;" horiz-adv-x="303" 
d="M273 731h116v-77l-76 -117h-40v194zM230 597v-450q0 -11 6 -16.5t19 -5.5h37v-125h-85q-80 0 -113.5 34t-33.5 90v473h170zM293 499v-125h-288v125h288z" />
    <glyph glyph-name="Umacron" unicode="&#x16a;" horiz-adv-x="522" 
d="M307 147v495h175v-518q0 -56 -33.5 -90t-113.5 -34h-86v125h33q13 0 19 5.5t6 16.5zM215 642v-495q0 -11 6 -16.5t19 -5.5h33v-125h-86q-80 0 -113.5 34t-33.5 90v518h175zM67 675v106h389v-106h-389z" />
    <glyph glyph-name="umacron" unicode="&#x16b;" horiz-adv-x="484" 
d="M35 499h170v-352q0 -11 6 -16.5t19 -5.5h17q14 0 20.5 7t6.5 23v27h6v-90q0 -42 -23.5 -67t-70.5 -25h-18q-71 0 -102 34t-31 90v375zM274 499h170v-499h-167v95h-3v404zM44 555v106h389v-106h-389z" />
    <glyph glyph-name="Uring" unicode="&#x16e;" horiz-adv-x="522" 
d="M307 147v495h175v-518q0 -56 -33.5 -90t-113.5 -34h-86v125h33q13 0 19 5.5t6 16.5zM215 642v-495q0 -11 6 -16.5t19 -5.5h33v-125h-86q-80 0 -113.5 34t-33.5 90v518h175zM406 779v-16q0 -40 -22 -64.5t-80 -24.5h-86q-58 0 -80 24.5t-22 64.5v16q0 41 22 65.5t80 24.5
h86q58 0 80 -24.5t22 -65.5zM300 764v14q0 10 -4.5 14.5t-15.5 4.5h-38q-11 0 -15.5 -4.5t-4.5 -14.5v-14q0 -10 4.5 -14.5t15.5 -4.5h38q11 0 15.5 4.5t4.5 14.5z" />
    <glyph glyph-name="uring" unicode="&#x16f;" horiz-adv-x="484" 
d="M35 499h170v-352q0 -11 6 -16.5t19 -5.5h17q14 0 20.5 7t6.5 23v27h6v-90q0 -42 -23.5 -67t-70.5 -25h-18q-71 0 -102 34t-31 90v375zM274 499h170v-499h-167v95h-3v404zM394 632v-16q0 -40 -22 -64.5t-80 -24.5h-86q-58 0 -80 24.5t-22 64.5v16q0 41 22 65.5t80 24.5h86
q58 0 80 -24.5t22 -65.5zM288 617v14q0 10 -4.5 14.5t-15.5 4.5h-38q-11 0 -15.5 -4.5t-4.5 -14.5v-14q0 -10 4.5 -14.5t15.5 -4.5h38q11 0 15.5 4.5t4.5 14.5z" />
    <glyph glyph-name="Uhungarumlaut" unicode="&#x170;" horiz-adv-x="500" 
d="M291 675l97 150h147l-133 -150h-111zM101 675l97 150h147l-133 -150h-111zM307 147v495h175v-518q0 -56 -33.5 -90t-113.5 -34h-86v125h33q13 0 19 5.5t6 16.5zM215 642v-495q0 -11 6 -16.5t19 -5.5h33v-125h-86q-80 0 -113.5 34t-33.5 90v518h175z" />
    <glyph glyph-name="uhungarumlaut" unicode="&#x171;" horiz-adv-x="484" 
d="M280 532l97 150h147l-133 -150h-111zM90 532l97 150h147l-133 -150h-111zM35 499h170v-352q0 -11 6 -16.5t19 -5.5h17q14 0 20.5 7t6.5 23v27h6v-90q0 -42 -23.5 -67t-70.5 -25h-18q-71 0 -102 34t-31 90v375zM274 499h170v-499h-167v95h-3v404z" />
    <glyph glyph-name="Uogonek" unicode="&#x172;" horiz-adv-x="522" 
d="M307 147v495h175v-518q0 -56 -33.5 -90t-113.5 -34h-86v125h33q13 0 19 5.5t6 16.5zM215 642v-495q0 -11 6 -16.5t19 -5.5h33v-125h-86q-80 0 -113.5 34t-33.5 90v518h175zM105 -121q0 47 24 75.5t91 28.5h97v-97h-73q-11 0 -16 -4.5t-5 -13.5v-27q0 -9 5 -13.5t16 -4.5
h91v-97h-115q-67 0 -91 28.5t-24 76.5v48zM317 -22h-91v37h91v-37z" />
    <glyph glyph-name="uogonek" unicode="&#x173;" horiz-adv-x="484" 
d="M35 499h170v-352q0 -11 6 -16.5t19 -5.5h17q14 0 20.5 7t6.5 23v27h6v-90q0 -42 -23.5 -67t-70.5 -25h-18q-71 0 -102 34t-31 90v375zM274 499h170v-499h-167v95h-3v404zM232 -121q0 47 24 75.5t91 28.5h97v-97h-73q-11 0 -16 -4.5t-5 -13.5v-27q0 -9 5 -13.5t16 -4.5h91
v-97h-115q-67 0 -91 28.5t-24 76.5v48zM444 -22h-91v37h91v-37z" />
    <glyph glyph-name="Ydieresis" unicode="&#x178;" horiz-adv-x="500" 
d="M54 693v130h152v-130h-152zM294 693v130h152v-130h-152zM340 179h-151l-189 463h179l84 -271l78 271h178zM177 272h175v-272h-175v272z" />
    <glyph glyph-name="Zacute" unicode="&#x179;" horiz-adv-x="464" 
d="M444 642v-125h-411v125h411zM261 517h183l-241 -392h-183zM437 125v-125h-417v125h417zM164 675l97 150h170l-133 -150h-134z" />
    <glyph glyph-name="zacute" unicode="&#x17a;" horiz-adv-x="391" 
d="M371 499v-119h-348v119h348zM189 380h182l-182 -261h-179zM381 119v-119h-371v119h371zM126 532l97 150h170l-133 -150h-134z" />
    <glyph glyph-name="Zdotaccent" unicode="&#x17b;" horiz-adv-x="464" 
d="M444 642v-125h-411v125h411zM261 517h183l-241 -392h-183zM437 125v-125h-417v125h417zM163 675v130h162v-130h-162z" />
    <glyph glyph-name="zdotaccent" unicode="&#x17c;" horiz-adv-x="391" 
d="M371 499v-119h-348v119h348zM189 380h182l-182 -261h-179zM381 119v-119h-371v119h371zM120 542v130h162v-130h-162z" />
    <glyph glyph-name="Zcaron" unicode="&#x17d;" horiz-adv-x="464" 
d="M444 642v-125h-411v125h411zM261 517h183l-241 -392h-183zM437 125v-125h-417v125h417zM172 675l-133 150h157l53 -69l53 69h157l-133 -150h-154z" />
    <glyph glyph-name="zcaron" unicode="&#x17e;" horiz-adv-x="391" 
d="M371 499v-119h-348v119h348zM189 380h182l-182 -261h-179zM381 119v-119h-371v119h371zM123 532l-133 150h157l53 -69l53 69h157l-133 -150h-154z" />
    <glyph glyph-name="florin" unicode="&#x192;" horiz-adv-x="449" 
d="M336 522l-80 -545q-5 -37 -19 -65t-44 -43.5t-84 -15.5h-101v125h53q13 0 18.5 5.5t6.5 16.5l80 545q6 37 20 65t44 43.5t83 15.5h101v-125h-53q-13 0 -18 -5.5t-7 -16.5zM413 499v-125h-338v125h338z" />
    <glyph glyph-name="uni0218" unicode="&#x218;" horiz-adv-x="491" 
d="M286 147v91q0 11 -6 16.5t-19 5.5h-96q-78 0 -106.5 35t-28.5 91v132q0 56 33 90t113 34h137q80 0 113 -34t33 -90v-77h-175v54q0 11 -6 16.5t-19 5.5h-29q-13 0 -19 -5.5t-6 -16.5v-95q0 -11 6 -16.5t19 -5.5h94q78 0 107.5 -33t29.5 -89v-132q0 -56 -33 -90t-113 -34
h-136q-80 0 -113.5 34t-33.5 90v77h175v-54q0 -11 6 -16.5t19 -5.5h29q13 0 19 5.5t6 16.5zM158 -46h167v-87l-115 -166h-52v253z" />
    <glyph glyph-name="uni0219" unicode="&#x219;" horiz-adv-x="445" 
d="M255 132v40q0 11 -6 16.5t-19 5.5h-61q-80 0 -112 33.5t-32 89.5v58q0 56 33.5 90t113.5 34h93q80 0 113.5 -34t33.5 -90v-42h-162v34q0 11 -6 16.5t-19 5.5h-10q-13 0 -19 -5.5t-6 -16.5v-44q0 -11 6 -16.5t19 -5.5h61q80 0 112 -33t32 -89v-55q0 -56 -33.5 -90
t-113.5 -34h-98q-80 0 -113.5 34t-33.5 90v41h165v-33q0 -11 6 -16.5t19 -5.5h12q13 0 19 5.5t6 16.5zM128 -46h167v-87l-115 -166h-52v253z" />
    <glyph glyph-name="uni021A" unicode="&#x21a;" horiz-adv-x="432" 
d="M128 582h175v-582h-175v582zM427 642v-125h-422v125h422zM131 -46h167v-87l-115 -166h-52v253z" />
    <glyph glyph-name="uni021B" unicode="&#x21b;" horiz-adv-x="303" 
d="M230 597v-450q0 -11 6 -16.5t19 -5.5h37v-125h-85q-80 0 -113.5 34t-33.5 90v473h170zM293 499v-125h-288v125h288zM82 -46h167v-87l-115 -166h-52v253z" />
    <glyph glyph-name="uni02BC" unicode="&#x2bc;" horiz-adv-x="254" 
d="M40 642h174v-90l-127 -223h-47v313z" />
    <glyph glyph-name="circumflex" unicode="&#x2c6;" horiz-adv-x="500" 
d="M40 532l133 150h154l133 -150h-157l-53 69l-53 -69h-157z" />
    <glyph glyph-name="caron" unicode="&#x2c7;" horiz-adv-x="500" 
d="M173 532l-133 150h157l53 -69l53 69h157l-133 -150h-154z" />
    <glyph glyph-name="macronmod" unicode="&#x2c9;" horiz-adv-x="500" 
d="M55 554v107h389v-107h-389z" />
    <glyph glyph-name="breve" unicode="&#x2d8;" horiz-adv-x="500" 
d="M297 682h150v-26q0 -56 -33.5 -90t-113.5 -34h-60v95h32q13 0 19 5.5t6 16.5v33zM53 682h150v-33q0 -11 6 -16.5t19 -5.5h32v-95h-60q-80 0 -113.5 34t-33.5 90v26z" />
    <glyph glyph-name="dotaccent" unicode="&#x2d9;" horiz-adv-x="500" 
d="M169 542v130h162v-130h-162z" />
    <glyph glyph-name="ring" unicode="&#x2da;" horiz-adv-x="500" 
d="M395 615v-16q0 -40 -22 -64.5t-80 -24.5h-86q-58 0 -80 24.5t-22 64.5v16q0 41 22 65.5t80 24.5h86q58 0 80 -24.5t22 -65.5zM289 600v14q0 10 -4.5 14.5t-15.5 4.5h-38q-11 0 -15.5 -4.5t-4.5 -14.5v-14q0 -10 4.5 -14.5t15.5 -4.5h38q11 0 15.5 4.5t4.5 14.5z" />
    <glyph glyph-name="ogonek" unicode="&#x2db;" horiz-adv-x="500" 
d="M145 -121q0 47 24 75.5t91 28.5h97v-97h-73q-11 0 -16 -4.5t-5 -13.5v-27q0 -9 5 -13.5t16 -4.5h91v-97h-115q-67 0 -91 28.5t-24 76.5v48zM357 -22h-91v37h91v-37z" />
    <glyph glyph-name="tilde" unicode="&#x2dc;" horiz-adv-x="500" 
d="M328 532q-29 0 -52.5 13t-41 26t-28.5 13q-18 0 -18 -21v-31h-135v55q0 44 21.5 69.5t77.5 25.5h19q29 0 52.5 -13t41.5 -26t28 -13q9 0 13.5 5.5t4.5 15.5v31h135v-60q0 -44 -22 -67t-79 -23h-17z" />
    <glyph glyph-name="hungarumlaut" unicode="&#x2dd;" horiz-adv-x="500" 
d="M223 532l97 150h147l-133 -150h-111zM33 532l97 150h147l-133 -150h-111z" />
    <glyph glyph-name="uni0901" unicode="&#x901;" horiz-adv-x="0" 
d="M-372 887h140v-72q0 -15 6.5 -20.5t21.5 -5.5h164q15 0 21.5 5.5t6.5 20.5v72h140v-93q0 -49 -33 -74t-119 -25h-196q-85 0 -118.5 25t-33.5 74v93zM-183 958h122v-129h-122v129z" />
    <glyph glyph-name="uni0902" unicode="&#x902;" horiz-adv-x="0" 
d="M-181 857h122v-129h-122v129z" />
    <glyph glyph-name="uni0903" unicode="&#x903;" horiz-adv-x="262" 
d="M70 187h122v-129h-122v129zM70 485h122v-129h-122v129z" />
    <glyph glyph-name="uni0905" unicode="&#x905;" horiz-adv-x="730" 
d="M520 642h170v-642h-170v642zM320 368h247v-113h-206zM659 642h91v-113h-91v113zM313 647q82 0 111 -31t29 -86v-109q0 -28 -12 -40.5t-35 -15.5v-5q23 -3 35 -15.5t12 -40.5v-109q0 -55 -29 -86t-111 -31h-122q-82 0 -111 31t-29 86v82h170v-66q0 -11 6 -15.5t17 -4.5h16
q11 0 17 4.5t6 15.5v71q0 14 -6 19t-17 5h-33v113h33q11 0 17 5t6 19v71q0 11 -6 15.5t-17 4.5h-16q-11 0 -17 -4.5t-6 -15.5v-56h-170v72q0 55 29 86t111 31h122z" />
    <glyph glyph-name="uni0906" unicode="&#x906;" horiz-adv-x="980" 
d="M520 642h170v-642h-170v642zM320 368h247v-113h-206zM659 642h91v-113h-91v113zM313 647q82 0 111 -31t29 -86v-109q0 -28 -12 -40.5t-35 -15.5v-5q23 -3 35 -15.5t12 -40.5v-109q0 -55 -29 -86t-111 -31h-122q-82 0 -111 31t-29 86v82h170v-66q0 -11 6 -15.5t17 -4.5h16
q11 0 17 4.5t6 15.5v71q0 14 -6 19t-17 5h-33v113h33q11 0 17 5t6 19v71q0 11 -6 15.5t-17 4.5h-16q-11 0 -17 -4.5t-6 -15.5v-56h-170v72q0 55 29 86t111 31h122zM770 552h170v-552h-170v552zM710 642h290v-113h-290v113z" />
    <glyph glyph-name="uni0907" unicode="&#x907;" horiz-adv-x="462" 
d="M-20 642h502v-113h-502v113zM30 165h170v-227h-170v227zM244 593h170v-224h-191q-11 0 -17 -4.5t-6 -15.5v-24q0 -11 6 -15.5t17 -4.5h69q82 0 111 -26t29 -81v-91q0 -55 -29 -81t-111 -26h-120v103h67q11 0 17 4.5t6 15.5v59q0 11 -6 15.5t-17 4.5h-69q-82 0 -111 26
t-29 81v56q0 55 29 81t111 26h74v121z" />
    <glyph glyph-name="uni0908" unicode="&#x908;" horiz-adv-x="462" 
d="M-20 642h502v-113h-502v113zM30 165h170v-227h-170v227zM244 593h170v-224h-191q-11 0 -17 -4.5t-6 -15.5v-24q0 -11 6 -15.5t17 -4.5h69q82 0 111 -26t29 -81v-91q0 -55 -29 -81t-111 -26h-120v103h67q11 0 17 4.5t6 15.5v59q0 11 -6 15.5t-17 4.5h-69q-82 0 -111 26
t-29 81v56q0 55 29 81t111 26h74v121zM490 709h-53q-11 0 -17 -4.5t-6 -15.5v-57h-170v73q0 55 29 81t111 26h106v-103z" />
    <glyph glyph-name="uni0909" unicode="&#x909;" horiz-adv-x="471" 
d="M-20 642h502v-113h-502v113zM422 405q0 -28 -12 -40.5t-35 -15.5v-5q23 -3 35 -15.5t12 -40.5v-181q0 -55 -29 -81t-111 -26h-122q-82 0 -111 26t-29 81v116h170v-100q0 -11 5 -15.5t12 -4.5h22q11 0 17 4.5t6 15.5v143q0 14 -6 19t-17 5h-44v113h44q11 0 17 5t6 19v68
q0 20 -7 27t-27 7l94 28q50 0 80 -9t30 -44v-99z" />
    <glyph glyph-name="uni090A" unicode="&#x90a;" horiz-adv-x="677" 
d="M526 344q65 0 98 -28.5t33 -98.5v-110q0 -55 -29 -81t-111 -26h-64v113h11q11 0 17 4.5t6 15.5v74q0 14 -6 19t-17 5h-137v113h199zM697 642v-113h-717v113h717zM422 405q0 -28 -12 -40.5t-35 -15.5v-5q23 -3 35 -15.5t12 -40.5v-181q0 -55 -29 -81t-111 -26h-122
q-82 0 -111 26t-29 81v116h170v-100q0 -11 5 -15.5t12 -4.5h22q11 0 17 4.5t6 15.5v143q0 14 -6 19t-17 5h-44v113h44q11 0 17 5t6 19v68q0 20 -7 27t-27 7l94 28q50 0 80 -9t30 -44v-99z" />
    <glyph glyph-name="uni090B" unicode="&#x90b;" horiz-adv-x="1016" 
d="M514 552v-552h-170v552h170zM-20 642h1056v-113h-1056v113zM119 467q33 0 56 -7t40 -21.5t33 -38.5l109 -160l-135 -240h-195l159 283l-22 -62l-59 86q-19 28 -34 37.5t-41 9.5h-15v113h104zM806 351q0 11 -6 15.5t-17 4.5h-16q-11 0 -17 -4.5t-6 -15.5v-50
q0 -11 6 -15.5t17 -4.5h16q11 0 17 4.5t6 15.5v50zM966 -150h-222q-82 0 -111 26t-29 81v63q0 52 23 79.5t87 27.5h12l-92 54h-393v100h443v-28q-49 0 -79.5 9.5t-30.5 43.5v39q0 70 35.5 98.5t125.5 28.5h80q90 0 125.5 -28.5t35.5 -98.5v-10q0 -70 -35.5 -98.5
t-125.5 -28.5h-15l141 -81v-103h-144q-11 0 -17 -4.5t-6 -15.5v-31q0 -11 6 -15.5t17 -4.5h169v-103z" />
    <glyph glyph-name="uni090C" unicode="&#x90c;" horiz-adv-x="740" 
d="M-20 642h780v-113h-780v113zM312 472q28 0 40.5 -12t15.5 -35h5q3 23 15.5 35t40.5 12h109v-113h-60q-14 0 -18.5 -6.5t-4.5 -17.5v-127h-170v127q0 11 -4.5 17.5t-18.5 6.5h-29q-11 0 -17 -5t-6 -19v-202q0 -11 6 -15.5t17 -4.5h11v-113h-64q-82 0 -111 26t-29 81v238
q0 70 33.5 98.5t97.5 28.5h141zM530 548h170v-502h-127q-11 0 -17 -4.5t-6 -15.5v-33q0 -11 6 -15.5t17 -4.5h187v-113h-240q-82 0 -111 26t-29 81v75q0 55 29 81t111 26h10v399z" />
    <glyph glyph-name="uni090F" unicode="&#x90f;" horiz-adv-x="512" 
d="M40 570h170v-447q0 -11 6 -15.5t17 -4.5h52q7 0 12 4.5t5 15.5v100h170v-116q0 -55 -29 -81t-111 -26h-152q-82 0 -111 26t-29 81v463zM302 570h170v-195q0 -55 -29 -81t-111 -26h-84v113h31q11 0 17 4.5t6 15.5v169zM-20 642h552v-113h-552v113z" />
    <glyph glyph-name="uni0910" unicode="&#x910;" horiz-adv-x="512" 
d="M40 570h170v-447q0 -11 6 -15.5t17 -4.5h52q7 0 12 4.5t5 15.5v100h170v-116q0 -55 -29 -81t-111 -26h-152q-82 0 -111 26t-29 81v463zM302 570h170v-195q0 -55 -29 -81t-111 -26h-84v113h31q11 0 17 4.5t6 15.5v169zM-20 642h552v-113h-552v113zM329 843l143 -204h-164
q-35 28 -64.5 59.5t-59.5 69.5l-58 75h203z" />
    <glyph glyph-name="uni0911" unicode="&#x911;" horiz-adv-x="980" 
d="M965 815v0v72h140v-93q0 -51 -34.5 -75t-117.5 -24h-196q-83 0 -117.5 24t-34.5 75v93h140v-72q0 -15 6.5 -20.5t21.5 -5.5h164q15 0 21.5 5.5t6.5 20.5zM520 642v0h480v-113h-60v-529h-170v529h-80v-529h-170v255h-67v-60q0 -58 -31 -87.5t-109 -29.5h-122
q-78 0 -109 29.5t-31 87.5v82h170v-66q0 -10 6 -15t17 -5h16q11 0 17 5t6 15v71q0 12 -6 18t-17 6h-33v113h33q11 0 17 6t6 18v71q0 10 -6 15t-17 5h-16q-11 0 -17 -5t-6 -15v-56h-170v72q0 58 31 87.5t109 29.5h122q78 0 109 -29.5t31 -87.5v-109q0 -42 -33 -53h100v274z
" />
    <glyph glyph-name="uni0913" unicode="&#x913;" horiz-adv-x="980" 
d="M794 843l143 -204h-164q-35 28 -64.5 59.5t-59.5 69.5l-58 75h203zM520 642h170v-642h-170v642zM320 368h247v-113h-206zM659 642h91v-113h-91v113zM313 647q82 0 111 -31t29 -86v-109q0 -28 -12 -40.5t-35 -15.5v-5q23 -3 35 -15.5t12 -40.5v-109q0 -55 -29 -86
t-111 -31h-122q-82 0 -111 31t-29 86v82h170v-66q0 -11 6 -15.5t17 -4.5h16q11 0 17 4.5t6 15.5v71q0 14 -6 19t-17 5h-33v113h33q11 0 17 5t6 19v71q0 11 -6 15.5t-17 4.5h-16q-11 0 -17 -4.5t-6 -15.5v-56h-170v72q0 55 29 86t111 31h122zM770 552h170v-552h-170v552z
M710 642h290v-113h-290v113z" />
    <glyph glyph-name="uni0914" unicode="&#x914;" horiz-adv-x="980" 
d="M512 843h200l43 -56q30 -39 51.5 -67.5t43.5 -63.5h5q-19 33 -30.5 60t-27.5 64l-26 63h154l14 -204h-166q-28 18 -50.5 33t-44 32.5t-49.5 40.5zM520 642h170v-642h-170v642zM320 368h247v-113h-206zM659 642h91v-113h-91v113zM313 647q82 0 111 -31t29 -86v-109
q0 -28 -12 -40.5t-35 -15.5v-5q23 -3 35 -15.5t12 -40.5v-109q0 -55 -29 -86t-111 -31h-122q-82 0 -111 31t-29 86v82h170v-66q0 -11 6 -15.5t17 -4.5h16q11 0 17 4.5t6 15.5v71q0 14 -6 19t-17 5h-33v113h33q11 0 17 5t6 19v71q0 11 -6 15.5t-17 4.5h-16q-11 0 -17 -4.5
t-6 -15.5v-56h-170v72q0 55 29 86t111 31h122zM770 552h170v-552h-170v552zM710 642h290v-113h-290v113z" />
    <glyph glyph-name="uni0915" unicode="&#x915;" horiz-adv-x="700" 
d="M265 592h170v-592h-170v592zM224 472v-103h-11q-11 0 -17 -4.5t-6 -15.5v-134q0 -14 6 -19t17 -5h29q11 0 17 5t6 19l14 -67q0 -34 -12 -52t-55 -18h-61q-64 0 -97.5 28.5t-33.5 98.5v160q0 55 29 81t111 26h64zM549 472q65 0 98 -28.5t33 -98.5v-160q0 -55 -29 -81
t-111 -26h-64v103h11q11 0 17 4.5t6 15.5v134q0 14 -6 19t-17 5h-29q-11 0 -17 -5t-6 -19l-14 67q0 35 12 52.5t55 17.5h61zM-20 642h740v-113h-740v113z" />
    <glyph glyph-name="uni0916" unicode="&#x916;" horiz-adv-x="931" 
d="M721 592h170v-592h-170v592zM680 472v-103h-11q-11 0 -17 -4.5t-6 -15.5v-134q0 -14 6 -19t17 -5h29q11 0 17 5t6 19l14 -67q0 -34 -12 -52t-55 -18h-61q-64 0 -97.5 28.5t-33.5 98.5v160q0 55 29 81t111 26h64zM40 472h170v-325q0 -19 7.5 -26.5t26.5 -7.5h248v-113
h-272q-94 0 -137 26.5t-43 88.5v357zM-20 642h971v-113h-569l24 17q13 -5 20 -15t7 -27v-159q0 -62 -32 -88.5t-111 -26.5h-93v113h32q19 0 26.5 7.5t7.5 26.5v118q0 20 -7 27t-27 7h-249v113z" />
    <glyph glyph-name="uni0917" unicode="&#x917;" horiz-adv-x="726" 
d="M516 572h170v-572h-170v572zM-20 642h766v-113h-766v113zM266 554h170v-349q0 -70 -35.5 -98.5t-125.5 -28.5h-86q-90 0 -125.5 28.5t-35.5 98.5v152q0 62 43 88.5t137 26.5h119v-113h-98q-19 0 -25 -5.5t-6 -25.5v-113q0 -14 7 -19t18 -5h18q11 0 18 5t7 19v339z" />
    <glyph glyph-name="uni0918" unicode="&#x918;" horiz-adv-x="532" 
d="M40 504q0 35 30.5 44t79.5 9l94 -28q-13 0 -20.5 -3t-10.5 -10.5t-3 -20.5v-55q0 -14 6 -19t17 -5h33v-113h-33q-11 0 -17 -5t-6 -19v-64q0 -14 6 -19t17 -5h55q20 0 27 7.5t7 26.5l14 -87q0 -27 -14 -43.5t-49 -16.5h-72q-82 0 -121.5 28.5t-39.5 98.5v96
q0 28 12.5 40.5t34.5 15.5v5q-22 3 -34.5 15.5t-12.5 40.5v86zM-20 642h572v-113h-572v113zM322 592h170v-592h-170v592z" />
    <glyph glyph-name="uni0919" unicode="&#x919;" horiz-adv-x="558" 
d="M-20 642h598v-113h-598v113zM237 593h170v-224h-180q-11 0 -17 -4.5t-6 -15.5v-23q0 -11 6 -15.5t17 -4.5h63q82 0 111 -26t29 -81v-92q0 -55 -29 -81t-111 -26h-122q-82 0 -111 26t-29 81v52h170v-36q0 -11 5 -15.5t12 -4.5h22q11 0 17 4.5t6 15.5v60q0 11 -6 15.5
t-17 4.5h-63q-82 0 -111 26t-29 81v55q0 55 29 81t111 26h63v121zM434 413h122v-129h-122v129z" />
    <glyph glyph-name="uni091A" unicode="&#x91a;" horiz-adv-x="499" 
d="M-22 642h541v-113h-541v113zM289 592h170v-592h-170v592zM-12 472h272v-113h-272v113zM44 305q0 50 31 66t80 16l82 -28q-7 0 -12.5 -2t-8 -7t-2.5 -15v-120q0 -14 6 -19t17 -5h29q11 0 17 5t6 19l14 -67q0 -34 -12 -52t-55 -18h-61q-64 0 -97.5 28.5t-33.5 98.5v100z
" />
    <glyph glyph-name="uni091B" unicode="&#x91b;" horiz-adv-x="701" 
d="M-20 642h741v-113h-741v113zM399 552h160v-109h-160v109zM34 504q0 35 30.5 44t79.5 9l94 -28q-19 0 -26.5 -7t-7.5 -27v-98q0 -14 6 -19t17 -5h33v-113h-33q-11 0 -17 -5t-6 -19v-97q0 -14 6 -19t17 -5h241q11 0 17 5t6 19v219q0 11 -6 15.5t-17 4.5h-16q-11 0 -17 -4.5
t-6 -15.5v-40q0 -11 6 -15.5t17 -4.5h11v-93h-41q-55 0 -89 22t-34 85v53q0 63 36.5 85t106.5 22h76q70 0 106.5 -22t36.5 -85v-238q0 -70 -39 -98.5t-122 -28.5h-305q-82 0 -121.5 28.5t-39.5 98.5v131q0 28 12.5 40.5t34.5 15.5v5q-22 3 -34.5 15.5t-12.5 40.5v129z" />
    <glyph glyph-name="uni091C" unicode="&#x91c;" horiz-adv-x="728" 
d="M518 572h170v-572h-170v572zM-20 642h768v-113h-768v113zM40 472h170v-257q0 -14 7 -19t18 -5h18q11 0 18 5t7 19v257h267v-113h-97v-154q0 -70 -35.5 -98.5t-125.5 -28.5h-86q-90 0 -125.5 28.5t-35.5 98.5v267z" />
    <glyph glyph-name="uni091D" unicode="&#x91d;" horiz-adv-x="712" 
d="M30 165h170v-227h-170v227zM-40 642h772v-113h-772v113zM503 578h169v-578h-170zM244 593h170v-224h-191q-11 0 -17 -4.5t-6 -15.5v-24q0 -11 6 -15.5t17 -4.5h293v-103h-130l36 27q10 -20 10 -49v-73q0 -55 -29 -81t-111 -26h-120v103h67q11 0 17 4.5t6 15.5v59
q0 11 -6 15.5t-17 4.5h-69q-82 0 -111 26t-29 81v56q0 55 29 81t111 26h74v121z" />
    <glyph glyph-name="uni091E" unicode="&#x91e;" horiz-adv-x="716" 
d="M506 552h170v-552h-170v552zM-20 642h756v-113h-756v113zM20 269h170v-54q0 -14 7 -19t18 -5h18q11 0 18 5t7 19v124q0 11 -6 15.5t-17 4.5h-102v113h155q82 0 111 -31t29 -86v-150q0 -70 -35.5 -98.5t-125.5 -28.5h-86q-90 0 -125.5 28.5t-35.5 98.5v64zM344 219v113
h258v-113h-258z" />
    <glyph glyph-name="uni091F" unicode="&#x91f;" horiz-adv-x="488" 
d="M278 593h170v-234h-213q-11 0 -18 -5t-7 -19v-198q0 -14 7 -19t18 -5h18q11 0 18 5t7 19v102h170v-112q0 -70 -35.5 -98.5t-125.5 -28.5h-86q-90 0 -125.5 28.5t-35.5 98.5v238q0 55 29 81t111 26h98v121zM-20 642h528v-113h-528v113z" />
    <glyph glyph-name="uni0920" unicode="&#x920;" horiz-adv-x="488" 
d="M-20 642h528v-113h-528v113zM287 472q90 0 125.5 -28.5t35.5 -98.5v-218q0 -70 -35.5 -98.5t-125.5 -28.5h-86q-90 0 -125.5 28.5t-35.5 98.5v218q0 70 35.5 98.5t125.5 28.5h86zM159 553h170v-113h-170v113zM278 335q0 14 -7 19t-18 5h-18q-11 0 -18 -5t-7 -19v-198
q0 -14 7 -19t18 -5h18q11 0 18 5t7 19v198z" />
    <glyph glyph-name="uni0921" unicode="&#x921;" horiz-adv-x="470" 
d="M-20 642h510v-113h-510v113zM237 593h170v-224h-180q-11 0 -17 -4.5t-6 -15.5v-23q0 -11 6 -15.5t17 -4.5h63q82 0 111 -26t29 -81v-92q0 -55 -29 -81t-111 -26h-122q-82 0 -111 26t-29 81v52h170v-36q0 -11 5 -15.5t12 -4.5h22q11 0 17 4.5t6 15.5v60q0 11 -6 15.5
t-17 4.5h-63q-82 0 -111 26t-29 81v55q0 55 29 81t111 26h63v121z" />
    <glyph glyph-name="uni0922" unicode="&#x922;" horiz-adv-x="517" 
d="M-20 642h557v-113h-557v113zM278 593h170v-234h-213q-11 0 -18 -5t-7 -19v-198q0 -14 7 -19t18 -5h57q11 0 18 5t7 19v30q0 14 -7 19t-18 5h-44v113h78q90 0 125.5 -28.5t35.5 -98.5v-50q0 -70 -35.5 -98.5t-125.5 -28.5h-125q-90 0 -125.5 28.5t-35.5 98.5v238
q0 55 29 81t111 26h98v121z" />
    <glyph glyph-name="uni0923" unicode="&#x923;" horiz-adv-x="738" 
d="M528 572h170v-572h-170v572zM-20 642h778v-113h-778v113zM40 562h170v-347q0 -14 7 -19t18 -5h18q11 0 18 5t7 19v347h170v-357q0 -70 -35.5 -98.5t-125.5 -28.5h-86q-90 0 -125.5 28.5t-35.5 98.5v357z" />
    <glyph glyph-name="uni0924" unicode="&#x924;" horiz-adv-x="493" 
d="M453 552v-552h-170v552h170zM-20 642h533v-113h-533v113zM296 472v-113h-63q-11 0 -17 -4.5t-6 -15.5v-206q0 -11 6 -15.5t17 -4.5h11v-113h-64q-82 0 -111 26t-29 81v258q0 55 29 81t111 26h116z" />
    <glyph glyph-name="uni0925" unicode="&#x925;" horiz-adv-x="651" 
d="M440 642h231v-113h-230zM441 592h170v-592h-170v592zM243 647q67 0 98.5 -25t31.5 -81v-134q0 -55 -29 -86t-111 -31h-13v-75q0 -14 6 -19t17 -5h164q20 0 27 7.5t7 26.5l14 -87q0 -27 -14 -43.5t-49 -16.5h-181q-82 0 -121.5 28.5t-39.5 98.5v198h130q11 0 17 4.5
t6 15.5v91q0 11 -6 15.5t-17 4.5h-7q-11 0 -17 -4.5t-6 -15.5v-36h-90v63q0 56 31.5 81t98.5 25h53z" />
    <glyph glyph-name="uni0926" unicode="&#x926;" horiz-adv-x="474" 
d="M-34 642h528v-113h-528v113zM264 593h170v-234h-213q-11 0 -18 -5t-7 -19v-120q0 -14 6 -19t17 -5h22q11 0 17 5t6 19l14 -67q0 -34 -12 -52t-55 -18h-24q-90 0 -125.5 28.5t-35.5 98.5v160q0 55 29 81t111 26h98v121zM264 291h170v-291h-170v291z" />
    <glyph glyph-name="uni0927" unicode="&#x927;" horiz-adv-x="606" 
d="M402 642h231v-113h-230zM403 592h170v-592h-170v592zM220 427q0 -14 6 -19t17 -5h69v-113h-69q-11 0 -17 -5t-6 -19v-51q0 -14 6 -19t17 -5h126q20 0 27 7.5t7 26.5l14 -87q0 -27 -14 -43.5t-49 -16.5h-174q-67 0 -98.5 25.5t-31.5 80.5v104q0 28 12.5 40.5t34.5 15.5v5
q-22 3 -34.5 15.5t-12.5 40.5v136q0 56 31.5 81t98.5 25h53q67 0 98.5 -25t31.5 -81v-63h-90v36q0 11 -6 15.5t-17 4.5h-7q-11 0 -17 -4.5t-6 -15.5v-87z" />
    <glyph glyph-name="uni0928" unicode="&#x928;" horiz-adv-x="708" 
d="M498 552h170v-552h-170v552zM-20 642h748v-113h-748v113zM438 205q0 -70 -35.5 -98.5t-125.5 -28.5h-86q-90 0 -125.5 28.5t-35.5 98.5v160q0 55 29 81t111 26h424v-113h-371q-11 0 -17 -4.5t-6 -15.5v-124q0 -14 7 -19t18 -5h18q11 0 18 5t7 19v171h170v-181z" />
    <glyph glyph-name="uni092A" unicode="&#x92a;" horiz-adv-x="495" 
d="M-20 642h535v-113h-535v113zM285 591h170v-591h-170v591zM40 591h170v-376q0 -14 6 -19t17 -5h29q11 0 17 5t6 19l14 -67q0 -34 -12 -52t-55 -18h-61q-64 0 -97.5 28.5t-33.5 98.5v386z" />
    <glyph glyph-name="uni092B" unicode="&#x92b;" horiz-adv-x="720" 
d="M285 591h170v-591h-170v591zM40 591h170v-376q0 -14 6 -19t17 -5h29q11 0 17 5t6 19l14 -67q0 -34 -12 -52t-55 -18h-61q-64 0 -97.5 28.5t-33.5 98.5v386zM569 472q65 0 98 -28.5t33 -98.5v-160q0 -55 -29 -81t-111 -26h-64v103h11q11 0 17 4.5t6 15.5v134q0 14 -6 19
t-17 5h-29q-11 0 -17 -5t-6 -19l-14 67q0 35 12 52.5t55 17.5h61zM-20 642h760v-113h-760v113z" />
    <glyph glyph-name="uni092C" unicode="&#x92c;" horiz-adv-x="577" 
d="M-20 642h617v-113h-617v113zM325 472v-103h-72l41 -51q17 -21 35.5 -43.5t31 -37.5l12.5 -15l-1.5 7t-3 29.5t-1.5 66.5v267h170v-592h-170v103l6 16l-111 135q-7 9 -25 31.5t-37 46.5v-117q0 -14 6 -19t17 -5h138q11 0 17 5t6 19l14 -67q0 -34 -12 -52t-55 -18h-170
q-64 0 -97.5 28.5t-33.5 98.5v160q0 55 29 81t111 26h155z" />
    <glyph glyph-name="uni092D" unicode="&#x92d;" horiz-adv-x="736" 
d="M526 552h170v-552h-170v552zM526 642h230v-113h-230v113zM308 647q82 0 111 -31t29 -86v-325q0 -70 -35.5 -98.5t-125.5 -28.5h-86q-90 0 -125.5 28.5t-35.5 98.5v128q0 55 29 81t111 26h442v-113h-389q-11 0 -17 -4.5t-6 -15.5v-92q0 -14 7 -19t18 -5h18q11 0 18 5t7 19
v299q0 11 -6 15.5t-17 4.5h-13q-11 0 -17 -4.5t-6 -15.5v-26h-170v42q0 55 29 86t111 31h119z" />
    <glyph glyph-name="uni092E" unicode="&#x92e;" horiz-adv-x="726" 
d="M268 560h170v-355q0 -70 -35.5 -98.5t-125.5 -28.5h-86q-90 0 -125.5 28.5t-35.5 98.5v120q0 55 29 81t111 26h442v-113h-407q-11 0 -17 -4.5t-6 -15.5v-84q0 -14 7 -19t18 -5h36q11 0 18 5t7 19v345zM516 552h170v-552h-170v552zM-20 642h766v-113h-766v113z" />
    <glyph glyph-name="uni092F" unicode="&#x92f;" horiz-adv-x="628" 
d="M-20 642h668v-113h-668v113zM418 592h170v-592h-170v592zM350 396q0 -36 -11 -62.5t-40 -40.5t-84 -14h-5v-64q0 -14 6 -19t17 -5h151q20 0 27 7.5t7 26.5l14 -87q0 -27 -14 -43.5t-49 -16.5h-168q-82 0 -121.5 28.5t-39.5 98.5v187h125q11 0 17 4.5t6 15.5v83
q0 20 -7 27t-27 7l79 28q55 0 86 -14t31 -58v-89z" />
    <glyph glyph-name="uni0930" unicode="&#x930;" horiz-adv-x="473" 
d="M40 472h170v-349q0 -11 6 -15.5t17 -4.5h13q7 0 12 4.5t5 15.5v81h170v-97q0 -55 -29 -81t-111 -26h-113q-82 0 -111 26t-29 81v365zM-20 642h513v-113h-111l24 17q13 -5 20 -15t7 -27v-139q0 -62 -42.5 -88.5t-137.5 -26.5h-56v113h32q19 0 26.5 7.5t7.5 26.5v98
q0 20 -7 27t-27 7h-249v113z" />
    <glyph glyph-name="uni0931" unicode="&#x931;" horiz-adv-x="473" 
d="M40 472h170v-349q0 -11 6 -15.5t17 -4.5h13q7 0 12 4.5t5 15.5v81h170v-97q0 -55 -29 -81t-111 -26h-113q-82 0 -111 26t-29 81v365zM-20 642h513v-113h-111l24 17q13 -5 20 -15t7 -27v-139q0 -62 -42.5 -88.5t-137.5 -26.5h-56v113h32q19 0 26.5 7.5t7.5 26.5v98
q0 20 -7 27t-27 7h-249v113zM161 -65h122v-129h-122v129z" />
    <glyph glyph-name="uni0932" unicode="&#x932;" horiz-adv-x="748" 
d="M-20 642h788v-113h-788v113zM325 472q28 0 40.5 -12t15.5 -35h5q3 23 15.5 35t40.5 12h109v-113h-60q-14 0 -18.5 -6.5t-4.5 -17.5v-167h-170v167q0 11 -4.5 17.5t-18.5 6.5h-29q-11 0 -17 -5t-6 -19v-202q0 -11 6 -15.5t17 -4.5h50v-113h-103q-82 0 -111 26t-29 81v238
q0 70 33.5 98.5t97.5 28.5h141zM708 0h-170v548h170v-548z" />
    <glyph glyph-name="uni0933" unicode="&#x933;" horiz-adv-x="730" 
d="M-20 642h770v-113h-770v113zM424 547h170v-114h-170v114zM559 472q65 0 98 -28.5t33 -98.5v-140q0 -70 -33 -98.5t-98 -28.5h-115q-70 0 -76 47h-5q-6 -47 -76 -47h-116q-64 0 -97.5 28.5t-33.5 98.5v140q0 70 33.5 98.5t97.5 28.5h116q70 0 76 -47h5q6 47 76 47h115z
M520 335q0 14 -6 19t-17 5h-29q-14 0 -18.5 -6.5t-4.5 -17.5v-120q0 -11 4.5 -17.5t18.5 -6.5h29q11 0 17 5t6 19v120zM285 335q0 11 -4.5 17.5t-18.5 6.5h-29q-11 0 -17 -5t-6 -19v-120q0 -14 6 -19t17 -5h29q14 0 18.5 6.5t4.5 17.5v120zM169 13h122v-129h-122v129z" />
    <glyph glyph-name="uni0934" unicode="&#x934;" horiz-adv-x="730" 
d="M-20 642h770v-113h-770v113zM424 547h170v-114h-170v114zM559 472q65 0 98 -28.5t33 -98.5v-140q0 -70 -33 -98.5t-98 -28.5h-115q-70 0 -76 47h-5q-6 -47 -76 -47h-116q-64 0 -97.5 28.5t-33.5 98.5v140q0 70 33.5 98.5t97.5 28.5h116q70 0 76 -47h5q6 47 76 47h115z
M520 335q0 14 -6 19t-17 5h-29q-14 0 -18.5 -6.5t-4.5 -17.5v-120q0 -11 4.5 -17.5t18.5 -6.5h29q11 0 17 5t6 19v120zM285 335q0 11 -4.5 17.5t-18.5 6.5h-29q-11 0 -17 -5t-6 -19v-120q0 -14 6 -19t17 -5h29q14 0 18.5 6.5t4.5 17.5v120zM169 13h122v-129h-122v129z" />
    <glyph glyph-name="uni0935" unicode="&#x935;" horiz-adv-x="495" 
d="M-20 642h535v-113h-535v113zM285 591h170v-591h-170v591zM244 472v-113h-11q-11 0 -17 -4.5t-6 -15.5v-124q0 -14 6 -19t17 -5h29q11 0 17 5t6 19l14 -67q0 -34 -12 -52t-55 -18h-61q-64 0 -97.5 28.5t-33.5 98.5v160q0 55 29 81t111 26h64z" />
    <glyph glyph-name="uni0936" unicode="&#x936;" horiz-adv-x="740" 
d="M60 406h170v-283q0 -11 6 -15.5t17 -4.5h13q7 0 12 4.5t5 15.5v64h170v-80q0 -55 -29 -81t-111 -26h-113q-82 0 -111 26t-29 81v299zM313 647q82 0 111 -31t29 -86v-182q0 -62 -42.5 -88.5t-137.5 -26.5h-56v113h32q19 0 26.5 7.5t7.5 26.5v134q0 11 -6 15.5t-17 4.5h-13
q-7 0 -12 -4.5t-5 -15.5v-49h-170v65q0 55 29 86t111 31h113zM530 642h230v-113h-60v-529h-170v642z" />
    <glyph glyph-name="uni0937" unicode="&#x937;" horiz-adv-x="545" 
d="M-20 642h585v-113h-585v113zM40 591h166v-28l89 -148q26 -43 37.5 -76l11.5 -33l-4.5 34t-4.5 87v164h170v-591h-170v175l5 20l-90 150q-25 43 -37 76l-12 33l4.5 -34t4.5 -87v-118q0 -14 6 -19t17 -5h79q11 0 17 5t6 19l14 -67q0 -34 -12 -52t-55 -18h-111
q-64 0 -97.5 28.5t-33.5 98.5v386z" />
    <glyph glyph-name="uni0938" unicode="&#x938;" horiz-adv-x="707" 
d="M40 472h170v-349q0 -11 6 -15.5t17 -4.5h13q7 0 12 4.5t5 15.5v81h170v-97q0 -55 -29 -81t-111 -26h-113q-82 0 -111 26t-29 81v365zM-20 642h747v-113h-345l24 17q13 -5 20 -15t7 -27v-116q0 -34 -30 -43.5t-80 -9.5v28h251v-113h-377v113h32q19 0 26.5 7.5t7.5 26.5v98
q0 20 -7 27t-27 7h-249v113zM497 552h170v-552h-170v552z" />
    <glyph glyph-name="uni0939" unicode="&#x939;" horiz-adv-x="488" 
d="M-20 642h528v-113h-528v113zM278 472v121h170v-234h-215q-11 0 -17 -4.5t-6 -13.5v-7q0 -9 6 -13.5t17 -4.5h54q90 0 125.5 -28.5t35.5 -98.5v-29h-170v19q0 14 -7 19t-18 5h-20q-11 0 -17 -5t-6 -19v-42q0 -14 6 -19t17 -5h215v-113h-247q-82 0 -121.5 28.5t-39.5 98.5
v74q0 28 12.5 40.5t34.5 15.5v5q-22 3 -34.5 15.5t-12.5 40.5v47q0 55 29 81t111 26h98z" />
    <glyph glyph-name="uni093C" unicode="&#x93c;" horiz-adv-x="0" 
d="M-184 -27h122v-129h-122v129z" />
    <glyph glyph-name="uni093D" unicode="&#x93d;" horiz-adv-x="462" 
d="M394 539h-165q-11 0 -17 -4.5t-6 -15.5v-100q0 -11 6 -15.5t17 -4.5h63q82 0 111 -26t29 -81v-185q0 -55 -29 -81t-111 -26h-122q-82 0 -111 26t-29 81v52h170v-36q0 -11 5 -15.5t12 -4.5h22q11 0 17 4.5t6 15.5v153q0 11 -6 15.5t-17 4.5h-63q-82 0 -111 26t-29 81v132
q0 55 29 81t111 26h218v-103z" />
    <glyph glyph-name="uni093E" unicode="&#x93e;" 
d="M40 552h170v-552h-170v552zM-20 642h290v-113h-290v113z" />
    <glyph glyph-name="uni093F" unicode="&#x93f;" 
d="M-20 642h290v-113h-290v113zM40 552h170v-552h-170v552zM566 858q54 0 88 -25t34 -87v-70h-170v33q0 23 -6.5 29.5t-29.5 6.5h-236q-22 0 -29 -6.5t-7 -29.5v-73h-170v110q0 62 34 87t88 25h404z" />
    <glyph glyph-name="uni0940" unicode="&#x940;" 
d="M270 642v-113h-290v113h290zM210 552v-552h-170v552h170zM88 858q54 0 88 -25t34 -87v-110h-170v73q0 23 -6.5 29.5t-29.5 6.5h-38q-22 0 -29 -6.5t-7 -29.5v-33h-170v70q0 62 34 87t88 25h206z" />
    <glyph glyph-name="uni0941" unicode="&#x941;" horiz-adv-x="0" 
d="M-92 7q65 0 98 -28.5t33 -98.5v-44q0 -70 -33 -98.5t-98 -28.5h-139q-55 0 -91.5 12.5t-62.5 38t-49 64.5l-30 51h199l20 -31q8 -13 18 -17.5t26 -4.5h39q20 0 25.5 6t5.5 25v9q0 20 -5.5 25.5t-25.5 5.5h-48v114h118z" />
    <glyph glyph-name="uni0942" unicode="&#x942;" horiz-adv-x="0" 
d="M-63 8q55 0 91 -12.5t62 -38t50 -64.5l113 -183h-199l-103 163q-8 14 -18 18t-26 4h-26q-19 0 -25 -5.5t-6 -25.5v-9q0 -19 6 -25t25 -6h48v-114h-118q-64 0 -97.5 28.5t-33.5 98.5v44q0 70 33.5 98.5t97.5 28.5h126z" />
    <glyph glyph-name="uni0943" unicode="&#x943;" horiz-adv-x="0" 
d="M-40 8v-113h-68q-19 0 -25 -5.5t-6 -25.5v-9q0 -19 6 -25t25 -6h98v-114h-168q-64 0 -97.5 28.5t-33.5 98.5v44q0 70 33.5 98.5t97.5 28.5h138z" />
    <glyph glyph-name="uni0944" unicode="&#x944;" horiz-adv-x="0" 
d="M-291 -89q0 55 34.5 76t86.5 21h130v-113h-58q-11 0 -17 -5t-6 -19v-24q0 -14 6 -19t17 -5h46v-113h-46q-11 0 -17 -5t-6 -19v-24q0 -14 6 -19t17 -5h109v-113h-141q-82 0 -121.5 28.5t-39.5 98.5v56q0 28 12.5 40.5t34.5 15.5v5q-22 3 -34.5 15.5t-12.5 40.5v86z" />
    <glyph glyph-name="uni0946" unicode="&#x946;" horiz-adv-x="0" 
d="M-455 787v0v64h170v-7q0 -23 7 -29.5t30 -6.5h116q92 0 92 -92v-110h-170v53q0 23 -7 29.5t-29 6.5h-117q-92 0 -92 92z" />
    <glyph glyph-name="uni0947" unicode="&#x947;" horiz-adv-x="0" 
d="M-187 843l143 -204h-164q-35 28 -64.5 59.5t-59.5 69.5l-58 75h203z" />
    <glyph glyph-name="uni0948" unicode="&#x948;" horiz-adv-x="0" 
d="M-473 843h200l43 -56q30 -39 51.5 -67.5t43.5 -63.5h5q-19 33 -30.5 60t-27.5 64l-26 63h154l14 -204h-166q-28 18 -50.5 33t-44 32.5t-49.5 40.5z" />
    <glyph glyph-name="uni0949" unicode="&#x949;" 
d="M40 552h170v-552h-170v552zM-20 642h290v-113h-290v113zM-125 887h140v-72q0 -15 6.5 -20.5t21.5 -5.5h164q15 0 21.5 5.5t6.5 20.5v72h140v-93q0 -49 -33 -74t-119 -25h-196q-85 0 -118.5 25t-33.5 74v93z" />
    <glyph glyph-name="uni094B" unicode="&#x94b;" 
d="M40 552h170v-552h-170v552zM-20 642h290v-113h-290v113zM67 843l143 -204h-164q-35 28 -64.5 59.5t-59.5 69.5l-58 75h203z" />
    <glyph glyph-name="uni094C" unicode="&#x94c;" 
d="M40 552h170v-552h-170v552zM-20 642h290v-113h-290v113zM-218 843h200l43 -56q30 -39 51.5 -67.5t43.5 -63.5h5q-19 33 -30.5 60t-27.5 64l-26 63h154l14 -204h-166q-28 18 -50.5 33t-44 32.5t-49.5 40.5z" />
    <glyph glyph-name="uni094D" unicode="&#x94d;" horiz-adv-x="0" 
d="M-54 -61l130 -150h-166l-130 150h166z" />
    <glyph glyph-name="uni0950" unicode="&#x950;" horiz-adv-x="958" 
d="M476 713h122v-129h-122v129zM397 541h219q15 0 21.5 5.5t6.5 20.5v72h170v-94q0 -55 -29 -86t-111 -31h-277v113zM312 642q82 0 111 -31t29 -86v-108q0 -26 -9.5 -37t-27.5 -11l1 11h352q82 0 111 -31t29 -86v-146q0 -55 -29 -86t-111 -31h-122q-82 0 -111 31t-29 86v102
h170v-86q0 -11 6 -15.5t17 -4.5h16q11 0 17 4.5t6 15.5v112q0 11 -6 15.5t-17 4.5h-299l-1 11q18 0 27.5 -11t9.5 -37v-111q0 -55 -29 -86t-111 -31h-122q-82 0 -111 31t-29 86v119h170v-103q0 -11 6 -15.5t17 -4.5h16q11 0 17 4.5t6 15.5v108q0 14 -6 19t-17 5h-33v113h33
q11 0 17 5t6 19v107q0 11 -6 15.5t-17 4.5h-16q-11 0 -17 -4.5t-6 -15.5v-92h-170v108q0 55 29 86t111 31h122z" />
    <glyph glyph-name="uni0958" unicode="&#x958;" horiz-adv-x="700" 
d="M265 592h170v-592h-170v592zM224 472v-103h-11q-11 0 -17 -4.5t-6 -15.5v-134q0 -14 6 -19t17 -5h29q11 0 17 5t6 19l14 -67q0 -34 -12 -52t-55 -18h-61q-64 0 -97.5 28.5t-33.5 98.5v160q0 55 29 81t111 26h64zM549 472q65 0 98 -28.5t33 -98.5v-160q0 -55 -29 -81
t-111 -26h-64v103h11q11 0 17 4.5t6 15.5v134q0 14 -6 19t-17 5h-29q-11 0 -17 -5t-6 -19l-14 67q0 35 12 52.5t55 17.5h61zM-20 642h740v-113h-740v113zM87 0h122v-129h-122v129z" />
    <glyph glyph-name="uni0959" unicode="&#x959;" horiz-adv-x="931" 
d="M721 592h170v-592h-170v592zM680 472v-103h-11q-11 0 -17 -4.5t-6 -15.5v-134q0 -14 6 -19t17 -5h29q11 0 17 5t6 19l14 -67q0 -34 -12 -52t-55 -18h-61q-64 0 -97.5 28.5t-33.5 98.5v160q0 55 29 81t111 26h64zM40 472h170v-325q0 -19 7.5 -26.5t26.5 -7.5h248v-113
h-272q-94 0 -137 26.5t-43 88.5v357zM-20 642h971v-113h-569l24 17q13 -5 20 -15t7 -27v-159q0 -62 -32 -88.5t-111 -26.5h-93v113h32q19 0 26.5 7.5t7.5 26.5v118q0 20 -7 27t-27 7h-249v113zM160 -48h122v-129h-122v129z" />
    <glyph glyph-name="uni095A" unicode="&#x95a;" horiz-adv-x="726" 
d="M516 572h170v-572h-170v572zM-20 642h766v-113h-766v113zM266 554h170v-349q0 -70 -35.5 -98.5t-125.5 -28.5h-86q-90 0 -125.5 28.5t-35.5 98.5v152q0 62 43 88.5t137 26.5h119v-113h-98q-19 0 -25 -5.5t-6 -25.5v-113q0 -14 7 -19t18 -5h18q11 0 18 5t7 19v339zM170 12
h122v-129h-122v129z" />
    <glyph glyph-name="uni095B" unicode="&#x95b;" horiz-adv-x="728" 
d="M518 572h170v-572h-170v572zM-20 642h768v-113h-768v113zM40 472h170v-257q0 -14 7 -19t18 -5h18q11 0 18 5t7 19v257h267v-113h-97v-154q0 -70 -35.5 -98.5t-125.5 -28.5h-86q-90 0 -125.5 28.5t-35.5 98.5v267zM190 12h122v-129h-122v129z" />
    <glyph glyph-name="uni095C" unicode="&#x95c;" horiz-adv-x="470" 
d="M-20 642h510v-113h-510v113zM237 593h170v-224h-180q-11 0 -17 -4.5t-6 -15.5v-23q0 -11 6 -15.5t17 -4.5h63q82 0 111 -26t29 -81v-92q0 -55 -29 -81t-111 -26h-122q-82 0 -111 26t-29 81v52h170v-36q0 -11 5 -15.5t12 -4.5h22q11 0 17 4.5t6 15.5v60q0 11 -6 15.5
t-17 4.5h-63q-82 0 -111 26t-29 81v55q0 55 29 81t111 26h63v121zM169 -65h122v-129h-122v129z" />
    <glyph glyph-name="uni095D" unicode="&#x95d;" horiz-adv-x="517" 
d="M-20 642h557v-113h-557v113zM278 593h170v-234h-213q-11 0 -18 -5t-7 -19v-198q0 -14 7 -19t18 -5h57q11 0 18 5t7 19v30q0 14 -7 19t-18 5h-44v113h78q90 0 125.5 -28.5t35.5 -98.5v-50q0 -70 -35.5 -98.5t-125.5 -28.5h-125q-90 0 -125.5 28.5t-35.5 98.5v238
q0 55 29 81t111 26h98v121zM202 -54h122v-129h-122v129z" />
    <glyph glyph-name="uni095E" unicode="&#x95e;" horiz-adv-x="720" 
d="M285 591h170v-591h-170v591zM40 591h170v-376q0 -14 6 -19t17 -5h29q11 0 17 5t6 19l14 -67q0 -34 -12 -52t-55 -18h-61q-64 0 -97.5 28.5t-33.5 98.5v386zM569 472q65 0 98 -28.5t33 -98.5v-160q0 -55 -29 -81t-111 -26h-64v103h11q11 0 17 4.5t6 15.5v134q0 14 -6 19
t-17 5h-29q-11 0 -17 -5t-6 -19l-14 67q0 35 12 52.5t55 17.5h61zM-20 642h760v-113h-760v113zM87 -1h122v-129h-122v129z" />
    <glyph glyph-name="uni0960" unicode="&#x960;" horiz-adv-x="1036" 
d="M539 552v-552h-170v552h170zM-20 642h1091v-113h-1091v113zM144 467q33 0 56 -7t40 -21.5t33 -38.5l109 -160l-135 -240h-195l159 283l-22 -62l-59 86q-19 28 -34 37.5t-41 9.5h-15v113h104zM841 351q0 11 -6 15.5t-17 4.5h-16q-11 0 -17 -4.5t-6 -15.5v-50
q0 -11 6 -15.5t17 -4.5h16q11 0 17 4.5t6 15.5v50zM850 472q90 0 125.5 -28.5t35.5 -98.5v-37q0 -70 -35.5 -98.5t-125.5 -28.5h-48q-11 0 -17 -5t-6 -19v-24q0 -14 6 -19t17 -5h46v-113h-46q-11 0 -17 -5t-6 -19v-24q0 -14 6 -19t17 -5h109v-113h-141q-82 0 -121.5 28.5
t-39.5 98.5v56q0 28 12.5 40.5t34.5 15.5v5q-22 3 -34.5 15.5t-12.5 40.5v45q0 35 30.5 44t79.5 9v-28h-453v100h453v-28q-49 0 -79.5 9.5t-30.5 43.5v39q0 70 35.5 98.5t125.5 28.5h80z" />
    <glyph glyph-name="uni0961" unicode="&#x961;" horiz-adv-x="740" 
d="M-20 642h780v-113h-780v113zM312 472q28 0 40.5 -12t15.5 -35h5q3 23 15.5 35t40.5 12h109v-113h-60q-14 0 -18.5 -6.5t-4.5 -17.5v-127h-170v127q0 11 -4.5 17.5t-18.5 6.5h-29q-11 0 -17 -5t-6 -19v-202q0 -11 6 -15.5t17 -4.5h11v-113h-64q-82 0 -111 26t-29 81v238
q0 70 33.5 98.5t97.5 28.5h141zM449 96q0 55 34.5 76t86.5 21h130v-113h-58q-11 0 -17 -5t-6 -19v-24q0 -14 6 -19t17 -5h46v-113h-46q-11 0 -17 -5t-6 -19v-24q0 -14 6 -19t17 -5h109v-113h-141q-82 0 -121.5 28.5t-39.5 98.5v56q0 28 12.5 40.5t34.5 15.5v5
q-22 3 -34.5 15.5t-12.5 40.5v86zM530 544h170v-402h-170v402z" />
    <glyph glyph-name="uni0962" unicode="&#x962;" horiz-adv-x="0" 
d="M-281 10q30 0 35 -29h3q2 14 9.5 21.5t25.5 7.5h67v-70h-37q-9 0 -11.5 -4t-2.5 -11v-79h-106v79q0 7 -2.5 11t-11.5 4h-19q-6 0 -10 -3t-4 -12v-126q0 -7 4 -10t10 -3h8v-69h-40q-51 0 -69 16t-18 50v149q0 44 21 61t61 17h87zM-145 10h105v-264h-79q-7 0 -10.5 -3
t-3.5 -10v-21q0 -6 3.5 -9.5t10.5 -3.5h116v-69h-149q-50 0 -68 16t-18 50v46q0 35 18 51.5t68 16.5h7v200z" />
    <glyph glyph-name="uni0963" unicode="&#x963;" horiz-adv-x="0" 
d="M-9 -388v-69h-88q-49 0 -73 18t-24 60v35q0 17 7.5 24.5t21.5 8.5v4q-14 2 -21.5 9.5t-7.5 24.5v55q0 23 11 39t36 16h2v105h-31q-9 0 -11.5 -5t-2.5 -12v-77h-105v77q0 7 -2.5 12t-11.5 5h-17q-7 0 -10.5 -4t-3.5 -13v-122q0 -7 3.5 -10t10.5 -3h7v-69h-40
q-50 0 -67.5 16t-17.5 50v144q0 44 20 61.5t60 17.5h86q30 0 35 -29h1q2 14 10.5 21.5t25.5 7.5h166v-241h-35q-8 0 -12 -3t-4 -11v-15q0 -8 4 -11.5t12 -3.5h28v-68h-28q-8 0 -12 -3.5t-4 -12.5v-13q0 -10 4 -13t12 -3h66z" />
    <glyph glyph-name="uni0964" unicode="&#x964;" horiz-adv-x="410" 
d="M290 674v-706h-170v706h170z" />
    <glyph glyph-name="uni0965" unicode="&#x965;" horiz-adv-x="650" 
d="M290 674v-706h-170v706h170zM530 674v-706h-170v706h170z" />
    <glyph glyph-name="uni0966" unicode="&#x966;" horiz-adv-x="501" 
d="M464 518v-394q0 -56 -33.5 -90t-113.5 -34h-133q-80 0 -113.5 34t-33.5 90v394q0 56 33.5 90t113.5 34h133q80 0 113.5 -34t33.5 -90zM289 147v348q0 11 -6 16.5t-19 5.5h-27q-13 0 -19 -5.5t-6 -16.5v-348q0 -11 6 -16.5t19 -5.5h27q13 0 19 5.5t6 16.5z" />
    <glyph glyph-name="uni0967" unicode="&#x967;" horiz-adv-x="323" 
d="M224 642v-125h-206v125h206zM108 642h175v-642h-175v642z" />
    <glyph glyph-name="uni0968" unicode="&#x968;" horiz-adv-x="469" 
d="M198 495v-73h-175v96q0 56 33.5 90t113.5 34h121q80 0 114.5 -34t34.5 -90v-92q0 -52 -17.5 -88t-52.5 -74l-124 -139h194v-125h-412v114l190 204q30 32 40 54t10 55v68q0 11 -6 16.5t-19 5.5h-20q-13 0 -19 -5.5t-6 -16.5z" />
    <glyph glyph-name="uni0969" unicode="&#x969;" horiz-adv-x="477" 
d="M200 495v-63h-175v86q0 56 33.5 90t113.5 34h123q80 0 113.5 -34t33.5 -90v-78q0 -39 -9.5 -68t-38.5 -45q29 -13 38.5 -39t9.5 -64v-100q0 -56 -33.5 -90t-113.5 -34h-123q-80 0 -113.5 34t-33.5 90v86h175v-63q0 -11 6 -16.5t19 -5.5h20q13 0 19 5.5t6 16.5v99
q0 11 -6 16.5t-19 5.5h-81v115h81q13 0 19 5.5t6 16.5v90q0 11 -6 16.5t-19 5.5h-20q-13 0 -19 -5.5t-6 -16.5z" />
    <glyph glyph-name="uni096A" unicode="&#x96a;" horiz-adv-x="507" 
d="M57 115v127h450v-127h-450zM10 115v155l241 372h176l-340 -527h-77zM275 369h164v-369h-164v369z" />
    <glyph glyph-name="uni096B" unicode="&#x96b;" horiz-adv-x="498" 
d="M215 225v-78q0 -11 6 -16.5t19 -5.5h31q13 0 19 5.5t6 16.5v129q0 11 -6 16.5t-19 5.5h-120v125h170q80 0 113.5 -34t33.5 -90v-175q0 -56 -33.5 -90t-113.5 -34h-134q-80 0 -113.5 34t-33.5 90v101h175zM220 298h-172v344h410v-125h-238v-219z" />
    <glyph glyph-name="uni096C" unicode="&#x96c;" horiz-adv-x="494" 
d="M294 147v96q0 11 -6 16.5t-19 5.5h-105v120h153q80 0 113.5 -34t33.5 -90v-137q0 -56 -33.5 -90t-113.5 -34h-71v125h23q13 0 19 5.5t6 16.5zM207 495v-348q0 -11 6 -16.5t19 -5.5h23v-125h-71q-80 0 -113.5 34t-33.5 90v394q0 56 33.5 90t113.5 34h71v-125h-23
q-13 0 -19 -5.5t-6 -16.5zM284 446v49q0 11 -6 16.5t-19 5.5h-19v125h67q80 0 113.5 -34t33.5 -90v-72h-170z" />
    <glyph glyph-name="uni096D" unicode="&#x96d;" horiz-adv-x="422" 
d="M379 642v-135h-369v135h369zM417 642v-95l-195 -547h-181l239 642h137z" />
    <glyph glyph-name="uni096E" unicode="&#x96e;" horiz-adv-x="498" 
d="M202 251v-106q0 -11 6 -16.5t19 -5.5h31v-123h-76q-80 0 -113.5 34t-33.5 90v100q0 38 9.5 64t37.5 39q-28 16 -37.5 45t-9.5 68v78q0 56 33.5 90t113.5 34h73v-123h-28q-13 0 -19 -5.5t-6 -16.5v-97q0 -11 6 -16.5t19 -5.5h24v-105h-24q-13 0 -19 -5.5t-6 -16.5z
M296 400v97q0 11 -6 16.5t-19 5.5h-21v123h66q80 0 113.5 -34t33.5 -90v-78q0 -39 -9.5 -68t-38.5 -45q29 -13 38.5 -39t9.5 -64v-100q0 -56 -33.5 -90t-113.5 -34h-63v123h18q13 0 19 5.5t6 16.5v106q0 11 -6 16.5t-19 5.5h-25v105h25q13 0 19 5.5t6 16.5z" />
    <glyph glyph-name="uni096F" unicode="&#x96f;" horiz-adv-x="494" 
d="M200 495v-111q0 -11 6 -16.5t19 -5.5h105v-115h-153q-80 0 -113.5 34t-33.5 90v147q0 56 33.5 90t113.5 34h71v-125h-23q-13 0 -19 -5.5t-6 -16.5zM287 147v348q0 11 -6 16.5t-19 5.5h-23v125h71q80 0 113.5 -34t33.5 -90v-394q0 -56 -33.5 -90t-113.5 -34h-71v125h23
q13 0 19 5.5t6 16.5zM208 191v-44q0 -11 6 -16.5t19 -5.5h21v-125h-69q-80 0 -113.5 34t-33.5 90v67h170z" />
    <glyph glyph-name="uni0970" unicode="&#x970;" horiz-adv-x="397" 
d="M50 319q0 75 40.5 112t107.5 37q68 0 108.5 -37t40.5 -112t-40.5 -112t-108.5 -37q-67 0 -107.5 37t-40.5 112zM167 319q0 -34 8 -45t23 -11t23.5 11t8.5 45t-7.5 45t-24.5 11q-16 0 -23.5 -11t-7.5 -45z" />
    <glyph glyph-name="uni200B" unicode="&#x200b;" horiz-adv-x="0" 
 />
    <glyph glyph-name="uni200C" unicode="&#x200c;" horiz-adv-x="0" 
d="M24 -230h-47v1041h47v-1041z" />
    <glyph glyph-name="uni200D" unicode="&#x200d;" horiz-adv-x="0" 
 />
    <glyph glyph-name="endash" unicode="&#x2013;" horiz-adv-x="607" 
d="M46 245v115h409v-115h-409z" />
    <glyph glyph-name="emdash" unicode="&#x2014;" horiz-adv-x="749" 
d="M46 245v115h648v-115h-648z" />
    <glyph glyph-name="quoteleft" unicode="&#x2018;" horiz-adv-x="254" 
d="M214 329h-174v90l127 223h47v-313z" />
    <glyph glyph-name="quoteright" unicode="&#x2019;" horiz-adv-x="254" 
d="M40 642h174v-90l-127 -223h-47v313z" />
    <glyph glyph-name="quotesinglbase" unicode="&#x201a;" horiz-adv-x="252" 
d="M40 164h172v-90l-120 -223h-52v313z" />
    <glyph glyph-name="quotedblleft" unicode="&#x201c;" horiz-adv-x="464" 
d="M424 329h-172v90l127 223h45v-313zM212 329h-172v90l127 223h45v-313z" />
    <glyph glyph-name="quotedblright" unicode="&#x201d;" horiz-adv-x="464" 
d="M40 642h172v-90l-127 -223h-45v313zM252 642h172v-90l-127 -223h-45v313z" />
    <glyph glyph-name="quotedblbase" unicode="&#x201e;" horiz-adv-x="464" 
d="M40 164h172v-90l-127 -223h-45v313zM252 164h172v-90l-127 -223h-45v313z" />
    <glyph glyph-name="dagger" unicode="&#x2020;" horiz-adv-x="454" 
d="M139 642h175v-751h-175v751zM444 490v-115h-434v115h434z" />
    <glyph glyph-name="daggerdbl" unicode="&#x2021;" horiz-adv-x="484" 
d="M154 642h175v-779h-175v779zM459 490v-115h-434v115h434zM459 130v-115h-434v115h434z" />
    <glyph glyph-name="bullet" unicode="&#x2022;" horiz-adv-x="396" 
d="M50 321q0 41 20 74.5t54 53.5t74 20q41 0 74.5 -20t53.5 -53.5t20 -74.5q0 -40 -20 -74t-53.5 -54t-74.5 -20q-40 0 -74 20t-54 54t-20 74z" />
    <glyph glyph-name="ellipsis" unicode="&#x2026;" horiz-adv-x="752" 
d="M40 0v164h172v-164h-172zM290 0v164h172v-164h-172zM540 0v164h172v-164h-172z" />
    <glyph glyph-name="perthousand" unicode="&#x2030;" horiz-adv-x="1270" 
d="M363 542v-183q0 -45 -26.5 -72.5t-91.5 -27.5h-102q-64 0 -91 27.5t-27 72.5v183q0 46 27 73t91 27h102q65 0 91.5 -27t26.5 -73zM873 283v-183q0 -45 -26.5 -72.5t-91.5 -27.5h-102q-64 0 -91 27.5t-27 72.5v183q0 46 27 73t91 27h102q65 0 91.5 -27t26.5 -73zM222 379
v143q0 9 -4.5 13.5t-15.5 4.5h-16q-10 0 -15 -4.5t-5 -13.5v-143q0 -9 5 -13t15 -4h16q11 0 15.5 4t4.5 13zM732 120v143q0 9 -4.5 13.5t-15.5 4.5h-16q-10 0 -15 -4.5t-5 -13.5v-143q0 -9 5 -13t15 -4h16q11 0 15.5 4t4.5 13zM568 642h127l-363 -642h-125zM1245 283v-183
q0 -45 -26.5 -72.5t-91.5 -27.5h-102q-64 0 -91 27.5t-27 72.5v183q0 46 27 73t91 27h102q65 0 91.5 -27t26.5 -73zM1104 120v143q0 9 -4.5 13.5t-15.5 4.5h-16q-10 0 -15 -4.5t-5 -13.5v-143q0 -9 5 -13t15 -4h16q11 0 15.5 4t4.5 13z" />
    <glyph glyph-name="guilsinglleft" unicode="&#x2039;" horiz-adv-x="299" 
d="M125 96l-110 153l110 151h169l-107 -151l107 -153h-169z" />
    <glyph glyph-name="guilsinglright" unicode="&#x203a;" horiz-adv-x="299" 
d="M294 249l-110 -153h-169l107 153l-107 151h169z" />
    <glyph glyph-name="fraction" unicode="&#x2044;" horiz-adv-x="411" 
d="M287 702h144l-307 -762h-144z" />
    <glyph glyph-name="Euro" unicode="&#x20ac;" horiz-adv-x="516" 
d="M231 505v-368q0 -11 6 -16.5t19 -5.5h26v-115h-79q-80 0 -113.5 34t-33.5 90v394q0 56 33.5 90t113.5 34h79v-115h-26q-13 0 -19 -5.5t-6 -16.5zM316 402v103q0 11 -6 16.5t-19 5.5h-26v115h79q80 0 113.5 -34t33.5 -90v-116h-175zM316 137v99h175v-112q0 -56 -33.5 -90
t-113.5 -34h-79v115h26q13 0 19 5.5t6 16.5zM290 305v-96h-275v96h275zM290 433v-96h-275v96h275z" />
    <glyph glyph-name="uni20B9" unicode="&#x20b9;" horiz-adv-x="456" 
d="M416 484v-99h-376v99h376zM416 642v-99h-376v99h376zM277 562q29 0 43 -5t18.5 -20.5t4.5 -48.5v-148q0 -71 -37 -99.5t-132 -27.5h-21l40 39l170 -252h-180l-143 213v113h110q11 0 17 5t6 19v171q0 11 -6 16.5t-19 5.5z" />
    <glyph glyph-name="uni20BA" unicode="&#x20ba;" horiz-adv-x="0" 
d="M279 306h170v-182q0 -56 -31 -90t-102 -34h-121l-16 125h75q13 0 19 5.5t6 16.5v159zM40 669h170v-574h-3v-95h-167v669zM291 469v-115l-334 -160v115zM291 629v-115l-334 -160v115z" />
    <glyph glyph-name="uni2113" unicode="&#x2113;" horiz-adv-x="691" 
d="M469 529h-14q-11 0 -18 -5t-7 -19v-368q0 -14 7 -19t18 -5h162v-113h-196q-90 0 -125.5 28.5t-35.5 98.5v388q0 70 35.5 98.5t125.5 28.5h70q54 0 89 -19.5t52 -50t17 -64.5q0 -49 -20.5 -86t-61.5 -66l-462 -325v143l340 240q23 16 40.5 35.5t17.5 41.5q0 18 -8.5 28
t-25.5 10z" />
    <glyph glyph-name="trademark" unicode="&#x2122;" horiz-adv-x="731" 
d="M96 582h121v-272h-121v272zM304 642v-95h-294v95h294zM331 642h120l65 -184l65 184h120v-332h-105v161l-39 -118h-83l-38 116v-159h-105v332z" />
    <glyph glyph-name="uni03A9.math" unicode="&#x2126;" horiz-adv-x="532" 
d="M312 374v121q0 11 -6 16.5t-19 5.5h-33v125h86q80 0 113.5 -34t33.5 -90v-144h-175zM312 157v230h175v-173q0 -56 -33.5 -85t-113.5 -29h-46v25h3q11 0 13 10.5t2 21.5zM220 495v-121h-175v144q0 56 33.5 90t113.5 34h86v-125h-33q-13 0 -19 -5.5t-6 -16.5zM220 387v-230
q0 -11 2.5 -21.5t12.5 -10.5h3v-25h-46q-80 0 -113.5 29t-33.5 85v173h175zM516 125v-125h-224v125h224zM240 125v-125h-225v125h225z" />
    <glyph glyph-name="estimated" unicode="&#x212e;" horiz-adv-x="600" 
d="M138 234h444v6q0 69 -37 125t-99.5 89.5t-138.5 33.5q-56 0 -105.5 -19.5t-87 -53.5t-59 -79t-21.5 -96t21.5 -95t59 -78t87 -53t105.5 -19q68 0 124 26t93 69h-39q-32 -37 -78 -59t-99 -22q-49 0 -92 19.5t-76 53.5q-5 7 -5 15v135q0 2 3 2zM481 387v-135q0 -5 -3 -5
h-340q-3 0 -3 5v132q0 10 6 17q33 32 75.5 52t91.5 20t91.5 -19t75.5 -51q6 -6 6 -16z" />
    <glyph glyph-name="product" unicode="&#x220f;" horiz-adv-x="539" 
d="M58 147v427h170v-450q0 -56 -33.5 -90t-113.5 -34h-81v125h33q13 0 19 5.5t6 16.5zM324 582h175v-582h-175v582zM498 642v-115h-440v115h440z" />
    <glyph glyph-name="minus" unicode="&#x2212;" horiz-adv-x="666" 
d="M15 257v125h483v-125h-483z" />
    <glyph glyph-name="uni2215" unicode="&#x2215;" horiz-adv-x="411" 
d="M287 702h144l-307 -762h-144z" />
    <glyph glyph-name="uni2219" unicode="&#x2219;" horiz-adv-x="252" 
d="M40 239v164h172v-164h-172z" />
    <glyph glyph-name="radical" unicode="&#x221a;" horiz-adv-x="833" 
d="M127 293h144l71 -205l235 614h144l-307 -762h-144zM248 293v-115h-165v115h165z" />
    <glyph glyph-name="infinity" unicode="&#x221e;" horiz-adv-x="607" 
d="M138 164l16 105h15q16 0 27.5 9t18.5 20l86 151q18 32 32 50t34 25t54 7h26v-104h-20q-13 0 -21 -7t-16 -22l-91 -161q-18 -32 -34 -47.5t-38 -20.5t-58 -5h-31zM163 269l-14 -105h-15q-80 0 -113.5 34t-33.5 90v119q0 56 33.5 90t113.5 34h28v-105h-24q-19 0 -24 -7.5
t-5 -24.5v-93q0 -18 5 -25t24 -7h25zM345 369l-77 -63l-51 79q-10 17 -23 29t-30 12h-10v105h19q30 0 50.5 -10.5t37.5 -29.5t34 -46zM276 284l72 73l32 -48q10 -15 22.5 -27.5t28.5 -12.5h21v-105h-12q-31 0 -53 7t-40 23t-38 44zM443 164l-7 105h32q20 0 24.5 7t4.5 25v93
q0 17 -4.5 24.5t-24.5 7.5h-31v105h35q80 0 113.5 -34t33.5 -90v-119q0 -56 -33.5 -90t-113.5 -34h-29z" />
    <glyph glyph-name="integral" unicode="&#x222b;" horiz-adv-x="483" 
d="M336 542v-566q0 -56 -33.5 -90t-113.5 -34h-101v125h53q13 0 18.5 5.5t6.5 16.5v566q0 56 33.5 90t113.5 34h101v-125h-53q-13 0 -18 -5.5t-7 -16.5z" />
    <glyph glyph-name="approxequal" unicode="&#x2248;" horiz-adv-x="563" 
d="M360 335q-27 0 -47.5 8.5t-37 20t-33 20t-34.5 8.5q-17 0 -22.5 -7.5t-5.5 -24.5v-25h-155v65q0 52 25.5 76t85.5 24h67q33 0 56 -8.5t39.5 -20t30 -20t26.5 -8.5q17 0 22.5 7.5t5.5 24.5v25h155v-65q0 -52 -25.5 -76t-85.5 -24h-67zM360 139q-27 0 -47.5 8.5t-37 20
t-33 20t-34.5 8.5q-17 0 -22.5 -7.5t-5.5 -24.5v-25h-155v65q0 52 25.5 76t85.5 24h67q33 0 56 -8.5t39.5 -20t30 -20t26.5 -8.5q17 0 22.5 7.5t5.5 24.5v25h155v-65q0 -52 -25.5 -76t-85.5 -24h-67z" />
    <glyph glyph-name="notequal" unicode="&#x2260;" horiz-adv-x="533" 
d="M508 149h-483v129h483v-129zM508 361h-483v129h483v-129zM194 89h-109l254 461h109z" />
    <glyph glyph-name="lessequal" unicode="&#x2264;" horiz-adv-x="533" 
d="M508 458l-365 -29l365 -31v-128l-483 86v150l483 78v-126zM508 257v-118h-483v118h483z" />
    <glyph glyph-name="greaterequal" unicode="&#x2265;" horiz-adv-x="533" 
d="M390 429l-365 29v126l483 -78v-150l-483 -86v128zM25 139v118h483v-118h-483z" />
    <glyph glyph-name="lozenge" unicode="&#x25ca;" horiz-adv-x="699" 
d="M610 323h-167l-108 194l-101 -194h-167l182 319h173zM443 323h167l-188 -322h-173l-182 322h167l101 -198z" />
    <glyph glyph-name="uni25CC" unicode="&#x25cc;" horiz-adv-x="660" 
d="M139 517q0 19 12.5 31.5t31.5 12.5q20 0 32 -12.5t12 -31.5t-12 -32t-32 -13q-19 0 -31.5 13t-12.5 32zM57 407q0 19 13.5 31.5t32.5 12.5q18 0 31 -12.5t13 -31.5t-13 -31.5t-31 -12.5q-19 0 -32.5 12.5t-13.5 31.5zM44 281q0 20 12.5 32.5t31.5 12.5q20 0 32 -12.5
t12 -32.5q0 -19 -12 -31t-32 -12q-19 0 -31.5 12t-12.5 31zM96 165q0 19 12.5 31.5t31.5 12.5t31.5 -12.5t12.5 -31.5t-12.5 -31.5t-31.5 -12.5t-31.5 12.5t-12.5 31.5zM197 90q0 18 13 31t32 13t31.5 -13t12.5 -31q0 -19 -12.5 -32.5t-31.5 -13.5t-32 13.5t-13 32.5z
M324 74q0 20 12.5 32t31.5 12q20 0 32.5 -12t12.5 -32q0 -19 -12.5 -31.5t-32.5 -12.5q-19 0 -31.5 12.5t-12.5 31.5zM445 127q0 19 12.5 31.5t31.5 12.5t32 -12.5t13 -31.5t-13 -31.5t-32 -12.5t-31.5 12.5t-12.5 31.5zM518 225q0 20 13 32.5t32 12.5q18 0 30.5 -12.5
t12.5 -32.5q0 -19 -12.5 -31.5t-30.5 -12.5q-19 0 -32 12.5t-13 31.5zM528 359q0 20 12.5 32t31.5 12t31.5 -12t12.5 -32q0 -19 -12.5 -31.5t-31.5 -12.5t-31.5 12.5t-12.5 31.5zM478 477q0 20 12.5 32.5t31.5 12.5q20 0 32 -12.5t12 -32.5q0 -19 -12 -31.5t-32 -12.5
q-19 0 -31.5 12.5t-12.5 31.5zM383 545q0 20 13 32.5t32 12.5t31 -12.5t12 -32.5q0 -18 -12 -31t-31 -13t-32 13t-13 31zM257 560q0 20 12.5 32t31.5 12q20 0 32 -12t12 -32q0 -19 -12 -31.5t-32 -12.5q-19 0 -31.5 12.5t-12.5 31.5z" />
    <glyph glyph-name="uni200D.1" unicode="&#xfeff;" horiz-adv-x="0" 
 />
    <glyph glyph-name="uni093F.01" 
d="M536 858q54 0 88 -25t34 -87v-70h-170v33q0 23 -6.5 29.5t-29.5 6.5h-206q-22 0 -29 -6.5t-7 -29.5v-67h60v-113h-60v-529h-170v529h-60v113h60v104q0 62 34 87t88 25h374z" />
    <glyph glyph-name="uni093F.02" 
d="M568 858q54 0 88 -25t34 -87v-70h-170v33q0 23 -6.5 29.5t-29.5 6.5h-238q-22 0 -29 -6.5t-7 -29.5v-67h60v-113h-60v-529h-170v529h-60v113h60v104q0 62 34 87t88 25h406z" />
    <glyph glyph-name="uni093F.03" 
d="M601 858q54 0 88 -25t34 -87v-70h-170v33q0 23 -6.5 29.5t-29.5 6.5h-271q-22 0 -29 -6.5t-7 -29.5v-67h60v-113h-60v-529h-170v529h-60v113h60v104q0 62 34 87t88 25h439z" />
    <glyph glyph-name="uni093F.04" 
d="M633 858q54 0 88 -25t34 -87v-70h-170v33q0 23 -6.5 29.5t-29.5 6.5h-303q-22 0 -29 -6.5t-7 -29.5v-67h60v-113h-60v-529h-170v529h-60v113h60v104q0 62 34 87t88 25h471z" />
    <glyph glyph-name="uni093F.05" 
d="M665 858q54 0 88 -25t34 -87v-70h-170v33q0 23 -6.5 29.5t-29.5 6.5h-335q-22 0 -29 -6.5t-7 -29.5v-67h60v-113h-60v-529h-170v529h-60v113h60v104q0 62 34 87t88 25h503z" />
    <glyph glyph-name="uni093F.06" 
d="M697 858q54 0 88 -25t34 -87v-70h-170v33q0 23 -6.5 29.5t-29.5 6.5h-367q-22 0 -29 -6.5t-7 -29.5v-67h60v-113h-60v-529h-170v529h-60v113h60v104q0 62 34 87t88 25h535z" />
    <glyph glyph-name="uni093F.08" 
d="M762 858q54 0 88 -25t34 -87v-70h-170v33q0 23 -6.5 29.5t-29.5 6.5h-432q-22 0 -29 -6.5t-7 -29.5v-67h60v-113h-60v-529h-170v529h-60v113h60v104q0 62 34 87t88 25h600z" />
    <glyph glyph-name="uni093F.09" 
d="M794 858q54 0 88 -25t34 -87v-70h-170v33q0 23 -6.5 29.5t-29.5 6.5h-464q-22 0 -29 -6.5t-7 -29.5v-67h60v-113h-60v-529h-170v529h-60v113h60v104q0 62 34 87t88 25h632z" />
    <glyph glyph-name="uni093F.10" 
d="M827 858q54 0 88 -25t34 -87v-70h-170v33q0 23 -6.5 29.5t-29.5 6.5h-497q-22 0 -29 -6.5t-7 -29.5v-67h60v-113h-60v-529h-170v529h-60v113h60v104q0 62 34 87t88 25h665z" />
    <glyph glyph-name="uni093F.11" 
d="M859 858q54 0 88 -25t34 -87v-70h-170v33q0 23 -6.5 29.5t-29.5 6.5h-529q-22 0 -29 -6.5t-7 -29.5v-67h60v-113h-60v-529h-170v529h-60v113h60v104q0 62 34 87t88 25h697z" />
    <glyph glyph-name="uni093F.12" 
d="M891 858q54 0 88 -25t34 -87v-70h-170v33q0 23 -6.5 29.5t-29.5 6.5h-561q-22 0 -29 -6.5t-7 -29.5v-67h60v-113h-60v-529h-170v529h-60v113h60v104q0 62 34 87t88 25h729z" />
    <glyph glyph-name="uni093F.13" 
d="M923 858q54 0 88 -25t34 -87v-70h-170v33q0 23 -6.5 29.5t-29.5 6.5h-593q-22 0 -29 -6.5t-7 -29.5v-67h60v-113h-60v-529h-170v529h-60v113h60v104q0 62 34 87t88 25h761z" />
    <glyph glyph-name="uni093F.14" 
d="M956 858q54 0 88 -25t34 -87v-70h-170v33q0 23 -6.5 29.5t-29.5 6.5h-626q-22 0 -29 -6.5t-7 -29.5v-67h60v-113h-60v-529h-170v529h-60v113h60v104q0 62 34 87t88 25h794z" />
    <glyph glyph-name="uni093F.15" 
d="M988 858q54 0 88 -25t34 -87v-70h-170v33q0 23 -6.5 29.5t-29.5 6.5h-658q-22 0 -29 -6.5t-7 -29.5v-67h60v-113h-60v-529h-170v529h-60v113h60v104q0 62 34 87t88 25h826z" />
    <glyph glyph-name="uni093F.16" 
d="M1020 858q54 0 88 -25t34 -87v-70h-170v33q0 23 -6.5 29.5t-29.5 6.5h-690q-22 0 -29 -6.5t-7 -29.5v-67h60v-113h-60v-529h-170v529h-60v113h60v104q0 62 34 87t88 25h858z" />
    <glyph glyph-name="uni093F.17" 
d="M1053 858q54 0 88 -25t34 -87v-70h-170v33q0 23 -6.5 29.5t-29.5 6.5h-723q-22 0 -29 -6.5t-7 -29.5v-67h60v-113h-60v-529h-170v529h-60v113h60v104q0 62 34 87t88 25h891z" />
    <glyph glyph-name="uni093F.18" 
d="M1085 858q54 0 88 -25t34 -87v-70h-170v33q0 23 -6.5 29.5t-29.5 6.5h-755q-22 0 -29 -6.5t-7 -29.5v-67h60v-113h-60v-529h-170v529h-60v113h60v104q0 62 34 87t88 25h923z" />
    <glyph glyph-name="uni093F.19" 
d="M1117 858q54 0 88 -25t34 -87v-70h-170v33q0 23 -6.5 29.5t-29.5 6.5h-787q-22 0 -29 -6.5t-7 -29.5v-67h60v-113h-60v-529h-170v529h-60v113h60v104q0 62 34 87t88 25h955z" />
    <glyph glyph-name="uni093F.20" 
d="M1150 858q54 0 88 -25t34 -87v-70h-170v33q0 23 -6.5 29.5t-29.5 6.5h-820q-22 0 -29 -6.5t-7 -29.5v-67h60v-113h-60v-529h-170v529h-60v113h60v104q0 62 34 87t88 25h988z" />
    <glyph glyph-name="uni093F.21" 
d="M1181 858q54 0 88 -25t34 -87v-70h-170v33q0 23 -6.5 29.5t-29.5 6.5h-851q-22 0 -29 -6.5t-7 -29.5v-67h60v-113h-60v-529h-170v529h-60v113h60v104q0 62 34 87t88 25h1019z" />
    <glyph glyph-name="uni093F.22" 
d="M1214 858q54 0 88 -25t34 -87v-70h-170v33q0 23 -6.5 29.5t-29.5 6.5h-884q-22 0 -29 -6.5t-7 -29.5v-67h60v-113h-60v-529h-170v529h-60v113h60v104q0 62 34 87t88 25h1052z" />
    <glyph glyph-name="uni093F.23" 
d="M1246 858q54 0 88 -25t34 -87v-70h-170v33q0 23 -6.5 29.5t-29.5 6.5h-916q-22 0 -29 -6.5t-7 -29.5v-67h60v-113h-60v-529h-170v529h-60v113h60v104q0 62 34 87t88 25h1084z" />
    <glyph glyph-name="uni093F.24" 
d="M1278 858q54 0 88 -25t34 -87v-70h-170v33q0 23 -6.5 29.5t-29.5 6.5h-948q-22 0 -29 -6.5t-7 -29.5v-67h60v-113h-60v-529h-170v529h-60v113h60v104q0 62 34 87t88 25h1116z" />
    <glyph glyph-name="uni093F.25" 
d="M1311 858q54 0 88 -25t34 -87v-70h-170v33q0 23 -6.5 29.5t-29.5 6.5h-981q-22 0 -29 -6.5t-7 -29.5v-67h60v-113h-60v-529h-170v529h-60v113h60v104q0 62 34 87t88 25h1149z" />
    <glyph glyph-name="uni093F.26" 
d="M1343 858q54 0 88 -25t34 -87v-70h-170v33q0 23 -6.5 29.5t-29.5 6.5h-1013q-22 0 -29 -6.5t-7 -29.5v-67h60v-113h-60v-529h-170v529h-60v113h60v104q0 62 34 87t88 25h1181z" />
    <glyph glyph-name="uni093F.27" 
d="M1375 858q54 0 88 -25t34 -87v-70h-170v33q0 23 -6.5 29.5t-29.5 6.5h-1045q-22 0 -29 -6.5t-7 -29.5v-67h60v-113h-60v-529h-170v529h-60v113h60v104q0 62 34 87t88 25h1213z" />
    <glyph glyph-name="uni093F.28" 
d="M1408 858q54 0 88 -25t34 -87v-70h-170v33q0 23 -6.5 29.5t-29.5 6.5h-1078q-22 0 -29 -6.5t-7 -29.5v-67h60v-113h-60v-529h-170v529h-60v113h60v104q0 62 34 87t88 25h1246z" />
    <glyph glyph-name="uni093F.29" 
d="M1440 858q54 0 88 -25t34 -87v-70h-170v33q0 23 -6.5 29.5t-29.5 6.5h-1110q-22 0 -29 -6.5t-7 -29.5v-67h60v-113h-60v-529h-170v529h-60v113h60v104q0 62 34 87t88 25h1278z" />
    <glyph glyph-name="uni093F.30" 
d="M1473 858q54 0 88 -25t34 -87v-70h-170v33q0 23 -6.5 29.5t-29.5 6.5h-1143q-22 0 -29 -6.5t-7 -29.5v-67h60v-113h-60v-529h-170v529h-60v113h60v104q0 62 34 87t88 25h1311z" />
    <glyph glyph-name="uni093F.31" 
d="M1505 858q54 0 88 -25t34 -87v-70h-170v33q0 23 -6.5 29.5t-29.5 6.5h-1175q-22 0 -29 -6.5t-7 -29.5v-67h60v-113h-60v-529h-170v529h-60v113h60v104q0 62 34 87t88 25h1343z" />
    <glyph glyph-name="uni093F.32" 
d="M1536 858q54 0 88 -25t34 -87v-70h-170v33q0 23 -6.5 29.5t-29.5 6.5h-1206q-22 0 -29 -6.5t-7 -29.5v-67h60v-113h-60v-529h-170v529h-60v113h60v104q0 62 34 87t88 25h1374z" />
    <glyph glyph-name="uni093F.33" 
d="M1569 858q54 0 88 -25t34 -87v-70h-170v33q0 23 -6.5 29.5t-29.5 6.5h-1239q-22 0 -29 -6.5t-7 -29.5v-67h60v-113h-60v-529h-170v529h-60v113h60v104q0 62 34 87t88 25h1407z" />
    <glyph glyph-name="uni093F.35" 
d="M1634 858q54 0 88 -25t34 -87v-70h-170v33q0 23 -6.5 29.5t-29.5 6.5h-1304q-22 0 -29 -6.5t-7 -29.5v-67h60v-113h-60v-529h-170v529h-60v113h60v104q0 62 34 87t88 25h1472z" />
    <glyph glyph-name="uni093F.36" 
d="M1666 858q54 0 88 -25t34 -87v-70h-170v33q0 23 -6.5 29.5t-29.5 6.5h-1336q-22 0 -29 -6.5t-7 -29.5v-67h60v-113h-60v-529h-170v529h-60v113h60v104q0 62 34 87t88 25h1504z" />
    <glyph glyph-name="uni093F.37" 
d="M1698 858q54 0 88 -25t34 -87v-70h-170v33q0 23 -6.5 29.5t-29.5 6.5h-1368q-22 0 -29 -6.5t-7 -29.5v-67h60v-113h-60v-529h-170v529h-60v113h60v104q0 62 34 87t88 25h1536z" />
    <glyph glyph-name="uni093F.38" 
d="M1731 858q54 0 88 -25t34 -87v-70h-170v33q0 23 -6.5 29.5t-29.5 6.5h-1401q-22 0 -29 -6.5t-7 -29.5v-67h60v-113h-60v-529h-170v529h-60v113h60v104q0 62 34 87t88 25h1569z" />
    <glyph glyph-name="uni093F.47" 
d="M2021 858q54 0 88 -25t34 -87v-70h-170v33q0 23 -6.5 29.5t-29.5 6.5h-1691q-22 0 -29 -6.5t-7 -29.5v-67h60v-113h-60v-529h-170v529h-60v113h60v104q0 62 34 87t88 25h1859z" />
    <glyph glyph-name="uni093F.50" 
d="M2118 858q54 0 88 -25t34 -87v-70h-170v33q0 23 -6.5 29.5t-29.5 6.5h-1788q-22 0 -29 -6.5t-7 -29.5v-67h60v-113h-60v-529h-170v529h-60v113h60v104q0 62 34 87t88 25h1956z" />
    <glyph glyph-name="uni0940.02" 
d="M40 552h170v-552h-170v552zM-20 642h290v-113h-290v113zM88 858q54 0 88 -25t34 -87v-110h-170v73q0 23 -6.5 29.5t-29.5 6.5h-232q-22 0 -29 -6.5t-7 -29.5v-33h-170v70q0 62 34 87t88 25h400z" />
    <glyph glyph-name="uni092C094D" horiz-adv-x="327" 
d="M392 642v-113h-412v113h412zM161 78q-64 0 -97.5 28.5t-33.5 98.5v160q0 55 29 81t111 26h155v-103h-72l41 -51q13 -16 29.5 -38t32 -43t26 -35l10.5 -14v-110h-231zM200 215q0 -14 6 -19t17 -5h91l-52 63q-7 9 -25 31.5t-37 46.5v-117z" />
    <glyph glyph-name="uni092D094D" horiz-adv-x="506" 
d="M308 647q82 0 111 -31t29 -86v-325q0 -70 -35.5 -98.5t-125.5 -28.5h-86q-90 0 -125.5 28.5t-35.5 98.5v128q0 55 29 81t111 26h446v-113h-393q-11 0 -17 -4.5t-6 -15.5v-92q0 -14 7 -19t18 -5h18q11 0 18 5t7 19v299q0 11 -6 15.5t-17 4.5h-13q-11 0 -17 -4.5t-6 -15.5
v-26h-170v42q0 55 29 86t111 31h119z" />
    <glyph glyph-name="uni091A094D" horiz-adv-x="249" 
d="M369 642v-113h-391v113h391zM260 472v-113h-23q-11 0 -17 -5t-6 -19v-120q0 -14 6 -19t17 -5h132v-113h-194q-64 0 -97.5 28.5t-33.5 98.5v100q0 28 10 44.5t29 25.5v-16h-95v113h272z" />
    <glyph glyph-name="uni091B094D" horiz-adv-x="701" 
d="M721 642v-113h-741v113h741zM34 504q0 35 30.5 44t79.5 9l94 -28q-19 0 -26.5 -7t-7.5 -27v-98q0 -14 6 -19t17 -5h33v-113h-33q-11 0 -17 -5t-6 -19v-97q0 -14 6 -19t17 -5h241q11 0 17 5t6 19v219q0 11 -6 15.5t-17 4.5h-16q-11 0 -17 -4.5t-6 -15.5v-40q0 -11 6 -15.5
t17 -4.5h11v-93h-41q-55 0 -89 22t-34 85v53q0 63 36.5 85t106.5 22h76q70 0 106.5 -22t36.5 -85v-238q0 -70 -39 -98.5t-122 -28.5h-305q-82 0 -121.5 28.5t-39.5 98.5v131q0 28 12.5 40.5t34.5 15.5v5q-22 3 -34.5 15.5t-12.5 40.5v129z" />
    <glyph glyph-name="uni0926094D" horiz-adv-x="474" 
d="M-34 642h528v-113h-528v113zM264 593h170v-234h-213q-11 0 -18 -5t-7 -19v-120q0 -14 6 -19t17 -5h22q11 0 17 5t6 19l14 -67q0 -34 -12 -52t-55 -18h-24q-90 0 -125.5 28.5t-35.5 98.5v160q0 55 29 81t111 26h98v121zM264 291h170v-291h-170v291zM421 -61l130 -150h-166
l-130 150h166z" />
    <glyph glyph-name="uni0921094D" horiz-adv-x="470" 
d="M-20 642h510v-113h-510v113zM237 593h170v-224h-180q-11 0 -17 -4.5t-6 -15.5v-23q0 -11 6 -15.5t17 -4.5h63q82 0 111 -26t29 -81v-92q0 -55 -29 -81t-111 -26h-122q-82 0 -111 26t-29 81v52h170v-36q0 -11 5 -15.5t12 -4.5h22q11 0 17 4.5t6 15.5v60q0 11 -6 15.5
t-17 4.5h-63q-82 0 -111 26t-29 81v55q0 55 29 81t111 26h63v121zM313 -61l130 -150h-166l-130 150h166z" />
    <glyph glyph-name="uni0922094D" horiz-adv-x="517" 
d="M-20 642h557v-113h-557v113zM278 593h170v-234h-213q-11 0 -18 -5t-7 -19v-198q0 -14 7 -19t18 -5h57q11 0 18 5t7 19v30q0 14 -7 19t-18 5h-44v113h78q90 0 125.5 -28.5t35.5 -98.5v-50q0 -70 -35.5 -98.5t-125.5 -28.5h-125q-90 0 -125.5 28.5t-35.5 98.5v238
q0 55 29 81t111 26h98v121zM353 -61l130 -150h-166l-130 150h166z" />
    <glyph glyph-name="uni0927094D" horiz-adv-x="419" 
d="M220 427q0 -14 6 -19t17 -5h69v-113h-69q-11 0 -17 -5t-6 -19v-51q0 -14 6 -19t17 -5h310v-113h-373q-67 0 -98.5 25.5t-31.5 80.5v104q0 28 12.5 40.5t34.5 15.5v5q-22 3 -34.5 15.5t-12.5 40.5v136q0 56 31.5 81t98.5 25h53q67 0 98.5 -25t31.5 -81v-63h-90v36
q0 11 -6 15.5t-17 4.5h-7q-11 0 -17 -4.5t-6 -15.5v-87z" />
    <glyph glyph-name="uni095E094D" horiz-adv-x="490" 
d="M455 591v-591h-170v591h170zM210 591v-376q0 -14 6 -19t17 -5h29q11 0 17 5t6 19l14 -67q0 -34 -12 -52t-55 -18h-61q-64 0 -97.5 28.5t-33.5 98.5v386h170zM591 319h-113q-11 0 -17 -5t-6 -19l-14 67q0 35 12 52.5t55 17.5h83v-113zM591 642v-113h-611v113h611zM87 -1
h122v-129h-122v129z" />
    <glyph glyph-name="uni0917094D" horiz-adv-x="471" 
d="M496 642v-113h-516v113h516zM436 554v-349q0 -70 -35.5 -98.5t-125.5 -28.5h-86q-90 0 -125.5 28.5t-35.5 98.5v152q0 62 43 88.5t137 26.5h119v-113h-98q-19 0 -25 -5.5t-6 -25.5v-113q0 -14 7 -19t18 -5h18q11 0 18 5t7 19v339h170z" />
    <glyph glyph-name="uni0918094D" horiz-adv-x="282" 
d="M412 642v-113h-168q-19 0 -26.5 -7t-7.5 -27v-55q0 -14 6 -19t17 -5h33v-113h-33q-11 0 -17 -5t-6 -19v-64q0 -14 6 -19t17 -5h179v-113h-211q-82 0 -121.5 28.5t-39.5 98.5v96q0 28 12.5 40.5t34.5 15.5v5q-22 3 -34.5 15.5t-12.5 40.5v86q0 17 7 27t20 15l24 -17h-111
v113h432z" />
    <glyph glyph-name="uni095A094D" horiz-adv-x="471" 
d="M496 642v-113h-516v113h516zM436 554v-349q0 -70 -35.5 -98.5t-125.5 -28.5h-86q-90 0 -125.5 28.5t-35.5 98.5v152q0 62 43 88.5t137 26.5h119v-113h-98q-19 0 -25 -5.5t-6 -25.5v-113q0 -14 7 -19t18 -5h18q11 0 18 5t7 19v339h170zM166 0h122v-129h-122v129z" />
    <glyph glyph-name="uni0939094D" horiz-adv-x="488" 
d="M-20 642h528v-113h-528v113zM278 472v121h170v-234h-215q-11 0 -17 -4.5t-6 -13.5v-7q0 -9 6 -13.5t17 -4.5h54q90 0 125.5 -28.5t35.5 -98.5v-29h-170v19q0 14 -7 19t-18 5h-20q-11 0 -17 -5t-6 -19v-42q0 -14 6 -19t17 -5h215v-113h-247q-82 0 -121.5 28.5t-39.5 98.5
v74q0 28 12.5 40.5t34.5 15.5v5q-22 3 -34.5 15.5t-12.5 40.5v47q0 55 29 81t111 26h98zM346 -61l130 -150h-166l-130 150h166z" />
    <glyph glyph-name="uni091C094D" horiz-adv-x="478" 
d="M560 642v-113h-580v113h580zM210 472v-257q0 -14 7 -19t18 -5h18q11 0 18 5t7 19v257h282v-113h-112v-154q0 -70 -35.5 -98.5t-125.5 -28.5h-86q-90 0 -125.5 28.5t-35.5 98.5v267h170z" />
    <glyph glyph-name="uni091D094D" horiz-adv-x="463" 
d="M200 165v-227h-170v227h170zM553 642v-113h-573v113h573zM414 593v-224h-191q-11 0 -17 -4.5t-6 -15.5v-24q0 -11 6 -15.5t17 -4.5h330v-103h-167l36 27q10 -20 10 -49v-73q0 -55 -29 -81t-111 -26h-120v103h67q11 0 17 4.5t6 15.5v59q0 11 -6 15.5t-17 4.5h-69
q-82 0 -111 26t-29 81v56q0 55 29 81t111 26h74v121h170z" />
    <glyph glyph-name="uni0915094D" horiz-adv-x="492" 
d="M435 592v-592h-170v592h170zM224 369h-11q-11 0 -17 -4.5t-6 -15.5v-134q0 -14 6 -19t17 -5h29q11 0 17 5t6 19l14 -67q0 -34 -12 -52t-55 -18h-61q-64 0 -97.5 28.5t-33.5 98.5v160q0 55 29 81t111 26h64v-103zM573 329h-115q-11 0 -17 -5t-6 -19l-14 67q0 35 12 52.5
t55 17.5h85v-113zM573 642v-113h-593v113h593z" />
    <glyph glyph-name="uni0916094D" horiz-adv-x="693" 
d="M680 472v-103h-11q-11 0 -17 -4.5t-6 -15.5v-134q0 -14 6 -19t17 -5h103v-113h-165q-64 0 -97.5 28.5t-33.5 98.5v160q0 55 29 81t111 26h64zM210 472v-325q0 -19 7.5 -26.5t26.5 -7.5h248v-113h-272q-94 0 -137 26.5t-43 88.5v357h170zM772 642v-113h-390l24 17
q13 -5 20 -15t7 -27v-159q0 -62 -32 -88.5t-111 -26.5h-93v113h32q19 0 26.5 7.5t7.5 26.5v118q0 20 -7 27t-27 7h-249v113h792z" />
    <glyph glyph-name="uni0959094D" horiz-adv-x="693" 
d="M680 472v-103h-11q-11 0 -17 -4.5t-6 -15.5v-134q0 -14 6 -19t17 -5h103v-113h-165q-64 0 -97.5 28.5t-33.5 98.5v160q0 55 29 81t111 26h64zM210 472v-325q0 -19 7.5 -26.5t26.5 -7.5h248v-113h-272q-94 0 -137 26.5t-43 88.5v357h170zM772 642v-113h-390l24 17
q13 -5 20 -15t7 -27v-159q0 -62 -32 -88.5t-111 -26.5h-93v113h32q19 0 26.5 7.5t7.5 26.5v118q0 20 -7 27t-27 7h-249v113h792zM160 -48h122v-129h-122v129z" />
    <glyph glyph-name="uni0932094D" horiz-adv-x="498" 
d="M558 642v-113h-578v113h578zM325 472q28 0 40.5 -12t15.5 -35h5q3 23 15.5 35t40.5 12h116v-113h-67q-14 0 -18.5 -6.5t-4.5 -17.5v-167h-170v167q0 11 -4.5 17.5t-18.5 6.5h-29q-11 0 -17 -5t-6 -19v-202q0 -11 6 -15.5t17 -4.5h50v-113h-103q-82 0 -111 26t-29 81v238
q0 70 33.5 98.5t97.5 28.5h141z" />
    <glyph glyph-name="uni0933094D" horiz-adv-x="730" 
d="M750 642v-113h-770v113h770zM559 472q65 0 98 -28.5t33 -98.5v-140q0 -70 -33 -98.5t-98 -28.5h-115q-70 0 -76 47h-5q-6 -47 -76 -47h-116q-64 0 -97.5 28.5t-33.5 98.5v140q0 70 33.5 98.5t97.5 28.5h116q70 0 76 -47h5q6 47 76 47h115zM520 335q0 14 -6 19t-17 5h-29
q-14 0 -18.5 -6.5t-4.5 -17.5v-120q0 -11 4.5 -17.5t18.5 -6.5h29q11 0 17 5t6 19v120zM285 335q0 11 -4.5 17.5t-18.5 6.5h-29q-11 0 -17 -5t-6 -19v-120q0 -14 6 -19t17 -5h29q14 0 18.5 6.5t4.5 17.5v120z" />
    <glyph glyph-name="uni092E094D" horiz-adv-x="476" 
d="M438 560v-355q0 -70 -35.5 -98.5t-125.5 -28.5h-86q-90 0 -125.5 28.5t-35.5 98.5v120q0 55 29 81t111 26h406v-113h-371q-11 0 -17 -4.5t-6 -15.5v-84q0 -14 7 -19t18 -5h36q11 0 18 5t7 19v345h170zM576 642v-113h-606v113h606z" />
    <glyph glyph-name="uni0928094D" horiz-adv-x="458" 
d="M578 642v-113h-598v113h598zM438 205q0 -70 -35.5 -98.5t-125.5 -28.5h-86q-90 0 -125.5 28.5t-35.5 98.5v160q0 55 29 81t111 26h408v-113h-355q-11 0 -17 -4.5t-6 -15.5v-124q0 -14 7 -19t18 -5h18q11 0 18 5t7 19v171h170v-181z" />
    <glyph glyph-name="uni0919094D" horiz-adv-x="558" 
d="M-20 642h598v-113h-598v113zM237 593h170v-224h-180q-11 0 -17 -4.5t-6 -15.5v-23q0 -11 6 -15.5t17 -4.5h63q82 0 111 -26t29 -81v-92q0 -55 -29 -81t-111 -26h-122q-82 0 -111 26t-29 81v52h170v-36q0 -11 5 -15.5t12 -4.5h22q11 0 17 4.5t6 15.5v60q0 11 -6 15.5
t-17 4.5h-63q-82 0 -111 26t-29 81v55q0 55 29 81t111 26h63v121zM434 413h122v-129h-122v129zM313 -61l130 -150h-166l-130 150h166z" />
    <glyph glyph-name="uni0923094D" horiz-adv-x="488" 
d="M508 642v-113h-528v113h528zM210 562v-347q0 -14 7 -19t18 -5h18q11 0 18 5t7 19v347h170v-357q0 -70 -35.5 -98.5t-125.5 -28.5h-86q-90 0 -125.5 28.5t-35.5 98.5v357h170z" />
    <glyph glyph-name="uni091E094D" horiz-adv-x="466" 
d="M576 642v-113h-596v113h596zM190 269v-54q0 -14 7 -19t18 -5h18q11 0 18 5t7 19v124q0 11 -6 15.5t-17 4.5h-102v113h155q82 0 111 -31t29 -86v-150q0 -70 -35.5 -98.5t-125.5 -28.5h-86q-90 0 -125.5 28.5t-35.5 98.5v64h170zM344 332h232v-113h-232v113z" />
    <glyph glyph-name="uni092A094D" horiz-adv-x="245" 
d="M370 642v-113h-390v113h390zM210 591v-376q0 -14 6 -19t17 -5h137v-113h-199q-64 0 -97.5 28.5t-33.5 98.5v386h170z" />
    <glyph glyph-name="uni092B094D" horiz-adv-x="490" 
d="M455 591v-591h-170v591h170zM210 591v-376q0 -14 6 -19t17 -5h29q11 0 17 5t6 19l14 -67q0 -34 -12 -52t-55 -18h-61q-64 0 -97.5 28.5t-33.5 98.5v386h170zM591 319h-113q-11 0 -17 -5t-6 -19l-14 67q0 35 12 52.5t55 17.5h83v-113zM591 642v-113h-611v113h611z" />
    <glyph glyph-name="uni0958094D" horiz-adv-x="492" 
d="M435 592v-592h-170v592h170zM224 369h-11q-11 0 -17 -4.5t-6 -15.5v-134q0 -14 6 -19t17 -5h29q11 0 17 5t6 19l14 -67q0 -34 -12 -52t-55 -18h-61q-64 0 -97.5 28.5t-33.5 98.5v160q0 55 29 81t111 26h64v-103zM573 329h-115q-11 0 -17 -5t-6 -19l-14 67q0 35 12 52.5
t55 17.5h85v-113zM573 642v-113h-593v113h593zM87 0h122v-129h-122v129z" />
    <glyph glyph-name="uni0938094D" horiz-adv-x="457" 
d="M210 472v-349q0 -11 6 -15.5t17 -4.5h13q7 0 12 4.5t5 15.5v81h170v-97q0 -55 -29 -81t-111 -26h-113q-82 0 -111 26t-29 81v365h170zM523 642v-113h-141l24 17q13 -5 20 -15t7 -27v-116q0 -34 -30 -43.5t-80 -9.5v28h200v-113h-326v113h32q19 0 26.5 7.5t7.5 26.5v98
q0 20 -7 27t-27 7h-249v113h543z" />
    <glyph glyph-name="uni0936094D" horiz-adv-x="513" 
d="M230 406v-283q0 -11 6 -15.5t17 -4.5h13q7 0 12 4.5t5 15.5v64h170v-80q0 -55 -29 -81t-111 -26h-113q-82 0 -111 26t-29 81v299h170zM313 647q82 0 111 -31t29 -86v-182q0 -62 -42.5 -88.5t-137.5 -26.5h-56v113h32q19 0 26.5 7.5t7.5 26.5v134q0 11 -6 15.5t-17 4.5
h-13q-7 0 -12 -4.5t-5 -15.5v-49h-170v65q0 55 29 86t111 31h113z" />
    <glyph glyph-name="uni0937094D" horiz-adv-x="295" 
d="M390 642v-113h-410v113h410zM206 591v-28l89 -148q15 -24 30.5 -62.5t29 -79t21.5 -70.5v-55q0 -34 -25.5 -52t-68.5 -18h-111q-64 0 -97.5 28.5t-33.5 98.5v386h166zM210 215q0 -14 6 -19t17 -5h79q18 0 22 14l-84 140q-25 43 -37 76l-12 33l4.5 -34t4.5 -87v-118z" />
    <glyph glyph-name="uni0924094D" horiz-adv-x="243" 
d="M303 642v-113h-323v113h323zM303 472v-113h-70q-11 0 -17 -4.5t-6 -15.5v-206q0 -11 6 -15.5t17 -4.5h11v-113h-64q-82 0 -111 26t-29 81v258q0 55 29 81t111 26h123z" />
    <glyph glyph-name="uni0925094D" horiz-adv-x="431" 
d="M556 78h-345q-82 0 -121.5 28.5t-39.5 98.5v198h130q11 0 17 4.5t6 15.5v91q0 11 -6 15.5t-17 4.5h-7q-11 0 -17 -4.5t-6 -15.5v-36h-90v63q0 56 31.5 81t98.5 25h53q67 0 98.5 -25t31.5 -81v-134q0 -55 -29 -86t-111 -31h-13v-75q0 -14 6 -19t17 -5h313v-113z" />
    <glyph glyph-name="uni091F094D" horiz-adv-x="488" 
d="M278 593h170v-234h-213q-11 0 -18 -5t-7 -19v-198q0 -14 7 -19t18 -5h18q11 0 18 5t7 19v102h170v-112q0 -70 -35.5 -98.5t-125.5 -28.5h-86q-90 0 -125.5 28.5t-35.5 98.5v238q0 55 29 81t111 26h98v121zM-20 642h528v-113h-528v113zM353 -61l130 -150h-166l-130 150
h166z" />
    <glyph glyph-name="uni0920094D" horiz-adv-x="488" 
d="M-20 642h528v-113h-528v113zM287 472q90 0 125.5 -28.5t35.5 -98.5v-218q0 -70 -35.5 -98.5t-125.5 -28.5h-86q-90 0 -125.5 28.5t-35.5 98.5v218q0 70 35.5 98.5t125.5 28.5h86zM159 553h170v-113h-170v113zM278 335q0 14 -7 19t-18 5h-18q-11 0 -18 -5t-7 -19v-198
q0 -14 7 -19t18 -5h18q11 0 18 5t7 19v198zM313 -61l130 -150h-166l-130 150h166z" />
    <glyph glyph-name="uni0935094D" horiz-adv-x="245" 
d="M370 642v-113h-390v113h390zM244 472v-103h-11q-11 0 -17 -4.5t-6 -15.5v-134q0 -14 6 -19t17 -5h137v-113h-199q-64 0 -97.5 28.5t-33.5 98.5v160q0 55 29 81t111 26h64z" />
    <glyph glyph-name="uni092F094D" horiz-adv-x="378" 
d="M508 642v-113h-528v113h528zM508 78h-307q-82 0 -121.5 28.5t-39.5 98.5v187h125q11 0 17 4.5t6 15.5v83q0 20 -7 27t-27 7l79 28q55 0 86 -14t31 -58v-89q0 -36 -11 -62.5t-40 -40.5t-84 -14h-5v-64q0 -14 6 -19t17 -5h275v-113z" />
    <glyph glyph-name="uni095B094D" horiz-adv-x="478" 
d="M560 642v-113h-580v113h580zM210 472v-257q0 -14 7 -19t18 -5h18q11 0 18 5t7 19v257h282v-113h-112v-154q0 -70 -35.5 -98.5t-125.5 -28.5h-86q-90 0 -125.5 28.5t-35.5 98.5v267h170zM182 0h122v-129h-122v129z" />
    <glyph glyph-name="onehalf" horiz-adv-x="814" 
d="M183 642v-69h-113v69h113zM309 0h-144l256 643h144zM229 642v-353h-110v353h110zM594 272v-50h-106v63q0 31 18.5 49.5t62.5 18.5h88q44 0 62 -18.5t18 -49.5v-42q0 -37 -11.5 -61.5t-32.5 -43.5l-73 -65h117v-73h-247v64l120 111q15 14 18.5 25t3.5 35v37q0 6 -3 9
t-10 3h-11q-7 0 -10.5 -3t-3.5 -9z" />
    <glyph glyph-name="onequarter" horiz-adv-x="833" 
d="M463 63v73h255v-73h-255zM437 63v85l135 207h104l-190 -292h-49zM583 206h98v-206h-98v206zM183 642v-69h-113v69h113zM309 0h-144l256 643h144zM229 642v-353h-110v353h110z" />
    <glyph glyph-name="threequarters" horiz-adv-x="790" 
d="M143 561v-34h-106v47q0 31 18.5 49.5t62.5 18.5h87q44 0 62.5 -18.5t18.5 -49.5v-47q0 -22 -5 -38t-21 -24q16 -7 21 -21.5t5 -35.5v-51q0 -31 -18.5 -49.5t-62.5 -18.5h-87q-44 0 -62.5 18.5t-18.5 49.5v48h106v-35q0 -6 3.5 -9t10.5 -3h11q7 0 10 3t3 9v50q0 7 -3 9.5
t-10 2.5h-37v64h37q7 0 10 3t3 9v53q0 6 -3 9t-10 3h-11q-7 0 -10.5 -3t-3.5 -9zM501 63v73h255v-73h-255zM475 63v85l135 207h104l-190 -292h-49zM621 206h98v-206h-98v206zM459 643h144l-256 -643h-144z" />
    <glyph glyph-name="uni094D0930.1" horiz-adv-x="0" 
d="M-206 34h162l114 -181h-139l-56 104l-58 -104h-139z" />
    <glyph glyph-name="uni0930094D" horiz-adv-x="0" 
d="M39 709h-53q-11 0 -17 -4.5t-6 -15.5v-57h-170v73q0 55 29 81t111 26h106v-103z" />
    <glyph glyph-name="uni0902.01" horiz-adv-x="0" 
d="M-31 807h122v-129h-122v129z" />
    <glyph glyph-name="uni0930094D.01" horiz-adv-x="0" 
d="M39 709h-53q-11 0 -17 -4.5t-6 -15.5v-57h-170v73q0 55 29 81t111 26h106v-103z" />
    <glyph glyph-name="aiMatraanusvaradeva" horiz-adv-x="0" 
d="M-473 843h200l43 -56q30 -39 51.5 -67.5t43.5 -63.5h5q-19 33 -30.5 60t-27.5 64l-26 63h154l14 -204h-166q-28 18 -50.5 33t-44 32.5t-49.5 40.5zM-26 803h122v-129h-122v129z" />
    <glyph glyph-name="aiMatrarephanusvaradeva" horiz-adv-x="0" 
d="M-546 843h200l63 -56q44 -39 75 -67.5t65 -63.5h5q-31 33 -51.5 60t-49.5 64l-48 63h154l8 -35q5 -20 9.5 -41.5t7.5 -41.5h4q-3 32 -4.5 56t-2 41t-0.5 25q0 18 6.5 34.5t23.5 27t50 10.5h66v-113h-40q-22 0 -29 -6.5t-7 -29.5v-131h-172q-35 18 -62.5 33t-55 32.5
t-63.5 40.5zM-12 773h101v-106h-101v106z" />
    <glyph glyph-name="aiMatrarephdeva" horiz-adv-x="0" 
d="M-548 843h200l63 -56q44 -39 75 -67.5t65 -63.5h5q-31 33 -51.5 60t-49.5 64l-48 63h154l8 -35q5 -20 9.5 -41.5t7.5 -41.5h4q-1 7 -2 13t-1.5 13t-0.5 16q0 18 5.5 34.5t22 27t49.5 10.5h66v-113h-40q-22 0 -29 -6.5t-7 -29.5v-51h-172q-35 18 -62.5 33t-55 32.5
t-63.5 40.5z" />
    <glyph glyph-name="auMatraanusvaradeva" 
d="M40 552h170v-552h-170v552zM-20 642h290v-113h-290v113zM-217 843h200l43 -56q30 -39 51.5 -67.5t43.5 -63.5h5q-19 33 -30.5 60t-27.5 64l-26 63h154l14 -204h-166q-28 18 -50.5 33t-44 32.5t-49.5 40.5zM230 803h122v-129h-122v129z" />
    <glyph glyph-name="auMatrarephanusvaradeva" 
d="M40 552h170v-552h-170v552zM-20 642h290v-113h-290v113zM-295 843h200l63 -56q44 -39 75 -67.5t65 -63.5h5q-31 33 -51.5 60t-49.5 64l-48 63h154l8 -35q5 -20 9.5 -41.5t7.5 -41.5h4q-3 32 -4.5 56t-2 41t-0.5 25q0 18 6.5 34.5t23.5 27t50 10.5h66v-113h-40
q-22 0 -29 -6.5t-7 -29.5v-131h-172q-35 18 -62.5 33t-55 32.5t-63.5 40.5zM239 773h101v-106h-101v106z" />
    <glyph glyph-name="auMatrarephdeva" 
d="M40 552h170v-552h-170v552zM-20 642h290v-113h-290v113zM-295 843h200l63 -56q44 -39 75 -67.5t65 -63.5h5q-31 33 -51.5 60t-49.5 64l-48 63h154l8 -35q5 -20 9.5 -41.5t7.5 -41.5h4q-1 7 -2 13t-1.5 13t-0.5 16q0 18 5.5 34.5t22 27t49.5 10.5h66v-113h-40
q-22 0 -29 -6.5t-7 -29.5v-51h-172q-35 18 -62.5 33t-55 32.5t-63.5 40.5z" />
    <glyph glyph-name="bbadeva" horiz-adv-x="914" 
d="M-20 642h954v-113h-954v113zM325 472v-103h-72l41 -51q17 -21 35.5 -43.5t31 -37.5l12.5 -15l-3 19t-3 33v91q0 55 29 81t111 26h155v-103h-72l41 -51q17 -21 35.5 -43.5t31 -37.5l12.5 -15l-1.5 7t-3 29.5t-1.5 66.5v267h170v-592h-170v103l6 16l-111 135q-7 9 -25 31.5
t-37 46.5v-117q0 -14 6 -19t17 -5h138q11 0 17 5t6 19l14 -67q0 -34 -12 -52t-55 -18h-170q-42 0 -71 11.5t-44 38.5l-18 1l-103 125q-7 9 -25 31.5t-37 46.5v-117q0 -14 6 -19t17 -5h138q11 0 17 5t6 19l34 -67q-4 -33 -23.5 -51.5t-63.5 -18.5h-170q-64 0 -97.5 28.5
t-33.5 98.5v160q0 55 29 81t111 26h155z" />
    <glyph glyph-name="bbhradeva" horiz-adv-x="1063" 
d="M325 472v-103h-72l41 -51q17 -21 35.5 -43.5t31 -37.5l12.5 -15l-3 19t-3 33v66q0 55 29 81t111 26h442v-113h-389q-11 0 -17 -4.5t-6 -15.5v-24q0 -14 7 -19t18 -5h18q11 0 18 5t7 19v224q0 11 -6 15.5t-17 4.5h-13q-11 0 -17 -4.5t-6 -15.5v-26h-170v42q0 55 29 86
t111 31h119q82 0 111 -31t29 -86v-250q0 -70 -35.5 -98.5t-125.5 -28.5h-86q-85 0 -121 26l-42 -50l-103 125q-7 9 -25 31.5t-37 46.5v-117q0 -14 6 -19t17 -5h138q11 0 17 5t6 19l121 -43q-9 -44 -39.5 -69t-74.5 -25h-230q-64 0 -97.5 28.5t-33.5 98.5v160q0 55 29 81
t111 26h155zM853 642h230v-113h-230v113zM853 572h170v-572h-170v92l-170 -172h-160l330 332v320zM-20 642h345v-113h-345v113z" />
    <glyph glyph-name="bbhadeva" horiz-adv-x="1063" 
d="M-20 642h345v-113h-345v113zM365 129l-103 125q-7 9 -25 31.5t-37 46.5v-117q0 -14 6 -19t17 -5h138q11 0 17 5t6 19l34 -67q-4 -33 -23.5 -51.5t-63.5 -18.5h-170q-64 0 -97.5 28.5t-33.5 98.5v160q0 55 29 81t111 26h155v-103h-72l41 -51q17 -21 35.5 -43.5t31 -37.5
l12.5 -15l-3 19t-3 33v59q0 55 29 81t111 26h442v-113h-389q-11 0 -17 -4.5t-6 -15.5v-92q0 -14 7 -19t18 -5h18q11 0 18 5t7 19v299q0 11 -6 15.5t-17 4.5h-13q-11 0 -17 -4.5t-6 -15.5v-26h-170v42q0 55 29 86t111 31h119q82 0 111 -31t29 -86v-325q0 -70 -35.5 -98.5
t-125.5 -28.5h-86q-66 0 -102 15t-50 50zM853 552h170v-552h-170v552zM853 642h230v-113h-230v113z" />
    <glyph glyph-name="bdadeva" horiz-adv-x="815" 
d="M-20 642h855v-113h-855v113zM605 291h170v-291h-170v291zM325 472v-103h-72l41 -51q17 -21 35.5 -43.5t31 -37.5l12.5 -15l-1.5 7t-3 29.5t-1.5 66.5v40q0 55 29 81t111 26h98v121h170v-234h-213q-11 0 -18 -5t-7 -19v-120q0 -14 6 -19t17 -5h22q11 0 17 5t6 19l14 -67
q0 -34 -12 -52t-55 -18h-24q-61 0 -97 13t-51 43l-15 -5l-103 125q-7 9 -25 31.5t-37 46.5v-117q0 -14 6 -19t17 -5h138q11 0 17 5t6 19l34 -67q-4 -33 -23.5 -51.5t-63.5 -18.5h-170q-64 0 -97.5 28.5t-33.5 98.5v160q0 55 29 81t111 26h155z" />
    <glyph glyph-name="bdhvadeva" horiz-adv-x="1175" 
d="M-20 642h345v-113h-345v113zM528 78q-61 0 -97 13t-51 43l-15 -5l-103 125q-7 9 -25 31.5t-37 46.5v-117q0 -14 6 -19t17 -5h138q11 0 17 5t6 19l34 -67q-4 -33 -23.5 -51.5t-63.5 -18.5h-170q-64 0 -97.5 28.5t-33.5 98.5v160q0 55 29 81t111 26h155v-103h-72l41 -51
q17 -21 35.5 -43.5t31 -37.5l12.5 -15l-3 19t-3 33v14q0 28 12.5 40.5t34.5 15.5v5q-22 3 -34.5 15.5t-12.5 40.5v136q0 56 31.5 81t98.5 25h53q67 0 98.5 -25t31.5 -81v-63h-90v36q0 11 -6 15.5t-17 4.5h-7q-11 0 -17 -4.5t-6 -15.5v-87q0 -14 6 -19t17 -5h69v-113h-69
q-11 0 -17 -5t-6 -19v-51q0 -14 6 -19t17 -5h126q20 0 27 7.5t7 26.5l51 -77q-4 -33 -23.5 -51.5t-63.5 -18.5h-156zM718 642h477v-113h-477v113zM965 591h170v-591h-170v591zM924 472v-113h-11q-11 0 -17 -4.5t-6 -15.5v-124q0 -14 6 -19t17 -5h29q11 0 17 5t6 19l14 -67
q0 -34 -12 -52t-55 -18h-61q-64 0 -97.5 28.5t-33.5 98.5v160q0 55 29 81t111 26h64z" />
    <glyph glyph-name="bdhadeva" horiz-adv-x="923" 
d="M-20 642h345v-113h-345v113zM325 472v-103h-72l41 -51q17 -21 35.5 -43.5t31 -37.5l12.5 -15l-3 19t-3 33v14q0 28 12.5 40.5t34.5 15.5v5q-22 3 -34.5 15.5t-12.5 40.5v136q0 56 31.5 81t98.5 25h53q67 0 98.5 -25t31.5 -81v-63h-90v36q0 11 -6 15.5t-17 4.5h-7
q-11 0 -17 -4.5t-6 -15.5v-87q0 -14 6 -19t17 -5h69v-113h-69q-11 0 -17 -5t-6 -19v-51q0 -14 6 -19t17 -5h126q20 0 27 7.5t7 26.5l14 -87q0 -27 -14 -43.5t-49 -16.5h-143q-61 0 -97 13t-51 43l-15 -5l-103 125q-7 9 -25 31.5t-37 46.5v-117q0 -14 6 -19t17 -5h138
q11 0 17 5t6 19l34 -67q-4 -33 -23.5 -51.5t-63.5 -18.5h-170q-64 0 -97.5 28.5t-33.5 98.5v160q0 55 29 81t111 26h155zM719 642h231v-113h-230zM720 592h170v-592h-170v592z" />
    <glyph glyph-name="bjyadeva" horiz-adv-x="1433" 
d="M200 215q0 -14 6 -19t17 -5h80q7 0 7 4l-48 59q-7 9 -25 31.5t-37 46.5v-117zM325 472v-103h-72l41 -51q17 -21 35.5 -43.5t31 -37.5l12.5 -15l-1.5 7t-3 29.5t-1.5 66.5v147h170v-257q0 -14 7 -19t18 -5h18q11 0 18 5t7 19v227h267v-113h-97v-124q0 -70 -35.5 -98.5
t-125.5 -28.5h-86q-90 0 -125.5 28.5t-35.5 98.5l44 -67q0 -27 -14 -43.5t-49 -16.5h-187q-64 0 -97.5 28.5t-33.5 98.5v160q0 55 29 81t111 26h155zM-20 642h1473v-113h-1473v113zM1223 592h170v-592h-170v592zM1155 446q0 -36 -11 -62.5t-40 -40.5t-84 -14h-5v-114
q0 -14 6 -19t17 -5h151q20 0 27 7.5t7 26.5l14 -87q0 -27 -14 -43.5t-49 -16.5h-168q-82 0 -121.5 28.5t-39.5 98.5v237h125q11 0 17 4.5t6 15.5v33q0 20 -7 27t-27 7l79 28q55 0 86 -14t31 -58v-39z" />
    <glyph glyph-name="bjadeva" horiz-adv-x="1055" 
d="M845 572h170v-572h-170v572zM-20 642h1095v-113h-1095v113zM200 215q0 -14 6 -19t17 -5h80q7 0 7 4l-48 59q-7 9 -25 31.5t-37 46.5v-117zM325 472v-103h-72l41 -51q17 -21 35.5 -43.5t31 -37.5l12.5 -15l-1.5 7t-3 29.5t-1.5 66.5v147h170v-257q0 -14 7 -19t18 -5h18
q11 0 18 5t7 19v257h267v-113h-97v-154q0 -70 -35.5 -98.5t-125.5 -28.5h-86q-90 0 -125.5 28.5t-35.5 98.5l44 -67q0 -27 -14 -43.5t-49 -16.5h-187q-64 0 -97.5 28.5t-33.5 98.5v160q0 55 29 81t111 26h155z" />
    <glyph glyph-name="bjhadeva" horiz-adv-x="1062" 
d="M315 472v-103h-91l19 10l152 -298l-15 -5v89h170v-227h-170v106l16 3q-4 -22 -18 -34.5t-43 -12.5h-164q-64 0 -97.5 28.5t-33.5 98.5v218q0 70 33.5 98.5t97.5 28.5h144zM210 137q0 -14 6 -19t17 -5h66q7 0 7 4l-51 96q-15 28 -25.5 49.5t-19.5 48.5v-174zM-20 642h1102
v-113h-1102v113zM853 578h169v-578h-170zM594 593h170v-224h-191q-11 0 -17 -4.5t-6 -15.5v-24q0 -11 6 -15.5t17 -4.5h293v-103h-130l36 27q10 -20 10 -49v-73q0 -55 -29 -81t-111 -26h-120v103h67q11 0 17 4.5t6 15.5v59q0 11 -6 15.5t-17 4.5h-69q-82 0 -111 26t-29 81
v56q0 55 29 81t111 26h74v121z" />
    <glyph glyph-name="blyadeva" horiz-adv-x="1440" 
d="M367 315q0 70 33.5 98.5t97.5 28.5h141q28 0 40.5 -12t15.5 -35h5q3 23 15.5 35t40.5 12h109v-113h-60q-14 0 -18.5 -6.5t-4.5 -17.5v-137h-170v137q0 11 -4.5 17.5t-18.5 6.5h-29q-11 0 -17 -5t-6 -19v-172q0 -11 6 -15.5t17 -4.5h50v-113h-103q-82 0 -111 26t-29 81
l3 5l3 7l-111 135q-7 9 -25 31.5t-37 46.5v-117q0 -14 6 -19t17 -5h138q11 0 17 5t6 19l14 -67q0 -34 -12 -52t-55 -18h-170q-64 0 -97.5 28.5t-33.5 98.5v160q0 55 29 81t111 26h155v-103h-72l41 -51q17 -21 35.5 -43.5t31 -37.5l12.5 -15l-3 20t-3 53v20zM-20 642h1480
v-113h-1480v113zM1230 592h170v-592h-170v592zM1162 446q0 -36 -11 -62.5t-40 -40.5t-84 -14h-5v-114q0 -14 6 -19t17 -5h151q20 0 27 7.5t7 26.5l14 -87q0 -27 -14 -43.5t-49 -16.5h-168q-82 0 -121.5 28.5t-39.5 98.5v237h125q11 0 17 4.5t6 15.5v33q0 20 -7 27t-27 7
l79 28q55 0 86 -14t31 -58v-39z" />
    <glyph glyph-name="bladeva" horiz-adv-x="1062" 
d="M-20 642h1102v-113h-1102v113zM367 345q0 70 33.5 98.5t97.5 28.5h141q28 0 40.5 -12t15.5 -35h5q3 23 15.5 35t40.5 12h109v-113h-60q-14 0 -18.5 -6.5t-4.5 -17.5v-167h-170v167q0 11 -4.5 17.5t-18.5 6.5h-29q-11 0 -17 -5t-6 -19v-202q0 -11 6 -15.5t17 -4.5h50v-113
h-103q-82 0 -111 26t-29 81l3 5l3 7l-111 135q-7 9 -25 31.5t-37 46.5v-117q0 -14 6 -19t17 -5h138q11 0 17 5t6 19l14 -67q0 -34 -12 -52t-55 -18h-170q-64 0 -97.5 28.5t-33.5 98.5v160q0 55 29 81t111 26h155v-103h-72l41 -51q17 -21 35.5 -43.5t31 -37.5l12.5 -15
l-1.5 7t-3 29.5t-1.5 66.5v20zM1022 0h-170v548h170v-548z" />
    <glyph glyph-name="bnadeva" horiz-adv-x="1045" 
d="M835 552h170v-552h-170v552zM-20 642h1085v-113h-1085v113zM325 472v-103h-72l41 -51q17 -21 35.5 -43.5t31 -37.5l12.5 -15l-3 19t-3 33v91q0 55 29 81t111 26h424v-113h-371q-11 0 -17 -4.5t-6 -15.5v-124q0 -14 7 -19t18 -5h18q11 0 18 5t7 19v171h170v-181
q0 -70 -35.5 -98.5t-125.5 -28.5h-86q-61 0 -97 13t-51 43l-15 -5l-103 125q-7 9 -25 31.5t-37 46.5v-117q0 -14 6 -19t17 -5h138q11 0 17 5t6 19l34 -67q-4 -33 -23.5 -51.5t-63.5 -18.5h-170q-64 0 -97.5 28.5t-33.5 98.5v160q0 55 29 81t111 26h155z" />
    <glyph glyph-name="brdeva" horiz-adv-x="352" 
d="M-20 642h392v-113h-392v113zM200 215q0 -14 6 -19t17 -5h91l-52 63q-7 9 -25 31.5t-37 46.5v-117zM30 365q0 55 29 81t111 26h155v-103h-72l41 -51q13 -16 22 -30t17 -26.5t17.5 -24.5t21.5 -24v-130l-91 -143h-169l85 138h-36q-64 0 -97.5 28.5t-33.5 98.5v160z" />
    <glyph glyph-name="bradeva" horiz-adv-x="577" 
d="M-20 642h617v-113h-617v113zM325 472v-103h-72l41 -51q17 -21 35.5 -43.5t31 -37.5l12.5 -15l-1.5 7t-3 29.5t-1.5 66.5v267h170v-592h-170v94l-91 -154h-179l84 138h-20q-64 0 -97.5 28.5t-33.5 98.5v160q0 55 29 81t111 26h155zM200 215q0 -14 6 -19t17 -5h81q7 0 8 3
l-50 60q-7 9 -25 31.5t-37 46.5v-117z" />
    <glyph glyph-name="bsadeva" horiz-adv-x="1034" 
d="M-20 642h1074v-113h-345l24 17q13 -5 20 -15t7 -27v-116q0 -34 -30 -43.5t-80 -9.5v28h251v-113h-377v113h32q19 0 26.5 7.5t7.5 26.5v98q0 20 -7 27t-27 7h-576v113zM824 552h170v-552h-170v552zM367 472h170v-349q0 -11 6 -15.5t17 -4.5h13q7 0 12 4.5t5 15.5v64h170
v-80q0 -55 -29 -81t-111 -26h-113q-82 0 -111 26t-29 81l3 5l3 7l-111 135q-7 9 -25 31.5t-37 46.5v-117q0 -14 6 -19t17 -5h138q11 0 17 5t6 19l14 -67q0 -34 -12 -52t-55 -18h-170q-64 0 -97.5 28.5t-33.5 98.5v160q0 55 29 81t111 26h155v-103h-72l41 -51
q17 -21 35.5 -43.5t31 -37.5l12.5 -15l-1.5 7t-3 29.5t-1.5 66.5v147z" />
    <glyph glyph-name="bshadeva" horiz-adv-x="1047" 
d="M620 647q82 0 111 -31t29 -86v-182q0 -62 -42.5 -88.5t-137.5 -26.5h-56v113h32q19 0 26.5 7.5t7.5 26.5v134q0 11 -6 15.5t-17 4.5h-13q-7 0 -12 -4.5t-5 -15.5v-49h-170v65q0 55 29 86t111 31h113zM837 642h230v-113h-60v-529h-170v642zM367 406h170v-283
q0 -11 6 -15.5t17 -4.5h13q7 0 12 4.5t5 15.5v64h170v-80q0 -55 -29 -81t-111 -26h-113q-82 0 -111 26t-29 81l3 5l3 7l-111 135q-7 9 -25 31.5t-37 46.5v-117q0 -14 6 -19t17 -5h138q11 0 17 5t6 19l14 -67q0 -34 -12 -52t-55 -18h-170q-64 0 -97.5 28.5t-33.5 98.5v160
q0 55 29 81t111 26h155v-103h-72l41 -51q17 -21 35.5 -43.5t31 -37.5l12.5 -15l-1.5 7t-3 29.5t-1.5 66.5v81zM-20 642h345v-113h-345v113z" />
    <glyph glyph-name="btadeva" horiz-adv-x="820" 
d="M325 472v-103h-72l41 -51q17 -21 35.5 -43.5t31 -37.5l12.5 -15l-1.5 7t-3 29.5t-1.5 66.5v40q0 55 29 81t111 26h116v-113h-63q-11 0 -17 -4.5t-6 -15.5v-206q0 -11 6 -15.5t17 -4.5h11v-113h-64q-82 0 -111 26t-29 81l3 5l3 7l-111 135q-7 9 -25 31.5t-37 46.5v-117
q0 -14 6 -19t17 -5h138q11 0 17 5t6 19l14 -67q0 -34 -12 -52t-55 -18h-170q-64 0 -97.5 28.5t-33.5 98.5v160q0 55 29 81t111 26h155zM780 552v-552h-170v552h170zM-20 642h860v-113h-860v113z" />
    <glyph glyph-name="bvadeva" horiz-adv-x="822" 
d="M373 119l-111 135q-7 9 -25 31.5t-37 46.5v-117q0 -14 6 -19t17 -5h138q11 0 17 5t6 19l39 -67q0 -34 -21 -52t-64 -18h-177q-64 0 -97.5 28.5t-33.5 98.5v160q0 55 29 81t111 26h155v-103h-72l41 -51q17 -21 35.5 -43.5t31 -37.5l12.5 -15l-1.5 7t-3 29.5t-1.5 66.5v40
q0 55 29 81t111 26h64v-113h-11q-11 0 -17 -4.5t-6 -15.5v-124q0 -14 6 -19t17 -5h29q11 0 17 5t6 19l14 -67q0 -34 -12 -52t-55 -18h-61q-45 0 -75 14t-44 45zM-20 642h862v-113h-862v113zM612 591h170v-591h-170v591z" />
    <glyph glyph-name="byadeva" horiz-adv-x="955" 
d="M-20 642h995v-113h-995v113zM745 592h170v-592h-170v592zM325 472v-103h-72l41 -51q17 -21 35.5 -43.5t31 -37.5l12.5 -15l-3 19t-3 33v118h125q11 0 17 4.5t6 15.5v83q0 20 -7 27t-27 7l79 28q55 0 86 -14t31 -58v-89q0 -36 -11 -62.5t-40 -40.5t-84 -14h-5v-64
q0 -14 7 -19t18 -5h149q20 0 27 7.5t7 26.5l14 -87q0 -27 -14 -43.5t-49 -16.5h-168q-66 0 -102 15t-50 50l-11 -14l-103 125q-7 9 -25 31.5t-37 46.5v-117q0 -14 6 -19t17 -5h138q11 0 17 5t6 19l34 -67q-4 -33 -23.5 -51.5t-63.5 -18.5h-170q-64 0 -97.5 28.5t-33.5 98.5
v160q0 55 29 81t111 26h155z" />
    <glyph glyph-name="bzadeva" horiz-adv-x="1058" 
d="M325 472v-103h-72l41 -51q17 -21 35.5 -43.5t31 -37.5l12.5 -15l-1.5 7t-3 29.5t-1.5 66.5v147h173v-257q0 -14 7 -19t18 -5h18q11 0 18 5t7 19v257h267v-113h-97v-154q0 -70 -35.5 -98.5t-125.5 -28.5h-119q-45 0 -75 14t-44 45l-6 -18l-111 135q-7 9 -25 31.5t-37 46.5
v-117q0 -14 6 -19t17 -5h138q11 0 17 5t6 19l39 -67q0 -34 -21 -52t-64 -18h-177q-64 0 -97.5 28.5t-33.5 98.5v160q0 55 29 81t111 26h155zM848 572h170v-572h-170v572zM-20 642h1098v-113h-1098v113zM528 0h122v-129h-122v129z" />
    <glyph glyph-name="bhladeva" horiz-adv-x="1211" 
d="M308 647q82 0 111 -31t29 -86v-325q0 -70 -35.5 -98.5t-125.5 -28.5h-86q-90 0 -125.5 28.5t-35.5 98.5v130q0 55 29 81t111 26h525l-129 -113h-343q-11 0 -17 -4.5t-6 -15.5v-94q0 -14 7 -19t18 -5h18q11 0 18 5t7 19v299q0 11 -6 15.5t-17 4.5h-13q-11 0 -17 -4.5
t-6 -15.5v-26h-170v42q0 55 29 86t111 31h119zM516 642h715v-113h-715v113zM788 472q28 0 40.5 -12t15.5 -35h5q3 23 15.5 35t40.5 12h109v-113h-60q-14 0 -18.5 -6.5t-4.5 -17.5v-137h-170v137q0 11 -4.5 17.5t-18.5 6.5h-29q-11 0 -17 -5t-6 -19v-202q0 -11 6 -15.5
t17 -4.5h50v-113h-103q-82 0 -111 26t-29 81v238q0 70 33.5 98.5t97.5 28.5h141zM1171 0h-170v548h170v-548z" />
    <glyph glyph-name="bhnadeva" horiz-adv-x="1194" 
d="M308 647q82 0 111 -31t29 -86v-325q0 -70 -35.5 -98.5t-125.5 -28.5h-86q-90 0 -125.5 28.5t-35.5 98.5v108q0 55 29 81t111 26h356v-113h-303q-11 0 -17 -4.5t-6 -15.5v-72q0 -14 7 -19t18 -5h18q11 0 18 5t7 19v299q0 11 -6 15.5t-17 4.5h-13q-11 0 -17 -4.5t-6 -15.5
v-26h-170v42q0 55 29 86t111 31h119zM984 552h170v-552h-170v552zM516 642h698v-113h-698v113zM924 205q0 -70 -35.5 -98.5t-125.5 -28.5h-86q-90 0 -125.5 28.5t-35.5 98.5v160q0 55 29 81t111 26h424v-113h-371q-11 0 -17 -4.5t-6 -15.5v-124q0 -14 7 -19t18 -5h18
q11 0 18 5t7 19v171h170v-181z" />
    <glyph glyph-name="bhrdeva" horiz-adv-x="569" 
d="M308 647q82 0 111 -31t29 -86v-250q0 -70 -35.5 -98.5t-125.5 -28.5h-86q-90 0 -125.5 28.5t-35.5 98.5v60q0 55 29 81t111 26h409v-113h-356q-11 0 -17 -4.5t-6 -15.5v-24q0 -14 7 -19t18 -5h18q11 0 18 5t7 19v224q0 11 -6 15.5t-17 4.5h-13q-11 0 -17 -4.5t-6 -15.5
v-26h-170v42q0 55 29 86t111 31h119zM589 316v-160l-233 -236h-160z" />
    <glyph glyph-name="bhryadeva" horiz-adv-x="1114" 
d="M526 642h608v-113h-608v113zM904 592h170v-592h-170v592zM836 446q0 -36 -11 -62.5t-40 -40.5t-84 -14h-5v-114q0 -14 6 -19t17 -5h151q20 0 27 7.5t7 26.5l14 -87q0 -27 -14 -43.5t-49 -16.5h-168q-82 0 -121.5 28.5t-39.5 98.5v237h125q11 0 17 4.5t6 15.5v33
q0 20 -7 27t-27 7l79 28q55 0 86 -14t31 -58v-39zM556 282l93 -72l-293 -290h-160zM308 647q82 0 111 -31t29 -86v-250q0 -70 -35.5 -98.5t-125.5 -28.5h-86q-90 0 -125.5 28.5t-35.5 98.5v55q0 55 29 81t111 26h442v-113h-389q-11 0 -17 -4.5t-6 -15.5v-19q0 -14 7 -19
t18 -5h18q11 0 18 5t7 19v224q0 11 -6 15.5t-17 4.5h-13q-11 0 -17 -4.5t-6 -15.5v-26h-170v42q0 55 29 86t111 31h119z" />
    <glyph glyph-name="bhradeva" horiz-adv-x="736" 
d="M526 642h230v-113h-230v113zM308 647q82 0 111 -31t29 -86v-250q0 -70 -35.5 -98.5t-125.5 -28.5h-86q-90 0 -125.5 28.5t-35.5 98.5v60q0 55 29 81t111 26h442v-113h-389q-11 0 -17 -4.5t-6 -15.5v-24q0 -14 7 -19t18 -5h18q11 0 18 5t7 19v224q0 11 -6 15.5t-17 4.5
h-13q-11 0 -17 -4.5t-6 -15.5v-26h-170v42q0 55 29 86t111 31h119zM526 572h170v-572h-170v92l-170 -172h-160l330 332v320z" />
    <glyph glyph-name="bhvadeva" horiz-adv-x="971" 
d="M308 647q82 0 111 -31t29 -86v-325q0 -70 -35.5 -98.5t-125.5 -28.5h-86q-90 0 -125.5 28.5t-35.5 98.5v130q0 55 29 81t111 26h420l-24 -113h-343q-11 0 -17 -4.5t-6 -15.5v-94q0 -14 7 -19t18 -5h18q11 0 18 5t7 19v299q0 11 -6 15.5t-17 4.5h-13q-11 0 -17 -4.5
t-6 -15.5v-26h-170v42q0 55 29 86t111 31h119zM516 642h475v-113h-475v113zM761 591h170v-591h-170v591zM720 472v-113h-11q-11 0 -17 -4.5t-6 -15.5v-124q0 -14 6 -19t17 -5h29q11 0 17 5t6 19l14 -67q0 -34 -12 -52t-55 -18h-61q-64 0 -97.5 28.5t-33.5 98.5v160
q0 55 29 81t111 26h64z" />
    <glyph glyph-name="bhyadeva" horiz-adv-x="1104" 
d="M308 647q82 0 111 -31t29 -86v-325q0 -70 -35.5 -98.5t-125.5 -28.5h-86q-90 0 -125.5 28.5t-35.5 98.5v116q0 55 29 81t111 26h432v-113h-379q-11 0 -17 -4.5t-6 -15.5v-80q0 -14 7 -19t18 -5h18q11 0 18 5t7 19v299q0 11 -6 15.5t-17 4.5h-13q-11 0 -17 -4.5t-6 -15.5
v-26h-170v42q0 55 29 86t111 31h119zM516 642h608v-113h-608v113zM894 592h170v-592h-170v592zM826 432q0 -36 -11 -62.5t-40 -40.5t-84 -14h-5v-100q0 -14 6 -19t17 -5h151q20 0 27 7.5t7 26.5l14 -87q0 -27 -14 -43.5t-49 -16.5h-168q-82 0 -121.5 28.5t-39.5 98.5v223
h125q11 0 17 4.5t6 15.5v47q0 20 -7 27t-27 7l79 28q55 0 86 -14t31 -58v-53z" />
    <glyph glyph-name="ccadeva" horiz-adv-x="749" 
d="M-12 472h255v-113h-255v113zM44 305q0 50 31 66t80 16l82 -28q-11 0 -17 -5t-6 -19v-120q0 -14 6 -19t17 -5h23q20 0 27 7.5t7 26.5l38 -87q0 -27 -20.5 -43.5t-55.5 -16.5h-81q-64 0 -97.5 28.5t-33.5 98.5v100zM-22 642h791v-113h-791v113zM539 592h170v-592h-170v592z
M280 472h230v-113h-230v113zM294 305q0 50 31 66t80 16l82 -28q-11 0 -17 -5t-6 -19v-120q0 -14 6 -19t17 -5h29q11 0 17 5t6 19l14 -67q0 -34 -12 -52t-55 -18h-61q-64 0 -97.5 28.5t-33.5 98.5v100z" />
    <glyph glyph-name="cchvadeva" horiz-adv-x="951" 
d="M-17 472h250v-113h-6q-11 0 -17 -5t-6 -19v-120q0 -14 6 -19t17 -5h23q20 0 27 7.5t7 26.5l33 -87q0 -27 -20.5 -43.5t-55.5 -16.5h-76q-64 0 -97.5 28.5t-33.5 98.5v100q0 27 10 44t28 24l24 -14h-113v113zM-20 642h991v-113h-991v113zM649 552h160v-109h-160v109z
M284 504q0 35 30.5 44t79.5 9l94 -28q-19 0 -26.5 -7t-7.5 -27v-98q0 -14 6 -19t17 -5h33v-113h-33q-11 0 -17 -5t-6 -19v-97q0 -14 6 -19t17 -5h241q11 0 17 5t6 19v219q0 11 -6 15.5t-17 4.5h-16q-11 0 -17 -4.5t-6 -15.5v-40q0 -11 6 -15.5t17 -4.5h11v-93h-41
q-55 0 -89 22t-34 85v53q0 63 36.5 85t106.5 22h76q70 0 106.5 -22t36.5 -85v-238q0 -70 -39 -98.5t-122 -28.5h-305q-82 0 -121.5 28.5t-39.5 98.5v131q0 28 12.5 40.5t34.5 15.5v5q-22 3 -34.5 15.5t-12.5 40.5v129zM535 -75q0 -14 6 -19t17 -5h79q11 0 17 5t6 19l14 -54
q0 -34 -12 -52t-55 -18h-77q-55 0 -85 23t-30 84v57q0 35 21.5 49t48.5 14l84 -28q-19 0 -26.5 -7t-7.5 -27v-41zM660 32h120v-322h-120v322z" />
    <glyph glyph-name="cchadeva" horiz-adv-x="961" 
d="M-20 642h1001v-113h-1001v113zM659 552h160v-109h-160v109zM294 504q0 35 30.5 44t79.5 9l94 -28q-19 0 -26.5 -7t-7.5 -27v-98q0 -14 6 -19t17 -5h33v-113h-33q-11 0 -17 -5t-6 -19v-97q0 -14 6 -19t17 -5h241q11 0 17 5t6 19v219q0 11 -6 15.5t-17 4.5h-16
q-11 0 -17 -4.5t-6 -15.5v-40q0 -11 6 -15.5t17 -4.5h11v-93h-41q-55 0 -89 22t-34 85v53q0 63 36.5 85t106.5 22h76q70 0 106.5 -22t36.5 -85v-238q0 -70 -39 -98.5t-122 -28.5h-305q-82 0 -121.5 28.5t-39.5 98.5v131q0 28 12.5 40.5t34.5 15.5v5q-22 3 -34.5 15.5
t-12.5 40.5v129zM-12 472h255v-113h-6q-11 0 -17 -5t-6 -19v-120q0 -14 6 -19t17 -5h23q20 0 27 7.5t7 26.5l33 -87q0 -27 -20.5 -43.5t-55.5 -16.5h-76q-64 0 -97.5 28.5t-33.5 98.5v100q0 27 10 44t28 24l24 -14h-118v113z" />
    <glyph glyph-name="cmadeva" horiz-adv-x="990" 
d="M-12 472h272v-113h-23q-11 0 -17 -5t-6 -19v-120q0 -14 6 -19t17 -5h23q20 0 27 7.5t7 26.5l33 -87q0 -27 -20.5 -43.5t-55.5 -16.5h-76q-64 0 -97.5 28.5t-33.5 98.5v100q0 27 10 44t28 24l24 -14h-118v113zM532 560h170v-355q0 -70 -35.5 -98.5t-125.5 -28.5h-86
q-90 0 -125.5 28.5t-35.5 98.5v120q0 55 29 81t111 26h442v-113h-407q-11 0 -17 -4.5t-6 -15.5v-84q0 -14 7 -19t18 -5h36q11 0 18 5t7 19v345zM780 552h170v-552h-170v552zM-20 642h1030v-113h-1030v113z" />
    <glyph glyph-name="cnadeva" horiz-adv-x="972" 
d="M-12 472h272v-113h-23q-11 0 -17 -5t-6 -19v-120q0 -14 6 -19t17 -5h23q20 0 27 7.5t7 26.5l33 -87q0 -27 -20.5 -43.5t-55.5 -16.5h-76q-64 0 -97.5 28.5t-33.5 98.5v100q0 27 10 44t28 24l24 -14h-118v113zM762 552h170v-552h-170v552zM-20 642h1012v-113h-1012v113z
M702 205q0 -70 -35.5 -98.5t-125.5 -28.5h-86q-90 0 -125.5 28.5t-35.5 98.5v160q0 55 29 81t111 26h424v-113h-371q-11 0 -17 -4.5t-6 -15.5v-124q0 -14 7 -19t18 -5h18q11 0 18 5t7 19v171h170v-181z" />
    <glyph glyph-name="crdeva" horiz-adv-x="298" 
d="M-22 642h340v-113h-340v113zM-12 472h272v-113h-272v113zM44 305q0 50 31 66t80 16l82 -28q-7 0 -12.5 -2t-8 -7t-2.5 -15v-100q0 -14 6 -19t17 -5h81v-65l-122 -206h-179l128 210l63 -52h-53q-111 0 -111 107v100z" />
    <glyph glyph-name="cradeva" horiz-adv-x="499" 
d="M-22 642h541v-113h-541v113zM289 592h170v-592h-170v592zM-12 472h272v-113h-272v113zM44 305q0 50 31 66t80 16l82 -28q-7 0 -12.5 -2t-8 -7t-2.5 -15v-100q0 -14 6 -19t17 -5h29q11 0 17 5t6 19l29 -89l-122 -206h-179l128 210l63 -52h-53q-111 0 -111 107v100z" />
    <glyph glyph-name="cyadeva" horiz-adv-x="882" 
d="M-12 472h272v-113h-23q-11 0 -17 -5t-6 -19v-120q0 -14 6 -19t17 -5h23q20 0 27 7.5t7 26.5l33 -87q0 -27 -20.5 -43.5t-55.5 -16.5h-76q-64 0 -97.5 28.5t-33.5 98.5v100q0 27 10 44t28 24l24 -14h-118v113zM-20 642h922v-113h-922v113zM672 592h170v-592h-170v592z
M604 396q0 -36 -11 -62.5t-40 -40.5t-84 -14h-5v-64q0 -14 6 -19t17 -5h151q20 0 27 7.5t7 26.5l14 -87q0 -27 -14 -43.5t-49 -16.5h-168q-82 0 -121.5 28.5t-39.5 98.5v187h125q11 0 17 4.5t6 15.5v83q0 20 -7 27t-27 7l79 28q55 0 86 -14t31 -58v-89z" />
    <glyph glyph-name="chrdeva" horiz-adv-x="701" 
d="M721 529h-741v113h741v-113zM463 205h-41q-55 0 -89 22t-34 85v53q0 63 36.5 85t106.5 22h76q70 0 106.5 -22t36.5 -85v-238q0 -70 -39 -98.5t-122 -28.5h-305q-82 0 -121.5 28.5t-39.5 98.5v131q0 28 12.5 40.5t34.5 15.5v5q-22 3 -34.5 15.5t-12.5 40.5v129
q0 35 30.5 44t79.5 9l94 -28q-19 0 -26.5 -7t-7.5 -27v-98q0 -14 6 -19t17 -5h33v-113h-33q-11 0 -17 -5t-6 -19v-97q0 -14 6 -19t17 -5h241q11 0 17 5t6 19v219q0 11 -6 15.5t-17 4.5h-16q-11 0 -17 -4.5t-6 -15.5v-40q0 -11 6 -15.5t17 -4.5h11v-93zM276 34h162l114 -181
h-139l-56 104l-58 -104h-139z" />
    <glyph glyph-name="chryadeva" horiz-adv-x="1317" 
d="M34 504q0 35 30.5 44t79.5 9l94 -28q-19 0 -26.5 -7t-7.5 -27v-98q0 -14 6 -19t17 -5h33v-113h-33q-11 0 -17 -5t-6 -19v-97q0 -14 6 -19t17 -5h241q11 0 17 5t6 19v220q0 11 -6 15.5t-17 4.5h-16q-11 0 -17 -4.5t-6 -15.5v-40q0 -11 6 -15.5t17 -4.5h11v-93h-41
q-55 0 -89 22t-34 85v65q0 63 36.5 85t106.5 22h76q70 0 106.5 -22t36.5 -85v-251q0 -70 -39 -98.5t-122 -28.5h-305q-82 0 -121.5 28.5t-39.5 98.5v131q0 28 12.5 40.5t34.5 15.5v5q-22 3 -34.5 15.5t-12.5 40.5v129zM1107 592h170v-592h-170v592zM1337 642v-113h-1357v113
h1357zM1121 138q0 -27 -14 -43.5t-49 -16.5h-168q-82 0 -121.5 28.5t-39.5 98.5v120h125q11 0 17 4.5t6 15.5v14q0 11 -6 15.5t-17 4.5h-250l-116 106h416q55 0 84 -14t40 -40t11 -63v-20q0 -36 -11 -62.5t-40 -40.5t-84 -14h-5v-16q0 -14 6 -19t17 -5h151q20 0 27 7.5
t7 26.5zM277 34h162l114 -181h-139l-56 104l-58 -104h-139z" />
    <glyph glyph-name="chradeva" horiz-adv-x="701" 
d="M-20 642h741v-113h-741v113zM399 552h160v-109h-160v109zM34 504q0 35 30.5 44t79.5 9l94 -28q-19 0 -26.5 -7t-7.5 -27v-98q0 -14 6 -19t17 -5h33v-113h-33q-11 0 -17 -5t-6 -19v-97q0 -14 6 -19t17 -5h241q11 0 17 5t6 19v219q0 11 -6 15.5t-17 4.5h-16q-11 0 -17 -4.5
t-6 -15.5v-40q0 -11 6 -15.5t17 -4.5h11v-93h-41q-55 0 -89 22t-34 85v53q0 63 36.5 85t106.5 22h76q70 0 106.5 -22t36.5 -85v-238q0 -70 -39 -98.5t-122 -28.5h-305q-82 0 -121.5 28.5t-39.5 98.5v131q0 28 12.5 40.5t34.5 15.5v5q-22 3 -34.5 15.5t-12.5 40.5v129z
M276 34h162l114 -181h-139l-56 104l-58 -104h-139z" />
    <glyph glyph-name="chyadeva" horiz-adv-x="1317" 
d="M34 504q0 35 30.5 44t79.5 9l94 -28q-19 0 -26.5 -7t-7.5 -27v-98q0 -14 6 -19t17 -5h33v-113h-33q-11 0 -17 -5t-6 -19v-97q0 -14 6 -19t17 -5h241q11 0 17 5t6 19v220q0 11 -6 15.5t-17 4.5h-16q-11 0 -17 -4.5t-6 -15.5v-40q0 -11 6 -15.5t17 -4.5h11v-93h-41
q-55 0 -89 22t-34 85v65q0 63 36.5 85t106.5 22h76q70 0 106.5 -22t36.5 -85v-251q0 -70 -39 -98.5t-122 -28.5h-305q-82 0 -121.5 28.5t-39.5 98.5v131q0 28 12.5 40.5t34.5 15.5v5q-22 3 -34.5 15.5t-12.5 40.5v129zM1107 592h170v-592h-170v592zM1337 642v-113h-1357v113
h1357zM1121 138q0 -27 -14 -43.5t-49 -16.5h-168q-82 0 -121.5 28.5t-39.5 98.5v120h125q11 0 17 4.5t6 15.5v14q0 11 -6 15.5t-17 4.5h-250l-116 106h416q55 0 84 -14t40 -40t11 -63v-20q0 -36 -11 -62.5t-40 -40.5t-84 -14h-5v-16q0 -14 6 -19t17 -5h151q20 0 27 7.5
t7 26.5z" />
    <glyph glyph-name="dbradeva" horiz-adv-x="600" 
d="M338 593h170v-234h-287q-11 0 -18 -5t-7 -19v-93q0 -14 6 -19t17 -5h96q11 0 17 5t6 19v59h170v-523h-170v106l-139 -151h-148l126 135h-11q-82 0 -111 26t-29 81v87q0 28 12.5 40.5t34.5 15.5v5q-22 3 -34.5 15.5t-12.5 40.5v186q0 55 29 81t111 26h172v121zM209 109
q-13 0 -20.5 -5t-7.5 -21v-91q0 -15 7.5 -20t20.5 -5h116q14 0 21 5t7 20v121q-15 -4 -39 -4h-105zM-34 642h602v-113h-602v113zM139 130h88l161 -169h-88z" />
    <glyph glyph-name="dbadeva" horiz-adv-x="548" 
d="M26 365q0 55 29 81t111 26h172v121h170v-234h-287q-11 0 -18 -5t-7 -19v-93q0 -14 6 -19t17 -5h96q11 0 17 5t6 19v59h170v-523h-170v106q-15 -16 -53 -16h-119q-82 0 -111 26t-29 81v87q0 28 12.5 40.5t34.5 15.5v5q-22 3 -34.5 15.5t-12.5 40.5v186zM209 109
q-13 0 -20.5 -5t-7.5 -21v-91q0 -15 7.5 -20t20.5 -5h116q14 0 21 5t7 20v121q-15 -4 -39 -4h-105zM-34 642h602v-113h-602v113zM139 130h88l161 -169h-88z" />
    <glyph glyph-name="dbhadeva" horiz-adv-x="694" 
d="M-20 642h734v-113h-734v113zM484 593h170v-234h-213q-11 0 -18 -5t-7 -19v-120q0 -14 6 -19t17 -5h22q11 0 17 5t6 19l14 -67q0 -34 -12 -52t-55 -18h-24q-90 0 -125.5 28.5t-35.5 98.5v160q0 55 29 81t111 26h98v121zM484 291h170v-371h-170v371zM208 -147h-152v295
q0 14 -7 19t-18 5h-24v113h40q90 0 125.5 -28.5t35.5 -98.5v-305zM116 -80v113h323v-113h-323z" />
    <glyph glyph-name="ddadeva" horiz-adv-x="474" 
d="M-34 642h528v-113h-528v113zM264 236h170v-291h-170v291zM244 593h170v-234h-249q-11 0 -17 -4.5t-6 -15.5v-11q0 -14 6 -19t17 -5h59v-113h-59q-11 0 -17 -5t-6 -19v-7q0 -14 6 -19t17 -5h76q11 0 17 5t6 19l14 -67q0 -34 -12 -52t-55 -18h-79q-67 0 -98.5 25.5
t-31.5 80.5v60q0 28 12.5 40.5t34.5 15.5v5q-22 3 -34.5 15.5t-12.5 40.5v60q0 56 31.5 81t98.5 25h112v121z" />
    <glyph glyph-name="ddhadeva" horiz-adv-x="761" 
d="M463 49v-113h-293q-67 0 -98.5 25.5t-31.5 80.5v60q0 28 12.5 40.5t34.5 15.5v5q-22 3 -34.5 15.5t-12.5 40.5v60q0 56 31.5 81t98.5 25h102v-113h-69q-11 0 -17 -4.5t-6 -15.5v-11q0 -14 6 -19t17 -5h69v-113h-69q-11 0 -17 -5t-6 -19v-7q0 -14 6 -19t17 -5h260z
M-20 642h801v-113h-801v113zM551 593h170v-221h-213q-11 0 -18 -5t-7 -19v-128q0 -14 6 -19t17 -5h22q11 0 17 5t6 19l14 -67q0 -34 -12 -52t-55 -18h-24q-90 0 -125.5 28.5t-35.5 98.5v168q0 55 29 81t111 26h98v108zM551 287h170v-351h-170v351z" />
    <glyph glyph-name="dgradeva" horiz-adv-x="474" 
d="M330 2l23 -116l-196 -176h-146zM218 117v-136q0 -38 -20.5 -56.5t-78.5 -18.5h-89v79h22q8 0 12 3.5t4 10.5v118h150zM284 291h150v-545h-150v545zM-34 642h528v-113h-528v113zM264 593h170v-234h-213q-11 0 -18 -5t-7 -19v-120q0 -14 6 -19t17 -5h42q11 0 17 5t6 19
l14 -67q0 -34 -12 -52t-55 -18h-44q-90 0 -125.5 28.5t-35.5 98.5v160q0 55 29 81t111 26h98v121z" />
    <glyph glyph-name="dgadeva" horiz-adv-x="474" 
d="M218 117v-196q0 -38 -20.5 -56.5t-78.5 -18.5h-89v79h22q8 0 12 3.5t4 10.5v178h150zM284 291h150v-485h-150v485zM-34 642h528v-113h-528v113zM264 593h170v-234h-213q-11 0 -18 -5t-7 -19v-120q0 -14 6 -19t17 -5h42q11 0 17 5t6 19l14 -67q0 -34 -12 -52t-55 -18h-44
q-90 0 -125.5 28.5t-35.5 98.5v160q0 55 29 81t111 26h98v121z" />
    <glyph glyph-name="dghadeva" horiz-adv-x="761" 
d="M463 49v-113h-293q-67 0 -98.5 25.5t-31.5 80.5v60q0 28 12.5 40.5t34.5 15.5v5q-22 3 -34.5 15.5t-12.5 40.5v60q0 56 31.5 81t98.5 25h202v-113h-169q-11 0 -17 -4.5t-6 -15.5v-11q0 -14 6 -19t17 -5h69v-113h-69q-11 0 -17 -5t-6 -19v-7q0 -14 6 -19t17 -5h260z
M-20 642h801v-113h-801v113zM551 593h170v-221h-213q-11 0 -18 -5t-7 -19v-128q0 -14 6 -19t17 -5h22q11 0 17 5t6 19l14 -67q0 -34 -12 -52t-55 -18h-24q-90 0 -125.5 28.5t-35.5 98.5v168q0 55 29 81t111 26h98v108zM551 287h170v-351h-170v351z" />
    <glyph glyph-name="dmadeva" horiz-adv-x="722" 
d="M264 593h170v-234h-213q-11 0 -18 -5t-7 -19v-90q0 -14 6 -19t17 -5h22q11 0 17 5t6 19l14 -67q0 -34 -12 -52t-55 -18h-24q-90 0 -125.5 28.5t-35.5 98.5v130q0 55 29 81t111 26h98v121zM264 291h170v-291h-170v291zM512 552h170v-552h-170v552zM-20 642h762v-113h-762
v113zM390 74v113h158v-113h-158z" />
    <glyph glyph-name="dnadeva" horiz-adv-x="474" 
d="M312 7v-100h-98q-11 0 -17 -5t-6 -19v-41l-120 1v57q0 61 30 84t85 23h126zM284 291h150v-505h-150v505zM-34 642h528v-113h-528v113zM264 593h170v-234h-213q-11 0 -18 -5t-7 -19v-120q0 -14 6 -19t17 -5h42q11 0 17 5t6 19l14 -67q0 -34 -12 -52t-55 -18h-44
q-90 0 -125.5 28.5t-35.5 98.5v160q0 55 29 81t111 26h98v121z" />
    <glyph glyph-name="drdeva" horiz-adv-x="474" 
d="M-34 642h528v-113h-528v113zM264 291h170v-291h-170v291zM26 365q0 55 29 81t111 26h98v121h170v-234h-213q-11 0 -18 -5t-7 -19v-100q0 -14 6 -19t17 -5h22q11 0 17 5t6 19l29 -89l-122 -206h-179l128 210l70 -52h-53q-111 0 -111 107v160zM421 -61l130 -150h-166
l-130 150h166z" />
    <glyph glyph-name="dradeva" horiz-adv-x="474" 
d="M-34 642h528v-113h-528v113zM264 291h170v-291h-170v291zM26 365q0 55 29 81t111 26h98v121h170v-234h-213q-11 0 -18 -5t-7 -19v-100q0 -14 6 -19t17 -5h22q11 0 17 5t6 19l29 -89l-122 -206h-179l128 210l70 -52h-53q-111 0 -111 107v160z" />
    <glyph glyph-name="dvadeva" horiz-adv-x="498" 
d="M26 365q0 55 29 81t111 26h122v121h170v-234h-237q-11 0 -18 -5t-7 -19v-130q0 -14 6 -19t17 -5h46q11 0 17 5t6 19v86h170v-513h-170v106q-15 -16 -53 -16h-69q-82 0 -111 26t-29 81v50q0 28 12.5 40.5t34.5 15.5v5q-22 3 -34.5 15.5t-12.5 40.5v223zM219 68
q-11 0 -17 -5t-6 -19v-49q0 -14 6 -19t17 -5h46q11 0 17 5t6 19v77q-12 -4 -32 -4h-37zM-34 642h552v-113h-552v113z" />
    <glyph glyph-name="dyadeva" horiz-adv-x="628" 
d="M4 642h622v-113h-622v113zM396 547h170v-547h-170v547zM176 594h152v-203h-95q-11 0 -17 -3.5t-6 -14.5v-12q0 -13 6 -17t17 -4h69v-103h-69q-11 0 -17 -4t-6 -18v-13q0 -13 6 -17.5t17 -4.5h140q11 0 17 4.5t6 17.5l14 -61q0 -31 -12 -47t-55 -16h-173q-67 0 -98.5 23
t-31.5 73v61q0 26 12.5 37t34.5 14v5q-22 2 -34.5 13.5t-12.5 36.5v48q0 50 31.5 73t98.5 23h6v109z" />
    <glyph glyph-name="ddddadeva" horiz-adv-x="504" 
d="M-20 642h544v-113h-544v113zM278 593h170v-224h-210q-11 0 -17 -4.5t-6 -15.5v-18q0 -11 6 -15.5t17 -4.5h93q82 0 111 -26t29 -81v-55q0 -55 -29 -81t-111 -26h-99q-11 0 -17 -4.5t-6 -15.5v-23q0 -11 6 -15.5t17 -4.5h99q82 0 111 -26t29 -81v-55q0 -55 -29 -81
t-111 -26h-152q-82 0 -111 26t-29 81v27h170v-11q0 -11 5 -15.5t12 -4.5h52q11 0 17 5t6 15v23q0 11 -6 15.5t-17 4.5h-114q-52 0 -78.5 10.5t-36.5 30t-10 46.5v23q0 29 12.5 43t34.5 17v5q-22 3 -34.5 17.5t-12.5 48.5v59h170v-11q0 -11 5 -15.5t12 -4.5h52q11 0 17 4.5
t6 15.5v23q0 11 -6 15.5t-17 4.5h-93q-82 0 -111 26t-29 81v50q0 55 29 81t111 26h93v121z" />
    <glyph glyph-name="ddddhadeva" horiz-adv-x="504" 
d="M-20 642h544v-113h-544v113zM278 593h170v-224h-210q-11 0 -17 -4.5t-6 -15.5v-18q0 -11 6 -15.5t17 -4.5h93q82 0 111 -26t29 -81v-55q0 -55 -29 -81t-111 -26h-99q-11 0 -17 -4.5t-6 -15.5v-175q0 -14 7 -19t18 -5h48q11 0 18 5t7 19v12q0 14 -7 19t-18 5h-38v113h72
q90 0 125.5 -28.5t35.5 -98.5v-32q0 -70 -35.5 -98.5t-125.5 -28.5h-116q-90 0 -125.5 28.5t-35.5 98.5v149q0 29 12.5 43t34.5 17v5q-22 3 -34.5 17.5t-12.5 48.5v59h170v-11q0 -11 5 -15.5t12 -4.5h52q11 0 17 4.5t6 15.5v23q0 11 -6 15.5t-17 4.5h-93q-82 0 -111 26
t-29 81v50q0 55 29 81t111 26h93v121z" />
    <glyph glyph-name="ddrdeva" horiz-adv-x="470" 
d="M313 -171l130 -150h-166l-130 150h166zM-20 642h510v-113h-510v113zM237 593h170v-224h-180q-11 0 -17 -4.5t-6 -15.5v-23q0 -11 6 -15.5t17 -4.5h63q82 0 111 -26t29 -81v-92q0 -55 -29 -81t-111 -26h-122q-82 0 -111 26t-29 81v52h170v-36q0 -11 5 -15.5t12 -4.5h22
q11 0 17 4.5t6 15.5v60q0 11 -6 15.5t-17 4.5h-63q-82 0 -111 26t-29 81v55q0 55 29 81t111 26h63v121zM152 34h162l114 -181h-139l-56 104l-58 -104h-139z" />
    <glyph glyph-name="ddradeva" horiz-adv-x="470" 
d="M-20 642h510v-113h-510v113zM237 593h170v-224h-180q-11 0 -17 -4.5t-6 -15.5v-23q0 -11 6 -15.5t17 -4.5h63q82 0 111 -26t29 -81v-92q0 -55 -29 -81t-111 -26h-122q-82 0 -111 26t-29 81v52h170v-36q0 -11 5 -15.5t12 -4.5h22q11 0 17 4.5t6 15.5v60q0 11 -6 15.5
t-17 4.5h-63q-82 0 -111 26t-29 81v55q0 55 29 81t111 26h63v121zM152 34h162l114 -181h-139l-56 104l-58 -104h-139z" />
    <glyph glyph-name="ddvadeva" horiz-adv-x="500" 
d="M-20 642h540v-113h-540v113zM267 593h170v-224h-210q-11 0 -17 -4.5t-6 -15.5v-23q0 -11 6 -15.5t17 -4.5h93q82 0 111 -26t29 -81v-489h-170v106q-15 -16 -53 -16h-69q-82 0 -111 26t-29 81v43q0 28 12.5 40.5t34.5 15.5v5q-22 3 -34.5 15.5t-12.5 40.5v92h170v-36
q0 -11 5 -15.5t12 -4.5h52q11 0 17 4.5t6 15.5v60q0 11 -6 15.5t-17 4.5h-93q-82 0 -111 26t-29 81v55q0 55 29 81t111 26h93v121zM267 -97q11 0 17 5t6 19v77q-12 -4 -32 -4h-37q-11 0 -17 -5t-6 -19v-49q0 -14 6 -19t17 -5h46z" />
    <glyph glyph-name="ddyadeva" horiz-adv-x="1078" 
d="M868 592h167l3 -592h-170v592zM1098 642v-113h-1118v113h1118zM882 128q0 -27 -14 -43.5t-49 -16.5h-168q-82 0 -121.5 28.5t-39.5 98.5v120h125q11 0 17 4.5t6 15.5v14q0 11 -6 15.5t-17 4.5h-226v106h276q55 0 84 -14t40 -40t11 -63v-20q0 -36 -11 -62.5t-40 -40.5
t-84 -14h-5v-16q0 -14 6 -19t17 -5h151q20 0 27 7.5t7 26.5zM237 593h170v-224h-180q-11 0 -17 -4.5t-6 -15.5v-23q0 -11 6 -15.5t17 -4.5h63q82 0 111 -26t29 -81v-92q0 -55 -29 -81t-111 -26h-122q-82 0 -111 26t-29 81v52h170v-36q0 -11 5 -15.5t12 -4.5h22q11 0 17 4.5
t6 15.5v60q0 11 -6 15.5t-17 4.5h-63q-82 0 -111 26t-29 81v55q0 55 29 81t111 26h63v121z" />
    <glyph glyph-name="ddhddhadeva" horiz-adv-x="517" 
d="M-20 642h557v-113h-557v113zM40 365q0 55 29 81t111 26h98v121h170v-234h-213q-11 0 -18 -5t-7 -19v-156q0 -14 7 -19t18 -5h48q11 0 18 5t7 19v12q0 14 -7 19t-18 5h-38v113h72q90 0 125.5 -28.5t35.5 -98.5v-32q0 -70 -35.5 -98.5t-125.5 -28.5h-84q-11 0 -17 -4.5
t-6 -15.5v-175q0 -14 7 -19t18 -5h48q11 0 18 5t7 19v12q0 14 -7 19t-18 5h-38v113h72q90 0 125.5 -28.5t35.5 -98.5v-32q0 -70 -35.5 -98.5t-125.5 -28.5h-116q-90 0 -125.5 28.5t-35.5 98.5v149q0 29 12.5 43t34.5 17v5q-22 3 -34.5 17.5t-12.5 48.5v248z" />
    <glyph glyph-name="ddhrdeva" horiz-adv-x="517" 
d="M333 -171l130 -150h-166l-130 150h166zM-20 642h557v-113h-557v113zM278 593h170v-234h-213q-11 0 -18 -5t-7 -19v-198q0 -14 7 -19t18 -5h57q11 0 18 5t7 19v30q0 14 -7 19t-18 5h-44v113h78q90 0 125.5 -28.5t35.5 -98.5v-50q0 -70 -35.5 -98.5t-125.5 -28.5h-125
q-90 0 -125.5 28.5t-35.5 98.5v238q0 55 29 81t111 26h98v121zM188 34h162l114 -181h-139l-56 104l-58 -104h-139z" />
    <glyph glyph-name="ddhradeva" horiz-adv-x="517" 
d="M-20 642h557v-113h-557v113zM278 593h170v-234h-213q-11 0 -18 -5t-7 -19v-198q0 -14 7 -19t18 -5h57q11 0 18 5t7 19v30q0 14 -7 19t-18 5h-44v113h78q90 0 125.5 -28.5t35.5 -98.5v-50q0 -70 -35.5 -98.5t-125.5 -28.5h-125q-90 0 -125.5 28.5t-35.5 98.5v238
q0 55 29 81t111 26h98v121zM188 34h162l114 -181h-139l-56 104l-58 -104h-139z" />
    <glyph glyph-name="ddhvadeva" horiz-adv-x="518" 
d="M-20 642h558v-113h-558v113zM40 149v216q0 55 29 81t111 26h98v121h170v-234h-213q-11 0 -18 -5t-7 -19v-156q0 -14 7 -19t18 -5h48q11 0 18 5t7 19v12q0 14 -7 19t-18 5h-38v113h72q90 0 125.5 -28.5t35.5 -98.5v-32q0 -70 -35.5 -98.5t-125.5 -28.5h-137q-82 0 -111 26
t-29 81zM62 128l160 1v-176q0 -17 7.5 -23t20.5 -6h16q14 0 21 6t7 23v176l160 -1v-397h-170v106q-15 -16 -53 -16h-29q-82 0 -111 26t-29 81v200z" />
    <glyph glyph-name="ddhyadeva" horiz-adv-x="1135" 
d="M925 592h170v-592h-170v592zM1155 642v-113h-1175v113h1175zM939 118q0 -27 -14 -43.5t-49 -16.5h-168q-82 0 -121.5 28.5t-39.5 98.5v120h125q11 0 17 4.5t6 15.5v14q0 11 -6 15.5t-17 4.5h-320l29 106h341q55 0 84 -14t40 -40t11 -63v-20q0 -36 -11 -62.5t-40 -40.5
t-84 -14h-5v-16q0 -14 6 -19t17 -5h151q20 0 27 7.5t7 26.5zM278 593h170v-234h-213q-11 0 -18 -5t-7 -19v-198q0 -14 7 -19t18 -5h57q11 0 18 5t7 19v30q0 14 -7 19t-18 5h-44v113h78q90 0 125.5 -28.5t35.5 -98.5v-50q0 -70 -35.5 -98.5t-125.5 -28.5h-125
q-90 0 -125.5 28.5t-35.5 98.5v238q0 55 29 81t111 26h98v121z" />
    <glyph glyph-name="dhmadeva" horiz-adv-x="1126" 
d="M220 427q0 -14 6 -19t17 -5h69v-113h-69q-11 0 -17 -5t-6 -19v-51q0 -14 6 -19t17 -5h126q20 0 27 7.5t7 26.5l44 -87q0 -27 -14 -43.5t-49 -16.5h-204q-67 0 -98.5 25.5t-31.5 80.5v104q0 28 12.5 40.5t34.5 15.5v5q-22 3 -34.5 15.5t-12.5 40.5v136q0 56 31.5 81
t98.5 25h53q67 0 98.5 -25t31.5 -81v-63h-90v36q0 11 -6 15.5t-17 4.5h-7q-11 0 -17 -4.5t-6 -15.5v-87zM641 560h170v-355q0 -70 -35.5 -98.5t-125.5 -28.5h-86q-90 0 -125.5 28.5t-35.5 98.5v120q0 55 29 81t111 26h442v-113h-407q-11 0 -17 -4.5t-6 -15.5v-84
q0 -14 7 -19t18 -5h36q11 0 18 5t7 19v345zM916 552h170v-552h-170v552zM403 642h743v-113h-743v113z" />
    <glyph glyph-name="dhnyadeva" horiz-adv-x="1469" 
d="M403 642h1086v-113h-1086v113zM811 205q0 -70 -35.5 -98.5t-125.5 -28.5h-86q-90 0 -125.5 28.5t-35.5 98.5v133q0 55 29 81t111 26h348v-113h-295q-11 0 -17 -4.5t-6 -15.5v-97q0 -14 7 -19t18 -5h18q11 0 18 5t7 19v144h170v-154zM1259 592h170v-592h-170v592z
M1191 449q0 -36 -11 -62.5t-40 -40.5t-84 -14h-5v-117q0 -14 6 -19t17 -5h151q20 0 27 7.5t7 26.5l14 -87q0 -27 -14 -43.5t-49 -16.5h-168q-82 0 -121.5 28.5t-39.5 98.5v240h125q11 0 17 4.5t6 15.5v30q0 20 -7 27t-27 7l79 28q55 0 86 -14t31 -58v-36zM220 427
q0 -14 6 -19t17 -5h69v-113h-69q-11 0 -17 -5t-6 -19v-51q0 -14 6 -19t17 -5h126q20 0 27 7.5t7 26.5l44 -87q0 -27 -14 -43.5t-49 -16.5h-204q-67 0 -98.5 25.5t-31.5 80.5v104q0 28 12.5 40.5t34.5 15.5v5q-22 3 -34.5 15.5t-12.5 40.5v136q0 56 31.5 81t98.5 25h53
q67 0 98.5 -25t31.5 -81v-63h-90v36q0 11 -6 15.5t-17 4.5h-7q-11 0 -17 -4.5t-6 -15.5v-87z" />
    <glyph glyph-name="dhnadeva" horiz-adv-x="1081" 
d="M220 427q0 -14 6 -19t17 -5h69v-113h-69q-11 0 -17 -5t-6 -19v-51q0 -14 6 -19t17 -5h126q20 0 27 7.5t7 26.5l44 -87q0 -27 -14 -43.5t-49 -16.5h-204q-67 0 -98.5 25.5t-31.5 80.5v104q0 28 12.5 40.5t34.5 15.5v5q-22 3 -34.5 15.5t-12.5 40.5v136q0 56 31.5 81
t98.5 25h53q67 0 98.5 -25t31.5 -81v-63h-90v36q0 11 -6 15.5t-17 4.5h-7q-11 0 -17 -4.5t-6 -15.5v-87zM871 552h170v-552h-170v552zM811 205q0 -70 -35.5 -98.5t-125.5 -28.5h-86q-90 0 -125.5 28.5t-35.5 98.5v160q0 55 29 81t111 26h424v-113h-371q-11 0 -17 -4.5
t-6 -15.5v-124q0 -14 7 -19t18 -5h18q11 0 18 5t7 19v171h170v-181zM402 642h699v-113h-698z" />
    <glyph glyph-name="dhrdeva" horiz-adv-x="402" 
d="M50 294q0 28 12.5 40.5t34.5 15.5v5q-22 3 -34.5 15.5t-12.5 40.5v130q0 56 31.5 81t98.5 25h53q67 0 98.5 -25t31.5 -81v-63h-90v36q0 11 -6 15.5t-17 4.5h-7q-11 0 -17 -4.5t-6 -15.5v-81q0 -14 6 -19t17 -5h69v-113h-69q-11 0 -17 -5t-6 -19v-37q0 -14 6 -19t17 -5
h189v-65l-122 -206h-179l128 210v-52h-98q-111 0 -111 107v89z" />
    <glyph glyph-name="dhradeva" horiz-adv-x="606" 
d="M402 642h231v-113h-230zM403 592h170v-592h-170v592zM50 294q0 28 12.5 40.5t34.5 15.5v5q-22 3 -34.5 15.5t-12.5 40.5v130q0 56 31.5 81t98.5 25h53q67 0 98.5 -25t31.5 -81v-63h-90v36q0 11 -6 15.5t-17 4.5h-7q-11 0 -17 -4.5t-6 -15.5v-81q0 -14 6 -19t17 -5h69
v-113h-69q-11 0 -17 -5t-6 -19v-37q0 -14 6 -19t17 -5h137q11 0 17 5t6 19l29 -89l-122 -206h-179l128 210l63 -52h-161q-111 0 -111 107v89z" />
    <glyph glyph-name="dhvadeva" horiz-adv-x="855" 
d="M220 427q0 -14 6 -19t17 -5h69v-113h-69q-11 0 -17 -5t-6 -19v-51q0 -14 6 -19t17 -5h126q20 0 27 7.5t7 26.5l44 -87q0 -27 -14 -43.5t-49 -16.5h-204q-67 0 -98.5 25.5t-31.5 80.5v104q0 28 12.5 40.5t34.5 15.5v5q-22 3 -34.5 15.5t-12.5 40.5v136q0 56 31.5 81
t98.5 25h53q67 0 98.5 -25t31.5 -81v-63h-90v36q0 11 -6 15.5t-17 4.5h-7q-11 0 -17 -4.5t-6 -15.5v-87zM403 642h472v-113h-472v113zM648 591h170v-591h-170v591zM607 472v-113h-11q-11 0 -17 -4.5t-6 -15.5v-124q0 -14 6 -19t17 -5h29q11 0 17 5t6 19l14 -67
q0 -34 -12 -52t-55 -18h-61q-64 0 -97.5 28.5t-33.5 98.5v160q0 55 29 81t111 26h64z" />
    <glyph glyph-name="dhyadeva" horiz-adv-x="991" 
d="M220 427q0 -14 6 -19t17 -5h69v-113h-69q-11 0 -17 -5t-6 -19v-51q0 -14 6 -19t17 -5h126q20 0 27 7.5t7 26.5l44 -87q0 -27 -14 -43.5t-49 -16.5h-204q-67 0 -98.5 25.5t-31.5 80.5v104q0 28 12.5 40.5t34.5 15.5v5q-22 3 -34.5 15.5t-12.5 40.5v136q0 56 31.5 81
t98.5 25h53q67 0 98.5 -25t31.5 -81v-63h-90v36q0 11 -6 15.5t-17 4.5h-7q-11 0 -17 -4.5t-6 -15.5v-87zM403 642h608v-113h-608v113zM781 592h170v-592h-170v592zM713 396q0 -36 -11 -62.5t-40 -40.5t-84 -14h-5v-64q0 -14 6 -19t17 -5h151q20 0 27 7.5t7 26.5l14 -87
q0 -27 -14 -43.5t-49 -16.5h-168q-82 0 -121.5 28.5t-39.5 98.5v187h125q11 0 17 4.5t6 15.5v83q0 20 -7 27t-27 7l79 28q55 0 86 -14t31 -58v-89z" />
    <glyph glyph-name="eMatraanusvaradeva" horiz-adv-x="0" 
d="M-187 843l143 -204h-164q-35 28 -64.5 59.5t-59.5 69.5l-58 75h203zM-88 846h122v-129h-122v129z" />
    <glyph glyph-name="eMatrarephanusvaradeva" horiz-adv-x="0" 
d="M-18 774h101v-106h-101v106zM-439 843h212l32 -47q15 -22 27 -45t19 -46h4q-4 38 -6.5 65t-2.5 51q0 45 29.5 71.5t90.5 26.5h66v-113h-40q-22 0 -29 -6.5t-7 -29.5v-131h-169q-55 37 -103 75t-85 83z" />
    <glyph glyph-name="eMatrarephdeva" horiz-adv-x="0" 
d="M-439 843h212l32 -47q15 -22 27 -45t19 -46h4q-4 38 -6.5 65t-2.5 51q0 45 29.5 71.5t90.5 26.5h66v-113h-40q-22 0 -29 -6.5t-7 -29.5v-131h-169q-55 37 -103 75t-85 83z" />
    <glyph glyph-name="eyelashdeva" horiz-adv-x="351" 
d="M371 392v-113h-119q-54 0 -83.5 14t-40.5 40.5t-11 62.5v56h162v-40q0 -11 6 -15.5t17 -4.5h69zM-20 642h391v-113h-391v113z" />
    <glyph glyph-name="eyelashhadeva" horiz-adv-x="703" 
d="M-20 642h743v-113h-743v113zM25 452h162v-57q0 -11 6 -15.5t17 -4.5h90l-44 -59v26q0 45 9.5 74t39.5 42.5t90 13.5h98v121h170v-234h-215q-11 0 -17 -4.5t-6 -13.5v-7q0 -9 6 -13.5t17 -4.5h54q90 0 125.5 -28.5t35.5 -98.5v-29h-170v19q0 14 -7 19t-18 5h-20
q-11 0 -17 -5t-6 -19v-42q0 -14 6 -19t17 -5h215v-113h-247q-82 0 -121.5 28.5t-39.5 98.5v74q0 28 12.5 40.5t34.5 15.5v5h-142q-54 0 -83.5 14t-40.5 40.5t-11 62.5v73z" />
    <glyph glyph-name="eyelashyadeva" horiz-adv-x="738" 
d="M-20 642h778v-113h-778v113zM528 592h170v-592h-170v592zM172 452v-40q0 -11 6 -15.5t17 -4.5h80q11 0 17 4.5t6 15.5v83q0 20 -7 27t-27 7l79 28q55 0 86 -14t31 -58v-89q0 -36 -11 -62.5t-40 -40.5t-84 -14h-5v-64q0 -14 6 -19t17 -5h151q20 0 27 7.5t7 26.5l14 -87
q0 -27 -14 -43.5t-49 -16.5h-168q-82 0 -121.5 28.5t-39.5 98.5v74h-5q-54 0 -83.5 14t-40.5 40.5t-11 62.5v56h162z" />
    <glyph glyph-name="ffadeva" horiz-adv-x="1210" 
d="M285 591h170v-591h-170v591zM40 591h170v-376q0 -14 6 -19t17 -5h29q11 0 17 5t6 19l14 -67q0 -34 -12 -52t-55 -18h-61q-64 0 -97.5 28.5t-33.5 98.5v386zM591 442v-113h-113q-11 0 -17 -5t-6 -19l-14 67q0 35 12 52.5t55 17.5h83zM775 591h170v-591h-170v591zM1059 472
q65 0 98 -28.5t33 -98.5v-160q0 -55 -29 -81t-111 -26h-64v103h11q11 0 17 4.5t6 15.5v134q0 14 -6 19t-17 5h-29q-11 0 -17 -5t-6 -19l-14 67q0 35 12 52.5t55 17.5h61zM-20 642h1250v-113h-1250v113zM530 591h170v-376q0 -14 6 -19t17 -5h29q11 0 17 5t6 19l14 -67
q0 -34 -12 -52t-55 -18h-61q-64 0 -97.5 28.5t-33.5 98.5v386zM102 0h122v-129h-122v129zM599 0h122v-129h-122v129z" />
    <glyph glyph-name="fradeva" horiz-adv-x="720" 
d="M285 591h170v-591h-170v591zM569 472q65 0 98 -28.5t33 -98.5v-160q0 -55 -29 -81t-111 -26h-64v103h11q11 0 17 4.5t6 15.5v134q0 14 -6 19t-17 5h-29q-11 0 -17 -5t-6 -19l-14 67q0 35 12 52.5t55 17.5h61zM-20 642h760v-113h-760v113zM40 591h170v-356q0 -14 6 -19
t17 -5h29q11 0 17 5t6 19l29 -89l-122 -206h-179l128 210l63 -52h-53q-111 0 -111 107v386zM246 -50h122v-129h-122v129z" />
    <glyph glyph-name="fsadeva" horiz-adv-x="1202" 
d="M285 591h170v-591h-170v591zM40 591h170v-376q0 -14 6 -19t17 -5h29q11 0 17 5t6 19l14 -67q0 -34 -12 -52t-55 -18h-61q-64 0 -97.5 28.5t-33.5 98.5v386zM-20 642h1242v-113h-345l24 17q13 -5 20 -15t7 -27v-116q0 -34 -30 -43.5t-80 -9.5v28h251v-113h-377v113h32
q19 0 26.5 7.5t7.5 26.5v98q0 20 -7 27t-27 7h-744v113zM992 552h170v-552h-170v552zM705 457v-334q0 -11 6 -15.5t17 -4.5h13q7 0 12 4.5t5 15.5v81h170v-97q0 -55 -29 -81t-111 -26h-113q-82 0 -111 26t-29 81v237h-57q-11 0 -17 -5t-6 -19l-14 67q0 35 12 52.5t55 17.5
h197zM104 -3h122v-129h-122v129z" />
    <glyph glyph-name="ftadeva" horiz-adv-x="976" 
d="M285 591h170v-591h-170v591zM40 591h170v-376q0 -14 6 -19t17 -5h29q11 0 17 5t6 19l14 -67q0 -34 -12 -52t-55 -18h-61q-64 0 -97.5 28.5t-33.5 98.5v386zM707 472l-116 -113h-113q-11 0 -17 -5t-6 -19l-14 67q0 35 12 52.5t55 17.5h199zM936 552v-552h-170v552h170z
M-20 642h1016v-113h-1016v113zM779 472v-113h-63q-11 0 -17 -4.5t-6 -15.5v-206q0 -11 6 -15.5t17 -4.5h11v-113h-64q-82 0 -111 26t-29 81v258q0 55 29 81t111 26h116zM104 -3h122v-129h-122v129z" />
    <glyph glyph-name="fzadeva" horiz-adv-x="1211" 
d="M104 -3h122v-129h-122v129zM669 -3h122v-129h-122v129zM455 591v-591h-170v591h170zM210 591v-376q0 -14 6 -19t17 -5h29q11 0 17 5t6 19l14 -67q0 -34 -12 -52t-55 -18h-61q-64 0 -97.5 28.5t-33.5 98.5v386h170zM591 319h-113q-11 0 -17 -5t-6 -19l-14 67q0 35 12 52.5
t55 17.5h83v-113zM591 642v-113h-611v113h611zM1001 572h170v-572h-170v572zM463 642h768v-113h-768v113zM523 472h170v-257q0 -14 7 -19t18 -5h18q11 0 18 5t7 19v257h267v-113h-97v-154q0 -70 -35.5 -98.5t-125.5 -28.5h-86q-90 0 -125.5 28.5t-35.5 98.5v267z" />
    <glyph glyph-name="gbadeva" horiz-adv-x="1058" 
d="M496 642v-113h-516v113h516zM436 554v-349q0 -70 -35.5 -98.5t-125.5 -28.5h-86q-90 0 -125.5 28.5t-35.5 98.5v152q0 62 43 88.5t137 26.5h119v-113h-98q-19 0 -25 -5.5t-6 -25.5v-113q0 -14 7 -19t18 -5h18q11 0 18 5t7 19v339h170zM461 642h617v-113h-617v113z
M806 472v-103h-72l41 -51q17 -21 35.5 -43.5t31 -37.5l12.5 -15l-1.5 7t-3 29.5t-1.5 66.5v267h170v-592h-170v103l6 16l-111 135q-7 9 -25 31.5t-37 46.5v-117q0 -14 6 -19t17 -5h138q11 0 17 5t6 19l14 -67q0 -34 -12 -52t-55 -18h-170q-64 0 -97.5 28.5t-33.5 98.5v160
q0 55 29 81t111 26h155z" />
    <glyph glyph-name="gbhyadeva" horiz-adv-x="1585" 
d="M-20 642h506v-113h-506v113zM266 554h170v-349q0 -70 -35.5 -98.5t-125.5 -28.5h-86q-90 0 -125.5 28.5t-35.5 98.5v152q0 62 43 88.5t137 26.5h119v-113h-98q-19 0 -25 -5.5t-6 -25.5v-113q0 -14 7 -19t18 -5h18q11 0 18 5t7 19v339zM779 647q82 0 111 -31t29 -86v-325
q0 -70 -35.5 -98.5t-125.5 -28.5h-86q-90 0 -125.5 28.5t-35.5 98.5v116q0 55 29 81t111 26h432v-113h-379q-11 0 -17 -4.5t-6 -15.5v-80q0 -14 7 -19t18 -5h18q11 0 18 5t7 19v299q0 11 -6 15.5t-17 4.5h-13q-11 0 -17 -4.5t-6 -15.5v-26h-170v42q0 55 29 86t111 31h119z
M987 642h608v-113h-608v113zM1365 592h170v-592h-170v592zM1297 432q0 -36 -11 -62.5t-40 -40.5t-84 -14h-5v-100q0 -14 6 -19t17 -5h151q20 0 27 7.5t7 26.5l14 -87q0 -27 -14 -43.5t-49 -16.5h-168q-82 0 -121.5 28.5t-39.5 98.5v223h125q11 0 17 4.5t6 15.5v47
q0 20 -7 27t-27 7l79 28q55 0 86 -14t31 -58v-53z" />
    <glyph glyph-name="gbhadeva" horiz-adv-x="1207" 
d="M-20 642h506v-113h-506v113zM266 554h170v-349q0 -70 -35.5 -98.5t-125.5 -28.5h-86q-90 0 -125.5 28.5t-35.5 98.5v152q0 62 43 88.5t137 26.5h119v-113h-98q-19 0 -25 -5.5t-6 -25.5v-113q0 -14 7 -19t18 -5h18q11 0 18 5t7 19v339zM997 552h170v-552h-170v552z
M997 642h230v-113h-230v113zM779 647q82 0 111 -31t29 -86v-325q0 -70 -35.5 -98.5t-125.5 -28.5h-86q-90 0 -125.5 28.5t-35.5 98.5v128q0 55 29 81t111 26h442v-113h-389q-11 0 -17 -4.5t-6 -15.5v-92q0 -14 7 -19t18 -5h18q11 0 18 5t7 19v299q0 11 -6 15.5t-17 4.5h-13
q-11 0 -17 -4.5t-6 -15.5v-26h-170v42q0 55 29 86t111 31h119z" />
    <glyph glyph-name="gdadeva" horiz-adv-x="952" 
d="M496 642v-113h-516v113h516zM436 554v-349q0 -70 -35.5 -98.5t-125.5 -28.5h-86q-90 0 -125.5 28.5t-35.5 98.5v152q0 62 43 88.5t137 26.5h119v-113h-98q-19 0 -25 -5.5t-6 -25.5v-113q0 -14 7 -19t18 -5h18q11 0 18 5t7 19v339h170zM444 642h528v-113h-528v113z
M742 593h170v-234h-213q-11 0 -18 -5t-7 -19v-120q0 -14 6 -19t17 -5h22q11 0 17 5t6 19l14 -67q0 -34 -12 -52t-55 -18h-24q-90 0 -125.5 28.5t-35.5 98.5v160q0 55 29 81t111 26h98v121zM742 291h170v-291h-170v291z" />
    <glyph glyph-name="gdhvadeva" horiz-adv-x="1324" 
d="M-20 642h510v-113h-510v113zM266 554h170v-349q0 -70 -35.5 -98.5t-125.5 -28.5h-86q-90 0 -125.5 28.5t-35.5 98.5v152q0 62 43 88.5t137 26.5h119v-113h-98q-19 0 -25 -5.5t-6 -25.5v-113q0 -14 7 -19t18 -5h18q11 0 18 5t7 19v339zM686 427q0 -14 6 -19t17 -5h69v-113
h-69q-11 0 -17 -5t-6 -19v-51q0 -14 6 -19t17 -5h126q20 0 27 7.5t7 26.5l55 -87q0 -27 -20 -43.5t-60 -16.5h-198q-67 0 -98.5 25.5t-31.5 80.5v104q0 28 12.5 40.5t34.5 15.5v5q-22 3 -34.5 15.5t-12.5 40.5v136q0 56 31.5 81t98.5 25h53q67 0 98.5 -25t31.5 -81v-63h-90
v36q0 11 -6 15.5t-17 4.5h-7q-11 0 -17 -4.5t-6 -15.5v-87zM869 642h475v-113h-475v113zM1114 591h170v-591h-170v591zM1073 472v-103h-11q-11 0 -17 -4.5t-6 -15.5v-134q0 -14 6 -19t17 -5h29q11 0 17 5t6 19l14 -67q0 -34 -12 -52t-55 -18h-61q-64 0 -97.5 28.5
t-33.5 98.5v160q0 55 29 81t111 26h64z" />
    <glyph glyph-name="gdhyadeva" horiz-adv-x="1457" 
d="M-20 642h510v-113h-510v113zM266 554h170v-349q0 -70 -35.5 -98.5t-125.5 -28.5h-86q-90 0 -125.5 28.5t-35.5 98.5v152q0 62 43 88.5t137 26.5h119v-113h-98q-19 0 -25 -5.5t-6 -25.5v-113q0 -14 7 -19t18 -5h18q11 0 18 5t7 19v339zM686 427q0 -14 6 -19t17 -5h69v-113
h-69q-11 0 -17 -5t-6 -19v-51q0 -14 6 -19t17 -5h126q20 0 27 7.5t7 26.5l55 -87q0 -27 -20 -43.5t-60 -16.5h-198q-67 0 -98.5 25.5t-31.5 80.5v104q0 28 12.5 40.5t34.5 15.5v5q-22 3 -34.5 15.5t-12.5 40.5v136q0 56 31.5 81t98.5 25h53q67 0 98.5 -25t31.5 -81v-63h-90
v36q0 11 -6 15.5t-17 4.5h-7q-11 0 -17 -4.5t-6 -15.5v-87zM869 642h608v-113h-608v113zM1247 592h170v-592h-170v592zM1179 396q0 -36 -11 -62.5t-40 -40.5t-84 -14h-5v-64q0 -14 6 -19t17 -5h151q20 0 27 7.5t7 26.5l14 -87q0 -27 -14 -43.5t-49 -16.5h-168
q-82 0 -121.5 28.5t-39.5 98.5v187h125q11 0 17 4.5t6 15.5v83q0 20 -7 27t-27 7l79 28q55 0 86 -14t31 -58v-89z" />
    <glyph glyph-name="gdhadeva" horiz-adv-x="1072" 
d="M-20 642h510v-113h-510v113zM266 554h170v-349q0 -70 -35.5 -98.5t-125.5 -28.5h-86q-90 0 -125.5 28.5t-35.5 98.5v152q0 62 43 88.5t137 26.5h119v-113h-98q-19 0 -25 -5.5t-6 -25.5v-113q0 -14 7 -19t18 -5h18q11 0 18 5t7 19v339zM868 642h231v-113h-230zM869 592
h170v-592h-170v592zM686 427q0 -14 6 -19t17 -5h69v-113h-69q-11 0 -17 -5t-6 -19v-51q0 -14 6 -19t17 -5h126q20 0 27 7.5t7 26.5l14 -87q0 -27 -14 -43.5t-49 -16.5h-174q-67 0 -98.5 25.5t-31.5 80.5v104q0 28 12.5 40.5t34.5 15.5v5q-22 3 -34.5 15.5t-12.5 40.5v136
q0 56 31.5 81t98.5 25h53q67 0 98.5 -25t31.5 -81v-63h-90v36q0 11 -6 15.5t-17 4.5h-7q-11 0 -17 -4.5t-6 -15.5v-87z" />
    <glyph glyph-name="ggadeva" horiz-adv-x="1192" 
d="M496 642v-113h-516v113h516zM436 554v-349q0 -70 -35.5 -98.5t-125.5 -28.5h-86q-90 0 -125.5 28.5t-35.5 98.5v152q0 62 43 88.5t137 26.5h119v-113h-98q-19 0 -25 -5.5t-6 -25.5v-113q0 -14 7 -19t18 -5h18q11 0 18 5t7 19v339h170zM982 572h170v-572h-170v572z
M446 642h766v-113h-766v113zM732 554h170v-349q0 -70 -35.5 -98.5t-125.5 -28.5h-86q-90 0 -125.5 28.5t-35.5 98.5v152q0 62 43 88.5t137 26.5h119v-113h-98q-19 0 -25 -5.5t-6 -25.5v-113q0 -14 7 -19t18 -5h18q11 0 18 5t7 19v339z" />
    <glyph glyph-name="gghadeva" horiz-adv-x="994" 
d="M496 642v-113h-516v113h516zM436 554v-349q0 -70 -35.5 -98.5t-125.5 -28.5h-86q-90 0 -125.5 28.5t-35.5 98.5v152q0 62 43 88.5t137 26.5h119v-113h-98q-19 0 -25 -5.5t-6 -25.5v-113q0 -14 7 -19t18 -5h18q11 0 18 5t7 19v339h170zM514 504q0 35 30.5 44t79.5 9
l94 -28q-13 0 -20.5 -3t-10.5 -10.5t-3 -20.5v-55q0 -14 6 -19t17 -5h33v-113h-33q-11 0 -17 -5t-6 -19v-64q0 -14 6 -19t17 -5h55q20 0 27 7.5t7 26.5l14 -87q0 -27 -14 -43.5t-49 -16.5h-72q-82 0 -121.5 28.5t-39.5 98.5v96q0 28 12.5 40.5t34.5 15.5v5q-22 3 -34.5 15.5
t-12.5 40.5v86zM454 642h572v-113h-572v113zM796 592h170v-592h-170v592z" />
    <glyph glyph-name="gjadeva" horiz-adv-x="1192" 
d="M496 642v-113h-516v113h516zM436 554v-349q0 -70 -35.5 -98.5t-125.5 -28.5h-86q-90 0 -125.5 28.5t-35.5 98.5v152q0 62 43 88.5t137 26.5h119v-113h-98q-19 0 -25 -5.5t-6 -25.5v-113q0 -14 7 -19t18 -5h18q11 0 18 5t7 19v339h170zM990 572h170v-572h-170v572z
M452 642h768v-113h-768v113zM512 472h170v-257q0 -14 7 -19t18 -5h18q11 0 18 5t7 19v257h267v-113h-97v-154q0 -70 -35.5 -98.5t-125.5 -28.5h-86q-90 0 -125.5 28.5t-35.5 98.5v267z" />
    <glyph glyph-name="gladeva" horiz-adv-x="1206" 
d="M496 642v-113h-516v113h516zM436 554v-349q0 -70 -35.5 -98.5t-125.5 -28.5h-86q-90 0 -125.5 28.5t-35.5 98.5v152q0 62 43 88.5t137 26.5h119v-113h-98q-19 0 -25 -5.5t-6 -25.5v-113q0 -14 7 -19t18 -5h18q11 0 18 5t7 19v339h170zM438 642h788v-113h-788v113z
M783 472q28 0 40.5 -12t15.5 -35h5q3 23 15.5 35t40.5 12h109v-113h-60q-14 0 -18.5 -6.5t-4.5 -17.5v-167h-170v167q0 11 -4.5 17.5t-18.5 6.5h-29q-11 0 -17 -5t-6 -19v-202q0 -11 6 -15.5t17 -4.5h50v-113h-103q-82 0 -111 26t-29 81v238q0 70 33.5 98.5t97.5 28.5h141z
M1166 0h-170v548h170v-548z" />
    <glyph glyph-name="gmadeva" horiz-adv-x="1207" 
d="M496 642v-113h-516v113h516zM436 554v-349q0 -70 -35.5 -98.5t-125.5 -28.5h-86q-90 0 -125.5 28.5t-35.5 98.5v152q0 62 43 88.5t137 26.5h119v-113h-98q-19 0 -25 -5.5t-6 -25.5v-113q0 -14 7 -19t18 -5h18q11 0 18 5t7 19v339h170zM749 560h170v-355
q0 -70 -35.5 -98.5t-125.5 -28.5h-86q-90 0 -125.5 28.5t-35.5 98.5v120q0 55 29 81t111 26h442v-113h-407q-11 0 -17 -4.5t-6 -15.5v-84q0 -14 7 -19t18 -5h36q11 0 18 5t7 19v345zM997 552h170v-552h-170v552zM461 642h766v-113h-766v113z" />
    <glyph glyph-name="gnyadeva" horiz-adv-x="1572" 
d="M496 642v-113h-516v113h516zM436 554v-349q0 -70 -35.5 -98.5t-125.5 -28.5h-86q-90 0 -125.5 28.5t-35.5 98.5v152q0 62 43 88.5t137 26.5h119v-113h-98q-19 0 -25 -5.5t-6 -25.5v-113q0 -14 7 -19t18 -5h18q11 0 18 5t7 19v339h170zM456 642h1136v-113h-1136v113z
M914 205q0 -70 -35.5 -98.5t-125.5 -28.5h-86q-90 0 -125.5 28.5t-35.5 98.5v133q0 55 29 81t111 26h348v-113h-295q-11 0 -17 -4.5t-6 -15.5v-97q0 -14 7 -19t18 -5h18q11 0 18 5t7 19v144h170v-154zM1362 592h170v-592h-170v592zM1294 449q0 -36 -11 -62.5t-40 -40.5
t-84 -14h-5v-117q0 -14 6 -19t17 -5h151q20 0 27 7.5t7 26.5l14 -87q0 -27 -14 -43.5t-49 -16.5h-168q-82 0 -121.5 28.5t-39.5 98.5v240h125q11 0 17 4.5t6 15.5v30q0 20 -7 27t-27 7l79 28q55 0 86 -14t31 -58v-36z" />
    </font>
</defs>
</svg>
