<?xml version="1.0" standalone="no"?>
<!DOCTYPE svg PUBLIC "-//W3C//DTD SVG 1.1//EN" "http://www.w3.org/Graphics/SVG/1.1/DTD/svg11.dtd" >
<svg xmlns="http://www.w3.org/2000/svg" xmlns:xlink="http://www.w3.org/1999/xlink" version="1.1">
<metadata>
Created by FontForge 20201107 at Mon Mar 12 15:22:43 2012
 By 
Copyright (c) Olivier Gourvat - Mostardesign Studio, 2012. All rights reserved.
</metadata>
<defs>
<font id="SofiaProBold-Italic" horiz-adv-x="568" >
  <font-face 
    font-family="Sofia Pro Bold"
    font-weight="400"
    font-style="italic"
    font-stretch="normal"
    units-per-em="1000"
    panose-1="2 11 0 0 0 0 0 0 0 0"
    ascent="750"
    descent="-250"
    x-height="467"
    cap-height="689"
    bbox="-181 -287 1201.95 1113"
    underline-thickness="50"
    underline-position="-250"
    slope="-12"
    unicode-range="U+0020-FB04"
  />
<missing-glyph horiz-adv-x="635" 
d="M80 0l117 665h475l-117 -665h-475zM260 431h62q7 37 32.5 60t57.5 23t52 -20.5t14 -52.5q-5 -29 -32 -50q-21 -17 -37 -21q-47 -13 -75.5 -38t-36.5 -72l-7 -38h62l6 38q3 22 17.5 32.5t41.5 17.5q45 13 79 48t43 83q11 60 -24 97.5t-93 37.5q-57 0 -103.5 -40
t-58.5 -105zM259 131q-4 -18 7.5 -30.5t30.5 -12.5q18 0 33.5 12.5t19.5 30.5t-7.5 30.5t-30.5 12.5t-34 -12t-19 -31z" />
    <glyph glyph-name="f_f" unicode="ff" horiz-adv-x="761" 
d="M895 721l-25 -133h-51q-70 0 -86 -89l-6 -32h94l-20 -110h-94l-62 -357h-140l62 357h-254l-62 -357h-140l62 357h-88l20 110h88l6 32q20 107 85 164.5t166 57.5h51l-25 -133h-51q-70 0 -86 -89l-6 -32h254l6 32q20 107 85 164.5t166 57.5h51z" />
    <glyph glyph-name="fi" unicode="fi" horiz-adv-x="695" 
d="M713 467l-82 -467h-138l62 357h-242l-62 -357h-140l62 357h-88l20 110h88l6 32q20 107 85 164.5t166 57.5h51l-25 -133h-51q-70 0 -86 -89l-6 -32h380zM588 640q6 34 36 57.5t66 23.5q35 0 55.5 -23.5t14.5 -57.5t-35.5 -58t-64.5 -24t-56.5 24t-15.5 58z" />
    <glyph glyph-name="fl" unicode="fl" horiz-adv-x="678" 
d="M450 721h292l-128 -721h-139l103 588h-153q-70 0 -86 -89l-6 -32h94l-20 -110h-94l-62 -357h-140l62 357h-88l20 110h88l6 32q20 107 85 164.5t166 57.5z" />
    <glyph glyph-name="f_f_i" unicode="ffi" horiz-adv-x="1089" 
d="M1107 467l-82 -467h-138l62 357h-242l-62 -357h-140l62 357h-254l-62 -357h-140l62 357h-88l20 110h88l6 32q20 107 85 164.5t166 57.5h51l-25 -133h-51q-70 0 -86 -89l-6 -32h254l6 32q20 107 85 164.5t166 57.5h51l-25 -133h-51q-70 0 -86 -89l-6 -32h380zM982 640
q6 34 36 57.5t66 23.5q35 0 55.5 -23.5t14.5 -57.5t-35.5 -58t-64.5 -24t-56.5 24t-15.5 58z" />
    <glyph glyph-name="f_f_l" unicode="ffl" horiz-adv-x="1072" 
d="M1136 721l-128 -721h-139l103 588h-153q-70 0 -86 -89l-6 -32h94l-20 -110h-94l-62 -357h-140l62 357h-254l-62 -357h-140l62 357h-88l20 110h88l6 32q20 107 85 164.5t166 57.5h51l-25 -133h-51q-70 0 -86 -89l-6 -32h254l6 32q20 107 85 164.5t166 57.5h292z" />
    <glyph glyph-name="f_f_j" unicode="ffj" horiz-adv-x="1065" 
d="M697 -235l21 126h61q35 0 52.5 22t22.5 52l69 392h-216l-62 -357h-140l62 357h-254l-62 -357h-140l62 357h-88l20 110h88l6 32q20 107 85 164.5t166 57.5h51l-25 -133h-51q-70 0 -86 -89l-6 -32h254l6 32q20 107 85 164.5t166 57.5h51l-25 -133h-51q-70 0 -86 -89l-6 -32
h357l-89 -499q-17 -98 -67.5 -150.5t-145.5 -52.5h-85zM957 640q6 34 36 57.5t66 23.5t56.5 -23.5t14.5 -57.5t-35.5 -58t-65.5 -24q-35 0 -56.5 24t-15.5 58z" />
    <glyph glyph-name="f_j" unicode="fj" horiz-adv-x="671" 
d="M303 -235l21 126h61q35 0 52.5 22t22.5 52l69 392h-216l-62 -357h-140l62 357h-88l20 110h88l6 32q20 107 85 164.5t166 57.5h51l-25 -133h-51q-70 0 -86 -89l-6 -32h357l-89 -499q-17 -98 -67.5 -150.5t-145.5 -52.5h-85zM563 640q6 34 36 57.5t66 23.5t56.5 -23.5
t14.5 -57.5t-35.5 -58t-65.5 -24q-35 0 -56.5 24t-15.5 58z" />
    <glyph glyph-name=".notdef" horiz-adv-x="635" 
d="M80 0l117 665h475l-117 -665h-475zM260 431h62q7 37 32.5 60t57.5 23t52 -20.5t14 -52.5q-5 -29 -32 -50q-21 -17 -37 -21q-47 -13 -75.5 -38t-36.5 -72l-7 -38h62l6 38q3 22 17.5 32.5t41.5 17.5q45 13 79 48t43 83q11 60 -24 97.5t-93 37.5q-57 0 -103.5 -40
t-58.5 -105zM259 131q-4 -18 7.5 -30.5t30.5 -12.5q18 0 33.5 12.5t19.5 30.5t-7.5 30.5t-30.5 12.5t-34 -12t-19 -31z" />
    <glyph glyph-name=".null" horiz-adv-x="0" 
 />
    <glyph glyph-name="nonmarkingreturn" horiz-adv-x="333" 
 />
    <glyph glyph-name="space" unicode=" " horiz-adv-x="244" 
 />
    <glyph glyph-name="exclam" unicode="!" horiz-adv-x="283" 
d="M186 689h154l-104 -481h-114zM67 74q6 35 36 59t66 24t56.5 -23.5t14.5 -59.5t-35.5 -60t-65.5 -24t-57 24t-15 60z" />
    <glyph glyph-name="quotedbl" unicode="&#x22;" horiz-adv-x="365" 
d="M143 392l41 297h98l-63 -297h-76zM284 392l41 297h98l-63 -297h-76z" />
    <glyph glyph-name="numbersign" unicode="#" horiz-adv-x="723" 
d="M665 515h115l-44 -92h-115l-81 -168h115l-43 -92h-114l-81 -163h-109l79 163h-102l-80 -163h-108l80 163h-114l42 92h113l80 168h-112l44 92h113l82 174h111l-82 -174h101l83 174h110zM408 423l-80 -168h101l81 168h-102z" />
    <glyph glyph-name="dollar" unicode="$" horiz-adv-x="575" 
d="M395 802h73l-21 -108q84 -12 127 -67t28 -141h-146q6 35 -13.5 56.5t-61.5 21.5q-39 0 -67.5 -19.5t-33.5 -49.5q-8 -49 61 -70l78 -26q183 -56 151 -208q-17 -88 -87 -139.5t-159 -60.5l-21 -115h-73l21 115q-97 10 -144.5 67.5t-32.5 143.5h147q-4 -35 18.5 -59
t69.5 -24q45 0 76.5 20t38.5 53q5 27 -9 46t-60 32l-80 23q-167 55 -142 198q15 83 83 139t158 65z" />
    <glyph glyph-name="percent" unicode="%" horiz-adv-x="692" 
d="M654 655h-69l-437 -655h69zM129 528q10 56 55 95t101 39t88.5 -39.5t22.5 -94.5q-10 -56 -56 -94.5t-102 -38.5t-87.5 38.5t-21.5 94.5zM210 528q-4 -22 8 -37t35 -15q22 0 40 15t22 37t-9 37.5t-35 15.5t-39.5 -15.5t-21.5 -37.5zM411 123q10 56 55 95t101 39
t88.5 -39.5t22.5 -94.5q-10 -56 -56 -94.5t-102 -38.5t-87.5 38.5t-21.5 94.5zM492 123q-4 -22 8 -37t35 -15q22 0 40 15t22 37t-9 37.5t-35 15.5t-39.5 -15.5t-21.5 -37.5z" />
    <glyph glyph-name="ampersand" unicode="&#x26;" horiz-adv-x="694" 
d="M283 -10q-101 0 -158 56.5t-41 144.5q25 135 146 176q-36 12 -54 49t-9 88q13 75 80 132t155 61q62 3 109 -21t73 -68l-132 -72q-20 26 -51 26q-35 0 -57 -21t-26 -47q-1 -2 -1.5 -9t1.5 -19.5t7.5 -23t21 -18.5t37.5 -8h114l15 78h129l-15 -78h80l-20 -112h-80l-18 -102
q-10 -58 4 -74.5t73 -16.5l-22 -121q-89 1 -129.5 17t-48.5 69q-25 -39 -80 -62.5t-103 -23.5zM478 304h-118q-62 0 -92 -34.5t-30 -66.5q0 -77 90 -77q40 0 84.5 29.5t55.5 93.5z" />
    <glyph glyph-name="quotesingle" unicode="'" horiz-adv-x="224" 
d="M143 392l41 297h98l-63 -297h-76z" />
    <glyph glyph-name="parenleft" unicode="(" horiz-adv-x="388" 
d="M79 228q37 203 151 336t249 133l-20 -109q-75 0 -157 -111.5t-106 -248.5q-24 -136 19 -244.5t118 -108.5l-19 -108q-136 0 -203.5 130t-31.5 331z" />
    <glyph glyph-name="parenright" unicode=")" horiz-adv-x="388" 
d="M389 228q-36 -202 -149 -331.5t-248 -129.5l17 108q75 0 157 108.5t106 244.5q14 95 1 175t-51 132.5t-87 52.5l20 109q136 0 203.5 -133.5t30.5 -335.5z" />
    <glyph glyph-name="asterisk" unicode="*" horiz-adv-x="476" 
d="M223 336l-66 58l101 101l-121 36l48 93l112 -48l16 131h100l-33 -130l132 47l12 -93l-130 -34l64 -104l-88 -55l-52 108z" />
    <glyph glyph-name="plus" unicode="+" horiz-adv-x="509" 
d="M341 210l-27 -155h-102l27 155h-154l18 102h154l28 154h102l-28 -154h155l-18 -102h-155z" />
    <glyph glyph-name="comma" unicode="," horiz-adv-x="283" 
d="M67 -135l-83 34q42 48 76 118t46 141h141q-19 -104 -71.5 -178t-108.5 -115z" />
    <glyph glyph-name="hyphen" unicode="-" horiz-adv-x="475" 
d="M94 191l19 110h353l-19 -110h-353z" />
    <glyph glyph-name="period" unicode="." horiz-adv-x="279" 
d="M65 74q6 35 36 59t66 24t56.5 -23.5t14.5 -59.5t-35.5 -60t-65.5 -24t-57 24t-15 60z" />
    <glyph glyph-name="slash" unicode="/" horiz-adv-x="500" 
d="M481 689h111l-452 -689h-111z" />
    <glyph glyph-name="zero" unicode="0" horiz-adv-x="604" 
d="M115 328q59 340 306 340q69 0 113.5 -26.5t61.5 -72.5t19.5 -108t-12.5 -133q-13 -75 -34.5 -132.5t-56.5 -105.5t-88.5 -74t-122.5 -26q-246 0 -186 338zM256 328q-35 -202 68 -202q105 0 140 202q37 204 -67 204t-141 -204z" />
    <glyph glyph-name="one" unicode="1" horiz-adv-x="377" 
d="M409 664l-118 -664h-140l82 469l-120 -48l22 123z" />
    <glyph glyph-name="two" unicode="2" horiz-adv-x="548" 
d="M477 0h-426l13 76l325 319q41 39 48 74q5 27 -13.5 46t-56.5 19q-37 0 -66.5 -25.5t-42.5 -65.5l-125 22q33 94 103 148.5t162 54.5q89 0 141.5 -56t37.5 -143t-98 -166l-181 -171h202z" />
    <glyph glyph-name="three" unicode="3" horiz-adv-x="552" 
d="M308 284h-69l20 120h69q19 0 34 7t23 17t13 21t6 17.5t1 8.5q5 20 -8 41.5t-46 21.5q-49 0 -76 -36l-100 69q37 47 97 74t124 23q83 -4 129 -58t32 -126q-7 -39 -36 -73t-71 -55q50 -19 72.5 -71.5t7.5 -106.5q-22 -84 -107.5 -138.5t-182.5 -47.5q-68 4 -118 41.5
t-67 95.5l134 61q6 -23 32 -42t53 -21q36 -2 67.5 20.5t39.5 49.5q2 6 3.5 14t0.5 22.5t-7 25.5t-24 18.5t-46 6.5z" />
    <glyph glyph-name="four" unicode="4" horiz-adv-x="602" 
d="M256 265h122l35 204zM581 147h-83l-25 -147h-141l25 147h-313l396 508h148l-69 -390h83z" />
    <glyph glyph-name="five" unicode="5" horiz-adv-x="592" 
d="M445 231q9 53 -19.5 80t-82.5 27q-38 0 -81.5 -16.5t-75.5 -55.5l-69 40l116 349h384l-23 -128h-273l-36 -106q44 34 126 34q92 0 142.5 -59t31.5 -165t-105 -173.5t-208 -67.5q-67 0 -124 36.5t-85 95.5l133 76q13 -30 41.5 -49t59.5 -19q56 0 98 30t50 71z" />
    <glyph glyph-name="six" unicode="6" horiz-adv-x="586" 
d="M406 422q78 0 129.5 -58t32.5 -163q-17 -95 -92.5 -153t-182.5 -58q-94 0 -149 62.5t-45 165.5q6 66 19.5 125.5t40 121.5t63 106.5t94 71.5t127.5 25q143 -5 179 -127l-140 -56q-16 52 -67 52q-45 0 -79 -30t-51 -70t-25 -89q14 25 53 49.5t93 24.5zM425 209
q6 35 -15.5 60.5t-56.5 25.5t-64.5 -25.5t-35.5 -60.5t14.5 -60.5t55.5 -25.5t65.5 25.5t36.5 60.5z" />
    <glyph glyph-name="seven" unicode="7" horiz-adv-x="550" 
d="M159 655h494l-405 -655h-159l323 526h-277z" />
    <glyph glyph-name="eight" unicode="8" horiz-adv-x="596" 
d="M182 485q13 76 82 129.5t152 53.5t133.5 -53.5t37.5 -129.5q-11 -65 -68 -110q39 -25 57 -68.5t8 -96.5q-16 -93 -100 -156.5t-188 -63.5t-165 63.5t-45 156.5q10 53 42.5 96.5t80.5 68.5q-39 43 -27 110zM227 217q-7 -41 20 -69t71 -28t82 28t45 69q7 40 -17 69t-76 29
q-51 0 -84.5 -29t-40.5 -69zM316 481q-5 -27 9 -45t46 -18t53 18.5t26 44.5q5 25 -10 43t-46 18t-52 -18t-26 -43z" />
    <glyph glyph-name="nine" unicode="9" horiz-adv-x="585" 
d="M294 236q-78 0 -128.5 58t-32.5 163q17 95 92 153t182 58q94 0 149.5 -62.5t45.5 -165.5q-7 -66 -20 -125.5t-40 -122t-63.5 -106.5t-93.5 -71t-128 -25q-66 3 -112.5 30.5t-67.5 96.5l141 56q16 -52 67 -52q66 0 105 56t49 133q-39 -74 -145 -74zM276 449
q-7 -35 14.5 -60.5t56.5 -25.5t64.5 25.5t36.5 60.5t-14.5 60.5t-56.5 25.5t-64.5 -25.5t-36.5 -60.5z" />
    <glyph glyph-name="colon" unicode=":" horiz-adv-x="308" 
d="M80 74q6 35 36 59t66 24t56 -23.5t14 -59.5t-35 -60t-65 -24t-57 24t-15 60zM137 393q7 36 36 60t65 24t57 -24t14 -60t-36 -59.5t-65 -23.5t-57 24t-14 59z" />
    <glyph glyph-name="semicolon" unicode=";" horiz-adv-x="306" 
d="M76 -135l-83 34q42 48 76 118t46 141h141q-19 -104 -71.5 -178t-108.5 -115zM145 393q7 36 36 60t65 24t57 -24t14 -60t-36 -59.5t-65 -23.5t-57 24t-14 59z" />
    <glyph glyph-name="less" unicode="&#x3c;" horiz-adv-x="624" 
d="M88 244l20 112l537 192l-18 -110l-388 -138l338 -138l-20 -110z" />
    <glyph glyph-name="equal" unicode="=" horiz-adv-x="596" 
d="M588 350h-460l19 98h460zM110 247h460l-17 -98h-460z" />
    <glyph glyph-name="greater" unicode="&#x3e;" horiz-adv-x="624" 
d="M640 356l-20 -112l-535 -192l18 110l386 138l-337 138l20 110z" />
    <glyph glyph-name="question" unicode="?" horiz-adv-x="496" 
d="M313 230l-5 -22h-136l1 22q17 92 41 130.5t104 70.5l44 17q26 13 34.5 24.5t11.5 30.5q4 23 -13 38.5t-48 15.5q-32 0 -55.5 -19t-28.5 -50h-140q17 95 85.5 152t162.5 57q95 0 144 -53t33 -142q-13 -71 -58.5 -121t-109.5 -68q-32 -9 -46 -27.5t-21 -55.5zM131 74
q6 35 36 59t66 24t56.5 -23.5t14.5 -59.5t-35.5 -60t-65.5 -24t-57 24t-15 60z" />
    <glyph glyph-name="at" unicode="@" horiz-adv-x="964" 
d="M606 136l23 126q9 49 -19 83t-76 34t-88 -34t-49 -83q-8 -47 20.5 -81t75.5 -34q45 0 82 25l-16 -94q-47 -19 -83 -19q-85 0 -134 59t-34 144q16 86 86 145.5t155 59.5q82 0 132 -56q52 -57 40 -139l-26 -142q-5 -32 9.5 -46t39.5 -14q31 0 57 20.5t42.5 54t26.5 65.5
t16 65q25 142 -64 237.5t-237 95.5q-144 0 -262 -102.5t-144 -248.5q-26 -145 55.5 -245.5t226.5 -100.5h33l-16 -89h-33q-182 0 -285 126.5t-70 308.5q33 183 181 311.5t329 128.5q185 0 296 -121.5t80 -300.5q-7 -38 -19.5 -76.5t-34.5 -78t-49 -70t-64 -49.5t-79 -19
q-64 0 -101.5 37t-22.5 117z" />
    <glyph glyph-name="A" unicode="A" horiz-adv-x="659" 
d="M309 290h143l-30 240zM477 163h-238l-89 -163h-156l377 689h159l134 -689h-154z" />
    <glyph glyph-name="B" unicode="B" horiz-adv-x="637" 
d="M649 497q-7 -39 -36 -74.5t-81 -54.5q60 -16 85 -62.5t16 -94.5q-16 -89 -86 -150t-170 -61h-296l121 689h276q93 0 139.5 -52t31.5 -140zM301 417h115q28 0 50 20t27 51q5 33 -8 52.5t-44 19.5h-114zM417 296h-138l-29 -167h141q34 0 58 25.5t31 59.5q6 32 -10 57
t-53 25z" />
    <glyph glyph-name="C" unicode="C" horiz-adv-x="699" 
d="M598 223l102 -82q-57 -70 -140.5 -110.5t-175.5 -40.5q-146 0 -227.5 103t-55.5 250q26 148 143.5 251t264.5 103q90 0 158.5 -39t103.5 -107l-135 -82q-21 42 -60 66t-91 24q-85 0 -153 -62.5t-84 -153.5q-16 -90 29.5 -152.5t130.5 -62.5q53 0 103.5 26t86.5 69z" />
    <glyph glyph-name="D" unicode="D" horiz-adv-x="707" 
d="M325 556l-75 -423h124q79 0 132 60t70 150q17 91 -15.5 152t-111.5 61h-124zM351 0h-270l121 689h270q145 0 211 -97.5t39 -248.5t-126.5 -247t-244.5 -96z" />
    <glyph glyph-name="E" unicode="E" horiz-adv-x="576" 
d="M81 0l121 689h436l-22 -129h-290l-29 -157h254l-22 -127h-254l-26 -147h299l-22 -129h-445z" />
    <glyph glyph-name="F" unicode="F" horiz-adv-x="538" 
d="M81 0l121 689h431l-22 -129h-284l-29 -157h225l-22 -128h-225l-48 -275h-147z" />
    <glyph glyph-name="G" unicode="G" horiz-adv-x="756" 
d="M755 584l-124 -93q-50 70 -138 70q-87 0 -158 -64t-87 -154t32 -154.5t134 -64.5q61 0 120.5 34t67.5 85h-185l21 119h354q-32 -186 -139 -279t-262 -93q-148 0 -232 103.5t-58 249.5q26 148 146.5 251t268.5 103q78 0 140 -30t99 -83z" />
    <glyph glyph-name="H" unicode="H" horiz-adv-x="701" 
d="M593 689h148l-121 -689h-148l48 277h-245l-48 -277h-146l121 689h146l-50 -281h245z" />
    <glyph glyph-name="I" unicode="I" horiz-adv-x="308" 
d="M202 689h146l-121 -689h-146z" />
    <glyph glyph-name="J" unicode="J" horiz-adv-x="309" 
d="M-137 -219l37 132q30 -11 86 -11q39 0 62.5 26.5t31.5 68.5l122 692h147l-122 -692q-19 -103 -85 -168t-181 -65q-32 0 -98 17z" />
    <glyph glyph-name="K" unicode="K" horiz-adv-x="609" 
d="M363 348l263 -348h-190l-167 234l-40 -234h-148l121 689h148l-40 -226l203 226h172z" />
    <glyph glyph-name="L" unicode="L" horiz-adv-x="511" 
d="M81 0l121 689h147l-99 -560h258l-22 -129h-405z" />
    <glyph glyph-name="M" unicode="M" horiz-adv-x="913" 
d="M500 245l284 444h123l-37 -689h-147l24 413l-220 -334h-113l-103 334l-121 -413h-147l206 689h121z" />
    <glyph glyph-name="N" unicode="N" horiz-adv-x="679" 
d="M719 689l-121 -689h-131l-167 417l-73 -417h-146l121 689h134l163 -412l73 412h147z" />
    <glyph glyph-name="O" unicode="O" horiz-adv-x="781" 
d="M247 343q-15 -87 32.5 -147.5t132.5 -60.5t156 61t86 147q16 86 -33 147.5t-134 61.5t-154.5 -61t-85.5 -148zM101 343q26 147 145.5 250.5t265.5 103.5q147 0 230.5 -103.5t57.5 -250.5q-26 -146 -146.5 -249.5t-266.5 -103.5t-229 103.5t-57 249.5z" />
    <glyph glyph-name="P" unicode="P" horiz-adv-x="614" 
d="M460 560h-133l-35 -194h129q40 0 68.5 30t35.5 67q7 36 -10 66.5t-55 30.5zM81 0l121 689h283q111 0 157 -66.5t30 -159.5t-86 -159t-181 -66h-136l-41 -238h-147z" />
    <glyph glyph-name="Q" unicode="Q" horiz-adv-x="788" 
d="M607 54l46 -110l-114 -62l-53 120q-46 -12 -95 -12q-148 0 -232 103.5t-58 249.5q26 148 146.5 251t268.5 103q149 0 233.5 -103.5t58.5 -250.5q-15 -87 -69 -163t-132 -126zM507 284l46 -107q90 62 108 166q16 90 -33.5 153t-135.5 63q-87 0 -157.5 -63t-86.5 -153
q-13 -76 21.5 -133t103.5 -73q27 -6 57 -6l-37 92z" />
    <glyph glyph-name="R" unicode="R" horiz-adv-x="637" 
d="M455 560h-128l-35 -194h124q40 0 68.5 30t35.5 67q7 36 -10 66.5t-55 30.5zM462 244l129 -244h-176l-113 238h-33l-41 -238h-147l121 689h282q110 0 157.5 -66.5t31.5 -159.5q-14 -79 -68.5 -140t-142.5 -79z" />
    <glyph glyph-name="S" unicode="S" horiz-adv-x="582" 
d="M79 202h147q-4 -35 18.5 -59t69.5 -24q45 0 76.5 20t37.5 53q6 26 -8 45.5t-60 32.5l-80 24q-168 51 -142 197q16 91 94 148.5t179 57.5q102 0 158 -57t38 -154h-146q6 35 -13.5 56.5t-61.5 21.5q-39 0 -68 -19.5t-34 -49.5q-8 -47 62 -70l78 -25q181 -58 151 -209
q-19 -97 -101 -149.5t-182 -52.5q-112 0 -171 59.5t-42 153.5z" />
    <glyph glyph-name="T" unicode="T" horiz-adv-x="576" 
d="M126 557l23 132h520l-23 -132h-186l-98 -557h-148l98 557h-186z" />
    <glyph glyph-name="U" unicode="U" horiz-adv-x="682" 
d="M363 128q48 0 89.5 33.5t50.5 84.5l79 443h147l-79 -443q-20 -113 -110.5 -184.5t-200.5 -71.5t-176.5 71t-46.5 185l79 443h149l-79 -443q-9 -52 20.5 -85t77.5 -33z" />
    <glyph glyph-name="V" unicode="V" horiz-adv-x="582" 
d="M137 689h152l43 -452l202 452h153l-331 -689h-130z" />
    <glyph glyph-name="W" unicode="W" horiz-adv-x="886" 
d="M639 255l211 434h159l-355 -689h-115l-34 362l-158 -362h-116l-111 689h158l58 -434q59 129 151 337h120z" />
    <glyph glyph-name="X" unicode="X" horiz-adv-x="658" 
d="M754 689l-273 -322l174 -367h-173l-109 250l-197 -250h-172l303 367l-161 322h176l92 -206l165 206h175z" />
    <glyph glyph-name="Y" unicode="Y" horiz-adv-x="651" 
d="M400 0h-149l55 312l-200 377h174l121 -258l213 258h174l-334 -379z" />
    <glyph glyph-name="Z" unicode="Z" horiz-adv-x="595" 
d="M61 111l395 449h-302l22 129h492l-20 -111l-397 -449h318l-22 -129h-505z" />
    <glyph glyph-name="bracketleft" unicode="[" horiz-adv-x="338" 
d="M31 -229l163 918h231l-18 -101h-113l-126 -714h113l-19 -103h-231z" />
    <glyph glyph-name="backslash" unicode="\" horiz-adv-x="500" 
d="M150 689h111l210 -689h-111z" />
    <glyph glyph-name="bracketright" unicode="]" horiz-adv-x="338" 
d="M386 689l-163 -918h-229l17 103h113l126 714h-113l18 101h231z" />
    <glyph glyph-name="underscore" unicode="_" horiz-adv-x="743" 
d="M35 -132l18 100h623l-18 -100h-623z" />
    <glyph glyph-name="grave" unicode="`" horiz-adv-x="554" 
d="M254 707h138l80 -168h-100z" />
    <glyph glyph-name="a" unicode="a" horiz-adv-x="612" 
d="M410 0l10 53q-27 -31 -70.5 -46.5t-76.5 -15.5q-94 0 -154.5 67.5t-41.5 175.5t103 175.5t178 67.5q33 0 70 -14t55 -48l9 52h138l-82 -467h-138zM221 234q-8 -48 21.5 -79.5t75.5 -31.5q45 0 84.5 30.5t48.5 80.5t-20 80.5t-74 30.5q-46 0 -87 -31.5t-49 -79.5z" />
    <glyph glyph-name="b" unicode="b" horiz-adv-x="602" 
d="M245 235q-9 -49 17 -81t71 -32q46 0 82.5 31.5t45.5 81.5q9 49 -17 80t-71 31t-82 -30.5t-46 -80.5zM202 0h-138l127 721h138l-55 -311q23 31 63.5 49t85.5 18q93 0 147.5 -68t34.5 -177q-19 -107 -97.5 -174.5t-171.5 -67.5q-44 0 -78.5 18t-46.5 50z" />
    <glyph glyph-name="c" unicode="c" horiz-adv-x="525" 
d="M76 235q19 107 106 174.5t191 67.5q63 0 112 -26t74 -73l-128 -81q-20 47 -81 47q-47 0 -87 -30.5t-49 -78.5q-9 -49 20.5 -80.5t75.5 -31.5q59 0 100 47l98 -80q-89 -100 -221 -100q-104 0 -167 69t-44 176z" />
    <glyph glyph-name="d" unicode="d" horiz-adv-x="602" 
d="M438 235q9 51 -17.5 81t-71.5 30t-81.5 -31t-45.5 -80q-9 -51 16.5 -82t70.5 -31t82.5 32t46.5 81zM538 0h-138l9 58q-22 -32 -62.5 -50t-85.5 -18q-93 0 -147.5 67.5t-35.5 174.5q20 109 98 177t171 68q45 0 80 -18t45 -49l56 311h138z" />
    <glyph glyph-name="e" unicode="e" horiz-adv-x="550" 
d="M418 154l89 -69q-81 -95 -230 -95q-103 0 -161.5 68.5t-39.5 176.5t101.5 175t185.5 67q102 0 158.5 -69t37.5 -177q-3 -20 -11 -43h-342q-1 -38 30.5 -58t72.5 -20q66 0 109 44zM225 275h202q2 39 -24.5 59.5t-60.5 20.5t-68 -19.5t-49 -60.5z" />
    <glyph glyph-name="f" unicode="f" horiz-adv-x="367" 
d="M501 721l-25 -133h-51q-70 0 -85 -89l-7 -32h94l-20 -110h-94l-62 -357h-140l62 357h-88l20 110h88l7 32q18 107 83.5 164.5t166.5 57.5h51z" />
    <glyph glyph-name="g" unicode="g" horiz-adv-x="608" 
d="M447 235q9 50 -19.5 80t-74.5 30t-84.5 -31t-46.5 -79q-9 -51 18 -82.5t73 -31.5q45 0 85 32.5t49 81.5zM155 -33q7 -32 38 -53.5t67 -21.5q140 0 158 166q-21 -31 -63.5 -49.5t-87.5 -18.5q-94 0 -151.5 67.5t-38.5 174.5q20 109 101 177t175 68q45 0 81.5 -18.5
t45.5 -49.5l11 58h135l-71 -402q-26 -148 -107.5 -223t-208.5 -75q-77 0 -132 39.5t-73 105.5q19 8 60.5 27.5t60.5 27.5z" />
    <glyph glyph-name="h" unicode="h" horiz-adv-x="579" 
d="M246 247l-43 -247h-139l127 721h139l-58 -327q21 40 64.5 61.5t81.5 21.5q91 0 128.5 -58t18.5 -165l-44 -254h-139l43 249q8 43 -13.5 68t-55.5 25q-38 0 -70 -23t-40 -72z" />
    <glyph glyph-name="i" unicode="i" horiz-adv-x="266" 
d="M284 467l-82 -467h-138l82 467h138zM159 640q6 34 35.5 57.5t65.5 23.5q35 0 56 -23.5t15 -57.5t-35.5 -58t-64.5 -24t-56.5 24t-15.5 58z" />
    <glyph glyph-name="j" unicode="j" horiz-adv-x="268" 
d="M-98 -235l21 126h61q33 0 50.5 22t22.5 52l89 502h140l-89 -499q-17 -99 -67 -151t-143 -52h-85zM160 640q6 34 35.5 57.5t65.5 23.5t57 -23.5t15 -57.5t-35.5 -58t-65.5 -24q-35 0 -56.5 24t-15.5 58z" />
    <glyph glyph-name="k" unicode="k" horiz-adv-x="526" 
d="M234 185l-32 -185h-138l127 721h138l-67 -382l133 128h177l-231 -206l188 -261h-171z" />
    <glyph glyph-name="l" unicode="l" horiz-adv-x="267" 
d="M191 721h139l-127 -721h-139z" />
    <glyph glyph-name="m" unicode="m" horiz-adv-x="854" 
d="M640 342q-36 0 -62 -23.5t-35 -71.5l-43 -247h-139l44 252q7 42 -11 66t-50 24q-35 0 -62.5 -22.5t-35.5 -72.5l-43 -247h-139l82 467h139l-12 -68q23 36 60 56.5t76 20.5q111 0 135 -82q66 83 155 83q85 0 122.5 -54t19.5 -158l-46 -265h-138l43 249q8 44 -10 68.5
t-50 24.5z" />
    <glyph glyph-name="n" unicode="n" 
d="M246 247l-43 -247h-139l82 467h139l-12 -68q25 35 66 56.5t83 21.5q81 0 117 -50t19 -148l-49 -279h-139l43 249q9 45 -9 69t-55 24q-87 0 -103 -95z" />
    <glyph glyph-name="o" unicode="o" horiz-adv-x="557" 
d="M299 128q45 0 81 29.5t44 77.5q8 47 -17 76.5t-69 29.5t-80.5 -30t-44.5 -76q-8 -48 17 -77.5t69 -29.5zM276 -8q-102 0 -160.5 67.5t-39.5 175.5t101 175t184 67t160.5 -67t39.5 -175t-101 -175.5t-184 -67.5z" />
    <glyph glyph-name="p" unicode="p" horiz-adv-x="602" 
d="M245 232q-9 -51 17 -81t71 -30q46 0 83 31t45 80q8 51 -17.5 82t-70.5 31t-82 -32t-46 -81zM146 467h138l-11 -58q24 32 65 50t85 18q93 0 147 -67.5t35 -174.5q-20 -109 -98 -177t-171 -68q-45 0 -79.5 18t-44.5 49l-52 -286h-138z" />
    <glyph glyph-name="q" unicode="q" horiz-adv-x="602" 
d="M470 409l11 58h139l-124 -696h-139l52 286q-23 -32 -63.5 -49.5t-85.5 -17.5q-93 0 -147.5 68t-34.5 177q19 107 97.5 174.5t170.5 67.5q46 0 80.5 -18.5t43.5 -49.5zM437 232q9 49 -17.5 81t-71.5 32t-81.5 -31.5t-44.5 -81.5q-8 -49 17 -80t69 -31q45 0 82.5 30.5
t46.5 80.5z" />
    <glyph glyph-name="r" unicode="r" horiz-adv-x="423" 
d="M231 163l-28 -163h-139l82 467h139l-20 -113q27 61 70.5 92t83.5 31q47 0 76 -17l-46 -125q-28 14 -69 14q-116 0 -149 -186z" />
    <glyph glyph-name="s" unicode="s" horiz-adv-x="467" 
d="M276 176l-59 16q-38 11 -63 27t-36.5 30t-15 34.5t-2 31.5t4.5 29q11 52 71.5 92.5t133.5 40.5q79 0 128.5 -38t36.5 -117h-131q3 23 -11 32t-35 9q-22 0 -37.5 -9.5t-17.5 -25.5q-4 -25 35 -35l75 -21q38 -11 62.5 -30t31.5 -38t10.5 -38t-1.5 -30q-13 -70 -80 -108
t-148 -38q-77 0 -128 43.5t-38 117.5h130q-3 -21 14 -37.5t45 -16.5q24 0 42.5 11t21.5 28q6 28 -39 40z" />
    <glyph glyph-name="t" unicode="t" horiz-adv-x="365" 
d="M328 467h98l-20 -110h-98l-62 -357h-138l62 357h-85l20 110h85l32 179h138z" />
    <glyph glyph-name="u" unicode="u" 
d="M403 220l44 247h139l-82 -467h-139l10 64q-24 -34 -61.5 -54t-72.5 -20q-82 0 -124.5 51t-25.5 147l49 279h140l-44 -249q-9 -50 13 -71.5t53 -21.5q36 0 64 22.5t37 72.5z" />
    <glyph glyph-name="v" unicode="v" horiz-adv-x="520" 
d="M200 0l-115 467h148l57 -290l160 290h149l-280 -467h-119z" />
    <glyph glyph-name="w" unicode="w" horiz-adv-x="763" 
d="M835 467l-246 -467h-116l-40 297l-140 -297h-116l-87 467h148l34 -278l131 278h119l33 -278l132 278h148z" />
    <glyph glyph-name="x" unicode="x" horiz-adv-x="530" 
d="M232 253l-116 214h162l52 -103l87 103h161l-192 -214l139 -253h-161l-74 143l-125 -143h-161z" />
    <glyph glyph-name="y" unicode="y" horiz-adv-x="510" 
d="M588 467l-412 -696h-147l162 277l-106 419h148l55 -265l152 265h148z" />
    <glyph glyph-name="z" unicode="z" horiz-adv-x="510" 
d="M137 467h407l-18 -104l-266 -235h224l-22 -128h-421l17 103l263 236h-206z" />
    <glyph glyph-name="braceleft" unicode="{" horiz-adv-x="412" 
d="M63 188l16 84q23 0 44.5 16t26.5 42l28 159q15 89 83 144.5t154 55.5h85l-18 -101h-88q-34 0 -61.5 -24.5t-34.5 -61.5l-30 -164q-8 -42 -38 -71t-61 -37q29 -8 49 -36.5t12 -71.5l-27 -153q-7 -37 12.5 -65t53.5 -28h88l-20 -105h-85q-86 0 -134.5 55.5t-31.5 144.5
l28 159q5 26 -11 42t-40 16z" />
    <glyph glyph-name="bar" unicode="|" horiz-adv-x="219" 
d="M215 802h73l-165 -926h-73z" />
    <glyph glyph-name="braceright" unicode="}" horiz-adv-x="412" 
d="M428 272l-15 -84q-23 0 -44.5 -16t-26.5 -42l-28 -159q-15 -89 -83.5 -144.5t-154.5 -55.5h-83l17 105h88q33 0 62 28t36 65l27 153q8 42 38 71t60 37q-28 8 -47.5 37t-11.5 71l29 164q7 36 -13 61t-54 25h-88l18 101h85q86 0 134.5 -55.5t32.5 -144.5l-28 -159
q-5 -26 10.5 -42t39.5 -16z" />
    <glyph glyph-name="exclamdown" unicode="&#xa1;" horiz-adv-x="267" 
d="M169 -229h-154l107 488h114zM116 393q7 36 36 60t65 24t57.5 -24t14.5 -60t-36.5 -59.5t-65.5 -23.5t-57 24t-14 59z" />
    <glyph glyph-name="cent" unicode="&#xa2;" horiz-adv-x="538" 
d="M421 581l-18 -105q53 -5 95 -30.5t64 -67.5l-127 -81q-22 47 -82 47q-47 0 -87 -30.5t-49 -78.5t21 -80t76 -32q58 0 99 47l98 -80q-77 -88 -194 -99l-21 -115h-73l21 118q-86 16 -134 81t-31 160q17 93 88 157.5t162 80.5l19 108h73z" />
    <glyph glyph-name="sterling" unicode="&#xa3;" horiz-adv-x="680" 
d="M336 279l-28 -155h184q13 0 23.5 10.5t13.5 25.5l5 29h137l-10 -56q-10 -57 -53 -95t-96 -38h-471l21 124h106l28 155h-83l11 63h83l23 131q18 101 88.5 162.5t164.5 61.5q98 0 152 -58.5t34 -171.5h-145q14 82 -65 82q-34 0 -58.5 -20.5t-30.5 -55.5l-23 -131h115
l-11 -63h-115z" />
    <glyph glyph-name="currency" unicode="&#xa4;" horiz-adv-x="621" 
d="M287 339q-7 -34 12.5 -58.5t54.5 -24.5t64 24t36 59t-14 59.5t-57 24.5q-34 0 -61.5 -24.5t-34.5 -59.5zM231 164l-84 -72l-56 69l83 72q-20 45 -9 106t48 107l-59 72l81 69l60 -72q55 30 110 30q58 0 103 -30l83 72l57 -69l-85 -73q22 -54 13 -106q-10 -59 -50 -106
l59 -72l-82 -69l-58 72q-54 -30 -113 -30t-101 30z" />
    <glyph glyph-name="yen" unicode="&#xa5;" horiz-adv-x="742" 
d="M833 689l-322 -365h146l-11 -68h-156l-17 -93h156l-12 -68h-156l-16 -95h-149l16 95h-155l12 68h155l17 93h-155l11 68h146l-192 365h174l121 -258l213 258h174z" />
    <glyph glyph-name="brokenbar" unicode="&#xa6;" horiz-adv-x="221" 
d="M221 420h-73l68 382h73zM192 260l-68 -384h-73l68 384h73z" />
    <glyph glyph-name="section" unicode="&#xa7;" horiz-adv-x="541" 
d="M362 228l-22 -122q-26 -6 -51 -6q-90 0 -141.5 58t-34.5 152l31 176q17 94 89 152t161 58q74 0 127 -42.5t54 -122.5l-123 -35q-4 40 -27 58.5t-53 18.5q-37 0 -67 -24t-37 -63l-31 -176q-7 -39 14.5 -62.5t59.5 -23.5h6q23 0 45 4zM271 301l22 122q25 6 51 6
q89 0 140.5 -58t35.5 -152l-31 -176q-17 -94 -89 -152t-162 -58q-73 0 -126 42.5t-54 122.5l123 35q3 -40 26 -58.5t53 -18.5q37 0 67.5 24t37.5 63l31 176q7 39 -14.5 62.5t-59.5 23.5h-6q-23 0 -45 -4z" />
    <glyph glyph-name="dieresis" unicode="&#xa8;" horiz-adv-x="561" 
d="M233 638q5 28 30 48t55 20q29 0 46.5 -20t12.5 -48q-5 -29 -29.5 -49t-53.5 -20q-30 0 -48 20t-13 49zM410 638q5 28 30 48t55 20q29 0 46.5 -20t12.5 -48q-5 -29 -29.5 -49t-53.5 -20q-30 0 -48 20t-13 49z" />
    <glyph glyph-name="copyright" unicode="&#xa9;" horiz-adv-x="797" 
d="M587 245l-59 45q-43 -46 -90 -46q-38 0 -58 28t-12 68q8 42 37.5 70t68.5 28q42 0 72 -46l74 46q-18 36 -53.5 57.5t-79.5 21.5q-73 0 -131.5 -51.5t-72.5 -125.5q-14 -73 27.5 -125t114.5 -52q44 0 87.5 22.5t74.5 59.5zM109 343q26 147 145.5 250.5t265.5 103.5
t230 -104t58 -250q-26 -147 -146.5 -250t-266.5 -103t-229 103t-57 250zM187 343q-20 -114 44 -194t177 -80t207 80.5t114 193.5q20 114 -44.5 194.5t-177.5 80.5t-206.5 -80.5t-113.5 -194.5z" />
    <glyph glyph-name="ordfeminine" unicode="&#xaa;" horiz-adv-x="468" 
d="M373 323l8 45q-21 -24 -52 -38t-60 -14q-70 0 -111 48t-27 125t71.5 125t127.5 48q65 0 95 -50l7 43h76l-59 -332h-76zM403 490q8 44 -17.5 70t-64.5 26q-40 0 -72 -26.5t-39 -69.5q-8 -43 15 -70.5t63 -27.5q41 0 74 26.5t41 71.5zM114 212l9 53h315l-9 -53h-315z" />
    <glyph glyph-name="guillemotleft" unicode="&#xab;" horiz-adv-x="505" 
d="M79 233l175 207h108l-175 -207l102 -207h-108zM256 233l175 207h108l-175 -207l102 -207h-108z" />
    <glyph glyph-name="logicalnot" unicode="&#xac;" horiz-adv-x="628" 
d="M134 373h486l-47 -269h-121l25 149h-365z" />
    <glyph glyph-name="registered" unicode="&#xae;" horiz-adv-x="797" 
d="M437 438h56q14 0 21 -13t5 -26q-3 -16 -16 -29t-29 -13h-53zM570 174l-63 113q39 12 65 43t33 69q8 47 -16 80.5t-80 33.5h-142l-62 -339h84l21 109h7l52 -109h101zM109 343q26 147 145.5 250.5t265.5 103.5t230 -104t58 -250q-26 -147 -146.5 -250t-266.5 -103t-229 103
t-57 250zM187 343q-20 -114 44 -194t177 -80t207 80.5t114 193.5q20 114 -44.5 194.5t-177.5 80.5t-206.5 -80.5t-113.5 -194.5z" />
    <glyph glyph-name="macron" unicode="&#xaf;" horiz-adv-x="518" 
d="M223 587l16 85h278l-16 -85h-278z" />
    <glyph glyph-name="degree" unicode="&#xb0;" horiz-adv-x="376" 
d="M137 529q10 59 60 101.5t109 42.5q60 0 95 -42.5t24 -101.5q-10 -60 -60.5 -102.5t-110.5 -42.5q-59 0 -93 42.5t-24 102.5zM209 529q-5 -31 12 -52t46 -21q31 0 56 21t30 52q5 30 -12.5 51t-48.5 21q-29 0 -53.5 -21t-29.5 -51z" />
    <glyph glyph-name="plusminus" unicode="&#xb1;" horiz-adv-x="547" 
d="M375 292l-26 -143h-102l26 143h-154l18 102h154l25 141h102l-25 -141h155l-18 -102h-155zM478 -1h-411l18 102h411z" />
    <glyph glyph-name="twosuperior" unicode="&#xb2;" horiz-adv-x="317" 
d="M112 477l189 185q24 22 28 44q3 16 -7.5 27t-32.5 11t-39.5 -15t-25.5 -38l-72 13q19 54 59.5 85.5t94.5 31.5q51 0 82 -32.5t22 -82.5q-8 -51 -57 -96q-47 -44 -105 -100h118l-14 -76h-247z" />
    <glyph glyph-name="threesuperior" unicode="&#xb3;" horiz-adv-x="317" 
d="M232 725l-57 40q22 27 56.5 42.5t71.5 13.5q48 -3 74.5 -34t17.5 -72q-6 -47 -61 -75q29 -11 41.5 -41.5t4.5 -61.5q-13 -49 -62.5 -80.5t-105.5 -27.5q-39 3 -68 25t-38 55l75 35q13 -32 51 -37q23 -1 42.5 13.5t19.5 26.5q0 1 1 6.5t1.5 10.5t-0.5 12q-6 24 -45 23h-40
l12 69h40q18 0 29.5 10.5t14 19t2.5 12.5q2 13 -6.5 25t-26.5 12q-26 0 -44 -22z" />
    <glyph glyph-name="acute" unicode="&#xb4;" horiz-adv-x="554" 
d="M364 707h138l-178 -168h-100z" />
    <glyph glyph-name="mu" unicode="&#xb5;" horiz-adv-x="574" 
d="M37 -191l117 658h139l-44 -249q-9 -50 12.5 -71.5t52.5 -21.5q36 0 64.5 23t37.5 72l44 247h139l-82 -467h-139l10 64q-25 -34 -62 -54t-72 -20q-38 0 -68 27l-8 -132l-14 -76h-127z" />
    <glyph glyph-name="paragraph" unicode="&#xb6;" horiz-adv-x="713" 
d="M464 689l-124 -703q-4 -24 -29 -24h-79l53 293q-85 5 -135 68t-34 149q16 90 90 153.5t165 63.5h93zM642 588h-35l-112 -637q-9 -52 -58 -94.5t-103 -42.5h-129l16 91h121q20 0 35 13.5t18 32.5l131 738h136q58 0 90.5 -41t22.5 -96l-15 -85h-93l14 76q4 20 -8 32.5
t-31 12.5z" />
    <glyph glyph-name="periodcentered" unicode="&#xb7;" horiz-adv-x="281" 
d="M114 347q7 36 36.5 59.5t65.5 23.5t57 -24t14 -59q-7 -36 -36 -60t-65 -24t-57.5 24t-14.5 60z" />
    <glyph glyph-name="cedilla" unicode="&#xb8;" horiz-adv-x="531" 
d="M216 -124q5 -26 35 -19q28 11 23 42l-25 128h65l34 -93q8 -18 1 -49q-7 -42 -44.5 -72.5t-81.5 -30.5q-30 0 -52.5 17.5t-30.5 47.5q-4 18 3 59l76 -4z" />
    <glyph glyph-name="onesuperior" unicode="&#xb9;" horiz-adv-x="215" 
d="M211 707l-70 -27l12 70l158 69l-69 -385h-80z" />
    <glyph glyph-name="ordmasculine" unicode="&#xba;" horiz-adv-x="454" 
d="M278 316q-72 0 -114 48.5t-28 126.5q13 76 71.5 123.5t131.5 47.5t115 -47.5t29 -123.5q-14 -78 -73 -126.5t-132 -48.5zM292 392q41 0 73.5 27.5t40.5 71.5q7 42 -16.5 68.5t-64.5 26.5t-73.5 -26.5t-39.5 -68.5q-8 -44 15.5 -71.5t64.5 -27.5zM109 212l9 53h315l-9 -53
h-315z" />
    <glyph glyph-name="guillemotright" unicode="&#xbb;" horiz-adv-x="505" 
d="M506 233l-174 -207h-108l174 207l-100 207h108zM329 233l-174 -207h-108l174 207l-100 207h108z" />
    <glyph glyph-name="onequarter" unicode="&#xbc;" horiz-adv-x="783" 
d="M200 548l-70 -27l13 70l157 69l-68 -385h-80zM712 85l-14 -85h-81l14 85h-182l231 295h84l-40 -227h48l-12 -68h-48zM571 153h72l21 119zM744 668l-571 -678h-83l572 678h82z" />
    <glyph glyph-name="onehalf" unicode="&#xbd;" horiz-adv-x="791" 
d="M200 548l-70 -27l13 70l157 69l-68 -385h-80zM500 43l189 185q23 23 27 44q3 16 -8 27t-34 11q-21 0 -38 -14.5t-25 -38.5l-71 13q19 54 59.5 85.5t94.5 31.5q51 0 82 -32.5t21 -82.5q-10 -52 -57 -96q-90 -84 -106 -100h118l-12 -76h-247zM738 668l-571 -678h-83
l572 678h82z" />
    <glyph glyph-name="threequarters" unicode="&#xbe;" horiz-adv-x="830" 
d="M759 85l-15 -85h-81l15 85h-182l230 295h84l-40 -227h48l-11 -68h-48zM617 153h72l21 119zM224 566l-57 40q21 27 56 42.5t72 13.5q48 -3 74.5 -34t18.5 -72q-9 -48 -62 -75q29 -11 42 -41.5t5 -61.5q-13 -49 -63 -80.5t-106 -27.5q-39 3 -67.5 25t-39.5 55l76 35
q13 -32 50 -37q21 -1 39 11.5t24 28.5q5 16 2 29q-6 24 -45 23h-40l13 69h40q8 0 15 2t11.5 6t8 8t5 8.5t3 8t1.5 6.5l1 3q3 12 -6 24.5t-27 12.5q-28 0 -44 -22zM808 668l-571 -678h-83l572 678h82z" />
    <glyph glyph-name="questiondown" unicode="&#xbf;" horiz-adv-x="487" 
d="M259 237l7 22h136l-3 -22q-9 -49 -15 -71.5t-21 -50t-40 -45t-68 -34.5l-43 -17q-26 -13 -35 -24.5t-12 -30.5q-5 -23 12.5 -38.5t48.5 -15.5q32 0 55 19t29 50h140q-17 -95 -85.5 -152t-162.5 -57q-95 0 -144 53t-33 142q12 71 58 120.5t110 68.5q32 9 46 27.5t20 55.5z
M441 393q-7 -36 -36 -59.5t-65 -23.5t-57.5 24t-14.5 59q7 36 36.5 60t65.5 24t57 -24t14 -60z" />
    <glyph glyph-name="Agrave" unicode="&#xc0;" horiz-adv-x="659" 
d="M309 290h143l-30 240zM477 163h-238l-89 -163h-156l377 689h159l134 -689h-154zM319 929h138l80 -168h-100z" />
    <glyph glyph-name="Aacute" unicode="&#xc1;" horiz-adv-x="659" 
d="M309 290h143l-30 240zM477 163h-238l-89 -163h-156l377 689h159l134 -689h-154zM535 929h138l-178 -168h-100z" />
    <glyph glyph-name="Acircumflex" unicode="&#xc2;" horiz-adv-x="659" 
d="M309 290h143l-30 240zM477 163h-238l-89 -163h-156l377 689h159l134 -689h-154zM424 933h138l80 -168h-100l-63 89l-94 -89h-100z" />
    <glyph glyph-name="Atilde" unicode="&#xc3;" horiz-adv-x="659" 
d="M309 290h143l-30 240zM477 163h-238l-89 -163h-156l377 689h159l134 -689h-154zM431 828q-7 0 -18 -11t-16 -32h-75q16 67 52 98.5t73 31.5q23 0 46 -20.5t33 -20.5q8 0 18.5 10t15.5 31h75q-15 -66 -51 -97t-73 -31q-21 0 -46 20.5t-34 20.5z" />
    <glyph glyph-name="Adieresis" unicode="&#xc4;" horiz-adv-x="659" 
d="M309 290h143l-30 240zM477 163h-238l-89 -163h-156l377 689h159l134 -689h-154zM307 860q5 28 30.5 48t55.5 20q29 0 46 -20t12 -48q-5 -29 -29 -49t-53 -20q-30 0 -48.5 20t-13.5 49zM484 860q5 28 30.5 48t55.5 20q29 0 46 -20t12 -48q-5 -29 -29 -49t-53 -20
q-30 0 -48.5 20t-13.5 49z" />
    <glyph glyph-name="Aring" unicode="&#xc5;" horiz-adv-x="659" 
d="M309 290h143l-30 240zM477 163h-238l-89 -163h-156l377 689h159l134 -689h-154zM364 881q9 52 50 87.5t91 35.5q51 0 80.5 -35.5t20.5 -87.5q-9 -50 -51 -85t-93 -35q-50 0 -78.5 35t-19.5 85zM429 881q-4 -23 9 -39t36 -16q24 0 43 16t24 39q4 25 -9.5 41.5t-37.5 16.5
q-23 0 -41.5 -16.5t-23.5 -41.5z" />
    <glyph glyph-name="AE" unicode="&#xc6;" horiz-adv-x="934" 
d="M535 689h461l-22 -129h-290l-29 -157h254l-22 -127h-254l-26 -147h299l-22 -129h-445l-1 1v-1l27 158h-184l-127 -158h-175zM524 493l-135 -194h101z" />
    <glyph glyph-name="Ccedilla" unicode="&#xc7;" horiz-adv-x="701" 
d="M308 -124q5 -26 35 -19q28 11 23 42l-18 93q-131 13 -200.5 113.5t-45.5 237.5q26 148 144 251t265 103q90 0 158 -39t103 -107l-134 -82q-21 42 -60.5 66t-91.5 24q-86 0 -153.5 -62.5t-83.5 -153.5q-16 -90 30 -152.5t131 -62.5q53 0 103 26t86 69l102 -82
q-113 -135 -281 -149l20 -58q8 -22 2 -49q-7 -42 -44.5 -72.5t-81.5 -30.5q-30 0 -53 17.5t-31 47.5q-4 18 3 59l77 -4z" />
    <glyph glyph-name="Egrave" unicode="&#xc8;" horiz-adv-x="576" 
d="M81 0l121 689h436l-22 -129h-290l-29 -157h254l-22 -127h-254l-26 -147h299l-22 -129h-445zM298 929h138l80 -168h-100z" />
    <glyph glyph-name="Eacute" unicode="&#xc9;" horiz-adv-x="576" 
d="M202 689l-121 -689h445l22 129h-299l26 147h254l22 127h-254l29 157h290l22 129h-436zM487 929h138l-178 -168h-100z" />
    <glyph glyph-name="Ecircumflex" unicode="&#xca;" horiz-adv-x="576" 
d="M81 0l121 689h436l-22 -129h-290l-29 -157h254l-22 -127h-254l-26 -147h299l-22 -129h-445zM379 933h138l80 -168h-100l-63 89l-94 -89h-100z" />
    <glyph glyph-name="Edieresis" unicode="&#xcb;" horiz-adv-x="576" 
d="M202 689l-121 -689h445l22 129h-299l26 147h254l22 127h-254l29 157h290l22 129h-436zM274 860q5 28 30.5 48t55.5 20q29 0 46 -20t12 -48q-5 -29 -29 -49t-53 -20q-30 0 -48.5 20t-13.5 49zM451 860q5 28 30.5 48t55.5 20q29 0 46 -20t12 -48q-5 -29 -29 -49t-53 -20
q-30 0 -48.5 20t-13.5 49z" />
    <glyph glyph-name="Igrave" unicode="&#xcc;" horiz-adv-x="308" 
d="M202 689h146l-121 -689h-146zM142 929h138l80 -168h-100z" />
    <glyph glyph-name="Iacute" unicode="&#xcd;" horiz-adv-x="308" 
d="M202 689h146l-121 -689h-146zM354 929h138l-178 -168h-100z" />
    <glyph glyph-name="Icircumflex" unicode="&#xce;" horiz-adv-x="308" 
d="M202 689h146l-121 -689h-146zM250 933h138l80 -168h-100l-63 89l-94 -89h-100z" />
    <glyph glyph-name="Idieresis" unicode="&#xcf;" horiz-adv-x="308" 
d="M202 689h146l-121 -689h-146zM145 860q5 28 30.5 48t55.5 20q29 0 46 -20t12 -48q-5 -29 -29 -49t-53 -20q-30 0 -48.5 20t-13.5 49zM322 860q5 28 30.5 48t55.5 20q29 0 46 -20t12 -48q-5 -29 -29 -49t-53 -20q-30 0 -48.5 20t-13.5 49z" />
    <glyph glyph-name="Eth" unicode="&#xd0;" horiz-adv-x="722" 
d="M52 284l17 98h94l54 307h270q145 0 211 -97.5t39 -248.5t-126.5 -247t-244.5 -96h-270l50 284h-94zM292 284l-27 -151h124q79 0 132 60t70 150q17 91 -15.5 152t-111.5 61h-124l-31 -174h123l-17 -98h-123z" />
    <glyph glyph-name="Ntilde" unicode="&#xd1;" horiz-adv-x="679" 
d="M442 828q-8 0 -18.5 -11t-15.5 -32h-75q16 67 52 98.5t73 31.5q23 0 46 -20.5t33 -20.5q8 0 18.5 10t15.5 31h75q-15 -66 -51 -97t-73 -31q-22 0 -46.5 20.5t-33.5 20.5zM719 689l-121 -689h-131l-167 417l-73 -417h-146l121 689h134l163 -412l73 412h147z" />
    <glyph glyph-name="Ograve" unicode="&#xd2;" horiz-adv-x="781" 
d="M247 343q-15 -87 32.5 -147.5t132.5 -60.5t156 61t86 147q16 86 -33 147.5t-134 61.5t-154.5 -61t-85.5 -148zM101 343q26 147 145.5 250.5t265.5 103.5q147 0 230.5 -103.5t57.5 -250.5q-26 -146 -146.5 -249.5t-266.5 -103.5t-229 103.5t-57 249.5zM376 929h138
l80 -168h-100z" />
    <glyph glyph-name="Oacute" unicode="&#xd3;" horiz-adv-x="781" 
d="M247 343q16 87 85.5 148t154.5 61t134 -61.5t33 -147.5q-15 -86 -86 -147t-156 -61t-132.5 60.5t-32.5 147.5zM101 343q-26 -146 57 -249.5t229 -103.5t266.5 103.5t146.5 249.5q26 147 -57.5 250.5t-230.5 103.5q-146 0 -265.5 -103.5t-145.5 -250.5zM598 929h138
l-178 -168h-100z" />
    <glyph glyph-name="Ocircumflex" unicode="&#xd4;" horiz-adv-x="781" 
d="M247 343q-15 -87 32.5 -147.5t132.5 -60.5t156 61t86 147q16 86 -33 147.5t-134 61.5t-154.5 -61t-85.5 -148zM101 343q26 147 145.5 250.5t265.5 103.5q147 0 230.5 -103.5t57.5 -250.5q-26 -146 -146.5 -249.5t-266.5 -103.5t-229 103.5t-57 249.5zM485 933h138
l80 -168h-100l-62 89l-95 -89h-100z" />
    <glyph glyph-name="Otilde" unicode="&#xd5;" horiz-adv-x="781" 
d="M247 343q-15 -87 32.5 -147.5t132.5 -60.5t156 61t86 147q16 86 -33 147.5t-134 61.5t-154.5 -61t-85.5 -148zM101 343q26 147 145.5 250.5t265.5 103.5q147 0 230.5 -103.5t57.5 -250.5q-26 -146 -146.5 -249.5t-266.5 -103.5t-229 103.5t-57 249.5zM492 828
q-8 0 -18.5 -11t-14.5 -32h-75q15 67 51 98.5t74 31.5q23 0 45.5 -20.5t32.5 -20.5q8 0 19 10t16 31h75q-16 -67 -52 -97.5t-72 -30.5q-21 0 -46 20.5t-35 20.5z" />
    <glyph glyph-name="Odieresis" unicode="&#xd6;" horiz-adv-x="781" 
d="M247 343q16 87 85.5 148t154.5 61t134 -61.5t33 -147.5q-15 -86 -86 -147t-156 -61t-132.5 60.5t-32.5 147.5zM101 343q-26 -146 57 -249.5t229 -103.5t266.5 103.5t146.5 249.5q26 147 -57.5 250.5t-230.5 103.5q-146 0 -265.5 -103.5t-145.5 -250.5zM381 860
q5 28 30 48t55 20q29 0 46.5 -20t12.5 -48q-5 -29 -29 -49t-53 -20q-30 0 -48.5 20t-13.5 49zM558 860q5 28 30 48t55 20q29 0 46.5 -20t12.5 -48q-5 -29 -29 -49t-53 -20q-30 0 -48.5 20t-13.5 49z" />
    <glyph glyph-name="multiply" unicode="&#xd7;" horiz-adv-x="491" 
d="M361 259l96 -116l-86 -73l-96 117l-135 -114l-59 72l136 114l-96 116l86 72l95 -116l138 117l58 -72z" />
    <glyph glyph-name="Oslash" unicode="&#xd8;" horiz-adv-x="779" 
d="M181 67l-1 -1l-94 -82l-39 47l96 82q-67 97 -43 230q26 147 145.5 250.5t265.5 103.5q128 0 209 -81l93 81l39 -46l-94 -82q63 -99 41 -226q-26 -146 -146.5 -249.5t-266.5 -103.5q-123 0 -205 77zM245 343q-13 -70 18 -125l337 293q-46 41 -114 41q-85 0 -155 -61
t-86 -148zM411 135q85 0 156 61t86 147q12 67 -18 120l-334 -291q45 -37 110 -37z" />
    <glyph glyph-name="Ugrave" unicode="&#xd9;" horiz-adv-x="682" 
d="M363 128q48 0 89.5 33.5t50.5 84.5l79 443h147l-79 -443q-20 -113 -110.5 -184.5t-200.5 -71.5t-176.5 71t-46.5 185l79 443h149l-79 -443q-9 -52 20.5 -85t77.5 -33zM335 929h138l80 -168h-100z" />
    <glyph glyph-name="Uacute" unicode="&#xda;" horiz-adv-x="682" 
d="M363 128q48 0 89.5 33.5t50.5 84.5l79 443h147l-79 -443q-20 -113 -110.5 -184.5t-200.5 -71.5t-176.5 71t-46.5 185l79 443h149l-79 -443q-9 -52 20.5 -85t77.5 -33zM534 929h138l-178 -168h-100z" />
    <glyph glyph-name="Ucircumflex" unicode="&#xdb;" horiz-adv-x="682" 
d="M363 128q48 0 89.5 33.5t50.5 84.5l79 443h147l-79 -443q-20 -113 -110.5 -184.5t-200.5 -71.5t-176.5 71t-46.5 185l79 443h149l-79 -443q-9 -52 20.5 -85t77.5 -33zM435 933h138l80 -168h-100l-62 89l-95 -89h-100z" />
    <glyph glyph-name="Udieresis" unicode="&#xdc;" horiz-adv-x="682" 
d="M363 128q48 0 89.5 33.5t50.5 84.5l79 443h147l-79 -443q-20 -113 -110.5 -184.5t-200.5 -71.5t-176.5 71t-46.5 185l79 443h149l-79 -443q-9 -52 20.5 -85t77.5 -33zM331 860q5 28 30 48t55 20q29 0 46.5 -20t12.5 -48q-5 -29 -29 -49t-53 -20q-30 0 -48.5 20t-13.5 49z
M508 860q5 28 30 48t55 20q29 0 46.5 -20t12.5 -48q-5 -29 -29 -49t-53 -20q-30 0 -48.5 20t-13.5 49z" />
    <glyph glyph-name="Yacute" unicode="&#xdd;" horiz-adv-x="651" 
d="M400 0h-149l55 312l-200 377h174l121 -258l213 258h174l-334 -379zM524 929h138l-178 -168h-100z" />
    <glyph glyph-name="Thorn" unicode="&#xde;" horiz-adv-x="572" 
d="M463 349q8 47 -12 75.5t-54 28.5h-90l-36 -203h90q34 0 64 27t38 72zM345 126h-97l-21 -126h-146l121 689h146l-20 -112h97q95 0 148.5 -62t35.5 -162q-18 -101 -93.5 -164t-170.5 -63z" />
    <glyph glyph-name="germandbls" unicode="&#xdf;" horiz-adv-x="566" 
d="M230 1l51 131q23 -4 46 -4q42 0 73 30t38 70q6 35 -12 67t-71 32h-27l22 121h17q25 0 41.5 17.5t21.5 44.5t-11.5 43t-49.5 16q-27 0 -50 -18.5t-29 -49.5l-88 -501h-138l87 490q17 97 83 152t155 55q93 0 142 -48t37 -118q-14 -84 -85 -124q48 -26 72 -74t12 -115
q-18 -101 -87 -164.5t-178 -63.5q-37 0 -72 11z" />
    <glyph glyph-name="agrave" unicode="&#xe0;" horiz-adv-x="612" 
d="M410 0l10 53q-27 -31 -70.5 -46.5t-76.5 -15.5q-94 0 -154.5 67.5t-41.5 175.5t103 175.5t178 67.5q33 0 70 -14t55 -48l9 52h138l-82 -467h-138zM221 234q-8 -48 21.5 -79.5t75.5 -31.5q45 0 84.5 30.5t48.5 80.5t-20 80.5t-74 30.5q-46 0 -87 -31.5t-49 -79.5zM260 707
h138l80 -168h-100z" />
    <glyph glyph-name="aacute" unicode="&#xe1;" horiz-adv-x="612" 
d="M410 0l10 53q-27 -31 -70.5 -46.5t-76.5 -15.5q-94 0 -154.5 67.5t-41.5 175.5t103 175.5t178 67.5q33 0 70 -14t55 -48l9 52h138l-82 -467h-138zM221 234q-8 -48 21.5 -79.5t75.5 -31.5q45 0 84.5 30.5t48.5 80.5t-20 80.5t-74 30.5q-46 0 -87 -31.5t-49 -79.5zM446 707
h138l-178 -168h-100z" />
    <glyph glyph-name="acircumflex" unicode="&#xe2;" horiz-adv-x="612" 
d="M410 0l10 53q-27 -31 -70.5 -46.5t-76.5 -15.5q-94 0 -154.5 67.5t-41.5 175.5t103 175.5t178 67.5q33 0 70 -14t55 -48l9 52h138l-82 -467h-138zM221 234q-8 -48 21.5 -79.5t75.5 -31.5q45 0 84.5 30.5t48.5 80.5t-20 80.5t-74 30.5q-46 0 -87 -31.5t-49 -79.5zM363 711
h138l80 -168h-100l-64 89l-93 -89h-100z" />
    <glyph glyph-name="atilde" unicode="&#xe3;" horiz-adv-x="612" 
d="M410 0l10 53q-27 -31 -70.5 -46.5t-76.5 -15.5q-94 0 -154.5 67.5t-41.5 175.5t103 175.5t178 67.5q33 0 70 -14t55 -48l9 52h138l-82 -467h-138zM221 234q-8 -48 21.5 -79.5t75.5 -31.5q45 0 84.5 30.5t48.5 80.5t-20 80.5t-74 30.5q-46 0 -87 -31.5t-49 -79.5zM370 606
q-8 0 -18.5 -11t-14.5 -32h-75q15 67 50.5 98.5t72.5 31.5q23 0 46.5 -20.5t33.5 -20.5q8 0 18.5 10t14.5 31h75q-14 -67 -49.5 -97.5t-72.5 -30.5q-21 0 -46 20.5t-35 20.5z" />
    <glyph glyph-name="adieresis" unicode="&#xe4;" horiz-adv-x="612" 
d="M410 0l10 53q-27 -31 -70.5 -46.5t-76.5 -15.5q-94 0 -154.5 67.5t-41.5 175.5t103 175.5t178 67.5q33 0 70 -14t55 -48l9 52h138l-82 -467h-138zM221 234q-8 -48 21.5 -79.5t75.5 -31.5q45 0 84.5 30.5t48.5 80.5t-20 80.5t-74 30.5q-46 0 -87 -31.5t-49 -79.5zM259 638
q5 28 30 48t55 20q29 0 46.5 -20t12.5 -48q-5 -29 -29.5 -49t-53.5 -20q-30 0 -48 20t-13 49zM436 638q5 28 30 48t55 20q29 0 46.5 -20t12.5 -48q-5 -29 -29.5 -49t-53.5 -20q-30 0 -48 20t-13 49z" />
    <glyph glyph-name="aring" unicode="&#xe5;" horiz-adv-x="612" 
d="M410 0l10 53q-27 -31 -70.5 -46.5t-76.5 -15.5q-94 0 -154.5 67.5t-41.5 175.5t103 175.5t178 67.5q33 0 70 -14t55 -48l9 52h138l-82 -467h-138zM221 234q-8 -48 21.5 -79.5t75.5 -31.5q45 0 84.5 30.5t48.5 80.5t-20 80.5t-74 30.5q-46 0 -87 -31.5t-49 -79.5zM303 659
q9 52 50.5 87.5t91.5 35.5q51 0 80 -35.5t20 -87.5q-9 -50 -51 -85t-93 -35q-50 0 -78.5 35t-19.5 85zM368 659q-4 -23 9 -39t36 -16q24 0 43.5 16t23.5 39q4 25 -9.5 41.5t-37.5 16.5q-23 0 -41.5 -16.5t-23.5 -41.5z" />
    <glyph glyph-name="ae" unicode="&#xe6;" horiz-adv-x="970" 
d="M839 154l89 -69q-81 -95 -230 -95q-88 0 -143 50l-7 -40h-138l10 53q-27 -31 -70.5 -46.5t-76.5 -15.5q-94 0 -154.5 67.5t-41.5 175.5t103 175.5t178 67.5q33 0 70 -14t55 -48l9 52h138l-7 -39q74 49 161 49q102 0 158.5 -69t37.5 -177q-3 -20 -11 -43h-342
q-1 -38 30.5 -58t72.5 -20q66 0 109 44zM221 234q-8 -48 21.5 -79.5t75.5 -31.5q45 0 84.5 30.5t48.5 80.5t-20 80.5t-74 30.5q-46 0 -87 -31.5t-49 -79.5zM646 275h202q2 39 -24.5 59.5t-60.5 20.5t-68 -19.5t-49 -60.5z" />
    <glyph glyph-name="ccedilla" unicode="&#xe7;" horiz-adv-x="525" 
d="M320 -8l20 -58q7 -19 1 -49q-8 -42 -45 -72.5t-80 -30.5q-30 0 -53 17.5t-31 47.5q-4 18 3 59l76 -4l-3 -26q5 -26 35 -19q28 11 23 42l-18 94q-89 13 -139 79t-33 163q19 107 106 174.5t191 67.5q63 0 112 -26t74 -73l-127 -81q-22 47 -82 47q-47 0 -87 -30.5t-49 -78.5
t21 -80t76 -32q58 0 99 47l98 -80q-76 -86 -188 -98z" />
    <glyph glyph-name="egrave" unicode="&#xe8;" horiz-adv-x="550" 
d="M224 707h138l80 -168h-100zM418 154l89 -69q-81 -95 -230 -95q-103 0 -161.5 68.5t-39.5 176.5t101.5 175t185.5 67q102 0 158.5 -69t37.5 -177q-3 -20 -11 -43h-342q-1 -38 30.5 -58t72.5 -20q66 0 109 44zM225 275h202q2 39 -24.5 59.5t-60.5 20.5t-68 -19.5t-49 -60.5
z" />
    <glyph glyph-name="eacute" unicode="&#xe9;" horiz-adv-x="550" 
d="M447 707h138l-178 -168h-100zM418 154l89 -69q-81 -95 -230 -95q-103 0 -161.5 68.5t-39.5 176.5t101.5 175t185.5 67q102 0 158.5 -69t37.5 -177q-3 -20 -11 -43h-342q-1 -38 30.5 -58t72.5 -20q66 0 109 44zM225 275h202q2 39 -24.5 59.5t-60.5 20.5t-68 -19.5
t-49 -60.5z" />
    <glyph glyph-name="ecircumflex" unicode="&#xea;" horiz-adv-x="550" 
d="M333 711h138l80 -168h-100l-63 89l-94 -89h-100zM418 154l89 -69q-81 -95 -230 -95q-103 0 -161.5 68.5t-39.5 176.5t101.5 175t185.5 67q102 0 158.5 -69t37.5 -177q-3 -20 -11 -43h-342q-1 -38 30.5 -58t72.5 -20q66 0 109 44zM225 275h202q2 39 -24.5 59.5t-60.5 20.5
t-68 -19.5t-49 -60.5z" />
    <glyph glyph-name="edieresis" unicode="&#xeb;" horiz-adv-x="550" 
d="M229 638q5 28 30 48t55 20q29 0 46.5 -20t12.5 -48q-5 -29 -29.5 -49t-53.5 -20q-30 0 -48 20t-13 49zM406 638q5 28 30 48t55 20q29 0 46.5 -20t12.5 -48q-5 -29 -29.5 -49t-53.5 -20q-30 0 -48 20t-13 49zM418 154l89 -69q-81 -95 -230 -95q-103 0 -161.5 68.5
t-39.5 176.5t101.5 175t185.5 67q102 0 158.5 -69t37.5 -177q-3 -20 -11 -43h-342q-1 -38 30.5 -58t72.5 -20q66 0 109 44zM225 275h202q2 39 -24.5 59.5t-60.5 20.5t-68 -19.5t-49 -60.5z" />
    <glyph glyph-name="igrave" unicode="&#xec;" horiz-adv-x="265" 
d="M146 467h137l-82 -467h-137zM80 707h138l80 -168h-100z" />
    <glyph glyph-name="iacute" unicode="&#xed;" horiz-adv-x="265" 
d="M283 467h-137l-82 -467h137zM299 707h138l-178 -168h-100z" />
    <glyph glyph-name="icircumflex" unicode="&#xee;" horiz-adv-x="265" 
d="M146 467h137l-82 -467h-137zM189 711h138l80 -168h-100l-64 89l-93 -89h-100z" />
    <glyph glyph-name="idieresis" unicode="&#xef;" horiz-adv-x="265" 
d="M283 467h-137l-82 -467h137zM82 638q5 28 30.5 48t55.5 20q29 0 46 -20t12 -48q-5 -29 -29.5 -49t-53.5 -20q-30 0 -48 20t-13 49zM259 638q5 28 30.5 48t55.5 20q29 0 46 -20t12 -48q-5 -29 -29.5 -49t-53.5 -20q-30 0 -48 20t-13 49z" />
    <glyph glyph-name="eth" unicode="&#xf0;" horiz-adv-x="559" 
d="M429 585l113 -205q35 -59 20 -145q-19 -108 -101 -175.5t-184 -67.5t-160.5 67.5t-39.5 175.5q19 107 103 173t185 59l-45 73l-91 -39l-21 49l87 36l-55 103h133l32 -58l93 39l27 -45zM300 128q45 0 81 29.5t44 77.5q8 46 -17 75t-69 29t-80.5 -29t-44.5 -75
q-8 -48 17 -77.5t69 -29.5z" />
    <glyph glyph-name="ntilde" unicode="&#xf1;" 
d="M246 247l-43 -247h-139l82 467h139l-12 -68q25 35 66 56.5t83 21.5q81 0 117 -50t19 -148l-49 -279h-139l43 249q9 45 -9 69t-55 24q-87 0 -103 -95zM346 606q-7 0 -17.5 -11t-15.5 -32h-75q15 67 51 98.5t73 31.5q23 0 46.5 -20.5t33.5 -20.5q8 0 18 10t15 31h75
q-14 -66 -50 -97t-73 -31q-21 0 -46 20.5t-35 20.5z" />
    <glyph glyph-name="ograve" unicode="&#xf2;" horiz-adv-x="557" 
d="M299 128q45 0 81 29.5t44 77.5q8 46 -17 75t-69 29t-80.5 -29t-44.5 -75q-8 -48 17 -77.5t69 -29.5zM276 -8q-102 0 -160.5 67.5t-39.5 175.5t100.5 174t183.5 66t161 -66.5t40 -173.5q-19 -108 -101 -175.5t-184 -67.5zM202 707h138l80 -168h-100z" />
    <glyph glyph-name="oacute" unicode="&#xf3;" horiz-adv-x="557" 
d="M299 128q-44 0 -69 29.5t-17 77.5q8 46 44.5 75t80.5 29t69 -29t17 -75q-8 -48 -44 -77.5t-81 -29.5zM276 -8q102 0 184 67.5t101 175.5q19 107 -40 173.5t-161 66.5t-183.5 -66t-100.5 -174t39.5 -175.5t160.5 -67.5zM453 707h138l-178 -168h-100z" />
    <glyph glyph-name="ocircumflex" unicode="&#xf4;" horiz-adv-x="557" 
d="M299 128q45 0 81 29.5t44 77.5q8 46 -17 75t-69 29t-80.5 -29t-44.5 -75q-8 -48 17 -77.5t69 -29.5zM276 -8q-102 0 -160.5 67.5t-39.5 175.5t100.5 174t183.5 66t161 -66.5t40 -173.5q-19 -108 -101 -175.5t-184 -67.5zM334 711h138l80 -168h-100l-63 89l-94 -89h-100z
" />
    <glyph glyph-name="otilde" unicode="&#xf5;" horiz-adv-x="557" 
d="M299 128q45 0 81 29.5t44 77.5q8 46 -17 75t-69 29t-80.5 -29t-44.5 -75q-8 -48 17 -77.5t69 -29.5zM276 -8q-102 0 -160.5 67.5t-39.5 175.5t100.5 174t183.5 66t161 -66.5t40 -173.5q-19 -108 -101 -175.5t-184 -67.5zM341 606q-8 0 -18.5 -11t-14.5 -32h-75
q15 67 50.5 98.5t72.5 31.5q23 0 46.5 -20.5t33.5 -20.5q8 0 18.5 10t14.5 31h75q-14 -67 -49.5 -97.5t-72.5 -30.5q-22 0 -47 20.5t-34 20.5z" />
    <glyph glyph-name="odieresis" unicode="&#xf6;" horiz-adv-x="557" 
d="M299 128q-44 0 -69 29.5t-17 77.5q8 46 44.5 75t80.5 29t69 -29t17 -75q-8 -48 -44 -77.5t-81 -29.5zM276 -8q102 0 184 67.5t101 175.5q19 107 -40 173.5t-161 66.5t-183.5 -66t-100.5 -174t39.5 -175.5t160.5 -67.5zM230 638q5 28 30 48t55 20q29 0 46.5 -20t12.5 -48
q-5 -29 -29.5 -49t-53.5 -20q-30 0 -48 20t-13 49zM407 638q5 28 30 48t55 20q29 0 46.5 -20t12.5 -48q-5 -29 -29.5 -49t-53.5 -20q-30 0 -48 20t-13 49z" />
    <glyph glyph-name="divide" unicode="&#xf7;" horiz-adv-x="583" 
d="M225 65q6 33 32 54t59 21t52.5 -21.5t13.5 -53.5q-6 -33 -32.5 -54.5t-59.5 -21.5t-52 21.5t-13 54.5zM289 424q6 32 32.5 53.5t59.5 21.5t52 -21.5t13 -53.5q-6 -33 -33.5 -54.5t-60.5 -21.5t-51 21.5t-12 54.5zM86 195h479l16 96h-479z" />
    <glyph glyph-name="oslash" unicode="&#xf8;" horiz-adv-x="557" 
d="M277 -8q-81 0 -134 42l-69 -59l-39 47l67 58q-42 63 -26 155q20 108 102 175t184 67q83 0 141 -50l62 54l39 -46l-63 -54q35 -63 21 -146q-19 -108 -101 -175.5t-184 -67.5zM338 341q-44 0 -80 -30t-44 -76q-6 -31 3 -54l170 146q-23 14 -49 14zM300 128q45 0 81 29.5
t44 77.5q4 20 0 44l-166 -143q16 -8 41 -8z" />
    <glyph glyph-name="ugrave" unicode="&#xf9;" 
d="M256 707h138l80 -168h-100zM403 220l44 247h139l-82 -467h-139l10 64q-24 -34 -61.5 -54t-72.5 -20q-82 0 -124.5 51t-25.5 147l49 279h140l-44 -249q-9 -50 13 -71.5t53 -21.5q36 0 64 22.5t37 72.5z" />
    <glyph glyph-name="uacute" unicode="&#xfa;" 
d="M429 707h138l-178 -168h-100zM403 220l44 247h139l-82 -467h-139l10 64q-24 -34 -61.5 -54t-72.5 -20q-82 0 -124.5 51t-25.5 147l49 279h140l-44 -249q-9 -50 13 -71.5t53 -21.5q36 0 64 22.5t37 72.5z" />
    <glyph glyph-name="ucircumflex" unicode="&#xfb;" 
d="M337 711h138l79 -168h-100l-63 89l-94 -89h-100zM403 220l44 247h139l-82 -467h-139l10 64q-24 -34 -61.5 -54t-72.5 -20q-82 0 -124.5 51t-25.5 147l49 279h140l-44 -249q-9 -50 13 -71.5t53 -21.5q36 0 64 22.5t37 72.5z" />
    <glyph glyph-name="udieresis" unicode="&#xfc;" 
d="M227 638q5 28 30.5 48t55.5 20q29 0 46 -20t12 -48q-5 -29 -29.5 -49t-53.5 -20q-30 0 -48 20t-13 49zM404 638q5 28 30.5 48t55.5 20q29 0 46 -20t12 -48q-5 -29 -29.5 -49t-53.5 -20q-30 0 -48 20t-13 49zM403 220l44 247h139l-82 -467h-139l10 64q-24 -34 -61.5 -54
t-72.5 -20q-82 0 -124.5 51t-25.5 147l49 279h140l-44 -249q-9 -50 13 -71.5t53 -21.5q36 0 64 22.5t37 72.5z" />
    <glyph glyph-name="yacute" unicode="&#xfd;" horiz-adv-x="510" 
d="M176 -229l412 696h-148l-152 -265l-55 265h-148l106 -419l-162 -277h147zM402 707h138l-178 -168h-100z" />
    <glyph glyph-name="thorn" unicode="&#xfe;" horiz-adv-x="602" 
d="M245 235q-9 -49 17 -81t71 -32q46 0 82.5 31.5t45.5 81.5q9 49 -17 80t-71 31t-82 -30.5t-46 -80.5zM160 -229h-138l169 950h138l-55 -311q23 31 63.5 49t85.5 18q93 0 147.5 -68t34.5 -177q-19 -107 -97.5 -174.5t-171.5 -67.5q-44 0 -78.5 18t-46.5 50z" />
    <glyph glyph-name="ydieresis" unicode="&#xff;" horiz-adv-x="510" 
d="M176 -229l412 696h-148l-152 -265l-55 265h-148l106 -419l-162 -277h147zM209 638q5 28 30.5 48t55.5 20q29 0 46 -20t12 -48q-5 -29 -29.5 -49t-53.5 -20q-30 0 -48 20t-13 49zM386 638q5 28 30.5 48t55.5 20q29 0 46 -20t12 -48q-5 -29 -29.5 -49t-53.5 -20
q-30 0 -48 20t-13 49z" />
    <glyph glyph-name="Amacron" unicode="&#x100;" horiz-adv-x="659" 
d="M309 290h143l-30 240zM477 163h-238l-89 -163h-156l377 689h159l134 -689h-154zM332 809l16 85h278l-16 -85h-278z" />
    <glyph glyph-name="amacron" unicode="&#x101;" horiz-adv-x="612" 
d="M410 0l10 53q-27 -31 -70.5 -46.5t-76.5 -15.5q-94 0 -154.5 67.5t-41.5 175.5t103 175.5t178 67.5q33 0 70 -14t55 -48l9 52h138l-82 -467h-138zM221 234q-8 -48 21.5 -79.5t75.5 -31.5q45 0 84.5 30.5t48.5 80.5t-20 80.5t-74 30.5q-46 0 -87 -31.5t-49 -79.5zM271 587
l16 85h278l-16 -85h-278z" />
    <glyph glyph-name="Abreve" unicode="&#x102;" horiz-adv-x="659" 
d="M309 290h143l-30 240zM477 163h-238l-89 -163h-156l377 689h159l134 -689h-154zM355 911h85q-9 -53 40 -53q48 0 57 53h87q-11 -59 -55 -95t-104 -36q-65 0 -92.5 38.5t-17.5 92.5z" />
    <glyph glyph-name="abreve" unicode="&#x103;" horiz-adv-x="612" 
d="M410 0l10 53q-27 -31 -70.5 -46.5t-76.5 -15.5q-94 0 -154.5 67.5t-41.5 175.5t103 175.5t178 67.5q33 0 70 -14t55 -48l9 52h138l-82 -467h-138zM221 234q-8 -48 21.5 -79.5t75.5 -31.5q45 0 84.5 30.5t48.5 80.5t-20 80.5t-74 30.5q-46 0 -87 -31.5t-49 -79.5zM293 689
h85q-8 -53 40 -53q49 0 57 53h87q-10 -59 -53.5 -95t-103.5 -36q-65 0 -92.5 38.5t-19.5 92.5z" />
    <glyph glyph-name="Aogonek" unicode="&#x104;" horiz-adv-x="659" 
d="M664 0h-84l-56 -101q-16 -30 7 -42q28 -7 43 19l6 26l78 4q-6 -38 -19 -59q-18 -30 -47.5 -47.5t-59.5 -17.5q-43 0 -69.5 30.5t-18.5 72.5q7 35 18 49l48 66l-33 163h-238l-89 -163h-156l377 689h159zM309 290h143l-30 240z" />
    <glyph glyph-name="aogonek" unicode="&#x105;" horiz-adv-x="612" 
d="M221 234q-8 -48 21.5 -79.5t75.5 -31.5q45 0 84.5 30.5t48.5 80.5t-20 80.5t-74 30.5q-46 0 -87 -31.5t-49 -79.5zM548 0h-68l-56 -101q-7 -13 -4.5 -25t12.5 -17q28 -7 43 19l5 26l78 4q-4 -35 -19 -59q-18 -30 -47.5 -47.5t-59.5 -17.5q-43 0 -69.5 30.5t-18.5 72.5
q7 33 19 49l47 66l10 53q-27 -31 -70.5 -46.5t-76.5 -15.5q-94 0 -154.5 67.5t-41.5 175.5t103 175.5t178 67.5q33 0 70 -14t55 -48l9 52h138z" />
    <glyph glyph-name="Cacute" unicode="&#x106;" horiz-adv-x="699" 
d="M598 223q-36 -43 -86.5 -69t-103.5 -26q-85 0 -130.5 62.5t-29.5 152.5q16 91 84 153.5t153 62.5q52 0 91 -24t60 -66l135 82q-35 68 -103.5 107t-158.5 39q-147 0 -264.5 -103t-143.5 -251q-26 -147 55.5 -250t227.5 -103q92 0 175.5 40.5t140.5 110.5zM604 929h138
l-178 -168h-100z" />
    <glyph glyph-name="cacute" unicode="&#x107;" horiz-adv-x="525" 
d="M76 235q19 107 106 174.5t191 67.5q63 0 112 -26t74 -73l-128 -81q-20 47 -81 47q-47 0 -87 -30.5t-49 -78.5q-9 -49 20.5 -80.5t75.5 -31.5q59 0 100 47l98 -80q-89 -100 -221 -100q-104 0 -167 69t-44 176zM446 707h138l-178 -168h-100z" />
    <glyph glyph-name="Ccircumflex" unicode="&#x108;" horiz-adv-x="699" 
d="M598 223l102 -82q-57 -70 -140.5 -110.5t-175.5 -40.5q-146 0 -227.5 103t-55.5 250q26 148 143.5 251t264.5 103q90 0 158.5 -39t103.5 -107l-135 -82q-21 42 -60 66t-91 24q-85 0 -153 -62.5t-84 -153.5q-16 -90 29.5 -152.5t130.5 -62.5q53 0 103.5 26t86.5 69z
M478 933h138l80 -168h-100l-62 89l-95 -89h-100z" />
    <glyph glyph-name="ccircumflex" unicode="&#x109;" horiz-adv-x="525" 
d="M76 235q19 107 106 174.5t191 67.5q63 0 112 -26t74 -73l-128 -81q-20 47 -81 47q-47 0 -87 -30.5t-49 -78.5q-9 -49 20.5 -80.5t75.5 -31.5q59 0 100 47l98 -80q-89 -100 -221 -100q-104 0 -167 69t-44 176zM338 711h138l80 -168h-100l-63 89l-94 -89h-100z" />
    <glyph glyph-name="Cdotaccent" unicode="&#x10a;" horiz-adv-x="699" 
d="M598 223q-36 -43 -86.5 -69t-103.5 -26q-85 0 -130.5 62.5t-29.5 152.5q16 91 84 153.5t153 62.5q52 0 91 -24t60 -66l135 82q-35 68 -103.5 107t-158.5 39q-147 0 -264.5 -103t-143.5 -251q-26 -147 55.5 -250t227.5 -103q92 0 175.5 40.5t140.5 110.5zM459 867
q6 31 32 52.5t58 21.5t51 -21.5t13 -52.5q-6 -33 -31.5 -54t-58.5 -21t-51.5 21t-12.5 54z" />
    <glyph glyph-name="cdotaccent" unicode="&#x10b;" horiz-adv-x="525" 
d="M76 235q19 107 106 174.5t191 67.5q63 0 112 -26t74 -73l-128 -81q-20 47 -81 47q-47 0 -87 -30.5t-49 -78.5q-9 -49 20.5 -80.5t75.5 -31.5q59 0 100 47l98 -80q-89 -100 -221 -100q-104 0 -167 69t-44 176zM315 645q6 31 32 52.5t58 21.5t51 -21.5t13 -52.5
q-6 -33 -31.5 -54t-57.5 -21q-33 0 -52 21.5t-13 53.5z" />
    <glyph glyph-name="Ccaron" unicode="&#x10c;" horiz-adv-x="699" 
d="M598 223l102 -82q-57 -70 -140.5 -110.5t-175.5 -40.5q-146 0 -227.5 103t-55.5 250q26 148 143.5 251t264.5 103q90 0 158.5 -39t103.5 -107l-135 -82q-21 42 -60 66t-91 24q-85 0 -153 -62.5t-84 -153.5q-16 -90 29.5 -152.5t130.5 -62.5q53 0 103.5 26t86.5 69z
M577 760h-138l-79 168h100l63 -89l94 89h100z" />
    <glyph glyph-name="ccaron" unicode="&#x10d;" horiz-adv-x="525" 
d="M76 235q19 107 106 174.5t191 67.5q63 0 112 -26t74 -73l-128 -81q-20 47 -81 47q-47 0 -87 -30.5t-49 -78.5q-9 -49 20.5 -80.5t75.5 -31.5q59 0 100 47l98 -80q-89 -100 -221 -100q-104 0 -167 69t-44 176zM438 538h-138l-79 168h100l63 -89l94 89h100z" />
    <glyph glyph-name="Dcaron" unicode="&#x10e;" horiz-adv-x="707" 
d="M325 556l-75 -423h124q79 0 132 60t70 150q17 91 -15.5 152t-111.5 61h-124zM351 0h-270l121 689h270q145 0 211 -97.5t39 -248.5t-126.5 -247t-244.5 -96zM544 760h-138l-79 168h100l62 -89l95 89h100z" />
    <glyph glyph-name="dcaron" unicode="&#x10f;" horiz-adv-x="635" 
d="M438 235q9 51 -17.5 81t-71.5 30t-81.5 -31t-45.5 -80q-9 -51 16.5 -82t70.5 -31t82.5 32t46.5 81zM538 0h-138l9 58q-22 -32 -62.5 -50t-85.5 -18q-93 0 -147.5 67.5t-35.5 174.5q20 109 98 177t171 68q45 0 80 -18t45 -49l56 311h138zM717 458l-62 35q41 46 61.5 88
t30.5 108h117q-36 -152 -147 -231z" />
    <glyph glyph-name="Dcroat" unicode="&#x110;" horiz-adv-x="722" 
d="M52 284l17 98h94l54 307h270q145 0 211 -97.5t39 -248.5t-126.5 -247t-244.5 -96h-270l50 284h-94zM292 284l-27 -151h124q79 0 132 60t70 150q17 91 -15.5 152t-111.5 61h-124l-31 -174h123l-17 -98h-123z" />
    <glyph glyph-name="dcroat" unicode="&#x111;" horiz-adv-x="602" 
d="M350 557l14 86h149l15 78h138l-15 -78h76l-14 -86h-76l-99 -557h-138l9 58q-22 -32 -62.5 -50t-85.5 -18q-93 0 -147.5 67.5t-35.5 174.5q20 109 98 177t171 68q45 0 80 -18t45 -49l27 147h-149zM438 235q9 51 -17.5 81t-71.5 30t-81.5 -31t-45.5 -80q-9 -51 16.5 -82
t70.5 -31t82.5 32t46.5 81z" />
    <glyph glyph-name="Emacron" unicode="&#x112;" horiz-adv-x="576" 
d="M81 0l121 689h436l-22 -129h-290l-29 -157h254l-22 -127h-254l-26 -147h299l-22 -129h-445zM286 809l16 85h278l-16 -85h-278z" />
    <glyph glyph-name="emacron" unicode="&#x113;" horiz-adv-x="550" 
d="M240 587l16 85h278l-16 -85h-278zM418 154l89 -69q-81 -95 -230 -95q-103 0 -161.5 68.5t-39.5 176.5t101.5 175t185.5 67q102 0 158.5 -69t37.5 -177q-3 -20 -11 -43h-342q-1 -38 30.5 -58t72.5 -20q66 0 109 44zM225 275h202q2 39 -24.5 59.5t-60.5 20.5t-68 -19.5
t-49 -60.5z" />
    <glyph glyph-name="Ebreve" unicode="&#x114;" horiz-adv-x="576" 
d="M202 689l-121 -689h445l22 129h-299l26 147h254l22 127h-254l29 157h290l22 129h-436zM310 911h85q-9 -53 40 -53q48 0 57 53h87q-11 -59 -55 -95t-104 -36q-65 0 -92.5 38.5t-17.5 92.5z" />
    <glyph glyph-name="ebreve" unicode="&#x115;" horiz-adv-x="550" 
d="M264 689h85q-9 -53 39 -53q25 0 39.5 15t18.5 38h87q-10 -59 -54 -95t-104 -36q-65 0 -92.5 38.5t-18.5 92.5zM418 154l89 -69q-81 -95 -230 -95q-103 0 -161.5 68.5t-39.5 176.5t101.5 175t185.5 67q102 0 158.5 -69t37.5 -177q-3 -20 -11 -43h-342q-1 -38 30.5 -58
t72.5 -20q66 0 109 44zM225 275h202q2 39 -24.5 59.5t-60.5 20.5t-68 -19.5t-49 -60.5z" />
    <glyph glyph-name="Edotaccent" unicode="&#x116;" horiz-adv-x="576" 
d="M202 689l-121 -689h445l22 129h-299l26 147h254l22 127h-254l29 157h290l22 129h-436zM369 867q6 31 32.5 52.5t58.5 21.5t50.5 -21.5t12.5 -52.5q-6 -33 -31.5 -54t-58.5 -21t-51.5 21t-12.5 54z" />
    <glyph glyph-name="edotaccent" unicode="&#x117;" horiz-adv-x="550" 
d="M313 645q6 31 32 52.5t58 21.5t51 -21.5t13 -52.5q-6 -33 -31.5 -54t-57.5 -21q-33 0 -52 21.5t-13 53.5zM418 154l89 -69q-81 -95 -230 -95q-103 0 -161.5 68.5t-39.5 176.5t101.5 175t185.5 67q102 0 158.5 -69t37.5 -177q-3 -20 -11 -43h-342q-1 -38 30.5 -58
t72.5 -20q66 0 109 44zM225 275h202q2 39 -24.5 59.5t-60.5 20.5t-68 -19.5t-49 -60.5z" />
    <glyph glyph-name="Eogonek" unicode="&#x118;" horiz-adv-x="576" 
d="M519 -124l6 26l78 4q-6 -38 -19 -59q-18 -30 -47.5 -47.5t-59.5 -17.5q-43 0 -69.5 30.5t-18.5 72.5q7 33 18 49l48 66h-374l121 689h436l-22 -129h-290l-29 -157h254l-22 -127h-254l-26 -147h299l-22 -129l-57 -101q-7 -13 -5 -25t12 -17q28 -7 43 19z" />
    <glyph glyph-name="eogonek" unicode="&#x119;" horiz-adv-x="551" 
d="M418 154l89 -69q-5 -5 -24.5 -23t-35.5 -35t-38.5 -51.5t-39.5 -76.5q-5 -19 -3.5 -28t11.5 -14q28 -7 43 19l5 26l78 4q-4 -35 -19 -59q-18 -30 -47.5 -47.5t-59.5 -17.5q-43 0 -69.5 30.5t-18.5 72.5q7 33 19 49l46 64q-40 -8 -77 -8q-103 0 -161.5 68.5t-39.5 176.5
t101.5 175t185.5 67q102 0 158.5 -69t37.5 -177q-3 -20 -11 -43h-342q-1 -38 30.5 -58t72.5 -20q66 0 109 44zM225 275h202q2 39 -24.5 59.5t-60.5 20.5t-68 -19.5t-49 -60.5z" />
    <glyph glyph-name="Ecaron" unicode="&#x11a;" horiz-adv-x="576" 
d="M81 0l121 689h436l-22 -129h-290l-29 -157h254l-22 -127h-254l-26 -147h299l-22 -129h-445zM486 760h-138l-79 168h100l62 -89l95 89h100z" />
    <glyph glyph-name="ecaron" unicode="&#x11b;" horiz-adv-x="550" 
d="M440 538h-138l-79 168h100l63 -89l94 89h100zM418 154l89 -69q-81 -95 -230 -95q-103 0 -161.5 68.5t-39.5 176.5t101.5 175t185.5 67q102 0 158.5 -69t37.5 -177q-3 -20 -11 -43h-342q-1 -38 30.5 -58t72.5 -20q66 0 109 44zM225 275h202q2 39 -24.5 59.5t-60.5 20.5
t-68 -19.5t-49 -60.5z" />
    <glyph glyph-name="Gcircumflex" unicode="&#x11c;" horiz-adv-x="756" 
d="M755 584l-124 -93q-50 70 -138 70q-87 0 -158 -64t-87 -154t32 -154.5t134 -64.5q61 0 120.5 34t67.5 85h-185l21 119h354q-32 -186 -139 -279t-262 -93q-148 0 -232 103.5t-58 249.5q26 148 146.5 251t268.5 103q78 0 140 -30t99 -83zM476 933h138l80 -168h-100l-62 89
l-95 -89h-100z" />
    <glyph glyph-name="gcircumflex" unicode="&#x11d;" horiz-adv-x="608" 
d="M447 235q9 50 -19.5 80t-74.5 30t-84.5 -31t-46.5 -79q-9 -51 18 -82.5t73 -31.5q45 0 85 32.5t49 81.5zM155 -33q7 -32 38 -53.5t67 -21.5q140 0 158 166q-21 -31 -63.5 -49.5t-87.5 -18.5q-94 0 -151.5 67.5t-38.5 174.5q20 109 101 177t175 68q45 0 81.5 -18.5
t45.5 -49.5l11 58h135l-71 -402q-26 -148 -107.5 -223t-208.5 -75q-77 0 -132 39.5t-73 105.5q19 8 60.5 27.5t60.5 27.5zM361 711h138l80 -168h-100l-64 89l-93 -89h-100z" />
    <glyph glyph-name="Gbreve" unicode="&#x11e;" horiz-adv-x="756" 
d="M755 584l-124 -93q-50 70 -138 70q-87 0 -158 -64t-87 -154t32 -154.5t134 -64.5q61 0 120.5 34t67.5 85h-185l21 119h354q-32 -186 -139 -279t-262 -93q-148 0 -232 103.5t-58 249.5q26 148 146.5 251t268.5 103q78 0 140 -30t99 -83zM408 911h85q-11 -53 40 -53
q46 0 57 53h87q-11 -59 -55 -95t-104 -36q-65 0 -92.5 38.5t-17.5 92.5z" />
    <glyph glyph-name="gbreve" unicode="&#x11f;" horiz-adv-x="608" 
d="M447 235q-9 -49 -49 -81.5t-85 -32.5q-46 0 -73 31.5t-18 82.5q8 48 46.5 79t84.5 31t74.5 -30t19.5 -80zM155 -33q-19 -8 -60.5 -27.5t-60.5 -27.5q18 -66 73 -105.5t132 -39.5q127 0 208.5 75t107.5 223l71 402h-135l-11 -58q-9 31 -45.5 49.5t-81.5 18.5
q-94 0 -175 -68t-101 -177q-19 -107 38.5 -174.5t151.5 -67.5q45 0 87.5 18.5t63.5 49.5q-18 -166 -158 -166q-36 0 -67 21.5t-38 53.5zM291 689h85q-8 -53 40 -53q49 0 57 53h87q-10 -59 -53.5 -95t-103.5 -36q-65 0 -92.5 38.5t-19.5 92.5z" />
    <glyph glyph-name="Gdotaccent" unicode="&#x120;" horiz-adv-x="756" 
d="M755 584l-124 -93q-50 70 -138 70q-87 0 -158 -64t-87 -154t32 -154.5t134 -64.5q61 0 120.5 34t67.5 85h-185l21 119h354q-32 -186 -139 -279t-262 -93q-148 0 -232 103.5t-58 249.5q26 148 146.5 251t268.5 103q78 0 140 -30t99 -83zM457 867q6 31 32 52.5t58 21.5
t51 -21.5t13 -52.5q-6 -33 -31.5 -54t-58.5 -21t-51.5 21t-12.5 54z" />
    <glyph glyph-name="gdotaccent" unicode="&#x121;" horiz-adv-x="608" 
d="M447 235q-9 -49 -49 -81.5t-85 -32.5q-46 0 -73 31.5t-18 82.5q8 48 46.5 79t84.5 31t74.5 -30t19.5 -80zM155 -33q-19 -8 -60.5 -27.5t-60.5 -27.5q18 -66 73 -105.5t132 -39.5q127 0 208.5 75t107.5 223l71 402h-135l-11 -58q-9 31 -45.5 49.5t-81.5 18.5
q-94 0 -175 -68t-101 -177q-19 -107 38.5 -174.5t151.5 -67.5q45 0 87.5 18.5t63.5 49.5q-18 -166 -158 -166q-36 0 -67 21.5t-38 53.5zM342 645q6 31 32 52.5t58 21.5t51 -21.5t13 -52.5q-6 -33 -31.5 -54t-57.5 -21q-33 0 -52 21.5t-13 53.5z" />
    <glyph glyph-name="Gcommaaccent" unicode="&#x122;" horiz-adv-x="756" 
d="M755 584l-124 -93q-50 70 -138 70q-87 0 -158 -64t-87 -154t32 -154.5t134 -64.5q61 0 120.5 34t67.5 85h-185l21 119h354q-32 -186 -139 -279t-262 -93q-148 0 -232 103.5t-58 249.5q26 148 146.5 251t268.5 103q78 0 140 -30t99 -83zM310 -287l-62 35q40 46 60.5 88
t32.5 108h117q-39 -153 -148 -231z" />
    <glyph glyph-name="gcommaaccent" unicode="&#x123;" horiz-adv-x="608" 
d="M447 235q-9 -49 -49 -81.5t-85 -32.5q-46 0 -73 31.5t-18 82.5q8 48 46.5 79t84.5 31t74.5 -30t19.5 -80zM155 -33q-19 -8 -60.5 -27.5t-60.5 -27.5q18 -66 73 -105.5t132 -39.5q127 0 208.5 75t107.5 223l71 402h-135l-11 -58q-9 31 -45.5 49.5t-81.5 18.5
q-94 0 -175 -68t-101 -177q-19 -107 38.5 -174.5t151.5 -67.5q45 0 87.5 18.5t63.5 49.5q-18 -166 -158 -166q-36 0 -67 21.5t-38 53.5zM460 785l61 -35q-41 -45 -61 -87t-31 -109h-117q41 156 148 231z" />
    <glyph glyph-name="Hcircumflex" unicode="&#x124;" horiz-adv-x="701" 
d="M593 689h148l-121 -689h-148l48 277h-245l-48 -277h-146l121 689h146l-50 -281h245zM446 933h138l80 -168h-100l-63 89l-94 -89h-100z" />
    <glyph glyph-name="hcircumflex" unicode="&#x125;" horiz-adv-x="579" 
d="M246 247l-43 -247h-139l127 721h139l-58 -327q21 40 64.5 61.5t81.5 21.5q91 0 128.5 -58t18.5 -165l-44 -254h-139l43 249q8 43 -13.5 68t-55.5 25q-38 0 -70 -23t-40 -72zM229 940h138l81 -168h-100l-64 89l-93 -89h-100z" />
    <glyph glyph-name="Hbar" unicode="&#x126;" horiz-adv-x="715" 
d="M178 512h-72l15 81h72l16 96h146l-16 -96h245l16 96h148l-16 -96h72l-15 -81h-72l-90 -512h-148l48 277h-245l-48 -277h-146zM305 408h245l19 104h-245z" />
    <glyph glyph-name="hbar" unicode="&#x127;" horiz-adv-x="579" 
d="M246 247l-43 -247h-139l98 557h-76l15 86h76l14 78h139l-14 -78h148l-15 -86h-148l-29 -163q21 40 64.5 61.5t81.5 21.5q91 0 128.5 -58t18.5 -165l-44 -254h-139l43 249q8 43 -13.5 68t-55.5 25q-38 0 -70 -23t-40 -72z" />
    <glyph glyph-name="Itilde" unicode="&#x128;" horiz-adv-x="308" 
d="M202 689h146l-121 -689h-146zM257 828q-7 0 -18 -11t-16 -32h-75q16 67 52 98.5t73 31.5q23 0 46 -20.5t33 -20.5q8 0 18.5 10t15.5 31h75q-15 -66 -51 -97t-73 -31q-21 0 -46 20.5t-34 20.5z" />
    <glyph glyph-name="itilde" unicode="&#x129;" horiz-adv-x="265" 
d="M146 467h137l-82 -467h-137zM206 606q-7 0 -17.5 -11t-15.5 -32h-75q15 67 51 98.5t73 31.5q23 0 46.5 -20.5t33.5 -20.5q8 0 18 10t15 31h75q-14 -66 -50 -97t-73 -31q-21 0 -46 20.5t-35 20.5z" />
    <glyph glyph-name="Imacron" unicode="&#x12a;" horiz-adv-x="308" 
d="M202 689h146l-121 -689h-146zM157 809l16 85h278l-16 -85h-278z" />
    <glyph glyph-name="imacron" unicode="&#x12b;" horiz-adv-x="265" 
d="M146 467h137l-82 -467h-137zM95 587l15 85h278l-15 -85h-278z" />
    <glyph glyph-name="Ibreve" unicode="&#x12c;" horiz-adv-x="308" 
d="M202 689h146l-121 -689h-146zM181 911h85q-9 -53 40 -53q48 0 57 53h87q-11 -59 -55 -95t-104 -36q-65 0 -92.5 38.5t-17.5 92.5z" />
    <glyph glyph-name="ibreve" unicode="&#x12d;" horiz-adv-x="265" 
d="M283 467h-137l-82 -467h137zM119 689h85q-8 -53 40 -53t57 53h87q-10 -59 -54 -95t-104 -36q-65 0 -92.5 38.5t-18.5 92.5z" />
    <glyph glyph-name="Iogonek" unicode="&#x12e;" horiz-adv-x="308" 
d="M226 0h-76l-56 -101q-16 -31 8 -42q27 -7 42 19l6 26l78 4q-6 -38 -19 -59q-18 -30 -47.5 -47.5t-59.5 -17.5q-43 0 -69 30.5t-19 72.5q4 30 18 49l48 66l121 689h146z" />
    <glyph glyph-name="iogonek" unicode="&#x12f;" horiz-adv-x="266" 
d="M134 0h68l82 467h-138l-82 -467l-48 -66q-5 -7 -8 -14.5t-4 -12t-2 -12t-2 -10.5q-8 -42 17.5 -72.5t68.5 -30.5q30 0 59.5 17.5t47.5 47.5q13 21 19 59l-78 -4q-1 -13 -6 -26q-15 -26 -42 -19q-24 11 -8 42zM159 640q6 34 35.5 57.5t65.5 23.5q35 0 56 -23.5t15 -57.5
t-35.5 -58t-64.5 -24t-56.5 24t-15.5 58z" />
    <glyph glyph-name="Idotaccent" unicode="&#x130;" horiz-adv-x="308" 
d="M202 689h146l-121 -689h-146zM230 867q6 31 32.5 52.5t58.5 21.5t50.5 -21.5t12.5 -52.5q-6 -33 -31.5 -54t-58.5 -21t-51.5 21t-12.5 54z" />
    <glyph glyph-name="dotlessi" unicode="&#x131;" horiz-adv-x="266" 
d="M284 467l-82 -467h-138l82 467h138z" />
    <glyph glyph-name="IJ" unicode="&#x132;" horiz-adv-x="617" 
d="M202 689h146l-121 -689h-146zM169 -219l37 132q30 -11 86 -11q40 0 64 26.5t32 68.5l122 692h147l-122 -692q-19 -103 -85.5 -168t-182.5 -65q-32 0 -98 17z" />
    <glyph glyph-name="ij" unicode="&#x133;" horiz-adv-x="534" 
d="M284 467l-82 -467h-138l82 467h138zM159 640q6 34 35.5 57.5t65.5 23.5q35 0 56 -23.5t15 -57.5t-35.5 -58t-64.5 -24t-56.5 24t-15.5 58zM166 -235l21 126h61q35 0 52.5 22t22.5 52l89 502h140l-88 -499q-18 -99 -68 -151t-145 -52h-85zM426 640q6 34 35.5 57.5
t65.5 23.5t57 -23.5t15 -57.5t-35.5 -58t-65.5 -24q-35 0 -56.5 24t-15.5 58z" />
    <glyph glyph-name="Jcircumflex" unicode="&#x134;" horiz-adv-x="309" 
d="M-137 -219l37 132q30 -11 86 -11q39 0 62.5 26.5t31.5 68.5l122 692h147l-122 -692q-19 -103 -85 -168t-181 -65q-32 0 -98 17zM250 933h138l80 -168h-100l-63 89l-94 -89h-100z" />
    <glyph glyph-name="jcircumflex" unicode="&#x135;" horiz-adv-x="268" 
d="M-98 -235l21 126h61q33 0 50.5 22t22.5 52l89 502h140l-89 -499q-17 -99 -67 -151t-143 -52h-85zM202 711h138l80 -168h-100l-63 89l-94 -89h-100z" />
    <glyph glyph-name="Kcommaaccent" unicode="&#x136;" horiz-adv-x="609" 
d="M363 348l263 -348h-190l-167 234l-40 -234h-148l121 689h148l-40 -226l203 226h172zM236 -287l-62 35q41 46 61.5 88t31.5 108h117q-39 -153 -148 -231z" />
    <glyph glyph-name="kcommaaccent" unicode="&#x137;" horiz-adv-x="526" 
d="M234 185l-32 -185h-138l127 721h138l-67 -382l133 128h177l-231 -206l188 -261h-171zM179 -287l-62 35q41 46 61.5 88t31.5 108h117q-39 -153 -148 -231z" />
    <glyph glyph-name="kgreenlandic" unicode="&#x138;" horiz-adv-x="511" 
d="M328 0l-103 144l-24 -144h-137l82 467h137l-24 -136l138 136h173l-246 -230l185 -237h-181z" />
    <glyph glyph-name="Lacute" unicode="&#x139;" horiz-adv-x="511" 
d="M202 689l-121 -689h405l22 129h-258l99 560h-147zM357 929h138l-178 -168h-100z" />
    <glyph glyph-name="lacute" unicode="&#x13a;" horiz-adv-x="267" 
d="M191 721h139l-127 -721h-139zM341 939h138l-178 -168h-100z" />
    <glyph glyph-name="Lcommaaccent" unicode="&#x13b;" horiz-adv-x="511" 
d="M81 0l121 689h147l-99 -560h258l-22 -129h-405zM182 -287l-62 35q41 46 61.5 88t31.5 108h117q-39 -153 -148 -231z" />
    <glyph glyph-name="lcommaaccent" unicode="&#x13c;" horiz-adv-x="267" 
d="M191 721h139l-127 -721h-139zM37 -287l-60 35q39 46 59 88t32 108h117q-39 -153 -148 -231z" />
    <glyph glyph-name="Lcaron" unicode="&#x13d;" horiz-adv-x="516" 
d="M81 0l121 689h147l-99 -560h258l-22 -129h-405zM455 428l-78 29q95 110 114 232h117q-22 -90 -65.5 -159.5t-87.5 -101.5z" />
    <glyph glyph-name="lcaron" unicode="&#x13e;" horiz-adv-x="311" 
d="M191 721h139l-127 -721h-139zM397 460l-79 29q95 106 116 232h117q-23 -91 -66.5 -160.5t-87.5 -100.5z" />
    <glyph glyph-name="Ldot" unicode="&#x13f;" horiz-adv-x="511" 
d="M81 0l121 689h147l-99 -560h258l-22 -129h-405zM353 307q6 32 31.5 53t57.5 21q33 0 52 -21.5t13 -52.5q-6 -33 -32 -54t-59 -21t-51 21t-12 54z" />
    <glyph glyph-name="ldot" unicode="&#x140;" horiz-adv-x="380" 
d="M191 721h139l-127 -721h-139zM300 307q6 32 31.5 53t57.5 21q33 0 52 -21.5t13 -52.5q-6 -33 -32 -54t-59 -21t-51 21t-12 54z" />
    <glyph glyph-name="Lslash" unicode="&#x141;" horiz-adv-x="519" 
d="M139 291l-79 -45l17 95l81 45l52 303h147l-37 -211l103 58l-16 -95l-103 -58l-46 -254h258l-22 -129h-405z" />
    <glyph glyph-name="lslash" unicode="&#x142;" horiz-adv-x="316" 
d="M367 721l-45 -255l95 54l-16 -95l-96 -54l-65 -371h-139l50 284l-98 -54l18 95l96 54l61 342h139z" />
    <glyph glyph-name="Nacute" unicode="&#x143;" horiz-adv-x="679" 
d="M552 929h138l-178 -168h-100zM598 0l121 689h-147l-73 -412l-163 412h-134l-121 -689h146l73 417l167 -417h131z" />
    <glyph glyph-name="nacute" unicode="&#x144;" 
d="M246 247l-43 -247h-139l82 467h139l-12 -68q25 35 66 56.5t83 21.5q81 0 117 -50t19 -148l-49 -279h-139l43 249q9 45 -9 69t-55 24q-87 0 -103 -95zM441 707h138l-178 -168h-100z" />
    <glyph glyph-name="Ncommaaccent" unicode="&#x145;" horiz-adv-x="679" 
d="M719 689l-121 -689h-131l-168 411l-72 -411h-146l121 689h134l165 -406l71 406h147zM252 -287l-62 35q41 46 61.5 88t31.5 108h117q-39 -153 -148 -231z" />
    <glyph glyph-name="ncommaaccent" unicode="&#x146;" 
d="M246 247l-43 -247h-139l82 467h139l-12 -68q25 35 66 56.5t83 21.5q81 0 117 -50t19 -148l-49 -279h-139l43 249q9 45 -9 69t-55 24q-87 0 -103 -95zM202 -287l-62 35q41 46 61.5 88t31.5 108h117q-39 -153 -148 -231z" />
    <glyph glyph-name="Ncaron" unicode="&#x147;" horiz-adv-x="679" 
d="M542 760h-138l-79 168h100l62 -89l95 89h100zM719 689l-121 -689h-131l-167 417l-73 -417h-146l121 689h134l163 -412l73 412h147z" />
    <glyph glyph-name="ncaron" unicode="&#x148;" 
d="M246 247l-43 -247h-139l82 467h139l-12 -68q25 35 66 56.5t83 21.5q81 0 117 -50t19 -148l-49 -279h-139l43 249q9 45 -9 69t-55 24q-87 0 -103 -95zM447 538h-138l-79 168h100l62 -89l95 89h100z" />
    <glyph glyph-name="napostrophe" unicode="&#x149;" 
d="M245 247l-42 -247h-139l81 467h139l-11 -68q25 35 66 56.5t82 21.5q80 0 116.5 -50t20.5 -148l-49 -279h-139l42 249q9 45 -8.5 69t-54.5 24q-87 0 -104 -95zM65 469l-70 22q35 39 49 77.5t16 92.5h118q-21 -127 -113 -192z" />
    <glyph glyph-name="Eng" unicode="&#x14a;" horiz-adv-x="679" 
d="M461 16l-161 401l-73 -417h-146l121 689h134l163 -412l73 412h147l-120 -676q-18 -105 -84 -171.5t-182 -66.5q-37 0 -99 17l41 144q36 -14 92 -14q36 2 62 30t32 64z" />
    <glyph glyph-name="eng" unicode="&#x14b;" 
d="M558 279l-45 -247q-18 -100 -79 -162t-170 -62q-22 0 -61 10l35 128q25 -8 49 -8q37 0 58.5 26.5t29.5 65.5l38 219q8 45 -9.5 69t-54.5 24q-87 0 -103 -95l-43 -247h-139l82 467h139l-12 -68q25 35 66 56.5t83 21.5q81 0 117 -50t19 -148z" />
    <glyph glyph-name="Omacron" unicode="&#x14c;" horiz-adv-x="781" 
d="M247 343q-15 -87 32.5 -147.5t132.5 -60.5t156 61t86 147q16 86 -33 147.5t-134 61.5t-154.5 -61t-85.5 -148zM101 343q26 147 145.5 250.5t265.5 103.5q147 0 230.5 -103.5t57.5 -250.5q-26 -146 -146.5 -249.5t-266.5 -103.5t-229 103.5t-57 249.5zM392 809l17 85h278
l-17 -85h-278z" />
    <glyph glyph-name="omacron" unicode="&#x14d;" horiz-adv-x="557" 
d="M299 128q45 0 81 29.5t44 77.5q8 47 -17 76.5t-69 29.5t-80.5 -30t-44.5 -76q-8 -48 17 -77.5t69 -29.5zM276 -8q-102 0 -160.5 67.5t-39.5 175.5t101 175t184 67t160.5 -67t39.5 -175t-101 -175.5t-184 -67.5zM241 587l16 85h278l-16 -85h-278z" />
    <glyph glyph-name="Obreve" unicode="&#x14e;" horiz-adv-x="781" 
d="M247 343q16 87 85.5 148t154.5 61t134 -61.5t33 -147.5q-15 -86 -86 -147t-156 -61t-132.5 60.5t-32.5 147.5zM101 343q-26 -146 57 -249.5t229 -103.5t266.5 103.5t146.5 249.5q26 147 -57.5 250.5t-230.5 103.5q-146 0 -265.5 -103.5t-145.5 -250.5zM417 911h85
q-11 -53 40 -53q46 0 57 53h87q-11 -59 -55 -95t-104 -36q-65 0 -92.5 38.5t-17.5 92.5z" />
    <glyph glyph-name="obreve" unicode="&#x14f;" horiz-adv-x="557" 
d="M299 128q-44 0 -69 29.5t-17 77.5q8 46 44.5 76t80.5 30t69 -29.5t17 -76.5q-8 -48 -44 -77.5t-81 -29.5zM276 -8q102 0 184 67.5t101 175.5t-39.5 175t-160.5 67t-184 -67t-101 -175t39.5 -175.5t160.5 -67.5zM265 689h85q-9 -53 39 -53q25 0 39.5 15t18.5 38h87
q-10 -59 -54 -95t-104 -36q-65 0 -92.5 38.5t-18.5 92.5z" />
    <glyph glyph-name="Ohungarumlaut" unicode="&#x150;" horiz-adv-x="781" 
d="M247 343q-15 -87 32.5 -147.5t132.5 -60.5t156 61t86 147q16 86 -33 147.5t-134 61.5t-154.5 -61t-85.5 -148zM101 343q26 147 145.5 250.5t265.5 103.5q147 0 230.5 -103.5t57.5 -250.5q-26 -146 -146.5 -249.5t-266.5 -103.5t-229 103.5t-57 249.5zM541 928h111
l-151 -168h-100zM701 928h114l-162 -168h-105z" />
    <glyph glyph-name="ohungarumlaut" unicode="&#x151;" horiz-adv-x="557" 
d="M299 128q45 0 81 29.5t44 77.5q8 47 -17 76.5t-69 29.5t-80.5 -30t-44.5 -76q-8 -48 17 -77.5t69 -29.5zM276 -8q-102 0 -160.5 67.5t-39.5 175.5t101 175t184 67t160.5 -67t39.5 -175t-101 -175.5t-184 -67.5zM388 706h111l-151 -168h-100zM548 706h114l-162 -168h-105z
" />
    <glyph glyph-name="OE" unicode="&#x152;" horiz-adv-x="1091" 
d="M705 620l12 69h436l-22 -129h-290l-29 -157h254l-22 -127h-254l-27 -147h299l-21 -129h-445l10 67q-100 -77 -219 -77q-146 0 -229 103.5t-57 249.5q26 147 145.5 250.5t265.5 103.5q126 0 193 -77zM247 343q-15 -87 32.5 -147.5t132.5 -60.5t156 61t86 147
q16 86 -33 147.5t-134 61.5t-154.5 -61t-85.5 -148z" />
    <glyph glyph-name="oe" unicode="&#x153;" horiz-adv-x="901" 
d="M462 63q-82 -71 -186 -71q-102 0 -160.5 67.5t-39.5 175.5t101 175t184 67q106 0 163 -71q84 71 190 71q102 0 158.5 -69t37.5 -177q-3 -20 -11 -43h-342q-1 -38 30.5 -58t72.5 -20q66 0 109 44l89 -69q-81 -95 -230 -95q-107 0 -166 73zM299 128q45 0 81 29.5t44 77.5
q8 47 -17 76.5t-69 29.5t-80.5 -30t-44.5 -76q-8 -48 17 -77.5t69 -29.5zM576 275h202q2 39 -24.5 59.5t-60.5 20.5t-68 -19.5t-49 -60.5z" />
    <glyph glyph-name="Racute" unicode="&#x154;" horiz-adv-x="637" 
d="M455 560q38 0 55 -30.5t10 -66.5q-7 -37 -35.5 -67t-68.5 -30h-124l35 194h128zM462 244q88 18 142.5 79t68.5 140q16 93 -31.5 159.5t-157.5 66.5h-282l-121 -689h147l41 238h33l113 -238h176zM505 929h138l-178 -168h-100z" />
    <glyph glyph-name="racute" unicode="&#x155;" horiz-adv-x="423" 
d="M307 707h138l-178 -168h-100zM231 163l-28 -163h-139l82 467h139l-20 -113q27 61 70.5 92t83.5 31q47 0 76 -17l-46 -125q-28 14 -69 14q-116 0 -149 -186z" />
    <glyph glyph-name="Rcommaaccent" unicode="&#x156;" horiz-adv-x="637" 
d="M455 560h-128l-35 -194h124q40 0 68.5 30t35.5 67q7 36 -10 66.5t-55 30.5zM462 244l129 -244h-176l-113 238h-33l-41 -238h-147l121 689h282q110 0 157.5 -66.5t31.5 -159.5q-14 -79 -68.5 -140t-142.5 -79zM234 -287l-62 35q41 46 61.5 88t31.5 108h117
q-39 -153 -148 -231z" />
    <glyph glyph-name="rcommaaccent" unicode="&#x157;" horiz-adv-x="423" 
d="M35 -287l-60 35q39 46 59 88t32 108h117q-39 -153 -148 -231zM231 163l-28 -163h-139l81 467h139l-20 -113q28 61 71 92t83 31q46 0 77 -17l-46 -125q-28 14 -69 14q-116 0 -149 -186z" />
    <glyph glyph-name="Rcaron" unicode="&#x158;" horiz-adv-x="637" 
d="M455 560h-128l-35 -194h124q40 0 68.5 30t35.5 67q7 36 -10 66.5t-55 30.5zM462 244l129 -244h-176l-113 238h-33l-41 -238h-147l121 689h282q110 0 157.5 -66.5t31.5 -159.5q-14 -79 -68.5 -140t-142.5 -79zM517 760h-138l-79 168h100l62 -89l95 89h100z" />
    <glyph glyph-name="rcaron" unicode="&#x159;" horiz-adv-x="423" 
d="M383 538h-138l-79 168h100l62 -89l95 89h100zM231 163l-28 -163h-139l82 467h139l-20 -113q27 61 70.5 92t83.5 31q47 0 76 -17l-46 -125q-28 14 -69 14q-116 0 -149 -186z" />
    <glyph glyph-name="Sacute" unicode="&#x15a;" horiz-adv-x="582" 
d="M226 202h-147q-17 -94 42 -153.5t171 -59.5q100 0 182 52.5t101 149.5q30 151 -151 209l-78 25q-70 23 -62 70q5 30 34 49.5t68 19.5q42 0 61.5 -21.5t13.5 -56.5h146q18 97 -38 154t-158 57q-101 0 -179 -57.5t-94 -148.5q-26 -146 142 -197l80 -24q46 -13 60 -32.5
t8 -45.5q-6 -33 -37.5 -53t-76.5 -20q-47 0 -69.5 24t-18.5 59zM501 929h138l-178 -168h-100z" />
    <glyph glyph-name="sacute" unicode="&#x15b;" horiz-adv-x="467" 
d="M217 192l59 -16q45 -12 39 -40q-3 -17 -21.5 -28t-42.5 -11q-28 0 -45 16.5t-14 37.5h-130q-13 -74 38 -117.5t128 -43.5q81 0 148 38t80 108q5 11 1.5 30t-10.5 38t-31.5 38t-62.5 30l-75 21q-39 10 -35 35q2 16 17.5 25.5t37.5 9.5q21 0 35 -9t11 -32h131
q13 79 -36.5 117t-128.5 38q-73 0 -133.5 -40.5t-71.5 -92.5q-3 -18 -4.5 -29t2 -31.5t15 -34.5t36.5 -30t63 -27zM403 707h138l-178 -168h-100z" />
    <glyph glyph-name="Scircumflex" unicode="&#x15c;" horiz-adv-x="582" 
d="M79 202h147q-4 -35 18.5 -59t69.5 -24q45 0 76.5 20t37.5 53q6 26 -8 45.5t-60 32.5l-80 24q-168 51 -142 197q16 91 94 148.5t179 57.5q102 0 158 -57t38 -154h-146q6 35 -13.5 56.5t-61.5 21.5q-39 0 -68 -19.5t-34 -49.5q-8 -47 62 -70l78 -25q181 -58 151 -209
q-19 -97 -101 -149.5t-182 -52.5q-112 0 -171 59.5t-42 153.5zM389 933h138l80 -168h-100l-63 89l-94 -89h-100z" />
    <glyph glyph-name="scircumflex" unicode="&#x15d;" horiz-adv-x="467" 
d="M276 176l-59 16q-38 11 -63 27t-36.5 30t-15 34.5t-2 31.5t4.5 29q11 52 71.5 92.5t133.5 40.5q79 0 128.5 -38t36.5 -117h-131q3 23 -11 32t-35 9q-22 0 -37.5 -9.5t-17.5 -25.5q-4 -25 35 -35l75 -21q38 -11 62.5 -30t31.5 -38t10.5 -38t-1.5 -30q-13 -70 -80 -108
t-148 -38q-77 0 -128 43.5t-38 117.5h130q-3 -21 14 -37.5t45 -16.5q24 0 42.5 11t21.5 28q6 28 -39 40zM290 711h138l80 -168h-100l-63 89l-94 -89h-100z" />
    <glyph glyph-name="Scedilla" unicode="&#x15e;" horiz-adv-x="581" 
d="M244 -124q5 -26 35 -19q28 11 23 42l-18 90q-109 2 -166 61.5t-40 151.5h147q-4 -35 18.5 -59t69.5 -24q45 0 76 20t38 53q5 27 -8.5 46t-59.5 32l-80 23q-167 55 -142 198q16 91 94 148.5t179 57.5q102 0 158 -57t38 -154h-146q6 35 -13.5 56.5t-61.5 21.5
q-39 0 -68 -19.5t-34 -49.5q-8 -49 62 -70l77 -26q184 -56 152 -208q-16 -81 -77.5 -131t-143.5 -65l23 -61q8 -18 1 -49q-7 -42 -44.5 -72.5t-81.5 -30.5q-30 0 -52.5 17.5t-30.5 47.5q-4 18 3 59l76 -4q-1 -1 -1.5 -3.5t-1.5 -10t0 -12.5z" />
    <glyph glyph-name="scedilla" unicode="&#x15f;" horiz-adv-x="468" 
d="M185 -124q5 -26 35 -19q30 12 23 42l-18 91q-75 1 -125 44.5t-38 116.5h130q-3 -21 14 -37.5t45 -16.5q24 1 42.5 11.5t21.5 27.5q6 28 -39 40l-58 16q-38 11 -63.5 26.5t-36.5 30t-15 35t-2.5 31.5t4.5 29q11 52 72 92.5t134 40.5q79 0 128 -38t36 -117h-131
q3 23 -10.5 32t-34.5 9q-23 0 -38.5 -9.5t-17.5 -25.5q-4 -25 35 -35l75 -21q38 -11 62.5 -30t31.5 -38t10.5 -38t-1.5 -30q-10 -55 -54.5 -90.5t-106.5 -48.5l22 -63q8 -19 2 -49q-7 -42 -44.5 -72.5t-81.5 -30.5q-30 0 -53 17.5t-31 47.5q-4 18 3 59l77 -4z" />
    <glyph glyph-name="Scaron" unicode="&#x160;" horiz-adv-x="582" 
d="M79 202h147q-4 -35 18.5 -59t69.5 -24q45 0 76.5 20t37.5 53q6 26 -8 45.5t-60 32.5l-80 24q-168 51 -142 197q16 91 94 148.5t179 57.5q102 0 158 -57t38 -154h-146q6 35 -13.5 56.5t-61.5 21.5q-39 0 -68 -19.5t-34 -49.5q-8 -47 62 -70l78 -25q181 -58 151 -209
q-19 -97 -101 -149.5t-182 -52.5q-112 0 -171 59.5t-42 153.5zM496 760h-138l-79 168h100l63 -89l94 89h100z" />
    <glyph glyph-name="scaron" unicode="&#x161;" horiz-adv-x="467" 
d="M276 176l-59 16q-38 11 -63 27t-36.5 30t-15 34.5t-2 31.5t4.5 29q11 52 71.5 92.5t133.5 40.5q79 0 128.5 -38t36.5 -117h-131q3 23 -11 32t-35 9q-22 0 -37.5 -9.5t-17.5 -25.5q-4 -25 35 -35l75 -21q38 -11 62.5 -30t31.5 -38t10.5 -38t-1.5 -30q-13 -70 -80 -108
t-148 -38q-77 0 -128 43.5t-38 117.5h130q-3 -21 14 -37.5t45 -16.5q24 0 42.5 11t21.5 28q6 28 -39 40zM397 538h-138l-79 168h100l63 -89l94 89h100z" />
    <glyph glyph-name="Tcommaaccent" unicode="&#x162;" horiz-adv-x="576" 
d="M126 557l23 132h520l-23 -132h-186l-98 -557h-148l98 557h-186zM190 -287l-62 35q40 46 60.5 88t32.5 108h117q-39 -153 -148 -231z" />
    <glyph glyph-name="tcommaaccent" unicode="&#x163;" horiz-adv-x="365" 
d="M327 467h98l-20 -110h-98l-61 -357h-138l61 357h-85l20 110h85l32 179h138zM78 -287l-62 35q40 46 60.5 88t32.5 108h117q-39 -153 -148 -231z" />
    <glyph glyph-name="Tcaron" unicode="&#x164;" horiz-adv-x="576" 
d="M126 557l23 132h520l-23 -132h-186l-98 -557h-148l98 557h-186zM490 760h-138l-78 168h100l62 -89l95 89h100z" />
    <glyph glyph-name="tcaron" unicode="&#x165;" horiz-adv-x="365" 
d="M328 467h98l-20 -110h-98l-62 -357h-138l62 357h-85l20 110h85l32 179h138zM448 522l-60 35q40 47 60.5 89t31.5 107h117q-39 -154 -149 -231z" />
    <glyph glyph-name="Tbar" unicode="&#x166;" horiz-adv-x="576" 
d="M126 557l23 132h520l-23 -132h-186l-98 -557h-148l98 557h-186zM291 809l16 85h278l-16 -85h-278z" />
    <glyph glyph-name="tbar" unicode="&#x167;" horiz-adv-x="366" 
d="M108 0l31 183h-53l15 77h53l16 97h-85l20 110h85l32 179h138l-32 -179h98l-20 -110h-98l-16 -97h70l-15 -77h-70l-31 -183h-138z" />
    <glyph glyph-name="Utilde" unicode="&#x168;" horiz-adv-x="682" 
d="M363 128q48 0 89.5 33.5t50.5 84.5l79 443h147l-79 -443q-20 -113 -110.5 -184.5t-200.5 -71.5t-176.5 71t-46.5 185l79 443h149l-79 -443q-9 -52 20.5 -85t77.5 -33zM442 828q-8 0 -18.5 -11t-14.5 -32h-75q15 67 51 98.5t74 31.5q23 0 45.5 -20.5t32.5 -20.5q8 0 19 10
t16 31h75q-16 -67 -52 -97.5t-72 -30.5q-21 0 -46 20.5t-35 20.5z" />
    <glyph glyph-name="utilde" unicode="&#x169;" 
d="M403 220l44 247h139l-82 -467h-139l10 64q-24 -34 -61.5 -54t-72.5 -20q-82 0 -124.5 51t-25.5 147l49 279h140l-44 -249q-9 -50 13 -71.5t53 -21.5q36 0 64 22.5t37 72.5zM354 606q-7 0 -17.5 -11t-15.5 -32h-75q15 67 51 98.5t73 31.5q23 0 46.5 -20.5t33.5 -20.5
q8 0 18 10t15 31h75q-14 -66 -50 -97t-73 -31q-21 0 -46 20.5t-35 20.5z" />
    <glyph glyph-name="Umacron" unicode="&#x16a;" horiz-adv-x="682" 
d="M363 128q48 0 89.5 33.5t50.5 84.5l79 443h147l-79 -443q-20 -113 -110.5 -184.5t-200.5 -71.5t-176.5 71t-46.5 185l79 443h149l-79 -443q-9 -52 20.5 -85t77.5 -33zM343 809l17 85h278l-17 -85h-278z" />
    <glyph glyph-name="umacron" unicode="&#x16b;" 
d="M403 220l44 247h139l-82 -467h-139l10 64q-24 -34 -61.5 -54t-72.5 -20q-82 0 -124.5 51t-25.5 147l49 279h140l-44 -249q-9 -50 13 -71.5t53 -21.5q36 0 64 22.5t37 72.5zM255 587l15 85h278l-15 -85h-278z" />
    <glyph glyph-name="Ubreve" unicode="&#x16c;" horiz-adv-x="682" 
d="M363 128q48 0 89.5 33.5t50.5 84.5l79 443h147l-79 -443q-20 -113 -110.5 -184.5t-200.5 -71.5t-176.5 71t-46.5 185l79 443h149l-79 -443q-9 -52 20.5 -85t77.5 -33zM367 911h85q-11 -53 40 -53q46 0 57 53h87q-11 -59 -55 -95t-104 -36q-65 0 -92.5 38.5t-17.5 92.5z
" />
    <glyph glyph-name="ubreve" unicode="&#x16d;" 
d="M403 220l44 247h139l-82 -467h-139l10 64q-24 -34 -61.5 -54t-72.5 -20q-82 0 -124.5 51t-25.5 147l49 279h140l-44 -249q-9 -50 13 -71.5t53 -21.5q36 0 64 22.5t37 72.5zM278 689h85q-8 -53 40 -53t57 53h87q-10 -59 -54 -95t-104 -36q-65 0 -92.5 38.5t-18.5 92.5z
" />
    <glyph glyph-name="Uring" unicode="&#x16e;" horiz-adv-x="682" 
d="M363 128q48 0 89.5 33.5t50.5 84.5l79 443h147l-79 -443q-20 -113 -110.5 -184.5t-200.5 -71.5t-176.5 71t-46.5 185l79 443h149l-79 -443q-9 -52 20.5 -85t77.5 -33zM375 881q9 52 50.5 87.5t91.5 35.5q51 0 80 -35.5t20 -87.5q-9 -50 -51 -85t-93 -35q-50 0 -78.5 35
t-19.5 85zM440 881q-4 -23 9 -39t36 -16q24 0 43 16t24 39q4 25 -9.5 41.5t-37.5 16.5q-23 0 -41.5 -16.5t-23.5 -41.5z" />
    <glyph glyph-name="uring" unicode="&#x16f;" 
d="M403 220l44 247h139l-82 -467h-139l10 64q-24 -34 -61.5 -54t-72.5 -20q-82 0 -124.5 51t-25.5 147l49 279h140l-44 -249q-9 -50 13 -71.5t53 -21.5q36 0 64 22.5t37 72.5zM286 659q9 52 50.5 87.5t91.5 35.5q51 0 80 -35.5t20 -87.5q-9 -50 -50.5 -85t-92.5 -35
q-50 0 -79 35t-20 85zM351 659q-4 -23 9 -39t36 -16q24 0 43.5 16t23.5 39q4 25 -9.5 41.5t-37.5 16.5q-23 0 -41.5 -16.5t-23.5 -41.5z" />
    <glyph glyph-name="Uhungarumlaut" unicode="&#x170;" horiz-adv-x="682" 
d="M363 128q48 0 89.5 33.5t50.5 84.5l79 443h147l-79 -443q-20 -113 -110.5 -184.5t-200.5 -71.5t-176.5 71t-46.5 185l79 443h149l-79 -443q-9 -52 20.5 -85t77.5 -33zM458 928h111l-151 -168h-100zM618 928h114l-162 -168h-105z" />
    <glyph glyph-name="uhungarumlaut" unicode="&#x171;" 
d="M403 220l44 247h139l-82 -467h-139l10 64q-24 -34 -61.5 -54t-72.5 -20q-82 0 -124.5 51t-25.5 147l49 279h140l-44 -249q-9 -50 13 -71.5t53 -21.5q36 0 64 22.5t37 72.5zM372 706h111l-151 -168h-100zM532 706h114l-162 -168h-105z" />
    <glyph glyph-name="Uogonek" unicode="&#x172;" horiz-adv-x="684" 
d="M367 -9l-51 -92q-16 -30 7 -42q28 -7 43 19l6 26l77 4q-4 -35 -19 -59q-18 -30 -47 -47.5t-59 -17.5q-43 0 -69.5 30.5t-18.5 72.5q7 33 18 49l43 60q-94 14 -145.5 82t-33.5 170l78 443h148l-78 -443q-9 -52 21 -85t78 -33q47 0 88.5 33t50.5 85l78 443h148l-78 -443
q-19 -107 -101 -176.5t-184 -78.5z" />
    <glyph glyph-name="uogonek" unicode="&#x173;" 
d="M316 -66l49 66l10 64q-24 -34 -61.5 -54t-72.5 -20q-82 0 -124.5 51t-25.5 147l49 279h140l-44 -249q-9 -50 13 -71.5t53 -21.5q36 0 64 22.5t37 72.5l44 247h139l-82 -467h-70l-56 -101q-16 -30 7 -42q28 -7 43 19l6 26l78 4q-6 -38 -19 -59q-18 -30 -47.5 -47.5
t-59.5 -17.5q-43 0 -69.5 30.5t-18.5 72.5q7 33 18 49z" />
    <glyph glyph-name="Wcircumflex" unicode="&#x174;" horiz-adv-x="886" 
d="M639 255l211 434h159l-355 -689h-115l-34 362l-158 -362h-116l-111 689h158l58 -434l151 337h120zM539 933h138l80 -168h-100l-63 89l-94 -89h-100z" />
    <glyph glyph-name="wcircumflex" unicode="&#x175;" horiz-adv-x="763" 
d="M835 467l-246 -467h-116l-40 297l-140 -297h-116l-87 467h148l34 -278l131 278h119l33 -278l132 278h148zM437 711h138l80 -168h-100l-64 89l-93 -89h-100z" />
    <glyph glyph-name="Ycircumflex" unicode="&#x176;" horiz-adv-x="651" 
d="M400 0h-149l55 312l-200 377h174l121 -258l213 258h174l-334 -379zM421 933h138l80 -168h-100l-63 89l-94 -89h-100z" />
    <glyph glyph-name="ycircumflex" unicode="&#x177;" horiz-adv-x="510" 
d="M588 467l-412 -696h-147l162 277l-106 419h148l55 -265l152 265h148zM314 711h138l80 -168h-100l-64 89l-93 -89h-100z" />
    <glyph glyph-name="Ydieresis" unicode="&#x178;" horiz-adv-x="651" 
d="M400 0h-149l55 312l-200 377h174l121 -258l213 258h174l-334 -379zM316 860q5 28 30.5 48t55.5 20q29 0 46 -20t12 -48q-5 -29 -29 -49t-53 -20q-30 0 -48.5 20t-13.5 49zM493 860q5 28 30.5 48t55.5 20q29 0 46 -20t12 -48q-5 -29 -29 -49t-53 -20q-30 0 -48.5 20
t-13.5 49z" />
    <glyph glyph-name="Zacute" unicode="&#x179;" horiz-adv-x="595" 
d="M61 111l395 449h-302l22 129h492l-20 -111l-397 -449h318l-22 -129h-505zM499 929h138l-178 -168h-100z" />
    <glyph glyph-name="zacute" unicode="&#x17a;" horiz-adv-x="510" 
d="M544 467h-407l-22 -128h206l-263 -236l-17 -103h421l22 128h-224l266 235zM422 707h138l-178 -168h-100z" />
    <glyph glyph-name="Zdotaccent" unicode="&#x17b;" horiz-adv-x="595" 
d="M61 111l395 449h-302l22 129h492l-20 -111l-397 -449h318l-22 -129h-505zM370 867q6 31 32.5 52.5t58.5 21.5t50.5 -21.5t12.5 -52.5q-6 -33 -31.5 -54t-58.5 -21t-51.5 21t-12.5 54z" />
    <glyph glyph-name="zdotaccent" unicode="&#x17c;" horiz-adv-x="510" 
d="M544 467h-407l-22 -128h206l-263 -236l-17 -103h421l22 128h-224l266 235zM288 645q6 32 31.5 53t57.5 21q33 0 52 -21.5t13 -52.5q-6 -33 -31.5 -54t-58.5 -21t-51.5 21t-12.5 54z" />
    <glyph glyph-name="Zcaron" unicode="&#x17d;" horiz-adv-x="595" 
d="M61 111l395 449h-302l22 129h492l-20 -111l-397 -449h318l-22 -129h-505zM497 760h-138l-79 168h100l62 -89l95 89h100z" />
    <glyph glyph-name="zcaron" unicode="&#x17e;" horiz-adv-x="510" 
d="M137 467h407l-18 -104l-266 -235h224l-22 -128h-421l17 103l263 236h-206zM415 538h-138l-79 168h100l62 -89l95 89h100z" />
    <glyph glyph-name="longs" unicode="&#x17f;" horiz-adv-x="335" 
d="M501 721l-25 -133h-51q-70 0 -85 -89l-89 -499h-140l62 357h-88l20 110h88l7 32q18 107 83.5 164.5t166.5 57.5h51z" />
    <glyph glyph-name="florin" unicode="&#x192;" horiz-adv-x="627" 
d="M-3 -192l49 133h51q69 0 103 89l124 327h-89l42 110h88l14 32q39 107 116 164.5t178 57.5h51l-51 -133h-51q-67 0 -103 -89l-13 -32h93l-42 -110h-93l-138 -365q-32 -86 -109.5 -135t-170.5 -49h-49z" />
    <glyph glyph-name="Aringacute" unicode="&#x1fa;" horiz-adv-x="659" 
d="M309 290h143l-30 240zM477 163h-238l-89 -163h-156l377 689h159l134 -689h-154zM573 1113h138l-145 -136q52 -37 40 -105q-8 -50 -50.5 -85t-93.5 -35q-50 0 -78.5 35t-19.5 85q7 42 37 74.5t69 43.5zM429 872q-4 -23 9 -39t36 -16q24 0 43 16t24 39q4 25 -9.5 41.5
t-37.5 16.5q-23 0 -41.5 -16.5t-23.5 -41.5z" />
    <glyph glyph-name="aringacute" unicode="&#x1fb;" horiz-adv-x="612" 
d="M410 0l10 53q-27 -31 -70.5 -46.5t-76.5 -15.5q-94 0 -154.5 67.5t-41.5 175.5t103 175.5t178 67.5q33 0 70 -14t55 -48l9 52h138l-82 -467h-138zM512 900h138l-145 -136q52 -36 40 -105q-9 -50 -51 -85t-93 -35q-50 0 -78.5 35t-19.5 85q7 42 36.5 74.5t69.5 43.5z
M221 234q-8 -48 21.5 -79.5t75.5 -31.5q45 0 84.5 30.5t48.5 80.5t-20 80.5t-74 30.5q-46 0 -87 -31.5t-49 -79.5zM368 659q-4 -23 9 -39t36 -16q24 0 43.5 16t23.5 39q4 25 -9.5 41.5t-37.5 16.5q-23 0 -41.5 -16.5t-23.5 -41.5z" />
    <glyph glyph-name="AEacute" unicode="&#x1fc;" horiz-adv-x="934" 
d="M996 689h-461l-556 -689h175l127 158h184l-27 -158v1l1 -1h445l22 129h-299l26 147h254l22 127h-254l29 157h290zM389 299l135 194l-34 -194h-101zM720 929h138l-178 -168h-100z" />
    <glyph glyph-name="aeacute" unicode="&#x1fd;" horiz-adv-x="970" 
d="M666 707h138l-178 -168h-100zM839 154l89 -69q-81 -95 -230 -95q-88 0 -143 50l-7 -40h-138l10 53q-27 -31 -70.5 -46.5t-76.5 -15.5q-94 0 -154.5 67.5t-41.5 175.5t103 175.5t178 67.5q33 0 70 -14t55 -48l9 52h138l-7 -39q74 49 161 49q102 0 158.5 -69t37.5 -177
q-3 -20 -11 -43h-342q-1 -38 30.5 -58t72.5 -20q66 0 109 44zM221 234q-8 -48 21.5 -79.5t75.5 -31.5q45 0 84.5 30.5t48.5 80.5t-20 80.5t-74 30.5q-46 0 -87 -31.5t-49 -79.5zM646 275h202q2 39 -24.5 59.5t-60.5 20.5t-68 -19.5t-49 -60.5z" />
    <glyph glyph-name="Oslashacute" unicode="&#x1fe;" horiz-adv-x="779" 
d="M615 929h138l-178 -168h-100zM180 66l1 1q82 -77 205 -77q146 0 266.5 103.5t146.5 249.5q22 127 -41 226l94 82l-39 46l-93 -81q-81 81 -209 81q-146 0 -265.5 -103.5t-145.5 -250.5q-24 -133 43 -230l-96 -82l39 -47zM245 343q16 87 86 148t155 61q68 0 114 -41
l-337 -293q-31 55 -18 125zM411 135q-65 0 -110 37l334 291q30 -53 18 -120q-15 -86 -86 -147t-156 -61z" />
    <glyph glyph-name="oslashacute" unicode="&#x1ff;" horiz-adv-x="557" 
d="M439 707h138l-178 -168h-100zM277 -8q102 0 184 67.5t101 175.5q14 83 -21 146l63 54l-39 46l-62 -54q-58 50 -141 50q-102 0 -184 -67t-102 -175q-16 -92 26 -155l-67 -58l39 -47l69 59q53 -42 134 -42zM338 341q26 0 49 -14l-170 -146q-9 23 -3 54q8 46 44 76t80 30z
M300 128q-25 0 -41 8l166 143q4 -24 0 -44q-8 -48 -44 -77.5t-81 -29.5z" />
    <glyph glyph-name="Scommaaccent" unicode="&#x218;" horiz-adv-x="582" 
d="M79 202h147q-4 -35 18.5 -59t69.5 -24q45 0 76.5 20t37.5 53q6 26 -8 45.5t-60 32.5l-80 24q-168 51 -142 197q16 91 94 148.5t179 57.5q102 0 158 -57t38 -154h-146q6 35 -13.5 56.5t-61.5 21.5q-39 0 -68 -19.5t-34 -49.5q-8 -47 62 -70l78 -25q181 -58 151 -209
q-19 -97 -101 -149.5t-182 -52.5q-112 0 -171 59.5t-42 153.5zM191 -287l-61 35q41 46 61 88t31 108h117q-38 -154 -148 -231z" />
    <glyph glyph-name="scommaaccent" unicode="&#x219;" horiz-adv-x="467" 
d="M276 176l-59 16q-38 11 -63 27t-36.5 30t-15 34.5t-2 31.5t4.5 29q11 52 71.5 92.5t133.5 40.5q79 0 128.5 -38t36.5 -117h-131q3 23 -11 32t-35 9q-22 0 -37.5 -9.5t-17.5 -25.5q-4 -25 35 -35l75 -21q38 -11 62.5 -30t31.5 -38t10.5 -38t-1.5 -30q-13 -70 -80 -108
t-148 -38q-77 0 -128 43.5t-38 117.5h130q-3 -21 14 -37.5t45 -16.5q24 0 42.5 11t21.5 28q6 28 -39 40zM143 -287l-62 35q40 46 60.5 88t32.5 108h117q-39 -153 -148 -231z" />
    <glyph glyph-name="circumflex" unicode="&#x2c6;" horiz-adv-x="567" 
d="M340 711h138l80 -168h-100l-64 89l-93 -89h-100z" />
    <glyph glyph-name="caron" unicode="&#x2c7;" horiz-adv-x="567" 
d="M447 538h-138l-79 168h100l63 -89l94 89h100z" />
    <glyph glyph-name="breve" unicode="&#x2d8;" horiz-adv-x="509" 
d="M241 689h85q-9 -53 40 -53q48 0 57 53h87q-10 -59 -54 -95t-104 -36q-65 0 -92.5 38.5t-18.5 92.5z" />
    <glyph glyph-name="dotaccent" unicode="&#x2d9;" horiz-adv-x="386" 
d="M230 645q6 31 32 52.5t58 21.5t51 -21.5t13 -52.5q-6 -33 -31.5 -54t-57.5 -21q-33 0 -52 21.5t-13 53.5z" />
    <glyph glyph-name="ring" unicode="&#x2da;" horiz-adv-x="562" 
d="M277 659q9 52 50.5 87.5t91.5 35.5q51 0 80 -35.5t20 -87.5q-9 -50 -51 -85t-93 -35q-50 0 -78.5 35t-19.5 85zM342 659q-4 -23 9 -39t36 -16q24 0 43.5 16t23.5 39q4 25 -9.5 41.5t-37.5 16.5q-23 0 -41.5 -16.5t-23.5 -41.5z" />
    <glyph glyph-name="ogonek" unicode="&#x2db;" horiz-adv-x="531" 
d="M269 -124l6 26l78 4q-6 -38 -19 -59q-18 -30 -47.5 -47.5t-59.5 -17.5q-43 0 -69.5 30.5t-18.5 72.5q7 33 18 49l67 93h65l-70 -128q-16 -31 8 -42q27 -7 42 19z" />
    <glyph glyph-name="tilde" unicode="&#x2dc;" horiz-adv-x="449" 
d="M285 606q-8 0 -18.5 -11t-14.5 -32h-75q15 67 51 98.5t73 31.5q23 0 46 -20.5t33 -20.5q8 0 18.5 10t15.5 31h75q-15 -67 -50.5 -97.5t-72.5 -30.5q-21 0 -46 20.5t-35 20.5z" />
    <glyph glyph-name="hungarumlaut" unicode="&#x2dd;" horiz-adv-x="544" 
d="M315 706h111l-151 -168h-100zM475 706h114l-162 -168h-105z" />
    <glyph glyph-name="Wgrave" unicode="&#x1e80;" horiz-adv-x="886" 
d="M639 255l211 434h159l-355 -689h-115l-34 362l-158 -362h-116l-111 689h158l58 -434l151 337h120zM423 929h138l80 -168h-100z" />
    <glyph glyph-name="wgrave" unicode="&#x1e81;" horiz-adv-x="763" 
d="M835 467l-246 -467h-116l-40 297l-140 -297h-116l-87 467h148l34 -278l131 278h119l33 -278l132 278h148zM313 707h138l80 -168h-100z" />
    <glyph glyph-name="Wacute" unicode="&#x1e82;" horiz-adv-x="886" 
d="M850 689l-211 -434l-32 337h-120l-151 -337l-58 434h-158l111 -689h116l158 362l34 -362h115l355 689h-159zM652 929h138l-178 -168h-100z" />
    <glyph glyph-name="wacute" unicode="&#x1e83;" horiz-adv-x="763" 
d="M589 0l246 467h-148l-132 -278l-33 278h-119l-131 -278l-34 278h-148l87 -467h116l140 297l40 -297h116zM554 707h138l-178 -168h-100z" />
    <glyph glyph-name="Wdieresis" unicode="&#x1e84;" horiz-adv-x="886" 
d="M850 689l-211 -434l-32 337h-120l-151 -337l-58 434h-158l111 -689h116l158 362l34 -362h115l355 689h-159zM434 860q5 28 30.5 48t55.5 20q29 0 46 -20t12 -48q-5 -29 -29 -49t-53 -20q-30 0 -48.5 20t-13.5 49zM611 860q5 28 30.5 48t55.5 20q29 0 46 -20t12 -48
q-5 -29 -29 -49t-53 -20q-30 0 -48.5 20t-13.5 49z" />
    <glyph glyph-name="wdieresis" unicode="&#x1e85;" horiz-adv-x="763" 
d="M589 0l246 467h-148l-132 -278l-33 278h-119l-131 -278l-34 278h-148l87 -467h116l140 297l40 -297h116zM332 638q5 28 30.5 48t55.5 20q29 0 46 -20t12 -48q-5 -29 -29.5 -49t-53.5 -20q-30 0 -48 20t-13 49zM509 638q5 28 30.5 48t55.5 20q29 0 46 -20t12 -48
q-5 -29 -29.5 -49t-53.5 -20q-30 0 -48 20t-13 49z" />
    <glyph glyph-name="Ygrave" unicode="&#x1ef2;" horiz-adv-x="651" 
d="M400 0h-149l55 312l-200 377h174l121 -258l213 258h174l-334 -379zM316 929h138l80 -168h-100z" />
    <glyph glyph-name="ygrave" unicode="&#x1ef3;" horiz-adv-x="510" 
d="M588 467l-412 -696h-147l162 277l-106 419h148l55 -265l152 265h148zM227 707h138l80 -168h-100z" />
    <glyph glyph-name="thinspace" unicode="&#x2009;" horiz-adv-x="14" 
 />
    <glyph glyph-name="endash" unicode="&#x2013;" horiz-adv-x="634" 
d="M89 173l23 124h514l-23 -124h-514z" />
    <glyph glyph-name="emdash" unicode="&#x2014;" horiz-adv-x="847" 
d="M89 173l23 124h727l-23 -124h-727z" />
    <glyph glyph-name="quoteleft" unicode="&#x2018;" horiz-adv-x="281" 
d="M325 697l48 -31q-64 -73 -88 -114q-38 -65 -52 -146h-114q15 84 82.5 167.5t123.5 123.5z" />
    <glyph glyph-name="quoteright" unicode="&#x2019;" horiz-adv-x="272" 
d="M159 406l-49 31q31 34 43 49t36.5 50t38.5 74t22 87h114q-14 -84 -81.5 -168t-123.5 -123z" />
    <glyph glyph-name="quotesinglbase" unicode="&#x201a;" horiz-adv-x="256" 
d="M20 -124l-47 31l17 19q16 19 18.5 22.5t17 21.5t18.5 26t15.5 26t16.5 31.5t13 32.5t13 39t9 42h114q-15 -84 -82 -167.5t-123 -123.5z" />
    <glyph glyph-name="quotedblleft" unicode="&#x201c;" horiz-adv-x="452" 
d="M496 697l48 -31q-64 -73 -88 -114q-38 -65 -52 -146h-114q15 84 82.5 167.5t123.5 123.5zM325 697l48 -31q-64 -73 -88 -114q-38 -65 -52 -146h-114q15 84 82.5 167.5t123.5 123.5z" />
    <glyph glyph-name="quotedblright" unicode="&#x201d;" horiz-adv-x="443" 
d="M159 406l-49 31q31 34 43 49t36.5 50t38.5 74t22 87h114q-14 -84 -81.5 -168t-123.5 -123zM330 406l-49 31q31 34 43 49t36.5 50t38.5 74t22 87h114q-14 -84 -81.5 -168t-123.5 -123z" />
    <glyph glyph-name="quotedblbase" unicode="&#x201e;" horiz-adv-x="427" 
d="M20 -124l-47 31l17 19q16 19 18.5 22.5t17 21.5t18.5 26t15.5 26t16.5 31.5t13 32.5t13 39t9 42h114q-15 -84 -82 -167.5t-123 -123.5zM191 -124l-49 31q64 73 88 114q38 65 52 146h114q-15 -84 -82 -167.5t-123 -123.5z" />
    <glyph glyph-name="dagger" unicode="&#x2020;" horiz-adv-x="410" 
d="M388 689l-29 -163h105l-17 -98h-105l-92 -521h-124l92 521h-105l17 98h105l29 163h124z" />
    <glyph glyph-name="daggerdbl" unicode="&#x2021;" horiz-adv-x="442" 
d="M404 689l-29 -163h105l-17 -98h-105l-35 -200h105l-18 -97h-105l-39 -224h-124l39 224h-105l18 97h105l35 200h-105l17 98h105l29 163h124z" />
    <glyph glyph-name="bullet" unicode="&#x2022;" horiz-adv-x="488" 
d="M125 238q12 66 67 110t121 44t105 -44t27 -110t-67 -110t-121 -44t-105 44t-27 110z" />
    <glyph glyph-name="ellipsis" unicode="&#x2026;" horiz-adv-x="865" 
d="M65 74q6 35 36 59t66 24t56.5 -23.5t14.5 -59.5t-35.5 -60t-65.5 -24t-57 24t-15 60zM358 74q6 35 36 59t66 24t56.5 -23.5t14.5 -59.5t-35.5 -60t-65.5 -24t-57 24t-15 60zM651 74q6 35 36 59t66 24t56.5 -23.5t14.5 -59.5t-35.5 -60t-65.5 -24t-57 24t-15 60z" />
    <glyph glyph-name="perthousand" unicode="&#x2030;" horiz-adv-x="1013" 
d="M655 655h-69l-437 -655h69zM130 528q10 56 55 95t101 39t88.5 -39.5t22.5 -94.5q-10 -56 -56 -94.5t-102 -38.5t-87.5 38.5t-21.5 94.5zM211 528q-4 -22 8 -37t35 -15q22 0 40 15t22 37t-9 37.5t-35 15.5t-39.5 -15.5t-21.5 -37.5zM412 123q10 56 55 95t101 39
t88.5 -39.5t22.5 -94.5q-10 -56 -56 -94.5t-102 -38.5t-87.5 38.5t-21.5 94.5zM493 123q-4 -22 8 -37t35 -15q22 0 40 15t22 37t-9 37.5t-35 15.5t-39.5 -15.5t-21.5 -37.5zM733 123q10 56 55 95t101 39t88.5 -39.5t22.5 -94.5q-10 -56 -56 -94.5t-102 -38.5t-87.5 38.5
t-21.5 94.5zM814 123q-4 -22 8 -37t35 -15q22 0 40 15t22 37t-9 37.5t-35 15.5t-39.5 -15.5t-21.5 -37.5z" />
    <glyph glyph-name="guilsinglleft" unicode="&#x2039;" horiz-adv-x="328" 
d="M79 233l175 207h108l-175 -207l102 -207h-108z" />
    <glyph glyph-name="guilsinglright" unicode="&#x203a;" horiz-adv-x="328" 
d="M329 233l-174 -207h-108l174 207l-100 207h108z" />
    <glyph glyph-name="fraction" unicode="&#x2044;" horiz-adv-x="180" 
d="M471 668l-569 -678h-83l570 678h82z" />
    <glyph glyph-name="zerosuperior" unicode="&#x2070;" horiz-adv-x="351" 
d="M144 624q36 197 177 197q142 0 106 -197q-36 -196 -176 -196q-143 0 -107 196zM224 624q-20 -118 41 -118q62 0 82 118q20 119 -40 119q-63 0 -83 -119z" />
    <glyph glyph-name="foursuperior" unicode="&#x2074;" horiz-adv-x="342" 
d="M360 519l-15 -85h-81l15 85h-182l232 295h84l-41 -227h48l-12 -68h-48zM219 587h72l22 119z" />
    <glyph glyph-name="fivesuperior" unicode="&#x2075;" horiz-adv-x="342" 
d="M188 548q8 -17 24.5 -28.5t34.5 -11.5q33 0 57.5 17.5t29.5 42.5q6 30 -11 46t-48 16q-56 0 -91 -41l-40 23l67 202h222l-13 -74h-158l-23 -63q26 20 74 20q54 0 83 -34t18 -95t-61 -100.5t-121 -39.5q-39 0 -71.5 21.5t-47.5 55.5q1 0 38 21z" />
    <glyph glyph-name="sixsuperior" unicode="&#x2076;" horiz-adv-x="339" 
d="M223 555q-4 -21 8.5 -35.5t33.5 -14.5t38 14.5t21 35.5t-8.5 36t-33.5 15t-38 -15t-21 -36zM436 748l-79 -32q-10 30 -40 30q-39 0 -61 -32.5t-28 -77.5q8 14 32.5 28.5t52.5 14.5q46 0 75 -33.5t18 -94.5q-10 -55 -54.5 -89t-105.5 -34q-55 0 -86 36t-25 96q8 85 29 136
q52 129 170 125q83 -4 102 -73z" />
    <glyph glyph-name="sevensuperior" unicode="&#x2077;" horiz-adv-x="324" 
d="M456 814l-236 -380h-91l190 306h-161l12 74h286z" />
    <glyph glyph-name="eightsuperior" unicode="&#x2078;" horiz-adv-x="346" 
d="M259 713q-3 -15 5.5 -26t27.5 -11q37 0 45 37q3 15 -6 25.5t-27 10.5q-37 0 -45 -36zM207 561q-4 -24 12 -41t42 -17t48 17t26 41q4 22 -10 39t-37 17h-13q-24 0 -44 -17t-24 -39zM181 715q8 44 48 75t88 31t77 -31t21 -75q-8 -41 -39 -63q49 -34 39 -93
q-10 -54 -59.5 -92.5t-108.5 -38.5t-94.5 38.5t-25.5 92.5q10 60 71 93q-24 27 -17 63z" />
    <glyph glyph-name="ninesuperior" unicode="&#x2079;" horiz-adv-x="339" 
d="M336 694q4 21 -8 36t-33 15t-38.5 -15t-21.5 -36t8.5 -35.5t33.5 -14.5t38 14.5t21 35.5zM122 502l80 32q10 -31 39 -31q39 0 61.5 33t28.5 78q-8 -14 -31 -28.5t-52 -14.5q-46 0 -75.5 33.5t-19.5 94.5q10 55 53.5 88.5t105.5 33.5q55 0 87 -36t26 -96q-5 -48 -17 -91.5
t-34.5 -84t-61 -64t-88.5 -21.5q-81 4 -102 74z" />
    <glyph glyph-name="zeroinferior" unicode="&#x2080;" horiz-adv-x="350" 
d="M40 40q34 197 177 197q53 0 81 -26.5t30.5 -70.5t-5.5 -100q-34 -196 -176 -196q-141 0 -107 196zM120 40q-22 -118 41 -118q60 0 82 118q22 119 -40 119q-61 0 -83 -119z" />
    <glyph glyph-name="oneinferior" unicode="&#x2081;" horiz-adv-x="215" 
d="M107 123l-70 -27l13 70l156 69l-68 -385h-80z" />
    <glyph glyph-name="twoinferior" unicode="&#x2082;" horiz-adv-x="320" 
d="M11 -107l189 185q24 22 28 44q3 16 -7.5 27t-32.5 11t-39.5 -15t-24.5 -38l-73 13q19 54 59.5 85.5t94.5 31.5q51 0 82 -32.5t22 -82.5q-8 -51 -57 -96q-47 -44 -105 -100h118l-14 -76h-246z" />
    <glyph glyph-name="threeinferior" unicode="&#x2083;" horiz-adv-x="317" 
d="M127 141l-14 10l-28 20l-14 10q22 27 56.5 42.5t71.5 13.5q48 -3 74.5 -34t17.5 -72q-6 -47 -61 -75q29 -11 42 -41.5t5 -61.5q-13 -48 -63 -80t-106 -28q-39 3 -67.5 25t-38.5 55l75 35q15 -32 51 -37q24 -1 43 13.5t19 26.5q0 1 1.5 6.5t2 10.5t-0.5 12q-6 24 -46 23
h-40l12 69h40q18 0 29.5 10.5t14 19t2.5 12.5q2 13 -6 25t-26 12q-26 0 -46 -22z" />
    <glyph glyph-name="fourinferior" unicode="&#x2084;" horiz-adv-x="344" 
d="M259 -65l-16 -85h-81l16 85h-180l228 295h84l-40 -227h48l-11 -68h-48zM117 3h72l21 119z" />
    <glyph glyph-name="fiveinferior" unicode="&#x2085;" horiz-adv-x="339" 
d="M83 -36q21 -40 59 -40q33 0 57.5 17.5t29.5 42.5q6 30 -11 46t-48 16q-56 0 -91 -41l-41 23l67 202h222l-12 -74h-158l-23 -63q27 20 75 20q54 0 82.5 -34t17.5 -95t-61 -100.5t-121 -39.5q-39 0 -71 21t-48 56l37 21q37 22 38 22z" />
    <glyph glyph-name="sixinferior" unicode="&#x2086;" horiz-adv-x="339" 
d="M119 -29q-4 -21 8.5 -35.5t33.5 -14.5t37.5 14.5t21.5 35.5q4 21 -8.5 36t-33.5 15t-37.5 -15t-21.5 -36zM333 164l-80 -32q-10 30 -39 30q-39 0 -61 -32.5t-28 -77.5q7 13 31.5 28t52.5 15q46 0 75 -33.5t18 -94.5q-10 -55 -54.5 -89t-105.5 -34q-55 0 -86 36t-25 96
q7 82 30 136q52 129 169 125q84 -4 103 -73z" />
    <glyph glyph-name="seveninferior" unicode="&#x2087;" horiz-adv-x="311" 
d="M348 230l-235 -380h-91l190 306h-161l11 74h286z" />
    <glyph glyph-name="eightinferior" unicode="&#x2088;" horiz-adv-x="346" 
d="M156 129q-2 -15 6.5 -26t26.5 -11q19 0 31 11t14 26t-6 25.5t-26 10.5t-31 -10.5t-15 -25.5zM104 -23q-4 -24 12 -41t42 -17t48 17t26 41q4 22 -10 39t-37 17h-13q-24 0 -44 -17t-24 -39zM78 131q7 44 47.5 75t88.5 31t76.5 -31t21.5 -75q-6 -39 -39 -63q49 -33 39 -93
q-10 -54 -59.5 -92.5t-108.5 -38.5t-94.5 38.5t-25.5 92.5q10 59 71 93q-23 26 -17 63z" />
    <glyph glyph-name="nineinferior" unicode="&#x2089;" horiz-adv-x="339" 
d="M233 110q4 21 -8 36t-33 15t-38.5 -15t-21.5 -36t8 -35.5t33 -14.5t38.5 14.5t21.5 35.5zM18 -82l81 32q8 -31 38 -31q39 0 61.5 33t28.5 78q-7 -14 -30.5 -28.5t-52.5 -14.5q-46 0 -75.5 33.5t-19.5 94.5q10 55 54 88.5t106 33.5q55 0 87 -36t26 -96q-5 -48 -17 -91.5
t-34.5 -84t-61 -64t-88.5 -21.5q-82 4 -103 74z" />
    <glyph glyph-name="colonmonetary" unicode="&#x20a1;" horiz-adv-x="710" 
d="M331 -6l-56 -106l-54 21l52 99q-30 10 -57 27l-60 -112l-54 21l69 129q-48 50 -68 120t-5 150q26 147 143 250t263 104l58 108l54 -22l-49 -91q33 -6 63 -18l51 96l53 -22l-53 -100q56 -37 87 -97l-134 -82q-11 22 -28 39l-203 -380h3q53 0 103 26t86 69l103 -82
q-58 -70 -141.5 -110.5t-175.5 -40.5q-27 0 -50 4zM496 558l-207 -385q23 -23 54 -34l217 403q-33 15 -64 16zM245 343q-12 -63 9 -115l172 323q-68 -19 -117.5 -76t-63.5 -132z" />
    <glyph glyph-name="lira" unicode="&#x20a4;" horiz-adv-x="683" 
d="M330 228l-19 -104h184q13 0 23.5 10.5t13.5 25.5l5 29h137l-10 -56q-10 -57 -53 -95t-96 -38h-471l21 124h106l19 104h-83l10 63h83l9 47h-83l12 63h83l12 72q17 101 88 162.5t165 61.5q98 0 152 -58.5t34 -171.5h-145q14 82 -65 82q-34 0 -58.5 -20.5t-30.5 -55.5
l-12 -72h115l-12 -63h-115l-9 -47h115l-10 -63h-115z" />
    <glyph glyph-name="uni20A6" unicode="&#x20a6;" horiz-adv-x="782" 
d="M168 212h-76l12 68h76l27 157h-76l13 68h76l32 184h134l73 -184h131l32 184h147l-32 -184h81l-13 -68h-81l-27 -157h81l-12 -68h-81l-37 -212h-131l-85 212h-118l-37 -212h-146zM485 437l63 -157h2l27 157h-92zM349 417l-23 -137h79z" />
    <glyph glyph-name="peseta" unicode="&#x20a7;" horiz-adv-x="755" 
d="M560 438h-213l-14 -72h129q33 0 59.5 21t38.5 51zM357 497h211q-11 63 -66 63h-133zM797 438h-88q-24 -85 -92 -142.5t-171 -57.5h-136l-40 -238h-147l77 438h-78l10 59h78l34 192h283q99 0 146.5 -55t44.5 -137h89z" />
    <glyph glyph-name="rupee" unicode="&#x20a8;" horiz-adv-x="717" 
d="M454 445h-315l11 59h309q-13 56 -65 56h-234l21 129h613l-10 -59h-210q45 -51 42 -126h146l-11 -59h-143q-18 -73 -71.5 -129t-135.5 -72l129 -244h-176l-113 238h-139l23 128h230q35 0 61.5 23t37.5 56z" />
    <glyph glyph-name="uni20A9" unicode="&#x20a9;" horiz-adv-x="1007" 
d="M266 155h-178l13 68h155l-25 151h-104l12 68h81l-39 247h158l32 -247h109l67 150h120l14 -150h109l121 247h159l-128 -247h79l-12 -68h-102l-78 -151h154l-13 -68h-177l-78 -155h-115l-16 155h-110l-66 -155h-116zM565 362l-60 -139h74zM380 374l16 -119l53 119h-69z
M688 374l11 -119l58 119h-69z" />
    <glyph glyph-name="afii57636" unicode="&#x20aa;" horiz-adv-x="953" 
d="M716 332l-21 -119h-140l17 93q6 39 -17 65.5t-69 26.5h-190l-70 -398h-140l95 538h361q94 0 142 -59t32 -147zM330 206l22 119h140l-17 -93q-7 -39 16.5 -65.5t69.5 -26.5h190l71 398h140l-95 -538h-361q-94 0 -142.5 59t-33.5 147z" />
    <glyph glyph-name="Euro" unicode="&#x20ac;" horiz-adv-x="829" 
d="M386 435h230l-11 -63h-493l11 63h109q49 115 154 188.5t227 73.5q90 0 158.5 -39t103.5 -107l-135 -82q-21 42 -60 66t-91 24q-62 0 -116 -34t-87 -90zM584 256h-232q11 -58 54 -93t106 -35q53 0 103.5 26t86.5 69l102 -82q-57 -70 -140.5 -110.5t-175.5 -40.5
q-123 0 -202 74.5t-87 191.5h-108l11 63h493z" />
    <glyph glyph-name="uni2113" unicode="&#x2113;" horiz-adv-x="401" 
d="M274 521l-41 -240l27 3q22 1 30 38l35 200q10 58 -13 58q-13 0 -21 -10t-11 -20t-6 -29zM254 113l96 -7l-18 -106h-123q-150 0 -119 170l63 357q30 170 179 170t116 -177l-34 -186q-15 -84 -58 -126.5t-144 -42.5q-1 -12 -1.5 -23t10 -19.5t33.5 -9.5z" />
    <glyph glyph-name="afii61352" unicode="&#x2116;" horiz-adv-x="984" 
d="M603 0l121 689h-147l-73 -412l-163 412h-134l-121 -689h146l73 417l167 -417h131zM771 563q10 56 55.5 95t101.5 39q55 0 87.5 -39t22.5 -95t-56 -94.5t-102 -38.5t-87.5 38.5t-21.5 94.5zM846 563q-4 -25 9.5 -41.5t38.5 -16.5q24 0 44.5 16.5t24.5 41.5q4 24 -10 41.5
t-38 17.5t-44 -17.5t-25 -41.5zM733 318l12 67h254l-12 -67h-254z" />
    <glyph glyph-name="trademark" unicode="&#x2122;" horiz-adv-x="851" 
d="M393 325l87 289h-108l-51 -289h-84l51 289h-118l13 75h388l71 -226l148 226h72l-20 -364h-84l14 222l-118 -181h-60l-52 181l-66 -222h-83z" />
    <glyph glyph-name="estimated" unicode="&#x212e;" horiz-adv-x="646" 
d="M653 279h-429l-34 -193q54 -63 140 -63q76 0 129 33t104 94l27 -19q-56 -68 -117.5 -104.5t-148.5 -36.5q-119 0 -180 84.5t-39 205.5q22 123 112 206.5t215 83.5q124 0 183.5 -84.5t37.5 -206.5zM539 312l28 163q-24 27 -62 44.5t-79 17.5q-97 0 -168 -62l-28 -163h309z
" />
    <glyph glyph-name="minus" unicode="&#x2212;" horiz-adv-x="505" 
d="M473 210h-369l18 102h369z" />
    <glyph glyph-name="notequal" unicode="&#x2260;" horiz-adv-x="602" 
d="M290 149l-69 -105h-70l69 105h-125l17 98h173l68 103h-223l19 98h271l63 96h71l-63 -96h118l-19 -98h-166l-69 -103h217l-17 -98h-265z" />
    <glyph glyph-name="lessequal" unicode="&#x2264;" horiz-adv-x="639" 
d="M120 331l20 112l535 192l-18 -110l-386 -138l337 -138l-20 -110zM578 86l-14 -86h-497l14 86h497z" />
    <glyph glyph-name="greaterequal" unicode="&#x2265;" horiz-adv-x="639" 
d="M655 443l-20 -112l-536 -192l18 110l387 138l-338 138l20 110zM75 0l14 86h497l-14 -86h-497z" />
    <glyph glyph-name="commaaccent" unicode="&#xf6c3;" horiz-adv-x="315" 
d="M86 -287l-62 35q40 46 60.5 88t32.5 108h117q-39 -153 -148 -231z" />
    <glyph glyph-name="rupiah" unicode="&#xf6dd;" horiz-adv-x="1191" 
d="M443 560h-128l-35 -194h124q40 0 68.5 30t35.5 67q7 36 -10 66.5t-55 30.5zM450 244l129 -244h-176l-113 238h-33l-41 -238h-147l121 689h282q110 0 157.5 -66.5t31.5 -159.5q-14 -79 -68.5 -140t-142.5 -79zM837 232q-9 -51 17 -81t71 -30q46 0 83 31t45 80
q8 51 -17.5 82t-70.5 31t-82 -32t-46 -81zM738 467h138l-11 -58q24 32 65 50t85 18q93 0 147 -67.5t35 -174.5q-20 -109 -98 -177t-171 -68q-45 0 -79.5 18t-44.5 49l-52 -286h-138z" />
    <glyph glyph-name="apple" unicode="&#xf8ff;" horiz-adv-x="847" 
d="M755 687l12 -687h-687l-12 687h687zM154 595l6 -377h81l-75 75l-3 178l259 -253l252 253l3 -178l-73 -75h84l-6 377l-262 -263zM177 132h-15l1 -53h9l-1 37l14 -37h10l10 37l1 -37h9l-1 53h-14l-9 -36zM246 132q-12 0 -18.5 -7.5t-6.5 -18.5t7 -19t19 -8q22 0 22 26
q0 11 -6 19t-17 8zM246 89q-7 0 -12 5.5t-5 10.5q0 6 5 11.5t12 5.5q12 0 12 -17q0 -16 -12 -16zM282 99h-13q0 -20 23 -20q21 0 21 17q0 11 -15 14q-16 3 -16 6q0 6 9 6q10 0 10 -6h9q0 16 -19 16t-19 -16q0 -8 16 -15q13 0 13 -5q0 -7 -10 -7q-9 0 -9 10zM313 122h17
l1 -43h8l-1 43h15v10h-40v-10zM375 132h-9l-21 -53h12l3 13h22l4 -13h11zM372 119l7 -18h-16l6 18h3zM424 132h-28l1 -53h9l-1 22h13q9 0 9 -9q0 -3 0.5 -7.5t0.5 -5.5h13q-4 4 -4 13t-7 13q7 3 7 9q0 18 -13 18zM418 108h-13v14h13q9 0 9 -6q0 -8 -9 -8zM464 132h-20l1 -53
h20q11 0 17.5 8t6.5 20q0 25 -25 25zM464 89h-8v33h4q17 0 17 -17q0 -6 -4 -11t-9 -5zM529 132h-37l1 -53h40l-1 10h-28v12h25v9h-25v12h25v10zM541 99h-9q0 -20 23 -20q21 0 21 17q0 11 -15 14q-17 3 -17 6q0 6 7 6q12 0 12 -6h10q0 16 -19 16q-8 0 -15 -4.5t-7 -11.5
t19 -15q12 0 12 -5q0 -7 -9 -7q-13 0 -13 10zM587 132h-7l1 -53h7zM631 86l5 -7h6l-1 29h-22v-9h12q-4 -10 -12 -10q-7 0 -11.5 5.5t-4.5 10.5q0 6 4.5 11.5t11.5 5.5q9 0 9 -10h13q-4 20 -22 20q-11 0 -18 -8t-7 -19q0 -10 7 -18t19 -8q9 0 11 7zM655 132h-8l1 -53h8l-1 33
l23 -33h13l-1 53h-13v-33z" />
    <glyph glyph-name="published" horiz-adv-x="797" 
d="M442 428h57q16 0 23.5 -12.5t5.5 -27.5t-15 -28t-30 -13h-55zM372 503l-59 -336h84l19 106h58q57 0 93 34t44 81q8 48 -16 81.5t-81 33.5h-142zM109 343q26 147 145.5 250.5t265.5 103.5t230 -104t58 -250q-26 -147 -146.5 -250t-266.5 -103t-229 103t-57 250zM187 343
q-20 -114 44 -194t177 -80t207 80.5t114 193.5q20 114 -44.5 194.5t-177.5 80.5t-206.5 -80.5t-113.5 -194.5z" />
    <glyph glyph-name="frenchfranc" horiz-adv-x="746" 
d="M367 0l52 299h-130l-52 -299h-147l121 689h431l-22 -129h-284l-25 -137h262l-19 -108q28 62 66.5 92.5t77.5 30.5q55 0 87 -17l-48 -127q-28 16 -68 16q-117 0 -149 -186l-21 -124h-132z" />
    <glyph glyph-name="parenleft.case" horiz-adv-x="388" 
d="M99 340q36 203 150 336t249 133l-19 -109q-75 0 -157 -111.5t-106 -248.5q-24 -136 19 -244.5t118 -108.5l-19 -108q-136 0 -203.5 130t-31.5 331z" />
    <glyph glyph-name="parenright.case" horiz-adv-x="388" 
d="M409 340q-36 -202 -149.5 -331.5t-249.5 -129.5l19 108q75 0 157 108.5t106 244.5q14 95 1 175t-51 132.5t-87 52.5l19 109q136 0 203.5 -133.5t31.5 -335.5z" />
    <glyph glyph-name="hyphen.case" horiz-adv-x="475" 
d="M110 281l23 132h353l-23 -132h-353z" />
    <glyph glyph-name="at.case" horiz-adv-x="964" 
d="M621 217l22 126q8 49 -20 83t-76 34t-88 -34t-48 -83q-8 -47 20.5 -81t75.5 -34q43 0 82 25l-16 -94q-47 -19 -83 -19q-85 0 -134.5 59.5t-33.5 143.5q16 86 86 145.5t155 59.5q81 0 132 -56q51 -55 40 -139l-26 -142q-5 -32 10 -46t40 -14q31 0 56.5 20.5t42 54
t26.5 65.5t16 65q25 142 -64 237.5t-238 95.5q-144 0 -261.5 -102.5t-143.5 -248.5q-26 -145 56 -245.5t226 -100.5h33l-17 -89h-33q-182 0 -284 126t-70 309q21 120 96 221t185 160t229 59q121 0 214.5 -54.5t138 -152t23.5 -215.5q-12 -67 -40.5 -130t-83.5 -113t-123 -50
q-64 0 -100 37t-22 117z" />
    <glyph glyph-name="bracketleft.case" horiz-adv-x="338" 
d="M52 -116l163 918h231l-18 -101h-113l-127 -714h113l-18 -103h-231z" />
    <glyph glyph-name="bracketright.case" horiz-adv-x="338" 
d="M407 802l-163 -918h-231l18 103h113l127 714h-113l18 101h231z" />
    <glyph glyph-name="braceleft.case" horiz-adv-x="412" 
d="M83 300l16 84q23 0 44.5 16t26.5 42l28 159q15 89 83.5 144.5t154.5 55.5h85l-19 -101h-88q-34 0 -62 -24.5t-35 -61.5l-29 -164q-8 -42 -38 -71t-60 -37q28 -8 47.5 -36.5t11.5 -71.5l-26 -153q-7 -37 12.5 -65t53.5 -28h88l-19 -105h-85q-86 0 -135 55.5t-32 144.5
l28 159q5 26 -11 42t-40 16z" />
    <glyph glyph-name="braceright.case" horiz-adv-x="412" 
d="M448 384l-15 -84q-23 0 -44.5 -16t-26.5 -42l-28 -159q-15 -89 -83 -144.5t-154 -55.5h-85l18 105h88q33 0 62 28t36 65l27 153q8 42 38 71t61 37q-28 8 -48 36.5t-12 71.5l29 164q7 36 -13 61t-54 25h-88l19 101h85q86 0 134 -55.5t31 -144.5l-28 -159q-5 -26 11 -42
t40 -16z" />
    <glyph glyph-name="exclamdown.case" horiz-adv-x="284" 
d="M216 -10h-154l106 487h114zM163 613q6 36 35.5 60t65.5 24t57 -24t15 -60q-6 -35 -36 -59t-66 -24t-56.5 23.5t-14.5 59.5z" />
    <glyph glyph-name="guillemotleft.case" horiz-adv-x="527" 
d="M108 345l175 207h108l-175 -207l102 -207h-108zM285 345l175 207h108l-175 -207l102 -207h-108z" />
    <glyph glyph-name="periodcentered.case" horiz-adv-x="279" 
d="M117 368q6 36 36 60t66 24t56.5 -24t14.5 -60q-6 -35 -35.5 -59t-65.5 -24t-57 23.5t-15 59.5z" />
    <glyph glyph-name="guillemotright.case" horiz-adv-x="527" 
d="M539 345l-174 -207h-108l174 207l-100 207h108zM362 345l-174 -207h-108l174 207l-100 207h108z" />
    <glyph glyph-name="questiondown.case" horiz-adv-x="496" 
d="M303 457l5 22h136l-1 -22q-6 -34 -9.5 -49.5t-11 -39.5t-16 -35.5t-23.5 -27.5t-35.5 -27t-49.5 -22l-44 -17q-26 -13 -34 -24.5t-12 -30.5q-4 -23 13 -38.5t48 -15.5q32 0 55 19t29 50h140q-17 -95 -85.5 -152t-163.5 -57t-143.5 53t-32.5 142q13 71 58.5 121t109.5 68
q32 9 46 27.5t21 55.5zM484 613q-6 -35 -35.5 -59t-65.5 -24t-57 23.5t-15 59.5t36 60t66 24t56.5 -24t14.5 -60z" />
    <glyph glyph-name="endash.case" horiz-adv-x="642" 
d="M114 285l21 124h514l-21 -124h-514z" />
    <glyph glyph-name="emdash.case" horiz-adv-x="855" 
d="M114 285l21 124h727l-21 -124h-727z" />
    <glyph glyph-name="bullet.case" horiz-adv-x="470" 
d="M136 350q12 66 67 110t121 44t105 -44t27 -110t-67 -110t-121 -44t-105 44t-27 110z" />
    <glyph glyph-name="guilsinglleft.case" horiz-adv-x="350" 
d="M108 345l175 207h108l-175 -207l102 -207h-108z" />
    <glyph glyph-name="guilsinglright.case" horiz-adv-x="350" 
d="M362 345l-174 -207h-108l174 207l-100 207h108z" />
    <glyph glyph-name="cent.case" horiz-adv-x="539" 
d="M442 697l-19 -106q112 -11 159 -98l-127 -81q-22 47 -82 47q-47 0 -87 -30.5t-48 -78.5q-8 -49 21 -80.5t75 -31.5q60 0 99 47l98 -80q-77 -88 -194 -99l-20 -115h-73l21 118q-86 16 -134 81t-31 160q17 94 87.5 158t161.5 80l20 109h73z" />
    <glyph glyph-name="zero.tnum" horiz-adv-x="580" 
d="M103 328q59 340 306 340q69 0 113.5 -26.5t61.5 -72.5t19.5 -108t-12.5 -133q-13 -75 -34.5 -132.5t-56.5 -105.5t-88.5 -74t-122.5 -26q-246 0 -186 338zM244 328q-35 -202 68 -202q105 0 140 202q37 204 -67 204t-141 -204z" />
    <glyph glyph-name="one.tnum" horiz-adv-x="580" 
d="M510 664l-118 -664h-140l82 469l-120 -48l22 123z" />
    <glyph glyph-name="two.tnum" horiz-adv-x="580" 
d="M493 0h-426l13 76l325 319q41 39 48 74q5 27 -13.5 46t-56.5 19q-37 0 -66.5 -25.5t-42.5 -65.5l-125 22q33 94 103 148.5t162 54.5q89 0 141.5 -56t37.5 -143t-98 -166l-181 -171h202z" />
    <glyph glyph-name="three.tnum" horiz-adv-x="580" 
d="M322 284h-69l20 120h69q19 0 34 7t23 17t13 21t6 17.5t1 8.5q5 20 -8 41.5t-46 21.5q-49 0 -76 -36l-100 69q37 47 97 74t124 23q83 -4 129 -58t32 -126q-7 -39 -36 -73t-71 -55q50 -19 72.5 -71.5t7.5 -106.5q-22 -84 -107.5 -138.5t-182.5 -47.5q-68 4 -118 41.5
t-67 95.5l134 61q6 -23 32 -42t53 -21q36 -2 67.5 20.5t39.5 49.5q2 6 3.5 14t0.5 22.5t-7 25.5t-24 18.5t-46 6.5z" />
    <glyph glyph-name="four.tnum" horiz-adv-x="580" 
d="M245 265h122l35 204zM570 147h-83l-25 -147h-141l25 147h-313l396 508h148l-69 -390h83z" />
    <glyph glyph-name="five.tnum" horiz-adv-x="580" 
d="M439 231q9 53 -19.5 80t-82.5 27q-38 0 -81.5 -16.5t-75.5 -55.5l-69 40l116 349h384l-23 -128h-273l-36 -106q44 34 126 34q92 0 142.5 -59t31.5 -165t-105 -173.5t-208 -67.5q-67 0 -124 36.5t-85 95.5l133 76q13 -30 41.5 -49t59.5 -19q56 0 98 30t50 71z" />
    <glyph glyph-name="six.tnum" horiz-adv-x="580" 
d="M403 422q78 0 129.5 -58t32.5 -163q-17 -95 -92.5 -153t-182.5 -58q-94 0 -149 62.5t-45 165.5q6 66 19.5 125.5t40 121.5t63 106.5t94 71.5t127.5 25q143 -5 179 -127l-140 -56q-16 52 -67 52q-45 0 -79 -30t-51 -70t-25 -89q14 25 53 49.5t93 24.5zM422 209
q6 35 -15.5 60.5t-56.5 25.5t-64.5 -25.5t-35.5 -60.5t14.5 -60.5t55.5 -25.5t65.5 25.5t36.5 60.5z" />
    <glyph glyph-name="seven.tnum" horiz-adv-x="580" 
d="M174 655h494l-405 -655h-159l323 526h-277z" />
    <glyph glyph-name="eight.tnum" horiz-adv-x="580" 
d="M174 485q13 76 82 129.5t152 53.5t133.5 -53.5t37.5 -129.5q-11 -65 -68 -110q39 -25 57 -68.5t8 -96.5q-16 -93 -100 -156.5t-188 -63.5t-165 63.5t-45 156.5q10 53 42.5 96.5t80.5 68.5q-39 43 -27 110zM219 217q-7 -41 20 -69t71 -28t82 28t45 69q7 40 -17 69t-76 29
q-51 0 -84.5 -29t-40.5 -69zM308 481q-5 -27 9 -45t46 -18t53 18.5t26 44.5q5 25 -10 43t-46 18t-52 -18t-26 -43z" />
    <glyph glyph-name="nine.tnum" horiz-adv-x="580" 
d="M291 236q-78 0 -128.5 58t-32.5 163q17 95 92 153t182 58q94 0 149.5 -62.5t45.5 -165.5q-7 -66 -20 -125.5t-40 -122t-63.5 -106.5t-93.5 -71t-128 -25q-66 3 -112.5 30.5t-67.5 96.5l141 56q16 -52 67 -52q66 0 105 56t49 133q-39 -74 -145 -74zM273 449
q-7 -35 14.5 -60.5t56.5 -25.5t64.5 25.5t36.5 60.5t-14.5 60.5t-56.5 25.5t-64.5 -25.5t-36.5 -60.5z" />
    <glyph glyph-name="zero.taboldstyle" horiz-adv-x="580" 
d="M287 -8q-104 0 -167 74t-43 190q20 117 109 190.5t194 73.5q106 0 168 -73t42 -191q-20 -116 -108.5 -190t-194.5 -74zM309 122q50 0 95 37.5t55 96.5q11 59 -20 96t-82 37q-50 0 -93.5 -37t-54.5 -96q-10 -59 20.5 -96.5t79.5 -37.5z" />
    <glyph glyph-name="one.taboldstyle" horiz-adv-x="580" 
d="M497 517l-90 -517h-140l54 314l-139 -51l24 132z" />
    <glyph glyph-name="two.taboldstyle" horiz-adv-x="580" 
d="M496 0h-419l14 80l276 232q38 31 40 47q3 18 -10 30.5t-39 12.5q-65 0 -82 -59l-133 16q23 78 85 124.5t154 46.5q91 0 141.5 -48.5t38.5 -114.5q-12 -68 -84 -121l-159 -124h197z" />
    <glyph glyph-name="six.taboldstyle" horiz-adv-x="580" 
d="M403 422q78 0 129.5 -58t32.5 -163q-17 -95 -92.5 -153t-182.5 -58q-94 0 -149 62.5t-45 165.5q6 66 19.5 125.5t40 121.5t63 106.5t94 71.5t127.5 25q143 -5 179 -127l-140 -56q-16 52 -67 52q-45 0 -79 -30t-51 -70t-25 -89q14 25 53 49.5t93 24.5zM422 209
q6 35 -15.5 60.5t-56.5 25.5t-64.5 -25.5t-35.5 -60.5t14.5 -60.5t55.5 -25.5t65.5 25.5t36.5 60.5z" />
    <glyph glyph-name="eight.taboldstyle" horiz-adv-x="580" 
d="M174 485q13 76 82 129.5t152 53.5t133.5 -53.5t37.5 -129.5q-11 -65 -68 -110q39 -25 57 -68.5t8 -96.5q-16 -93 -100 -156.5t-188 -63.5t-165 63.5t-45 156.5q10 53 42.5 96.5t80.5 68.5q-39 43 -27 110zM219 217q-7 -41 20 -69t71 -28t82 28t45 69q7 40 -17 69t-76 29
q-51 0 -84.5 -29t-40.5 -69zM308 481q-5 -27 9 -45t46 -18t53 18.5t26 44.5q5 25 -10 43t-46 18t-52 -18t-26 -43z" />
    <glyph glyph-name="three.taboldstyle" horiz-adv-x="580" 
d="M289 93h-69l22 120h69q19 0 34 7t23 17t13 21t6 17.5t1 8.5q3 20 -10 41.5t-46 21.5q-46 0 -75 -36l-101 69q38 47 98 74t124 23q84 -4 130 -58.5t31 -125.5q-7 -39 -36 -73t-70 -55q49 -19 72 -72t8 -106q-23 -84 -109 -138.5t-183 -47.5q-68 4 -117.5 42t-66.5 95
l134 61q6 -23 32 -42t54 -21q35 -2 67 20.5t39 49.5q2 9 3.5 14.5t0.5 21.5t-7.5 26t-24.5 18t-46 7z" />
    <glyph glyph-name="four.taboldstyle" horiz-adv-x="580" 
d="M213 76h122l36 204zM538 -42h-83l-26 -147h-141l26 147h-313l396 508h148l-69 -390h83z" />
    <glyph glyph-name="five.taboldstyle" horiz-adv-x="580" 
d="M406 43q9 52 -20 79.5t-83 27.5q-38 0 -81.5 -16.5t-75.5 -55.5l-69 40l116 349h384l-22 -128h-273l-37 -106q44 34 126 34q93 0 143.5 -59t31.5 -165t-105.5 -173.5t-208.5 -67.5q-68 0 -124.5 36.5t-83.5 95.5l132 76q13 -30 42 -49t60 -19q56 0 98.5 30t49.5 71z" />
    <glyph glyph-name="seven.taboldstyle" horiz-adv-x="580" 
d="M141 467h494l-405 -655h-159l324 526h-277z" />
    <glyph glyph-name="nine.taboldstyle" horiz-adv-x="580" 
d="M260 45q-78 0 -129.5 58t-32.5 163q17 95 92.5 153t182.5 58q94 0 149 -62.5t45 -165.5q-6 -66 -19.5 -125.5t-40 -121.5t-63 -106.5t-94 -71.5t-127.5 -25q-67 3 -112.5 30.5t-66.5 96.5l141 56q15 -52 67 -52q45 0 79 30t50.5 70t23.5 89q-39 -74 -145 -74zM241 258
q-6 -35 15 -60.5t56 -25.5t65 25.5t36 60.5t-14.5 60.5t-55.5 25.5t-65.5 -25.5t-36.5 -60.5z" />
    <glyph glyph-name="zero.oldstyle" horiz-adv-x="631" 
d="M313 -8q-104 0 -167 74t-43 190q20 117 109 190.5t194 73.5q106 0 168 -73t42 -191q-20 -116 -108.5 -190t-194.5 -74zM335 122q50 0 95 37.5t55 96.5q11 59 -20 96t-82 37q-50 0 -93.5 -37t-54.5 -96q-10 -59 20.5 -96.5t79.5 -37.5z" />
    <glyph glyph-name="one.oldstyle" horiz-adv-x="387" 
d="M401 517l-90 -517h-140l54 314l-139 -51l24 132z" />
    <glyph glyph-name="two.oldstyle" horiz-adv-x="542" 
d="M477 0h-419l14 80l276 232q38 31 40 47q3 18 -10 30.5t-39 12.5q-65 0 -82 -59l-133 16q23 78 85 124.5t154 46.5q91 0 141.5 -48.5t38.5 -114.5q-12 -68 -84 -121l-159 -124h197z" />
    <glyph glyph-name="three.oldstyle" horiz-adv-x="531" 
d="M265 93h-69l22 120h69q19 0 34 7t23 17t13 21t6 17.5t1 8.5q3 20 -10 41.5t-46 21.5q-46 0 -75 -36l-101 69q38 47 98 74t124 23q84 -4 130 -58.5t31 -125.5q-7 -39 -36 -73t-70 -55q49 -19 72 -72t8 -106q-23 -84 -109 -138.5t-183 -47.5q-68 4 -117.5 42t-66.5 95
l134 61q6 -23 32 -42t54 -21q35 -2 67 20.5t39 49.5q2 9 3.5 14.5t0.5 21.5t-7.5 26t-24.5 18t-46 7z" />
    <glyph glyph-name="four.oldstyle" horiz-adv-x="587" 
d="M217 76h122l36 204zM542 -42h-83l-26 -147h-141l26 147h-313l396 508h148l-69 -390h83z" />
    <glyph glyph-name="five.oldstyle" horiz-adv-x="577" 
d="M404 42q9 53 -19.5 80t-82.5 27q-38 0 -81.5 -16.5t-75.5 -55.5l-70 40l117 349h384l-23 -128h-273l-36 -106q44 34 126 34q92 0 142.5 -59t31.5 -165q-18 -106 -104.5 -173.5t-208.5 -67.5q-68 0 -124.5 36.5t-83.5 95.5l131 76q14 -30 43 -49t60 -19q56 0 98 30t49 71z
" />
    <glyph glyph-name="six.oldstyle" horiz-adv-x="586" 
d="M406 422q78 0 129.5 -58t32.5 -163q-17 -95 -92.5 -153t-182.5 -58q-94 0 -149 62.5t-45 165.5q6 66 19.5 125.5t40 121.5t63 106.5t94 71.5t127.5 25q143 -5 179 -127l-140 -56q-16 52 -67 52q-45 0 -79 -30t-51 -70t-25 -89q14 25 53 49.5t93 24.5zM425 209
q6 35 -15.5 60.5t-56.5 25.5t-64.5 -25.5t-35.5 -60.5t14.5 -60.5t55.5 -25.5t65.5 25.5t36.5 60.5z" />
    <glyph glyph-name="seven.oldstyle" horiz-adv-x="528" 
d="M115 467h494l-405 -655h-159l324 526h-277z" />
    <glyph glyph-name="eight.oldstyle" horiz-adv-x="596" 
d="M182 485q13 76 82 129.5t152 53.5t133.5 -53.5t37.5 -129.5q-11 -65 -68 -110q39 -25 57 -68.5t8 -96.5q-16 -93 -100 -156.5t-188 -63.5t-165 63.5t-45 156.5q10 53 42.5 96.5t80.5 68.5q-39 43 -27 110zM227 217q-7 -41 20 -69t71 -28t82 28t45 69q7 40 -17 69t-76 29
q-51 0 -84.5 -29t-40.5 -69zM316 481q-5 -27 9 -45t46 -18t53 18.5t26 44.5q5 25 -10 43t-46 18t-52 -18t-26 -43z" />
    <glyph glyph-name="nine.oldstyle" horiz-adv-x="566" 
d="M253 45q-78 0 -129.5 58t-32.5 163q17 95 92.5 153t182.5 58q94 0 149 -62.5t45 -165.5q-6 -66 -19.5 -125.5t-40 -121.5t-63 -106.5t-94 -71.5t-127.5 -25q-67 3 -112.5 30.5t-66.5 96.5l141 56q15 -52 67 -52q45 0 79 30t50.5 70t23.5 89q-39 -74 -145 -74zM234 258
q-6 -35 15 -60.5t56 -25.5t65 25.5t36 60.5t-14.5 60.5t-55.5 25.5t-65.5 -25.5t-36.5 -60.5z" />
    <glyph glyph-name="Lslash.sc" horiz-adv-x="435" 
d="M281 398l83 47l-14 -78l-83 -47l-37 -208h209l-19 -112h-336l41 240l-65 -36l14 78l65 37l45 247h127z" />
    <glyph glyph-name="Zcaron.sc" horiz-adv-x="516" 
d="M332 760l50 -70l77 70h88l-118 -142h-118l-67 142h88zM63 95l318 360h-243l20 111h406l-17 -94l-319 -360h255l-19 -112h-417z" />
    <glyph glyph-name="exclam.sc" horiz-adv-x="289" 
d="M179 566h130l-87 -399h-97zM81 61q5 30 30 50t55 20t48 -20t13 -50t-30 -50.5t-55 -20.5t-48 20.5t-13 50.5z" />
    <glyph glyph-name="ampersand.sc" horiz-adv-x="590" 
d="M390 205l8 42h-68q-97 0 -117 -61q-9 -34 11.5 -56t56.5 -22q23 0 52.5 16t45.5 48q10 20 11 33zM326 344h89l11 64h112l-11 -64h65l-17 -97h-65l-14 -80q-8 -45 4 -57.5t59 -12.5l-18 -105q-76 1 -109.5 12.5t-41.5 52.5q-22 -31 -65.5 -49t-81.5 -18q-84 0 -131 47.5
t-34 120.5q20 108 111 143q-59 25 -44 112q11 61 69 110.5t126 49.5q105 0 152 -76l-112 -63q-17 22 -41 22q-28 0 -45 -15.5t-20 -36.5q0 -4 -0.5 -7t0 -11t3.5 -14.5t8.5 -13t16 -10.5t24.5 -4z" />
    <glyph glyph-name="question.sc" horiz-adv-x="427" 
d="M225 401h-114l-4 -3q15 79 71 126t135 47q78 0 117.5 -44t26.5 -118q-10 -59 -48 -100t-90 -56q-24 -7 -32 -18t-17 -39l-8 -28h-117l2 20q13 68 41.5 106.5t86.5 60.5q36 14 47.5 24.5t14.5 30.5q3 16 -10 28t-36 12q-24 0 -42 -13.5t-24 -35.5zM113 61q5 31 30.5 51
t55.5 20q31 0 49 -20t13 -51q-5 -30 -30.5 -50.5t-56.5 -20.5q-30 0 -48 20.5t-13 50.5z" />
    <glyph glyph-name="A.sc" 
d="M402 132h-189l-73 -132h-133l310 566h134l110 -566h-133zM380 242l-22 182l-85 -182h107z" />
    <glyph glyph-name="B.sc" horiz-adv-x="550" 
d="M546 407q-14 -74 -89 -104q46 -15 65 -52.5t12 -75.5q-13 -74 -71.5 -124.5t-140.5 -50.5h-244l100 566h228q77 0 115 -43t25 -116zM264 346h90q22 0 39 15t21 39q8 54 -41 54h-89zM355 240h-109l-23 -128h111q26 0 44.5 19.5t23.5 46.5q4 24 -8 43t-39 19z" />
    <glyph glyph-name="C.sc" horiz-adv-x="599" 
d="M499 188l89 -71q-48 -59 -117 -93t-145 -34q-120 0 -187 84.5t-46 204.5q22 122 119 207t218 85q74 0 129.5 -33t86.5 -91l-115 -70q-39 75 -122 75q-68 0 -122 -50t-67 -123q-13 -70 23.5 -120t104.5 -50q88 0 151 79z" />
    <glyph glyph-name="D.sc" horiz-adv-x="604" 
d="M300 0h-222l100 566h222q120 0 174 -80t32 -205q-22 -124 -104 -202.5t-202 -78.5zM223 115h96q62 0 105 48t56 118q13 72 -13 121t-88 49h-96z" />
    <glyph glyph-name="E.sc" horiz-adv-x="499" 
d="M178 566h361l-20 -112h-236l-22 -120h207l-19 -110h-207l-20 -112h243l-19 -112h-368z" />
    <glyph glyph-name="F.sc" horiz-adv-x="466" 
d="M178 566h357l-20 -112h-231l-22 -120h183l-19 -111h-183l-39 -223h-126z" />
    <glyph glyph-name="G.sc" horiz-adv-x="641" 
d="M528 397h-4q-38 56 -110 56q-69 0 -125.5 -51t-69.5 -123q-13 -70 26 -121.5t107 -51.5q47 0 93 25t54 64h-150l18 103h295q-27 -154 -115 -231t-216 -77q-122 0 -190.5 84.5t-47.5 204.5q22 122 121 207t221 85q132 0 198 -95z" />
    <glyph glyph-name="H.sc" horiz-adv-x="600" 
d="M622 566l-100 -566h-127l39 225h-192l-39 -225h-125l100 566h125l-41 -228h192l41 228h127z" />
    <glyph glyph-name="I.sc" horiz-adv-x="281" 
d="M303 566l-100 -566h-125l100 566h125z" />
    <glyph glyph-name="J.sc" horiz-adv-x="282" 
d="M-99 -177l31 114q28 -10 71 -10q31 0 49.5 20.5t24.5 53.5l101 565h126l-101 -565q-16 -86 -70 -139.5t-149 -53.5q-31 0 -83 15z" />
    <glyph glyph-name="K.sc" horiz-adv-x="528" 
d="M317 286l215 -286h-164l-131 185l-32 -185h-127l100 566h127l-31 -175l159 175h148z" />
    <glyph glyph-name="L.sc" horiz-adv-x="428" 
d="M178 566h126l-81 -454h209l-19 -112h-335z" />
    <glyph glyph-name="M.sc" horiz-adv-x="772" 
d="M422 210l229 356h106l-32 -566h-126l19 326l-173 -262h-96l-80 262l-96 -326h-126l169 566h104z" />
    <glyph glyph-name="N.sc" horiz-adv-x="582" 
d="M504 0h-111l-133 329l-57 -329h-125l100 566h114l128 -324l58 324h126z" />
    <glyph glyph-name="O.sc" horiz-adv-x="662" 
d="M93 279q22 122 120 207t218 85q121 0 189.5 -85t46.5 -207q-21 -120 -120 -204.5t-220 -84.5q-119 0 -187 84.5t-47 204.5zM218 279q-12 -68 26 -116t105 -48q68 0 124.5 48t68.5 116q12 69 -27 118t-107 49q-67 0 -122.5 -49t-67.5 -118z" />
    <glyph glyph-name="P.sc" horiz-adv-x="529" 
d="M178 566h233q91 0 129.5 -55t25.5 -132q-14 -78 -71.5 -131.5t-149.5 -53.5h-107l-34 -194h-126zM389 454h-105l-27 -150h101q31 0 53.5 23t27.5 52q5 28 -8 51.5t-42 23.5z" />
    <glyph glyph-name="Q.sc" horiz-adv-x="667" 
d="M511 45l38 -90l-100 -55l-43 99q-36 -9 -75 -9q-122 0 -190.5 84.5t-47.5 204.5q22 122 121 207t221 85t191 -85t47 -207q-13 -70 -55.5 -131.5t-106.5 -102.5zM427 238l38 -88q30 24 53 58.5t29 70.5q13 72 -26 122.5t-107 50.5q-69 0 -125.5 -50.5t-69.5 -122.5
q-10 -60 17.5 -105t80.5 -57q19 -5 42 -5l-20 44l-12 28z" />
    <glyph glyph-name="R.sc" horiz-adv-x="550" 
d="M397 199l106 -199h-153l-91 194h-21l-34 -194h-126l100 566h233q90 0 130 -55.5t26 -131.5q-11 -63 -55.5 -113.5t-114.5 -66.5zM385 454h-101l-27 -150h97q32 0 54 23t27 52t-7.5 52t-42.5 23z" />
    <glyph glyph-name="S.sc" horiz-adv-x="500" 
d="M75 169h126q-3 -29 14 -47.5t54 -18.5q35 0 59.5 14.5t29.5 40.5q4 21 -6.5 35.5t-47.5 24.5l-65 20q-137 43 -116 163q14 76 78 123.5t147 47.5q85 0 130.5 -48t30.5 -130h-125q5 28 -9.5 45.5t-46.5 17.5q-30 0 -53 -15t-27 -37q-5 -38 48 -55l64 -20q43 -13 72 -34.5
t40 -44t15 -48t-2 -45.5q-14 -81 -83.5 -124.5t-152.5 -43.5q-92 0 -140 50t-34 129z" />
    <glyph glyph-name="T.sc" horiz-adv-x="471" 
d="M121 566h429l-20 -114h-150l-80 -452h-128l80 452h-151z" />
    <glyph glyph-name="U.sc" horiz-adv-x="584" 
d="M312 109q37 0 69.5 26t39.5 66l65 365h126l-65 -365q-17 -94 -91.5 -152.5t-165.5 -58.5t-145.5 58.5t-37.5 152.5l65 365h128l-65 -365q-7 -40 16.5 -66t60.5 -26z" />
    <glyph glyph-name="V.sc" horiz-adv-x="505" 
d="M255 566l33 -355l161 355h132l-273 -566h-111l-73 566h131z" />
    <glyph glyph-name="W.sc" horiz-adv-x="759" 
d="M710 566h136l-293 -566h-98l-26 284l-125 -284h-99l-91 566h136l45 -343l118 264h103l25 -263z" />
    <glyph glyph-name="X.sc" horiz-adv-x="573" 
d="M413 302l145 -302h-149l-88 198l-156 -198h-149l248 302l-131 264h152l71 -164l133 164h150z" />
    <glyph glyph-name="Y.sc" horiz-adv-x="575" 
d="M351 0h-128l44 256l-163 310h150l96 -206l170 206h152l-277 -311z" />
    <glyph glyph-name="Z.sc" horiz-adv-x="516" 
d="M63 95l318 360h-243l20 111h406l-17 -94l-319 -360h255l-19 -112h-417z" />
    <glyph glyph-name="Scaron.sc" horiz-adv-x="500" 
d="M323 760l49 -71l78 71h87l-117 -142h-118l-68 142h89zM75 169h126q-3 -29 14 -47.5t54 -18.5q35 0 59.5 14.5t29.5 40.5q4 21 -6.5 35.5t-47.5 24.5l-65 20q-137 42 -116 163q14 76 78 123.5t147 47.5q85 0 130.5 -48t30.5 -130h-125q5 28 -9.5 45.5t-46.5 17.5
q-30 0 -53 -15t-27 -37q-5 -38 48 -55l64 -20q43 -13 72 -34.5t40 -44t15 -48t-2 -45.5q-14 -81 -83.5 -124.5t-152.5 -43.5q-92 0 -140 50t-34 129z" />
    <glyph glyph-name="OE.sc" horiz-adv-x="916" 
d="M595 566h361l-20 -111h-235l-22 -121h205l-19 -110h-205l-20 -112h242l-19 -112h-368l8 48q-83 -58 -174 -58q-120 0 -188.5 84.5t-47.5 204.5q22 122 120.5 207t219.5 85q97 0 152 -59zM219 279q-12 -68 26 -116t106 -48q67 0 123.5 48t68.5 116q12 69 -27 118t-106 49
q-68 0 -123.5 -49t-67.5 -118z" />
    <glyph glyph-name="Ydieresis.sc" horiz-adv-x="575" 
d="M351 0h-128l44 256l-163 310h150l96 -206l170 206h152l-277 -311zM278 703q4 25 25 41.5t47 16.5t40 -16.5t10 -41.5q-5 -26 -25 -42.5t-46 -16.5t-41 16.5t-10 42.5zM422 703q4 25 25 41.5t47 16.5t40 -16.5t10 -41.5q-5 -26 -25 -42.5t-46 -16.5t-41 16.5t-10 42.5z
" />
    <glyph glyph-name="exclamdown.sc" horiz-adv-x="287" 
d="M208 0h-130l87 399h97zM159 505q6 31 30.5 51t54.5 20q31 0 49 -20.5t12 -50.5t-31 -50t-55 -20q-31 0 -48.5 20t-11.5 50z" />
    <glyph glyph-name="questiondown.sc" horiz-adv-x="430" 
d="M303 160h114l3 3q-13 -79 -70 -126t-136 -47q-78 0 -118 44t-27 118q10 58 48 99.5t91 56.5q17 5 26.5 13t13.5 16.5t9 27.5l8 28h117l-3 -20q-12 -68 -40.5 -106.5t-87.5 -60.5q-36 -13 -47 -24t-14 -31q-3 -16 10 -28t36 -12q24 0 42.5 14t24.5 35zM414 500
q-5 -31 -30.5 -51t-55.5 -20q-31 0 -49 20t-13 51q5 30 31 50.5t57 20.5q30 0 47.5 -20.5t12.5 -50.5z" />
    <glyph glyph-name="Agrave.sc" 
d="M370 619l-100 142h121l68 -142h-89zM402 132h-189l-73 -132h-133l310 566h134l110 -566h-133zM380 242l-22 182l-85 -182h107z" />
    <glyph glyph-name="Aacute.sc" 
d="M570 761l-150 -142h-89l119 142h120zM402 132h-189l-73 -132h-133l310 566h134l110 -566h-133zM380 242l-22 182l-85 -182h107z" />
    <glyph glyph-name="Acircumflex.sc" 
d="M456 622l-51 70l-75 -70h-88l117 143h117l68 -143h-88zM402 132h-189l-73 -132h-133l310 566h134l110 -566h-133zM380 242l-22 182l-85 -182h107z" />
    <glyph glyph-name="Atilde.sc" 
d="M402 132h-189l-73 -132h-133l310 566h134l110 -566h-133zM380 242l-22 182l-85 -182h107zM367 673q-5 0 -13 -8.5t-11 -25.5h-68q13 57 43.5 84t61.5 27q16 0 34 -16.5t31 -16.5q3 0 7 2.5t9 10.5t8 20h67q-12 -58 -42.5 -84t-61.5 -26q-14 0 -33 16.5t-32 16.5z" />
    <glyph glyph-name="Adieresis.sc" 
d="M263 703q4 25 25.5 41.5t47.5 16.5t40 -16.5t10 -41.5q-5 -26 -25 -42.5t-46 -16.5t-41.5 16.5t-10.5 42.5zM407 703q4 25 25.5 41.5t47.5 16.5t40.5 -16.5t10.5 -41.5q-5 -26 -25.5 -42.5t-46.5 -16.5t-41.5 16.5t-10.5 42.5zM402 132h-189l-73 -132h-133l310 566h134
l110 -566h-133zM380 242l-22 182l-85 -182h107z" />
    <glyph glyph-name="Aring.sc" 
d="M309 720q8 44 42 73.5t77 29.5t67.5 -30t16.5 -73q-7 -43 -42 -72t-78 -29t-67 29t-16 72zM368 720q-4 -18 6.5 -30t28.5 -12t32.5 12t18.5 30t-7 31t-29 13q-17 0 -31.5 -13t-18.5 -31zM402 132h-189l-73 -132h-133l310 566h134l110 -566h-133zM380 242l-22 182
l-85 -182h107z" />
    <glyph glyph-name="AE.sc" horiz-adv-x="796" 
d="M251 128l-103 -128h-151l458 566h380l-20 -111h-235l-22 -121h206l-19 -110h-206l-20 -112h243l-19 -112h-369l22 128h-145zM345 250h73l24 140z" />
    <glyph glyph-name="Ccedilla.sc" horiz-adv-x="601" 
d="M268 -97q0 -9 8 -13.5t17 -0.5q19 7 17 31l-14 73q-108 12 -165 94t-37 194q22 122 118.5 207t217.5 85q74 0 130.5 -33.5t86.5 -90.5l-115 -70q-38 75 -122 75q-68 0 -121.5 -50t-67.5 -123q-13 -70 23.5 -120t104.5 -50q89 0 152 79l89 -72q-92 -111 -230 -125
q7 -20 16 -43q6 -16 1 -41q-6 -36 -37 -61.5t-68 -25.5t-57.5 28.5t-10.5 78.5l67 -3q-3 -14 -3 -23z" />
    <glyph glyph-name="Egrave.sc" horiz-adv-x="499" 
d="M178 566h361l-20 -112h-236l-22 -120h207l-19 -110h-207l-20 -112h243l-19 -112h-368zM353 619l-101 142h121l69 -142h-89z" />
    <glyph glyph-name="Eacute.sc" horiz-adv-x="499" 
d="M531 761l-151 -142h-89l119 142h121zM539 566h-361l-100 -566h368l19 112h-243l20 112h207l19 110h-207l22 120h236z" />
    <glyph glyph-name="Ecircumflex.sc" horiz-adv-x="499" 
d="M178 566h361l-20 -112h-236l-22 -120h207l-19 -110h-207l-20 -112h243l-19 -112h-368zM419 622l-51 70l-76 -70h-87l116 143h118l68 -143h-88z" />
    <glyph glyph-name="Edieresis.sc" horiz-adv-x="499" 
d="M236 703q4 25 25.5 41.5t47.5 16.5q25 0 39.5 -16.5t10.5 -41.5q-5 -26 -25.5 -42.5t-45.5 -16.5q-27 0 -42 16.5t-10 42.5zM380 703q4 25 25.5 41.5t47.5 16.5q25 0 39.5 -16.5t10.5 -41.5q-5 -26 -25.5 -42.5t-45.5 -16.5q-27 0 -42 16.5t-10 42.5zM539 566h-361
l-100 -566h368l19 112h-243l20 112h207l19 110h-207l22 120h236z" />
    <glyph glyph-name="Igrave.sc" horiz-adv-x="281" 
d="M225 619l-100 142h120l69 -142h-89zM303 566l-100 -566h-125l100 566h125z" />
    <glyph glyph-name="Iacute.sc" horiz-adv-x="281" 
d="M304 766h125l-154 -132h-92zM303 566l-100 -566h-125l100 566h125z" />
    <glyph glyph-name="Icircumflex.sc" horiz-adv-x="281" 
d="M314 622l-51 70l-74 -70h-89l118 143h116l69 -143h-89zM303 566l-100 -566h-125l100 566h125z" />
    <glyph glyph-name="Idieresis.sc" horiz-adv-x="281" 
d="M303 566l-100 -566h-125l100 566h125zM129 703q4 25 25.5 41.5t47.5 16.5q25 0 39.5 -16.5t10.5 -41.5q-5 -26 -25.5 -42.5t-45.5 -16.5q-27 0 -42 16.5t-10 42.5zM273 703q4 25 25.5 41.5t47.5 16.5q25 0 39.5 -16.5t10.5 -41.5q-5 -26 -25.5 -42.5t-45.5 -16.5
q-27 0 -42 16.5t-10 42.5z" />
    <glyph glyph-name="Eth.sc" horiz-adv-x="613" 
d="M310 0h-223l40 234h-76l15 79h76l45 253h223q119 0 173 -80t32 -205q-22 -124 -104 -202.5t-201 -78.5zM268 313h99l-15 -79h-99l-21 -119h97q62 0 104.5 48t55.5 118q13 73 -12.5 121.5t-87.5 48.5h-97z" />
    <glyph glyph-name="Ntilde.sc" horiz-adv-x="582" 
d="M504 0h-111l-133 329l-57 -329h-125l100 566h114l128 -324l58 324h126zM374 673q-5 0 -13 -8.5t-11 -25.5h-68q13 57 43.5 84t61.5 27q15 0 33.5 -16.5t31.5 -16.5q3 0 7 2.5t9 10.5t8 20h67q-12 -58 -42.5 -84t-61.5 -26q-14 0 -33 16.5t-32 16.5z" />
    <glyph glyph-name="Ograve.sc" horiz-adv-x="662" 
d="M415 619l-101 142h120l69 -142h-88zM93 279q22 122 120 207t218 85q121 0 189.5 -85t46.5 -207q-21 -120 -120 -204.5t-220 -84.5q-119 0 -187 84.5t-47 204.5zM218 279q-12 -68 26 -116t105 -48q68 0 124.5 48t68.5 116q12 69 -27 118t-107 49q-67 0 -122.5 -49
t-67.5 -118z" />
    <glyph glyph-name="Oacute.sc" horiz-adv-x="662" 
d="M620 761l-151 -142h-88l118 142h121zM93 279q-21 -120 47 -204.5t187 -84.5q121 0 220 84.5t120 204.5q22 122 -46.5 207t-189.5 85q-120 0 -218 -85t-120 -207zM218 279q12 69 67.5 118t122.5 49q68 0 107 -49t27 -118q-12 -68 -68.5 -116t-124.5 -48q-67 0 -105 48
t-26 116z" />
    <glyph glyph-name="Ocircumflex.sc" horiz-adv-x="662" 
d="M504 622l-52 71l-74 -71h-88l117 143h117l68 -143h-88zM93 279q22 122 120 207t218 85q121 0 189.5 -85t46.5 -207q-21 -120 -120 -204.5t-220 -84.5q-119 0 -187 84.5t-47 204.5zM218 279q-12 -68 26 -116t105 -48q68 0 124.5 48t68.5 116q12 69 -27 118t-107 49
q-67 0 -122.5 -49t-67.5 -118z" />
    <glyph glyph-name="Otilde.sc" horiz-adv-x="662" 
d="M93 279q22 122 120 207t218 85q121 0 189.5 -85t46.5 -207q-21 -120 -120 -204.5t-220 -84.5q-119 0 -187 84.5t-47 204.5zM218 279q-12 -68 26 -116t105 -48q68 0 124.5 48t68.5 116q12 69 -27 118t-107 49q-67 0 -122.5 -49t-67.5 -118zM414 673q-5 0 -12.5 -8.5
t-11.5 -25.5h-68q13 57 43.5 84t61.5 27q15 0 34 -16.5t32 -16.5q3 0 6.5 2.5t8.5 10.5t8 20h67q-12 -58 -42.5 -84t-61.5 -26q-14 0 -33 16.5t-32 16.5z" />
    <glyph glyph-name="Odieresis.sc" horiz-adv-x="662" 
d="M321 703q4 25 25.5 41.5t47.5 16.5q25 0 39.5 -16.5t10.5 -41.5q-5 -26 -25.5 -42.5t-45.5 -16.5q-27 0 -42 16.5t-10 42.5zM465 703q4 25 25.5 41.5t47.5 16.5t40 -16.5t10 -41.5q-5 -26 -25 -42.5t-46 -16.5q-27 0 -42 16.5t-10 42.5zM93 279q-21 -120 47 -204.5
t187 -84.5q121 0 220 84.5t120 204.5q22 122 -46.5 207t-189.5 85q-120 0 -218 -85t-120 -207zM218 279q12 69 67.5 118t122.5 49q68 0 107 -49t27 -118q-12 -68 -68.5 -116t-124.5 -48q-67 0 -105 48t-26 116z" />
    <glyph glyph-name="Oslash.sc" horiz-adv-x="661" 
d="M161 51l-78 -67l-35 42l77 67q-51 81 -33 186q21 122 119.5 207t218.5 85q103 0 171 -66l75 67l34 -42l-77 -66q51 -81 33 -185q-21 -120 -119.5 -204.5t-219.5 -84.5q-98 0 -166 61zM217 279q-9 -53 11 -96l268 233q-37 30 -88 30q-67 0 -123 -49t-68 -118zM348 115
q68 0 124.5 48t68.5 116q9 51 -12 94l-266 -232q34 -26 85 -26z" />
    <glyph glyph-name="Ugrave.sc" horiz-adv-x="584" 
d="M383 619l-100 142h121l67 -142h-88zM312 109q37 0 69.5 26t39.5 66l65 365h126l-65 -365q-17 -94 -91.5 -152.5t-165.5 -58.5t-145.5 58.5t-37.5 152.5l65 365h128l-65 -365q-7 -40 16.5 -66t60.5 -26z" />
    <glyph glyph-name="Uacute.sc" horiz-adv-x="584" 
d="M569 761l-150 -142h-89l119 142h120zM312 109q37 0 69.5 26t39.5 66l65 365h126l-65 -365q-17 -94 -91.5 -152.5t-165.5 -58.5t-145.5 58.5t-37.5 152.5l65 365h128l-65 -365q-7 -40 16.5 -66t60.5 -26z" />
    <glyph glyph-name="Ucircumflex.sc" horiz-adv-x="584" 
d="M465 622l-52 71l-74 -71h-89l118 143h117l68 -143h-88zM312 109q37 0 69.5 26t39.5 66l65 365h126l-65 -365q-17 -94 -91.5 -152.5t-165.5 -58.5t-145.5 58.5t-37.5 152.5l65 365h128l-65 -365q-7 -40 16.5 -66t60.5 -26z" />
    <glyph glyph-name="Udieresis.sc" horiz-adv-x="584" 
d="M282 703q4 25 25.5 41.5t47.5 16.5t40 -16.5t10 -41.5q-5 -26 -25 -42.5t-46 -16.5t-41.5 16.5t-10.5 42.5zM426 703q4 25 25.5 41.5t47.5 16.5t40.5 -16.5t10.5 -41.5q-5 -26 -25.5 -42.5t-46.5 -16.5t-41.5 16.5t-10.5 42.5zM312 109q37 0 69.5 26t39.5 66l65 365h126
l-65 -365q-17 -94 -91.5 -152.5t-165.5 -58.5t-145.5 58.5t-37.5 152.5l65 365h128l-65 -365q-7 -40 16.5 -66t60.5 -26z" />
    <glyph glyph-name="Yacute.sc" horiz-adv-x="575" 
d="M351 0h-128l44 256l-163 310h150l96 -206l170 206h152l-277 -311zM568 761l-151 -142h-88l118 142h121z" />
    <glyph glyph-name="Thorn.sc" horiz-adv-x="492" 
d="M295 103h-75l-17 -103h-125l100 566h125l-17 -91h75q80 0 123.5 -50.5t28.5 -134.5q-15 -83 -77 -135t-141 -52zM239 209h70q26 0 50 21.5t30 55.5q6 37 -9 59.5t-41 22.5h-71z" />
    <glyph glyph-name="Amacron.sc" 
d="M298 734h232l-14 -75h-232zM402 132h-189l-73 -132h-133l310 566h134l110 -566h-133zM380 242l-22 182l-85 -182h107z" />
    <glyph glyph-name="Abreve.sc" 
d="M302 746h75q-8 -42 30 -42q35 0 43 42h77q-8 -50 -45.5 -80.5t-87.5 -30.5q-54 0 -77 32.5t-15 78.5zM402 132h-189l-73 -132h-133l310 566h134l110 -566h-133zM380 242l-22 182l-85 -182h107z" />
    <glyph glyph-name="Cacute.sc" horiz-adv-x="599" 
d="M626 761l-151 -142h-89l119 142h121zM588 117l-89 71q-63 -79 -151 -79q-68 0 -104.5 50t-23.5 120q13 73 67 123t122 50q83 0 122 -75l115 70q-31 58 -86.5 91t-129.5 33q-121 0 -218 -85t-119 -207q-21 -120 46 -204.5t187 -84.5q76 0 145 34t117 93z" />
    <glyph glyph-name="Ccircumflex.sc" horiz-adv-x="599" 
d="M499 622l-51 70l-75 -70h-88l117 143h117l68 -143h-88zM499 188l89 -71q-48 -59 -117 -93t-145 -34q-120 0 -187 84.5t-46 204.5q22 122 119 207t218 85q74 0 129.5 -33t86.5 -91l-115 -70q-39 75 -122 75q-68 0 -122 -50t-67 -123q-13 -70 23.5 -120t104.5 -50
q88 0 151 79z" />
    <glyph glyph-name="Cdotaccent.sc" horiz-adv-x="599" 
d="M385 708q5 27 27 45t50 18q27 0 43.5 -18t11.5 -45q-5 -28 -27.5 -46t-50.5 -18q-29 0 -44 18t-10 46zM588 117l-89 71q-63 -79 -151 -79q-68 0 -104.5 50t-23.5 120q13 73 67 123t122 50q83 0 122 -75l115 70q-31 58 -86.5 91t-129.5 33q-121 0 -218 -85t-119 -207
q-21 -120 46 -204.5t187 -84.5q76 0 145 34t117 93z" />
    <glyph glyph-name="Ccaron.sc" horiz-adv-x="599" 
d="M391 760l49 -70l76 70h89l-119 -142h-116l-68 142h89zM499 188l89 -71q-48 -59 -117 -93t-145 -34q-120 0 -187 84.5t-46 204.5q22 122 119 207t218 85q74 0 129.5 -33t86.5 -91l-115 -70q-39 75 -122 75q-68 0 -122 -50t-67 -123q-13 -70 23.5 -120t104.5 -50
q88 0 151 79z" />
    <glyph glyph-name="Dcaron.sc" horiz-adv-x="608" 
d="M303 0h-225l101 570h225q120 0 174.5 -80.5t32.5 -206.5q-22 -124 -105 -203.5t-203 -79.5zM287 451l-59 -332h95q61 0 103.5 47.5t55.5 116.5q13 71 -13 119.5t-87 48.5h-95zM365 760l50 -70q18 16 77 70h89l-119 -142h-118l-67 142h88z" />
    <glyph glyph-name="Aogonek.sc" 
d="M484 0l-41 -80q-9 -25 6 -31q20 -9 31 14l6 23l67 3q-7 -50 -37.5 -78.5t-67.5 -28.5t-59 25.5t-16 61.5q4 25 15 41q3 4 18 24.5t20 28.5l-24 129h-189q-32 -56 -73 -132h-133l310 566h134l110 -566h-77zM358 423l-85 -181h108z" />
    <glyph glyph-name="Emacron.sc" horiz-adv-x="499" 
d="M178 566h361l-20 -112h-236l-22 -120h207l-19 -110h-207l-20 -112h243l-19 -112h-368zM259 734h232l-14 -75h-232z" />
    <glyph glyph-name="Ebreve.sc" horiz-adv-x="499" 
d="M264 746h75q-8 -42 31 -42q34 0 42 42h77q-8 -50 -45 -80.5t-87 -30.5q-54 0 -77.5 32.5t-15.5 78.5zM539 566h-361l-100 -566h368l19 112h-243l20 112h207l19 110h-207l22 120h236z" />
    <glyph glyph-name="Edotaccent.sc" horiz-adv-x="499" 
d="M312 708q5 27 27.5 45t50.5 18q27 0 43 -18t11 -45q-5 -28 -27.5 -46t-49.5 -18q-29 0 -44.5 18t-10.5 46zM539 566h-361l-100 -566h368l19 112h-243l20 112h207l19 110h-207l22 120h236z" />
    <glyph glyph-name="Ecaron.sc" horiz-adv-x="499" 
d="M316 760l51 -70l76 70h88l-118 -142h-118l-66 142h87zM178 566h361l-20 -112h-236l-22 -120h207l-19 -110h-207l-20 -112h243l-19 -112h-368z" />
    <glyph glyph-name="Gcircumflex.sc" horiz-adv-x="641" 
d="M496 622l-51 70l-74 -70h-89l118 143h116l69 -143h-89zM528 397q-44 56 -114 56q-69 0 -125.5 -51t-69.5 -123q-13 -70 26 -121.5t107 -51.5q47 0 93 25t54 64h-150l18 103h295q-27 -154 -115 -231t-216 -77q-122 0 -190.5 84.5t-47.5 204.5q22 122 121 207t221 85
q132 0 198 -95z" />
    <glyph glyph-name="Gbreve.sc" horiz-adv-x="641" 
d="M528 397q-44 56 -114 56q-69 0 -125.5 -51t-69.5 -123q-13 -70 26 -121.5t107 -51.5q47 0 93 25t54 64h-150l18 103h295q-27 -154 -115 -231t-216 -77q-122 0 -190.5 84.5t-47.5 204.5q22 122 121 207t221 85q132 0 198 -95zM342 746h75q-6 -42 30 -42q35 0 43 42h77
q-8 -50 -45.5 -80.5t-87.5 -30.5q-54 0 -77 32.5t-15 78.5z" />
    <glyph glyph-name="Eogonek.sc" horiz-adv-x="499" 
d="M383 0h-305l100 566h361l-20 -112h-236l-22 -120h207l-19 -110h-207l-20 -112h243l-20 -110l-47 -82q-9 -25 6 -31q20 -9 31 14l6 23l67 3q-7 -50 -37.5 -78.5t-67.5 -28.5t-59 25.5t-16 61.5q4 25 15 41z" />
    <glyph glyph-name="Dcroat.sc" horiz-adv-x="613" 
d="M310 0h-223l40 234h-76l15 79h76l45 253h223q119 0 173 -80t32 -205q-22 -124 -104 -202.5t-201 -78.5zM268 313h99l-15 -79h-99l-21 -119h97q62 0 104.5 48t55.5 118q13 73 -12.5 121.5t-87.5 48.5h-97z" />
    <glyph glyph-name="Gdotaccent.sc" horiz-adv-x="641" 
d="M528 397h-4q-38 56 -110 56q-69 0 -125.5 -51t-69.5 -123q-13 -70 26 -121.5t107 -51.5q47 0 93 25t54 64h-150l18 103h295q-27 -154 -115 -231t-216 -77q-122 0 -190.5 84.5t-47.5 204.5q22 122 121 207t221 85q132 0 198 -95zM391 708q5 27 27 45t50 18q27 0 43.5 -18
t11.5 -45q-5 -28 -27.5 -46t-50.5 -18q-29 0 -44 18t-10 46z" />
    <glyph glyph-name="Hcircumflex.sc" horiz-adv-x="600" 
d="M622 566l-100 -566h-127l39 225h-192l-39 -225h-125l100 566h125l-41 -228h192l41 228h127zM473 622l-51 70l-75 -70h-88l117 143h117l68 -143h-88z" />
    <glyph glyph-name="Hbar.sc" horiz-adv-x="611" 
d="M614 486h59l-12 -65h-59l-74 -421h-127l39 225h-192l-39 -225h-126l74 421h-58l12 65h58l14 80h126l-14 -80h192l14 80h127zM268 338h192l15 83h-192z" />
    <glyph glyph-name="Itilde.sc" horiz-adv-x="269" 
d="M189 -8h-113l103 582h113zM218 673q-5 0 -13 -8.5t-11 -25.5h-68q13 57 43.5 84t61.5 27q15 0 34 -16.5t31 -16.5q3 0 7 2.5t9 10.5t8 20h67q-12 -58 -42.5 -84t-61.5 -26q-14 0 -33 16.5t-32 16.5z" />
    <glyph glyph-name="Imacron.sc" horiz-adv-x="281" 
d="M155 734h232l-14 -75h-232zM303 566l-100 -566h-125l100 566h125z" />
    <glyph glyph-name="Iogonek.sc" horiz-adv-x="281" 
d="M77 4l101 562h125l-100 -566h-63l-46 -80q-11 -24 5 -31q20 -9 31 14l7 23l67 3q-7 -50 -37.5 -78.5t-67.5 -28.5t-59.5 25.5t-16.5 61.5q4 22 15 41z" />
    <glyph glyph-name="IJ.sc" horiz-adv-x="563" 
d="M303 566l-100 -566h-125l100 566h125zM180 -177l31 114q28 -10 73 -10q31 0 49.5 20.5t24.5 53.5l101 565h126l-101 -565q-16 -86 -70 -139.5t-151 -53.5q-31 0 -83 15z" />
    <glyph glyph-name="Jcircumflex.sc" horiz-adv-x="270" 
d="M308 622l-51 70l-75 -70h-88l117 143h117l69 -143h-89zM-97 -173l28 101q23 -7 68 -7q32 0 52 22.5t26 57.5l100 559h114l-100 -559q-15 -83 -67 -135t-144 -52q-27 0 -77 13z" />
    <glyph glyph-name="Lacute.sc" horiz-adv-x="428" 
d="M425 761l-151 -142h-88l117 142h122zM304 566h-126l-100 -566h335l19 112h-209z" />
    <glyph glyph-name="Lcaron.sc" horiz-adv-x="442" 
d="M386 347l-70 24q57 66 81 132q13 35 18 64h100q-19 -76 -55.5 -134.5t-73.5 -85.5zM304 566h-126l-100 -566h335l19 112h-209z" />
    <glyph glyph-name="Ldot.sc" horiz-adv-x="429" 
d="M178 566h126l-81 -454h209l-19 -112h-335zM305 254q4 24 25 40.5t47 16.5q25 0 39 -16.5t10 -40.5q-4 -26 -24.5 -42.5t-45.5 -16.5q-26 0 -40.5 16.5t-10.5 42.5z" />
    <glyph glyph-name="Nacute.sc" horiz-adv-x="582" 
d="M584 761l-151 -142h-88l119 142h120zM393 0h111l100 566h-126l-58 -324l-128 324h-114l-100 -566h125l57 329z" />
    <glyph glyph-name="Ncaron.sc" horiz-adv-x="582" 
d="M504 0h-111l-133 329l-57 -329h-125l100 566h114l128 -324l58 324h126zM355 760l51 -70l76 70h88l-118 -142h-118l-66 142h87z" />
    <glyph glyph-name="Omacron.sc" horiz-adv-x="662" 
d="M344 734h232l-13 -75h-232zM93 279q22 122 120 207t218 85q121 0 189.5 -85t46.5 -207q-21 -120 -120 -204.5t-220 -84.5q-119 0 -187 84.5t-47 204.5zM218 279q-12 -68 26 -116t105 -48q68 0 124.5 48t68.5 116q12 69 -27 118t-107 49q-67 0 -122.5 -49t-67.5 -118z" />
    <glyph glyph-name="Obreve.sc" horiz-adv-x="662" 
d="M349 746h75q-6 -42 30 -42q35 0 43 42h77q-8 -50 -45 -80.5t-88 -30.5q-54 0 -77 32.5t-15 78.5zM93 279q-21 -120 47 -204.5t187 -84.5q121 0 220 84.5t120 204.5q22 122 -46.5 207t-189.5 85q-120 0 -218 -85t-120 -207zM218 279q12 69 67.5 118t122.5 49q68 0 107 -49
t27 -118q-12 -68 -68.5 -116t-124.5 -48q-67 0 -105 48t-26 116z" />
    <glyph glyph-name="Ohungarumlaut.sc" horiz-adv-x="662" 
d="M584 760h100l-137 -142h-93zM453 760h99l-129 -142h-89zM93 279q22 122 120 207t218 85q121 0 189.5 -85t46.5 -207q-21 -120 -120 -204.5t-220 -84.5q-119 0 -187 84.5t-47 204.5zM218 279q-12 -68 26 -116t105 -48q68 0 124.5 48t68.5 116q12 69 -27 118t-107 49
q-67 0 -122.5 -49t-67.5 -118z" />
    <glyph glyph-name="Racute.sc" horiz-adv-x="550" 
d="M546 761l-151 -142h-89l119 142h121zM503 0l-106 199q70 16 114.5 66.5t55.5 113.5q14 76 -26 131.5t-130 55.5h-233l-100 -566h126l34 194h21l91 -194h153zM284 454h101q30 0 42.5 -23t7.5 -52t-27 -52t-54 -23h-97z" />
    <glyph glyph-name="Rcaron.sc" horiz-adv-x="550" 
d="M342 760l49 -70l77 70h89l-118 -142h-118l-68 142h89zM397 199l106 -199h-153l-91 194h-21l-34 -194h-126l100 566h233q90 0 130 -55.5t26 -131.5q-11 -63 -55.5 -113.5t-114.5 -66.5zM385 454h-101l-27 -150h97q32 0 54 23t27 52t-7.5 52t-42.5 23z" />
    <glyph glyph-name="Sacute.sc" horiz-adv-x="500" 
d="M540 761l-150 -142h-89l119 142h120zM201 169h-126q-14 -79 34 -129t140 -50q83 0 152.5 43.5t83.5 124.5q6 20 2 45.5t-15 48t-40 44t-72 34.5l-64 20q-53 17 -48 55q4 22 27 37t53 15q32 0 46.5 -17.5t9.5 -45.5h125q15 82 -30.5 130t-130.5 48q-83 0 -147 -47.5
t-78 -123.5q-21 -121 116 -163l65 -20q37 -10 47.5 -24.5t6.5 -35.5q-5 -26 -29.5 -40.5t-59.5 -14.5q-37 0 -54 18.5t-14 47.5z" />
    <glyph glyph-name="Scircumflex.sc" horiz-adv-x="500" 
d="M426 622l-52 70l-75 -70h-88l117 143h118l67 -143h-87zM75 169h126q-3 -29 14 -47.5t54 -18.5q35 0 59.5 14.5t29.5 40.5q4 21 -6.5 35.5t-47.5 24.5l-65 20q-137 42 -116 163q14 76 78 123.5t147 47.5q85 0 130.5 -48t30.5 -130h-125q5 28 -9.5 45.5t-46.5 17.5
q-30 0 -53 -15t-27 -37q-5 -38 48 -55l64 -20q43 -13 72 -34.5t40 -44t15 -48t-2 -45.5q-14 -81 -83.5 -124.5t-152.5 -43.5q-92 0 -140 50t-34 129z" />
    <glyph glyph-name="Scedilla.sc" horiz-adv-x="499" 
d="M289 -13q9 -24 14 -37q6 -16 1 -41q-6 -36 -37 -61.5t-68 -25.5t-57.5 28.5t-10.5 78.5l67 -3q-3 -14 -3 -23t8 -13.5t17 -0.5q19 8 17 31l-14 72q-80 7 -120 56t-26 122h125q-5 -28 12.5 -47.5t54.5 -19.5q35 0 59.5 14.5t29.5 40.5q9 42 -54 60l-63 19
q-138 44 -117 164q13 75 77.5 122.5t146.5 47.5q84 0 129.5 -47.5t30.5 -129.5h-124q5 28 -10 45t-48 17q-30 0 -52.5 -14.5t-26.5 -37.5q-8 -38 49 -54l63 -21q43 -14 72 -36t40 -44.5t15 -47t-2 -43.5q-24 -121 -195 -171z" />
    <glyph glyph-name="Utilde.sc" horiz-adv-x="584" 
d="M312 109q37 0 69.5 26t39.5 66l65 365h126l-65 -365q-17 -94 -91.5 -152.5t-165.5 -58.5t-145.5 58.5t-37.5 152.5l65 365h128l-65 -365q-7 -40 16.5 -66t60.5 -26zM377 673q-5 0 -13 -8.5t-12 -25.5h-68q14 57 44 84t61 27q15 0 34 -16.5t32 -16.5q3 0 7 2.5t9 10.5
t7 20h67q-12 -58 -42.5 -84t-61.5 -26q-14 0 -32.5 16.5t-31.5 16.5z" />
    <glyph glyph-name="Umacron.sc" horiz-adv-x="584" 
d="M306 734h233l-13 -75h-233zM312 109q37 0 69.5 26t39.5 66l65 365h126l-65 -365q-17 -94 -91.5 -152.5t-165.5 -58.5t-145.5 58.5t-37.5 152.5l65 365h128l-65 -365q-7 -40 16.5 -66t60.5 -26z" />
    <glyph glyph-name="Ubreve.sc" horiz-adv-x="584" 
d="M311 746h75q-6 -42 29 -42q38 0 44 42h77q-8 -50 -46 -80.5t-88 -30.5q-54 0 -76.5 32.5t-14.5 78.5zM312 109q37 0 69.5 26t39.5 66l65 365h126l-65 -365q-17 -94 -91.5 -152.5t-165.5 -58.5t-145.5 58.5t-37.5 152.5l65 365h128l-65 -365q-7 -40 16.5 -66t60.5 -26z
" />
    <glyph glyph-name="Uring.sc" horiz-adv-x="584" 
d="M318 720q8 44 42 73.5t76 29.5q44 0 68.5 -30t16.5 -73q-7 -43 -42 -72t-79 -29q-42 0 -65.5 29t-16.5 72zM377 720q-4 -18 6.5 -30t27.5 -12q19 0 33 12t18 30t-6.5 31t-29.5 13q-16 0 -30.5 -13t-18.5 -31zM312 109q37 0 69.5 26t39.5 66l65 365h126l-65 -365
q-17 -94 -91.5 -152.5t-165.5 -58.5t-145.5 58.5t-37.5 152.5l65 365h128l-65 -365q-7 -40 16.5 -66t60.5 -26z" />
    <glyph glyph-name="Uhungarumlaut.sc" horiz-adv-x="584" 
d="M312 109q37 0 69.5 26t39.5 66l65 365h126l-65 -365q-17 -94 -91.5 -152.5t-165.5 -58.5t-145.5 58.5t-37.5 152.5l65 365h128l-65 -365q-7 -40 16.5 -66t60.5 -26zM524 760h100l-137 -142h-93zM393 760h99l-129 -142h-89z" />
    <glyph glyph-name="Uogonek.sc" horiz-adv-x="584" 
d="M218 -50l33 46q-76 13 -117.5 69t-26.5 138l65 363h128l-65 -363q-7 -40 16.5 -66t60.5 -26t69.5 26t39.5 66l65 363h126l-65 -363q-16 -87 -82 -144.5t-150 -65.5l-41 -73q-11 -24 5 -31q20 -9 31 14l7 23l67 3q-7 -50 -37.5 -78.5t-67.5 -28.5t-59.5 25.5t-16.5 61.5
q4 22 15 41z" />
    <glyph glyph-name="Wcircumflex.sc" horiz-adv-x="759" 
d="M553 622l-51 70l-76 -70h-87l117 143h117l69 -143h-89zM710 566h136l-293 -566h-98l-26 284l-125 -284h-99l-91 566h136l45 -343l118 264h103l25 -263z" />
    <glyph glyph-name="Ycircumflex.sc" horiz-adv-x="575" 
d="M460 622l-51 70l-75 -70h-88l117 143h117l68 -143h-88zM351 0h-128l44 256l-163 310h150l96 -206l170 206h152l-277 -311z" />
    <glyph glyph-name="Tcaron.sc" horiz-adv-x="490" 
d="M100 452l20 114h450l-20 -114h-159l-80 -452h-132l80 452h-159zM316 760l51 -70l76 70h88l-118 -142h-118l-66 142h87z" />
    <glyph glyph-name="Tbar.sc" horiz-adv-x="471" 
d="M137 244l13 75h78l24 132h-151l20 113h427l-20 -113h-150l-24 -132h77l-13 -75h-77l-42 -244h-126l42 244h-78z" />
    <glyph glyph-name="Zacute.sc" horiz-adv-x="516" 
d="M63 95l318 360h-243l20 111h406l-17 -94l-319 -360h255l-19 -112h-417zM542 761l-152 -142h-88l119 142h121z" />
    <glyph glyph-name="Zdotaccent.sc" horiz-adv-x="516" 
d="M63 95l318 360h-243l20 111h406l-17 -94l-319 -360h255l-19 -112h-417zM328 708q5 27 27 45t50 18t44 -18t11 -45q-5 -28 -27.5 -46t-50.5 -18t-43.5 18t-10.5 46z" />
    <glyph glyph-name="Wgrave.sc" horiz-adv-x="759" 
d="M458 619l-100 142h120l69 -142h-89zM710 566h136l-293 -566h-98l-26 284l-125 -284h-99l-91 566h136l45 -343l118 264h103l25 -263z" />
    <glyph glyph-name="Wacute.sc" horiz-adv-x="759" 
d="M669 761l-151 -142h-89l119 142h121zM846 566h-136l-169 -342l-25 263h-103l-118 -264l-45 343h-136l91 -566h99l125 284l26 -284h98z" />
    <glyph glyph-name="Wdieresis.sc" horiz-adv-x="759" 
d="M370 703q4 25 25.5 41.5t47.5 16.5q25 0 40 -17t11 -41q-5 -26 -26 -42.5t-46 -16.5q-27 0 -42 16.5t-10 42.5zM514 703q4 25 25.5 41.5t47.5 16.5q25 0 40 -17t11 -41q-5 -26 -26 -42.5t-46 -16.5q-27 0 -42 16.5t-10 42.5zM846 566h-136l-169 -342l-25 263h-103
l-118 -264l-45 343h-136l91 -566h99l125 284l26 -284h98z" />
    <glyph glyph-name="Aringacute.sc" 
d="M601 911l-119 -112q42 -31 31 -87q-7 -42 -43 -71.5t-80 -29.5q-49 0 -73 43q-15 27 -9 58q7 34 33 61.5t58 38.5l83 99h119zM368 712q-3 -17 7 -29.5t27 -12.5q19 0 33.5 12.5t17.5 29.5q4 19 -6.5 31.5t-29.5 12.5q-17 0 -31 -12.5t-18 -31.5zM402 132h-189l-73 -132
h-133l310 566h134l110 -566h-133zM380 242l-22 182l-85 -182h107z" />
    <glyph glyph-name="AEacute.sc" horiz-adv-x="796" 
d="M726 761l-152 -142h-87l118 142h121zM148 0l103 128h145l-22 -128h369l19 112h-243l20 112h206l19 110h-206l22 121h235l20 111h-380l-458 -566h151zM418 250h-73l97 140z" />
    <glyph glyph-name="Oslashacute.sc" horiz-adv-x="661" 
d="M634 761l-151 -142h-87l117 142h121zM83 -16l78 67q68 -61 166 -61q121 0 219.5 84.5t119.5 204.5q18 104 -33 185l77 66l-34 42l-75 -67q-68 66 -171 66q-120 0 -218.5 -85t-119.5 -207q-18 -105 33 -186l-77 -67zM217 279q12 69 68 118t123 49q51 0 88 -30l-268 -233
q-20 43 -11 96zM348 115q-51 0 -85 26l266 232q21 -43 12 -94q-12 -68 -68.5 -116t-124.5 -48z" />
    <glyph glyph-name="Ibreve.sc" horiz-adv-x="281" 
d="M303 566l-100 -566h-125l100 566h125zM156 746h75q-8 -42 30 -42q35 0 43 42h77q-8 -50 -45.5 -80.5t-87.5 -30.5q-54 0 -77 32.5t-15 78.5z" />
    <glyph glyph-name="Eng.sc" horiz-adv-x="583" 
d="M381 15l-120 314l-57 -329h-126l100 566h115l125 -333l60 333h127l-99 -552q-15 -87 -69.5 -142t-149.5 -55q-29 0 -85 15l35 122q35 -12 74 -12q26 1 44 22.5t26 50.5z" />
    <glyph glyph-name="Ygrave.sc" horiz-adv-x="575" 
d="M374 619l-100 142h121l68 -142h-89zM351 0h-128l44 256l-163 310h150l96 -206l170 206h152l-277 -311z" />
    <glyph glyph-name="Gcommaaccent.sc" horiz-adv-x="641" 
d="M528 397q-44 56 -114 56q-69 0 -125.5 -51t-69.5 -123q-13 -70 26 -121.5t107 -51.5q47 0 93 25t54 64h-150l18 103h295q-27 -154 -115 -231t-216 -77q-122 0 -190.5 84.5t-47.5 204.5q22 122 121 207t221 85q132 0 198 -95zM269 -222l-46 28q28 29 40 62.5t22 92.5h90
q-20 -120 -106 -183z" />
    <glyph glyph-name="Kcommaaccent.sc" horiz-adv-x="528" 
d="M317 286l215 -286h-164l-131 185l-32 -185h-127l100 566h127l-31 -175l159 175h148zM219 -222l-46 28q28 29 40 62.5t22 92.5h90q-22 -121 -106 -183z" />
    <glyph glyph-name="Lcommaaccent.sc" horiz-adv-x="428" 
d="M178 566h126l-81 -454h209l-19 -112h-335zM168 -222l-46 28q28 29 40 62.5t22 92.5h90q-22 -121 -106 -183z" />
    <glyph glyph-name="Ncommaaccent.sc" horiz-adv-x="582" 
d="M504 0h-111l-134 324l-56 -324h-125l100 566h114l129 -319l57 319h126zM230 -222l-46 28q28 29 40 62.5t22 92.5h90q-22 -121 -106 -183z" />
    <glyph glyph-name="Rcommaaccent.sc" horiz-adv-x="550" 
d="M397 199l106 -199h-153l-91 194h-21l-34 -194h-126l100 566h233q90 0 130 -55.5t26 -131.5q-11 -63 -55.5 -113.5t-114.5 -66.5zM385 454h-101l-27 -150h97q32 0 54 23t27 52t-7.5 52t-42.5 23zM219 -222l-46 28q28 29 40 62.5t22 92.5h90q-22 -121 -106 -183z" />
    <glyph glyph-name="Tcommaaccent.sc" horiz-adv-x="471" 
d="M121 566h429l-20 -114h-150l-80 -452h-128l80 452h-151zM164 -222l-46 28q28 29 40 62.5t22 92.5h90q-22 -121 -106 -183z" />
    <glyph glyph-name="Scommaaccent.sc" horiz-adv-x="500" 
d="M75 169h126q-3 -29 14 -47.5t54 -18.5q35 0 59.5 14.5t29.5 40.5q4 21 -6.5 35.5t-47.5 24.5l-65 20q-137 42 -116 163q14 76 78 123.5t147 47.5q85 0 130.5 -48t30.5 -130h-125q5 28 -9.5 45.5t-46.5 17.5q-30 0 -53 -15t-27 -37q-5 -38 48 -55l64 -20q43 -13 72 -34.5
t40 -44t15 -48t-2 -45.5q-14 -81 -83.5 -124.5t-152.5 -43.5q-92 0 -140 50t-34 129zM185 -222l-45 28q27 29 39 62.5t22 92.5h90q-20 -120 -106 -183z" />
    <glyph glyph-name="Idotaccent.sc" horiz-adv-x="281" 
d="M303 566l-100 -566h-125l100 566h125zM189 699q6 30 31 50t55 20q31 0 48.5 -20t11.5 -50q-6 -31 -30.5 -51t-54.5 -20q-31 0 -49 20.5t-12 50.5z" />
    <glyph glyph-name="zero.numr" horiz-adv-x="351" 
d="M115 465q36 197 178 197q141 0 105 -197q-34 -196 -174 -196q-143 0 -109 196zM195 465q-18 -118 41 -118q62 0 82 118q20 119 -39 119q-62 0 -84 -119z" />
    <glyph glyph-name="one.numr" horiz-adv-x="216" 
d="M183 548l-71 -27l13 70l158 69l-69 -385h-80z" />
    <glyph glyph-name="two.numr" horiz-adv-x="318" 
d="M85 318l189 185q24 24 28 44q3 16 -7.5 27t-33.5 11q-22 0 -39 -15t-24 -38l-73 13q20 55 60.5 86t93.5 31q51 0 82 -32.5t22 -82.5q-8 -51 -57 -96t-106 -100h118l-13 -76h-247z" />
    <glyph glyph-name="three.numr" horiz-adv-x="317" 
d="M204 566l-57 40q21 27 56 42.5t72 13.5q48 -3 74.5 -34t18.5 -72q-9 -48 -62 -75q29 -11 42 -41.5t5 -61.5q-13 -49 -63 -80.5t-106 -27.5q-39 3 -67.5 25t-39.5 55l76 35q13 -32 50 -37q21 -1 39.5 11.5t23.5 28.5t2 29q-6 24 -45 23h-40l13 69h40q8 0 15 2t11.5 6t8 8
t5 8.5t3 8t1.5 6.5l1 3q3 12 -6 24.5t-27 12.5q-28 0 -44 -22z" />
    <glyph glyph-name="four.numr" horiz-adv-x="345" 
d="M335 360l-15 -85h-81l15 85h-182l232 295h84l-41 -227h48l-12 -68h-48zM194 428h72l22 119z" />
    <glyph glyph-name="five.numr" horiz-adv-x="341" 
d="M160 389q8 -17 24.5 -28.5t34.5 -11.5q33 0 57.5 17.5t28.5 42.5q5 30 -11 46t-47 16q-57 0 -91 -41l-40 23l67 202h222l-14 -74h-158l-22 -63q27 20 74 20q54 0 82.5 -34t17.5 -95q-11 -62 -60 -101t-120 -39q-39 0 -72 21.5t-49 55.5l38 22z" />
    <glyph glyph-name="six.numr" horiz-adv-x="339" 
d="M194 396q-4 -21 8 -35.5t33 -14.5t38.5 14.5t21.5 35.5t-8 36t-33 15t-38.5 -15t-21.5 -36zM408 589l-80 -32q-10 30 -40 30q-39 0 -61 -32.5t-28 -77.5q8 14 32 28.5t52 14.5q46 0 75.5 -33.5t18.5 -94.5q-10 -55 -54 -89t-105 -34q-55 0 -86 36t-26 96q7 78 30 136
q52 129 169 125q83 -4 103 -73z" />
    <glyph glyph-name="seven.numr" horiz-adv-x="314" 
d="M424 655l-236 -380h-91l189 306h-161l13 74h286z" />
    <glyph glyph-name="eight.numr" horiz-adv-x="346" 
d="M231 554q-2 -15 6 -26t26 -11q19 0 31.5 11t14.5 26t-6.5 25.5t-26.5 10.5t-30.5 -10.5t-14.5 -25.5zM179 402q-4 -24 12 -41t42 -17t48 17t26 41q4 22 -10 39t-37 17h-13q-24 0 -44 -17t-24 -39zM154 556q8 44 47.5 75t87.5 31t77.5 -31t21.5 -75q-8 -40 -40 -63
q49 -34 39 -93q-10 -54 -59 -92.5t-108 -38.5t-95 38.5t-26 92.5q10 60 71 93q-23 28 -16 63z" />
    <glyph glyph-name="nine.numr" horiz-adv-x="339" 
d="M308 535q4 21 -8 36t-33 15t-38.5 -15t-21.5 -36t9 -35.5t34 -14.5t37.5 14.5t20.5 35.5zM94 343l80 32q10 -31 39 -31q38 0 60.5 32.5t29.5 78.5q-8 -14 -31.5 -28.5t-52.5 -14.5q-46 0 -75.5 33.5t-18.5 94.5q10 55 53.5 88.5t105.5 33.5q55 0 86.5 -36t26.5 -96
q-5 -49 -17 -91.5t-34 -83.5t-60.5 -64.5t-88.5 -21.5q-82 4 -103 74z" />
    <glyph glyph-name="zero.dnom" horiz-adv-x="351" 
d="M67 190q34 197 178 197q77 0 99 -52.5t6 -144.5q-34 -196 -175 -196q-142 0 -108 196zM147 190q-22 -118 41 -118q60 0 82 118q22 119 -40 119q-61 0 -83 -119z" />
    <glyph glyph-name="one.dnom" horiz-adv-x="216" 
d="M135 273l-71 -27l13 70l157 69l-68 -385h-80z" />
    <glyph glyph-name="two.dnom" horiz-adv-x="318" 
d="M37 43l189 185q23 23 27 44q3 16 -8 27t-33 11t-39 -15t-24 -38l-72 13q19 54 59.5 85.5t94.5 31.5q51 0 82 -32.5t21 -82.5q-10 -52 -57 -96q-73 -69 -105 -100h118l-13 -76h-247z" />
    <glyph glyph-name="three.dnom" horiz-adv-x="318" 
d="M155 291l-13 10l-28 20l-14 10q21 27 55.5 42.5t72.5 13.5q48 -3 74.5 -34t17.5 -72q-9 -49 -62 -75q29 -11 42 -41.5t5 -61.5q-13 -49 -62.5 -80.5t-106.5 -27.5q-39 3 -67.5 25t-39.5 55l77 35q13 -32 50 -37q21 -1 39.5 11.5t23.5 28.5q6 12 2 29q-6 24 -45 23h-40
l11 69h40q18 0 29.5 10.5t14.5 19t3 12.5q1 13 -7 25t-26 12q-26 0 -46 -22z" />
    <glyph glyph-name="four.dnom" horiz-adv-x="344" 
d="M287 85l-15 -85h-81l15 85h-182l231 295h84l-40 -227h48l-12 -68h-48zM146 153h72l21 119z" />
    <glyph glyph-name="five.dnom" horiz-adv-x="340" 
d="M111 114q19 -40 58 -40q33 0 58 18t29 42q5 30 -11.5 46t-47.5 16q-57 0 -91 -41l-41 23l68 202h222l-13 -74h-158l-23 -63q27 20 74 20q54 0 83 -34t18 -95q-11 -62 -60.5 -101t-120.5 -39q-39 0 -71.5 21.5t-48.5 55.5q1 0 38 21.5t38 21.5z" />
    <glyph glyph-name="six.dnom" horiz-adv-x="339" 
d="M145 121q-4 -21 8.5 -35.5t33.5 -14.5t38 14.5t21 35.5t-8.5 36t-33.5 15t-38 -15t-21 -36zM359 314l-80 -32q-10 30 -39 30q-39 0 -61.5 -32.5t-28.5 -77.5q8 14 32.5 28.5t52.5 14.5q46 0 75 -33.5t18 -94.5q-10 -55 -54 -89t-105 -34q-55 0 -86.5 36t-25.5 96
q7 78 30 136q52 129 170 125q83 -4 102 -73z" />
    <glyph glyph-name="seven.dnom" horiz-adv-x="315" 
d="M375 380l-235 -380h-91l189 306h-161l12 74h286z" />
    <glyph glyph-name="eight.dnom" horiz-adv-x="346" 
d="M183 279q-2 -15 6 -26t26 -11q19 0 31.5 11t14.5 26t-7 25.5t-27 10.5t-30 -10.5t-14 -25.5zM130 127q-4 -24 12 -41t42 -17t48 17t26 41q4 22 -10.5 39t-37.5 17h-13q-24 0 -43.5 -17t-23.5 -39zM105 281q8 44 48 75t88 31t77 -31t21 -75q-8 -39 -39 -63q48 -33 38 -93
q-10 -54 -59 -92.5t-108 -38.5t-95 38.5t-26 92.5q10 59 72 93q-24 26 -17 63z" />
    <glyph glyph-name="nine.dnom" horiz-adv-x="340" 
d="M259 260q4 21 -7.5 36t-32.5 15t-39 -15t-22 -36t9 -35.5t34 -14.5t37.5 14.5t20.5 35.5zM45 68l81 32q8 -31 38 -31q39 0 61.5 33t28.5 78q-7 -14 -30.5 -28.5t-52.5 -14.5q-46 0 -76 33.5t-19 94.5q10 55 54 88.5t106 33.5q55 0 87 -36t26 -96q-5 -49 -17 -92
t-34.5 -83.5t-61 -64t-88.5 -21.5q-82 4 -103 74z" />
    <glyph glyph-name="l.alt1" horiz-adv-x="316" 
d="M332 126l-21 -126h-75q-95 0 -126.5 52.5t-14.5 150.5l92 518h140l-93 -521q-16 -74 47 -74h51z" />
    <glyph glyph-name="a.alt1" horiz-adv-x="539" 
d="M248 95q33 0 68 15.5t54 53.5q-25 27 -85 27q-78 0 -88 -49q-4 -20 9.5 -33.5t41.5 -13.5zM186 311l-60 78q79 88 221 88q94 0 147 -50t35 -150l-48 -277h-138l7 47q-58 -57 -145 -57q-80 0 -120.5 42t-29.5 109q11 61 66.5 99t158.5 38q69 0 106 -25q19 104 -77 104
q-69 0 -123 -46z" />
    <glyph glyph-name="y.alt1" horiz-adv-x="509" 
d="M146 -30l42 70l-100 427h147l57 -263l149 263h148l-327 -550q-51 -83 -98.5 -116.5t-120.5 -33.5q-32 0 -62 12l21 121q38 -7 51 -7q22 0 39.5 11.5t27 24t26.5 41.5z" />
    <glyph glyph-name="lslash.alt1" horiz-adv-x="345" 
d="M359 126l-21 -126h-75q-180 0 -142 203l14 75l-87 -48l18 95l86 48l61 348h140l-47 -261l106 60l-16 -95l-106 -60l-29 -165q-16 -74 47 -74h51z" />
    <glyph glyph-name="lacute.alt1" horiz-adv-x="316" 
d="M336 939h138l-178 -168h-100zM311 0l21 126h-51q-63 0 -47 74l93 521h-140l-92 -518q-17 -98 14.5 -150.5t126.5 -52.5h75z" />
    <glyph glyph-name="lcommaaccent.alt1" horiz-adv-x="316" 
d="M130 -287l-62 35q40 46 60.5 88t32.5 108h117q-39 -153 -148 -231zM331 126l-20 -126h-75q-95 0 -127 52.5t-15 150.5l92 518h140l-93 -521q-13 -74 47 -74h51z" />
    <glyph glyph-name="lcaron.alt1" horiz-adv-x="321" 
d="M393 460l-78 29q94 104 116 232h117q-24 -91 -67.5 -160.5t-87.5 -100.5zM311 0l21 126h-51q-63 0 -47 74l93 521h-140l-92 -518q-17 -98 14.5 -150.5t126.5 -52.5h75z" />
    <glyph glyph-name="aacute.alt1" horiz-adv-x="539" 
d="M422 707h138l-179 -168h-100zM248 95q33 0 68 15.5t54 53.5q-25 27 -85 27q-78 0 -88 -49q-4 -20 9.5 -33.5t41.5 -13.5zM186 311l-60 78q79 88 221 88q94 0 147 -50t35 -150l-48 -277h-138l7 47q-58 -57 -145 -57q-80 0 -120.5 42t-29.5 109q11 61 66.5 99t158.5 38
q69 0 106 -25q19 104 -77 104q-69 0 -123 -46z" />
    <glyph glyph-name="agrave.alt1" horiz-adv-x="539" 
d="M195 707h138l79 -168h-100zM248 95q33 0 68 15.5t54 53.5q-25 27 -85 27q-78 0 -88 -49q-4 -20 9.5 -33.5t41.5 -13.5zM186 311l-60 78q79 88 221 88q94 0 147 -50t35 -150l-48 -277h-138l7 47q-58 -57 -145 -57q-80 0 -120.5 42t-29.5 109q11 61 66.5 99t158.5 38
q69 0 106 -25q19 104 -77 104q-69 0 -123 -46z" />
    <glyph glyph-name="acircumflex.alt1" horiz-adv-x="539" 
d="M317 711h138l80 -168h-100l-63 89l-94 -89h-100zM248 95q33 0 68 15.5t54 53.5q-25 27 -85 27q-78 0 -88 -49q-4 -20 9.5 -33.5t41.5 -13.5zM186 311l-60 78q79 88 221 88q94 0 147 -50t35 -150l-48 -277h-138l7 47q-58 -57 -145 -57q-80 0 -120.5 42t-29.5 109
q11 61 66.5 99t158.5 38q69 0 106 -25q19 104 -77 104q-69 0 -123 -46z" />
    <glyph glyph-name="adieresis.alt1" horiz-adv-x="539" 
d="M215 638q5 28 30.5 48t55.5 20q29 0 46 -20t12 -48q-5 -29 -29.5 -49t-53.5 -20q-30 0 -48 20t-13 49zM392 638q5 28 30.5 48t55.5 20q29 0 46 -20t12 -48q-5 -29 -29.5 -49t-53.5 -20q-30 0 -48 20t-13 49zM248 95q33 0 68 15.5t54 53.5q-25 27 -85 27q-78 0 -88 -49
q-4 -20 9.5 -33.5t41.5 -13.5zM186 311l-60 78q79 88 221 88q94 0 147 -50t35 -150l-48 -277h-138l7 47q-58 -57 -145 -57q-80 0 -120.5 42t-29.5 109q11 61 66.5 99t158.5 38q69 0 106 -25q19 104 -77 104q-69 0 -123 -46z" />
    <glyph glyph-name="atilde.alt1" horiz-adv-x="539" 
d="M313 606q-7 0 -17.5 -11t-15.5 -32h-75q15 67 51 98.5t73 31.5q23 0 46.5 -20.5t33.5 -20.5q8 0 18 10t15 31h75q-14 -66 -50 -97t-73 -31q-22 0 -47 20.5t-34 20.5zM248 95q33 0 68 15.5t54 53.5q-25 27 -85 27q-78 0 -88 -49q-4 -20 9.5 -33.5t41.5 -13.5zM186 311
l-60 78q79 88 221 88q94 0 147 -50t35 -150l-48 -277h-138l7 47q-58 -57 -145 -57q-80 0 -120.5 42t-29.5 109q11 61 66.5 99t158.5 38q69 0 106 -25q19 104 -77 104q-69 0 -123 -46z" />
    <glyph glyph-name="aring.alt1" horiz-adv-x="539" 
d="M257 659q9 52 50.5 87.5t91.5 35.5q51 0 80 -35.5t20 -87.5q-9 -50 -51 -85t-93 -35q-50 0 -78.5 35t-19.5 85zM322 659q-4 -23 9 -39t36 -16q24 0 43.5 16t23.5 39q4 25 -9.5 41.5t-37.5 16.5q-23 0 -41.5 -16.5t-23.5 -41.5zM248 95q33 0 68 15.5t54 53.5
q-25 27 -85 27q-78 0 -88 -49q-4 -20 9.5 -33.5t41.5 -13.5zM186 311l-60 78q79 88 221 88q94 0 147 -50t35 -150l-48 -277h-138l7 47q-58 -57 -145 -57q-80 0 -120.5 42t-29.5 109q11 61 66.5 99t158.5 38q69 0 106 -25q19 104 -77 104q-69 0 -123 -46z" />
    <glyph glyph-name="amacron.alt1" horiz-adv-x="539" 
d="M230 587l15 85h278l-15 -85h-278zM248 95q33 0 68 15.5t54 53.5q-25 27 -85 27q-78 0 -88 -49q-4 -20 9.5 -33.5t41.5 -13.5zM186 311l-60 78q79 88 221 88q94 0 147 -50t35 -150l-48 -277h-138l7 47q-58 -57 -145 -57q-80 0 -120.5 42t-29.5 109q11 61 66.5 99t158.5 38
q69 0 106 -25q19 104 -77 104q-69 0 -123 -46z" />
    <glyph glyph-name="abreve.alt1" horiz-adv-x="538" 
d="M253 689h85q-9 -53 40 -53q48 0 57 53h87q-10 -59 -54 -95t-104 -36q-65 0 -92.5 38.5t-18.5 92.5zM247 95q33 0 68 15.5t54 53.5q-25 27 -85 27q-78 0 -88 -49q-4 -20 9.5 -33.5t41.5 -13.5zM185 311l-60 78q79 88 221 88q94 0 147 -50t35 -150l-48 -277h-138l7 47
q-58 -57 -145 -57q-80 0 -120.5 42t-29.5 109q11 61 66.5 99t158.5 38q69 0 106 -25q19 104 -77 104q-69 0 -123 -46z" />
    <glyph glyph-name="aogonek.alt1" horiz-adv-x="539" 
d="M186 311l-60 78q79 88 221 88q94 0 147 -50t35 -150l-48 -277h-68l-56 -101q-16 -30 7 -42q28 -7 43 19l6 26l78 4q-6 -38 -19 -59q-18 -30 -47.5 -47.5t-59.5 -17.5q-43 0 -69.5 30.5t-18.5 72.5q7 35 18 49l48 66l7 47q-58 -57 -145 -57q-80 0 -120.5 42t-29.5 109
q11 61 66.5 99t158.5 38q69 0 106 -25q19 104 -77 104q-69 0 -123 -46zM248 95q33 0 68 15.5t54 53.5q-25 27 -85 27q-78 0 -88 -49q-4 -20 9.5 -33.5t41.5 -13.5z" />
    <glyph glyph-name="yacute.alt1" horiz-adv-x="509" 
d="M430 707h138l-178 -168h-100zM188 40l-42 -70q-17 -29 -26.5 -41.5t-27 -24t-39.5 -11.5q-13 0 -51 7l-21 -121q30 -12 62 -12q73 0 120.5 33.5t98.5 116.5l327 550h-148l-149 -263l-57 263h-147z" />
    <glyph glyph-name="ydieresis.alt1" horiz-adv-x="509" 
d="M212 638q5 28 30.5 48t55.5 20q29 0 46 -20t12 -48q-5 -29 -29.5 -49t-53.5 -20q-30 0 -48 20t-13 49zM389 638q5 28 30.5 48t55.5 20q29 0 46 -20t12 -48q-5 -29 -29.5 -49t-53.5 -20q-30 0 -48 20t-13 49zM188 40l-42 -70q-17 -29 -26.5 -41.5t-27 -24t-39.5 -11.5
q-13 0 -51 7l-21 -121q30 -12 62 -12q73 0 120.5 33.5t98.5 116.5l327 550h-148l-149 -263l-57 263h-147z" />
    <glyph glyph-name="ae.alt1" horiz-adv-x="869" 
d="M195 310l-70 79q79 88 221 88q110 0 156 -61q80 61 179 61q102 0 158 -67t37 -175q-4 -21 -9 -43h-342q-2 -40 25 -61t76 -21q78 0 117 54l90 -67q-41 -55 -105.5 -81t-133.5 -26q-140 0 -171 75q-63 -75 -219 -75q-80 0 -120.5 42t-29.5 109q11 62 69.5 102.5
t167.5 40.5q55 0 95 -27q8 43 -9.5 71.5t-61.5 28.5q-72 0 -120 -47zM543 282h202q3 39 -23 56t-62 17q-89 0 -117 -73zM249 106q98 0 121 63q-38 25 -95 25q-68 0 -78 -47q-3 -15 10.5 -28t41.5 -13z" />
    <glyph glyph-name="aeacute.alt1" horiz-adv-x="868" 
d="M617 707h138l-179 -168h-100zM195 310l-70 79q79 88 221 88q110 0 156 -61q80 61 179 61q102 0 158 -67t37 -175q-4 -21 -9 -43h-342q-2 -40 25 -61t76 -21q78 0 117 54l90 -67q-41 -55 -105.5 -81t-133.5 -26q-140 0 -171 75q-63 -75 -219 -75q-80 0 -120.5 42
t-29.5 109q11 62 69.5 102.5t167.5 40.5q55 0 95 -27q8 43 -9.5 71.5t-61.5 28.5q-72 0 -120 -47zM543 282h202q3 39 -23 56t-62 17q-89 0 -117 -73zM249 106q98 0 121 63q-38 25 -95 25q-68 0 -78 -47q-3 -15 10.5 -28t41.5 -13z" />
    <glyph glyph-name="ycircumflex.alt1" horiz-adv-x="509" 
d="M314 711h138l80 -168h-100l-64 89l-93 -89h-100zM146 -30l42 70l-100 427h147l57 -263l149 263h148l-327 -550q-51 -83 -98.5 -116.5t-120.5 -33.5q-32 0 -62 12l21 121q38 -7 51 -7q22 0 39.5 11.5t27 24t26.5 41.5z" />
    <glyph glyph-name="ldot.alt1" horiz-adv-x="404" 
d="M295 307q6 31 32 52.5t58 21.5t51 -21.5t13 -52.5q-6 -33 -32 -54t-59 -21t-51 21t-12 54zM332 126l-21 -126h-75q-95 0 -126.5 52.5t-14.5 150.5l92 518h140l-93 -521q-16 -74 47 -74h51z" />
    <glyph glyph-name="t.alt1" horiz-adv-x="391" 
d="M169 357h-85l20 110h85l18 98l148 45l-26 -143h96l-20 -110h-96l-29 -167q-14 -64 49 -64h41l-21 -126h-65q-96 0 -128 48t-15 145z" />
    <glyph glyph-name="tcaron.alt1" horiz-adv-x="391" 
d="M447 522l-60 35q40 47 60.5 89t31.5 107h117q-39 -154 -149 -231zM169 357h-85l20 110h85l18 98l148 45l-26 -143h96l-20 -110h-96l-29 -167q-14 -64 49 -64h41l-21 -126h-65q-96 0 -128 48t-15 145z" />
    <glyph glyph-name="tbar.alt1" horiz-adv-x="392" 
d="M350 193h-68l-1 -3q-8 -27 3 -45.5t46 -18.5h41l-21 -126h-65q-96 0 -128.5 48t-14.5 145h-53l14 77h53l14 87h-85l20 110h85l18 98l148 45l-26 -143h96l-20 -110h-96l-14 -87h68z" />
    <glyph glyph-name="tcommaaccent.alt1" horiz-adv-x="391" 
d="M164 -287l-61 35q41 46 61 88t31 108h117q-40 -155 -148 -231zM169 357h-85l20 110h85l18 98l148 45l-26 -143h96l-20 -110h-96l-29 -167q-14 -64 49 -64h41l-21 -126h-65q-96 0 -128 48t-15 145z" />
    <glyph glyph-name="T.sc.alt1" horiz-adv-x="471" 
d="M121 566h429l-20 -114h-150l-80 -452h-128l80 452h-151z" />
    <glyph glyph-name="Tcaron.sc.alt1" horiz-adv-x="490" 
d="M100 452l20 114h450l-20 -114h-159l-80 -452h-132l80 452h-159zM316 760l51 -70l76 70h88l-118 -142h-118l-66 142h87z" />
    <glyph glyph-name="Tbar.sc.alt1" horiz-adv-x="471" 
d="M137 244l13 75h78l24 132h-151l20 113h427l-20 -113h-150l-24 -132h77l-13 -75h-77l-42 -244h-126l42 244h-78z" />
    <glyph glyph-name="Tcommaaccent.sc.alt1" horiz-adv-x="471" 
d="M121 566h429l-20 -114h-150l-80 -452h-128l80 452h-151zM164 -222l-46 28q28 29 40 62.5t22 92.5h90q-22 -121 -106 -183z" />
    <glyph glyph-name="aringacute.alt1" horiz-adv-x="539" 
d="M482 900h138l-144 -136q51 -36 39 -105q-9 -50 -51 -85t-93 -35q-50 0 -78.5 35t-19.5 85q7 42 37 74.5t69 43.5zM338 659q-4 -23 9 -39t36 -16q24 0 43.5 16t23.5 39q4 25 -9.5 41.5t-37.5 16.5q-23 0 -41.5 -16.5t-23.5 -41.5zM248 95q33 0 68 15.5t54 53.5
q-25 27 -85 27q-78 0 -88 -49q-4 -20 9.5 -33.5t41.5 -13.5zM186 311l-60 78q79 88 221 88q94 0 147 -50t35 -150l-48 -277h-138l7 47q-58 -57 -145 -57q-80 0 -120.5 42t-29.5 109q11 61 66.5 99t158.5 38q69 0 106 -25q19 104 -77 104q-69 0 -123 -46z" />
    </font>
</defs>
</svg>
