<?xml version="1.0" standalone="no"?>
<!DOCTYPE svg PUBLIC "-//W3C//DTD SVG 1.1//EN" "http://www.w3.org/Graphics/SVG/1.1/DTD/svg11.dtd" >
<svg xmlns="http://www.w3.org/2000/svg" xmlns:xlink="http://www.w3.org/1999/xlink" version="1.1">
<metadata>
Created by FontForge 20201107 at Mon Mar 12 15:15:20 2012
 By 
Copyright (c) Olivier Gourvat - Mostardesign Studio, 2012. All rights reserved.
</metadata>
<defs>
<font id="SofiaProBlack-Italic" horiz-adv-x="580" >
  <font-face 
    font-family="Sofia Pro Black"
    font-weight="400"
    font-style="italic"
    font-stretch="normal"
    units-per-em="1000"
    panose-1="2 11 0 0 0 0 0 0 0 0"
    ascent="750"
    descent="-250"
    x-height="466"
    cap-height="689"
    bbox="-186 -302 1251.85 1138"
    underline-thickness="50"
    underline-position="-250"
    slope="-12"
    unicode-range="U+0020-FB04"
  />
<missing-glyph horiz-adv-x="635" 
d="M80 0l117 665h475l-117 -665h-475zM260 431h62q7 37 32.5 60t57.5 23t52 -20.5t14 -52.5q-5 -29 -32 -50q-21 -17 -37 -21q-47 -13 -75.5 -38t-36.5 -72l-7 -38h62l6 38q3 22 17.5 32.5t41.5 17.5q45 13 79 48t43 83q11 60 -24 97.5t-93 37.5q-57 0 -103.5 -40
t-58.5 -105zM259 131q-4 -18 7.5 -30.5t30.5 -12.5q18 0 33.5 12.5t19.5 30.5t-7.5 30.5t-30.5 12.5t-34 -12t-19 -31z" />
    <glyph glyph-name="f_f" unicode="ff" horiz-adv-x="797" 
d="M932 711l-27 -151h-60q-29 0 -51 -19.5t-28 -57.5l-3 -17h98l-21 -117h-98l-61 -349h-159l61 349h-256l-61 -349h-159l61 349h-87l21 117h87l3 17q20 111 90 169.5t175 58.5h60l-27 -151h-60q-29 0 -51 -19.5t-28 -57.5l-3 -17h256l3 17q20 111 90 169.5t175 58.5h60z
" />
    <glyph glyph-name="fi" unicode="fi" horiz-adv-x="728" 
d="M571 349h-244l-61 -349h-159l61 349h-87l21 117h87l3 17q20 111 90 169.5t175 58.5h60l-27 -151h-60q-29 0 -51 -19.5t-28 -57.5l-3 -17h263h140l-82 -466h-159zM602 621q7 38 40 64t73 26t62.5 -26t15.5 -64t-39 -64.5t-72 -26.5q-39 0 -63 27t-17 64z" />
    <glyph glyph-name="fl" unicode="fl" horiz-adv-x="712" 
d="M592 560h-162q-29 0 -51 -19.5t-28 -57.5l-3 -17h98l-21 -117h-98l-61 -349h-159l61 349h-87l21 117h87l3 17q20 111 90 169.5t175 58.5h321l-126 -711h-159z" />
    <glyph glyph-name="f_f_i" unicode="ffi" horiz-adv-x="1143" 
d="M925 0l61 349h-244l-61 -349h-159l61 349h-256l-61 -349h-159l61 349h-87l21 117h87l3 17q20 111 90 169.5t175 58.5h60l-27 -151h-60q-29 0 -51 -19.5t-28 -57.5l-3 -17h256l3 17q20 111 90 169.5t175 58.5h60l-27 -151h-60q-29 0 -51 -19.5t-28 -57.5l-3 -17h403
l-82 -466h-159zM1017 621q7 38 40 64t73 26t62.5 -26t15.5 -64t-39 -64.5t-72 -26.5q-39 0 -63 27t-17 64z" />
    <glyph glyph-name="f_f_l" unicode="ffl" horiz-adv-x="1127" 
d="M908 0l99 560h-162q-29 0 -51 -19.5t-28 -57.5l-3 -17h98l-21 -117h-98l-61 -349h-159l61 349h-256l-61 -349h-159l61 349h-87l21 117h87l3 17q20 111 90 169.5t175 58.5h60l-27 -151h-60q-29 0 -51 -19.5t-28 -57.5l-3 -17h256l3 17q20 111 90 169.5t175 58.5h321
l-126 -711h-159z" />
    <glyph glyph-name="f_f_j" unicode="ffj" horiz-adv-x="1121" 
d="M735 -237l27 151h60q63 0 79 77l63 358h-222l-61 -349h-159l61 349h-256l-61 -349h-159l61 349h-87l21 117h87l3 17q20 111 90 169.5t175 58.5h60l-27 -151h-60q-29 0 -51 -19.5t-28 -57.5l-3 -17h256l3 17q20 111 90 169.5t175 58.5h60l-27 -151h-60q-29 0 -51 -19.5
t-28 -57.5l-3 -17h381l-84 -475q-20 -111 -90 -169.5t-175 -58.5h-60zM996 621q7 38 40 64t73 26t62.5 -26t15.5 -64t-39 -64.5t-72 -26.5q-39 0 -63 27t-17 64z" />
    <glyph glyph-name="f_j" unicode="fj" horiz-adv-x="706" 
d="M320 -237l27 151h60q63 0 79 77l63 358h-222l-61 -349h-159l61 349h-87l21 117h87l3 17q20 111 90 169.5t175 58.5h60l-27 -151h-60q-29 0 -51 -19.5t-28 -57.5l-3 -17h381l-84 -475q-20 -111 -90 -169.5t-175 -58.5h-60zM581 621q7 38 40 64t73 26t62.5 -26t15.5 -64
t-39 -64.5t-72 -26.5q-39 0 -63 27t-17 64z" />
    <glyph glyph-name=".notdef" horiz-adv-x="635" 
d="M80 0l117 665h475l-117 -665h-475zM260 431h62q7 37 32.5 60t57.5 23t52 -20.5t14 -52.5q-5 -29 -32 -50q-21 -17 -37 -21q-47 -13 -75.5 -38t-36.5 -72l-7 -38h62l6 38q3 22 17.5 32.5t41.5 17.5q45 13 79 48t43 83q11 60 -24 97.5t-93 37.5q-57 0 -103.5 -40
t-58.5 -105zM259 131q-4 -18 7.5 -30.5t30.5 -12.5q18 0 33.5 12.5t19.5 30.5t-7.5 30.5t-30.5 12.5t-34 -12t-19 -31z" />
    <glyph glyph-name=".null" horiz-adv-x="0" 
 />
    <glyph glyph-name="nonmarkingreturn" horiz-adv-x="333" 
 />
    <glyph glyph-name="space" unicode=" " horiz-adv-x="238" 
 />
    <glyph glyph-name="exclam" unicode="!" horiz-adv-x="295" 
d="M121 231l63 458h167l-99 -458h-131zM65 84q7 39 39 65t71 26q40 0 63.5 -26t16.5 -65q-7 -40 -39.5 -66.5t-71.5 -26.5t-62.5 26.5t-16.5 66.5z" />
    <glyph glyph-name="quotedbl" unicode="&#x22;" horiz-adv-x="414" 
d="M232 388h-89l33 301h129zM407 388h-89l33 301h129z" />
    <glyph glyph-name="numbersign" unicode="#" horiz-adv-x="751" 
d="M524 420h-100l-82 -165h99zM774 689l-85 -174h119l-45 -95h-119l-82 -165h119l-45 -95h-118l-82 -160h-118l80 160h-100l-81 -160h-118l82 160h-118l43 95h117l81 165h-116l46 95h117l83 174h121l-84 -174h99l85 174h119z" />
    <glyph glyph-name="dollar" unicode="$" horiz-adv-x="584" 
d="M375 696l20 109h77l-20 -110q86 -12 129.5 -67.5t27.5 -144.5h-167q10 64 -60 64q-34 0 -56 -15t-27 -40q-6 -36 54 -56l75 -25q180 -61 153 -210q-17 -94 -89 -146t-163 -61l-21 -120h-77l21 119q-99 10 -147 66.5t-32 145.5h169q-3 -30 14.5 -48.5t58.5 -18.5
q35 0 63 16t33 46q2 8 0.5 15t-16 19t-43.5 23l-76 27q-52 15 -86 40.5t-45 53t-15.5 57t2.5 52.5q15 85 83 142t160 67z" />
    <glyph glyph-name="percent" unicode="%" horiz-adv-x="699" 
d="M581 656l-445 -656h94l446 656h-95zM129 535q11 56 56 95t101 39t88 -39.5t22 -94.5q-10 -56 -56 -94.5t-102 -38.5t-87.5 38.5t-21.5 94.5zM215 535q-4 -20 7.5 -33.5t31.5 -13.5t36 13.5t20 33.5q4 19 -8 33.5t-32 14.5t-35.5 -14t-19.5 -34zM418 124q10 56 55.5 95
t101.5 39q55 0 87.5 -39t22.5 -95t-55.5 -94.5t-101.5 -38.5t-88 38.5t-22 94.5zM504 124q-4 -20 7.5 -33.5t31.5 -13.5t36 13.5t20 33.5q3 20 -9 34t-31 14q-20 0 -36 -14t-19 -34z" />
    <glyph glyph-name="ampersand" unicode="&#x26;" horiz-adv-x="709" 
d="M264 -10q-99 0 -147.5 55.5t-32.5 143.5q12 66 53.5 110t94.5 58q-41 8 -62.5 51t-11.5 101q14 75 81.5 128.5t160.5 59.5q131 9 196 -85l-139 -96q-15 27 -46 27q-35 0 -56 -19t-25 -39q-3 -4 -1.5 -15t4.5 -23t20 -21.5t44 -9.5h90l13 71h147l-14 -76h86l-21 -117h-86
l-14 -83q-13 -71 5.5 -90.5t86.5 12.5l-21 -118q-94 -33 -151.5 -17t-62.5 82q-31 -41 -86.5 -65.5t-104.5 -24.5zM464 284h-95q-62 0 -89 -45q-24 -39 0 -69q19 -25 64 -25q11 0 25.5 4.5t34 16t35.5 38t22 63.5z" />
    <glyph glyph-name="quotesingle" unicode="'" horiz-adv-x="239" 
d="M232 388h-89l33 301h129z" />
    <glyph glyph-name="parenleft" unicode="(" horiz-adv-x="398" 
d="M74 226q35 198 156.5 334.5t260.5 136.5l-21 -116q-70 0 -157 -115.5t-109 -239.5q-15 -80 2 -161t55.5 -132t84.5 -51l-20 -115q-140 0 -214 131.5t-38 327.5z" />
    <glyph glyph-name="parenright" unicode=")" horiz-adv-x="398" 
d="M404 226q-35 -196 -155 -327.5t-259 -131.5l18 115q46 0 102.5 51t102.5 132t61 161q15 81 -2 164.5t-56 137t-84 53.5l21 116q139 0 212.5 -136.5t38.5 -334.5z" />
    <glyph glyph-name="asterisk" unicode="*" horiz-adv-x="472" 
d="M222 340l-66 58l101 101l-121 36l48 93l112 -48l16 131h100l-33 -130l132 47l12 -93l-130 -34l64 -104l-88 -55l-52 108z" />
    <glyph glyph-name="plus" unicode="+" horiz-adv-x="503" 
d="M488 181h-152l-26 -152h-108l26 152h-151l19 108h151l27 151h108l-27 -151h152z" />
    <glyph glyph-name="comma" unicode="," horiz-adv-x="275" 
d="M56 -123l-73 40q50 57 77 106.5t42 134.5h141q-31 -166 -187 -281z" />
    <glyph glyph-name="hyphen" unicode="-" horiz-adv-x="471" 
d="M443 175h-355l24 135h355z" />
    <glyph glyph-name="period" unicode="." horiz-adv-x="288" 
d="M62 84q7 39 39 65t71 26q40 0 63.5 -26t16.5 -65q-7 -40 -39.5 -66.5t-71.5 -26.5t-62.5 26.5t-16.5 66.5z" />
    <glyph glyph-name="slash" unicode="/" horiz-adv-x="501" 
d="M29 0l448 689h116l-448 -689h-116z" />
    <glyph glyph-name="zero" unicode="0" horiz-adv-x="604" 
d="M273 327q-31 -182 56 -182q45 0 74.5 50.5t43.5 131.5q31 184 -52 184q-46 0 -77 -51t-45 -133zM112 327q59 339 310 339q69 0 114 -26t62 -72t20 -108t-12 -133q-13 -75 -35 -132.5t-57 -105t-88.5 -73t-122.5 -25.5q-250 0 -191 336z" />
    <glyph glyph-name="one" unicode="1" horiz-adv-x="396" 
d="M129 531l303 140l-118 -671h-163l78 446l-124 -52z" />
    <glyph glyph-name="two" unicode="2" horiz-adv-x="568" 
d="M533 144l-24 -144h-461l16 90l325 314q38 36 41 60q4 21 -10 37t-50 16q-40 0 -62 -23.5t-36 -65.5l-140 22q33 101 105.5 158.5t171.5 57.5q89 0 142.5 -57t38.5 -145q-16 -90 -97 -164l-173 -156h213z" />
    <glyph glyph-name="three" unicode="3" horiz-adv-x="549" 
d="M292 278h-67l22 123h67q23 0 40 9t25 23.5t11.5 23.5t4.5 17q2 17 -11 38t-46 21q-50 0 -97 -41l-80 77q39 47 100 74t127 23q86 -4 133.5 -58.5t33.5 -126.5q-7 -40 -37 -73t-72 -54q51 -20 74 -62t13 -96q-17 -95 -100.5 -149.5t-188.5 -54.5q-72 0 -123 32t-67 89
l117 90q7 -27 30.5 -49.5t66.5 -22.5q47 0 74.5 22t33.5 53q5 30 -15.5 51t-68.5 21z" />
    <glyph glyph-name="four" unicode="4" horiz-adv-x="630" 
d="M632 283l-24 -131h-78l-26 -152h-162l26 152h-323l372 504h202l-65 -373h78zM430 502l-155 -219h117z" />
    <glyph glyph-name="five" unicode="5" horiz-adv-x="604" 
d="M441 239q7 43 -18.5 67.5t-73.5 24.5q-93 0 -175 -70l-62 39l116 356h398l-26 -139h-272l-29 -89q60 36 127 36q89 0 140 -62t33 -163q-19 -108 -108 -178.5t-216 -70.5q-67 0 -126 34.5t-90 90.5l140 90q41 -64 103 -64q51 0 92 31t47 67z" />
    <glyph glyph-name="six" unicode="6" horiz-adv-x="598" 
d="M419 421q30 0 61 -11t60 -33t43.5 -64.5t4.5 -97.5q-18 -99 -94.5 -161.5t-195.5 -62.5q-95 0 -149.5 62t-50.5 167q3 63 15 124t39 121.5t65.5 105t98 71t132.5 24.5q69 -3 116 -30.5t69 -97.5l-141 -62q-14 51 -74 51q-35 0 -63.5 -17.5t-46 -46.5t-28.5 -57t-17 -58
q12 24 52.5 48.5t103.5 24.5zM263 212q-5 -33 13 -56t55 -23t65.5 23.5t33.5 55.5q5 29 -14.5 52.5t-57.5 23.5q-35 0 -62.5 -23.5t-32.5 -52.5z" />
    <glyph glyph-name="seven" unicode="7" horiz-adv-x="549" 
d="M130 511l26 145h496l-378 -656h-180l295 511h-259z" />
    <glyph glyph-name="eight" unicode="8" horiz-adv-x="611" 
d="M249 220q-7 -37 15.5 -61.5t65.5 -24.5t73 24.5t37 61.5q6 33 -15 58.5t-60 25.5h-8q-41 0 -71.5 -25t-36.5 -59zM176 487q13 77 86.5 128t162.5 51q88 0 139.5 -50.5t38.5 -128.5q-6 -37 -28 -71t-51 -47q42 -14 64.5 -63t12.5 -102q-17 -94 -102.5 -153.5t-193.5 -59.5
t-173 59.5t-48 153.5q10 56 45 102t86 63q-24 17 -34 50.5t-5 67.5zM325 481q-5 -26 10.5 -43t45.5 -17q29 0 50 17t26 43q4 22 -10.5 40t-40.5 18h-6q-28 0 -49.5 -17.5t-25.5 -40.5z" />
    <glyph glyph-name="nine" unicode="9" horiz-adv-x="598" 
d="M293 236q-30 0 -61 11t-60 33t-43 64.5t-4 97.5q18 99 94.5 161.5t195.5 62.5q95 0 149 -62t50 -167q-3 -64 -15 -124.5t-39 -121t-65.5 -105t-97.5 -71t-132 -24.5q-70 3 -117.5 30.5t-68.5 97.5l141 62q14 -51 74 -51q65 0 102.5 55t51.5 124q-10 -24 -51 -48.5
t-104 -24.5zM449 445q6 33 -12.5 56t-55.5 23t-64.5 -23t-33.5 -56q-6 -29 13.5 -52.5t57.5 -23.5q35 0 62 23.5t33 52.5z" />
    <glyph glyph-name="colon" unicode=":" horiz-adv-x="309" 
d="M73 84q7 39 39 65t71 26t62 -26t16 -65q-7 -40 -38.5 -66.5t-70.5 -26.5t-62.5 26.5t-16.5 66.5zM127 384q7 40 39 66.5t71 26.5q40 0 62.5 -26.5t15.5 -66.5q-7 -39 -39 -65t-72 -26q-39 0 -61.5 26t-15.5 65z" />
    <glyph glyph-name="semicolon" unicode=";" horiz-adv-x="300" 
d="M128 384q7 40 39 66.5t71 26.5t62 -26.5t16 -66.5q-7 -39 -39.5 -65t-71.5 -26t-61.5 26t-15.5 65zM69 -123l-73 40q50 57 77 106.5t42 134.5h141q-31 -166 -187 -281z" />
    <glyph glyph-name="less" unicode="&#x3c;" horiz-adv-x="616" 
d="M552 60l-465 192l22 122l535 191l-21 -115l-378 -138l328 -136z" />
    <glyph glyph-name="equal" unicode="=" horiz-adv-x="592" 
d="M95 165l17 102h460l-17 -102h-460zM609 471l-19 -102h-460l19 102h460z" />
    <glyph glyph-name="greater" unicode="&#x3e;" horiz-adv-x="616" 
d="M617 252l-535 -192l21 116l378 136l-329 138l21 115l466 -191z" />
    <glyph glyph-name="question" unicode="?" horiz-adv-x="496" 
d="M319 231h-143l2 12q7 35 13.5 57t21 48t40 45.5t62.5 34.5l40 16q37 13 44 50q4 26 -11.5 40t-45.5 14q-26 0 -48.5 -18t-27.5 -46h-144q20 105 86.5 160t162.5 55q95 0 144 -53t33 -142q-13 -71 -56 -119t-106 -70q-32 -11 -45.5 -29t-21.5 -55zM129 84q7 39 39 65
t71 26q40 0 63.5 -26t16.5 -65q-7 -40 -39.5 -66.5t-71.5 -26.5t-62.5 26.5t-16.5 66.5z" />
    <glyph glyph-name="at" unicode="@" horiz-adv-x="963" 
d="M603 150l23 125q8 47 -18.5 79.5t-72.5 32.5q-45 0 -84 -32.5t-47 -79.5q-8 -44 19.5 -77t72.5 -33q42 0 72 16l-17 -98q-29 -13 -74 -13q-85 0 -134.5 59.5t-34.5 145.5q16 87 86.5 147t156.5 60q85 0 135 -57.5t39 -139.5l-26 -140q-6 -30 8.5 -45.5t36.5 -15.5
q29 0 54 21t41 54t26 65t16 64q24 139 -63.5 232.5t-232.5 93.5q-141 0 -256.5 -101t-140.5 -243t55 -240t221 -98h61l-19 -97h-61q-182 0 -284 126t-69 309t180.5 311.5t328.5 128.5q121 0 214.5 -54.5t138 -152t23.5 -215.5q-9 -48 -28 -97t-48.5 -95t-74.5 -75t-97 -29
q-66 0 -103 38t-23 120z" />
    <glyph glyph-name="A" unicode="A" horiz-adv-x="667" 
d="M501 0l-31 158h-217l-85 -158h-179l375 689h182l132 -689h-177zM426 529l-102 -227h129z" />
    <glyph glyph-name="B" unicode="B" horiz-adv-x="644" 
d="M659 504q-7 -39 -37.5 -80t-83.5 -56q63 -10 88.5 -59t15.5 -105q-15 -85 -80.5 -144.5t-182.5 -59.5h-302l121 689h282q96 0 145 -51t34 -134zM319 423h90q26 0 45 15.5t23 41.5q11 63 -44 63h-92zM401 286h-106l-25 -140h107q37 0 61 21t29 50q5 27 -11 48t-55 21z" />
    <glyph glyph-name="C" unicode="C" horiz-adv-x="707" 
d="M587 245l120 -96q-60 -73 -144.5 -115.5t-175.5 -42.5q-145 0 -230 103.5t-59 249.5q26 147 147 250.5t266 103.5q91 0 161 -42.5t105 -115.5l-155 -97q-18 40 -55.5 63.5t-85.5 23.5q-76 0 -138 -54t-76 -132q-14 -77 29.5 -131t119.5 -54q49 0 94 23t77 63z" />
    <glyph glyph-name="D" unicode="D" horiz-adv-x="705" 
d="M340 540l-70 -391h105q69 0 118 56.5t63 137.5q14 82 -14 139.5t-97 57.5h-105zM77 0l121 689h273q146 0 212.5 -97.5t39.5 -248.5t-127.5 -247t-245.5 -96h-273z" />
    <glyph glyph-name="E" unicode="E" horiz-adv-x="581" 
d="M533 0h-456l121 689h447l-25 -146h-280l-24 -132h246l-26 -143h-246l-21 -122h289z" />
    <glyph glyph-name="F" unicode="F" horiz-adv-x="545" 
d="M246 0h-169l121 689h443l-25 -146h-274l-24 -132h217l-26 -144h-217z" />
    <glyph glyph-name="G" unicode="G" horiz-adv-x="756" 
d="M763 576l-143 -105q-44 72 -132 72q-78 0 -142 -58t-79 -141q-14 -82 29 -141.5t121 -59.5q138 0 174 92h-193l24 134h375q-33 -190 -141.5 -284t-264.5 -94q-149 0 -234 103.5t-59 249.5q26 148 147 251t270 103q82 0 147 -32.5t101 -89.5z" />
    <glyph glyph-name="H" unicode="H" horiz-adv-x="701" 
d="M527 417l48 272h170l-121 -689h-170l46 268h-210l-46 -268h-167l121 689h167l-48 -272h210z" />
    <glyph glyph-name="I" unicode="I" horiz-adv-x="321" 
d="M77 0l121 689h167l-121 -689h-167z" />
    <glyph glyph-name="J" unicode="J" horiz-adv-x="323" 
d="M-133 -211l42 150q32 -12 93 -12q60 0 75 80l121 682h169l-120 -682q-19 -105 -86.5 -171t-185.5 -66q-56 0 -108 19z" />
    <glyph glyph-name="K" unicode="K" horiz-adv-x="633" 
d="M392 349l261 -349h-229l-144 210l-36 -210h-167l121 689h167l-35 -197l172 197h209z" />
    <glyph glyph-name="L" unicode="L" horiz-adv-x="518" 
d="M494 0h-417l121 689h169l-96 -543h248z" />
    <glyph glyph-name="M" unicode="M" horiz-adv-x="913" 
d="M504 270l265 419h141l-37 -689h-172l23 371l-190 -291h-126l-89 291l-108 -371h-172l206 689h139z" />
    <glyph glyph-name="N" unicode="N" horiz-adv-x="678" 
d="M555 689h167l-121 -689h-146l-146 376l-65 -376h-167l121 689h151l140 -371z" />
    <glyph glyph-name="O" unicode="O" horiz-adv-x="779" 
d="M98 344q26 147 147 250.5t266 103.5q147 0 231.5 -103.5t58.5 -250.5q-26 -146 -146.5 -249.5t-267.5 -103.5q-145 0 -230 103.5t-59 249.5zM267 344q-14 -77 29.5 -131t119.5 -54t139.5 54t77.5 131t-30.5 131.5t-121.5 54.5q-76 0 -138 -54t-76 -132z" />
    <glyph glyph-name="P" unicode="P" horiz-adv-x="618" 
d="M244 0h-167l121 689h285q114 0 162.5 -67.5t32.5 -162.5q-17 -95 -90 -162t-187 -67h-118zM450 543h-110l-31 -169h110q38 0 60.5 25t29.5 60t-7 59.5t-52 24.5z" />
    <glyph glyph-name="Q" unicode="Q" horiz-adv-x="786" 
d="M613 59l44 -108l-127 -69l-51 119q-43 -10 -88 -10q-149 0 -234 103.5t-59 249.5q26 148 147 251t270 103t234.5 -103t59.5 -251q-15 -84 -67.5 -159t-128.5 -126zM509 300l44 -100q72 58 87 144q15 82 -30 139.5t-123 57.5t-141.5 -57t-78.5 -140q-12 -65 15.5 -115
t83.5 -70q21 -7 50 -10l-34 83z" />
    <glyph glyph-name="R" unicode="R" horiz-adv-x="642" 
d="M244 0h-167l121 689h285q114 0 163 -68t32 -162q-14 -78 -67 -139.5t-137 -81.5l127 -238h-194l-109 230h-15zM450 543h-110l-31 -169h110q38 0 60.5 25t29.5 60t-7 59.5t-52 24.5z" />
    <glyph glyph-name="S" unicode="S" horiz-adv-x="586" 
d="M76 205h169q-4 -30 14 -48.5t59 -18.5q35 0 63 16t33 46q2 8 0.5 15t-16 19t-43.5 23l-75 27q-52 15 -86 40.5t-45.5 53t-16 57t2.5 52.5q16 94 94.5 152.5t183.5 58.5t161 -57.5t38 -157.5h-167q10 64 -60 64q-34 0 -56 -15t-27 -40q-6 -37 54 -56l74 -25
q182 -59 154 -210q-13 -72 -62.5 -121.5t-108 -69t-121.5 -19.5q-116 0 -175 58.5t-41 155.5z" />
    <glyph glyph-name="T" unicode="T" horiz-adv-x="577" 
d="M301 543h-178l25 146h523l-25 -146h-178l-96 -543h-167z" />
    <glyph glyph-name="U" unicode="U" horiz-adv-x="682" 
d="M339 -9q-112 0 -179.5 72.5t-47.5 187.5l77 438h168l-77 -438q-8 -45 18.5 -74t67.5 -29t77.5 29t44.5 74l77 438h168l-77 -438q-20 -116 -113 -188t-204 -72z" />
    <glyph glyph-name="V" unicode="V" horiz-adv-x="592" 
d="M222 0l-89 689h174l36 -420l182 420h176l-332 -689h-147z" />
    <glyph glyph-name="W" unicode="W" horiz-adv-x="883" 
d="M615 590l25 -293l189 392h182l-355 -689h-129l-28 335l-143 -335h-130l-111 689h181l50 -392l130 293h139z" />
    <glyph glyph-name="X" unicode="X" horiz-adv-x="677" 
d="M577 689h200l-275 -323l174 -366h-197l-100 233l-181 -233h-196l301 366l-161 323h202l82 -191z" />
    <glyph glyph-name="Y" unicode="Y" horiz-adv-x="663" 
d="M415 0h-168l54 310l-202 379h199l109 -250l200 250h198l-336 -382z" />
    <glyph glyph-name="Z" unicode="Z" horiz-adv-x="602" 
d="M62 123l370 421h-282l25 145h501l-21 -123l-374 -420h299l-25 -146h-514z" />
    <glyph glyph-name="bracketleft" unicode="[" horiz-adv-x="342" 
d="M27 -230l162 919h243l-19 -108h-114l-124 -700h114l-19 -111h-243z" />
    <glyph glyph-name="backslash" unicode="\" horiz-adv-x="501" 
d="M266 689l206 -689h-116l-206 689h116z" />
    <glyph glyph-name="bracketright" unicode="]" horiz-adv-x="342" 
d="M152 689h243l-162 -919h-241l17 111h114l124 700h-114z" />
    <glyph glyph-name="underscore" unicode="_" horiz-adv-x="762" 
d="M679 -141h-648l18 107h648z" />
    <glyph glyph-name="grave" unicode="`" horiz-adv-x="547" 
d="M256 723h148l62 -174h-103z" />
    <glyph glyph-name="a" unicode="a" horiz-adv-x="608" 
d="M462 416l9 50h159l-82 -466h-159l10 53q-57 -62 -140 -62q-91 0 -147.5 67.5t-37.5 175.5q19 109 99 176.5t171 67.5q37 0 70 -16t48 -46zM236 233q-7 -40 16 -68.5t63 -28.5t73.5 28.5t41.5 68.5q7 40 -16 68.5t-63 28.5t-73.5 -28.5t-41.5 -68.5z" />
    <glyph glyph-name="b" unicode="b" horiz-adv-x="609" 
d="M345 711l-52 -288q60 55 139 55q91 0 146.5 -67.5t36.5 -176.5t-98.5 -176t-170.5 -67q-43 0 -78 19t-47 57l-11 -67h-150l126 711h159zM453 233q7 40 -16 68.5t-63 28.5t-73.5 -28.5t-41.5 -68.5q-7 -40 16.5 -68.5t63.5 -28.5t73 28.5t41 68.5z" />
    <glyph glyph-name="c" unicode="c" horiz-adv-x="526" 
d="M389 161l127 -55q-98 -115 -226 -115q-108 0 -172 67.5t-45 175.5t106.5 176t195.5 68q128 0 185 -115l-143 -78q-21 46 -74 46q-40 0 -73.5 -28.5t-41.5 -68.5q-7 -40 16.5 -68.5t63.5 -28.5q18 0 47 13t34 11z" />
    <glyph glyph-name="d" unicode="d" horiz-adv-x="608" 
d="M463 423l52 288h159l-126 -711h-150l11 67q-26 -39 -67 -57.5t-83 -18.5q-91 0 -147.5 67.5t-37.5 175.5q19 109 99 176.5t171 67.5q79 0 119 -55zM236 233q-7 -40 16 -68.5t63 -28.5t73.5 28.5t41.5 68.5q7 40 -16 68.5t-63 28.5t-73.5 -28.5t-41.5 -68.5z" />
    <glyph glyph-name="e" unicode="e" horiz-adv-x="550" 
d="M564 240q-1 -5 -3 -14.5t-5 -21t-4 -15.5h-334q-1 -32 26.5 -51.5t67.5 -19.5q56 0 97 39q9 -8 47.5 -40t47.5 -39q-82 -87 -225 -87q-103 0 -164 68.5t-42 176.5q19 107 103 174.5t188 67.5q103 0 161 -65.5t39 -172.5zM235 278h186q-3 39 -29 54t-54 15q-16 0 -33 -4
t-38.5 -21t-31.5 -44z" />
    <glyph glyph-name="f" unicode="f" horiz-adv-x="382" 
d="M517 711l-27 -151h-60q-64 0 -79 -77l-3 -17h98l-21 -117h-98l-61 -349h-159l61 349h-87l21 117h87l3 17q19 111 89.5 169.5t175.5 58.5h60z" />
    <glyph glyph-name="g" unicode="g" horiz-adv-x="608" 
d="M235 233q-7 -40 16.5 -68.5t63.5 -28.5t73 28.5t41 68.5q7 40 -16 68.5t-63 28.5t-73.5 -28.5t-41.5 -68.5zM27 -84l144 54q6 -28 31 -45t61 -17q59 0 97.5 38t51.5 112q-48 -67 -154 -67q-91 0 -147.5 67.5t-37.5 175.5q19 109 99.5 176.5t171.5 67.5q37 0 70 -16
t48 -46l9 50h158l-72 -407q-25 -145 -108 -220.5t-212 -75.5q-81 0 -137.5 42.5t-72.5 110.5z" />
    <glyph glyph-name="h" unicode="h" horiz-adv-x="590" 
d="M262 245l-43 -245h-159l126 711h159l-57 -318q18 40 63.5 62.5t82.5 22.5q92 0 128.5 -59.5t16.5 -170.5l-43 -248h-159l42 243q7 38 -13.5 59.5t-48.5 21.5q-32 0 -60 -19.5t-35 -59.5z" />
    <glyph glyph-name="i" unicode="i" horiz-adv-x="279" 
d="M142 466l-82 -466h159l82 466h-159zM152 621q7 38 40 64t73 26t62.5 -26t15.5 -64t-39 -64.5t-72 -26.5q-39 0 -63 27t-17 64z" />
    <glyph glyph-name="j" unicode="j" horiz-adv-x="279" 
d="M-106 -237l26 151h60q28 0 49.5 19.5t27.5 57.5l3 17l82 458h159l-82 -458l-2 -17q-15 -111 -86.5 -169.5t-176.5 -58.5h-60zM153 621q7 38 40 64t72 26q40 0 63 -26t16 -64t-39 -64.5t-72 -26.5q-39 0 -63 27t-17 64z" />
    <glyph glyph-name="k" unicode="k" horiz-adv-x="538" 
d="M352 0l-104 168l-29 -168h-159l126 711h159l-64 -358l111 113h195l-209 -207l164 -259h-190z" />
    <glyph glyph-name="l" unicode="l" horiz-adv-x="279" 
d="M60 0l126 711h159l-126 -711h-159z" />
    <glyph glyph-name="m" unicode="m" horiz-adv-x="884" 
d="M568 245l-43 -245h-160l42 243q7 42 -12.5 61.5t-49.5 19.5q-70 0 -83 -79l-43 -245h-159l82 466h159l-13 -73q19 41 58.5 63t75.5 22q129 0 149 -99q34 50 77.5 74.5t79.5 24.5q101 0 133 -57.5t12 -172.5l-43 -248h-159l42 243q7 42 -12.5 61.5t-49.5 19.5
q-70 0 -83 -79z" />
    <glyph glyph-name="n" unicode="n" horiz-adv-x="590" 
d="M262 245l-43 -245h-159l82 466h159l-13 -73q18 40 63.5 62.5t82.5 22.5q92 0 128 -59.5t17 -170.5l-43 -248h-159l42 243q7 42 -12.5 61.5t-49.5 19.5q-32 0 -60 -19t-35 -60z" />
    <glyph glyph-name="o" unicode="o" horiz-adv-x="563" 
d="M278 -9q-102 0 -163 68t-42 175q20 108 104.5 176t185.5 68q103 0 165 -68t42 -176q-19 -107 -104 -175t-188 -68zM223 234q-7 -40 16.5 -68.5t63.5 -28.5t73 28.5t41 68.5q7 40 -16 68.5t-63 28.5t-73.5 -28.5t-41.5 -68.5z" />
    <glyph glyph-name="p" unicode="p" horiz-adv-x="609" 
d="M226 43l-48 -273h-159l123 696h150l-12 -67q26 39 68 59t84 20q91 0 146.5 -67t36.5 -176t-98.5 -176.5t-170.5 -67.5q-82 0 -120 52zM454 236q7 40 -16.5 68.5t-63.5 28.5q-39 0 -73 -30t-42 -70q-7 -39 17 -66.5t64 -27.5t73 28.5t41 68.5z" />
    <glyph glyph-name="q" unicode="q" horiz-adv-x="608" 
d="M348 -230l49 273q-58 -52 -138 -52q-91 0 -147.5 67.5t-37.5 176.5t99 176t171 67q42 0 77.5 -20t47.5 -59l11 67h150l-123 -696h-159zM236 236q-7 -40 16.5 -68.5t63.5 -28.5t73.5 27t40.5 67q8 40 -15.5 70t-63.5 30t-73.5 -28.5t-41.5 -68.5z" />
    <glyph glyph-name="r" unicode="r" horiz-adv-x="429" 
d="M245 153l-26 -153h-159l82 466h151l-21 -115q28 63 74.5 95t95.5 32q41 0 66 -13l-65 -150q-31 12 -70 12q-49 0 -79.5 -37.5t-48.5 -136.5z" />
    <glyph glyph-name="s" unicode="s" horiz-adv-x="481" 
d="M272 166l-56 16q-39 11 -65 28.5t-37.5 33t-15 37.5t-2.5 32t4 26q9 53 73.5 96t141.5 43q85 0 138 -39t37 -122h-149q7 42 -39 42q-40 0 -44 -26q-3 -20 29 -30l80 -23q40 -12 65 -32t31.5 -39.5t9.5 -39.5t-2 -30q-13 -72 -83 -110t-153 -38q-80 0 -133.5 44.5
t-40.5 120.5h149q-4 -17 7 -32.5t38 -15.5q20 0 35.5 8.5t18.5 22.5q2 10 -5 15t-32 12z" />
    <glyph glyph-name="t" unicode="t" horiz-adv-x="378" 
d="M373 633l-29 -167h98l-21 -117h-98l-61 -349h-157l61 349h-85l21 117h85l29 167h157z" />
    <glyph glyph-name="u" unicode="u" horiz-adv-x="590" 
d="M409 221l44 245h159l-82 -466h-159l12 73q-18 -40 -62.5 -61t-82.5 -21q-92 0 -128.5 59.5t-16.5 170.5l43 245h160l-43 -240q-7 -42 12 -61.5t49 -19.5q33 0 61 17.5t34 58.5z" />
    <glyph glyph-name="v" unicode="v" horiz-adv-x="529" 
d="M332 0h-136l-116 466h171l49 -265l141 265h172z" />
    <glyph glyph-name="w" unicode="w" horiz-adv-x="759" 
d="M664 466h170l-242 -466h-135l-29 279l-123 -279h-135l-83 466h170l24 -257l117 257h125l25 -257z" />
    <glyph glyph-name="x" unicode="x" horiz-adv-x="544" 
d="M2 0l228 252l-117 214h183l44 -88l73 88h182l-192 -214l138 -252h-182l-65 128l-109 -128h-183z" />
    <glyph glyph-name="y" unicode="y" horiz-adv-x="518" 
d="M430 466h169l-411 -696h-167l168 292l-111 404h174l51 -226z" />
    <glyph glyph-name="z" unicode="z" horiz-adv-x="512" 
d="M109 322l26 144h412l-21 -116l-237 -206h200l-24 -144h-425l20 114l233 208h-184z" />
    <glyph glyph-name="braceleft" unicode="{" horiz-adv-x="414" 
d="M59 187l16 85q23 0 44.5 16t27.5 45l27 154q15 90 84 146t155 56h93l-19 -108h-80q-46 0 -72 -28.5t-33 -72.5l-25 -136q-9 -49 -43.5 -79t-67.5 -36q31 -5 55 -35t15 -79l-23 -136q-8 -44 8.5 -72.5t61.5 -28.5h80l-19 -108h-93q-87 0 -136.5 56t-31.5 146l26 154
q6 29 -10.5 45t-39.5 16z" />
    <glyph glyph-name="bar" unicode="|" horiz-adv-x="213" 
d="M45 -126l165 931h77l-165 -931h-77z" />
    <glyph glyph-name="braceright" unicode="}" horiz-adv-x="414" 
d="M434 272l-15 -85q-23 0 -45 -16t-27 -45l-27 -154q-15 -90 -84 -146t-155 -56h-91l17 108h80q46 0 72 28.5t33 72.5l24 136q9 49 44 79t68 35q-32 6 -56 36t-15 79l24 136q8 44 -8.5 72.5t-61.5 28.5h-80l19 108h93q86 0 135.5 -56t33.5 -146l-28 -154q-6 -29 10.5 -45
t39.5 -16z" />
    <glyph glyph-name="exclamdown" unicode="&#xa1;" horiz-adv-x="279" 
d="M14 -229l100 458h131l-64 -458h-167zM111 385q7 40 39.5 66.5t71.5 26.5q40 0 63 -26.5t16 -66.5q-7 -39 -39.5 -65t-72.5 -26q-39 0 -62 26t-16 65z" />
    <glyph glyph-name="cent" unicode="&#xa2;" horiz-adv-x="540" 
d="M328 473l22 125h77l-21 -122q107 -11 158 -113l-143 -78q-21 46 -74 46q-40 0 -73.5 -28.5t-41.5 -68.5q-7 -40 16.5 -68.5t63.5 -28.5q50 0 88 43l120 -74q-88 -103 -200 -113l-21 -119h-77l22 122q-88 15 -136 79t-31 159q17 94 88 158.5t163 80.5z" />
    <glyph glyph-name="sterling" unicode="&#xa3;" horiz-adv-x="702" 
d="M461 296h-100l-28 -163h167q17 0 24 10.5t11 30.5l9 50h157l-16 -86q-11 -58 -59.5 -98t-102.5 -40h-485l23 133h112l28 163h-78l12 64h78l21 118q18 100 88 160t167 60q239 0 197 -241h-158q13 81 -57 81q-31 0 -53 -22t-27 -54l-18 -102h100z" />
    <glyph glyph-name="currency" unicode="&#xa4;" horiz-adv-x="616" 
d="M290 339q-6 -32 12.5 -54.5t50.5 -22.5q33 0 59.5 22.5t32.5 54.5q6 33 -12.5 55.5t-51.5 22.5q-32 0 -58.5 -22.5t-32.5 -55.5zM229 164l-84 -72l-56 69l83 72q-20 45 -9 106t48 107l-59 72l81 69l60 -72q55 30 110 30q58 0 103 -30l83 72l57 -69l-85 -73
q22 -54 13 -106q-10 -59 -50 -106l59 -72l-82 -69l-58 72q-54 -30 -113 -30t-101 30z" />
    <glyph glyph-name="yen" unicode="&#xa5;" horiz-adv-x="766" 
d="M857 689l-318 -362h131l-12 -70h-145l-18 -99h145l-13 -69h-145l-14 -89h-170l14 89h-145l13 69h145l18 99h-145l12 70h132l-191 362h199l109 -250l200 250h198z" />
    <glyph glyph-name="brokenbar" unicode="&#xa6;" horiz-adv-x="217" 
d="M114 256h77l-67 -382h-77zM289 805l-68 -379h-77l68 379h77z" />
    <glyph glyph-name="section" unicode="&#xa7;" horiz-adv-x="556" 
d="M355 202l-24 -136q-24 -5 -50 -5q-92 0 -144 60t-35 157l36 204q17 96 91 156t166 60q78 0 134 -45t53 -132l-137 -39q-3 42 -24 60t-49 18q-33 0 -61 -22t-34 -56l-35 -204q-7 -39 14.5 -58.5t59.5 -19.5q24 0 39 2zM286 288l25 136q23 5 49 5q92 0 145 -60t35 -157
l-37 -204q-18 -97 -91.5 -156.5t-165.5 -59.5q-78 0 -134 45t-53 132l137 39q3 -42 24.5 -60t50.5 -18q33 0 60 22t33 56l38 204q7 39 -15.5 58.5t-61.5 19.5q-24 0 -39 -2z" />
    <glyph glyph-name="dieresis" unicode="&#xa8;" 
d="M233 641q5 30 31.5 51t58.5 21q31 0 49 -21t13 -51q-5 -31 -30.5 -52t-56.5 -21q-32 0 -51 21t-14 52zM421 641q5 30 32 51t59 21q31 0 48.5 -21t12.5 -51q-5 -31 -30 -52t-56 -21q-32 0 -51.5 21t-14.5 52z" />
    <glyph glyph-name="copyright" unicode="&#xa9;" horiz-adv-x="792" 
d="M585 245l-59 45q-43 -46 -90 -46q-38 0 -58 28t-12 68q8 42 37.5 70t68.5 28q42 0 72 -46l74 46q-18 36 -53.5 57.5t-79.5 21.5q-73 0 -131.5 -51.5t-72.5 -125.5q-14 -73 27.5 -125t114.5 -52q44 0 87.5 22.5t74.5 59.5zM107 343q26 147 145.5 250.5t265.5 103.5
t230 -104t58 -250q-26 -147 -146.5 -250t-266.5 -103t-229 103t-57 250zM185 343q-20 -114 44 -194t177 -80t207 80.5t114 193.5q20 114 -44.5 194.5t-177.5 80.5t-206.5 -80.5t-113.5 -194.5z" />
    <glyph glyph-name="ordfeminine" unicode="&#xaa;" horiz-adv-x="473" 
d="M371 316l5 33q-46 -40 -102 -40q-70 0 -111 48.5t-27 126.5t71.5 126t128.5 48q56 0 89 -38l5 31h86l-59 -335h-86zM401 485q7 40 -16.5 63.5t-58.5 23.5q-37 0 -66 -24.5t-36 -62.5q-7 -39 13.5 -64.5t57.5 -25.5t67.5 24.5t38.5 65.5zM101 198l12 68h335l-12 -68h-335z
" />
    <glyph glyph-name="guillemotleft" unicode="&#xab;" horiz-adv-x="528" 
d="M76 233l175 207h119l-175 -207l102 -207h-119zM271 233l175 207h119l-175 -207l102 -207h-119z" />
    <glyph glyph-name="logicalnot" unicode="&#xac;" horiz-adv-x="620" 
d="M107 245l24 134h485l-50 -281h-135l26 147h-350z" />
    <glyph glyph-name="registered" unicode="&#xae;" horiz-adv-x="792" 
d="M435 438h56q14 0 21 -13t5 -26q-3 -16 -16 -29t-29 -13h-53zM568 174l-63 113q39 12 65 43t33 69q8 47 -16 80.5t-80 33.5h-142l-62 -339h84l21 109h7l52 -109h101zM107 343q26 147 145.5 250.5t265.5 103.5t230 -104t58 -250q-26 -147 -146.5 -250t-266.5 -103t-229 103
t-57 250zM185 343q-20 -114 44 -194t177 -80t207 80.5t114 193.5q20 114 -44.5 194.5t-177.5 80.5t-206.5 -80.5t-113.5 -194.5z" />
    <glyph glyph-name="macron" unicode="&#xaf;" horiz-adv-x="528" 
d="M510 579h-288l15 87h288z" />
    <glyph glyph-name="degree" unicode="&#xb0;" horiz-adv-x="368" 
d="M133 529q10 59 60 101.5t109 42.5q60 0 95 -42.5t24 -101.5q-10 -60 -60.5 -102.5t-110.5 -42.5q-59 0 -93 42.5t-24 102.5zM215 529q-5 -27 9.5 -45t40.5 -18q27 0 48 18t26 45q5 26 -10 44t-42 18q-25 0 -46 -18t-26 -44z" />
    <glyph glyph-name="plusminus" unicode="&#xb1;" horiz-adv-x="544" 
d="M498 109l-20 -110h-414l20 110h414zM531 298h-153l-25 -142h-108l25 142h-153l19 108h153l25 140h108l-25 -140h153z" />
    <glyph glyph-name="twosuperior" unicode="&#xb2;" horiz-adv-x="343" 
d="M126 546l199 187q16 19 10 35t-28 16q-35 0 -48 -40l-96 14q43 126 169 126q54 0 87 -34.5t23 -87.5q-10 -57 -57 -98l-101 -88h127l-15 -91h-281z" />
    <glyph glyph-name="threesuperior" unicode="&#xb3;" horiz-adv-x="337" 
d="M259 652h-42l14 74h42q45 0 51 37q2 12 -7 21.5t-31 9.5q-37 0 -65 -25l-45 57q52 58 143 58q54 0 85.5 -33.5t23.5 -77.5q-10 -49 -70 -76q67 -26 58 -88t-60.5 -95.5t-118.5 -33.5q-47 0 -81 17.5t-44 50.5l63 54q20 -37 74 -37q59 0 67 47q4 18 -13.5 29t-43.5 11z
" />
    <glyph glyph-name="acute" unicode="&#xb4;" horiz-adv-x="547" 
d="M349 723h148l-169 -174h-103z" />
    <glyph glyph-name="mu" unicode="&#xb5;" horiz-adv-x="598" 
d="M33 -190l117 656h159l-43 -243q-7 -42 12 -61.5t49 -19.5q32 0 60 19t36 60l43 245h160l-82 -466h-159l11 73q-18 -40 -63 -62.5t-82 -22.5q-25 0 -48 5l-33 -183h-137z" />
    <glyph glyph-name="paragraph" unicode="&#xb6;" horiz-adv-x="747" 
d="M472 689l-130 -735h-111l54 301q-85 5 -135 68t-34 149q16 90 90 153.5t165 63.5h101zM670 581h-40l-117 -658q-9 -54 -55.5 -95.5t-105.5 -41.5h-153l18 97h142q19 0 32.5 13t16.5 33l135 760h153q58 0 91 -41.5t23 -95.5l-15 -86h-99l13 73q4 19 -8 30.5t-31 11.5z" />
    <glyph glyph-name="periodcentered" unicode="&#xb7;" horiz-adv-x="287" 
d="M117 387q7 39 38.5 65t70.5 26t63 -26t17 -65q-7 -40 -40 -66t-72 -26q-40 0 -62 26t-15 66z" />
    <glyph glyph-name="cedilla" unicode="&#xb8;" horiz-adv-x="534" 
d="M279 -86l-34 109h67l39 -83q7 -17 2 -51q-8 -44 -44 -74.5t-78 -30.5q-46 0 -73 33t-14 96l69 -4q-11 -41 16 -52q23 -8 40 13q15 17 10 44z" />
    <glyph glyph-name="onesuperior" unicode="&#xb9;" horiz-adv-x="243" 
d="M161 799l193 91l-72 -405h-106l46 259l-76 -32z" />
    <glyph glyph-name="ordmasculine" unicode="&#xba;" horiz-adv-x="460" 
d="M283 309q-73 0 -114.5 49t-27.5 127q14 77 72.5 125t131.5 48q74 0 117 -48t29 -125q-14 -78 -74.5 -127t-133.5 -49zM299 395q37 0 67.5 25t37.5 65q7 39 -14.5 63t-59.5 24t-67.5 -24t-36.5 -63q-7 -40 14 -65t59 -25zM97 198l12 68h335l-12 -68h-335z" />
    <glyph glyph-name="guillemotright" unicode="&#xbb;" horiz-adv-x="528" 
d="M532 233l-174 -207h-119l174 207l-100 207h119zM337 233l-174 -207h-119l174 207l-100 207h119z" />
    <glyph glyph-name="onequarter" unicode="&#xbc;" horiz-adv-x="830" 
d="M696 302l-22 -122h-62zM824 180h-45l38 214h-141l-215 -301h197l-15 -93h105l15 93h45zM139 576l192 91l-72 -405h-106l46 259l-76 -32zM772 667h-93l-571 -676h94z" />
    <glyph glyph-name="onehalf" unicode="&#xbd;" horiz-adv-x="835" 
d="M138 576l192 91l-72 -405h-106l46 259l-76 -32zM771 667h-93l-571 -676h94zM720 248l-200 -187l-9 -61h281l15 91h-128l101 88q46 41 58 98q10 53 -23 87.5t-87 34.5q-128 0 -169 -126l95 -14q13 40 48 40q22 0 28.5 -15.5t-10.5 -35.5z" />
    <glyph glyph-name="threequarters" unicode="&#xbe;" horiz-adv-x="922" 
d="M766 180l21 122l-83 -122h62zM871 180h45l-16 -87h-45l-15 -93h-105l15 93h-197l215 301h141zM771 667h93l-570 -676h-94zM240 429h-42l13 74h42q45 0 51 37q2 12 -6.5 21.5t-30.5 9.5q-39 0 -65 -25l-45 57q52 58 143 58q54 0 85.5 -33.5t23.5 -77.5q-10 -48 -71 -76
q68 -26 59 -88t-61 -95.5t-119 -33.5q-47 0 -80.5 17.5t-43.5 50.5l63 54q20 -37 73 -37q30 0 47.5 13.5t20.5 33.5q4 18 -13.5 29t-43.5 11z" />
    <glyph glyph-name="questiondown" unicode="&#xbf;" horiz-adv-x="487" 
d="M252 233h143l-2 -12q-8 -46 -18 -74.5t-39.5 -59.5t-79.5 -51l-39 -16q-37 -15 -43 -50q-4 -26 11.5 -40t45.5 -14q26 0 48 18t27 46h144q-19 -105 -86 -160t-163 -55q-95 0 -144 53t-33 142q13 71 56 119t106 70q32 11 46 29.5t20 54.5zM444 385q-7 -39 -39.5 -65
t-71.5 -26q-40 0 -63 26t-16 65q7 40 39.5 66.5t72.5 26.5q39 0 62 -26.5t16 -66.5z" />
    <glyph glyph-name="Agrave" unicode="&#xc0;" horiz-adv-x="667" 
d="M501 0l-31 158h-217l-85 -158h-179l375 689h182l132 -689h-177zM426 529l-102 -227h129zM330 923h148l62 -174h-103z" />
    <glyph glyph-name="Aacute" unicode="&#xc1;" horiz-adv-x="667" 
d="M470 158l31 -158h177l-132 689h-182l-375 -689h179l85 158h217zM324 302l102 227l27 -227h-129zM499 923h148l-169 -174h-103z" />
    <glyph glyph-name="Acircumflex" unicode="&#xc2;" horiz-adv-x="667" 
d="M501 0l-31 158h-217l-85 -158h-179l375 689h182l132 -689h-177zM426 529l-102 -227h129zM279 757l140 173h156l79 -173h-108l-64 89l-96 -89h-107z" />
    <glyph glyph-name="Atilde" unicode="&#xc3;" horiz-adv-x="667" 
d="M501 0l-31 158h-217l-85 -158h-179l375 689h182l132 -689h-177zM426 529l-102 -227h129zM431 797q-7 0 -18 -11t-16 -32h-75q16 67 51.5 98.5t72.5 31.5q23 0 46.5 -20.5t33.5 -20.5q8 0 18.5 10t14.5 31h75q-14 -66 -50.5 -97t-73.5 -31q-22 0 -46 20.5t-33 20.5z" />
    <glyph glyph-name="Adieresis" unicode="&#xc4;" horiz-adv-x="667" 
d="M470 158l31 -158h177l-132 689h-182l-375 -689h179l85 158h217zM324 302l102 227l27 -227h-129zM312 841q5 30 31.5 51t58.5 21q31 0 49 -21t13 -51q-5 -31 -30.5 -52t-57.5 -21t-50.5 21t-13.5 52zM500 841q5 30 32 51t59 21q31 0 48.5 -21t12.5 -51q-5 -31 -30.5 -52
t-56.5 -21q-32 0 -51 21t-14 52z" />
    <glyph glyph-name="Aring" unicode="&#xc5;" horiz-adv-x="667" 
d="M470 158l31 -158h177l-132 689h-182l-375 -689h179l85 158h217zM324 302l102 227l27 -227h-129zM360 873q9 54 52.5 91.5t96.5 37.5q54 0 84 -37.5t21 -91.5q-9 -53 -53 -90t-98 -37q-52 0 -82 37t-21 90zM422 873q-5 -28 10 -46.5t42 -18.5q28 0 51 18.5t28 46.5
t-10.5 48t-43.5 20q-27 0 -49.5 -20t-27.5 -48z" />
    <glyph glyph-name="AE" unicode="&#xc6;" horiz-adv-x="936" 
d="M480 296l34 188l-130 -188h96zM-28 0l556 689h472l-25 -146h-281l-24 -132h246l-25 -141h-246l-22 -124h289l-25 -146h-457l-1 1v-1l26 152h-160l-121 -152h-202z" />
    <glyph glyph-name="Ccedilla" unicode="&#xc7;" horiz-adv-x="708" 
d="M350 -86l-25 83q-120 22 -184.5 120t-42.5 227q17 96 78.5 178t151 129t184.5 47q90 0 160 -42.5t106 -115.5l-156 -97q-18 40 -55 63.5t-85 23.5q-76 0 -138.5 -54t-76.5 -132q-14 -77 29.5 -131t119.5 -54q49 0 94.5 23t77.5 63l119 -96q-58 -70 -140 -112.5
t-169 -45.5l25 -51q6 -19 1 -51q-8 -44 -44 -74.5t-78 -30.5q-46 0 -72.5 33t-13.5 96l69 -4q-12 -42 16 -52q22 -8 40 13q14 17 9 44z" />
    <glyph glyph-name="Egrave" unicode="&#xc8;" horiz-adv-x="581" 
d="M533 0h-456l121 689h447l-25 -146h-280l-24 -132h246l-26 -143h-246l-21 -122h289zM294 923h148l62 -174h-103z" />
    <glyph glyph-name="Eacute" unicode="&#xc9;" horiz-adv-x="581" 
d="M77 0h456l25 146h-289l21 122h246l26 143h-246l24 132h280l25 146h-447zM465 923h148l-169 -174h-103z" />
    <glyph glyph-name="Ecircumflex" unicode="&#xca;" horiz-adv-x="581" 
d="M533 0h-456l121 689h447l-25 -146h-280l-24 -132h246l-26 -143h-246l-21 -122h289zM231 757l140 173h156l79 -173h-108l-64 89l-96 -89h-107z" />
    <glyph glyph-name="Edieresis" unicode="&#xcb;" horiz-adv-x="581" 
d="M77 0h456l25 146h-289l21 122h246l26 143h-246l24 132h280l25 146h-447zM264 841q5 30 31.5 51t58.5 21q31 0 49 -21t13 -51q-5 -31 -30.5 -52t-57.5 -21t-50.5 21t-13.5 52zM452 841q5 30 32 51t59 21q31 0 48.5 -21t12.5 -51q-5 -31 -30.5 -52t-56.5 -21q-32 0 -51 21
t-14 52z" />
    <glyph glyph-name="Igrave" unicode="&#xcc;" horiz-adv-x="321" 
d="M77 0l121 689h167l-121 -689h-167zM167 923h148l62 -174h-103z" />
    <glyph glyph-name="Iacute" unicode="&#xcd;" horiz-adv-x="321" 
d="M198 689l-121 -689h167l121 689h-167zM332 923h148l-169 -174h-103z" />
    <glyph glyph-name="Icircumflex" unicode="&#xce;" horiz-adv-x="321" 
d="M77 0l121 689h167l-121 -689h-167zM106 757l140 173h156l79 -173h-108l-64 89l-96 -89h-107z" />
    <glyph glyph-name="Idieresis" unicode="&#xcf;" horiz-adv-x="321" 
d="M198 689l-121 -689h167l121 689h-167zM140 841q5 30 31.5 51t58.5 21q31 0 49 -21t13 -51q-5 -31 -30.5 -52t-57.5 -21t-50.5 21t-13.5 52zM328 841q5 30 32 51t59 21q31 0 48.5 -21t12.5 -51q-5 -31 -30.5 -52t-56.5 -21q-32 0 -51 21t-14 52z" />
    <glyph glyph-name="Eth" unicode="&#xd0;" horiz-adv-x="722" 
d="M417 282h-106l-24 -133h105q69 0 118 56.5t63 137.5q14 82 -14.5 139.5t-97.5 57.5h-105l-27 -157h106zM143 282h-94l18 101h94l54 306h273q146 0 212.5 -97.5t39.5 -248.5t-127.5 -247t-245.5 -96h-273z" />
    <glyph glyph-name="Ntilde" unicode="&#xd1;" horiz-adv-x="678" 
d="M555 689h167l-121 -689h-146l-146 376l-65 -376h-167l121 689h151l140 -371zM436 797q-8 0 -18.5 -11t-15.5 -32h-75q16 67 51.5 98.5t72.5 31.5q23 0 46.5 -20.5t33.5 -20.5q8 0 18.5 10t14.5 31h75q-14 -66 -50.5 -97t-73.5 -31q-21 0 -45 20.5t-34 20.5z" />
    <glyph glyph-name="Ograve" unicode="&#xd2;" horiz-adv-x="779" 
d="M98 344q26 147 147 250.5t266 103.5q147 0 231.5 -103.5t58.5 -250.5q-26 -146 -146.5 -249.5t-267.5 -103.5q-145 0 -230 103.5t-59 249.5zM267 344q-14 -77 29.5 -131t119.5 -54t139.5 54t77.5 131t-30.5 131.5t-121.5 54.5q-76 0 -138 -54t-76 -132zM346 923h148
l62 -174h-103z" />
    <glyph glyph-name="Oacute" unicode="&#xd3;" horiz-adv-x="779" 
d="M98 344q-26 -146 59 -249.5t230 -103.5q147 0 267.5 103.5t146.5 249.5q26 147 -58.5 250.5t-231.5 103.5q-145 0 -266 -103.5t-147 -250.5zM267 344q14 78 76 132t138 54q77 0 121.5 -54.5t30.5 -131.5t-77.5 -131t-139.5 -54t-119.5 54t-29.5 131zM599 923h148
l-169 -174h-103z" />
    <glyph glyph-name="Ocircumflex" unicode="&#xd4;" horiz-adv-x="779" 
d="M98 344q26 147 147 250.5t266 103.5q147 0 231.5 -103.5t58.5 -250.5q-26 -146 -146.5 -249.5t-267.5 -103.5q-145 0 -230 103.5t-59 249.5zM267 344q-14 -77 29.5 -131t119.5 -54t139.5 54t77.5 131t-30.5 131.5t-121.5 54.5q-76 0 -138 -54t-76 -132zM334 757l140 173
h156l79 -173h-108l-63 89l-97 -89h-107z" />
    <glyph glyph-name="Otilde" unicode="&#xd5;" horiz-adv-x="779" 
d="M98 344q26 147 147 250.5t266 103.5q147 0 231.5 -103.5t58.5 -250.5q-26 -146 -146.5 -249.5t-267.5 -103.5q-145 0 -230 103.5t-59 249.5zM267 344q-14 -77 29.5 -131t119.5 -54t139.5 54t77.5 131t-30.5 131.5t-121.5 54.5q-76 0 -138 -54t-76 -132zM487 797
q-7 0 -18.5 -11t-16.5 -32h-75q16 67 51.5 98.5t72.5 31.5q23 0 47 -20.5t34 -20.5q8 0 18.5 10t13.5 31h75q-14 -66 -50.5 -97t-73.5 -31q-21 0 -45 20.5t-33 20.5z" />
    <glyph glyph-name="Odieresis" unicode="&#xd6;" horiz-adv-x="779" 
d="M98 344q-26 -146 59 -249.5t230 -103.5q147 0 267.5 103.5t146.5 249.5q26 147 -58.5 250.5t-231.5 103.5q-145 0 -266 -103.5t-147 -250.5zM267 344q14 78 76 132t138 54q77 0 121.5 -54.5t30.5 -131.5t-77.5 -131t-139.5 -54t-119.5 54t-29.5 131zM367 841q5 30 32 51
t59 21q31 0 48.5 -21t12.5 -51q-5 -31 -30.5 -52t-57.5 -21t-50.5 21t-13.5 52zM555 841q5 30 32.5 51t59.5 21q31 0 48 -21t12 -51q-5 -31 -30.5 -52t-56.5 -21q-32 0 -51 21t-14 52z" />
    <glyph glyph-name="multiply" unicode="&#xd7;" horiz-adv-x="486" 
d="M496 368l-135 -115l94 -112l-90 -77l-94 113l-131 -110l-62 77l130 109l-92 113l91 77l93 -113l134 114z" />
    <glyph glyph-name="Oslash" unicode="&#xd8;" horiz-adv-x="778" 
d="M415 158q76 0 139.5 54.5t77.5 131.5q10 53 -14 104l-300 -259q42 -31 97 -31zM266 344q-11 -58 12 -109l303 261q-40 35 -101 35q-76 0 -138 -54.5t-76 -132.5zM180 68l18 15l-113 -98l-39 47l96 82q-69 99 -45 230q26 147 147 250.5t266 103.5q127 0 210 -81l92 81
l39 -46l-93 -82q64 -100 42 -226q-26 -146 -147 -249.5t-267 -103.5q-124 0 -206 77z" />
    <glyph glyph-name="Ugrave" unicode="&#xd9;" horiz-adv-x="682" 
d="M339 -9q-112 0 -179.5 72.5t-47.5 187.5l77 438h168l-77 -438q-8 -45 18.5 -74t67.5 -29t77.5 29t44.5 74l77 438h168l-77 -438q-20 -116 -113 -188t-204 -72zM333 923h148l63 -174h-103z" />
    <glyph glyph-name="Uacute" unicode="&#xda;" horiz-adv-x="682" 
d="M339 -9q111 0 204 72t113 188l77 438h-168l-77 -438q-8 -45 -44.5 -74t-77.5 -29t-67.5 29t-18.5 74l77 438h-168l-77 -438q-20 -115 47.5 -187.5t179.5 -72.5zM531 923h148l-168 -174h-103z" />
    <glyph glyph-name="Ucircumflex" unicode="&#xdb;" horiz-adv-x="682" 
d="M339 -9q-112 0 -179.5 72.5t-47.5 187.5l77 438h168l-77 -438q-8 -45 18.5 -74t67.5 -29t77.5 29t44.5 74l77 438h168l-77 -438q-20 -116 -113 -188t-204 -72zM285 757l140 173h156l79 -173h-108l-63 89l-97 -89h-107z" />
    <glyph glyph-name="Udieresis" unicode="&#xdc;" horiz-adv-x="682" 
d="M339 -9q111 0 204 72t113 188l77 438h-168l-77 -438q-8 -45 -44.5 -74t-77.5 -29t-67.5 29t-18.5 74l77 438h-168l-77 -438q-20 -115 47.5 -187.5t179.5 -72.5zM319 841q5 30 32 51t59 21q31 0 48.5 -21t12.5 -51q-5 -31 -30.5 -52t-57.5 -21t-50.5 21t-13.5 52zM507 841
q5 30 32.5 51t59.5 21q31 0 48 -21t12 -51q-5 -31 -30.5 -52t-56.5 -21q-32 0 -51 21t-14 52z" />
    <glyph glyph-name="Yacute" unicode="&#xdd;" horiz-adv-x="663" 
d="M415 0h-168l54 310l-202 379h199l109 -250l200 250h198l-336 -382zM518 923h148l-169 -174h-103z" />
    <glyph glyph-name="Thorn" unicode="&#xde;" horiz-adv-x="575" 
d="M344 118h-80l-20 -118h-167l121 689h167l-20 -111h80q97 0 151.5 -62.5t36.5 -165.5t-95 -167.5t-174 -64.5zM449 347q7 43 -10 68t-53 25h-65l-32 -184h65q36 0 62 24.5t33 66.5z" />
    <glyph glyph-name="germandbls" unicode="&#xdf;" horiz-adv-x="591" 
d="M251 1l63 141q24 -3 39 -3q34 0 61.5 25.5t33.5 57.5q4 7 1.5 21.5t-7.5 29t-23 25.5t-46 11h-37l24 135h21q24 0 39.5 15t19.5 40q3 18 -9.5 35t-47.5 17q-36 0 -55.5 -24.5t-28.5 -71.5l-80 -455h-159l80 455q42 242 264 242q98 0 149 -54t39 -122q-20 -109 -91 -134
q53 -13 79.5 -60.5t15.5 -108.5q-18 -101 -86.5 -164t-183.5 -63q-43 0 -75 10z" />
    <glyph glyph-name="agrave" unicode="&#xe0;" horiz-adv-x="608" 
d="M462 416l9 50h159l-82 -466h-159l10 53q-57 -62 -140 -62q-91 0 -147.5 67.5t-37.5 175.5q19 109 99 176.5t171 67.5q37 0 70 -16t48 -46zM236 233q-7 -40 16 -68.5t63 -28.5t73.5 28.5t41.5 68.5q7 40 -16 68.5t-63 28.5t-73.5 -28.5t-41.5 -68.5zM279 723h148l62 -174
h-103z" />
    <glyph glyph-name="aacute" unicode="&#xe1;" horiz-adv-x="608" 
d="M471 466l-9 -50q-15 30 -48 46t-70 16q-91 0 -171 -67.5t-99 -176.5q-19 -108 37.5 -175.5t147.5 -67.5q83 0 140 62l-10 -53h159l82 466h-159zM236 233q8 40 41.5 68.5t73.5 28.5t63 -28.5t16 -68.5q-8 -40 -41.5 -68.5t-73.5 -28.5t-63 28.5t-16 68.5zM448 723h148
l-169 -174h-103z" />
    <glyph glyph-name="acircumflex" unicode="&#xe2;" horiz-adv-x="608" 
d="M462 416l9 50h159l-82 -466h-159l10 53q-57 -62 -140 -62q-91 0 -147.5 67.5t-37.5 175.5q19 109 99 176.5t171 67.5q37 0 70 -16t48 -46zM236 233q-7 -40 16 -68.5t63 -28.5t73.5 28.5t41.5 68.5q7 40 -16 68.5t-63 28.5t-73.5 -28.5t-41.5 -68.5zM217 557l140 173h156
l79 -173h-108l-65 89l-95 -89h-107z" />
    <glyph glyph-name="atilde" unicode="&#xe3;" horiz-adv-x="608" 
d="M462 416l9 50h159l-82 -466h-159l10 53q-57 -62 -140 -62q-91 0 -147.5 67.5t-37.5 175.5q19 109 99 176.5t171 67.5q37 0 70 -16t48 -46zM236 233q-7 -40 16 -68.5t63 -28.5t73.5 28.5t41.5 68.5q7 40 -16 68.5t-63 28.5t-73.5 -28.5t-41.5 -68.5zM367 597
q-8 0 -18.5 -11t-14.5 -32h-75q15 67 51 98.5t74 31.5q23 0 45.5 -20.5t32.5 -20.5q8 0 19 10t16 31h75q-16 -67 -52 -97.5t-72 -30.5q-22 0 -47 20.5t-34 20.5z" />
    <glyph glyph-name="adieresis" unicode="&#xe4;" horiz-adv-x="608" 
d="M471 466l-9 -50q-15 30 -48 46t-70 16q-91 0 -171 -67.5t-99 -176.5q-19 -108 37.5 -175.5t147.5 -67.5q83 0 140 62l-10 -53h159l82 466h-159zM236 233q8 40 41.5 68.5t73.5 28.5t63 -28.5t16 -68.5q-8 -40 -41.5 -68.5t-73.5 -28.5t-63 28.5t-16 68.5zM248 641
q5 30 31.5 51t58.5 21q31 0 49 -21t13 -51q-5 -31 -30.5 -52t-56.5 -21q-32 0 -51 21t-14 52zM436 641q5 30 32 51t59 21q31 0 48.5 -21t12.5 -51q-5 -31 -30 -52t-56 -21q-32 0 -51.5 21t-14.5 52z" />
    <glyph glyph-name="aring" unicode="&#xe5;" horiz-adv-x="608" 
d="M471 466l-9 -50q-15 30 -48 46t-70 16q-91 0 -171 -67.5t-99 -176.5q-19 -108 37.5 -175.5t147.5 -67.5q83 0 140 62l-10 -53h159l82 466h-159zM236 233q8 40 41.5 68.5t73.5 28.5t63 -28.5t16 -68.5q-8 -40 -41.5 -68.5t-73.5 -28.5t-63 28.5t-16 68.5zM297 673
q10 54 53 91.5t96 37.5q54 0 84.5 -37.5t20.5 -91.5q-10 -53 -53 -90t-97 -37q-53 0 -83.5 37t-20.5 90zM359 673q-5 -28 10.5 -46.5t42.5 -18.5q28 0 50.5 18.5t27.5 46.5t-10.5 48t-43.5 20q-27 0 -49.5 -20t-27.5 -48z" />
    <glyph glyph-name="ae" unicode="&#xe6;" horiz-adv-x="984" 
d="M999 240q-1 -5 -3 -14.5t-5 -21t-4 -15.5h-334q-1 -32 26.5 -51.5t67.5 -19.5q56 0 97 39q9 -8 47.5 -40t47.5 -39q-82 -87 -225 -87q-100 0 -157 60l-9 -51h-159l10 53q-57 -62 -140 -62q-91 0 -147.5 67.5t-37.5 175.5q19 109 99 176.5t171 67.5q37 0 70 -16t48 -46
l9 50h159l-8 -47q79 59 177 59q103 0 161 -65.5t39 -172.5zM236 233q-7 -40 16 -68.5t63 -28.5t73.5 28.5t41.5 68.5q7 40 -16 68.5t-63 28.5t-73.5 -28.5t-41.5 -68.5zM670 278h186q-3 39 -29 54t-54 15q-16 0 -33 -4t-38.5 -21t-31.5 -44z" />
    <glyph glyph-name="ccedilla" unicode="&#xe7;" horiz-adv-x="526" 
d="M303 -8l27 -52q6 -18 1 -51q-8 -44 -44 -74.5t-78 -30.5q-46 0 -73 33t-14 96l69 -4q-11 -41 16 -52q23 -8 40 13q15 17 10 44l-27 84q-84 18 -129 81.5t-28 154.5q20 108 108 176t195 68q127 0 185 -115l-154 -84q-14 42 -70 42q-35 0 -65 -26t-37 -61t14.5 -61
t56.5 -26q55 0 82 38l128 -79q-92 -108 -213 -114z" />
    <glyph glyph-name="egrave" unicode="&#xe8;" horiz-adv-x="550" 
d="M229 723h148l62 -174h-103zM564 240q-1 -5 -3 -14.5t-5 -21t-4 -15.5h-334q-1 -32 26.5 -51.5t67.5 -19.5q56 0 97 39q9 -8 47.5 -40t47.5 -39q-82 -87 -225 -87q-103 0 -164 68.5t-42 176.5q19 107 103 174.5t188 67.5q103 0 161 -65.5t39 -172.5zM235 278h186
q-3 39 -29 54t-54 15q-16 0 -33 -4t-38.5 -21t-31.5 -44z" />
    <glyph glyph-name="eacute" unicode="&#xe9;" horiz-adv-x="550" 
d="M442 723h148l-169 -174h-103zM564 240q19 107 -39 172.5t-161 65.5q-104 0 -188 -67.5t-103 -174.5q-19 -108 42 -176.5t164 -68.5q143 0 225 87q-9 7 -47.5 39t-47.5 40q-41 -39 -97 -39q-40 0 -67.5 19.5t-26.5 51.5h334q1 4 4 15.5t5 21t3 14.5zM235 278
q14 39 44.5 54t58.5 15q16 0 31.5 -4t32.5 -21t19 -44h-186z" />
    <glyph glyph-name="ecircumflex" unicode="&#xea;" horiz-adv-x="550" 
d="M189 557l140 173h156l79 -173h-108l-65 89l-95 -89h-107zM564 240q-1 -5 -3 -14.5t-5 -21t-4 -15.5h-334q-1 -32 26.5 -51.5t67.5 -19.5q56 0 97 39q9 -8 47.5 -40t47.5 -39q-82 -87 -225 -87q-103 0 -164 68.5t-42 176.5q19 107 103 174.5t188 67.5q103 0 161 -65.5
t39 -172.5zM235 278h186q-3 39 -29 54t-54 15q-16 0 -33 -4t-38.5 -21t-31.5 -44z" />
    <glyph glyph-name="edieresis" unicode="&#xeb;" horiz-adv-x="550" 
d="M220 641q5 30 31.5 51t58.5 21q31 0 49 -21t13 -51q-5 -31 -30.5 -52t-56.5 -21q-32 0 -51 21t-14 52zM408 641q5 30 32 51t59 21q31 0 48.5 -21t12.5 -51q-5 -31 -30 -52t-56 -21q-32 0 -51.5 21t-14.5 52zM564 240q19 107 -39 172.5t-161 65.5q-104 0 -188 -67.5
t-103 -174.5q-19 -108 42 -176.5t164 -68.5q143 0 225 87q-9 7 -47.5 39t-47.5 40q-41 -39 -97 -39q-40 0 -67.5 19.5t-26.5 51.5h334q1 4 4 15.5t5 21t3 14.5zM235 278q14 39 44.5 54t58.5 15q16 0 31.5 -4t32.5 -21t19 -44h-186z" />
    <glyph glyph-name="igrave" unicode="&#xec;" horiz-adv-x="277" 
d="M142 467h157l-82 -467h-157zM103 723h148l62 -174h-103z" />
    <glyph glyph-name="iacute" unicode="&#xed;" horiz-adv-x="277" 
d="M299 467h-157l-82 -467h157zM281 723h148l-169 -174h-103z" />
    <glyph glyph-name="icircumflex" unicode="&#xee;" horiz-adv-x="277" 
d="M142 467h157l-82 -467h-157zM48 557l140 173h156l79 -173h-108l-65 89l-95 -89h-107z" />
    <glyph glyph-name="idieresis" unicode="&#xef;" horiz-adv-x="277" 
d="M299 467h-157l-82 -467h157zM81 641q5 30 31.5 51t58.5 21q31 0 49 -21t13 -51q-5 -31 -30.5 -52t-57.5 -21t-50.5 21t-13.5 52zM269 641q5 30 32 51t59 21q31 0 48.5 -21t12.5 -51q-5 -31 -30.5 -52t-56.5 -21q-32 0 -51 21t-14 52z" />
    <glyph glyph-name="eth" unicode="&#xf0;" horiz-adv-x="552" 
d="M300 147q36 0 64.5 23.5t35.5 62.5q7 37 -13.5 60t-56.5 23q-35 0 -63.5 -23t-35.5 -60q-7 -38 13.5 -62t55.5 -24zM521 615l-88 -34l105 -203q33 -63 19 -145q-19 -108 -100.5 -175t-183.5 -67q-101 0 -159.5 67t-40.5 175q15 85 74 146.5t141 78.5q24 5 63 7l-39 71
l-90 -33l-18 49l85 31l-55 106h145l33 -62l83 34z" />
    <glyph glyph-name="ntilde" unicode="&#xf1;" horiz-adv-x="590" 
d="M262 245l-43 -245h-159l82 466h159l-13 -73q18 40 63.5 62.5t82.5 22.5q92 0 128 -59.5t17 -170.5l-43 -248h-159l42 243q7 42 -12.5 61.5t-49.5 19.5q-32 0 -60 -19t-35 -60zM357 597q-7 0 -18 -11t-16 -32h-75q16 67 52 98.5t73 31.5q23 0 46 -20.5t33 -20.5
q8 0 18.5 10t15.5 31h75q-15 -66 -51 -97t-73 -31q-21 0 -46 20.5t-34 20.5z" />
    <glyph glyph-name="ograve" unicode="&#xf2;" horiz-adv-x="563" 
d="M278 -9q-102 0 -163 68t-42 175q20 108 104.5 176t185.5 68q103 0 165 -68t42 -176q-19 -107 -104 -175t-188 -68zM223 234q-7 -40 16.5 -68.5t63.5 -28.5t73 28.5t41 68.5q7 40 -16 68.5t-63 28.5t-73.5 -28.5t-41.5 -68.5zM212 723h148l62 -174h-103z" />
    <glyph glyph-name="oacute" unicode="&#xf3;" horiz-adv-x="563" 
d="M278 -9q103 0 188 68t104 175q20 108 -42 176t-165 68q-101 0 -185.5 -68t-104.5 -176q-19 -107 42 -175t163 -68zM223 234q8 40 41.5 68.5t73.5 28.5t63 -28.5t16 -68.5q-8 -40 -41 -68.5t-73 -28.5t-63.5 28.5t-16.5 68.5zM438 723h148l-169 -174h-103z" />
    <glyph glyph-name="ocircumflex" unicode="&#xf4;" horiz-adv-x="563" 
d="M278 -9q-102 0 -163 68t-42 175q20 108 104.5 176t185.5 68q103 0 165 -68t42 -176q-19 -107 -104 -175t-188 -68zM223 234q-7 -40 16.5 -68.5t63.5 -28.5t73 28.5t41 68.5q7 40 -16 68.5t-63 28.5t-73.5 -28.5t-41.5 -68.5zM192 557l140 173h156l79 -173h-108l-65 89
l-95 -89h-107z" />
    <glyph glyph-name="otilde" unicode="&#xf5;" horiz-adv-x="563" 
d="M278 -9q-102 0 -163 68t-42 175q20 108 104.5 176t185.5 68q103 0 165 -68t42 -176q-19 -107 -104 -175t-188 -68zM223 234q-7 -40 16.5 -68.5t63.5 -28.5t73 28.5t41 68.5q7 40 -16 68.5t-63 28.5t-73.5 -28.5t-41.5 -68.5zM342 597q-8 0 -18.5 -11t-14.5 -32h-75
q15 67 51 98.5t74 31.5q23 0 45.5 -20.5t32.5 -20.5q8 0 19 10t16 31h75q-16 -67 -52 -97.5t-72 -30.5q-21 0 -46 20.5t-35 20.5z" />
    <glyph glyph-name="odieresis" unicode="&#xf6;" horiz-adv-x="563" 
d="M278 -9q103 0 188 68t104 175q20 108 -42 176t-165 68q-101 0 -185.5 -68t-104.5 -176q-19 -107 42 -175t163 -68zM223 234q8 40 41.5 68.5t73.5 28.5t63 -28.5t16 -68.5q-8 -40 -41 -68.5t-73 -28.5t-63.5 28.5t-16.5 68.5zM224 641q5 30 31.5 51t58.5 21q31 0 49 -21
t13 -51q-5 -31 -30.5 -52t-56.5 -21q-32 0 -51 21t-14 52zM412 641q5 30 32 51t59 21q31 0 48.5 -21t12.5 -51q-5 -31 -30 -52t-56 -21q-32 0 -51.5 21t-14.5 52z" />
    <glyph glyph-name="divide" unicode="&#xf7;" horiz-adv-x="621" 
d="M238 73q6 35 34 57.5t63 22.5t55.5 -22.5t14.5 -57.5t-34.5 -58.5t-63.5 -23.5t-55 23.5t-14 58.5zM306 460q6 34 34 57t63 23t55.5 -23t14.5 -57q-7 -36 -35 -58.5t-63 -22.5t-55.5 22.5t-13.5 58.5zM609 218h-521l18 102h521z" />
    <glyph glyph-name="oslash" unicode="&#xf8;" horiz-adv-x="563" 
d="M138 37l-65 -56l-34 41l63 54q-45 63 -28 158q19 108 103.5 176t186.5 68q83 0 145 -49l60 52l34 -40l-59 -51q42 -66 26 -156q-19 -107 -103.5 -175t-187.5 -68q-86 0 -141 46zM224 234q-5 -28 4 -48l154 133q-21 12 -43 12q-40 0 -73.5 -28.5t-41.5 -68.5zM304 137
q40 0 73 28.5t41 68.5q4 22 -2 44l-152 -132q16 -9 40 -9z" />
    <glyph glyph-name="ugrave" unicode="&#xf9;" horiz-adv-x="590" 
d="M253 723h148l62 -174h-103zM409 221l44 245h159l-82 -466h-159l12 73q-18 -40 -62.5 -61t-82.5 -21q-92 0 -128.5 59.5t-16.5 170.5l43 245h160l-43 -240q-7 -42 12 -61.5t49 -19.5q33 0 61 17.5t34 58.5z" />
    <glyph glyph-name="uacute" unicode="&#xfa;" horiz-adv-x="590" 
d="M452 723h148l-169 -174h-103zM409 221l44 245h159l-82 -466h-159l12 73q-18 -40 -62.5 -61t-82.5 -21q-92 0 -128.5 59.5t-16.5 170.5l43 245h160l-43 -240q-7 -42 12 -61.5t49 -19.5q33 0 61 17.5t34 58.5z" />
    <glyph glyph-name="ucircumflex" unicode="&#xfb;" horiz-adv-x="590" 
d="M201 557l140 173h156l79 -173h-108l-65 89l-95 -89h-107zM409 221l44 245h159l-82 -466h-159l12 73q-18 -40 -62.5 -61t-82.5 -21q-92 0 -128.5 59.5t-16.5 170.5l43 245h160l-43 -240q-7 -42 12 -61.5t49 -19.5q33 0 61 17.5t34 58.5z" />
    <glyph glyph-name="udieresis" unicode="&#xfc;" horiz-adv-x="590" 
d="M245 641q5 30 31.5 51t58.5 21q31 0 49 -21t13 -51q-5 -31 -30.5 -52t-57.5 -21t-50.5 21t-13.5 52zM433 641q5 30 32 51t59 21q31 0 48.5 -21t12.5 -51q-5 -31 -30.5 -52t-56.5 -21q-32 0 -51 21t-14 52zM409 221l44 245h159l-82 -466h-159l12 73q-18 -40 -62.5 -61
t-82.5 -21q-92 0 -128.5 59.5t-16.5 170.5l43 245h160l-43 -240q-7 -42 12 -61.5t49 -19.5q33 0 61 17.5t34 58.5z" />
    <glyph glyph-name="yacute" unicode="&#xfd;" horiz-adv-x="518" 
d="M599 466h-169l-127 -226l-51 226h-174l111 -404l-168 -292h167zM403 723h148l-169 -174h-103z" />
    <glyph glyph-name="thorn" unicode="&#xfe;" horiz-adv-x="609" 
d="M345 711l-52 -288q60 55 139 55q91 0 146.5 -67.5t36.5 -176.5t-98.5 -176t-170.5 -67q-43 0 -78 19t-47 57l-52 -297h-150l167 941h159zM453 233q7 40 -16 68.5t-63 28.5t-73.5 -28.5t-41.5 -68.5q-7 -40 16.5 -68.5t63.5 -28.5t73 28.5t41 68.5z" />
    <glyph glyph-name="ydieresis" unicode="&#xff;" horiz-adv-x="518" 
d="M599 466h-169l-127 -226l-51 226h-174l111 -404l-168 -292h167zM202 641q5 30 31.5 51t58.5 21q31 0 49 -21t13 -51q-5 -31 -30.5 -52t-57.5 -21t-50.5 21t-13.5 52zM390 641q5 30 32 51t59 21q31 0 48.5 -21t12.5 -51q-5 -31 -30.5 -52t-56.5 -21q-32 0 -51 21t-14 52z
" />
    <glyph glyph-name="Amacron" unicode="&#x100;" horiz-adv-x="667" 
d="M501 0l-31 158h-217l-85 -158h-179l375 689h182l132 -689h-177zM426 529l-102 -227h129zM614 779h-288l16 87h288z" />
    <glyph glyph-name="amacron" unicode="&#x101;" horiz-adv-x="608" 
d="M462 416l9 50h159l-82 -466h-159l10 53q-57 -62 -140 -62q-91 0 -147.5 67.5t-37.5 175.5q19 109 99 176.5t171 67.5q37 0 70 -16t48 -46zM236 233q-7 -40 16 -68.5t63 -28.5t73.5 28.5t41.5 68.5q7 40 -16 68.5t-63 28.5t-73.5 -28.5t-41.5 -68.5zM551 579h-288l16 87
h288z" />
    <glyph glyph-name="Abreve" unicode="&#x102;" horiz-adv-x="667" 
d="M470 158l31 -158h177l-132 689h-182l-375 -689h179l85 158h217zM324 302l102 227l27 -227h-129zM355 896h89q-5 -26 3.5 -38t34.5 -12q45 0 54 50h91q-10 -59 -54.5 -95.5t-104.5 -36.5q-65 0 -93.5 39t-19.5 93z" />
    <glyph glyph-name="abreve" unicode="&#x103;" horiz-adv-x="608" 
d="M471 466l-9 -50q-15 30 -48 46t-70 16q-91 0 -171 -67.5t-99 -176.5q-19 -108 37.5 -175.5t147.5 -67.5q83 0 140 62l-10 -53h159l82 466h-159zM236 233q8 40 41.5 68.5t73.5 28.5t63 -28.5t16 -68.5q-8 -40 -41.5 -68.5t-73.5 -28.5t-63 28.5t-16 68.5zM291 696h89
q-4 -26 4.5 -38t34.5 -12q46 0 53 50h91q-9 -59 -53.5 -95.5t-104.5 -36.5q-65 0 -94 39t-20 93z" />
    <glyph glyph-name="Aogonek" unicode="&#x104;" horiz-adv-x="667" 
d="M426 529l-102 -227h129zM678 0l-60 -86q-22 -39 3 -54q20 -13 42 6q17 15 19 43l71 4q-9 -63 -47.5 -96t-84.5 -33q-42 0 -68 30.5t-18 74.5q5 31 21 51l51 60h-106l-31 158h-217l-85 -158h-179l375 689h182z" />
    <glyph glyph-name="aogonek" unicode="&#x105;" horiz-adv-x="608" 
d="M548 0l-60 -86q-22 -39 3 -54q20 -13 42 6q17 15 19 43l71 4q-8 -63 -47 -96t-85 -33q-42 0 -67.5 30.5t-17.5 74.5q5 31 21 51l50 60h-88l10 53q-57 -62 -140 -62q-91 0 -147.5 67.5t-37.5 175.5q19 109 99 176.5t171 67.5q37 0 70 -16t48 -46l9 50h159zM236 233
q-7 -40 16 -68.5t63 -28.5t73.5 28.5t41.5 68.5q7 40 -16 68.5t-63 28.5t-73.5 -28.5t-41.5 -68.5z" />
    <glyph glyph-name="Cacute" unicode="&#x106;" horiz-adv-x="707" 
d="M707 149l-120 96q-32 -40 -77 -63t-94 -23q-76 0 -119.5 54t-29.5 131q14 78 76 132t138 54q48 0 85.5 -23.5t55.5 -63.5l155 97q-35 73 -105 115.5t-161 42.5q-145 0 -266 -103.5t-147 -250.5q-26 -146 59 -249.5t230 -103.5q91 0 175.5 42.5t144.5 115.5zM586 946h148
l-169 -174h-103z" />
    <glyph glyph-name="cacute" unicode="&#x107;" horiz-adv-x="526" 
d="M235 234q-7 -35 14.5 -61t56.5 -26q55 0 81 38l129 -79q-98 -115 -226 -115q-108 0 -172 67.5t-45 175.5t106.5 176t195.5 68q128 0 185 -115l-153 -84q-16 42 -70 42q-35 0 -65 -26t-37 -61zM446 723h148l-169 -174h-103z" />
    <glyph glyph-name="Ccircumflex" unicode="&#x108;" horiz-adv-x="707" 
d="M587 245l120 -96q-60 -73 -144.5 -115.5t-175.5 -42.5q-145 0 -230 103.5t-59 249.5q26 147 147 250.5t266 103.5q91 0 161 -42.5t105 -115.5l-155 -97q-18 40 -55.5 63.5t-85.5 23.5q-76 0 -138 -54t-76 -132q-14 -77 29.5 -131t119.5 -54q49 0 94 23t77 63zM337 780
l140 173h156l79 -173h-108l-65 89l-95 -89h-107z" />
    <glyph glyph-name="ccircumflex" unicode="&#x109;" horiz-adv-x="526" 
d="M235 234q-7 -35 14.5 -61t56.5 -26q55 0 81 38l129 -79q-98 -115 -226 -115q-108 0 -172 67.5t-45 175.5t106.5 176t195.5 68q128 0 185 -115l-153 -84q-16 42 -70 42q-35 0 -65 -26t-37 -61zM194 557l140 173h156l79 -173h-108l-65 89l-95 -89h-107z" />
    <glyph glyph-name="Cdotaccent" unicode="&#x10a;" horiz-adv-x="707" 
d="M707 149l-120 96q-32 -40 -77 -63t-94 -23q-76 0 -119.5 54t-29.5 131q14 78 76 132t138 54q48 0 85.5 -23.5t55.5 -63.5l155 97q-35 73 -105 115.5t-161 42.5q-145 0 -266 -103.5t-147 -250.5q-26 -146 59 -249.5t230 -103.5q91 0 175.5 42.5t144.5 115.5zM431 870
q7 35 34.5 57.5t62.5 22.5t55.5 -23t13.5 -57q-7 -36 -34.5 -58.5t-62.5 -22.5q-36 0 -56 22.5t-13 58.5z" />
    <glyph glyph-name="cdotaccent" unicode="&#x10b;" horiz-adv-x="526" 
d="M235 234q-7 -35 14.5 -61t56.5 -26q55 0 81 38l129 -79q-98 -115 -226 -115q-108 0 -172 67.5t-45 175.5t106.5 176t195.5 68q128 0 185 -115l-153 -84q-16 42 -70 42q-35 0 -65 -26t-37 -61zM310 647q6 34 34.5 57t63.5 23t54.5 -23t13.5 -57q-6 -36 -33.5 -58.5
t-62.5 -22.5q-36 0 -56 22.5t-14 58.5z" />
    <glyph glyph-name="Ccaron" unicode="&#x10c;" horiz-adv-x="707" 
d="M707 149l-120 96q-32 -40 -77 -63t-94 -23q-76 0 -119.5 54t-29.5 131q14 78 76 132t138 54q48 0 85.5 -23.5t55.5 -63.5l155 97q-35 73 -105 115.5t-161 42.5q-145 0 -266 -103.5t-147 -250.5q-26 -146 59 -249.5t230 -103.5q91 0 175.5 42.5t144.5 115.5zM605 773h-156
l-78 173h107l64 -90l96 90h108z" />
    <glyph glyph-name="ccaron" unicode="&#x10d;" horiz-adv-x="526" 
d="M235 234q-7 -35 14.5 -61t56.5 -26q55 0 81 38l129 -79q-98 -115 -226 -115q-108 0 -172 67.5t-45 175.5t106.5 176t195.5 68q128 0 185 -115l-153 -84q-16 42 -70 42q-35 0 -65 -26t-37 -61zM448 550h-156l-78 173h107l63 -90l97 90h108z" />
    <glyph glyph-name="Dcaron" unicode="&#x10e;" horiz-adv-x="705" 
d="M270 149l70 391h105q69 0 97 -57.5t14 -139.5q-14 -81 -63 -137.5t-118 -56.5h-105zM198 689l-121 -689h273q145 0 245.5 96t127.5 247t-39.5 248.5t-212.5 97.5h-273zM572 750h-156l-78 173h107l64 -90l96 90h108z" />
    <glyph glyph-name="dcaron" unicode="&#x10f;" horiz-adv-x="608" 
d="M728 465l-63 41q42 48 64 92t35 113h128q-47 -164 -164 -246zM515 711l-52 -288q-40 55 -119 55q-91 0 -171 -67.5t-99 -176.5q-19 -108 37.5 -175.5t147.5 -67.5q42 0 83 18.5t67 57.5l-11 -67h150l126 711h-159zM236 233q8 40 41.5 68.5t73.5 28.5t63 -28.5t16 -68.5
q-8 -40 -41.5 -68.5t-73.5 -28.5t-63 28.5t-16 68.5z" />
    <glyph glyph-name="Dcroat" unicode="&#x110;" horiz-adv-x="722" 
d="M417 282h-106l-24 -133h105q69 0 118 56.5t63 137.5q14 82 -14.5 139.5t-97.5 57.5h-105l-27 -157h106zM143 282h-94l18 101h94l54 306h273q146 0 212.5 -97.5t39.5 -248.5t-127.5 -247t-245.5 -96h-273z" />
    <glyph glyph-name="dcroat" unicode="&#x111;" horiz-adv-x="608" 
d="M485 543h-132l15 80h132l15 88h159l-15 -88h66l-15 -80h-66l-96 -543h-150l11 67q-26 -39 -67 -57.5t-83 -18.5q-91 0 -147.5 67.5t-37.5 175.5q19 109 99 176.5t171 67.5q79 0 119 -55zM236 233q-7 -40 16 -68.5t63 -28.5t73.5 28.5t41.5 68.5q7 40 -16 68.5t-63 28.5
t-73.5 -28.5t-41.5 -68.5z" />
    <glyph glyph-name="Emacron" unicode="&#x112;" horiz-adv-x="581" 
d="M533 0h-456l121 689h447l-25 -146h-280l-24 -132h246l-26 -143h-246l-21 -122h289zM566 779h-288l16 87h288z" />
    <glyph glyph-name="emacron" unicode="&#x113;" horiz-adv-x="550" 
d="M523 579h-288l16 87h288zM564 240q-1 -5 -3 -14.5t-5 -21t-4 -15.5h-334q-1 -32 26.5 -51.5t67.5 -19.5q56 0 97 39q9 -8 47.5 -40t47.5 -39q-82 -87 -225 -87q-103 0 -164 68.5t-42 176.5q19 107 103 174.5t188 67.5q103 0 161 -65.5t39 -172.5zM235 278h186
q-3 39 -29 54t-54 15q-16 0 -33 -4t-38.5 -21t-31.5 -44z" />
    <glyph glyph-name="Ebreve" unicode="&#x114;" horiz-adv-x="581" 
d="M77 0h456l25 146h-289l21 122h246l26 143h-246l24 132h280l25 146h-447zM307 896h89q-5 -26 3.5 -38t34.5 -12q45 0 54 50h91q-10 -59 -54.5 -95.5t-104.5 -36.5q-65 0 -93.5 39t-19.5 93z" />
    <glyph glyph-name="ebreve" unicode="&#x115;" horiz-adv-x="550" 
d="M263 696h89q-4 -26 4.5 -38t34.5 -12q46 0 53 50h91q-9 -59 -53.5 -95.5t-104.5 -36.5q-65 0 -93.5 39t-20.5 93zM564 240q19 107 -39 172.5t-161 65.5q-104 0 -188 -67.5t-103 -174.5q-19 -108 42 -176.5t164 -68.5q143 0 225 87q-9 7 -47.5 39t-47.5 40
q-41 -39 -97 -39q-40 0 -67.5 19.5t-26.5 51.5h334q1 4 4 15.5t5 21t3 14.5zM235 278q14 39 44.5 54t58.5 15q16 0 31.5 -4t32.5 -21t19 -44h-186z" />
    <glyph glyph-name="Edotaccent" unicode="&#x116;" horiz-adv-x="581" 
d="M77 0h456l25 146h-289l21 122h246l26 143h-246l24 132h280l25 146h-447zM352 847q6 34 34 57t63 23t55 -23t14 -57q-6 -35 -34.5 -58t-63.5 -23t-54.5 22.5t-13.5 58.5z" />
    <glyph glyph-name="edotaccent" unicode="&#x117;" horiz-adv-x="550" 
d="M308 647q6 34 34.5 57t63.5 23t54.5 -23t13.5 -57q-6 -36 -33.5 -58.5t-62.5 -22.5q-36 0 -56 22.5t-14 58.5zM564 240q19 107 -39 172.5t-161 65.5q-104 0 -188 -67.5t-103 -174.5q-19 -108 42 -176.5t164 -68.5q143 0 225 87q-9 7 -47.5 39t-47.5 40q-41 -39 -97 -39
q-40 0 -67.5 19.5t-26.5 51.5h334q1 4 4 15.5t5 21t3 14.5zM235 278q14 39 44.5 54t58.5 15q16 0 31.5 -4t32.5 -21t19 -44h-186z" />
    <glyph glyph-name="Eogonek" unicode="&#x118;" horiz-adv-x="581" 
d="M558 146l-25 -146l-60 -86q-22 -39 3 -54q20 -13 42 6q17 15 19 43l71 4q-9 -63 -47.5 -96t-84.5 -33q-42 0 -68 30.5t-18 74.5q5 31 21 51l51 60h-385l121 689h447l-25 -146h-280l-24 -132h246l-26 -143h-246l-21 -122h289z" />
    <glyph glyph-name="eogonek" unicode="&#x119;" horiz-adv-x="551" 
d="M281 -9q-103 0 -165 69t-43 176t103 174.5t188 67.5q103 0 161 -65.5t39 -172.5q-1 -5 -3 -14.5t-5 -21t-4 -15.5h-334q-1 -32 26.5 -51.5t67.5 -19.5q56 0 97 39q9 -8 47.5 -40t47.5 -39q-6 -7 -36.5 -33t-59.5 -58.5t-53 -72.5q-22 -39 3 -54q21 -13 42 6q17 15 19 43
l71 4q-8 -63 -47 -96t-85 -33q-42 0 -67.5 30.5t-17.5 74.5q5 31 21 51l46 56q-35 -5 -59 -5zM235 278h186q-3 39 -29 54t-54 15q-16 0 -33 -4t-38.5 -21t-31.5 -44z" />
    <glyph glyph-name="Ecaron" unicode="&#x11a;" horiz-adv-x="581" 
d="M77 0h456l25 146h-289l21 122h246l26 143h-246l24 132h280l25 146h-447zM495 750h-156l-78 173h107l64 -90l96 90h108z" />
    <glyph glyph-name="ecaron" unicode="&#x11b;" horiz-adv-x="550" 
d="M452 550h-156l-78 173h107l64 -90l96 90h108zM564 240q19 107 -39 172.5t-161 65.5q-104 0 -188 -67.5t-103 -174.5q-19 -108 42 -176.5t164 -68.5q143 0 225 87q-9 7 -47.5 39t-47.5 40q-41 -39 -97 -39q-40 0 -67.5 19.5t-26.5 51.5h334q1 4 4 15.5t5 21t3 14.5z
M235 278q14 39 44.5 54t58.5 15q16 0 31.5 -4t32.5 -21t19 -44h-186z" />
    <glyph glyph-name="Gcircumflex" unicode="&#x11c;" horiz-adv-x="756" 
d="M326 757l140 173h156l79 -173h-108l-63 89l-97 -89h-107zM763 576l-143 -105q-44 72 -132 72q-78 0 -142 -58t-79 -141q-14 -82 29 -141.5t121 -59.5q138 0 174 92h-193l24 134h375q-33 -190 -141.5 -284t-264.5 -94q-149 0 -234 103.5t-59 249.5q26 148 147 251t270 103
q82 0 147 -32.5t101 -89.5z" />
    <glyph glyph-name="gcircumflex" unicode="&#x11d;" horiz-adv-x="608" 
d="M235 233q-7 -40 16.5 -68.5t63.5 -28.5t73 28.5t41 68.5q7 40 -16 68.5t-63 28.5t-73.5 -28.5t-41.5 -68.5zM27 -84l144 54q6 -28 31 -45t61 -17q59 0 97.5 38t51.5 112q-48 -67 -154 -67q-91 0 -147.5 67.5t-37.5 175.5q19 109 99.5 176.5t171.5 67.5q37 0 70 -16
t48 -46l9 50h158l-72 -407q-25 -145 -108 -220.5t-212 -75.5q-81 0 -137.5 42.5t-72.5 110.5zM216 557l140 173h156l79 -173h-108l-64 89l-96 -89h-107z" />
    <glyph glyph-name="Gbreve" unicode="&#x11e;" horiz-adv-x="756" 
d="M413 896h89q-5 -26 3.5 -38t34.5 -12q43 0 54 50h91q-11 -59 -55.5 -95.5t-104.5 -36.5q-65 0 -93.5 39t-18.5 93zM763 576q-36 57 -101 89.5t-147 32.5q-149 0 -270 -103t-147 -251q-26 -146 59 -249.5t234 -103.5q156 0 264.5 94t141.5 284h-375l-24 -134h193
q-36 -92 -174 -92q-78 0 -121 59.5t-29 141.5q15 83 79 141t142 58q88 0 132 -72z" />
    <glyph glyph-name="gbreve" unicode="&#x11f;" horiz-adv-x="608" 
d="M235 233q-7 -40 16.5 -68.5t63.5 -28.5t73 28.5t41 68.5q7 40 -16 68.5t-63 28.5t-73.5 -28.5t-41.5 -68.5zM27 -84l144 54q6 -28 31 -45t61 -17q59 0 97.5 38t51.5 112q-48 -67 -154 -67q-91 0 -147.5 67.5t-37.5 175.5q19 109 99.5 176.5t171.5 67.5q37 0 70 -16
t48 -46l9 50h158l-72 -407q-25 -145 -108 -220.5t-212 -75.5q-81 0 -137.5 42.5t-72.5 110.5zM291 696h89q-5 -26 4 -38t35 -12q44 0 53 50h91q-10 -59 -54.5 -95.5t-104.5 -36.5q-65 0 -93.5 39t-19.5 93z" />
    <glyph glyph-name="Gdotaccent" unicode="&#x120;" horiz-adv-x="756" 
d="M448 847q6 34 33.5 57t62.5 23t55.5 -23t14.5 -57q-6 -35 -35 -58t-64 -23t-54 22.5t-13 58.5zM763 576q-36 57 -101 89.5t-147 32.5q-149 0 -270 -103t-147 -251q-26 -146 59 -249.5t234 -103.5q156 0 264.5 94t141.5 284h-375l-24 -134h193q-36 -92 -174 -92
q-78 0 -121 59.5t-29 141.5q15 83 79 141t142 58q88 0 132 -72z" />
    <glyph glyph-name="gdotaccent" unicode="&#x121;" horiz-adv-x="608" 
d="M235 233q-7 -40 16.5 -68.5t63.5 -28.5t73 28.5t41 68.5q7 40 -16 68.5t-63 28.5t-73.5 -28.5t-41.5 -68.5zM27 -84l144 54q6 -28 31 -45t61 -17q59 0 97.5 38t51.5 112q-48 -67 -154 -67q-91 0 -147.5 67.5t-37.5 175.5q19 109 99.5 176.5t171.5 67.5q37 0 70 -16
t48 -46l9 50h158l-72 -407q-25 -145 -108 -220.5t-212 -75.5q-81 0 -137.5 42.5t-72.5 110.5zM336 647q6 34 34 57t63 23t55 -23t14 -57q-6 -35 -34 -58t-63 -23q-36 0 -55.5 22.5t-13.5 58.5z" />
    <glyph glyph-name="Gcommaaccent" unicode="&#x122;" horiz-adv-x="756" 
d="M284 -302l-65 42q42 46 64 90.5t36 113.5h128q-46 -161 -163 -246zM763 576l-143 -105q-44 72 -132 72q-78 0 -142 -58t-79 -141q-14 -82 29 -141.5t121 -59.5q138 0 174 92h-193l24 134h375q-33 -190 -141.5 -284t-264.5 -94q-149 0 -234 103.5t-59 249.5
q26 148 147 251t270 103q82 0 147 -32.5t101 -89.5z" />
    <glyph glyph-name="gcommaaccent" unicode="&#x123;" horiz-adv-x="608" 
d="M235 233q-7 -40 16.5 -68.5t63.5 -28.5t73 28.5t41 68.5q7 40 -16 68.5t-63 28.5t-73.5 -28.5t-41.5 -68.5zM27 -84l144 54q6 -28 31 -45t61 -17q59 0 97.5 38t51.5 112q-48 -67 -154 -67q-91 0 -147.5 67.5t-37.5 175.5q19 109 99.5 176.5t171.5 67.5q37 0 70 -16
t48 -46l9 50h158l-72 -407q-25 -145 -108 -220.5t-212 -75.5q-81 0 -137.5 42.5t-72.5 110.5zM456 777l65 -42q-42 -46 -64 -90.5t-36 -113.5h-128q46 161 163 246z" />
    <glyph glyph-name="Hcircumflex" unicode="&#x124;" horiz-adv-x="701" 
d="M527 417l48 272h170l-121 -689h-170l46 268h-210l-46 -268h-167l121 689h167l-48 -272h210zM296 757l140 173h156l79 -173h-108l-64 89l-96 -89h-107z" />
    <glyph glyph-name="hcircumflex" unicode="&#x125;" horiz-adv-x="590" 
d="M262 245l-43 -245h-159l126 711h159l-57 -318q18 40 63.5 62.5t82.5 22.5q92 0 128.5 -59.5t16.5 -170.5l-43 -248h-159l42 243q7 38 -13.5 59.5t-48.5 21.5q-32 0 -60 -19.5t-35 -59.5zM87 759l140 173h156l79 -173h-108l-64 89l-96 -89h-107z" />
    <glyph glyph-name="Hbar" unicode="&#x126;" horiz-adv-x="716" 
d="M342 510l-17 -93h210l17 93h-210zM84 0l90 510h-73l14 80h73l17 99h168l-17 -99h210l17 99h170l-17 -99h73l-14 -80h-73l-90 -510h-170l47 269h-210l-47 -269h-168z" />
    <glyph glyph-name="hbar" unicode="&#x127;" horiz-adv-x="590" 
d="M60 0l96 543h-72l14 80h72l16 88h159l-16 -88h126l-14 -80h-126l-27 -150q18 40 63.5 62.5t82.5 22.5q92 0 128 -59.5t17 -170.5l-43 -248h-159l42 243q7 38 -13.5 59.5t-48.5 21.5q-32 0 -60 -19.5t-35 -59.5l-43 -245h-159z" />
    <glyph glyph-name="Itilde" unicode="&#x128;" horiz-adv-x="321" 
d="M77 0l121 689h167l-121 -689h-167zM258 797q-8 0 -18.5 -11t-15.5 -32h-75q16 67 51.5 98.5t72.5 31.5q23 0 46.5 -20.5t33.5 -20.5q8 0 18.5 10t14.5 31h75q-14 -66 -50.5 -97t-73.5 -31q-21 0 -45 20.5t-34 20.5z" />
    <glyph glyph-name="itilde" unicode="&#x129;" horiz-adv-x="277" 
d="M142 467h157l-82 -467h-157zM199 597q-7 0 -18 -11t-16 -32h-75q16 67 52 98.5t73 31.5q23 0 46 -20.5t33 -20.5q8 0 18.5 10t15.5 31h75q-15 -66 -51 -97t-73 -31q-21 0 -46 20.5t-34 20.5z" />
    <glyph glyph-name="Imacron" unicode="&#x12a;" horiz-adv-x="321" 
d="M77 0l121 689h167l-121 -689h-167zM442 779h-288l16 87h288z" />
    <glyph glyph-name="imacron" unicode="&#x12b;" horiz-adv-x="277" 
d="M142 467h157l-82 -467h-157zM384 579h-288l15 87h288z" />
    <glyph glyph-name="Ibreve" unicode="&#x12c;" horiz-adv-x="321" 
d="M198 689l-121 -689h167l121 689h-167zM183 896h89q-5 -26 3.5 -38t34.5 -12q45 0 54 50h91q-10 -59 -54.5 -95.5t-104.5 -36.5q-65 0 -93.5 39t-19.5 93z" />
    <glyph glyph-name="ibreve" unicode="&#x12d;" horiz-adv-x="277" 
d="M299 467h-157l-82 -467h157zM124 696h89q-5 -26 4 -38t35 -12q44 0 53 50h91q-10 -59 -54.5 -95.5t-104.5 -36.5q-65 0 -93.5 39t-19.5 93z" />
    <glyph glyph-name="Iogonek" unicode="&#x12e;" horiz-adv-x="321" 
d="M173 0h-96l121 689h167l-121 -689l-62 -96q-22 -39 3 -54q20 -13 42 6q17 15 19 43l71 4q-9 -63 -48 -96t-85 -33q-42 0 -66.5 30.5t-17.5 74.5q5 31 20 51z" />
    <glyph glyph-name="iogonek" unicode="&#x12f;" horiz-adv-x="279" 
d="M152 621q7 38 40 64t73 26t62.5 -26t15.5 -64t-39 -64.5t-72 -26.5q-39 0 -63 27t-17 64zM148 0h-88l82 466h159l-82 -466h-1l-61 -96q-22 -39 3 -54q20 -13 42 6q17 15 19 43l71 4q-9 -63 -48 -96t-85 -33q-42 0 -66.5 30.5t-17.5 74.5q5 31 20 51z" />
    <glyph glyph-name="Idotaccent" unicode="&#x130;" horiz-adv-x="321" 
d="M198 689l-121 -689h167l121 689h-167zM228 847q6 34 34 57t63 23t55 -23t14 -57q-6 -35 -34.5 -58t-63.5 -23t-54.5 22.5t-13.5 58.5z" />
    <glyph glyph-name="dotlessi" unicode="&#x131;" horiz-adv-x="279" 
d="M60 0l82 466h159l-82 -466h-159z" />
    <glyph glyph-name="IJ" unicode="&#x132;" horiz-adv-x="644" 
d="M77 0l121 689h167l-121 -689h-167zM186 -211l42 150q31 -12 93 -12t77 80l121 682h168l-120 -682q-19 -105 -86.5 -171t-186.5 -66q-56 0 -108 19z" />
    <glyph glyph-name="ij" unicode="&#x133;" horiz-adv-x="558" 
d="M142 466l-82 -466h159l82 466h-159zM152 621q7 38 40 64t73 26t62.5 -26t15.5 -64t-39 -64.5t-72 -26.5q-39 0 -63 27t-17 64zM171 -237l27 151h60q30 0 51.5 19.5t27.5 57.5l2 17l82 458h159l-82 -458l-2 -17q-15 -111 -87 -169.5t-178 -58.5h-60zM432 621q7 38 40 64
t73 26t62.5 -26t15.5 -64t-39 -64.5t-72 -26.5q-39 0 -63 27t-17 64z" />
    <glyph glyph-name="Jcircumflex" unicode="&#x134;" horiz-adv-x="323" 
d="M-133 -211l42 150q32 -12 93 -12q60 0 75 80l121 682h169l-120 -682q-19 -105 -86.5 -171t-185.5 -66q-56 0 -108 19zM110 757l140 173h156l79 -173h-108l-63 89l-97 -89h-107z" />
    <glyph glyph-name="jcircumflex" unicode="&#x135;" horiz-adv-x="279" 
d="M-106 -237l26 151h60q28 0 49.5 19.5t27.5 57.5l3 17l82 458h159l-82 -458l-2 -17q-15 -111 -86.5 -169.5t-176.5 -58.5h-60zM61 557l140 173h156l79 -173h-108l-64 89l-96 -89h-107z" />
    <glyph glyph-name="Kcommaaccent" unicode="&#x136;" horiz-adv-x="633" 
d="M392 349l261 -349h-229l-144 210l-36 -210h-167l121 689h167l-35 -197l172 197h209zM251 -302l-64 42q42 47 64 91.5t35 112.5h128q-47 -163 -163 -246z" />
    <glyph glyph-name="kcommaaccent" unicode="&#x137;" horiz-adv-x="538" 
d="M352 0l-104 168l-29 -168h-159l126 711h159l-64 -358l111 113h195l-209 -207l164 -259h-190zM170 -302l-64 42q42 47 64 91.5t35 112.5h128q-47 -163 -163 -246z" />
    <glyph glyph-name="kgreenlandic" unicode="&#x138;" horiz-adv-x="517" 
d="M520 0h-203l-76 146l-25 -146h-156l82 467h156l-23 -130l111 130h180l-211 -230z" />
    <glyph glyph-name="Lacute" unicode="&#x139;" horiz-adv-x="518" 
d="M77 0h417l25 146h-248l96 543h-169zM334 923h148l-169 -174h-103z" />
    <glyph glyph-name="lacute" unicode="&#x13a;" horiz-adv-x="279" 
d="M186 711l-126 -711h159l126 711h-159zM327 923h148l-169 -174h-103z" />
    <glyph glyph-name="Lcommaaccent" unicode="&#x13b;" horiz-adv-x="518" 
d="M494 0h-417l121 689h169l-96 -543h248zM169 -302l-64 42q42 47 64 91.5t35 112.5h128q-47 -163 -163 -246z" />
    <glyph glyph-name="lcommaaccent" unicode="&#x13c;" horiz-adv-x="279" 
d="M60 0l126 711h159l-126 -711h-159zM35 -302l-63 42q41 47 62.5 91.5t34.5 112.5h128q-45 -161 -162 -246z" />
    <glyph glyph-name="Lcaron" unicode="&#x13d;" horiz-adv-x="527" 
d="M494 0h-417l121 689h169l-96 -543h248zM477 446l-55 38q42 48 64 92.5t35 112.5h116q-45 -161 -160 -243z" />
    <glyph glyph-name="lcaron" unicode="&#x13e;" horiz-adv-x="279" 
d="M60 0l126 711h159l-126 -711h-159zM390 468l-55 38q42 48 64 92.5t36 112.5h116q-44 -158 -161 -243z" />
    <glyph glyph-name="Ldot" unicode="&#x13f;" horiz-adv-x="519" 
d="M494 0h-417l121 689h169l-96 -543h248zM342 296q7 39 39 65t72 26q39 0 62 -26t16 -65q-7 -40 -39.5 -66t-71.5 -26q-40 0 -62.5 26t-15.5 66z" />
    <glyph glyph-name="ldot" unicode="&#x140;" horiz-adv-x="508" 
d="M60 0l126 711h159l-126 -711h-159zM350 296q7 39 39 65t72 26q39 0 62 -26t16 -65q-7 -40 -39.5 -66t-71.5 -26q-40 0 -62.5 26t-15.5 66z" />
    <glyph glyph-name="Lslash" unicode="&#x141;" horiz-adv-x="527" 
d="M503 0h-417l46 265l-83 -46l16 93l84 46l58 331h169l-40 -226l110 62l-17 -93l-110 -62l-39 -224h248z" />
    <glyph glyph-name="lslash" unicode="&#x142;" horiz-adv-x="346" 
d="M156 276l-102 -57l16 93l102 57l57 320h167l-38 -216l93 52l-17 -93l-93 -52l-66 -380h-167z" />
    <glyph glyph-name="Nacute" unicode="&#x143;" horiz-adv-x="678" 
d="M722 689h-167l-66 -371l-140 371h-151l-121 -689h167l65 376l146 -376h146zM526 923h148l-169 -174h-103z" />
    <glyph glyph-name="nacute" unicode="&#x144;" horiz-adv-x="590" 
d="M262 245l-43 -245h-159l82 466h159l-13 -73q18 40 63.5 62.5t82.5 22.5q92 0 128 -59.5t17 -170.5l-43 -248h-159l42 243q7 42 -12.5 61.5t-49.5 19.5q-32 0 -60 -19t-35 -60zM433 723h148l-169 -174h-103z" />
    <glyph glyph-name="Ncommaaccent" unicode="&#x145;" horiz-adv-x="678" 
d="M555 689h167l-121 -689h-146l-146 376l-65 -376h-167l121 689h151l140 -371zM260 -302l-64 42q42 47 64 91.5t35 112.5h128q-47 -163 -163 -246z" />
    <glyph glyph-name="ncommaaccent" unicode="&#x146;" horiz-adv-x="590" 
d="M262 245l-43 -245h-159l82 466h159l-13 -73q18 40 63.5 62.5t82.5 22.5q92 0 128 -59.5t17 -170.5l-43 -248h-159l42 243q7 42 -12.5 61.5t-49.5 19.5q-32 0 -60 -19t-35 -60zM194 -302l-64 42q42 47 64 91.5t35 112.5h128q-47 -163 -163 -246z" />
    <glyph glyph-name="Ncaron" unicode="&#x147;" horiz-adv-x="678" 
d="M722 689h-167l-66 -371l-140 371h-151l-121 -689h167l65 376l146 -376h146zM548 750h-156l-78 173h107l64 -90l96 90h108z" />
    <glyph glyph-name="ncaron" unicode="&#x148;" horiz-adv-x="590" 
d="M262 245l-43 -245h-159l82 466h159l-13 -73q18 40 63.5 62.5t82.5 22.5q92 0 128 -59.5t17 -170.5l-43 -248h-159l42 243q7 42 -12.5 61.5t-49.5 19.5q-32 0 -60 -19t-35 -60zM469 550h-156l-78 173h107l64 -90l96 90h108z" />
    <glyph glyph-name="napostrophe" unicode="&#x149;" horiz-adv-x="645" 
d="M316 245l-42 -245h-159l81 466h159l-12 -73q18 40 63 62.5t82 22.5q92 0 129 -60t17 -170l-44 -248h-159l42 243q7 42 -12 61.5t-49 19.5q-32 0 -60.5 -19t-35.5 -60zM86 452l-65 42q41 47 63 91.5t35 112.5h128q-45 -160 -161 -246z" />
    <glyph glyph-name="Eng" unicode="&#x14a;" horiz-adv-x="678" 
d="M445 7l2 11l-138 358l-65 -376h-167l121 689h151l140 -371l66 371h167l-121 -689q-21 -103 -88.5 -166.5t-184.5 -63.5q-56 0 -108 19l39 140q32 -12 94 -12q32 0 59 27.5t33 62.5z" />
    <glyph glyph-name="eng" unicode="&#x14b;" horiz-adv-x="590" 
d="M378 8l42 235q7 42 -13 61.5t-50 19.5q-32 0 -60 -19t-35 -60l-43 -245h-159l82 466h159l-13 -73q18 40 63.5 62.5t82.5 22.5q92 0 128 -59.5t17 -170.5l-43 -248q-21 -103 -88.5 -166.5t-184.5 -63.5q-56 0 -108 19l37 129q33 -12 95 -12q34 0 58.5 27.5t32.5 74.5z" />
    <glyph glyph-name="Omacron" unicode="&#x14c;" horiz-adv-x="779" 
d="M98 344q26 147 147 250.5t266 103.5q147 0 231.5 -103.5t58.5 -250.5q-26 -146 -146.5 -249.5t-267.5 -103.5q-145 0 -230 103.5t-59 249.5zM267 344q-14 -77 29.5 -131t119.5 -54t139.5 54t77.5 131t-30.5 131.5t-121.5 54.5q-76 0 -138 -54t-76 -132zM670 779h-288
l16 87h288z" />
    <glyph glyph-name="omacron" unicode="&#x14d;" horiz-adv-x="563" 
d="M278 -9q-102 0 -163 68t-42 175q20 108 104.5 176t185.5 68q103 0 165 -68t42 -176q-19 -107 -104 -175t-188 -68zM223 234q-7 -40 16.5 -68.5t63.5 -28.5t73 28.5t41 68.5q7 40 -16 68.5t-63 28.5t-73.5 -28.5t-41.5 -68.5zM526 579h-288l16 87h288z" />
    <glyph glyph-name="Obreve" unicode="&#x14e;" horiz-adv-x="779" 
d="M98 344q-26 -146 59 -249.5t230 -103.5q147 0 267.5 103.5t146.5 249.5q26 147 -58.5 250.5t-231.5 103.5q-145 0 -266 -103.5t-147 -250.5zM267 344q14 78 76 132t138 54q77 0 121.5 -54.5t30.5 -131.5t-77.5 -131t-139.5 -54t-119.5 54t-29.5 131zM411 896h89
q-5 -26 3.5 -38t34.5 -12q43 0 54 50h91q-11 -59 -55.5 -95.5t-104.5 -36.5q-65 0 -93.5 39t-18.5 93z" />
    <glyph glyph-name="obreve" unicode="&#x14f;" horiz-adv-x="563" 
d="M278 -9q103 0 188 68t104 175q20 108 -42 176t-165 68q-101 0 -185.5 -68t-104.5 -176q-19 -107 42 -175t163 -68zM223 234q8 40 41.5 68.5t73.5 28.5t63 -28.5t16 -68.5q-8 -40 -41 -68.5t-73 -28.5t-63.5 28.5t-16.5 68.5zM266 696h89q-4 -26 4.5 -38t34.5 -12
q46 0 53 50h91q-9 -59 -53.5 -95.5t-104.5 -36.5q-65 0 -93.5 39t-20.5 93z" />
    <glyph glyph-name="Ohungarumlaut" unicode="&#x150;" horiz-adv-x="779" 
d="M98 344q-26 -146 59 -249.5t230 -103.5q147 0 267.5 103.5t146.5 249.5q26 147 -58.5 250.5t-231.5 103.5q-145 0 -266 -103.5t-147 -250.5zM267 344q14 78 76 132t138 54q77 0 121.5 -54.5t30.5 -131.5t-77.5 -131t-139.5 -54t-119.5 54t-29.5 131zM516 920h105
l-136 -173h-93zM673 920h108l-146 -173h-100z" />
    <glyph glyph-name="ohungarumlaut" unicode="&#x151;" horiz-adv-x="563" 
d="M278 -9q103 0 188 68t104 175q20 108 -42 176t-165 68q-101 0 -185.5 -68t-104.5 -176q-19 -107 42 -175t163 -68zM223 234q8 40 41.5 68.5t73.5 28.5t63 -28.5t16 -68.5q-8 -40 -41 -68.5t-73 -28.5t-63.5 28.5t-16.5 68.5zM380 720h105l-136 -173h-93zM537 720h108
l-146 -173h-100z" />
    <glyph glyph-name="OE" unicode="&#x152;" horiz-adv-x="1078" 
d="M1030 0h-456l7 43q-96 -52 -194 -52q-145 0 -230 103.5t-59 249.5q26 147 147 250.5t266 103.5q101 0 176 -53l8 44h447l-26 -146h-280l-24 -132h246l-25 -143h-246l-21 -122h289zM267 344q-14 -77 29.5 -131t119.5 -54t139.5 54t77.5 131t-30.5 131.5t-121.5 54.5
q-76 0 -138 -54t-76 -132z" />
    <glyph glyph-name="oe" unicode="&#x153;" horiz-adv-x="896" 
d="M910 240q-1 -5 -3 -14.5t-5 -21t-4 -15.5h-334q-1 -32 26.5 -51.5t67.5 -19.5q56 0 97 39q9 -8 47.5 -40t47.5 -39q-82 -87 -225 -87q-104 0 -161 66q-86 -66 -186 -66q-102 0 -163 68t-42 175q20 108 104.5 176t185.5 68q104 0 161 -65q86 65 186 65q103 0 161 -65.5
t39 -172.5zM223 234q-7 -40 16.5 -68.5t63.5 -28.5t73 28.5t41 68.5q7 40 -16 68.5t-63 28.5t-73.5 -28.5t-41.5 -68.5zM581 278h186q-3 39 -29 54t-54 15q-16 0 -33 -4t-38.5 -21t-31.5 -44z" />
    <glyph glyph-name="Racute" unicode="&#x154;" horiz-adv-x="642" 
d="M77 0h167l39 230h15l109 -230h194l-127 238q84 20 137 81.5t67 139.5q17 94 -32 162t-163 68h-285zM450 543q38 0 52 -24.5t7 -59.5t-29.5 -60t-60.5 -25h-110l31 169h110zM476 923h148l-169 -174h-103z" />
    <glyph glyph-name="racute" unicode="&#x155;" horiz-adv-x="429" 
d="M291 723h148l-169 -174h-103zM245 153q18 99 48.5 136.5t79.5 37.5q39 0 70 -12l65 150q-25 13 -66 13q-49 0 -95.5 -32t-74.5 -95l21 115h-151l-82 -466h159z" />
    <glyph glyph-name="Rcommaaccent" unicode="&#x156;" horiz-adv-x="642" 
d="M244 0h-167l121 689h285q114 0 163 -68t32 -162q-14 -78 -67 -139.5t-137 -81.5l127 -238h-194l-109 230h-15zM450 543h-110l-31 -169h110q38 0 60.5 25t29.5 60t-7 59.5t-52 24.5zM220 -302l-64 42q42 47 64 91.5t35 112.5h128q-47 -163 -163 -246z" />
    <glyph glyph-name="rcommaaccent" unicode="&#x157;" horiz-adv-x="429" 
d="M31 -302l-63 42q41 47 62.5 91.5t34.5 112.5h128q-45 -161 -162 -246zM246 153l-27 -153h-159l82 466h151l-21 -115q29 63 75.5 95t94.5 32q41 0 66 -13l-65 -150q-30 12 -69 12q-49 0 -80 -37.5t-48 -136.5z" />
    <glyph glyph-name="Rcaron" unicode="&#x158;" horiz-adv-x="642" 
d="M77 0h167l39 230h15l109 -230h194l-127 238q84 20 137 81.5t67 139.5q17 94 -32 162t-163 68h-285zM450 543q38 0 52 -24.5t7 -59.5t-29.5 -60t-60.5 -25h-110l31 169h110zM523 750h-156l-78 173h107l64 -90l96 90h108z" />
    <glyph glyph-name="rcaron" unicode="&#x159;" horiz-adv-x="429" 
d="M390 550h-156l-78 173h107l64 -90l96 90h108zM245 153q18 99 48.5 136.5t79.5 37.5q39 0 70 -12l65 150q-25 13 -66 13q-49 0 -95.5 -32t-74.5 -95l21 115h-151l-82 -466h159z" />
    <glyph glyph-name="Sacute" unicode="&#x15a;" horiz-adv-x="586" 
d="M76 205q-18 -97 41 -155.5t175 -58.5q63 0 121.5 19.5t108 69t62.5 121.5q28 151 -154 210l-74 25q-60 19 -54 56q5 25 27 40t56 15q70 0 60 -64h167q18 100 -38 157.5t-161 57.5t-183.5 -58.5t-94.5 -152.5q-7 -23 -2.5 -52.5t16 -57t45.5 -53t86 -40.5l75 -27
q29 -11 43.5 -23t16 -19t-0.5 -15q-5 -30 -33 -46t-63 -16q-41 0 -59 18.5t-14 48.5h-169zM469 923h148l-169 -174h-103z" />
    <glyph glyph-name="sacute" unicode="&#x15b;" horiz-adv-x="481" 
d="M399 723h148l-169 -174h-103zM272 166l-56 16q-39 11 -65 28.5t-37.5 33t-15 37.5t-2.5 32t4 26q9 53 73.5 96t141.5 43q85 0 138 -39t37 -122h-149q7 42 -39 42q-40 0 -44 -26q-4 -22 29 -30l80 -23q40 -12 65 -32t31.5 -39.5t9.5 -39.5t-2 -30q-13 -72 -83 -110
t-153 -38q-80 0 -133.5 44.5t-40.5 120.5h149q-4 -17 7 -32.5t38 -15.5q20 0 35.5 8.5t18.5 22.5q2 10 -5 15t-32 12z" />
    <glyph glyph-name="Scircumflex" unicode="&#x15c;" horiz-adv-x="586" 
d="M76 205h169q-4 -30 14 -48.5t59 -18.5q35 0 63 16t33 46q2 8 0.5 15t-16 19t-43.5 23l-75 27q-52 15 -86 40.5t-45.5 53t-16 57t2.5 52.5q16 94 94.5 152.5t183.5 58.5t161 -57.5t38 -157.5h-167q10 64 -60 64q-34 0 -56 -15t-27 -40q-6 -37 54 -56l74 -25
q182 -59 154 -210q-13 -72 -62.5 -121.5t-108 -69t-121.5 -19.5q-116 0 -175 58.5t-41 155.5zM240 757l140 173h156l79 -173h-108l-63 89l-97 -89h-107z" />
    <glyph glyph-name="scircumflex" unicode="&#x15d;" horiz-adv-x="481" 
d="M152 557l140 173h156l79 -173h-108l-64 89l-96 -89h-107zM272 166l-56 16q-39 11 -65 28.5t-37.5 33t-15 37.5t-2.5 32t4 26q9 53 73.5 96t141.5 43q85 0 138 -39t37 -122h-149q7 42 -39 42q-40 0 -44 -26q-4 -22 29 -30l80 -23q40 -12 65 -32t31.5 -39.5t9.5 -39.5
t-2 -30q-13 -72 -83 -110t-153 -38q-80 0 -133.5 44.5t-40.5 120.5h149q-4 -17 7 -32.5t38 -15.5q20 0 35.5 8.5t18.5 22.5q2 10 -5 15t-32 12z" />
    <glyph glyph-name="Scedilla" unicode="&#x15e;" horiz-adv-x="587" 
d="M308 -86l-25 77q-112 3 -168 60.5t-39 153.5h169q-4 -30 14 -48.5t59 -18.5q35 0 63 16t33 46q2 8 0.5 15t-16 19t-43.5 23l-75 27q-52 15 -86 40.5t-45.5 53t-16 57t2.5 52.5q16 94 94.5 152.5t183.5 58.5t161 -57.5t38 -157.5h-167q10 64 -60 64q-34 0 -56 -15t-27 -40
q-6 -36 54 -56l75 -25q180 -61 153 -210q-16 -88 -81.5 -139.5t-150.5 -65.5l27 -56q7 -16 2 -51q-8 -44 -44 -74.5t-78 -30.5q-46 0 -72.5 33t-13.5 96l69 -4q-12 -41 15 -52q23 -8 41 13q15 17 10 44z" />
    <glyph glyph-name="scedilla" unicode="&#x15f;" horiz-adv-x="483" 
d="M282 -6l27 -54q6 -19 1 -51q-8 -44 -44 -74.5t-78 -30.5q-46 0 -72.5 33t-13.5 96l69 -4q-12 -42 16 -52q22 -8 40 13q14 17 9 44l-24 78q-72 6 -117 50t-33 114h149q-4 -18 7 -33t38 -15q20 0 36 8.5t19 22.5q2 10 -5 15t-32 12l-57 16q-39 11 -65 28.5t-37 33
t-14.5 37.5t-2.5 32t4 26q9 54 73 96.5t141 42.5q85 0 138 -39t37 -122h-149q7 42 -39 42q-40 0 -44 -26q-4 -22 29 -30l80 -23q40 -12 65 -32t31.5 -39.5t10 -39.5t-1.5 -30q-11 -61 -65 -98t-126 -47z" />
    <glyph glyph-name="Scaron" unicode="&#x160;" horiz-adv-x="586" 
d="M76 205q-18 -97 41 -155.5t175 -58.5q63 0 121.5 19.5t108 69t62.5 121.5q28 151 -154 210l-74 25q-60 19 -54 56q5 25 27 40t56 15q70 0 60 -64h167q18 100 -38 157.5t-161 57.5t-183.5 -58.5t-94.5 -152.5q-7 -23 -2.5 -52.5t16 -57t45.5 -53t86 -40.5l75 -27
q29 -11 43.5 -23t16 -19t-0.5 -15q-5 -30 -33 -46t-63 -16q-41 0 -59 18.5t-14 48.5h-169zM504 750h-156l-78 173h107l65 -90l95 90h108z" />
    <glyph glyph-name="scaron" unicode="&#x161;" horiz-adv-x="481" 
d="M415 550h-156l-78 173h107l64 -90l96 90h108zM272 166l-56 16q-39 11 -65 28.5t-37.5 33t-15 37.5t-2.5 32t4 26q9 53 73.5 96t141.5 43q85 0 138 -39t37 -122h-149q7 42 -39 42q-40 0 -44 -26q-4 -22 29 -30l80 -23q40 -12 65 -32t31.5 -39.5t9.5 -39.5t-2 -30
q-13 -72 -83 -110t-153 -38q-80 0 -133.5 44.5t-40.5 120.5h149q-4 -17 7 -32.5t38 -15.5q20 0 35.5 8.5t18.5 22.5q2 10 -5 15t-32 12z" />
    <glyph glyph-name="Tcommaaccent" unicode="&#x162;" horiz-adv-x="577" 
d="M301 543h-178l25 146h523l-25 -146h-178l-96 -543h-167zM174 -302l-65 42q42 47 64 91t35 113h128q-45 -161 -162 -246z" />
    <glyph glyph-name="tcommaaccent" unicode="&#x163;" horiz-adv-x="378" 
d="M373 633l-29 -167h98l-21 -117h-98l-61 -349h-157l61 349h-85l21 117h85l29 167h157zM71 -302l-64 42q41 47 63 91.5t35 112.5h128q-45 -161 -162 -246z" />
    <glyph glyph-name="Tcaron" unicode="&#x164;" horiz-adv-x="577" 
d="M123 543h178l-96 -543h167l96 543h178l25 146h-523zM498 750h-156l-78 173h107l65 -90l95 90h108z" />
    <glyph glyph-name="tcaron" unicode="&#x165;" horiz-adv-x="378" 
d="M468 523l-55 38q42 48 63.5 92t35.5 113h116q-43 -158 -160 -243zM344 466l29 167h-157l-29 -167h-85l-21 -117h85l-61 -349h157l61 349h98l21 117h-98z" />
    <glyph glyph-name="Tbar" unicode="&#x166;" horiz-adv-x="577" 
d="M256 283h-95l12 75h95l33 185h-178l25 146h523l-25 -146h-178l-33 -185h95l-12 -75h-95l-51 -283h-167z" />
    <glyph glyph-name="tbar" unicode="&#x167;" horiz-adv-x="378" 
d="M134 174h-54l14 75h54l18 100h-85l21 117h85l29 167h157l-29 -167h98l-21 -117h-98l-18 -100h60l-14 -75h-60l-29 -174h-157z" />
    <glyph glyph-name="Utilde" unicode="&#x168;" horiz-adv-x="682" 
d="M339 -9q-112 0 -179.5 72.5t-47.5 187.5l77 438h168l-77 -438q-8 -45 18.5 -74t67.5 -29t77.5 29t44.5 74l77 438h168l-77 -438q-20 -116 -113 -188t-204 -72zM438 797q-7 0 -18.5 -11t-16.5 -32h-75q16 67 51.5 98.5t72.5 31.5q23 0 47 -20.5t34 -20.5q8 0 18.5 10
t13.5 31h75q-14 -66 -50.5 -97t-73.5 -31q-22 0 -45 20.5t-33 20.5z" />
    <glyph glyph-name="utilde" unicode="&#x169;" horiz-adv-x="590" 
d="M363 597q-8 0 -18.5 -11t-14.5 -32h-75q15 67 51 98.5t73 31.5q23 0 46 -20.5t33 -20.5q8 0 18.5 10t15.5 31h75q-15 -67 -50.5 -97.5t-72.5 -30.5q-22 0 -47 20.5t-34 20.5zM409 221l44 245h159l-82 -466h-159l12 73q-18 -40 -62.5 -61t-82.5 -21q-92 0 -128.5 59.5
t-16.5 170.5l43 245h160l-43 -240q-7 -42 12 -61.5t49 -19.5q33 0 61 17.5t34 58.5z" />
    <glyph glyph-name="Umacron" unicode="&#x16a;" horiz-adv-x="682" 
d="M339 -9q-112 0 -179.5 72.5t-47.5 187.5l77 438h168l-77 -438q-8 -45 18.5 -74t67.5 -29t77.5 29t44.5 74l77 438h168l-77 -438q-20 -116 -113 -188t-204 -72zM622 779h-288l15 87h288z" />
    <glyph glyph-name="umacron" unicode="&#x16b;" horiz-adv-x="590" 
d="M548 579h-288l16 87h288zM409 221l44 245h159l-82 -466h-159l12 73q-18 -40 -62.5 -61t-82.5 -21q-92 0 -128.5 59.5t-16.5 170.5l43 245h160l-43 -240q-7 -42 12 -61.5t49 -19.5q33 0 61 17.5t34 58.5z" />
    <glyph glyph-name="Ubreve" unicode="&#x16c;" horiz-adv-x="682" 
d="M339 -9q111 0 204 72t113 188l77 438h-168l-77 -438q-8 -45 -44.5 -74t-77.5 -29t-67.5 29t-18.5 74l77 438h-168l-77 -438q-20 -115 47.5 -187.5t179.5 -72.5zM363 896h89q-5 -26 3.5 -38t34.5 -12q43 0 54 50h91q-11 -59 -55.5 -95.5t-104.5 -36.5q-65 0 -93.5 39
t-18.5 93z" />
    <glyph glyph-name="ubreve" unicode="&#x16d;" horiz-adv-x="590" 
d="M288 696h89q-4 -26 4.5 -38t34.5 -12q46 0 53 50h91q-9 -59 -54 -95.5t-105 -36.5q-65 0 -93.5 39t-19.5 93zM409 221l44 245h159l-82 -466h-159l12 73q-18 -40 -62.5 -61t-82.5 -21q-92 0 -128.5 59.5t-16.5 170.5l43 245h160l-43 -240q-7 -42 12 -61.5t49 -19.5
q33 0 61 17.5t34 58.5z" />
    <glyph glyph-name="Uring" unicode="&#x16e;" horiz-adv-x="682" 
d="M339 -9q111 0 204 72t113 188l77 438h-168l-77 -438q-8 -45 -44.5 -74t-77.5 -29t-67.5 29t-18.5 74l77 438h-168l-77 -438q-20 -115 47.5 -187.5t179.5 -72.5zM368 873q9 54 52 91.5t96 37.5q54 0 84.5 -37.5t21.5 -91.5q-9 -53 -53 -90t-98 -37q-52 0 -82 37t-21 90z
M430 873q-5 -28 10 -46.5t42 -18.5q28 0 51 18.5t28 46.5t-11 48t-44 20q-27 0 -49 -19.5t-27 -48.5z" />
    <glyph glyph-name="uring" unicode="&#x16f;" horiz-adv-x="590" 
d="M294 673q10 54 53 91.5t96 37.5q54 0 84.5 -37.5t20.5 -91.5q-10 -53 -53 -90t-97 -37q-53 0 -83.5 37t-20.5 90zM356 673q-5 -28 10.5 -46.5t42.5 -18.5q28 0 50.5 18.5t27.5 46.5t-11 48t-44 20q-27 0 -49 -19.5t-27 -48.5zM409 221l44 245h159l-82 -466h-159l12 73
q-18 -40 -62.5 -61t-82.5 -21q-92 0 -128.5 59.5t-16.5 170.5l43 245h160l-43 -240q-7 -42 12 -61.5t49 -19.5q33 0 61 17.5t34 58.5z" />
    <glyph glyph-name="Uhungarumlaut" unicode="&#x170;" horiz-adv-x="682" 
d="M339 -9q111 0 204 72t113 188l77 438h-168l-77 -438q-8 -45 -44.5 -74t-77.5 -29t-67.5 29t-18.5 74l77 438h-168l-77 -438q-20 -115 47.5 -187.5t179.5 -72.5zM453 920h105l-136 -173h-93zM610 920h108l-146 -173h-100z" />
    <glyph glyph-name="uhungarumlaut" unicode="&#x171;" horiz-adv-x="590" 
d="M371 720h105l-136 -173h-93zM528 720h108l-146 -173h-100zM409 221l44 245h159l-82 -466h-159l12 73q-18 -40 -62.5 -61t-82.5 -21q-92 0 -128.5 59.5t-16.5 170.5l43 245h160l-43 -240q-7 -42 12 -61.5t49 -19.5q33 0 61 17.5t34 58.5z" />
    <glyph glyph-name="Uogonek" unicode="&#x172;" horiz-adv-x="684" 
d="M377 -6l-54 -80q-21 -39 4 -54q21 -13 42 7q16 15 18 42l71 4q-8 -63 -46.5 -96t-84.5 -33q-42 0 -68 30.5t-18 74.5q5 31 21 51l43 53q-98 12 -154 82t-38 176l78 438h167l-77 -438q-8 -45 18.5 -74t67.5 -29t77.5 29t44.5 74l77 438h168l-77 -438q-19 -105 -99 -175
t-181 -82z" />
    <glyph glyph-name="uogonek" unicode="&#x173;" horiz-adv-x="590" 
d="M471 -86q-22 -39 3 -54q20 -13 42 6q17 15 19 43l71 4q-9 -63 -47.5 -96t-84.5 -33q-42 0 -68 30.5t-18 74.5q4 29 21 51l50 60h-88l12 73q-18 -40 -62.5 -61t-82.5 -21q-93 0 -129.5 58.5t-16.5 168.5l44 248h159l-43 -243q-7 -42 12.5 -60t49.5 -18q33 0 61 17.5
t35 58.5l43 245h159l-82 -466z" />
    <glyph glyph-name="Wcircumflex" unicode="&#x174;" horiz-adv-x="883" 
d="M615 590l25 -293l189 392h182l-355 -689h-129l-28 335l-143 -335h-130l-111 689h181l50 -392l130 293h139zM387 757l140 173h156l79 -173h-108l-64 89l-96 -89h-107z" />
    <glyph glyph-name="wcircumflex" unicode="&#x175;" horiz-adv-x="759" 
d="M664 466h170l-242 -466h-135l-29 279l-123 -279h-135l-83 466h170l24 -257l117 257h125l25 -257zM289 557l140 173h156l79 -173h-108l-64 89l-96 -89h-107z" />
    <glyph glyph-name="Ycircumflex" unicode="&#x176;" horiz-adv-x="663" 
d="M415 0h-168l54 310l-202 379h199l109 -250l200 250h198l-336 -382zM276 757l140 173h156l79 -173h-108l-64 89l-96 -89h-107z" />
    <glyph glyph-name="ycircumflex" unicode="&#x177;" horiz-adv-x="518" 
d="M430 466h169l-411 -696h-167l168 292l-111 404h174l51 -226zM170 557l140 173h156l79 -173h-108l-64 89l-96 -89h-107z" />
    <glyph glyph-name="Ydieresis" unicode="&#x178;" horiz-adv-x="663" 
d="M415 0h-168l54 310l-202 379h199l109 -250l200 250h198l-336 -382zM310 841q5 30 31.5 51t58.5 21q31 0 49 -21t13 -51q-5 -31 -30.5 -52t-57.5 -21t-50.5 21t-13.5 52zM498 841q5 30 32 51t59 21q31 0 48.5 -21t12.5 -51q-5 -31 -30.5 -52t-56.5 -21q-32 0 -51 21
t-14 52z" />
    <glyph glyph-name="Zacute" unicode="&#x179;" horiz-adv-x="602" 
d="M62 123l370 421h-282l25 145h501l-21 -123l-374 -420h299l-25 -146h-514zM496 923h148l-169 -174h-103z" />
    <glyph glyph-name="zacute" unicode="&#x17a;" horiz-adv-x="512" 
d="M135 466l-26 -144h184l-233 -208l-20 -114h425l24 144h-200l237 206l21 116h-412zM412 723h148l-169 -174h-103z" />
    <glyph glyph-name="Zdotaccent" unicode="&#x17b;" horiz-adv-x="602" 
d="M62 123l370 421h-282l25 145h501l-21 -123l-374 -420h299l-25 -146h-514zM365 847q6 34 34 57t63 23t55 -23t14 -57q-6 -35 -34.5 -58t-63.5 -23t-54.5 22.5t-13.5 58.5z" />
    <glyph glyph-name="zdotaccent" unicode="&#x17c;" horiz-adv-x="512" 
d="M135 466l-26 -144h184l-233 -208l-20 -114h425l24 144h-200l237 206l21 116h-412zM283 647q6 34 34 57t63 23t55 -23t14 -57q-6 -35 -34 -58t-63 -23q-36 0 -55.5 22.5t-13.5 58.5z" />
    <glyph glyph-name="Zcaron" unicode="&#x17d;" horiz-adv-x="602" 
d="M62 123l370 421h-282l25 145h501l-21 -123l-374 -420h299l-25 -146h-514zM507 750h-156l-78 173h107l64 -90l96 90h108z" />
    <glyph glyph-name="zcaron" unicode="&#x17e;" horiz-adv-x="512" 
d="M135 466l-26 -144h184l-233 -208l-20 -114h425l24 144h-200l237 206l21 116h-412zM426 550h-156l-78 173h107l64 -90l96 90h108z" />
    <glyph glyph-name="longs" unicode="&#x17f;" horiz-adv-x="346" 
d="M517 711l-27 -151h-60q-64 0 -79 -77l-85 -483h-159l61 349h-87l21 117h87l3 17q19 111 89.5 169.5t175.5 58.5h60z" />
    <glyph glyph-name="florin" unicode="&#x192;" horiz-adv-x="631" 
d="M-5 -195l56 153h48q67 0 96 78l118 313h-89l42 117h89l12 30q39 110 121.5 170t183.5 61l57 1l-57 -152h-48q-37 0 -63.5 -26t-46.5 -84h89l-42 -117h-88l-135 -360q-31 -86 -115 -133.5t-179 -49.5z" />
    <glyph glyph-name="Aringacute" unicode="&#x1fa;" horiz-adv-x="667" 
d="M470 158l31 -158h177l-132 689h-182l-375 -689h179l85 158h217zM324 302l102 227l27 -227h-129zM561 1138h148l-144 -148q29 -16 42.5 -46.5t6.5 -68.5q-10 -53 -53.5 -90t-97.5 -37q-53 0 -83 37t-20 90q7 40 34 72t65 47zM422 875q-5 -28 10.5 -46.5t42.5 -18.5
q28 0 50.5 18.5t27.5 46.5t-10.5 48t-43.5 20q-27 0 -49.5 -20t-27.5 -48z" />
    <glyph glyph-name="aringacute" unicode="&#x1fb;" horiz-adv-x="608" 
d="M471 466l-9 -50q-15 30 -48 46t-70 16q-91 0 -171 -67.5t-99 -176.5q-19 -108 37.5 -175.5t147.5 -67.5q83 0 140 62l-10 -53h159l82 466h-159zM497 936h148l-143 -148q29 -16 42.5 -46.5t6.5 -68.5q-10 -53 -53 -90t-97 -37q-53 0 -83.5 37t-20.5 90q7 40 34 72t65 47z
M236 233q8 40 41.5 68.5t73.5 28.5t63 -28.5t16 -68.5q-8 -40 -41.5 -68.5t-73.5 -28.5t-63 28.5t-16 68.5zM359 673q-5 -28 10.5 -46.5t42.5 -18.5q28 0 50.5 18.5t27.5 46.5t-10.5 48t-43.5 20q-27 0 -49.5 -20t-27.5 -48z" />
    <glyph glyph-name="AEacute" unicode="&#x1fc;" horiz-adv-x="936" 
d="M514 484l-34 -188h-96zM528 689l-556 -689h202l121 152h160l-26 -152v1l1 -1h457l25 146h-289l22 124h246l25 141h-246l24 132h281l25 146h-472zM687 923h148l-169 -174h-103z" />
    <glyph glyph-name="aeacute" unicode="&#x1fd;" horiz-adv-x="985" 
d="M636 723h148l-169 -174h-103zM1000 240q19 107 -39 172.5t-161 65.5q-98 0 -177 -59l8 47h-159l-9 -50q-15 30 -48 46t-70 16q-91 0 -171 -67.5t-99 -176.5q-19 -108 37.5 -175.5t147.5 -67.5q83 0 140 62l-10 -53h159l9 51q57 -60 157 -60q143 0 225 87q-9 7 -47.5 39
t-47.5 40q-41 -39 -97 -39q-40 0 -67.5 19.5t-26.5 51.5h334q1 4 4 15.5t5 21t3 14.5zM237 233q8 40 41.5 68.5t73.5 28.5t63 -28.5t16 -68.5q-8 -40 -41.5 -68.5t-73.5 -28.5t-63 28.5t-16 68.5zM671 278q14 39 44.5 54t58.5 15q16 0 31.5 -4t32.5 -21t19 -44h-186z" />
    <glyph glyph-name="Oslashacute" unicode="&#x1fe;" horiz-adv-x="778" 
d="M597 923h148l-169 -174h-103zM415 158q-55 0 -97 31l300 259q24 -51 14 -104q-14 -77 -77.5 -131.5t-139.5 -54.5zM266 344q14 78 76 132.5t138 54.5q61 0 101 -35l-303 -261q-23 51 -12 109zM180 68q82 -77 206 -77q146 0 267 103.5t147 249.5q22 126 -42 226l93 82
l-39 46l-92 -81q-83 81 -210 81q-145 0 -266 -103.5t-147 -250.5q-24 -131 45 -230l-96 -82l39 -47l113 98z" />
    <glyph glyph-name="oslashacute" unicode="&#x1ff;" horiz-adv-x="563" 
d="M436 723h148l-169 -174h-103zM73 -19l65 56q55 -46 141 -46q103 0 187.5 68t103.5 175q16 90 -26 156l59 51l-34 40l-60 -52q-62 49 -145 49q-102 0 -186.5 -68t-103.5 -176q-17 -95 28 -158l-63 -54zM224 234q8 40 41.5 68.5t73.5 28.5q22 0 43 -12l-154 -133
q-9 20 -4 48zM304 137q-24 0 -40 9l152 132q6 -22 2 -44q-8 -40 -41 -68.5t-73 -28.5z" />
    <glyph glyph-name="Scommaaccent" unicode="&#x218;" horiz-adv-x="586" 
d="M76 205h169q-4 -30 14 -48.5t59 -18.5q35 0 63 16t33 46q2 8 0.5 15t-16 19t-43.5 23l-75 27q-52 15 -86 40.5t-45.5 53t-16 57t2.5 52.5q16 94 94.5 152.5t183.5 58.5t161 -57.5t38 -157.5h-167q10 64 -60 64q-34 0 -56 -15t-27 -40q-6 -37 54 -56l74 -25
q182 -59 154 -210q-13 -72 -62.5 -121.5t-108 -69t-121.5 -19.5q-116 0 -175 58.5t-41 155.5zM198 -302l-65 42q42 47 64 91t35 113h128q-45 -161 -162 -246z" />
    <glyph glyph-name="scommaaccent" unicode="&#x219;" horiz-adv-x="481" 
d="M141 -302l-65 42q42 46 64 90.5t36 113.5h128q-46 -161 -163 -246zM272 166l-56 16q-39 11 -65 28.5t-37.5 33t-15 37.5t-2.5 32t4 26q9 53 73.5 96t141.5 43q85 0 138 -39t37 -122h-149q7 42 -39 42q-40 0 -44 -26q-4 -22 29 -30l80 -23q40 -12 65 -32t31.5 -39.5
t9.5 -39.5t-2 -30q-13 -72 -83 -110t-153 -38q-80 0 -133.5 44.5t-40.5 120.5h149q-4 -17 7 -32.5t38 -15.5q20 0 35.5 8.5t18.5 22.5q2 10 -5 15t-32 12z" />
    <glyph glyph-name="circumflex" unicode="&#x2c6;" horiz-adv-x="585" 
d="M203 557l140 173h156l79 -173h-108l-65 89l-95 -89h-107z" />
    <glyph glyph-name="caron" unicode="&#x2c7;" horiz-adv-x="585" 
d="M466 550h-156l-78 173h107l64 -90l96 90h108z" />
    <glyph glyph-name="breve" unicode="&#x2d8;" horiz-adv-x="520" 
d="M246 696h89q-5 -26 4 -38t35 -12q44 0 53 50h91q-10 -59 -54.5 -95.5t-104.5 -36.5q-65 0 -93.5 39t-19.5 93z" />
    <glyph glyph-name="dotaccent" unicode="&#x2d9;" horiz-adv-x="330" 
d="M196 647q6 34 34.5 57t63.5 23t54.5 -23t13.5 -57q-6 -36 -33.5 -58.5t-62.5 -22.5q-36 0 -56 22.5t-14 58.5z" />
    <glyph glyph-name="ring" unicode="&#x2da;" horiz-adv-x="574" 
d="M278 673q10 54 53.5 91.5t96.5 37.5q54 0 84 -37.5t20 -91.5q-10 -53 -53 -90t-97 -37q-53 0 -83.5 37t-20.5 90zM340 673q-5 -28 10.5 -46.5t42.5 -18.5q28 0 50.5 18.5t27.5 46.5t-10.5 48t-43.5 20q-27 0 -49.5 -20t-27.5 -48z" />
    <glyph glyph-name="ogonek" unicode="&#x2db;" horiz-adv-x="534" 
d="M222 -86q-22 -39 3 -54q20 -13 42 6q16 16 19 43l71 4q-9 -63 -47.5 -96t-84.5 -33q-42 0 -68 30.5t-18 74.5q5 31 21 51l67 83h68z" />
    <glyph glyph-name="tilde" unicode="&#x2dc;" horiz-adv-x="449" 
d="M285 597q-8 0 -18.5 -11t-14.5 -32h-75q15 67 51 98.5t74 31.5q23 0 45.5 -20.5t32.5 -20.5q8 0 19 10t16 31h75q-16 -67 -52 -97.5t-72 -30.5q-21 0 -46 20.5t-35 20.5z" />
    <glyph glyph-name="hungarumlaut" unicode="&#x2dd;" horiz-adv-x="571" 
d="M300 720h105l-136 -173h-93zM457 720h108l-146 -173h-100z" />
    <glyph glyph-name="Wgrave" unicode="&#x1e80;" horiz-adv-x="883" 
d="M615 590l25 -293l189 392h182l-355 -689h-129l-28 335l-143 -335h-130l-111 689h181l50 -392l130 293h139zM399 923h148l62 -174h-103z" />
    <glyph glyph-name="wgrave" unicode="&#x1e81;" horiz-adv-x="759" 
d="M664 466h170l-242 -466h-135l-29 279l-123 -279h-135l-83 466h170l24 -257l117 257h125l25 -257zM316 723h148l62 -174h-103z" />
    <glyph glyph-name="Wacute" unicode="&#x1e82;" horiz-adv-x="883" 
d="M640 297l-25 293h-139l-130 -293l-50 392h-181l111 -689h130l143 335l28 -335h129l355 689h-182zM652 923h148l-169 -174h-103z" />
    <glyph glyph-name="wacute" unicode="&#x1e83;" horiz-adv-x="759" 
d="M834 466h-170l-116 -257l-25 257h-125l-117 -257l-24 257h-170l83 -466h135l123 279l29 -279h135zM543 723h148l-169 -174h-103z" />
    <glyph glyph-name="Wdieresis" unicode="&#x1e84;" horiz-adv-x="883" 
d="M640 297l-25 293h-139l-130 -293l-50 392h-181l111 -689h130l143 335l28 -335h129l355 689h-182zM421 841q5 30 31.5 51t58.5 21q31 0 49 -21t13 -51q-5 -31 -30.5 -52t-57.5 -21t-50.5 21t-13.5 52zM609 841q5 30 32 51t59 21q31 0 48.5 -21t12.5 -51q-5 -31 -30.5 -52
t-56.5 -21q-32 0 -51 21t-14 52z" />
    <glyph glyph-name="wdieresis" unicode="&#x1e85;" horiz-adv-x="759" 
d="M834 466h-170l-116 -257l-25 257h-125l-117 -257l-24 257h-170l83 -466h135l123 279l29 -279h135zM321 641q5 30 31.5 51t58.5 21q31 0 49 -21t13 -51q-5 -31 -30.5 -52t-57.5 -21t-50.5 21t-13.5 52zM509 641q5 30 32 51t59 21q31 0 48.5 -21t12.5 -51q-5 -31 -30.5 -52
t-56.5 -21q-32 0 -51 21t-14 52z" />
    <glyph glyph-name="Ygrave" unicode="&#x1ef2;" horiz-adv-x="663" 
d="M415 0h-168l54 310l-202 379h199l109 -250l200 250h198l-336 -382zM311 923h148l62 -174h-103z" />
    <glyph glyph-name="ygrave" unicode="&#x1ef3;" horiz-adv-x="518" 
d="M430 466h169l-411 -696h-167l168 292l-111 404h174l51 -226zM208 723h148l62 -174h-103z" />
    <glyph glyph-name="thinspace" unicode="&#x2009;" horiz-adv-x="14" 
 />
    <glyph glyph-name="endash" unicode="&#x2013;" horiz-adv-x="654" 
d="M625 172h-538l25 135h538z" />
    <glyph glyph-name="emdash" unicode="&#x2014;" horiz-adv-x="870" 
d="M842 171h-754l24 135h754z" />
    <glyph glyph-name="quoteleft" unicode="&#x2018;" horiz-adv-x="266" 
d="M302 729l58 -40q-79 -89 -104 -227h-124q16 90 65.5 158t104.5 109z" />
    <glyph glyph-name="quoteright" unicode="&#x2019;" horiz-adv-x="257" 
d="M174 423l-58 40q43 47 67 100t37 127h124q-15 -90 -64.5 -158t-105.5 -109z" />
    <glyph glyph-name="quotesinglbase" unicode="&#x201a;" horiz-adv-x="260" 
d="M48 -138l-56 40q42 48 65.5 100.5t36.5 126.5h124q-16 -90 -65.5 -158t-104.5 -109z" />
    <glyph glyph-name="quotedblleft" unicode="&#x201c;" horiz-adv-x="441" 
d="M477 729l58 -40q-79 -89 -104 -227h-124q16 90 65.5 158t104.5 109zM302 729l58 -40q-79 -89 -104 -227h-124q16 90 65.5 158t104.5 109z" />
    <glyph glyph-name="quotedblright" unicode="&#x201d;" horiz-adv-x="432" 
d="M174 423l-58 40q43 47 67 100t37 127h124q-15 -90 -64.5 -158t-105.5 -109zM349 423l-58 40q43 47 67 100t37 127h124q-15 -90 -64.5 -158t-105.5 -109z" />
    <glyph glyph-name="quotedblbase" unicode="&#x201e;" horiz-adv-x="435" 
d="M48 -138l-56 40q42 48 65.5 100.5t36.5 126.5h124q-16 -90 -65.5 -158t-104.5 -109zM223 -138l-58 40q43 47 67 100t37 127h124q-16 -90 -65.5 -158t-104.5 -109z" />
    <glyph glyph-name="dagger" unicode="&#x2020;" horiz-adv-x="438" 
d="M270 689h138l-27 -156h114l-18 -102h-114l-97 -545h-138l97 545h-114l18 102h114z" />
    <glyph glyph-name="daggerdbl" unicode="&#x2021;" horiz-adv-x="466" 
d="M285 689h138l-27 -156h114l-18 -102h-114l-38 -213h114l-18 -100h-114l-42 -232h-138l42 232h-114l18 100h114l38 213h-114l18 102h114z" />
    <glyph glyph-name="bullet" unicode="&#x2022;" horiz-adv-x="490" 
d="M122 238q12 67 68.5 112.5t124.5 45.5t107.5 -45.5t27.5 -112.5q-12 -68 -68.5 -113.5t-124.5 -45.5t-107.5 45.5t-27.5 113.5z" />
    <glyph glyph-name="ellipsis" unicode="&#x2026;" horiz-adv-x="927" 
d="M62 84q7 39 39 65t71 26q40 0 63.5 -26t16.5 -65q-7 -40 -39.5 -66.5t-71.5 -26.5t-62.5 26.5t-16.5 66.5zM382 84q7 39 39 65t71 26q40 0 63.5 -26t16.5 -65q-7 -40 -39.5 -66.5t-71.5 -26.5t-62.5 26.5t-16.5 66.5zM702 84q7 39 39 65t71 26t62.5 -26t16.5 -65
q-7 -40 -39 -66.5t-71 -26.5t-62.5 26.5t-16.5 66.5z" />
    <glyph glyph-name="perthousand" unicode="&#x2030;" horiz-adv-x="1011" 
d="M584 656l-445 -656h94l446 656h-95zM132 535q11 56 56 95t101 39t88 -39.5t22 -94.5q-10 -56 -56 -94.5t-102 -38.5t-87.5 38.5t-21.5 94.5zM218 535q-4 -20 7.5 -33.5t31.5 -13.5t36 13.5t20 33.5q4 19 -8 33.5t-32 14.5t-35.5 -14t-19.5 -34zM421 124q10 56 55.5 95
t101.5 39q55 0 87.5 -39t22.5 -95t-55.5 -94.5t-101.5 -38.5t-88 38.5t-22 94.5zM507 124q-4 -20 7.5 -33.5t31.5 -13.5t36 13.5t20 33.5q3 20 -9 34t-31 14q-20 0 -36 -14t-19 -34zM731 124q10 56 55.5 95t101.5 39q55 0 87.5 -39t22.5 -95t-55.5 -94.5t-101.5 -38.5
t-88 38.5t-22 94.5zM817 124q-4 -20 7.5 -33.5t31.5 -13.5t36 13.5t20 33.5q3 20 -9 34t-31 14q-20 0 -36 -14t-19 -34z" />
    <glyph glyph-name="guilsinglleft" unicode="&#x2039;" horiz-adv-x="333" 
d="M76 233l175 207h119l-175 -207l102 -207h-119z" />
    <glyph glyph-name="guilsinglright" unicode="&#x203a;" horiz-adv-x="333" 
d="M337 233l-174 -207h-119l174 207l-100 207h119z" />
    <glyph glyph-name="fraction" unicode="&#x2044;" horiz-adv-x="180" 
d="M383 667h93l-568 -676h-94z" />
    <glyph glyph-name="zerosuperior" unicode="&#x2070;" horiz-adv-x="361" 
d="M151 681q36 203 186 203q149 0 113 -203q-36 -201 -183 -201q-152 0 -116 201zM254 681q-18 -102 30 -102q44 0 62 102q18 103 -26 103q-48 0 -66 -103z" />
    <glyph glyph-name="foursuperior" unicode="&#x2074;" horiz-adv-x="380" 
d="M320 665l22 122l-84 -122h62zM425 665h45l-16 -87h-45l-15 -93h-105l15 93h-197l215 301h141z" />
    <glyph glyph-name="fivesuperior" unicode="&#x2075;" horiz-adv-x="363" 
d="M350 631q4 23 -11 37.5t-42 14.5q-55 0 -117 -40l-30 20l68 216h244l-14 -87h-162l-18 -54q33 23 76 23q53 0 84.5 -36t21.5 -94q-12 -65 -67 -108.5t-133 -43.5q-40 0 -75 20t-56 52l87 60q30 -40 62 -40q31 0 54 18t28 42z" />
    <glyph glyph-name="sixsuperior" unicode="&#x2076;" horiz-adv-x="362" 
d="M247 613q-3 -19 7 -32t33 -13t39 13.5t19 31.5q3 16 -7.5 29t-34.5 13q-21 0 -37.5 -13.5t-18.5 -28.5zM342 737q42 0 78 -29.5t25 -88.5q-11 -61 -57.5 -100t-121.5 -39q-57 0 -90 37.5t-32 100.5q0 47 12 92.5t36 86.5t66.5 65t97.5 22q43 -2 71.5 -18.5t41.5 -58.5
l-84 -40q-9 31 -47 31q-66 0 -93 -104q6 15 31 29t66 14z" />
    <glyph glyph-name="sevensuperior" unicode="&#x2077;" horiz-adv-x="321" 
d="M312 786h-152l15 93h298l-216 -394h-113z" />
    <glyph glyph-name="eightsuperior" unicode="&#x2078;" horiz-adv-x="370" 
d="M241 612q-4 -21 7.5 -34.5t36.5 -13.5t41.5 14t19.5 34q3 18 -8.5 31.5t-35.5 13.5q-53 0 -61 -45zM187 778q9 47 54.5 76.5t100.5 29.5q54 0 86 -29.5t24 -76.5q-4 -23 -18.5 -45.5t-33.5 -28.5q26 -4 41 -35t10 -64q-10 -57 -61.5 -91t-118.5 -34t-107 34t-30 91
q6 34 27.5 63t53.5 36q-16 9 -24 31.5t-4 42.5zM282 774q-3 -16 6 -26.5t28 -10.5t31.5 10.5t15.5 26.5q2 13 -7.5 23.5t-27.5 10.5q-40 0 -46 -34z" />
    <glyph glyph-name="ninesuperior" unicode="&#x2079;" horiz-adv-x="361" 
d="M354 751q3 18 -7 31t-33 13t-38.5 -13t-18.5 -31q-3 -16 7 -29t34 -13q21 0 37.5 13.5t18.5 28.5zM260 627q-16 0 -34 5.5t-37 17.5t-29 36.5t-4 58.5q11 61 57.5 100t121.5 39q58 0 90.5 -37t31.5 -101q0 -37 -7.5 -74t-24 -72.5t-40 -62.5t-60 -42.5t-80.5 -14.5
q-43 2 -71.5 18.5t-41.5 58.5l84 39q11 -30 48 -30q65 0 92 104q-6 -14 -32.5 -28.5t-63.5 -14.5z" />
    <glyph glyph-name="zeroinferior" unicode="&#x2080;" horiz-adv-x="361" 
d="M31 6q36 203 187 203q148 0 112 -203q-36 -201 -183 -201q-152 0 -116 201zM134 6q-18 -102 30 -102q44 0 62 102q18 103 -25 103q-24 0 -41.5 -28.5t-25.5 -74.5z" />
    <glyph glyph-name="oneinferior" unicode="&#x2081;" horiz-adv-x="242" 
d="M39 124l193 91l-72 -405h-106l45 259l-75 -32z" />
    <glyph glyph-name="twoinferior" unicode="&#x2082;" horiz-adv-x="341" 
d="M4 -129l199 187q16 20 10.5 35.5t-27.5 15.5q-35 0 -50 -40l-95 14q45 126 170 126q54 0 87 -34.5t23 -87.5q-10 -56 -58 -98l-101 -88h127l-15 -91h-279z" />
    <glyph glyph-name="threeinferior" unicode="&#x2083;" horiz-adv-x="338" 
d="M141 -23h-42l13 74h42q42 0 51 37q3 11 -6.5 21t-31.5 10q-38 0 -65 -25l-44 57q50 58 143 58q54 0 85 -33.5t23 -77.5q-10 -49 -70 -76q67 -26 58 -88t-60.5 -95.5t-118.5 -33.5q-47 0 -80 17.5t-42 50.5l61 54q20 -37 72 -37q30 0 48 13.5t21 33.5q4 18 -13.5 29
t-43.5 11z" />
    <glyph glyph-name="fourinferior" unicode="&#x2084;" horiz-adv-x="379" 
d="M200 -10l22 122l-84 -122h62zM305 -10h45l-15 -87h-45l-16 -93h-105l16 93h-195l213 301h141z" />
    <glyph glyph-name="fiveinferior" unicode="&#x2085;" horiz-adv-x="362" 
d="M230 -44q4 22 -11.5 37t-42.5 15q-56 0 -115 -40l-30 20l68 216h244l-16 -87h-162l-17 -54q34 23 77 23q53 0 84 -36t21 -94q-12 -65 -66.5 -108.5t-132.5 -43.5q-41 0 -76.5 20t-53.5 52l86 60q28 -40 60 -40q31 0 54.5 18t28.5 42z" />
    <glyph glyph-name="sixinferior" unicode="&#x2086;" horiz-adv-x="361" 
d="M127 -62q-3 -19 7 -32t33 -13t39 13.5t19 31.5q3 16 -8 29t-35 13q-21 0 -37 -13t-18 -29zM222 62q42 0 78 -29.5t25 -88.5q-11 -61 -58 -100t-122 -39q-57 0 -90 37.5t-32 100.5q0 47 12.5 92.5t36.5 86.5t66.5 65t97.5 22q91 -4 114 -77l-86 -40q-7 31 -46 31
t-61 -32.5t-31 -71.5q5 14 30 28.5t66 14.5z" />
    <glyph glyph-name="seveninferior" unicode="&#x2087;" horiz-adv-x="322" 
d="M191 111h-152l16 93h298l-217 -394h-113z" />
    <glyph glyph-name="eightinferior" unicode="&#x2088;" horiz-adv-x="370" 
d="M121 -63q-3 -21 8 -34.5t36 -13.5t41.5 14t19.5 34q3 18 -8 31.5t-35 13.5q-25 0 -41.5 -12t-20.5 -33zM68 103q9 47 54.5 76.5t100.5 29.5q54 0 86.5 -29.5t23.5 -76.5q-4 -23 -19 -45.5t-33 -28.5q26 -4 41 -35.5t9 -63.5q-10 -57 -61.5 -91t-118.5 -34t-106 34t-30 91
q6 34 27.5 63t53.5 36q-17 9 -24.5 31t-3.5 43zM162 99q-3 -16 6 -26.5t28 -10.5t31.5 10.5t15.5 26.5q2 13 -7 23.5t-27 10.5q-41 0 -47 -34z" />
    <glyph glyph-name="nineinferior" unicode="&#x2089;" horiz-adv-x="362" 
d="M236 76q3 18 -7.5 31t-33.5 13t-37.5 -12.5t-18.5 -31.5q-3 -16 7 -29t34 -13q21 0 37.5 13.5t18.5 28.5zM140 -48q-16 0 -33.5 5.5t-37 17.5t-29 36.5t-3.5 58.5q11 61 58 100t122 39q58 0 90.5 -37t31.5 -101q0 -47 -12.5 -92.5t-36.5 -86.5t-66.5 -65t-97.5 -22
q-43 2 -71.5 18.5t-41.5 58.5l85 39q9 -30 46 -30q28 0 49 20t30 40.5t14 43.5q-6 -14 -33 -28.5t-64 -14.5z" />
    <glyph glyph-name="colonmonetary" unicode="&#x20a1;" horiz-adv-x="719" 
d="M266 343q-11 -59 5 -102l155 292q-60 -17 -103.5 -69t-56.5 -121zM502 538l-192 -356q21 -21 48 -28l197 367q-43 16 -53 17zM342 -8l-56 -105l-57 22l51 96q-31 8 -53 20l-56 -104l-59 23l64 121q-52 49 -73 122t-6 156q27 150 147.5 254t269.5 101l58 107l59 -24
l-50 -91q31 -8 55 -19l53 100l57 -25l-55 -104q55 -40 84 -103l-155 -91l-15 33l-180 -336q-12 2 -18 2q51 0 99.5 27t82.5 71l120 -91q-58 -75 -145.5 -119.5t-184.5 -44.5q-25 0 -37 2z" />
    <glyph glyph-name="lira" unicode="&#x20a4;" horiz-adv-x="702" 
d="M189 222h-78l11 64h78l7 43h-78l12 64h78l15 85q18 100 88 160t167 60q239 0 197 -241h-158q13 81 -57 81q-31 0 -53 -22t-27 -54l-12 -69h100l-12 -64h-100l-7 -43h100l-11 -64h-100l-16 -89h167q17 0 24 10.5t11 30.5l9 50h157l-16 -86q-11 -58 -59.5 -98t-102.5 -40
h-485l23 133h112z" />
    <glyph glyph-name="uni20A6" unicode="&#x20a6;" horiz-adv-x="770" 
d="M164 242h-72l13 71h72l10 56h-72l13 71h72l43 249h151l141 -371l65 371h167l-43 -249h74l-13 -71h-74l-10 -56h74l-13 -71h-74l-42 -242h-146l-145 376l-66 -376h-167z" />
    <glyph glyph-name="peseta" unicode="&#x20a7;" horiz-adv-x="761" 
d="M295 0h-167l63 361h-80l13 71h80l10 56h-80l13 71h80l22 130h285q80 0 128.5 -35.5t64.5 -94.5h95l-13 -71h-76q-1 -5 -2.5 -15t-1.5 -14q-1 -13 -6 -27h76l-13 -71h-94q-35 -59 -96.5 -95t-143.5 -36h-118zM501 543h-110l-30 -169h110q38 0 60 25t29 60t-7 59.5
t-52 24.5z" />
    <glyph glyph-name="rupee" unicode="&#x20a8;" horiz-adv-x="660" 
d="M97 230l26 144h253q54 0 80 51h-323l12 71h322q-11 47 -60 47h-253l25 146h558l-12 -71h-119q36 -49 33 -122h64l-12 -71h-63q-21 -67 -72 -118.5t-125 -68.5l127 -238h-194l-109 230h-158z" />
    <glyph glyph-name="uni20A9" unicode="&#x20a9;" horiz-adv-x="984" 
d="M931 440h78l-13 -71h-102l-29 -56h121l-13 -71h-145l-124 -242h-129l-28 335l-143 -335h-130l-40 242h-137l13 71h113l-9 56h-94l13 71h70l-40 249h181l50 -392l130 293h139l25 -293l189 392h182z" />
    <glyph glyph-name="afii57636" unicode="&#x20aa;" horiz-adv-x="1024" 
d="M778 332l-19 -102h-161l12 66q6 34 -15 58t-64 24h-223l-66 -378h-160l96 542h398q112 0 165.5 -57.5t36.5 -152.5zM340 210l19 102h161l-12 -66q-6 -34 15 -58t64 -24h223l68 378h160l-96 -542h-398q-112 0 -166.5 58t-37.5 152z" />
    <glyph glyph-name="Euro" unicode="&#x20ac;" horiz-adv-x="834" 
d="M584 323l-12 -66h-211q13 -51 52.5 -80t95.5 -29q54 0 102.5 26t79.5 70l125 -89q-56 -76 -144.5 -120t-189.5 -44q-126 0 -207.5 74.5t-89.5 191.5h-99l12 66h486zM398 439h207l-12 -66h-486l12 66h101q49 114 156 186.5t230 72.5q100 0 172 -42.5t102 -115.5l-156 -89
q-16 42 -54.5 65.5t-91.5 23.5q-54 0 -101.5 -26.5t-78.5 -74.5z" />
    <glyph glyph-name="uni2113" unicode="&#x2113;" horiz-adv-x="404" 
d="M283 111h75l-19 -111h-129q-155 0 -124 174l62 349q30 174 185 174q153 0 120 -184l-33 -185q-9 -51 -25.5 -81t-58.5 -50t-113 -20q-1 -15 -1 -29.5t15 -25.5t46 -11zM280 526l-42 -240h9q15 0 24.5 7.5t11.5 15t5 21.5l35 197q10 51 -11 51q-4 0 -7 -1t-5.5 -3t-4.5 -4
t-4 -5.5t-3 -6t-2 -7.5t-2 -8t-2 -8.5t-2 -8.5z" />
    <glyph glyph-name="afii61352" unicode="&#x2116;" horiz-adv-x="977" 
d="M727 689h-167l-66 -371l-140 371h-151l-121 -689h167l65 376l146 -376h146zM767 563q10 56 55.5 95t101.5 39q55 0 87.5 -39t22.5 -95t-56 -94.5t-102 -38.5t-87.5 38.5t-21.5 94.5zM842 563q-4 -25 9.5 -41.5t38.5 -16.5q24 0 44.5 16.5t24.5 41.5q4 24 -10 41.5
t-38 17.5t-44 -17.5t-25 -41.5zM729 318l12 67h254l-12 -67h-254z" />
    <glyph glyph-name="trademark" unicode="&#x2122;" horiz-adv-x="842" 
d="M384 323l85 283h-95l-50 -283h-92l50 283h-116l15 83h388l66 -215l142 215h79l-21 -366h-93l12 203l-104 -163h-66l-49 164l-59 -204h-92z" />
    <glyph glyph-name="estimated" unicode="&#x212e;" horiz-adv-x="641" 
d="M651 279h-429l-34 -193q54 -63 140 -63q76 0 129 33t104 94l27 -19q-56 -68 -117.5 -104.5t-148.5 -36.5q-119 0 -180 84.5t-39 205.5q22 123 112 206.5t215 83.5q124 0 183.5 -84.5t37.5 -206.5zM537 312l28 163q-24 27 -62 44.5t-79 17.5q-97 0 -168 -62l-28 -163h309z
" />
    <glyph glyph-name="minus" unicode="&#x2212;" horiz-adv-x="502" 
d="M490 315l-19 -110h-370l19 110h370z" />
    <glyph glyph-name="notequal" unicode="&#x2260;" horiz-adv-x="596" 
d="M556 165h-267l-69 -103h-70l69 103h-123l17 102h173l67 102h-222l19 102h273l60 91h71l-60 -91h116l-19 -102h-166l-69 -102h217z" />
    <glyph glyph-name="lessequal" unicode="&#x2264;" horiz-adv-x="631" 
d="M587 155l-466 192l22 122l534 191l-21 -115l-377 -138l329 -136zM61 0l17 101h501l-17 -101h-501z" />
    <glyph glyph-name="greaterequal" unicode="&#x2265;" horiz-adv-x="631" 
d="M630 347l-534 -192l21 116l377 136l-329 138l21 115l466 -191zM570 0l17 101h-501l-17 -101h501z" />
    <glyph glyph-name="commaaccent" unicode="&#xf6c3;" horiz-adv-x="330" 
d="M88 -302l-65 42q42 47 64 91t35 113h128q-45 -161 -162 -246z" />
    <glyph glyph-name="rupiah" unicode="&#xf6dd;" horiz-adv-x="1240" 
d="M235 0h-167l121 689h285q114 0 163 -68t32 -162q-14 -78 -67 -139.5t-137 -81.5l127 -238h-194l-109 230h-15zM441 543h-110l-31 -169h110q38 0 60.5 25t29.5 60t-7 59.5t-52 24.5zM858 43l-48 -273h-159l123 696h150l-12 -67q26 39 68 59t84 20q91 0 146.5 -67
t36.5 -176t-98.5 -176.5t-170.5 -67.5q-82 0 -120 52zM1086 236q7 40 -16.5 68.5t-63.5 28.5q-39 0 -73 -30t-42 -70q-7 -39 17 -66.5t64 -27.5t73 28.5t41 68.5z" />
    <glyph glyph-name="apple" unicode="&#xf8ff;" horiz-adv-x="847" 
d="M755 687l12 -687h-687l-12 687h687zM154 595l6 -377h81l-75 75l-3 178l259 -253l252 253l3 -178l-73 -75h84l-6 377l-262 -263zM177 132h-15l1 -53h9l-1 37l14 -37h10l10 37l1 -37h9l-1 53h-14l-9 -36zM246 132q-12 0 -18.5 -7.5t-6.5 -18.5t7 -19t19 -8q22 0 22 26
q0 11 -6 19t-17 8zM246 89q-7 0 -12 5.5t-5 10.5q0 6 5 11.5t12 5.5q12 0 12 -17q0 -16 -12 -16zM282 99h-13q0 -20 23 -20q21 0 21 17q0 11 -15 14q-16 3 -16 6q0 6 9 6q10 0 10 -6h9q0 16 -19 16t-19 -16q0 -8 16 -15q13 0 13 -5q0 -7 -10 -7q-9 0 -9 10zM313 122h17
l1 -43h8l-1 43h15v10h-40v-10zM375 132h-9l-21 -53h12l3 13h22l4 -13h11zM372 119l7 -18h-16l6 18h3zM424 132h-28l1 -53h9l-1 22h13q9 0 9 -9q0 -3 0.5 -7.5t0.5 -5.5h13q-4 4 -4 13t-7 13q7 3 7 9q0 18 -13 18zM418 108h-13v14h13q9 0 9 -6q0 -8 -9 -8zM464 132h-20l1 -53
h20q11 0 17.5 8t6.5 20q0 25 -25 25zM464 89h-8v33h4q17 0 17 -17q0 -6 -4 -11t-9 -5zM529 132h-37l1 -53h40l-1 10h-28v12h25v9h-25v12h25v10zM541 99h-9q0 -20 23 -20q21 0 21 17q0 11 -15 14q-17 3 -17 6q0 6 7 6q12 0 12 -6h10q0 16 -19 16q-8 0 -15 -4.5t-7 -11.5
t19 -15q12 0 12 -5q0 -7 -9 -7q-13 0 -13 10zM587 132h-7l1 -53h7zM631 86l5 -7h6l-1 29h-22v-9h12q-4 -10 -12 -10q-7 0 -11.5 5.5t-4.5 10.5q0 6 4.5 11.5t11.5 5.5q9 0 9 -10h13q-4 20 -22 20q-11 0 -18 -8t-7 -19q0 -10 7 -18t19 -8q9 0 11 7zM655 132h-8l1 -53h8l-1 33
l23 -33h13l-1 53h-13v-33z" />
    <glyph glyph-name="published" horiz-adv-x="792" 
d="M440 428h57q16 0 23.5 -12.5t5.5 -27.5t-15 -28t-30 -13h-55zM370 503l-59 -336h84l19 106h58q57 0 93 34t44 81q8 48 -16 81.5t-81 33.5h-142zM107 343q26 147 145.5 250.5t265.5 103.5t230 -104t58 -250q-26 -147 -146.5 -250t-266.5 -103t-229 103t-57 250zM185 343
q-20 -114 44 -194t177 -80t207 80.5t114 193.5q20 114 -44.5 194.5t-177.5 80.5t-206.5 -80.5t-113.5 -194.5z" />
    <glyph glyph-name="frenchfranc" horiz-adv-x="754" 
d="M507 0h-148l52 300h-102l-52 -300h-170l121 689h446l-25 -146h-276l-20 -106h250l-18 -106q52 115 139 115q57 0 91 -17l-55 -143q-28 16 -69 16q-58 0 -92.5 -42t-50.5 -133z" />
    <glyph glyph-name="parenleft.case" horiz-adv-x="397" 
d="M94 344q36 198 157.5 334.5t260.5 136.5l-21 -116q-70 0 -157.5 -115.5t-109.5 -239.5q-14 -80 3 -161t56 -132t85 -51l-21 -115q-140 0 -213.5 131.5t-39.5 327.5z" />
    <glyph glyph-name="parenright.case" horiz-adv-x="397" 
d="M423 344q-35 -196 -155 -327.5t-260 -131.5l21 115q70 0 156 110.5t108 233.5q15 81 -1.5 164.5t-55.5 137t-84 53.5l21 116q139 0 212 -136.5t38 -334.5z" />
    <glyph glyph-name="hyphen.case" horiz-adv-x="471" 
d="M464 293h-355l24 135h355z" />
    <glyph glyph-name="at.case" horiz-adv-x="963" 
d="M616 224l22 125q8 47 -19 79.5t-73 32.5q-45 0 -83.5 -32.5t-46.5 -79.5q-8 -44 19 -77t72 -33q43 0 74 16l-17 -98q-29 -13 -74 -13q-86 0 -136 60t-34 145q16 87 87 147t157 60q85 0 134.5 -57.5t37.5 -139.5l-24 -140q-6 -30 8.5 -45.5t36.5 -15.5q38 0 69 37.5
t45 79.5t22 87q24 139 -63.5 232.5t-232.5 93.5q-141 0 -256 -100.5t-141 -243.5q-26 -142 54 -240t222 -98h61l-18 -97h-61q-182 0 -284 126t-70 309q21 120 96 221t185 160t229 59q121 0 214.5 -54.5t138 -152t23.5 -215.5q-8 -48 -27.5 -97t-49.5 -95t-75 -75t-97 -29
q-66 0 -103 38t-22 120z" />
    <glyph glyph-name="bracketleft.case" horiz-adv-x="342" 
d="M47 -112l163 919h243l-19 -108h-114l-124 -700h114l-20 -111h-243z" />
    <glyph glyph-name="bracketright.case" horiz-adv-x="342" 
d="M173 807h243l-163 -919h-243l20 111h114l124 700h-114z" />
    <glyph glyph-name="braceleft.case" horiz-adv-x="414" 
d="M80 305l16 85q23 0 44.5 16t27.5 45l27 154q15 90 84 146t155 56h93l-19 -108h-80q-46 0 -72 -28.5t-33 -72.5l-25 -136q-9 -49 -43.5 -79t-68.5 -36q32 -5 56.5 -35t15.5 -79l-24 -136q-8 -44 8.5 -72.5t61.5 -28.5h80l-20 -108h-93q-86 0 -135.5 56t-31.5 146l26 154
q6 29 -10.5 45t-39.5 16z" />
    <glyph glyph-name="braceright.case" horiz-adv-x="414" 
d="M455 390l-15 -85q-23 0 -45 -16t-27 -45l-27 -154q-15 -90 -84.5 -146t-155.5 -56h-93l20 108h80q46 0 72 28.5t33 72.5l24 136q9 49 44 79t67 35q-31 6 -55 36t-15 79l24 136q8 44 -8.5 72.5t-61.5 28.5h-80l19 108h93q86 0 135.5 -56t33.5 -146l-28 -154
q-6 -29 10.5 -45t39.5 -16z" />
    <glyph glyph-name="exclamdown.case" horiz-adv-x="295" 
d="M64 0l99 458h131l-63 -458h-167zM159 606q7 40 39 66.5t71 26.5q40 0 63.5 -26.5t16.5 -66.5q-7 -39 -39.5 -65t-72.5 -26q-39 0 -62 26t-16 65z" />
    <glyph glyph-name="guillemotleft.case" horiz-adv-x="550" 
d="M106 351l175 207h119l-175 -207l102 -207h-119zM301 351l175 207h119l-175 -207l102 -207h-119z" />
    <glyph glyph-name="periodcentered.case" horiz-adv-x="289" 
d="M108 332q7 39 38.5 65t70.5 26t63 -26t17 -65q-7 -40 -39.5 -66t-71.5 -26t-62 26t-16 66z" />
    <glyph glyph-name="guillemotright.case" horiz-adv-x="550" 
d="M565 351l-174 -207h-119l174 207l-100 207h119zM370 351l-174 -207h-119l174 207l-100 207h119z" />
    <glyph glyph-name="questiondown.case" horiz-adv-x="496" 
d="M296 459h143l-1 -12q-8 -67 -36.5 -111t-101.5 -74l-39 -16q-37 -15 -43 -50q-4 -26 11.5 -40t45.5 -14q26 0 48 18t27 46h144q-19 -105 -86 -160t-163 -55q-95 0 -144 53t-33 142q13 71 56 119t106 70q32 11 46 29.5t20 54.5zM487 605q-7 -39 -39 -65t-71 -26
q-40 0 -63.5 26t-16.5 65q7 40 39.5 66.5t72.5 26.5q39 0 62 -26.5t16 -66.5z" />
    <glyph glyph-name="endash.case" horiz-adv-x="656" 
d="M646 282h-538l24 135h538z" />
    <glyph glyph-name="emdash.case" horiz-adv-x="872" 
d="M862 282h-754l24 135h754z" />
    <glyph glyph-name="bullet.case" horiz-adv-x="472" 
d="M132 344q12 67 68.5 112.5t124.5 45.5t107.5 -45.5t27.5 -112.5q-12 -68 -68 -113.5t-124 -45.5t-108 45.5t-28 113.5z" />
    <glyph glyph-name="guilsinglleft.case" horiz-adv-x="355" 
d="M106 351l175 207h119l-175 -207l102 -207h-119z" />
    <glyph glyph-name="guilsinglright.case" horiz-adv-x="355" 
d="M370 351l-174 -207h-119l174 207l-100 207h119z" />
    <glyph glyph-name="cent.case" horiz-adv-x="542" 
d="M347 581l20 118h77l-19 -115q107 -11 158 -113l-143 -78q-21 46 -74 46q-40 0 -73 -28.5t-41 -68.5q-7 -40 16 -68.5t63 -28.5q50 0 88 43l120 -74q-88 -103 -200 -113l-19 -110h-77l20 113q-88 15 -135.5 79t-30.5 159q17 94 87.5 158.5t162.5 80.5z" />
    <glyph glyph-name="zero.tnum" 
d="M261 327q-31 -182 56 -182q45 0 74.5 50.5t43.5 131.5q31 184 -52 184q-46 0 -77 -51t-45 -133zM100 327q59 339 310 339q69 0 114 -26t62 -72t20 -108t-12 -133q-13 -75 -35 -132.5t-57 -105t-88.5 -73t-122.5 -25.5q-250 0 -191 336z" />
    <glyph glyph-name="one.tnum" 
d="M221 531l303 140l-118 -671h-163l78 446l-124 -52z" />
    <glyph glyph-name="two.tnum" 
d="M539 144l-24 -144h-461l16 90l325 314q38 36 41 60q4 21 -10 37t-50 16q-40 0 -62 -23.5t-36 -65.5l-140 22q33 101 105.5 158.5t171.5 57.5q89 0 142.5 -57t38.5 -145q-16 -90 -97 -164l-172 -156h212z" />
    <glyph glyph-name="three.tnum" 
d="M307 278h-67l22 123h67q23 0 40 9t25 23.5t11.5 23.5t4.5 17q2 17 -11 38t-46 21q-50 0 -97 -41l-80 77q39 47 100 74t127 23q86 -4 133.5 -58.5t33.5 -126.5q-7 -40 -37 -73t-72 -54q51 -20 74 -62t13 -96q-17 -95 -100.5 -149.5t-188.5 -54.5q-72 0 -123 32t-67 89
l117 90q7 -27 30.5 -49.5t66.5 -22.5q47 0 74.5 22t33.5 53q5 30 -15.5 51t-68.5 21z" />
    <glyph glyph-name="four.tnum" 
d="M607 283l-24 -131h-78l-26 -152h-162l26 152h-323l372 504h202l-65 -373h78zM405 502l-155 -219h117z" />
    <glyph glyph-name="five.tnum" 
d="M429 239q7 43 -18.5 67.5t-73.5 24.5q-93 0 -175 -70l-62 39l116 356h398l-26 -139h-272l-29 -89q60 36 127 36q89 0 140 -62t33 -163q-19 -108 -108 -178.5t-216 -70.5q-67 0 -126 34.5t-90 90.5l140 90q41 -64 103 -64q51 0 92 31t47 67z" />
    <glyph glyph-name="six.tnum" 
d="M410 421q30 0 61 -11t60 -33t43.5 -64.5t4.5 -97.5q-18 -99 -94.5 -161.5t-195.5 -62.5q-95 0 -149.5 62t-50.5 167q3 63 15 124t39 121.5t65.5 105t98 71t132.5 24.5q69 -3 116 -30.5t69 -97.5l-141 -62q-14 51 -74 51q-35 0 -63.5 -17.5t-46 -46.5t-28.5 -57t-17 -58
q12 24 52.5 48.5t103.5 24.5zM254 212q-5 -33 13 -56t55 -23t65.5 23.5t33.5 55.5q5 29 -14.5 52.5t-57.5 23.5q-35 0 -62.5 -23.5t-32.5 -52.5z" />
    <glyph glyph-name="seven.tnum" 
d="M145 511l26 145h496l-378 -656h-180l295 511h-259z" />
    <glyph glyph-name="eight.tnum" 
d="M232 220q-7 -37 15.5 -61.5t65.5 -24.5t73 24.5t37 61.5q6 33 -15.5 58.5t-59.5 25.5h-8q-41 0 -71.5 -25t-36.5 -59zM159 487q13 77 86.5 128t162.5 51q88 0 139.5 -50.5t38.5 -128.5q-6 -37 -28 -71t-51 -47q42 -14 64.5 -63t12.5 -102q-17 -94 -102.5 -153.5
t-193.5 -59.5t-173 59.5t-48 153.5q10 56 45 102t86 63q-24 17 -34 50.5t-5 67.5zM308 481q-5 -26 10.5 -43t45.5 -17q29 0 50 17t26 43q4 22 -10.5 40t-40.5 18h-6q-28 0 -49.5 -17.5t-25.5 -40.5z" />
    <glyph glyph-name="nine.tnum" 
d="M284 236q-30 0 -61 11t-60 33t-43 64.5t-4 97.5q18 99 94.5 161.5t195.5 62.5q95 0 149 -62t50 -167q-3 -64 -15 -124.5t-39 -121t-65.5 -105t-97.5 -71t-132 -24.5q-70 3 -117.5 30.5t-68.5 97.5l141 62q14 -51 74 -51q65 0 102.5 55t51.5 124q-10 -24 -51 -48.5
t-104 -24.5zM440 445q6 33 -12.5 56t-55.5 23t-64.5 -23t-33.5 -56q-6 -29 13.5 -52.5t57.5 -23.5q35 0 62 23.5t33 52.5z" />
    <glyph glyph-name="zero.taboldstyle" 
d="M288 -9q-102 0 -165 72t-43 184q20 114 107.5 185t190.5 71t164 -71t41 -185q-20 -112 -106 -184t-189 -72zM311 131q42 0 82 33t49 83q9 51 -19 83t-71 32t-81.5 -32t-47.5 -83q-9 -50 18 -83t70 -33z" />
    <glyph glyph-name="one.taboldstyle" 
d="M497 514l-91 -514h-142l53 303l-134 -58l23 131z" />
    <glyph glyph-name="two.taboldstyle" 
d="M520 132l-23 -132h-418l12 73l273 224q25 20 29 41q2 14 -10 25t-35 11q-49 0 -67 -56l-142 15q56 170 228 170q96 0 147 -43.5t39 -105.5q-8 -41 -25 -66.5t-61 -58.5l-128 -97h181z" />
    <glyph glyph-name="six.taboldstyle" 
d="M410 421q30 0 61 -11t60 -33t43.5 -64.5t4.5 -97.5q-18 -99 -94.5 -161.5t-195.5 -62.5q-95 0 -149.5 62t-50.5 167q3 63 15 124t39 121.5t65.5 105t98 71t132.5 24.5q69 -3 116 -30.5t69 -97.5l-141 -62q-14 51 -74 51q-35 0 -63.5 -17.5t-46 -46.5t-28.5 -57t-17 -58
q12 24 52.5 48.5t103.5 24.5zM254 212q-5 -33 13 -56t55 -23t65.5 23.5t33.5 55.5q5 29 -14.5 52.5t-57.5 23.5q-35 0 -62.5 -23.5t-32.5 -52.5z" />
    <glyph glyph-name="eight.taboldstyle" 
d="M233 220q-7 -37 15.5 -61.5t65.5 -24.5t73 24.5t37 61.5q6 33 -15 58.5t-60 25.5h-8q-41 0 -71.5 -25t-36.5 -59zM160 487q13 77 86.5 128t162.5 51q88 0 139.5 -50.5t38.5 -128.5q-6 -37 -28 -71t-51 -47q42 -14 64.5 -63t12.5 -102q-17 -94 -102.5 -153.5t-193.5 -59.5
t-173 59.5t-48 153.5q10 56 45 102t86 63q-24 17 -34 50.5t-5 67.5zM309 481q-5 -26 10.5 -43t45.5 -17q29 0 50 17t26 43q4 22 -10.5 40t-40.5 18h-6q-28 0 -49.5 -17.5t-25.5 -40.5z" />
    <glyph glyph-name="three.taboldstyle" 
d="M275 89h-67l23 123h67q23 0 40.5 9t25.5 23.5t11.5 23.5t4.5 17q2 17 -11.5 38t-46.5 21q-50 0 -97 -41l-80 77q39 47 100 74t127 23q86 -4 134 -58.5t33 -126.5q-7 -40 -37 -73t-71 -54q50 -20 72.5 -62t13.5 -96q-16 -95 -100 -149.5t-189 -54.5q-72 0 -123.5 32
t-67.5 89l117 90q25 -72 99 -72q47 0 74.5 22t33.5 53q6 30 -15.5 51t-70.5 21z" />
    <glyph glyph-name="four.taboldstyle" 
d="M576 93l-24 -131h-78l-26 -152h-162l26 152h-321l371 504h202l-66 -373h78zM375 312l-156 -219h117z" />
    <glyph glyph-name="five.taboldstyle" 
d="M397 49q8 42 -18.5 67t-75.5 25q-93 0 -174 -70l-61 39l115 356h398l-25 -139h-272l-30 -89q60 36 128 36q89 0 140 -62t33 -163q-19 -108 -108.5 -178.5t-216.5 -70.5q-67 0 -126 34.5t-89 90.5l139 90q43 -64 103 -64q51 0 92.5 31t47.5 67z" />
    <glyph glyph-name="seven.taboldstyle" 
d="M113 321l26 145h496l-379 -656h-180l296 511h-259z" />
    <glyph glyph-name="nine.taboldstyle" 
d="M253 48q-30 0 -61 11t-60.5 33t-43.5 64.5t-4 97.5q18 99 94.5 161.5t195.5 62.5q95 0 149.5 -62t50.5 -167q-3 -63 -15 -124t-39 -121.5t-65.5 -105t-98 -71t-132.5 -24.5q-70 3 -117 30.5t-68 97.5l141 62q13 -51 74 -51q35 0 63 17.5t45.5 46.5t28 57t16.5 58
q-10 -24 -50.5 -48.5t-103.5 -24.5zM408 257q6 33 -12 56t-55 23t-65.5 -23.5t-33.5 -55.5q-5 -29 14 -52.5t57 -23.5q35 0 62.5 23.5t32.5 52.5z" />
    <glyph glyph-name="zero.oldstyle" horiz-adv-x="592" 
d="M294 -9q-102 0 -165 72t-43 184q20 114 107.5 185t190.5 71t164 -71t41 -185q-20 -112 -106 -184t-189 -72zM317 131q42 0 82 33t49 83q9 51 -19 83t-71 32t-81.5 -32t-47.5 -83q-9 -50 18 -83t70 -33z" />
    <glyph glyph-name="one.oldstyle" horiz-adv-x="376" 
d="M395 514l-91 -514h-142l53 303l-134 -58l23 131z" />
    <glyph glyph-name="two.oldstyle" horiz-adv-x="520" 
d="M490 132l-23 -132h-418l12 73l273 224q25 20 29 41q2 14 -10 25t-35 11q-49 0 -67 -56l-142 15q56 170 228 170q96 0 147 -43.5t39 -105.5q-8 -41 -25 -66.5t-61 -58.5l-128 -97h181z" />
    <glyph glyph-name="three.oldstyle" horiz-adv-x="528" 
d="M249 89h-67l23 123h67q23 0 40.5 9t25.5 23.5t11.5 23.5t4.5 17q2 17 -11.5 38t-46.5 21q-50 0 -97 -41l-80 77q39 47 100 74t127 23q86 -4 134 -58.5t33 -126.5q-7 -40 -37 -73t-71 -54q50 -20 72.5 -62t13.5 -96q-16 -95 -100 -149.5t-189 -54.5q-72 0 -123.5 32
t-67.5 89l117 90q25 -72 99 -72q47 0 74.5 22t33.5 53q6 30 -15.5 51t-70.5 21z" />
    <glyph glyph-name="four.oldstyle" horiz-adv-x="612" 
d="M592 93l-24 -131h-78l-26 -152h-162l26 152h-323l373 504h202l-66 -373h78zM391 312l-156 -219h117z" />
    <glyph glyph-name="five.oldstyle" horiz-adv-x="586" 
d="M400 49q8 42 -18.5 67t-75.5 25q-93 0 -174 -70l-61 39l115 356h398l-25 -139h-272l-30 -89q60 36 128 36q89 0 140 -62t33 -163q-19 -108 -108.5 -178.5t-216.5 -70.5q-67 0 -126 34.5t-89 90.5l139 90q43 -64 103 -64q51 0 92.5 31t47.5 67z" />
    <glyph glyph-name="six.oldstyle" horiz-adv-x="598" 
d="M419 421q30 0 61 -11t60 -33t43.5 -64.5t4.5 -97.5q-18 -99 -94.5 -161.5t-195.5 -62.5q-95 0 -149.5 62t-50.5 167q3 63 15 124t39 121.5t65.5 105t98 71t132.5 24.5q69 -3 116 -30.5t69 -97.5l-141 -62q-14 51 -74 51q-35 0 -63.5 -17.5t-46 -46.5t-28.5 -57t-17 -58
q12 24 52.5 48.5t103.5 24.5zM263 212q-5 -33 13 -56t55 -23t65.5 23.5t33.5 55.5q5 29 -14.5 52.5t-57.5 23.5q-35 0 -62.5 -23.5t-32.5 -52.5z" />
    <glyph glyph-name="seven.oldstyle" horiz-adv-x="527" 
d="M87 321l26 145h496l-379 -656h-180l296 511h-259z" />
    <glyph glyph-name="eight.oldstyle" horiz-adv-x="611" 
d="M248 220q-7 -37 15.5 -61.5t65.5 -24.5t73 24.5t37 61.5q6 33 -15.5 58.5t-59.5 25.5h-8q-41 0 -71.5 -25t-36.5 -59zM175 487q13 77 86.5 128t162.5 51q88 0 139.5 -50.5t38.5 -128.5q-6 -37 -28 -71t-51 -47q42 -14 64.5 -63t12.5 -102q-17 -94 -102.5 -153.5
t-193.5 -59.5t-173 59.5t-48 153.5q10 56 45 102t86 63q-24 17 -34 50.5t-5 67.5zM324 481q-5 -26 10.5 -43t45.5 -17q29 0 50 17t26 43q4 22 -10.5 40t-40.5 18h-6q-28 0 -49.5 -17.5t-25.5 -40.5z" />
    <glyph glyph-name="nine.oldstyle" horiz-adv-x="579" 
d="M253 48q-30 0 -61 11t-60.5 33t-43.5 64.5t-4 97.5q18 99 94.5 161.5t195.5 62.5q95 0 149.5 -62t50.5 -167q-3 -63 -15 -124t-39 -121.5t-65.5 -105t-98 -71t-132.5 -24.5q-70 3 -117 30.5t-68 97.5l141 62q13 -51 74 -51q35 0 63 17.5t45.5 46.5t28 57t16.5 58
q-10 -24 -50.5 -48.5t-103.5 -24.5zM408 257q6 33 -12 56t-55 23t-65.5 -23.5t-33.5 -55.5q-5 -29 14 -52.5t57 -23.5q35 0 62.5 23.5t32.5 52.5z" />
    <glyph glyph-name="Lslash.sc" horiz-adv-x="455" 
d="M466 132l-23 -132h-362l37 214l-71 -39l15 86l71 39l52 290h154l-35 -195l96 55l-15 -86l-96 -56l-31 -176h208z" />
    <glyph glyph-name="Zcaron.sc" horiz-adv-x="536" 
d="M585 788l-124 -153h-140l-68 153h98l55 -76l81 76h98zM62 110l306 348h-233l23 132h433l-20 -111l-310 -347h249l-23 -132h-444z" />
    <glyph glyph-name="exclam.sc" horiz-adv-x="305" 
d="M129 204l53 386h149l-82 -386h-120zM80 77q7 35 35.5 58t63.5 23q36 0 57 -23t14 -58q-7 -36 -35.5 -60t-64.5 -24q-35 0 -56 24t-14 60z" />
    <glyph glyph-name="ampersand.sc" horiz-adv-x="622" 
d="M397 234l1 2h-81q-40 0 -61 -32q-8 -15 -9 -31t14.5 -28.5t44.5 -12.5q12 0 27 5t36 30t28 67zM229 -8q-85 0 -125 47t-26 123q9 53 43 89.5t77 50.5q-32 11 -49.5 49t-9.5 85q11 66 68.5 110t141.5 51q56 4 100.5 -16t70.5 -57l-121 -91q-17 25 -39 25
q-28 0 -45.5 -15.5t-20.5 -30.5q1 -6 -0.5 -18t13 -24t43.5 -12h70l10 58h132l-12 -64h75l-18 -105h-75l-11 -63q-16 -86 21 -86q18 0 62 27l-18 -105q-64 -27 -108 -27q-81 0 -88 71q-27 -33 -73.5 -52.5t-87.5 -19.5z" />
    <glyph glyph-name="question.sc" horiz-adv-x="437" 
d="M281 206h-126l5 30q17 84 98 126l24 12q25 12 38.5 22.5t15.5 15t4 14.5q4 18 -8 28t-35 10t-41 -14t-22 -38l-128 2q18 91 75.5 138.5t139.5 47.5q81 0 123 -45.5t29 -122.5q-22 -122 -137 -163q-26 -9 -39 -23.5t-16 -39.5zM112 77q7 35 35.5 58t63.5 23q36 0 57 -23
t14 -58q-7 -36 -35.5 -60t-64.5 -24q-35 0 -56 24t-14 60z" />
    <glyph glyph-name="A.sc" horiz-adv-x="600" 
d="M438 0l-26 133h-177l-71 -133h-162l320 590h164l112 -590h-160zM378 450l-83 -186h106z" />
    <glyph glyph-name="B.sc" horiz-adv-x="571" 
d="M575 433q-6 -34 -29 -68.5t-67 -49.5q48 -12 68 -54t12 -87q-6 -33 -20.5 -62t-40 -55.5t-68 -41.5t-97.5 -15h-260l104 590h243q83 0 125 -43t30 -114zM289 365h68q20 0 34.5 11.5t18.5 31.5q9 50 -33 50h-71zM347 241h-80l-19 -109h80q31 0 50 16t23 39q4 22 -8.5 38
t-45.5 16z" />
    <glyph glyph-name="C.sc" horiz-adv-x="623" 
d="M506 216l110 -86q-56 -64 -128 -101.5t-149 -37.5q-124 0 -197.5 89t-51.5 213q22 126 127 215t229 89q78 0 139 -37.5t90 -100.5l-143 -88q-14 32 -44.5 51.5t-68.5 19.5q-61 0 -112.5 -43.5t-62.5 -105.5q-11 -61 24.5 -104.5t97.5 -43.5q81 0 140 71z" />
    <glyph glyph-name="D.sc" horiz-adv-x="619" 
d="M73 0l104 590h235q124 0 181 -83.5t34 -213.5q-23 -129 -109 -211t-210 -82h-235zM305 456l-57 -322h83q55 0 94.5 46.5t50.5 112.5q12 67 -10.5 115t-77.5 48h-83z" />
    <glyph glyph-name="E.sc" horiz-adv-x="516" 
d="M490 132l-23 -132h-394l104 590h386l-23 -132h-235l-19 -102h207l-22 -130h-207l-17 -94h243z" />
    <glyph glyph-name="F.sc" horiz-adv-x="481" 
d="M265 225l-39 -225h-153l104 590h383l-23 -132h-230l-19 -102h183l-23 -131h-183z" />
    <glyph glyph-name="G.sc" horiz-adv-x="662" 
d="M663 488l-129 -95q-37 63 -111 63q-63 0 -115.5 -47.5t-64.5 -115.5q-12 -66 23.5 -115.5t98.5 -49.5q101 0 138 77h-160l20 113h328q-30 -165 -123 -246t-227 -81q-128 0 -200.5 88.5t-50.5 213.5q23 127 126.5 215.5t231.5 88.5q72 0 128 -29t87 -80z" />
    <glyph glyph-name="H.sc" horiz-adv-x="617" 
d="M287 361h166l41 229h154l-104 -590h-154l39 225h-166l-39 -225h-151l104 590h151z" />
    <glyph glyph-name="I.sc" horiz-adv-x="297" 
d="M73 0l104 590h151l-104 -590h-151z" />
    <glyph glyph-name="J.sc" horiz-adv-x="299" 
d="M-107 -189l37 136q30 -10 83 -10q47 0 59 62l104 591h153l-104 -591q-16 -90 -75.5 -147.5t-160.5 -57.5q-55 0 -96 17z" />
    <glyph glyph-name="K.sc" horiz-adv-x="565" 
d="M353 299l224 -299h-209l-115 169l-29 -169h-151l104 590h151l-28 -157l135 157h192z" />
    <glyph glyph-name="L.sc" horiz-adv-x="446" 
d="M457 132l-23 -132h-361l104 590h153l-81 -458h208z" />
    <glyph glyph-name="M.sc" horiz-adv-x="797" 
d="M442 243l219 347h127l-32 -590h-157l19 299l-151 -231h-114l-69 231l-87 -299h-156l176 590h126z" />
    <glyph glyph-name="N.sc" horiz-adv-x="598" 
d="M423 291l54 299h152l-104 -590h-132l-116 302l-53 -302h-151l104 590h136z" />
    <glyph glyph-name="O.sc" horiz-adv-x="680" 
d="M243 293q-11 -62 24.5 -106t97.5 -44q61 0 112.5 44t62.5 106t-24.5 106.5t-97.5 44.5t-113 -44t-62 -107zM90 293q22 126 126 215t229 89q126 0 198 -89t49 -215q-22 -125 -125 -213.5t-229 -88.5q-124 0 -197 88.5t-51 213.5z" />
    <glyph glyph-name="P.sc" horiz-adv-x="547" 
d="M390 458h-85l-25 -134h87q31 0 48.5 19.5t22.5 47.5q12 67 -48 67zM258 194l-34 -194h-151l104 590h245q99 0 142 -59t28 -140t-78 -139t-162 -58h-94z" />
    <glyph glyph-name="Q.sc" horiz-adv-x="688" 
d="M537 54l37 -92l-118 -63l-42 101q-36 -7 -73 -7q-128 0 -200.5 88.5t-50.5 213.5q23 126 127 215t232 89t200.5 -88.5t49.5 -215.5q-13 -70 -56.5 -134t-105.5 -107zM447 264l34 -82q53 44 65 113q12 67 -24 114.5t-98 47.5q-64 0 -116.5 -47t-64.5 -115
q-11 -62 21 -104.5t93 -54.5l-26 67z" />
    <glyph glyph-name="R.sc" horiz-adv-x="568" 
d="M392 458h-87l-25 -134h88q31 0 48.5 19.5t22.5 47.5q12 67 -47 67zM258 194l-34 -194h-151l104 590h245q99 0 142 -59t28 -140q-12 -65 -57.5 -117.5t-115.5 -71.5l109 -202h-174l-91 194h-5z" />
    <glyph glyph-name="S.sc" horiz-adv-x="520" 
d="M71 178h153q-2 -25 11 -39.5t46 -14.5q67 0 75 42q4 27 -47 47l-64 24q-43 14 -71.5 37t-39 46.5t-15 48.5t1.5 44q15 82 82.5 132.5t158.5 50.5t139 -50t32 -138h-151q9 51 -47 51q-55 0 -63 -41q-1 -7 0.5 -12.5t12 -14t31.5 -15.5l62 -21q157 -51 133 -181
q-11 -63 -54.5 -106t-94.5 -60t-104 -17q-100 0 -151 50t-36 137z" />
    <glyph glyph-name="T.sc" horiz-adv-x="480" 
d="M165 0l81 458h-150l23 132h450l-23 -132h-150l-81 -458h-150z" />
    <glyph glyph-name="U.sc" horiz-adv-x="603" 
d="M300 -9q-96 0 -154.5 62.5t-40.5 161.5l65 373h151l-65 -373q-6 -35 15 -58.5t53 -23.5q33 0 62 23.5t36 58.5l65 373h152l-65 -373q-18 -100 -98 -162t-176 -62z" />
    <glyph glyph-name="V.sc" horiz-adv-x="525" 
d="M328 0h-132l-76 590h158l27 -342l148 342h160z" />
    <glyph glyph-name="W.sc" horiz-adv-x="776" 
d="M414 505h126l21 -231l151 316h165l-305 -590h-115l-22 271l-115 -271h-117l-95 590h163l41 -315z" />
    <glyph glyph-name="X.sc" horiz-adv-x="603" 
d="M377 434l123 156h182l-235 -276l148 -314h-179l-82 192l-148 -192h-178l257 314l-136 276h182z" />
    <glyph glyph-name="Y.sc" horiz-adv-x="592" 
d="M372 0h-152l47 264l-174 326h181l89 -208l165 208h177l-287 -329z" />
    <glyph glyph-name="Z.sc" horiz-adv-x="536" 
d="M62 110l306 348h-233l23 132h433l-20 -111l-310 -347h249l-23 -132h-444z" />
    <glyph glyph-name="Scaron.sc" horiz-adv-x="520" 
d="M565 788l-124 -153h-140l-67 153h97l55 -76l81 76h98zM71 178h153q-2 -25 11 -39.5t46 -14.5q67 0 75 42q4 28 -47 47l-64 24q-43 14 -71.5 37t-39 46.5t-15 48.5t1.5 44q15 82 82.5 132.5t158.5 50.5t139 -50t32 -138h-151q9 51 -47 51q-55 0 -63 -41q-1 -6 0.5 -12
t12.5 -14.5t31 -15.5l62 -21q157 -53 133 -181q-11 -63 -54.5 -106t-94.5 -60t-104 -17q-100 0 -151 50t-36 137z" />
    <glyph glyph-name="OE.sc" horiz-adv-x="934" 
d="M243 293q-11 -62 24.5 -106t97.5 -44t113.5 44t62.5 106q11 63 -25 107t-98 44q-61 0 -112.5 -44.5t-62.5 -106.5zM908 132l-23 -132h-395l4 28q-79 -37 -156 -37q-124 0 -197 88.5t-51 213.5q22 126 126 215t229 89q75 0 143 -39l6 32h387l-23 -132h-236l-19 -102h208
l-22 -130h-208l-17 -94h244z" />
    <glyph glyph-name="Ydieresis.sc" horiz-adv-x="592" 
d="M273 711q4 28 28 47t53 19q28 0 43.5 -19t10.5 -47q-5 -26 -27.5 -45t-50.5 -19t-45 19t-12 45zM436 711q4 28 28 47t53 19q28 0 43.5 -19t10.5 -47q-5 -26 -27.5 -45t-50.5 -19t-45 19t-12 45zM372 0h-152l47 264l-174 326h181l89 -208l165 208h177l-287 -329z" />
    <glyph glyph-name="exclamdown.sc" horiz-adv-x="303" 
d="M77 0l83 386h120l-54 -386h-149zM157 513q7 36 35.5 60t62.5 24q36 0 57.5 -24t14.5 -60q-7 -35 -36.5 -58t-65.5 -23q-35 0 -55 23t-13 58z" />
    <glyph glyph-name="questiondown.sc" horiz-adv-x="437" 
d="M258 385h126l-5 -30q-13 -82 -98 -126l-23 -12q-25 -12 -38.5 -22.5t-16 -15.5t-3.5 -14q-3 -18 7.5 -28t33.5 -10t41.5 14t22.5 38l127 -2q-17 -91 -74 -138.5t-139 -47.5q-81 0 -123.5 45.5t-29.5 122.5q11 61 47.5 102.5t90.5 60.5q26 9 38.5 23.5t15.5 39.5zM428 514
q-7 -35 -35.5 -58t-63.5 -23q-36 0 -57 23t-14 58q7 36 36 60t65 24q35 0 55.5 -24t13.5 -60z" />
    <glyph glyph-name="Agrave.sc" horiz-adv-x="600" 
d="M386 633l-90 155h133l48 -155h-91zM438 0l-26 133h-177l-71 -133h-162l320 590h164l112 -590h-160zM378 450l-83 -186h106z" />
    <glyph glyph-name="Aacute.sc" horiz-adv-x="600" 
d="M443 788h134l-146 -155h-92zM438 0l-26 133h-177l-71 -133h-162l320 590h164l112 -590h-160zM378 450l-83 -186h106z" />
    <glyph glyph-name="Acircumflex.sc" horiz-adv-x="600" 
d="M345 641h-98l123 152h140l69 -152h-99l-54 76zM438 0l-26 133h-177l-71 -133h-162l320 590h164l112 -590h-160zM378 450l-83 -186h106z" />
    <glyph glyph-name="Atilde.sc" horiz-adv-x="600" 
d="M438 0l-26 133h-177l-71 -133h-162l320 590h164l112 -590h-160zM378 450l-83 -186h106zM489 748h68q-14 -60 -44.5 -88t-63.5 -28q-17 0 -37.5 18t-30.5 18q-3 0 -8 -3t-10.5 -11.5t-8.5 -21.5h-67q14 60 44.5 88t63.5 28q17 0 38 -18t31 -18q3 0 7.5 3t10 11.5t7.5 21.5
z" />
    <glyph glyph-name="Adieresis.sc" horiz-adv-x="600" 
d="M279 711q4 27 28 46.5t52 19.5t44 -19t11 -47q-5 -26 -27.5 -45t-50.5 -19t-44.5 19t-12.5 45zM441 711q4 28 28.5 47t53.5 19q28 0 43 -19t10 -47q-5 -26 -26.5 -45t-49.5 -19q-29 0 -46.5 19t-12.5 45zM438 0l-26 133h-177l-71 -133h-162l320 590h164l112 -590h-160z
M378 450l-83 -186h106z" />
    <glyph glyph-name="Aring.sc" horiz-adv-x="600" 
d="M323 742q8 46 45 78t81 32q46 0 71.5 -32t17.5 -78q-8 -45 -45.5 -76.5t-83.5 -31.5q-44 0 -69 31.5t-17 76.5zM377 742q-4 -24 8 -39t34 -15q24 0 43 15t23 39t-9.5 40t-36.5 16q-22 0 -40 -16t-22 -40zM438 0l-26 133h-177l-71 -133h-162l320 590h164l112 -590h-160z
M378 450l-83 -186h106z" />
    <glyph glyph-name="AE.sc" horiz-adv-x="826" 
d="M174 0h-184l467 590h417l-23 -132h-236l-19 -102h206l-22 -128h-206l-17 -96h243l-23 -132h-396l21 127h-127zM350 255h76l25 148z" />
    <glyph glyph-name="Ccedilla.sc" horiz-adv-x="625" 
d="M508 216l109 -86q-49 -58 -114.5 -95t-135.5 -43q25 -34 18 -77q-8 -42 -40 -67t-73 -25q-44 0 -61.5 34.5t-9.5 80.5l63 -3q-12 -37 7 -48q16 -6 32 3.5t20 29.5q7 46 -30 75q-106 17 -163.5 101.5t-38.5 196.5q22 126 127 215t229 89q78 0 139 -37.5t90 -100.5
l-143 -88q-14 32 -44.5 51.5t-68.5 19.5q-61 0 -112.5 -43.5t-62.5 -105.5q-11 -61 24.5 -104.5t97.5 -43.5q80 0 141 71z" />
    <glyph glyph-name="Egrave.sc" horiz-adv-x="516" 
d="M346 633l-90 155h134l48 -155h-92zM490 132l-23 -132h-394l104 590h386l-23 -132h-235l-19 -102h207l-22 -130h-207l-17 -94h243z" />
    <glyph glyph-name="Eacute.sc" horiz-adv-x="516" 
d="M467 0l23 132h-243l17 94h207l22 130h-207l19 102h235l23 132h-386l-104 -590h394zM538 788l-146 -155h-92l104 155h134z" />
    <glyph glyph-name="Ecircumflex.sc" horiz-adv-x="516" 
d="M298 641h-97l122 152h140l70 -152h-99l-54 75zM490 132l-23 -132h-394l104 590h386l-23 -132h-235l-19 -102h207l-22 -130h-207l-17 -94h243z" />
    <glyph glyph-name="Edieresis.sc" horiz-adv-x="516" 
d="M467 0l23 132h-243l17 94h207l22 130h-207l19 102h235l23 132h-386l-104 -590h394zM234 711q4 27 28 46.5t52 19.5t44 -19t11 -47q-5 -26 -27.5 -45t-50.5 -19t-44.5 19t-12.5 45zM396 711q4 28 28.5 47t53.5 19q28 0 43 -19t10 -47q-5 -26 -26.5 -45t-49.5 -19
q-29 0 -46.5 19t-12.5 45z" />
    <glyph glyph-name="Igrave.sc" horiz-adv-x="297" 
d="M246 633l-90 155h133l49 -155h-92zM73 0l104 590h151l-104 -590h-151z" />
    <glyph glyph-name="Iacute.sc" horiz-adv-x="297" 
d="M286 786h133l-145 -158h-91zM73 0l104 590h151l-104 -590h-151z" />
    <glyph glyph-name="Icircumflex.sc" horiz-adv-x="297" 
d="M192 641h-97l122 152h140l69 -152h-98l-54 75zM73 0l104 590h151l-104 -590h-151z" />
    <glyph glyph-name="Idieresis.sc" horiz-adv-x="297" 
d="M125 711q4 27 28 46.5t52 19.5q29 0 44.5 -19t10.5 -47q-5 -27 -27 -45.5t-51 -18.5q-28 0 -44.5 19t-12.5 45zM288 711q4 28 28 47t53 19q28 0 43.5 -19t10.5 -47q-5 -26 -27 -45t-50 -19t-45.5 19t-12.5 45zM73 0l104 590h151l-104 -590h-151z" />
    <glyph glyph-name="Eth.sc" horiz-adv-x="633" 
d="M87 0l41 238h-80l17 93h80l46 259h235q124 0 181 -83.5t34 -213.5q-23 -129 -109 -211t-210 -82h-235zM383 331l-17 -93h-86l-18 -104h83q55 0 94.5 46.5t50.5 112.5q12 67 -10.5 115t-77.5 48h-83l-22 -125h86z" />
    <glyph glyph-name="Ntilde.sc" horiz-adv-x="598" 
d="M423 291l54 299h152l-104 -590h-132l-116 302l-53 -302h-151l104 590h136zM488 748h68q-14 -60 -44.5 -88t-63.5 -28q-17 0 -37.5 18t-30.5 18q-3 0 -8 -3t-10.5 -11.5t-8.5 -21.5h-67q14 60 44.5 88t63.5 28q17 0 38 -18t31 -18q3 0 7.5 3t10 11.5t7.5 21.5z" />
    <glyph glyph-name="Ograve.sc" horiz-adv-x="680" 
d="M407 633l-90 155h134l48 -155h-92zM243 293q-11 -62 24.5 -106t97.5 -44q61 0 112.5 44t62.5 106t-24.5 106.5t-97.5 44.5t-113 -44t-62 -107zM90 293q22 126 126 215t229 89q126 0 198 -89t49 -215q-22 -125 -125 -213.5t-229 -88.5q-124 0 -197 88.5t-51 213.5z" />
    <glyph glyph-name="Oacute.sc" horiz-adv-x="680" 
d="M495 788h133l-146 -155h-93zM243 293q11 63 62 107t113 44t97.5 -44.5t24.5 -106.5t-62.5 -106t-112.5 -44q-62 0 -97.5 44t-24.5 106zM90 293q-22 -125 51 -213.5t197 -88.5q126 0 229 88.5t125 213.5q23 126 -49 215t-198 89q-125 0 -229 -89t-126 -215z" />
    <glyph glyph-name="Ocircumflex.sc" horiz-adv-x="680" 
d="M385 641h-98l123 152h139l70 -152h-99l-53 75zM243 293q-11 -62 24.5 -106t97.5 -44q61 0 112.5 44t62.5 106t-24.5 106.5t-97.5 44.5t-113 -44t-62 -107zM90 293q22 126 126 215t229 89q126 0 198 -89t49 -215q-22 -125 -125 -213.5t-229 -88.5q-124 0 -197 88.5
t-51 213.5z" />
    <glyph glyph-name="Otilde.sc" horiz-adv-x="680" 
d="M243 293q-11 -62 24.5 -106t97.5 -44q61 0 112.5 44t62.5 106t-24.5 106.5t-97.5 44.5t-113 -44t-62 -107zM90 293q22 126 126 215t229 89q126 0 198 -89t49 -215q-22 -125 -125 -213.5t-229 -88.5q-124 0 -197 88.5t-51 213.5zM529 748h68q-13 -60 -44 -88t-64 -28
q-17 0 -37 18t-30 18q-3 0 -8 -3t-11 -11.5t-9 -21.5h-67q15 61 45.5 88.5t62.5 27.5q17 0 38 -18t31 -18q3 0 7.5 3t10 11.5t7.5 21.5z" />
    <glyph glyph-name="Odieresis.sc" horiz-adv-x="680" 
d="M316 711q4 27 28 46.5t52 19.5t44 -19t11 -47q-5 -26 -28 -45t-51 -19t-44.5 19t-11.5 45zM479 711q4 28 28 47t53 19q28 0 43.5 -19t10.5 -47q-5 -26 -27.5 -45t-50.5 -19q-29 0 -45.5 18.5t-11.5 45.5zM243 293q11 63 62 107t113 44t97.5 -44.5t24.5 -106.5t-62.5 -106
t-112.5 -44q-62 0 -97.5 44t-24.5 106zM90 293q-22 -125 51 -213.5t197 -88.5q126 0 229 88.5t125 213.5q23 126 -49 215t-198 89q-125 0 -229 -89t-126 -215z" />
    <glyph glyph-name="Oslash.sc" horiz-adv-x="680" 
d="M338 -9q-104 0 -174 65l-82 -71l-35 44l80 69q-57 86 -38 195q22 126 126 215t229 89q107 0 178 -68l79 68l35 -42l-80 -70q55 -84 35 -192q-23 -125 -125.5 -213.5t-227.5 -88.5zM242 293q-8 -48 9 -86l246 212q-30 26 -79 26q-62 0 -113.5 -44.5t-62.5 -107.5zM364 142
q61 0 113 44.5t63 106.5q7 40 -11 81q-21 -18 -107 -92t-133 -115q34 -25 75 -25z" />
    <glyph glyph-name="Ugrave.sc" horiz-adv-x="603" 
d="M383 633l-90 155h133l48 -155h-91zM300 -9q-96 0 -154.5 62.5t-41.5 161.5l66 373h151l-65 -373q-6 -35 15 -58.5t53 -23.5q33 0 62 23.5t36 58.5l65 373h152l-66 -373q-17 -100 -97 -162t-176 -62z" />
    <glyph glyph-name="Uacute.sc" horiz-adv-x="603" 
d="M463 788h134l-147 -155h-92zM300 -9q-96 0 -154.5 62.5t-41.5 161.5l66 373h151l-65 -373q-6 -35 15 -58.5t53 -23.5q33 0 62 23.5t36 58.5l65 373h152l-66 -373q-17 -100 -97 -162t-176 -62z" />
    <glyph glyph-name="Ucircumflex.sc" horiz-adv-x="603" 
d="M346 641h-97l123 152h140l68 -152h-99l-53 75zM300 -9q-96 0 -154.5 62.5t-41.5 161.5l66 373h151l-65 -373q-6 -35 15 -58.5t53 -23.5q33 0 62 23.5t36 58.5l65 373h152l-66 -373q-17 -100 -97 -162t-176 -62z" />
    <glyph glyph-name="Udieresis.sc" horiz-adv-x="603" 
d="M279 711q4 27 28 46.5t52 19.5t44 -19t11 -47q-5 -26 -28 -45t-51 -19t-44.5 19t-11.5 45zM441 711q4 28 28.5 47t53.5 19q28 0 43 -19t10 -47q-5 -26 -27 -45t-50 -19q-29 0 -46 19t-12 45zM300 -9q-96 0 -154.5 62.5t-41.5 161.5l66 373h151l-65 -373q-6 -35 15 -58.5
t53 -23.5q33 0 62 23.5t36 58.5l65 373h152l-66 -373q-17 -100 -97 -162t-176 -62z" />
    <glyph glyph-name="Yacute.sc" horiz-adv-x="592" 
d="M453 788h133l-147 -155h-92zM372 0h-152l47 264l-174 326h181l89 -208l165 208h177l-287 -329z" />
    <glyph glyph-name="Thorn.sc" horiz-adv-x="508" 
d="M387 296q7 35 -6.5 55t-44.5 20h-47l-26 -148h55q27 0 45 21t24 52zM303 98h-63l-16 -98h-151l104 590h151l-17 -94h63q83 0 130 -54.5t31 -143.5q-16 -88 -82.5 -144t-149.5 -56z" />
    <glyph glyph-name="Amacron.sc" horiz-adv-x="600" 
d="M555 733l-13 -79h-252l13 79h252zM438 0l-26 133h-177l-71 -133h-162l320 590h164l112 -590h-160zM378 450l-83 -186h106z" />
    <glyph glyph-name="Abreve.sc" horiz-adv-x="600" 
d="M316 762h80q-4 -22 2.5 -32t27.5 -10q36 0 43 42h82q-9 -52 -47.5 -84.5t-90.5 -32.5q-56 0 -80.5 35t-16.5 82zM438 0l-26 133h-177l-71 -133h-162l320 590h164l112 -590h-160zM378 450l-83 -186h106z" />
    <glyph glyph-name="Cacute.sc" horiz-adv-x="623" 
d="M616 130l-110 86q-59 -71 -140 -71q-62 0 -97.5 43.5t-24.5 104.5q11 62 62.5 105.5t112.5 43.5q38 0 68.5 -19.5t44.5 -51.5l143 88q-29 63 -90 100.5t-139 37.5q-124 0 -229 -89t-127 -215q-22 -124 51.5 -213t197.5 -89q77 0 149 37.5t128 101.5zM498 788h134
l-146 -155h-92z" />
    <glyph glyph-name="Ccircumflex.sc" horiz-adv-x="623" 
d="M390 667h-97l122 152h140l69 -152h-99l-54 76zM506 216l110 -86q-56 -64 -128 -101.5t-149 -37.5q-124 0 -197.5 89t-51.5 213q22 126 127 215t229 89q78 0 139 -37.5t90 -100.5l-143 -88q-14 32 -44.5 51.5t-68.5 19.5q-61 0 -112.5 -43.5t-62.5 -105.5
q-11 -61 24.5 -104.5t97.5 -43.5q81 0 140 71z" />
    <glyph glyph-name="Cdotaccent.sc" horiz-adv-x="623" 
d="M616 130l-110 86q-59 -71 -140 -71q-62 0 -97.5 43.5t-24.5 104.5q11 62 62.5 105.5t112.5 43.5q38 0 68.5 -19.5t44.5 -51.5l143 88q-29 63 -90 100.5t-139 37.5q-124 0 -229 -89t-127 -215q-22 -124 51.5 -213t197.5 -89q77 0 149 37.5t128 101.5zM393 717
q5 31 30 51.5t57 20.5q31 0 49 -20.5t13 -51.5q-5 -32 -31 -52.5t-57 -20.5q-32 0 -49 20.5t-12 52.5z" />
    <glyph glyph-name="Ccaron.sc" horiz-adv-x="623" 
d="M656 813l-122 -152h-140l-70 152h98l55 -75l80 75h99zM506 216l110 -86q-56 -64 -128 -101.5t-149 -37.5q-124 0 -197.5 89t-51.5 213q22 126 127 215t229 89q78 0 139 -37.5t90 -100.5l-143 -88q-14 32 -44.5 51.5t-68.5 19.5q-61 0 -112.5 -43.5t-62.5 -105.5
q-11 -61 24.5 -104.5t97.5 -43.5q81 0 140 71z" />
    <glyph glyph-name="Dcaron.sc" horiz-adv-x="618" 
d="M607 788l-124 -153h-139l-68 153h98l54 -77l81 77h98zM307 0h-234l104 589h234q124 0 181 -83.5t34 -212.5t-109 -211t-210 -82zM387 456h-83l-57 -323h83q56 0 95 46.5t51 113.5q11 67 -11.5 115t-77.5 48z" />
    <glyph glyph-name="Aogonek.sc" horiz-adv-x="600" 
d="M486 590l112 -590q-56 -40 -62 -80q-4 -20 9.5 -29.5t28.5 -3.5q24 10 28 48l63 3q-7 -47 -35.5 -81t-75.5 -34q-42 0 -66 25t-16 67q8 49 49 80l7 5h-90l-26 133h-177l-71 -133h-162l320 590h164zM378 450l-83 -186h106z" />
    <glyph glyph-name="Emacron.sc" horiz-adv-x="516" 
d="M508 733l-13 -79h-252l13 79h252zM490 132l-23 -132h-394l104 590h386l-23 -132h-235l-19 -102h207l-22 -130h-207l-17 -94h243z" />
    <glyph glyph-name="Ebreve.sc" horiz-adv-x="516" 
d="M467 0l23 132h-243l17 94h207l22 130h-207l19 102h235l23 132h-386l-104 -590h394zM276 762h80q-4 -22 2.5 -32t27.5 -10q36 0 43 42h82q-9 -52 -47.5 -84.5t-90.5 -32.5q-56 0 -80.5 35t-16.5 82z" />
    <glyph glyph-name="Edotaccent.sc" horiz-adv-x="516" 
d="M467 0l23 132h-243l17 94h207l22 130h-207l19 102h235l23 132h-386l-104 -590h394zM312 717q5 31 30 51.5t57 20.5q31 0 49 -20.5t13 -51.5q-5 -32 -31 -52.5t-57 -20.5q-32 0 -49 20.5t-12 52.5z" />
    <glyph glyph-name="Ecaron.sc" horiz-adv-x="516" 
d="M559 788l-125 -153h-140l-67 153h97l55 -77l81 77h99zM490 132l-23 -132h-394l104 590h386l-23 -132h-235l-19 -102h207l-22 -130h-207l-17 -94h243z" />
    <glyph glyph-name="Gcircumflex.sc" horiz-adv-x="662" 
d="M663 488l-129 -95q-37 63 -111 63q-63 0 -115.5 -47.5t-64.5 -115.5q-12 -66 23.5 -115.5t98.5 -49.5q101 0 138 77h-160l20 113h328q-30 -165 -123 -246t-227 -81q-128 0 -200.5 88.5t-50.5 213.5q23 127 126.5 215.5t231.5 88.5q72 0 128 -29t87 -80zM393 667h-97
l122 152h140l69 -152h-99l-54 76z" />
    <glyph glyph-name="Gbreve.sc" horiz-adv-x="662" 
d="M360 762h81q-4 -22 3 -32t28 -10q34 0 41 42h83q-9 -52 -47.5 -84.5t-90.5 -32.5q-56 0 -81 35t-17 82zM663 488l-129 -95q-37 63 -111 63q-63 0 -115.5 -47.5t-64.5 -115.5q-12 -66 23.5 -115.5t98.5 -49.5q101 0 138 77h-160l20 113h328q-30 -165 -123 -246t-227 -81
q-128 0 -200.5 88.5t-50.5 213.5q23 127 126.5 215.5t231.5 88.5q72 0 128 -29t87 -80z" />
    <glyph glyph-name="Eogonek.sc" horiz-adv-x="516" 
d="M467 0q-56 -40 -62 -80q-4 -20 9.5 -29.5t28.5 -3.5q24 10 28 48l63 3q-7 -47 -35 -81t-76 -34q-42 0 -66 25t-16 67q7 44 56 85h-324l104 590h386l-23 -132h-235l-19 -102h207l-22 -130h-207l-17 -94h243z" />
    <glyph glyph-name="Dcroat.sc" horiz-adv-x="633" 
d="M87 0l41 238h-80l17 93h80l46 259h235q124 0 181 -83.5t34 -213.5q-23 -129 -109 -211t-210 -82h-235zM383 331l-17 -93h-86l-18 -104h83q55 0 94.5 46.5t50.5 112.5q12 67 -10.5 115t-77.5 48h-83l-22 -125h86z" />
    <glyph glyph-name="Gdotaccent.sc" horiz-adv-x="662" 
d="M400 717q5 31 30 51.5t56 20.5q32 0 49.5 -20.5t12.5 -51.5q-5 -32 -30.5 -52.5t-57.5 -20.5q-31 0 -48 20.5t-12 52.5zM663 488l-129 -95q-37 63 -111 63q-63 0 -115.5 -47.5t-64.5 -115.5q-12 -66 23.5 -115.5t98.5 -49.5q101 0 138 77h-160l20 113h328
q-30 -165 -123 -246t-227 -81q-128 0 -200.5 88.5t-50.5 213.5q23 127 126.5 215.5t231.5 88.5q72 0 128 -29t87 -80z" />
    <glyph glyph-name="Hcircumflex.sc" horiz-adv-x="617" 
d="M353 641h-97l122 152h140l69 -152h-99l-54 76zM287 361h166l41 229h154l-104 -590h-154l39 225h-166l-39 -225h-151l104 590h151z" />
    <glyph glyph-name="Hbar.sc" horiz-adv-x="631" 
d="M231 0h-152l75 432h-62l14 74h62l15 84h152l-15 -84h166l15 84h154l-15 -84h63l-14 -74h-63l-75 -432h-154l40 226h-166zM472 432h-166l-12 -71h166z" />
    <glyph glyph-name="Itilde.sc" horiz-adv-x="297" 
d="M73 0l104 590h151l-104 -590h-151zM333 748h68q-14 -60 -44.5 -88t-63.5 -28q-17 0 -37.5 18t-30.5 18q-3 0 -8 -3t-10.5 -11.5t-8.5 -21.5h-67q14 60 44.5 88t63.5 28q17 0 38 -18t31 -18q3 0 7.5 3t10 11.5t7.5 21.5z" />
    <glyph glyph-name="Imacron.sc" horiz-adv-x="297" 
d="M404 733l-13 -79h-252l13 79h252zM73 0l104 590h151l-104 -590h-151z" />
    <glyph glyph-name="Iogonek.sc" horiz-adv-x="297" 
d="M328 590l-104 -590q-56 -40 -62 -80q-4 -20 9.5 -29.5t28.5 -3.5q24 10 28 48l63 3q-17 -115 -111 -115q-42 0 -66 25t-16 67q7 45 56 85h-81l104 590h151z" />
    <glyph glyph-name="IJ.sc" horiz-adv-x="596" 
d="M73 0l104 590h151l-104 -590h-151zM188 -189l37 136q30 -10 85 -10q48 0 59 62l105 591h153l-105 -591q-16 -91 -75.5 -148t-161.5 -57q-55 0 -97 17z" />
    <glyph glyph-name="Jcircumflex.sc" horiz-adv-x="299" 
d="M193 641h-98l123 152h139l69 -152h-98l-55 75zM-107 -189l37 136q30 -10 83 -10q48 0 59 62l105 591h153l-105 -591q-16 -90 -75.5 -147.5t-160.5 -57.5q-55 0 -96 17z" />
    <glyph glyph-name="Lacute.sc" horiz-adv-x="446" 
d="M434 0l23 132h-208l81 458h-153l-104 -590h361zM290 788h133l-146 -155h-93z" />
    <glyph glyph-name="Lcaron.sc" horiz-adv-x="476" 
d="M457 132l-23 -132h-361l104 590h153l-81 -458h208zM459 590h133l-146 -155h-93z" />
    <glyph glyph-name="Ldot.sc" horiz-adv-x="453" 
d="M457 132l-23 -132h-361l104 590h153l-81 -458h208zM334 285q6 32 30.5 52t56.5 20q31 0 49.5 -20.5t12.5 -51.5q-6 -32 -31 -52.5t-56 -20.5q-33 0 -50.5 20.5t-11.5 52.5z" />
    <glyph glyph-name="Nacute.sc" horiz-adv-x="598" 
d="M477 590l-54 -299l-110 299h-136l-104 -590h151l53 302l116 -302h132l104 590h-152zM433 788h134l-146 -155h-92z" />
    <glyph glyph-name="Ncaron.sc" horiz-adv-x="598" 
d="M605 788l-125 -153h-139l-68 153h98l54 -77l81 77h99zM423 291l54 299h152l-104 -590h-132l-116 302l-53 -302h-151l104 590h136z" />
    <glyph glyph-name="Omacron.sc" horiz-adv-x="680" 
d="M594 733l-13 -79h-251l13 79h251zM243 293q-11 -62 24.5 -106t97.5 -44q61 0 112.5 44t62.5 106t-24.5 106.5t-97.5 44.5t-113 -44t-62 -107zM90 293q22 126 126 215t229 89q126 0 198 -89t49 -215q-22 -125 -125 -213.5t-229 -88.5q-124 0 -197 88.5t-51 213.5z" />
    <glyph glyph-name="Obreve.sc" horiz-adv-x="680" 
d="M355 762h80q-4 -22 3.5 -32t28.5 -10q35 0 42 42h83q-9 -51 -48.5 -84t-90.5 -33q-56 0 -81 35t-17 82zM243 293q11 63 62 107t113 44t97.5 -44.5t24.5 -106.5t-62.5 -106t-112.5 -44q-62 0 -97.5 44t-24.5 106zM90 293q-22 -125 51 -213.5t197 -88.5q126 0 229 88.5
t125 213.5q23 126 -49 215t-198 89q-125 0 -229 -89t-126 -215z" />
    <glyph glyph-name="Ohungarumlaut.sc" horiz-adv-x="680" 
d="M472 631l116 154h96l-124 -154h-88zM351 631l104 154h92l-114 -154h-82zM243 293q-11 -62 24.5 -106t97.5 -44q61 0 112.5 44t62.5 106t-24.5 106.5t-97.5 44.5t-113 -44t-62 -107zM90 293q22 126 126 215t229 89q126 0 198 -89t49 -215q-22 -125 -125 -213.5t-229 -88.5
q-124 0 -197 88.5t-51 213.5z" />
    <glyph glyph-name="Racute.sc" horiz-adv-x="568" 
d="M407 788h133l-145 -155h-92zM305 458h87q59 0 47 -67q-5 -28 -22.5 -47.5t-48.5 -19.5h-88zM224 0l34 194h5l91 -194h174l-109 202q70 19 115.5 71.5t57.5 117.5q15 81 -28 140t-142 59h-245l-104 -590h151z" />
    <glyph glyph-name="Rcaron.sc" horiz-adv-x="568" 
d="M582 788l-125 -153h-140l-66 153h96l56 -76l80 76h99zM392 458h-87l-25 -134h88q31 0 48.5 19.5t22.5 47.5q12 67 -47 67zM258 194l-34 -194h-151l104 590h245q99 0 142 -59t28 -140q-12 -65 -57.5 -117.5t-115.5 -71.5l109 -202h-174l-91 194h-5z" />
    <glyph glyph-name="Sacute.sc" horiz-adv-x="520" 
d="M224 178h-153q-15 -87 36 -137t151 -50q53 0 104 17t94.5 60t54.5 106q24 128 -133 181l-62 21q-20 7 -31 15.5t-12.5 14.5t-0.5 12q8 41 63 41q56 0 47 -51h151q16 88 -32 138t-139 50t-158.5 -50.5t-82.5 -132.5q-6 -19 -1.5 -44t15 -48.5t39 -46.5t71.5 -37l64 -24
q51 -19 47 -47q-8 -42 -75 -42q-33 0 -46 14.5t-11 39.5zM418 788h133l-145 -155h-92z" />
    <glyph glyph-name="Scircumflex.sc" horiz-adv-x="520" 
d="M305 641h-98l123 152h140l69 -152h-98l-54 76zM71 178h153q-2 -25 11 -39.5t46 -14.5q67 0 75 42q4 28 -47 47l-64 24q-43 14 -71.5 37t-39 46.5t-15 48.5t1.5 44q15 82 82.5 132.5t158.5 50.5t139 -50t32 -138h-151q9 51 -47 51q-55 0 -63 -41q-1 -6 0.5 -12t12.5 -14.5
t31 -15.5l62 -21q157 -53 133 -181q-11 -63 -54.5 -106t-94.5 -60t-104 -17q-100 0 -151 50t-36 137z" />
    <glyph glyph-name="Scedilla.sc" horiz-adv-x="522" 
d="M72 178h153q-2 -25 11 -39.5t46 -14.5q30 0 50.5 11t24.5 31q4 28 -47 47l-63 24q-43 14 -72 37t-39.5 46.5t-15 48.5t1.5 44q15 82 82.5 132.5t158.5 50.5t139 -50t32 -138h-151q11 51 -47 51q-55 0 -63 -41q-1 -6 0.5 -12t12.5 -14.5t31 -15.5l62 -21q157 -53 133 -181
q-15 -79 -73 -123.5t-133 -55.5q28 -36 21 -80q-8 -42 -40 -67t-74 -25q-44 0 -61.5 34.5t-9.5 80.5l63 -3q-11 -37 8 -48q15 -6 31.5 3.5t20.5 29.5q6 42 -26 72q-91 5 -136 54.5t-31 131.5z" />
    <glyph glyph-name="Utilde.sc" horiz-adv-x="603" 
d="M300 -9q-96 0 -154.5 62.5t-41.5 161.5l66 373h151l-65 -373q-6 -35 15 -58.5t53 -23.5q33 0 62 23.5t36 58.5l65 373h152l-66 -373q-17 -100 -97 -162t-176 -62zM483 748h68q-13 -60 -44 -88t-64 -28q-17 0 -37 18t-30 18q-3 0 -8 -3t-11 -11.5t-9 -21.5h-67
q15 61 45.5 88.5t62.5 27.5q17 0 38 -18t31 -18q3 0 7.5 3t10 11.5t7.5 21.5z" />
    <glyph glyph-name="Umacron.sc" horiz-adv-x="603" 
d="M558 733l-14 -79h-251l14 79h251zM300 -9q-96 0 -154.5 62.5t-41.5 161.5l66 373h151l-65 -373q-6 -35 15 -58.5t53 -23.5q33 0 62 23.5t36 58.5l65 373h152l-66 -373q-17 -100 -97 -162t-176 -62z" />
    <glyph glyph-name="Ubreve.sc" horiz-adv-x="603" 
d="M318 762h81q-3 -22 3.5 -32t27.5 -10q34 0 41 42h83q-9 -52 -48 -84.5t-90 -32.5q-56 0 -81 34.5t-17 82.5zM300 -9q-96 0 -154.5 62.5t-41.5 161.5l66 373h151l-65 -373q-6 -35 15 -58.5t53 -23.5q33 0 62 23.5t36 58.5l65 373h152l-66 -373q-17 -100 -97 -162t-176 -62
z" />
    <glyph glyph-name="Uring.sc" horiz-adv-x="603" 
d="M300 -9q-96 0 -154.5 62.5t-41.5 161.5l66 373h151l-65 -373q-6 -35 15 -58.5t53 -23.5q33 0 62 23.5t36 58.5l65 373h152l-66 -373q-17 -100 -97 -162t-176 -62zM326 742q8 46 45 78t81 32q46 0 71.5 -32t17.5 -78q-8 -45 -45.5 -76.5t-83.5 -31.5q-44 0 -69 31.5
t-17 76.5zM380 742q-4 -24 8 -39t34 -15q24 0 43 15t23 39t-9.5 40t-36.5 16q-22 0 -40 -16t-22 -40z" />
    <glyph glyph-name="Uhungarumlaut.sc" horiz-adv-x="603" 
d="M300 -9q-96 0 -154.5 62.5t-41.5 161.5l66 373h151l-65 -373q-6 -35 15 -58.5t53 -23.5q33 0 62 23.5t36 58.5l65 373h152l-66 -373q-17 -100 -97 -162t-176 -62zM416 631l116 154h96l-124 -154h-88zM295 631l104 154h92l-114 -154h-82z" />
    <glyph glyph-name="Uogonek.sc" horiz-adv-x="603" 
d="M326 -7q-47 -32 -53 -73q-4 -20 9.5 -29.5t29.5 -3.5q23 11 28 48l63 3q-7 -47 -35 -81t-76 -34q-42 0 -66.5 25.5t-16.5 66.5q7 44 49 79q-81 13 -125.5 72.5t-28.5 148.5l66 373h150l-65 -373q-6 -35 15 -58.5t53 -23.5q33 0 62 23.5t36 58.5l65 373h153l-66 -373
q-16 -92 -87 -152.5t-160 -69.5z" />
    <glyph glyph-name="Wcircumflex.sc" horiz-adv-x="776" 
d="M433 641h-97l121 152h141l69 -152h-99l-53 76zM414 505h126l21 -231l151 316h165l-305 -590h-115l-22 271l-115 -271h-117l-95 590h163l41 -315z" />
    <glyph glyph-name="Ycircumflex.sc" horiz-adv-x="592" 
d="M340 641h-97l122 152h140l69 -152h-99l-53 76zM372 0h-152l47 264l-174 326h181l89 -208l165 208h177l-287 -329z" />
    <glyph glyph-name="Tcaron.sc" horiz-adv-x="480" 
d="M541 788l-125 -153h-140l-67 153h97l55 -77l81 77h99zM165 0l81 458h-150l23 132h450l-23 -132h-150l-81 -458h-150z" />
    <glyph glyph-name="Tbar.sc" horiz-adv-x="482" 
d="M206 235h-104l15 83h104l26 140h-150l23 132h450l-23 -132h-150l-26 -140h100l-15 -83h-100l-40 -235h-150z" />
    <glyph glyph-name="Zacute.sc" horiz-adv-x="536" 
d="M62 110l306 348h-233l23 132h433l-20 -111l-310 -347h249l-23 -132h-444zM430 788h135l-146 -155h-93z" />
    <glyph glyph-name="Zdotaccent.sc" horiz-adv-x="536" 
d="M62 110l306 348h-233l23 132h433l-20 -111l-310 -347h249l-23 -132h-444zM313 717q5 31 30 51.5t57 20.5q31 0 49 -20.5t13 -51.5q-5 -32 -31 -52.5t-57 -20.5q-32 0 -49 20.5t-12 52.5z" />
    <glyph glyph-name="Wgrave.sc" horiz-adv-x="776" 
d="M448 633l-89 155h133l48 -155h-92zM414 505h126l21 -231l151 316h165l-305 -590h-115l-22 271l-115 -271h-117l-95 590h163l41 -315z" />
    <glyph glyph-name="Wacute.sc" horiz-adv-x="776" 
d="M540 505h-126l-102 -230l-41 315h-163l95 -590h117l115 271l22 -271h115l305 590h-165l-151 -316zM697 788l-147 -155h-92l106 155h133z" />
    <glyph glyph-name="Wdieresis.sc" horiz-adv-x="776" 
d="M540 505h-126l-102 -230l-41 315h-163l95 -590h117l115 271l22 -271h115l305 590h-165l-151 -316zM363 711q4 27 28 46.5t52 19.5t44 -19t11 -47q-5 -26 -28 -45t-51 -19t-44.5 19t-11.5 45zM525 711q4 28 28.5 47t53.5 19q28 0 43 -19t10 -47q-5 -26 -27 -45t-50 -19
q-29 0 -46 19t-12 45z" />
    <glyph glyph-name="Aringacute.sc" horiz-adv-x="600" 
d="M438 0l-26 133h-177l-71 -133h-162l320 590h164l112 -590h-160zM621 971l-126 -131q25 -14 37 -40t6 -58q-8 -45 -45.5 -76.5t-83.5 -31.5q-44 0 -69 31.5t-17 76.5q6 32 26.5 58.5t49.5 40.5l88 130h134zM378 450l-83 -186h106zM377 742q-4 -24 8 -39t34 -15q24 0 43 15
t23 39t-9.5 40t-36.5 16q-22 0 -40 -16t-22 -40z" />
    <glyph glyph-name="AEacute.sc" horiz-adv-x="826" 
d="M578 788h133l-145 -155h-92zM-10 0h184l101 127h127l-21 -127h396l23 132h-243l17 96h206l22 128h-206l19 102h236l23 132h-417zM426 255h-76l101 148z" />
    <glyph glyph-name="Oslashacute.sc" horiz-adv-x="680" 
d="M512 788h134l-147 -155h-92zM338 -9q125 0 227.5 88.5t125.5 213.5q20 108 -35 192l80 70l-35 42l-79 -68q-71 68 -178 68q-125 0 -229 -89t-126 -215q-19 -109 38 -195l-80 -69l35 -44l82 71q70 -65 174 -65zM242 293q11 63 62.5 107.5t113.5 44.5q49 0 79 -26
l-246 -212q-17 38 -9 86zM364 142q-41 0 -75 25q47 41 133 115t107 92q18 -41 11 -81q-11 -62 -63 -106.5t-113 -44.5z" />
    <glyph glyph-name="Ibreve.sc" horiz-adv-x="297" 
d="M166 762h81q-4 -23 2.5 -32.5t27.5 -9.5q35 0 42 42h83q-9 -52 -48 -84.5t-90 -32.5q-56 0 -81 34.5t-17 82.5zM73 0l104 590h151l-104 -590h-151z" />
    <glyph glyph-name="Eng.sc" horiz-adv-x="597" 
d="M381 10l-104 294l-53 -304h-151l104 590h135l110 -310l55 310h151l-105 -592q-17 -91 -76 -148t-161 -57q-54 0 -97 17l37 134q29 -10 84 -10q26 0 45.5 21.5t25.5 54.5z" />
    <glyph glyph-name="Ygrave.sc" horiz-adv-x="592" 
d="M364 633l-90 155h133l48 -155h-91zM372 0h-152l47 264l-174 326h181l89 -208l165 208h177l-287 -329z" />
    <glyph glyph-name="Gcommaaccent.sc" horiz-adv-x="662" 
d="M243 -266l-61 42q77 86 91 166h118q-21 -115 -148 -208zM663 488l-129 -95q-37 63 -111 63q-63 0 -115.5 -47.5t-64.5 -115.5q-12 -66 23.5 -115.5t98.5 -49.5q101 0 138 77h-160l20 113h328q-30 -165 -123 -246t-227 -81q-128 0 -200.5 88.5t-50.5 213.5
q23 127 126.5 215.5t231.5 88.5q72 0 128 -29t87 -80z" />
    <glyph glyph-name="Kcommaaccent.sc" horiz-adv-x="565" 
d="M353 299l224 -299h-209l-115 169l-29 -169h-151l104 590h151l-28 -157l135 157h192zM193 -266l-61 42q77 86 91 166h118q-21 -115 -148 -208z" />
    <glyph glyph-name="Lcommaaccent.sc" horiz-adv-x="446" 
d="M457 132l-23 -132h-361l104 590h153l-81 -458h208zM152 -266l-61 42q77 86 91 166h118q-21 -115 -148 -208z" />
    <glyph glyph-name="Ncommaaccent.sc" horiz-adv-x="598" 
d="M423 291l54 299h152l-104 -590h-132l-116 302l-53 -302h-151l104 590h136zM206 -266l-61 42q77 86 91 166h118q-21 -115 -148 -208z" />
    <glyph glyph-name="Rcommaaccent.sc" horiz-adv-x="568" 
d="M392 458h-87l-25 -134h88q31 0 48.5 19.5t22.5 47.5q12 67 -47 67zM258 194l-34 -194h-151l104 590h245q99 0 142 -59t28 -140q-12 -65 -57.5 -117.5t-115.5 -71.5l109 -202h-174l-91 194h-5zM189 -266l-61 42q77 86 91 166h118q-21 -115 -148 -208z" />
    <glyph glyph-name="Tcommaaccent.sc" horiz-adv-x="480" 
d="M165 0l81 458h-150l23 132h450l-23 -132h-150l-81 -458h-150zM134 -266l-61 42q77 86 91 166h118q-21 -115 -148 -208z" />
    <glyph glyph-name="Scommaaccent.sc" horiz-adv-x="520" 
d="M71 178h153q-2 -25 11 -39.5t46 -14.5q67 0 75 42q4 28 -47 47l-64 24q-43 14 -71.5 37t-39 46.5t-15 48.5t1.5 44q15 82 82.5 132.5t158.5 50.5t139 -50t32 -138h-151q9 51 -47 51q-55 0 -63 -41q-1 -6 0.5 -12t12.5 -14.5t31 -15.5l62 -21q157 -53 133 -181
q-11 -63 -54.5 -106t-94.5 -60t-104 -17q-100 0 -151 50t-36 137zM167 -266l-61 42q77 86 91 166h118q-21 -115 -148 -208z" />
    <glyph glyph-name="Idotaccent.sc" horiz-adv-x="297" 
d="M205 720q5 30 29 50t55 20q30 0 47 -20t12 -50q-5 -31 -29.5 -51t-54.5 -20q-31 0 -47.5 20t-11.5 51zM73 0l104 590h151l-104 -590h-151z" />
    <glyph glyph-name="zero.numr" horiz-adv-x="361" 
d="M112 458q37 203 186 203q150 0 113 -203q-36 -201 -184 -201q-151 0 -115 201zM215 458q-18 -102 29 -102q45 0 63 102q18 103 -26 103q-48 0 -66 -103z" />
    <glyph glyph-name="one.numr" horiz-adv-x="242" 
d="M119 576l193 91l-72 -405h-106l45 259l-75 -32z" />
    <glyph glyph-name="two.numr" horiz-adv-x="341" 
d="M84 323l200 187q16 20 10 35.5t-28 15.5q-35 0 -50 -40l-95 14q45 126 170 126q54 0 87 -34.5t23 -87.5q-10 -56 -58 -98l-100 -88h127l-16 -91h-281z" />
    <glyph glyph-name="three.numr" horiz-adv-x="338" 
d="M221 429h-42l13 74h42q45 0 51 37q2 12 -6.5 21.5t-30.5 9.5q-39 0 -65 -25l-45 57q52 58 143 58q54 0 85.5 -33.5t22.5 -77.5q-7 -47 -70 -76q68 -26 59 -88t-61 -95.5t-119 -33.5q-47 0 -80.5 17.5t-43.5 50.5l63 54q20 -37 73 -37q30 0 47.5 13.5t20.5 33.5
q4 18 -13.5 29t-43.5 11z" />
    <glyph glyph-name="four.numr" horiz-adv-x="379" 
d="M280 442l22 122l-84 -122h62zM385 442h45l-15 -87h-45l-16 -93h-105l16 93h-197l215 301h141z" />
    <glyph glyph-name="five.numr" horiz-adv-x="362" 
d="M310 408q4 22 -11.5 37t-42.5 15q-54 0 -115 -40l-30 20l68 216h244l-15 -87h-162l-17 -54q33 23 76 23q53 0 84 -36t21 -94q-12 -65 -66.5 -108.5t-132.5 -43.5q-40 0 -75.5 20t-56.5 52l88 60q10 -13 14.5 -18.5t17.5 -13.5t28 -8q31 0 54.5 18t28.5 42z" />
    <glyph glyph-name="six.numr" horiz-adv-x="361" 
d="M208 390q-2 -19 7.5 -32t31.5 -13q23 0 39.5 13.5t19.5 31.5q3 16 -8 29t-35 13q-21 0 -37 -13t-18 -29zM303 514q42 0 78 -29.5t25 -88.5q-11 -61 -58 -100t-122 -39q-57 0 -89.5 37.5t-31.5 100.5q0 47 12 92.5t36 86.5t66.5 65t97.5 22q43 -2 71.5 -18.5t41.5 -58.5
l-85 -40q-7 31 -47 31q-65 0 -92 -104q6 15 31 29t66 14z" />
    <glyph glyph-name="seven.numr" horiz-adv-x="322" 
d="M271 563h-152l16 93h298l-217 -394h-113z" />
    <glyph glyph-name="eight.numr" horiz-adv-x="370" 
d="M201 389q-3 -21 8.5 -34.5t36.5 -13.5t41 13.5t19 34.5q3 18 -8 31.5t-35 13.5q-25 0 -41.5 -12t-20.5 -33zM148 555q9 47 54.5 76.5t100.5 29.5q54 0 86 -29.5t24 -76.5q-4 -23 -19 -45.5t-33 -28.5q26 -4 41 -35.5t9 -63.5q-10 -57 -61.5 -91t-118.5 -34t-107 34
t-30 91q7 34 28.5 63t53.5 36q-17 9 -24.5 31t-3.5 43zM242 551q-3 -16 6 -26.5t29 -10.5q39 0 46 37q2 13 -7 23.5t-27 10.5q-41 0 -47 -34z" />
    <glyph glyph-name="nine.numr" horiz-adv-x="362" 
d="M316 528q3 18 -7 31t-33 13t-38.5 -13t-18.5 -31q-3 -16 7 -29t34 -13q21 0 37.5 13.5t18.5 28.5zM220 404q-16 0 -33.5 5.5t-37 17.5t-29 36.5t-3.5 58.5q11 61 58 100t122 39q58 0 90.5 -37t31.5 -101q-1 -48 -13 -93t-36 -86t-66.5 -65t-97.5 -22q-42 2 -70.5 18.5
t-42.5 58.5l85 39q9 -30 47 -30q66 0 93 104q-6 -14 -33 -28.5t-65 -14.5z" />
    <glyph glyph-name="zero.dnom" horiz-adv-x="361" 
d="M65 196q36 203 187 203q148 0 112 -203q-36 -201 -183 -201q-152 0 -116 201zM168 196q-18 -102 30 -102q44 0 62 102q18 103 -26 103q-48 0 -66 -103z" />
    <glyph glyph-name="one.dnom" horiz-adv-x="242" 
d="M73 314l193 91l-71 -405h-106l45 259l-75 -32z" />
    <glyph glyph-name="two.dnom" horiz-adv-x="341" 
d="M37 61l200 187q17 20 10.5 35.5t-28.5 15.5q-35 0 -48 -40l-95 14q41 126 169 126q54 0 87 -34.5t23 -87.5q-12 -57 -58 -98l-101 -88h128l-15 -91h-281z" />
    <glyph glyph-name="three.dnom" horiz-adv-x="337" 
d="M174 167h-42l13 74h42q46 0 52 37q2 12 -7.5 21.5t-31.5 9.5q-37 0 -64 -25l-45 57q52 58 143 58q54 0 85 -33.5t23 -77.5q-10 -49 -69 -76q66 -27 57 -88q-9 -62 -60.5 -95.5t-118.5 -33.5q-47 0 -81 17.5t-44 50.5l63 54q22 -37 74 -37q59 0 67 47q4 19 -13 29.5
t-43 10.5z" />
    <glyph glyph-name="four.dnom" horiz-adv-x="380" 
d="M234 180l22 122l-84 -122h62zM339 180h45l-15 -87h-45l-15 -93h-105l15 93h-197l215 301h141z" />
    <glyph glyph-name="five.dnom" horiz-adv-x="362" 
d="M263 146q4 23 -11 37.5t-42 14.5q-55 0 -116 -40l-31 20l69 216h244l-15 -87h-162l-18 -54q35 23 77 23q53 0 84.5 -36t20.5 -94q-12 -65 -66.5 -108.5t-132.5 -43.5q-40 0 -75.5 20t-56.5 52l87 60q11 -14 15.5 -19t18 -13t28.5 -8q31 0 54 18t28 42z" />
    <glyph glyph-name="six.dnom" horiz-adv-x="362" 
d="M161 128q-3 -19 6.5 -32t32.5 -13t39.5 13.5t19.5 31.5q3 16 -7.5 29t-34.5 13q-21 0 -37.5 -13.5t-18.5 -28.5zM255 252q43 0 79 -29.5t25 -88.5q-10 -61 -57 -100t-123 -39q-57 0 -89.5 37.5t-31.5 100.5q1 65 20 123.5t69 101.5t123 41q43 -2 71.5 -18.5t41.5 -58.5
l-85 -40q-9 31 -47 31q-39 0 -61 -32.5t-31 -71.5q6 15 30.5 29t65.5 14z" />
    <glyph glyph-name="seven.dnom" horiz-adv-x="322" 
d="M224 301h-152l17 93h298l-216 -394h-113z" />
    <glyph glyph-name="eight.dnom" horiz-adv-x="370" 
d="M154 127q-3 -21 8 -34.5t36 -13.5t41.5 14t19.5 34q3 18 -8.5 31.5t-35.5 13.5q-53 0 -61 -45zM101 293q8 46 54 76t101 30q54 0 86 -29.5t24 -76.5q-4 -23 -18.5 -45.5t-33.5 -28.5q26 -4 41 -35.5t9 -63.5q-10 -57 -61.5 -91t-118.5 -34t-107 34t-30 91q7 34 28.5 63
t53.5 36q-16 9 -23.5 31t-4.5 43zM195 289q-2 -16 6.5 -26.5t27.5 -10.5t32 10.5t15 26.5q2 13 -7 23.5t-27 10.5q-42 0 -47 -34z" />
    <glyph glyph-name="nine.dnom" horiz-adv-x="361" 
d="M268 266q3 18 -7 31t-33 13t-38.5 -13t-18.5 -31q-3 -16 7.5 -29t34.5 -13q21 0 37 13t18 29zM174 142q-16 0 -33.5 5.5t-37 17.5t-29 36.5t-3.5 58.5q11 61 57.5 100t121.5 39q58 0 90.5 -37t31.5 -101q0 -47 -12.5 -92.5t-36.5 -86.5t-66.5 -65t-97.5 -22
q-90 4 -113 77l85 39q9 -30 47 -30q39 0 61 32.5t31 71.5q-5 -14 -31.5 -28.5t-64.5 -14.5z" />
    <glyph glyph-name="l.alt1" horiz-adv-x="331" 
d="M349 151l-27 -151h-45q-105 0 -154.5 58.5t-29.5 169.5l3 17l83 466h159l-83 -466l-3 -17q-6 -38 8.5 -57.5t43.5 -19.5h45z" />
    <glyph glyph-name="a.alt1" horiz-adv-x="545" 
d="M253 99q29 0 59 18t45 47q-25 24 -80 24q-56 0 -66 -45q-3 -13 7 -28.5t35 -15.5zM193 300l-69 83q84 95 231 95q95 0 148.5 -50.5t35.5 -150.5l-49 -277h-158l8 50q-27 -29 -65 -44t-70 -15q-83 0 -124.5 39t-28.5 111q11 64 70 101t146 37q68 0 105 -25l3 14
q7 34 -14.5 56.5t-54.5 22.5q-68 0 -114 -47z" />
    <glyph glyph-name="y.alt1" horiz-adv-x="510" 
d="M138 -29l44 78l-98 417h162l50 -239l135 239h162l-326 -554q-51 -82 -98.5 -115.5t-121.5 -33.5q-33 0 -70 14l24 130q23 -7 59 -7q26 0 41.5 17t36.5 54z" />
    <glyph glyph-name="lslash.alt1" horiz-adv-x="379" 
d="M395 151l-26 -151h-45q-105 0 -153.5 58.5t-30.5 169.5l7 44l-95 -53l16 93l95 53l62 346h159l-44 -247l109 61l-17 -93l-109 -61l-24 -143q-6 -38 8 -57.5t43 -19.5h45z" />
    <glyph glyph-name="lacute.alt1" horiz-adv-x="330" 
d="M311 923h148l-169 -174h-103zM321 0l27 151h-45q-29 0 -43.5 19.5t-8.5 57.5l3 17l83 466h-159l-83 -466l-3 -17q-20 -111 29.5 -169.5t154.5 -58.5h45z" />
    <glyph glyph-name="lcommaaccent.alt1" horiz-adv-x="330" 
d="M124 -302l-65 42q42 47 64 91t35 113h128q-45 -161 -162 -246zM348 151l-27 -151h-45q-105 0 -154.5 58.5t-29.5 169.5l3 17l83 466h159l-83 -466l-3 -17q-6 -38 8.5 -57.5t43.5 -19.5h45z" />
    <glyph glyph-name="lcaron.alt1" horiz-adv-x="330" 
d="M382 468l-54 38q42 49 64 93t35 112h116q-44 -158 -161 -243zM321 0l27 151h-45q-29 0 -43.5 19.5t-8.5 57.5l3 17l83 466h-159l-83 -466l-3 -17q-20 -111 29.5 -169.5t154.5 -58.5h45z" />
    <glyph glyph-name="aacute.alt1" horiz-adv-x="545" 
d="M422 723h148l-169 -174h-103zM253 99q29 0 59 18t45 47q-25 24 -80 24q-56 0 -66 -45q-3 -13 7 -28.5t35 -15.5zM193 300l-69 83q84 95 231 95q95 0 148.5 -50.5t35.5 -150.5l-49 -277h-158l8 50q-27 -29 -65 -44t-70 -15q-83 0 -124.5 39t-28.5 111q11 64 70 101t146 37
q68 0 105 -25l3 14q7 34 -14.5 56.5t-54.5 22.5q-68 0 -114 -47z" />
    <glyph glyph-name="agrave.alt1" horiz-adv-x="545" 
d="M226 723h148l62 -174h-103zM253 99q29 0 59 18t45 47q-25 24 -80 24q-56 0 -66 -45q-3 -13 7 -28.5t35 -15.5zM193 300l-69 83q84 95 231 95q95 0 148.5 -50.5t35.5 -150.5l-49 -277h-158l8 50q-27 -29 -65 -44t-70 -15q-83 0 -124.5 39t-28.5 111q11 64 70 101t146 37
q68 0 105 -25l3 14q7 34 -14.5 56.5t-54.5 22.5q-68 0 -114 -47z" />
    <glyph glyph-name="acircumflex.alt1" horiz-adv-x="545" 
d="M184 557l140 173h156l79 -173h-108l-65 89l-95 -89h-107zM253 99q29 0 59 18t45 47q-25 24 -80 24q-56 0 -66 -45q-3 -13 7 -28.5t35 -15.5zM193 300l-69 83q84 95 231 95q95 0 148.5 -50.5t35.5 -150.5l-49 -277h-158l8 50q-27 -29 -65 -44t-70 -15q-83 0 -124.5 39
t-28.5 111q11 64 70 101t146 37q68 0 105 -25l3 14q7 34 -14.5 56.5t-54.5 22.5q-68 0 -114 -47z" />
    <glyph glyph-name="adieresis.alt1" horiz-adv-x="545" 
d="M217 641q5 30 31 51t58 21t50 -21t13 -51q-5 -31 -30.5 -52t-57.5 -21t-50.5 21t-13.5 52zM405 641q5 30 31.5 51t58.5 21q31 0 49 -21t13 -51q-5 -31 -30.5 -52t-56.5 -21q-32 0 -51 21t-14 52zM253 99q29 0 59 18t45 47q-25 24 -80 24q-56 0 -66 -45q-3 -13 7 -28.5
t35 -15.5zM193 300l-69 83q84 95 231 95q95 0 148.5 -50.5t35.5 -150.5l-49 -277h-158l8 50q-27 -29 -65 -44t-70 -15q-83 0 -124.5 39t-28.5 111q11 64 70 101t146 37q68 0 105 -25l3 14q7 34 -14.5 56.5t-54.5 22.5q-68 0 -114 -47z" />
    <glyph glyph-name="atilde.alt1" horiz-adv-x="545" 
d="M337 597q-7 0 -17.5 -11t-15.5 -32h-75q15 67 51 98.5t74 31.5q23 0 46 -20.5t33 -20.5q8 0 18.5 10t15.5 31h75q-15 -66 -51 -97t-73 -31q-22 0 -47 20.5t-34 20.5zM253 99q29 0 59 18t45 47q-25 24 -80 24q-56 0 -66 -45q-3 -13 7 -28.5t35 -15.5zM193 300l-69 83
q84 95 231 95q95 0 148.5 -50.5t35.5 -150.5l-49 -277h-158l8 50q-27 -29 -65 -44t-70 -15q-83 0 -124.5 39t-28.5 111q11 64 70 101t146 37q68 0 105 -25l3 14q7 34 -14.5 56.5t-54.5 22.5q-68 0 -114 -47z" />
    <glyph glyph-name="aring.alt1" horiz-adv-x="545" 
d="M262 673q10 54 53 91.5t96 37.5q54 0 84.5 -37.5t20.5 -91.5q-10 -53 -53.5 -90t-97.5 -37q-53 0 -83 37t-20 90zM324 673q-5 -28 10 -46.5t42 -18.5q28 0 51 18.5t28 46.5t-11 48t-44 20q-27 0 -49 -19.5t-27 -48.5zM253 99q29 0 59 18t45 47q-25 24 -80 24
q-56 0 -66 -45q-3 -13 7 -28.5t35 -15.5zM193 300l-69 83q84 95 231 95q95 0 148.5 -50.5t35.5 -150.5l-49 -277h-158l8 50q-27 -29 -65 -44t-70 -15q-83 0 -124.5 39t-28.5 111q11 64 70 101t146 37q68 0 105 -25l3 14q7 34 -14.5 56.5t-54.5 22.5q-68 0 -114 -47z" />
    <glyph glyph-name="amacron.alt1" horiz-adv-x="545" 
d="M517 579h-288l15 87h288zM253 99q29 0 59 18t45 47q-25 24 -80 24q-56 0 -66 -45q-3 -13 7 -28.5t35 -15.5zM193 300l-69 83q84 95 231 95q95 0 148.5 -50.5t35.5 -150.5l-49 -277h-158l8 50q-27 -29 -65 -44t-70 -15q-83 0 -124.5 39t-28.5 111q11 64 70 101t146 37
q68 0 105 -25l3 14q7 34 -14.5 56.5t-54.5 22.5q-68 0 -114 -47z" />
    <glyph glyph-name="abreve.alt1" horiz-adv-x="545" 
d="M257 696h89q-5 -26 3.5 -38t34.5 -12q45 0 54 50h91q-10 -59 -54.5 -95.5t-104.5 -36.5q-65 0 -93.5 39t-19.5 93zM253 99q29 0 59 18t45 47q-25 24 -80 24q-56 0 -66 -45q-3 -13 7 -28.5t35 -15.5zM193 300l-69 83q84 95 231 95q95 0 148.5 -50.5t35.5 -150.5l-49 -277
h-158l8 50q-27 -29 -65 -44t-70 -15q-83 0 -124.5 39t-28.5 111q11 64 70 101t146 37q68 0 105 -25l3 14q7 34 -14.5 56.5t-54.5 22.5q-68 0 -114 -47z" />
    <glyph glyph-name="aogonek.alt1" horiz-adv-x="545" 
d="M193 300l-69 83q84 95 231 95q95 0 148.5 -50.5t35.5 -150.5l-49 -277h-86l-61 -86q-22 -39 3 -54q21 -13 42 6q17 15 19 43l71 4q-8 -63 -46.5 -96t-84.5 -33q-42 0 -68 30.5t-18 74.5q5 31 21 51l50 60l8 50q-27 -29 -65 -44t-70 -15q-83 0 -124.5 39t-28.5 111
q11 64 70 101t146 37q68 0 105 -25l3 14q7 34 -14.5 56.5t-54.5 22.5q-68 0 -114 -47zM253 99q29 0 59 18t45 47q-25 24 -80 24q-56 0 -66 -45q-3 -13 7 -28.5t35 -15.5z" />
    <glyph glyph-name="yacute.alt1" horiz-adv-x="510" 
d="M427 723h148l-168 -174h-103zM182 49l-44 -78q-14 -25 -22 -37t-23 -23t-33 -11q-36 0 -59 7l-24 -130q37 -14 70 -14q74 0 121.5 33.5t98.5 115.5l326 554h-162l-135 -239l-50 239h-162z" />
    <glyph glyph-name="ydieresis.alt1" horiz-adv-x="510" 
d="M198 641q5 30 31.5 51t58.5 21q31 0 49 -21t13 -51q-5 -31 -30.5 -52t-57.5 -21t-50.5 21t-13.5 52zM386 641q5 30 32 51t59 21q31 0 48.5 -21t12.5 -51q-5 -31 -30.5 -52t-56.5 -21q-32 0 -51 21t-14 52zM182 49l-44 -78q-14 -25 -22 -37t-23 -23t-33 -11q-36 0 -59 7
l-24 -130q37 -14 70 -14q74 0 121.5 33.5t98.5 115.5l326 554h-162l-135 -239l-50 239h-162z" />
    <glyph glyph-name="ae.alt1" horiz-adv-x="857" 
d="M538 275h186q1 28 -14.5 44.5t-31.5 20t-35 3.5q-80 0 -105 -68zM221 -9q-90 0 -136.5 38.5t-33.5 110.5q12 65 70 101t145 36q76 0 108 -20l4 23q6 29 -13.5 50t-57.5 21q-65 0 -116 -51l-68 83q84 95 231 95q100 0 148 -51q76 51 166 51q103 0 161.5 -65.5t39.5 -172.5
q-3 -17 -13 -50h-334q-1 -32 27 -50t68 -18q68 0 107 47l99 -74q-42 -54 -107 -79t-133 -25q-67 0 -111.5 25t-52.5 73q-24 -46 -78.5 -72t-119.5 -26zM258 104q65 0 99 63q-27 24 -80 24q-56 0 -66 -45q-3 -12 9.5 -27t37.5 -15z" />
    <glyph glyph-name="aeacute.alt1" horiz-adv-x="857" 
d="M595 723h148l-169 -174h-103zM538 275h186q1 28 -14.5 44.5t-31.5 20t-35 3.5q-80 0 -105 -68zM221 -9q-90 0 -136.5 38.5t-33.5 110.5q12 65 70 101t145 36q76 0 108 -20l4 23q6 29 -13.5 50t-57.5 21q-65 0 -116 -51l-68 83q84 95 231 95q100 0 148 -51q76 51 166 51
q103 0 161.5 -65.5t39.5 -172.5q-3 -17 -13 -50h-334q-1 -32 27 -50t68 -18q68 0 107 47l99 -74q-42 -54 -107 -79t-133 -25q-67 0 -111.5 25t-52.5 73q-24 -46 -78.5 -72t-119.5 -26zM258 104q65 0 99 63q-27 24 -80 24q-56 0 -66 -45q-3 -12 9.5 -27t37.5 -15z" />
    <glyph glyph-name="ycircumflex.alt1" horiz-adv-x="510" 
d="M167 557l140 173h156l79 -173h-108l-64 89l-96 -89h-107zM138 -29l44 78l-98 417h162l50 -239l135 239h162l-326 -554q-51 -82 -98.5 -115.5t-121.5 -33.5q-33 0 -70 14l24 130q23 -7 59 -7q26 0 41.5 17t36.5 54z" />
    <glyph glyph-name="ldot.alt1" horiz-adv-x="467" 
d="M316 296q7 39 39.5 65t72.5 26q39 0 61.5 -26t15.5 -65q-7 -40 -39 -66t-71 -26q-40 0 -63 26t-16 66zM348 151l-27 -151h-45q-105 0 -154.5 58.5t-29.5 169.5l3 17l83 466h159l-83 -466l-3 -17q-6 -38 8.5 -57.5t43.5 -19.5h45z" />
    <glyph glyph-name="t.alt1" horiz-adv-x="405" 
d="M386 151l-26 -151h-53q-108 0 -149 41t-22 150l28 158h-84l21 117h84l16 92l168 48l-25 -140h97l-21 -117h-97l-25 -141q-6 -36 8 -46.5t47 -10.5h33z" />
    <glyph glyph-name="tcaron.alt1" horiz-adv-x="405" 
d="M467 523l-55 38q42 48 63.5 92t35.5 113h116q-43 -158 -160 -243zM360 0l26 151h-33q-16 0 -25.5 1.5t-19.5 7t-10.5 17t0.5 31.5l25 141h97l21 117h-97l25 140l-168 -48l-16 -92h-84l-21 -117h84l-28 -158q-19 -109 22 -150t149 -41h53z" />
    <glyph glyph-name="tbar.alt1" horiz-adv-x="406" 
d="M387 151l-26 -151h-53q-108 0 -149 41t-22 150l5 29h-52l13 72h52l10 57h-84l21 117h84l16 92l168 48l-25 -140h97l-21 -117h-97l-10 -57h60l-13 -72h-60l-2 -12q-6 -36 8 -46.5t47 -10.5h33z" />
    <glyph glyph-name="tcommaaccent.alt1" horiz-adv-x="406" 
d="M174 -302l-64 42q42 47 64 91t35 113h128q-47 -163 -163 -246zM387 151l-26 -151h-53q-108 0 -149 41t-22 150l28 158h-84l21 117h84l16 92l168 48l-25 -140h97l-21 -117h-97l-25 -141q-6 -36 8 -46.5t47 -10.5h33z" />
    <glyph glyph-name="T.sc.alt1" horiz-adv-x="480" 
d="M165 0l81 458h-150l23 132h450l-23 -132h-150l-81 -458h-150z" />
    <glyph glyph-name="Tcaron.sc.alt1" horiz-adv-x="480" 
d="M541 788l-125 -153h-140l-67 153h97l55 -77l81 77h99zM165 0l81 458h-150l23 132h450l-23 -132h-150l-81 -458h-150z" />
    <glyph glyph-name="Tbar.sc.alt1" horiz-adv-x="482" 
d="M206 235h-104l15 83h104l26 140h-150l23 132h450l-23 -132h-150l-26 -140h100l-15 -83h-100l-40 -235h-150z" />
    <glyph glyph-name="Tcommaaccent.sc.alt1" horiz-adv-x="480" 
d="M165 0l81 458h-150l23 132h450l-23 -132h-150l-81 -458h-150zM134 -266l-61 42q77 86 91 166h118q-21 -115 -148 -208z" />
    <glyph glyph-name="aringacute.alt1" horiz-adv-x="545" 
d="M465 936h148l-143 -148q29 -16 43 -46.5t7 -68.5q-10 -53 -53.5 -90t-97.5 -37q-53 0 -83 37t-20 90q7 40 33.5 72t64.5 47zM328 673q-5 -28 10 -46.5t42 -18.5q28 0 51 18.5t28 46.5t-11 48t-44 20q-27 0 -49 -19.5t-27 -48.5zM253 99q29 0 59 18t45 47q-25 24 -80 24
q-56 0 -66 -45q-3 -13 7 -28.5t35 -15.5zM193 300l-69 83q84 95 231 95q95 0 148.5 -50.5t35.5 -150.5l-49 -277h-158l8 50q-27 -29 -65 -44t-70 -15q-83 0 -124.5 39t-28.5 111q11 64 70 101t146 37q68 0 105 -25l3 14q7 34 -14.5 56.5t-54.5 22.5q-68 0 -114 -47z" />
    </font>
</defs>
</svg>
