<?xml version="1.0" standalone="no"?>
<!DOCTYPE svg PUBLIC "-//W3C//DTD SVG 1.1//EN" "http://www.w3.org/Graphics/SVG/1.1/DTD/svg11.dtd" >
<svg xmlns="http://www.w3.org/2000/svg" xmlns:xlink="http://www.w3.org/1999/xlink" version="1.1">
<metadata>
Created by FontForge 20201107 at Mon Mar 12 15:58:07 2012
 By 
Copyright (c) Olivier Gourvat - Mostardesign Studio, 2012. All rights reserved.
</metadata>
<defs>
<font id="SofiaProMedium-Italic" horiz-adv-x="580" >
  <font-face 
    font-family="Sofia Pro Medium"
    font-weight="400"
    font-style="italic"
    font-stretch="normal"
    units-per-em="1000"
    panose-1="2 11 0 0 0 0 0 0 0 0"
    ascent="750"
    descent="-250"
    x-height="467"
    cap-height="689"
    bbox="-175 -259 1170 1096"
    underline-thickness="50"
    underline-position="-250"
    slope="-12"
    unicode-range="U+0020-FB04"
  />
<missing-glyph horiz-adv-x="635" 
d="M80 0l117 665h475l-117 -665h-475zM260 431h62q7 37 32.5 60t57.5 23t52 -20.5t14 -52.5q-5 -29 -32 -50q-21 -17 -37 -21q-47 -13 -75.5 -38t-36.5 -72l-7 -38h62l6 38q3 22 17.5 32.5t41.5 17.5q45 13 79 48t43 83q11 60 -24 97.5t-93 37.5q-57 0 -103.5 -40
t-58.5 -105zM259 131q-4 -18 7.5 -30.5t30.5 -12.5q18 0 33.5 12.5t19.5 30.5t-7.5 30.5t-30.5 12.5t-34 -12t-19 -31z" />
    <glyph glyph-name="f_f" unicode="ff" horiz-adv-x="718" 
d="M850 721l-17 -99h-51q-82 0 -103 -112l-8 -43h105l-15 -85h-105l-67 -382h-104l67 382h-267l-67 -382h-104l67 382h-89l15 85h88l8 43q19 99 75.5 155t149.5 56h51l-17 -99h-51q-82 0 -103 -112l-8 -43h266l8 43q19 99 75.5 155t149.5 56h51z" />
    <glyph glyph-name="fi" unicode="fi" horiz-adv-x="640" 
d="M467 0l67 382h-249l-67 -382h-104l67 382h-89l15 85h88l8 43q19 99 75.5 155t149.5 56h51l-17 -99h-51q-82 0 -103 -112l-8 -43h249h102l-82 -467h-102zM564 656q4 27 28.5 46t52.5 19t44.5 -18.5t11.5 -46.5q-4 -28 -27.5 -46.5t-52.5 -18.5q-28 0 -44.5 18.5
t-12.5 46.5z" />
    <glyph glyph-name="fl" unicode="fl" horiz-adv-x="629" 
d="M564 622h-153q-82 0 -103 -112l-8 -43h105l-15 -85h-105l-67 -382h-104l67 382h-89l15 85h88l8 43q19 99 75.5 155t149.5 56h256l-127 -721h-103z" />
    <glyph glyph-name="f_f_i" unicode="ffi" horiz-adv-x="1011" 
d="M905 382h-249l-67 -382h-104l67 382h-267l-67 -382h-104l67 382h-89l15 85h88l8 43q19 99 75.5 155t149.5 56h51l-17 -99h-51q-82 0 -103 -112l-8 -43h266l8 43q19 99 75.5 155t149.5 56h51l-17 -99h-51q-82 0 -103 -112l-8 -43h351l-82 -467h-102zM935 656q4 27 28.5 46
t52.5 19t44.5 -18.5t11.5 -46.5q-4 -28 -27.5 -46.5t-52.5 -18.5q-28 0 -44.5 18.5t-12.5 46.5z" />
    <glyph glyph-name="f_f_l" unicode="ffl" horiz-adv-x="1000" 
d="M935 622h-153q-82 0 -103 -112l-8 -43h105l-15 -85h-105l-67 -382h-104l67 382h-267l-67 -382h-104l67 382h-89l15 85h88l8 43q19 99 75.5 155t149.5 56h51l-17 -99h-51q-82 0 -103 -112l-8 -43h266l8 43q19 99 75.5 155t149.5 56h256l-127 -721h-103z" />
    <glyph glyph-name="f_f_j" unicode="ffj" horiz-adv-x="1004" 
d="M653 -231l17 96h56q81 0 96 105l74 412h-240l-67 -382h-104l67 382h-267l-67 -382h-104l67 382h-89l15 85h88l8 43q19 99 75.5 155t149.5 56h51l-17 -99h-51q-82 0 -103 -112l-8 -43h266l8 43q19 99 75.5 155t149.5 56h51l-17 -99h-51q-82 0 -103 -112l-8 -43h343
l-88 -497q-36 -201 -205 -201h-68zM927 656q4 27 28.5 46t52.5 19q29 0 45 -18.5t12 -46.5q-4 -27 -28 -46t-53 -19q-28 0 -44.5 18.5t-12.5 46.5z" />
    <glyph glyph-name="f_j" unicode="fj" horiz-adv-x="633" 
d="M282 -231l17 96h56q81 0 96 105l74 412h-240l-67 -382h-104l67 382h-89l15 85h88l8 43q19 99 75.5 155t149.5 56h51l-17 -99h-51q-82 0 -103 -112l-8 -43h343l-88 -497q-36 -201 -205 -201h-68zM556 656q4 27 28.5 46t52.5 19q29 0 45 -18.5t12 -46.5q-4 -27 -28 -46
t-53 -19q-28 0 -44.5 18.5t-12.5 46.5z" />
    <glyph glyph-name=".notdef" horiz-adv-x="635" 
d="M80 0l117 665h475l-117 -665h-475zM260 431h62q7 37 32.5 60t57.5 23t52 -20.5t14 -52.5q-5 -29 -32 -50q-21 -17 -37 -21q-47 -13 -75.5 -38t-36.5 -72l-7 -38h62l6 38q3 22 17.5 32.5t41.5 17.5q45 13 79 48t43 83q11 60 -24 97.5t-93 37.5q-57 0 -103.5 -40
t-58.5 -105zM259 131q-4 -18 7.5 -30.5t30.5 -12.5q18 0 33.5 12.5t19.5 30.5t-7.5 30.5t-30.5 12.5t-34 -12t-19 -31z" />
    <glyph glyph-name=".null" horiz-adv-x="0" 
 />
    <glyph glyph-name="nonmarkingreturn" horiz-adv-x="333" 
 />
    <glyph glyph-name="space" unicode=" " horiz-adv-x="254" 
 />
    <glyph glyph-name="exclam" unicode="!" horiz-adv-x="268" 
d="M309 689l-103 -504h-82l74 504h111zM73 58q5 29 29 48.5t53 19.5q30 0 47.5 -19.5t12.5 -48.5t-29 -48t-54 -19q-29 0 -46.5 19t-12.5 48z" />
    <glyph glyph-name="quotedbl" unicode="&#x22;" horiz-adv-x="356" 
d="M147 399l45 290h78l-57 -290h-66zM283 399l45 290h78l-57 -290h-66z" />
    <glyph glyph-name="numbersign" unicode="#" horiz-adv-x="674" 
d="M622 515h107l-41 -87h-108l-79 -173h108l-39 -87h-108l-79 -168h-91l77 168h-105l-79 -168h-91l78 168h-106l38 87h107l78 173h-105l40 87h106l79 174h93l-79 -174h106l79 174h93zM381 428l-78 -173h105l79 173h-106z" />
    <glyph glyph-name="dollar" unicode="$" horiz-adv-x="564" 
d="M393 797h65l-19 -103q81 -11 122.5 -64.5t26.5 -136.5h-106q9 47 -19.5 75.5t-82.5 28.5q-48 0 -87.5 -26.5t-47.5 -68.5q-12 -66 75 -90l85 -23q97 -26 133.5 -82t14.5 -132q-21 -76 -85.5 -126.5t-152.5 -57.5l-20 -111h-65l20 112q-90 10 -137.5 69.5t-33.5 138.5h106
q-6 -44 26 -78.5t91 -34.5q57 0 95 26.5t52 67.5q19 86 -89 112l-84 22q-162 46 -137 185q14 79 81.5 132.5t153.5 62.5z" />
    <glyph glyph-name="percent" unicode="%" horiz-adv-x="684" 
d="M650 668h-67l-444 -668h66zM131 536q11 56 56 95t101 39t88 -39.5t22 -94.5q-10 -56 -56 -94.5t-102 -38.5t-87.5 38.5t-21.5 94.5zM204 536q-5 -26 9.5 -43t40.5 -17q25 0 46 17.5t25 42.5t-10.5 43t-39.5 18q-26 0 -46 -17.5t-25 -43.5zM401 123q10 56 55.5 95
t101.5 39q55 0 87.5 -39t22.5 -95t-56 -94.5t-102 -38.5t-87.5 38.5t-21.5 94.5zM474 123q-5 -26 9 -43t40 -17t47 17t26 43q5 25 -10.5 43t-40.5 18t-45.5 -18t-25.5 -43z" />
    <glyph glyph-name="ampersand" unicode="&#x26;" horiz-adv-x="666" 
d="M347 336q-60 0 -103 -39.5t-50 -88.5q-8 -53 21.5 -86t86.5 -33q66 0 107.5 43.5t54.5 118.5l15 85h-132zM279 -10q-99 0 -152.5 61.5t-36.5 153.5q11 59 46.5 106t90.5 74q-24 20 -33.5 56t-2.5 76q14 73 76 124.5t140 52.5q54 1 95.5 -25t62.5 -71l-94 -52
q-25 49 -75 49q-39 0 -67 -23.5t-34 -57.5q-6 -33 11.5 -64t57.5 -31h130l16 87h96l-16 -87h86l-14 -83h-86l-23 -128q-12 -64 3 -94.5t76 -30.5l-16 -93q-130 0 -154 77q-31 -36 -81 -56.5t-102 -20.5z" />
    <glyph glyph-name="quotesingle" unicode="'" horiz-adv-x="220" 
d="M147 399l45 290h78l-57 -290h-66z" />
    <glyph glyph-name="parenleft" unicode="(" horiz-adv-x="367" 
d="M86 231q38 212 139 339t229 127l-16 -94q-84 0 -157 -104.5t-102 -267.5t7 -266.5t120 -103.5l-17 -94q-128 0 -184.5 126.5t-18.5 337.5z" />
    <glyph glyph-name="parenright" unicode=")" horiz-adv-x="367" 
d="M361 231q-38 -211 -138.5 -337.5t-226.5 -126.5l14 94q83 0 156 103.5t102 266.5t-7 267.5t-119 104.5l17 94q128 0 184 -127t18 -339z" />
    <glyph glyph-name="asterisk" unicode="*" horiz-adv-x="472" 
d="M166 395l104 104l-125 37l42 78l115 -49l15 134h84l-32 -133l135 48l10 -78l-134 -35l66 -107l-75 -46l-53 111l-97 -113z" />
    <glyph glyph-name="plus" unicode="+" horiz-adv-x="515" 
d="M340 216l-28 -161h-91l28 161h-160l16 91h160l29 160h91l-29 -160h160l-16 -91h-160z" />
    <glyph glyph-name="comma" unicode="," horiz-adv-x="259" 
d="M57 -128l-64 24q91 106 109 230h108q-21 -91 -64 -156.5t-89 -97.5z" />
    <glyph glyph-name="hyphen" unicode="-" horiz-adv-x="481" 
d="M99 190l17 93h349l-17 -93h-349z" />
    <glyph glyph-name="period" unicode="." horiz-adv-x="266" 
d="M73 57q5 29 28.5 48.5t52.5 19.5q30 0 47.5 -19.5t12.5 -48.5t-29.5 -48t-54.5 -19q-29 0 -45.5 19t-11.5 48z" />
    <glyph glyph-name="slash" unicode="/" horiz-adv-x="502" 
d="M490 689h102l-459 -689h-102z" />
    <glyph glyph-name="zero" unicode="0" horiz-adv-x="604" 
d="M121 325q13 74 34.5 131.5t55.5 106t86.5 74t121.5 25.5t112.5 -26.5t60 -72t19 -107t-12.5 -131.5q-13 -74 -34.5 -131t-55.5 -105t-86.5 -73.5t-121.5 -25.5t-112.5 26.5t-60 72t-19 106.5t12.5 130zM223 325q-42 -235 95 -235q136 0 178 235t-94 235q-137 0 -179 -235
z" />
    <glyph glyph-name="one" unicode="1" horiz-adv-x="344" 
d="M142 577l226 83l-117 -660h-102l91 521l-114 -39z" />
    <glyph glyph-name="two" unicode="2" horiz-adv-x="532" 
d="M467 0h-409l8 49l323 320q54 52 62 99q7 42 -19 68t-72 26q-43 0 -79 -27.5t-50 -72.5l-94 21q28 82 94.5 131t147.5 49q88 0 138.5 -55t35.5 -140q-15 -87 -101 -168q-40 -39 -96.5 -94t-108.5 -106h237z" />
    <glyph glyph-name="three" unicode="3" horiz-adv-x="538" 
d="M309 300h-73l17 95h73q36 -1 61.5 22t35.5 52q21 62 -32 85q-14 7 -44 7q-57 1 -101 -51l-68 57q36 47 92.5 73.5t116.5 22.5q79 -4 121.5 -57t30.5 -124q-7 -38 -35 -72.5t-67 -56.5q45 -18 64.5 -67t9.5 -104q-16 -89 -89 -140.5t-173 -51.5q-74 0 -124 36.5t-66 95.5
l100 48q7 -31 41 -55.5t68 -24.5h-1q60 0 96 28t44 72q7 42 -18.5 76.5t-79.5 33.5z" />
    <glyph glyph-name="four" unicode="4" horiz-adv-x="591" 
d="M223 230h171l47 255zM572 137h-91l-24 -137h-102l24 137h-334l439 516h88l-76 -423h91z" />
    <glyph glyph-name="five" unicode="5" horiz-adv-x="569" 
d="M455 215q10 58 -22 89.5t-88 31.5q-79 0 -168 -59l-53 45l114 331h357l-16 -97h-274l-60 -165q23 16 59.5 26.5t67.5 10.5q95 0 148 -56.5t36 -156.5q-18 -101 -98 -163t-193 -62q-68 0 -121.5 39.5t-74.5 105.5q12 5 49.5 25.5t46.5 24.5q11 -43 43 -69t75 -26
q72 0 117 35.5t55 89.5z" />
    <glyph glyph-name="six" unicode="6" horiz-adv-x="561" 
d="M437 203q8 49 -16 83.5t-71 35.5q-48 1 -90.5 -32t-50.5 -79q-9 -50 18 -84t74 -35q47 -2 87.5 30.5t48.5 80.5zM377 421q85 0 132 -63.5t30 -159.5q-19 -90 -93 -149t-167 -59q-88 0 -136.5 61.5t-38.5 163.5q7 67 19.5 126t38 121t59.5 105t86.5 70t117.5 25
q63 -3 106 -30t62 -96l-99 -40q-21 70 -90 70q-68 0 -119.5 -63t-60.5 -156q56 74 153 74z" />
    <glyph glyph-name="seven" unicode="7" horiz-adv-x="532" 
d="M170 653h462l-456 -653h-119l388 554h-293z" />
    <glyph glyph-name="eight" unicode="8" horiz-adv-x="570" 
d="M290 491q-5 -33 14 -54.5t55 -21.5q35 1 61.5 23t31.5 53q5 30 -14 51.5t-54 21.5t-62 -21.5t-32 -51.5zM192 208q-9 -50 22 -84.5t85 -34.5t97.5 34.5t52.5 84.5q8 48 -22 83t-82 35h-11q-51 0 -92.5 -35.5t-49.5 -82.5zM190 492q12 71 73 121t138 50t121 -50t32 -121
q-12 -66 -71 -114q42 -28 60 -72.5t8 -98.5q-17 -91 -94.5 -154t-174.5 -63t-153.5 63t-39.5 154q10 54 44 98.5t85 72.5q-40 45 -28 114z" />
    <glyph glyph-name="nine" unicode="9" horiz-adv-x="561" 
d="M238 449q-9 -49 15.5 -83.5t71.5 -35.5q47 -2 89.5 31.5t50.5 79.5q9 50 -18 83.5t-73 35.5q-48 1 -87.5 -31t-48.5 -80zM297 231q-85 0 -131.5 63.5t-29.5 159.5q19 90 92.5 149t166.5 59q88 0 136.5 -61.5t38.5 -163.5q-7 -67 -19.5 -126t-37.5 -121t-59 -105t-87 -70
t-118 -25q-63 3 -106.5 30.5t-62.5 95.5l101 40q21 -70 90 -70q68 0 118.5 63t59.5 156q-50 -74 -152 -74z" />
    <glyph glyph-name="colon" unicode=":" horiz-adv-x="273" 
d="M76 57q5 29 29 48.5t53 19.5t46.5 -19.5t12.5 -48.5t-29.5 -48t-53.5 -19q-30 0 -46.5 19t-11.5 48zM138 409q5 30 29 49t54 19q29 0 46 -19.5t12 -48.5t-29 -48.5t-53 -19.5q-30 0 -47 19.5t-12 48.5z" />
    <glyph glyph-name="semicolon" unicode=";" horiz-adv-x="286" 
d="M72 -128l-70 24q93 104 111 230h111q-20 -91 -63 -156.5t-89 -97.5zM149 409q5 29 29.5 48.5t54.5 19.5q29 0 46 -19.5t12 -48.5t-29 -48.5t-53 -19.5q-30 0 -47.5 19.5t-12.5 48.5z" />
    <glyph glyph-name="less" unicode="&#x3c;" horiz-adv-x="614" 
d="M553 36l-471 194l17 93l539 193l-17 -100l-400 -139l350 -141z" />
    <glyph glyph-name="equal" unicode="=" horiz-adv-x="606" 
d="M588 315h-460l15 89h460zM109 209h460l-16 -89h-460z" />
    <glyph glyph-name="greater" unicode="&#x3e;" horiz-adv-x="614" 
d="M610 230l-539 -194l17 100l401 141l-351 139l18 100l471 -193z" />
    <glyph glyph-name="question" unicode="?" horiz-adv-x="487" 
d="M282 237l-11 -51h-100l9 51q7 39 19 65t32.5 42.5t39.5 26.5t52.5 25.5t58.5 30.5q44 26 53 75q7 41 -19 67t-69 26q-42 0 -76.5 -29.5t-43.5 -77.5h-99q17 94 84.5 151.5t152.5 57.5q88 0 138.5 -53.5t34.5 -141.5q-13 -70 -62 -120t-114 -69q-36 -10 -55 -26.5
t-25 -49.5zM129 58q5 29 29 48.5t53 19.5q30 0 47.5 -19.5t12.5 -48.5t-29 -48t-54 -19q-29 0 -46.5 19t-12.5 48z" />
    <glyph glyph-name="at" unicode="@" horiz-adv-x="969" 
d="M618 130l23 128q9 53 -21.5 89.5t-82.5 36.5t-95.5 -36.5t-52.5 -89.5q-9 -52 21.5 -88.5t82.5 -36.5q48 0 101 43l-15 -88q-53 -30 -100 -30q-83 0 -131 58.5t-34 141.5q15 84 84 142.5t152 58.5q81 0 129 -55q51 -59 39 -137l-26 -144q-12 -64 57 -64q33 0 61 21
t45.5 55.5t28.5 67.5t17 67q27 148 -65.5 247.5t-246.5 99.5q-150 0 -272.5 -106.5t-149.5 -257.5q-26 -151 58.5 -255.5t234.5 -104.5h25l-13 -76h-25q-182 0 -284.5 126.5t-70.5 309.5q32 182 180.5 310.5t329.5 128.5q185 0 296.5 -121.5t79.5 -300.5q-8 -47 -27 -94.5
t-48 -92t-72.5 -72t-94.5 -27.5q-62 0 -96.5 34.5t-21.5 111.5z" />
    <glyph glyph-name="A" unicode="A" horiz-adv-x="647" 
d="M529 0l-37 172h-278l-95 -172h-113l381 689h115l139 -689h-112zM422 556l-155 -289h206z" />
    <glyph glyph-name="B" unicode="B" horiz-adv-x="629" 
d="M634 507q-18 -105 -113 -140q55 -13 80.5 -62.5t15.5 -102.5q-15 -85 -81.5 -143.5t-160.5 -58.5h-285l121 689h264q88 0 131 -49t28 -133zM268 406h153q40 0 67.5 28t34.5 69q7 42 -13 65.5t-63 23.5h-146zM422 315h-170l-39 -218h173q46 0 79.5 32t40.5 74t-15.5 77
t-68.5 35z" />
    <glyph glyph-name="C" unicode="C" horiz-adv-x="684" 
d="M611 182l71 -65q-56 -59 -131.5 -93t-158.5 -34q-146 0 -228.5 103t-56.5 250q26 148 145 251t265 103q81 0 144 -33t100 -91l-92 -64q-61 86 -170 86q-102 0 -184.5 -73.5t-101.5 -178.5t38 -178t159 -73q114 0 201 90z" />
    <glyph glyph-name="D" unicode="D" horiz-adv-x="719" 
d="M300 590l-88 -492h162q98 0 163 68.5t85 176.5t-21 177.5t-139 69.5h-162zM358 0h-268l121 689h268q144 0 210 -97.5t39 -248.5q-27 -150 -127 -246.5t-243 -96.5z" />
    <glyph glyph-name="E" unicode="E" horiz-adv-x="567" 
d="M90 0l121 689h415l-17 -98h-309l-36 -204h270l-18 -97h-270l-34 -193h319l-16 -97h-425z" />
    <glyph glyph-name="F" unicode="F" horiz-adv-x="527" 
d="M90 0l121 689h409l-17 -98h-303l-36 -204h240l-18 -97h-240l-50 -290h-106z" />
    <glyph glyph-name="G" unicode="G" horiz-adv-x="755" 
d="M741 600l-91 -69q-54 65 -150 65q-102 0 -185 -74t-102 -179t38.5 -179t159.5 -74q86 0 153 46.5t84 122.5h-193l15 91h315q-31 -179 -135 -269.5t-257 -90.5q-146 0 -229 103t-57 250q26 148 145.5 251t265.5 103q144 0 223 -97z" />
    <glyph glyph-name="H" unicode="H" horiz-adv-x="705" 
d="M628 689h108l-121 -689h-108l51 294h-311l-51 -294h-106l121 689h106l-52 -298h311z" />
    <glyph glyph-name="I" unicode="I" horiz-adv-x="286" 
d="M90 0l121 689h106l-121 -689h-106z" />
    <glyph glyph-name="J" unicode="J" horiz-adv-x="287" 
d="M-140 -235l27 99q24 -9 69 -9q55 0 87 34.5t42 89.5l126 710h107l-126 -710q-18 -100 -81 -163t-173 -63q-28 0 -78 12z" />
    <glyph glyph-name="K" unicode="K" horiz-adv-x="583" 
d="M329 346l265 -346h-140l-208 279l-49 -279h-107l121 689h107l-50 -280l261 280h125z" />
    <glyph glyph-name="L" unicode="L" horiz-adv-x="499" 
d="M90 0l121 689h106l-105 -592h276l-16 -97h-382z" />
    <glyph glyph-name="M" unicode="M" horiz-adv-x="927" 
d="M498 198l320 491h95l-37 -689h-106l27 492l-275 -415h-90l-130 415l-145 -492h-106l205 689h94z" />
    <glyph glyph-name="N" unicode="N" horiz-adv-x="681" 
d="M712 689l-121 -689h-99l-210 493l-86 -493h-106l121 689h102l207 -489l86 489h106z" />
    <glyph glyph-name="O" unicode="O" horiz-adv-x="792" 
d="M213 343q-19 -104 38 -176.5t159 -72.5t185.5 72.5t102.5 176.5t-39 177t-160 73t-185 -73t-101 -177zM107 343q26 148 145 251t265 103q147 0 230.5 -103.5t57.5 -250.5t-146 -250t-267 -103q-146 0 -228.5 103t-56.5 250z" />
    <glyph glyph-name="P" unicode="P" horiz-adv-x="607" 
d="M469 591h-168l-43 -241h164q54 0 88 35.5t43 84.5q8 49 -12 85t-72 36zM90 0l121 689h277q71 0 114 -32.5t55.5 -80.5t1.5 -106q-17 -91 -80 -154t-168 -63h-170l-44 -253h-107z" />
    <glyph glyph-name="Q" unicode="Q" horiz-adv-x="794" 
d="M594 46l50 -113l-88 -49l-56 122q-49 -16 -107 -16q-146 0 -229 103t-57 250q26 148 145.5 251t265.5 103q148 0 231.5 -103t57.5 -251q-16 -92 -73 -170.5t-140 -126.5zM500 256l53 -121q57 33 96 88t51 120q19 105 -39 178.5t-161 73.5q-102 0 -185.5 -73.5
t-101.5 -178.5q-17 -97 32.5 -167t142.5 -79q39 -3 72 2l-48 108z" />
    <glyph glyph-name="R" unicode="R" horiz-adv-x="622" 
d="M459 591h-158l-43 -241h154q54 0 87 35t42 85q8 49 -11.5 85t-70.5 36zM436 257l136 -257h-129l-128 253h-74l-44 -253h-107l121 689h269q104 0 145.5 -64t25.5 -155q-15 -83 -69.5 -143t-145.5 -70z" />
    <glyph glyph-name="S" unicode="S" horiz-adv-x="574" 
d="M84 200h106q-6 -44 26 -78.5t91 -34.5q57 0 95 26.5t51 67.5q21 86 -89 112l-83 22q-162 46 -137 185q15 86 91.5 141.5t169.5 55.5q97 0 151 -55.5t37 -148.5h-106q9 47 -19.5 75.5t-82.5 28.5q-49 0 -88.5 -26.5t-46.5 -68.5q-15 -66 75 -90l85 -23q97 -27 133.5 -82.5
t13.5 -131.5q-22 -82 -95.5 -133.5t-171.5 -51.5q-105 0 -163 62t-43 148z" />
    <glyph glyph-name="T" unicode="T" horiz-adv-x="570" 
d="M132 590l17 99h514l-17 -99h-203l-104 -590h-108l104 590h-203z" />
    <glyph glyph-name="U" unicode="U" horiz-adv-x="677" 
d="M354 92q61 0 111 41t62 106l80 450h108l-80 -450q-20 -110 -106.5 -179.5t-192.5 -69.5q-107 0 -169.5 69.5t-43.5 179.5l81 450h108l-81 -450q-11 -65 25.5 -106t97.5 -41z" />
    <glyph glyph-name="V" unicode="V" horiz-adv-x="566" 
d="M146 689h111l56 -512l239 512h110l-329 -689h-99z" />
    <glyph glyph-name="W" unicode="W" horiz-adv-x="897" 
d="M638 176l255 513h114l-354 -689h-89l-44 413l-187 -413h-89l-112 689h114l73 -513l193 419h83z" />
    <glyph glyph-name="X" unicode="X" horiz-adv-x="624" 
d="M712 689l-271 -320l175 -369h-127l-128 282l-226 -282h-126l304 369l-158 320h128l109 -234l193 234h127z" />
    <glyph glyph-name="Y" unicode="Y" horiz-adv-x="634" 
d="M371 0h-109l56 316l-197 373h127l142 -274l240 274h127l-331 -374z" />
    <glyph glyph-name="Z" unicode="Z" horiz-adv-x="577" 
d="M55 88l442 503h-338l17 98h474l-15 -89l-444 -502h354l-16 -98h-488z" />
    <glyph glyph-name="bracketleft" unicode="[" horiz-adv-x="328" 
d="M39 -227l163 916h208l-15 -88h-111l-132 -740h111l-16 -88h-208z" />
    <glyph glyph-name="backslash" unicode="\" horiz-adv-x="502" 
d="M152 689h102l217 -689h-102z" />
    <glyph glyph-name="bracketright" unicode="]" horiz-adv-x="328" 
d="M368 689l-163 -916h-206l14 88h111l132 740h-111l15 88h208z" />
    <glyph glyph-name="underscore" unicode="_" horiz-adv-x="709" 
d="M45 -115l14 86h577l-14 -86h-577z" />
    <glyph glyph-name="grave" unicode="`" horiz-adv-x="522" 
d="M252 698h116l72 -158h-90z" />
    <glyph glyph-name="a" unicode="a" horiz-adv-x="610" 
d="M436 0l11 67q-29 -37 -76.5 -57t-93.5 -20q-98 0 -155.5 67.5t-38.5 176.5q19 108 100.5 175.5t179.5 67.5q46 0 87.5 -19.5t56.5 -56.5l11 66h102l-82 -467h-102zM189 235q-11 -63 23.5 -104t94.5 -41t108.5 39.5t60.5 105.5q11 65 -25 103.5t-93 38.5
q-60 0 -108.5 -39.5t-60.5 -102.5z" />
    <glyph glyph-name="b" unicode="b" horiz-adv-x="608" 
d="M216 235q-12 -66 23 -105.5t95 -39.5q59 0 107 40.5t59 104.5q12 63 -21.5 102.5t-93.5 39.5q-57 0 -107 -38.5t-62 -103.5zM175 0h-103l127 721h103l-56 -321q27 37 73 57t97 20q98 0 153.5 -67t35.5 -177q-19 -107 -99.5 -175t-177.5 -68q-49 0 -88 20.5t-54 57.5z" />
    <glyph glyph-name="c" unicode="c" horiz-adv-x="514" 
d="M82 235q19 108 103.5 175t188.5 67q117 0 172 -81l-92 -64q-33 45 -97 45q-61 0 -111 -39.5t-62 -102.5q-11 -64 25 -105t96 -41q67 0 113 46l70 -63q-84 -82 -200 -82q-103 0 -164 68.5t-42 176.5z" />
    <glyph glyph-name="d" unicode="d" horiz-adv-x="608" 
d="M434 0l10 68q-28 -37 -75 -57.5t-96 -20.5q-97 0 -153 67.5t-37 175.5q20 109 99 176.5t177 67.5q51 0 91 -20t55 -57l56 321h102l-127 -721h-102zM472 235q12 65 -24 103.5t-93 38.5q-60 0 -107 -39.5t-59 -102.5q-11 -64 22.5 -104.5t92.5 -40.5t107.5 39.5t60.5 105.5
z" />
    <glyph glyph-name="e" unicode="e" horiz-adv-x="553" 
d="M556 235q-5 -29 -8 -38h-371q-2 -53 32 -85t91 -32q40 0 78 18t61 49q30 -16 78 -37q-41 -59 -105 -89.5t-133 -30.5q-102 0 -159 68t-38 177t100 175.5t183 66.5t156 -66.5t35 -175.5zM191 272h271q1 54 -29 84.5t-83 30.5q-55 0 -98.5 -31t-60.5 -84z" />
    <glyph glyph-name="f" unicode="f" horiz-adv-x="347" 
d="M479 721l-17 -99h-51q-84 0 -103 -112l-8 -43h105l-15 -85h-105l-67 -382h-104l67 382h-89l15 85h89l8 43q17 99 74 155t150 56h51z" />
    <glyph glyph-name="g" unicode="g" horiz-adv-x="610" 
d="M475 233q12 67 -22 105.5t-95 38.5q-60 0 -109 -40.5t-60 -103.5q-12 -64 22.5 -104t94.5 -40q56 0 107 39.5t62 104.5zM139 -59q12 -36 45 -57t72 -21q157 0 189 184q2 16 4 24q-26 -38 -75 -59.5t-98 -21.5q-98 0 -155 67t-38 175q19 109 100.5 177t179.5 68
q49 0 89 -21t55 -58l12 69h101l-71 -398q-53 -302 -310 -302q-68 0 -120 34.5t-73 96.5q10 4 46.5 21.5t46.5 21.5z" />
    <glyph glyph-name="h" unicode="h" horiz-adv-x="578" 
d="M219 251l-44 -251h-103l127 721h103l-57 -325q25 39 72.5 60t89.5 21q89 0 129 -55.5t22 -155.5l-46 -266h-103l45 260q9 53 -15 84.5t-69 31.5q-51 0 -95.5 -31t-55.5 -94z" />
    <glyph glyph-name="i" unicode="i" horiz-adv-x="246" 
d="M174 0l82 467h-102l-82 -467h102zM170 656q4 27 28 46t52 19q29 0 45 -18.5t12 -46.5t-27.5 -46.5t-52.5 -18.5q-28 0 -44.5 18.5t-12.5 46.5z" />
    <glyph glyph-name="j" unicode="j" horiz-adv-x="248" 
d="M-102 -231l17 96h56q79 0 94 105l89 497h104l-88 -497q-36 -201 -204 -201h-68zM171 656q4 27 28 46t52 19q29 0 45.5 -18.5t12.5 -46.5q-4 -27 -28 -46t-53 -19q-28 0 -44.5 18.5t-12.5 46.5z" />
    <glyph glyph-name="k" unicode="k" horiz-adv-x="506" 
d="M373 0l-161 217l-38 -217h-102l127 721h102l-72 -408l175 154h138l-235 -203l198 -264h-132z" />
    <glyph glyph-name="l" unicode="l" horiz-adv-x="247" 
d="M72 0l127 721h103l-127 -721h-103z" />
    <glyph glyph-name="m" unicode="m" horiz-adv-x="873" 
d="M669 376q-51 0 -87.5 -34.5t-46.5 -90.5l-44 -251h-103l45 262q9 53 -12 83.5t-63 30.5q-50 0 -89 -30.5t-50 -94.5l-44 -251h-103l82 467h103l-12 -70q28 43 75 61.5t86 18.5q106 0 130 -93q67 93 174 93q86 0 123 -54t20 -154l-47 -269h-103l45 260q10 54 -12 85
t-67 31z" />
    <glyph glyph-name="n" unicode="n" horiz-adv-x="563" 
d="M219 251l-44 -251h-103l82 467h103l-12 -70q25 38 70 59t87 21q85 0 121.5 -53t19.5 -152l-47 -272h-103l45 260q10 55 -11 85.5t-67 30.5q-51 0 -90.5 -30.5t-50.5 -94.5z" />
    <glyph glyph-name="o" unicode="o" horiz-adv-x="572" 
d="M300 90q60 0 107.5 40t59.5 105q11 63 -23 102t-94 39q-59 0 -107 -39t-59 -102q-12 -64 22.5 -104.5t93.5 -40.5zM282 -10q-102 0 -160.5 68.5t-39.5 176.5t101.5 175t184.5 67q103 0 162 -67t40 -175t-102.5 -176.5t-185.5 -68.5z" />
    <glyph glyph-name="p" unicode="p" horiz-adv-x="606" 
d="M257 467l-12 -69q28 37 75 58t95 21q97 0 152 -68t36 -176q-20 -109 -99 -176t-176 -67q-50 0 -89 20t-53 57l-53 -294h-103l124 694h103zM216 231q-11 -66 24 -104t92 -38q60 0 107.5 39.5t58.5 102.5q12 64 -21 105t-93 41q-59 0 -107.5 -40t-60.5 -106z" />
    <glyph glyph-name="q" unicode="q" horiz-adv-x="606" 
d="M470 231q12 66 -21.5 106t-93.5 40q-59 0 -106.5 -41t-59.5 -105q-11 -63 21.5 -102.5t92.5 -39.5q57 0 106.5 38.5t60.5 103.5zM502 398l11 69h103l-124 -694h-103l53 294q-27 -37 -73 -57t-96 -20q-98 0 -154 67t-36 176q19 108 99 176t177 68q49 0 89 -21.5t54 -57.5z
" />
    <glyph glyph-name="r" unicode="r" horiz-adv-x="399" 
d="M204 168l-29 -168h-103l82 467h103l-19 -107q55 117 149 117q56 0 79 -18l-33 -95q-30 16 -67 16q-63 0 -104 -57t-58 -155z" />
    <glyph glyph-name="s" unicode="s" horiz-adv-x="444" 
d="M216 202q-69 20 -93 57t-9 95q13 52 68 87.5t120 35.5q69 0 112 -34t35 -104h-98q1 25 -16.5 37.5t-43.5 12.5q-50 0 -71 -26q-15 -17 -11 -42q4 -22 51 -36l68 -18q116 -30 98 -136q-12 -66 -70.5 -103.5t-140.5 -37.5q-70 0 -116.5 41.5t-35.5 111.5h95q-2 -31 19 -49
t61 -18q36 0 62.5 15t30.5 41q7 40 -55 55z" />
    <glyph glyph-name="t" unicode="t" horiz-adv-x="336" 
d="M324 644l-30 -177h99l-15 -85h-99l-67 -382h-103l67 382h-84l15 85h84l30 177h103z" />
    <glyph glyph-name="u" unicode="u" horiz-adv-x="562" 
d="M424 216l45 251h103l-82 -467h-103l11 68q-25 -37 -69 -57.5t-84 -20.5q-86 0 -124.5 53.5t-19.5 151.5l48 272h103l-46 -260q-10 -56 11.5 -86.5t65.5 -30.5q51 0 90.5 30.5t50.5 95.5z" />
    <glyph glyph-name="v" unicode="v" horiz-adv-x="511" 
d="M208 0l-113 467h109l74 -336l192 336h110l-277 -467h-95z" />
    <glyph glyph-name="w" unicode="w" horiz-adv-x="782" 
d="M846 467l-253 -467h-85l-61 331l-172 -331h-84l-94 467h110l52 -315l164 315h96l52 -315l165 315h110z" />
    <glyph glyph-name="x" unicode="x" horiz-adv-x="506" 
d="M239 255l-116 212h122l67 -129l113 129h122l-190 -212l139 -255h-121l-92 171l-154 -171h-120z" />
    <glyph glyph-name="y" unicode="y" horiz-adv-x="507" 
d="M576 467l-413 -695h-108l146 250l-106 445h110l73 -320l188 320h110z" />
    <glyph glyph-name="z" unicode="z" horiz-adv-x="504" 
d="M139 467h398l-15 -82l-319 -288h268l-16 -97h-414l14 82l315 288h-248z" />
    <glyph glyph-name="braceleft" unicode="{" horiz-adv-x="399" 
d="M84 270q24 0 45.5 17.5t25.5 39.5l31 174q15 88 81.5 142t150.5 54h69l-13 -77h-72q-42 0 -77.5 -31t-43.5 -77l-28 -157q-7 -42 -29.5 -75.5t-59.5 -46.5q64 -21 46 -122l-27 -149q-8 -45 16.5 -78t65.5 -33h72l-15 -78h-69q-84 0 -130.5 54.5t-31.5 142.5l30 170
q4 21 -11.5 38.5t-39.5 17.5z" />
    <glyph glyph-name="bar" unicode="|" horiz-adv-x="227" 
d="M222 797h65l-163 -917h-65z" />
    <glyph glyph-name="braceright" unicode="}" horiz-adv-x="399" 
d="M410 270l-13 -74q-24 0 -45.5 -17.5t-25.5 -38.5l-30 -170q-15 -88 -82.5 -142.5t-151.5 -54.5h-67l13 78h72q41 0 76.5 33t43.5 78l27 149q8 42 30 76.5t58 45.5q-62 25 -45 122l28 157q8 46 -16 77t-66 31h-72l14 77h69q84 0 131.5 -54t31.5 -142l-31 -174
q-4 -22 11.5 -39.5t39.5 -17.5z" />
    <glyph glyph-name="exclamdown" unicode="&#xa1;" horiz-adv-x="249" 
d="M215 283l-78 -510h-111l107 510h82zM126 410q5 29 29.5 48t53.5 19q30 0 47 -19t12 -48t-29 -48.5t-54 -19.5q-29 0 -46.5 19.5t-12.5 48.5z" />
    <glyph glyph-name="cent" unicode="&#xa2;" horiz-adv-x="533" 
d="M417 579l-18 -103q103 -6 153 -80l-92 -64q-31 45 -97 45q-61 0 -111 -39.5t-62 -102.5q-11 -64 25 -105t96 -41q67 0 113 46l71 -63q-76 -73 -182 -81l-20 -110h-65l20 113q-85 15 -131 80t-29 161q17 95 86 159t159 79l19 106h65z" />
    <glyph glyph-name="sterling" unicode="&#xa3;" horiz-adv-x="643" 
d="M437 285h-143l-34 -187h198q41 0 51 14q4 5 5 12l8 50h102l-8 -51q-8 -53 -42.5 -88t-82.5 -35h-445l16 98h96l34 187h-78l10 61h78l22 120q19 106 85 168.5t163 62.5q86 0 134.5 -58t31.5 -156h-103q9 55 -17 84t-72 24q-40 -2 -74 -28.5t-41 -67.5l-27 -149h143z" />
    <glyph glyph-name="currency" unicode="&#xa4;" horiz-adv-x="614" 
d="M228 174l-82 -72l-48 59l83 71q-23 44 -12 107q10 59 52 108l-60 71l69 58l59 -71q53 32 112 32t103 -32l82 71l48 -58l-83 -72q23 -48 13 -107q-11 -60 -51 -107l58 -71l-69 -59l-58 72q-55 -33 -114 -33q-58 0 -102 33zM264 339q-8 -43 16.5 -73t67.5 -30t79 30t44 73
q7 43 -18 73.5t-68 30.5t-78 -30.5t-43 -73.5z" />
    <glyph glyph-name="yen" unicode="&#xa5;" horiz-adv-x="702" 
d="M462 319h174l-12 -65h-177l-14 -82h177l-11 -65h-177l-18 -107h-109l18 107h-174l11 65h174l14 82h-174l12 65h172l-194 370h127l142 -274l240 274h127z" />
    <glyph glyph-name="brokenbar" unicode="&#xa6;" horiz-adv-x="229" 
d="M128 267h65l-68 -387h-65zM288 797l-70 -388h-65l70 388h65z" />
    <glyph glyph-name="section" unicode="&#xa7;" horiz-adv-x="521" 
d="M356 220l-17 -97q-28 -7 -56 -7q-85 0 -133.5 54.5t-32.5 143.5l34 185q16 89 84 143.5t152 54.5q66 0 112.5 -38t55.5 -105l-95 -27q-8 36 -33 55.5t-58 19.5q-44 0 -79.5 -28.5t-43.5 -74.5l-34 -185q-9 -47 17.5 -75t71.5 -28q29 0 55 9zM259 321l16 97q28 7 56 7
q85 0 133.5 -54.5t32.5 -143.5l-33 -185q-15 -88 -84 -143t-153 -55q-66 0 -112.5 38t-54.5 105l95 27q7 -36 32 -55.5t59 -19.5q44 0 79.5 28.5t43.5 74.5l34 185q9 47 -17.5 75t-71.5 28q-29 0 -55 -9z" />
    <glyph glyph-name="dieresis" unicode="&#xa8;" horiz-adv-x="540" 
d="M230 622q4 26 26.5 43.5t49.5 17.5q26 0 41 -17.5t11 -43.5t-26 -44t-48 -18q-27 0 -42.5 18t-11.5 44zM401 622q4 26 26.5 43.5t49.5 17.5q26 0 41.5 -17.5t11.5 -43.5t-26.5 -44t-48.5 -18q-27 0 -42.5 18t-11.5 44z" />
    <glyph glyph-name="copyright" unicode="&#xa9;" horiz-adv-x="807" 
d="M583 222l-37 50q-58 -48 -101 -48q-47 0 -73.5 33.5t-18.5 80.5t46.5 80t85.5 33q44 0 83 -46l55 47q-52 66 -126 66q-76 0 -137 -52.5t-75 -127.5t29 -128t119 -53q74 0 150 65zM114 343q26 147 145.5 250.5t265.5 103.5t230 -104t58 -250q-26 -147 -146.5 -250
t-266.5 -103t-229 103t-57 250zM175 343q-22 -121 47 -206t190 -85q120 0 218.5 85t120.5 206t-47.5 206.5t-190.5 85.5q-120 0 -218 -85.5t-120 -206.5z" />
    <glyph glyph-name="ordfeminine" unicode="&#xaa;" horiz-adv-x="482" 
d="M390 324l9 49q-20 -26 -53.5 -41t-67.5 -15q-70 0 -110.5 48t-26.5 124t71 123.5t127 47.5q34 0 62 -14t39 -41l8 48h66l-58 -329h-66zM420 490q8 48 -19 76t-69 28q-44 0 -78.5 -29t-42.5 -75q-8 -47 16 -77t68 -30t80 29t45 78zM119 214l9 51h315l-9 -51h-315z" />
    <glyph glyph-name="guillemotleft" unicode="&#xab;" horiz-adv-x="494" 
d="M262 233l175 207h86l-175 -207l102 -207h-86zM85 233l175 207h87l-175 -207l102 -207h-87z" />
    <glyph glyph-name="logicalnot" unicode="&#xac;" horiz-adv-x="639" 
d="M135 362h489l-42 -248h-96l26 153h-393z" />
    <glyph glyph-name="registered" unicode="&#xae;" horiz-adv-x="807" 
d="M576 165l-69 127q41 10 66 40.5t31 69.5q8 47 -15.5 81.5t-77.5 34.5h-137l-62 -353h69l21 122h23l67 -122h84zM431 450h68q21 0 30.5 -14t6.5 -34q-3 -19 -19 -33t-38 -14h-66zM114 343q26 147 145.5 250.5t265.5 103.5t230 -104t58 -250q-26 -147 -146.5 -250
t-266.5 -103t-229 103t-57 250zM175 343q-22 -121 47 -206t190 -85q120 0 218.5 85t120.5 206t-47.5 206.5t-190.5 85.5q-120 0 -218 -85.5t-120 -206.5z" />
    <glyph glyph-name="macron" unicode="&#xaf;" horiz-adv-x="498" 
d="M221 572l14 81h258l-14 -81h-258z" />
    <glyph glyph-name="degree" unicode="&#xb0;" horiz-adv-x="369" 
d="M148 555q10 55 56 94.5t101 39.5q56 0 89 -39.5t23 -94.5t-56.5 -95t-102.5 -40q-55 0 -87.5 40t-22.5 95zM218 555q-4 -27 11.5 -46t41.5 -19q27 0 49.5 19t26.5 46q5 26 -10.5 45t-42.5 19q-26 0 -49 -19t-27 -45z" />
    <glyph glyph-name="plusminus" unicode="&#xb1;" horiz-adv-x="540" 
d="M364 281l-26 -145h-91l26 145h-157l16 90h157l26 143h91l-26 -143h158l-16 -90h-158zM473 0h-406l14 87h406z" />
    <glyph glyph-name="twosuperior" unicode="&#xb2;" horiz-adv-x="317" 
d="M114 463l191 189q30 28 36 57q4 24 -11 39.5t-41 15.5q-25 0 -46.5 -17t-31.5 -45l-55 14q17 50 57 80t88 30q52 0 82 -33t21 -84t-59 -101q-3 -3 -118 -114h139l-12 -63h-245z" />
    <glyph glyph-name="threesuperior" unicode="&#xb3;" horiz-adv-x="319" 
d="M221 735q-3 3 -19.5 16t-21.5 18q49 61 124 56q48 -2 73.5 -33.5t16.5 -73.5q-3 -23 -20 -44.5t-40 -32.5q28 -11 40 -41.5t3 -63.5q-13 -49 -61 -81.5t-102 -28.5q-38 3 -65.5 25t-37.5 56q51 26 57 29q7 -21 23 -35t38 -15h-1q29 -2 56 15.5t32 42.5q6 25 -10 45
t-47 20h-44l10 57h44q25 0 42.5 19t18.5 40q1 18 -11 29.5t-32 11.5q-38 4 -66 -31z" />
    <glyph glyph-name="acute" unicode="&#xb4;" horiz-adv-x="522" 
d="M352 698h116l-154 -158h-90z" />
    <glyph glyph-name="mu" unicode="&#xb5;" horiz-adv-x="559" 
d="M50 -163l112 630h103l-47 -265q-10 -53 10 -82t61 -29q49 0 89.5 30.5t51.5 93.5l45 252h103l-82 -467h-103l9 59q-25 -33 -64.5 -50.5t-76.5 -17.5q-58 0 -82 29l-18 -120l-11 -63h-100z" />
    <glyph glyph-name="paragraph" unicode="&#xb6;" horiz-adv-x="667" 
d="M451 689l-120 -679q-1 -5 -2.5 -19t-3 -18.5t-6.5 -12t-14 -10t-24 -2.5h-50l56 307q-85 5 -135 68t-34 149q16 90 90 153.5t165 63.5h78zM606 601h-25l-115 -650q-9 -52 -57.5 -93.5t-103.5 -43.5h-11h-87l14 80h96q21 0 39.5 14t21.5 32l133 749h103q56 0 90 -41
t24 -96l-16 -85h-84l14 83q4 21 -6.5 36t-29.5 15z" />
    <glyph glyph-name="periodcentered" unicode="&#xb7;" horiz-adv-x="274" 
d="M114 275q5 29 29 48.5t53 19.5q30 0 47.5 -19.5t12.5 -48.5t-29.5 -48.5t-54.5 -19.5q-29 0 -46 19.5t-12 48.5z" />
    <glyph glyph-name="cedilla" unicode="&#xb8;" horiz-adv-x="524" 
d="M209 -111q4 -14 16.5 -20t27.5 -2q16 7 23.5 21t4.5 29l-22 122h53l33 -94q5 -12 0 -44q-7 -39 -41.5 -70t-78.5 -31q-41 0 -65 32.5t-15 83.5l66 -4z" />
    <glyph glyph-name="onesuperior" unicode="&#xb9;" horiz-adv-x="209" 
d="M167 431l52 297l-73 -33l11 60l145 70l-70 -394h-65z" />
    <glyph glyph-name="ordmasculine" unicode="&#xba;" horiz-adv-x="474" 
d="M290 317q-71 0 -112.5 48.5t-28.5 124.5q13 75 71.5 122.5t130.5 47.5t113.5 -47.5t28.5 -122.5q-13 -76 -72 -124.5t-131 -48.5zM302 383q44 0 79.5 29.5t44.5 77.5q8 46 -17.5 75t-69.5 29t-79.5 -29t-43.5 -75q-9 -48 16 -77.5t70 -29.5zM112 214l9 51h327l-9 -51
h-327z" />
    <glyph glyph-name="guillemotright" unicode="&#xbb;" horiz-adv-x="494" 
d="M212 440l100 -207l-174 -207h-86l174 207l-100 207h86zM389 440l100 -207l-174 -207h-87l174 207l-100 207h87z" />
    <glyph glyph-name="onequarter" unicode="&#xbc;" horiz-adv-x="751" 
d="M735 668l-571 -678h-71l571 678h71zM156 264l53 297l-73 -33l10 60l144 70l-69 -394h-65zM670 80l-13 -80h-65l13 80h-197l263 310h54l-45 -251h54l-10 -59h-54zM522 139h93l26 143z" />
    <glyph glyph-name="onehalf" unicode="&#xbd;" horiz-adv-x="800" 
d="M735 668l-571 -678h-71l571 678h71zM156 264l53 297l-73 -33l10 60l144 70l-69 -394h-65zM509 32l191 189q33 33 37 57t-11.5 39.5t-41.5 15.5q-25 0 -47 -17t-31 -45l-55 14q16 50 56.5 80t88.5 30q53 0 83 -33t21 -84q-8 -50 -61 -101q-22 -21 -118 -114h139l-10 -63
h-245z" />
    <glyph glyph-name="threequarters" unicode="&#xbe;" horiz-adv-x="810" 
d="M797 668l-571 -678h-71l571 678h71zM730 80l-14 -80h-65l14 80h-197l262 310h54l-45 -251h54l-9 -59h-54zM581 139h93l26 143zM210 564q-5 4 -21.5 18t-21.5 19q22 28 56.5 44t70.5 14q48 -2 73.5 -34t17.5 -75q-9 -45 -56 -76q55 -26 40 -98q-12 -54 -57.5 -86
t-101.5 -31q-37 1 -68.5 23t-41.5 56l60 30q6 -19 25 -31.5t40 -13.5q28 -1 50.5 14.5t27.5 40.5t-7 44t-42 19h-52l11 60h46q37 0 54 41q7 22 -4.5 38t-38.5 16q-31 0 -60 -32z" />
    <glyph glyph-name="questiondown" unicode="&#xbf;" horiz-adv-x="476" 
d="M281 231l11 51h100l-9 -51q-7 -39 -19 -65t-32.5 -42.5t-39 -26.5t-52 -25.5t-58.5 -30.5q-45 -27 -54 -75q-7 -41 20 -67t70 -26q42 0 76 29.5t43 77.5h99q-17 -94 -85 -151.5t-153 -57.5q-87 0 -137 53.5t-35 141.5q12 70 61 120t115 69q36 10 54.5 26.5t24.5 49.5z
M435 410q-5 -29 -29.5 -48.5t-53.5 -19.5q-30 0 -47 19.5t-12 48.5t29 48t54 19q29 0 46.5 -19t12.5 -48z" />
    <glyph glyph-name="Agrave" unicode="&#xc0;" horiz-adv-x="647" 
d="M529 0l-37 172h-278l-95 -172h-113l381 689h115l139 -689h-112zM422 556l-155 -289h206zM318 920h116l72 -158h-90z" />
    <glyph glyph-name="Aacute" unicode="&#xc1;" horiz-adv-x="647" 
d="M492 172l37 -172h112l-139 689h-115l-381 -689h113l95 172h278zM267 267l155 289l51 -289h-206zM539 920h116l-154 -158h-90z" />
    <glyph glyph-name="Acircumflex" unicode="&#xc2;" horiz-adv-x="647" 
d="M529 0l-37 172h-278l-95 -172h-113l381 689h115l139 -689h-112zM422 556l-155 -289h206zM433 921h104l83 -158h-87l-61 88l-90 -88h-86z" />
    <glyph glyph-name="Atilde" unicode="&#xc3;" horiz-adv-x="647" 
d="M529 0l-37 172h-278l-95 -172h-113l381 689h115l139 -689h-112zM422 556l-155 -289h206zM424 821q-9 0 -19.5 -11t-15.5 -33h-65q14 63 46 91.5t67 28.5q26 0 49 -20.5t32 -20.5q10 0 20 10t15 31h64q-14 -62 -46 -89.5t-67 -27.5q-24 0 -47 20.5t-33 20.5z" />
    <glyph glyph-name="Adieresis" unicode="&#xc4;" horiz-adv-x="647" 
d="M492 172l37 -172h112l-139 689h-115l-381 -689h113l95 172h278zM267 267l155 289l51 -289h-206zM322 844q4 26 26.5 43.5t49.5 17.5q26 0 41 -17.5t11 -43.5t-26 -44t-48 -18q-27 0 -42.5 18t-11.5 44zM493 844q4 26 26.5 43.5t49.5 17.5q26 0 41.5 -17.5t11.5 -43.5
t-26.5 -44t-48.5 -18q-27 0 -42.5 18t-11.5 44z" />
    <glyph glyph-name="Aring" unicode="&#xc5;" horiz-adv-x="647" 
d="M492 172l37 -172h112l-139 689h-115l-381 -689h113l95 172h278zM267 267l155 289l51 -289h-206zM365 860q8 47 46 79t83 32q47 0 72.5 -32t17.5 -79q-7 -45 -45 -76.5t-85 -31.5q-45 0 -71 31.5t-18 76.5zM421 860q-4 -21 8.5 -36.5t34.5 -15.5t41 15.5t23 36.5
q4 23 -8.5 39t-35.5 16q-22 0 -40.5 -16t-22.5 -39z" />
    <glyph glyph-name="AE" unicode="&#xc6;" horiz-adv-x="931" 
d="M549 689h441l-18 -101h-307l-35 -199h269l-18 -101h-269l-33 -187h318l-17 -101h-424v0l29 169h-230l-137 -169h-125zM552 543l-217 -272h168z" />
    <glyph glyph-name="Ccedilla" unicode="&#xc7;" horiz-adv-x="685" 
d="M300 -111q4 -14 16 -20t27 -2q16 7 23.5 21t4.5 29l-13 75q-132 13 -203 113t-47 238q26 147 145.5 250.5t265.5 103.5q81 0 143.5 -33t99.5 -91l-92 -64q-61 86 -170 86q-102 0 -184.5 -73.5t-101.5 -178.5t38 -178t159 -73q115 0 202 90l70 -65q-109 -115 -263 -126
l16 -46q5 -14 0 -44q-7 -39 -42 -70t-79 -31q-41 0 -65 32.5t-15 83.5l66 -4z" />
    <glyph glyph-name="Egrave" unicode="&#xc8;" horiz-adv-x="567" 
d="M90 0l121 689h415l-17 -98h-309l-36 -204h270l-18 -97h-270l-34 -193h319l-16 -97h-425zM321 920h116l72 -158h-90z" />
    <glyph glyph-name="Eacute" unicode="&#xc9;" horiz-adv-x="567" 
d="M211 689l-121 -689h425l16 97h-319l34 193h270l18 97h-270l36 204h309l17 98h-415zM478 920h116l-154 -158h-90z" />
    <glyph glyph-name="Ecircumflex" unicode="&#xca;" horiz-adv-x="567" 
d="M90 0l121 689h415l-17 -98h-309l-36 -204h270l-18 -97h-270l-34 -193h319l-16 -97h-425zM392 921h104l83 -158h-87l-61 88l-90 -88h-86z" />
    <glyph glyph-name="Edieresis" unicode="&#xcb;" horiz-adv-x="567" 
d="M211 689l-121 -689h425l16 97h-319l34 193h270l18 97h-270l36 204h309l17 98h-415zM291 844q4 26 26.5 43.5t49.5 17.5q26 0 41 -17.5t11 -43.5t-26 -44t-48 -18q-27 0 -42.5 18t-11.5 44zM462 844q4 26 26.5 43.5t49.5 17.5q26 0 41.5 -17.5t11.5 -43.5t-26.5 -44
t-48.5 -18q-27 0 -42.5 18t-11.5 44z" />
    <glyph glyph-name="Igrave" unicode="&#xcc;" horiz-adv-x="286" 
d="M90 0l121 689h106l-121 -689h-106zM136 920h116l72 -158h-90z" />
    <glyph glyph-name="Iacute" unicode="&#xcd;" horiz-adv-x="286" 
d="M211 689l-121 -689h106l121 689h-106zM355 920h116l-154 -158h-90z" />
    <glyph glyph-name="Icircumflex" unicode="&#xce;" horiz-adv-x="286" 
d="M90 0l121 689h106l-121 -689h-106zM253 921h104l83 -158h-87l-61 88l-90 -88h-86z" />
    <glyph glyph-name="Idieresis" unicode="&#xcf;" horiz-adv-x="286" 
d="M211 689l-121 -689h106l121 689h-106zM142 844q4 26 26.5 43.5t49.5 17.5q26 0 41 -17.5t11 -43.5t-26 -44t-48 -18q-27 0 -42.5 18t-11.5 44zM313 844q4 26 26.5 43.5t49.5 17.5q26 0 41.5 -17.5t11.5 -43.5t-26.5 -44t-48.5 -18q-27 0 -42.5 18t-11.5 44z" />
    <glyph glyph-name="Eth" unicode="&#xd0;" horiz-adv-x="723" 
d="M59 304l14 76h93l54 309h265q144 0 209 -97t38 -249q-27 -151 -125.5 -247t-242.5 -96h-265l53 304h-93zM259 304l-35 -202h158q97 0 161 67t83 174t-21.5 175.5t-137.5 68.5h-158l-36 -207h154l-14 -76h-154z" />
    <glyph glyph-name="Ntilde" unicode="&#xd1;" horiz-adv-x="681" 
d="M712 689l-121 -689h-99l-210 493l-86 -493h-106l121 689h102l207 -489l86 489h106zM441 821q-9 0 -19.5 -11t-15.5 -33h-65q14 63 46 91.5t67 28.5q26 0 49 -20.5t32 -20.5q10 0 20 10t15 31h64q-14 -62 -46 -89.5t-67 -27.5q-25 0 -48 20.5t-32 20.5z" />
    <glyph glyph-name="Ograve" unicode="&#xd2;" horiz-adv-x="792" 
d="M213 343q-19 -104 38 -176.5t159 -72.5t185.5 72.5t102.5 176.5t-39 177t-160 73t-185 -73t-101 -177zM107 343q26 148 145 251t265 103q147 0 230.5 -103.5t57.5 -250.5t-146 -250t-267 -103q-146 0 -228.5 103t-56.5 250zM385 920h116l71 -158h-90z" />
    <glyph glyph-name="Oacute" unicode="&#xd3;" horiz-adv-x="792" 
d="M213 343q18 104 101 177t185 73t160 -73t39 -177t-102.5 -176.5t-185.5 -72.5t-159 72.5t-38 176.5zM107 343q-26 -147 56.5 -250t228.5 -103q147 0 267 103t146 250t-57.5 250.5t-230.5 103.5q-146 0 -265 -103t-145 -251zM610 920h116l-155 -158h-90z" />
    <glyph glyph-name="Ocircumflex" unicode="&#xd4;" horiz-adv-x="792" 
d="M213 343q-19 -104 38 -176.5t159 -72.5t185.5 72.5t102.5 176.5t-39 177t-160 73t-185 -73t-101 -177zM107 343q26 148 145 251t265 103q147 0 230.5 -103.5t57.5 -250.5t-146 -250t-267 -103q-146 0 -228.5 103t-56.5 250zM506 921h104l82 -158h-87l-60 88l-91 -88h-86z
" />
    <glyph glyph-name="Otilde" unicode="&#xd5;" horiz-adv-x="792" 
d="M213 343q-19 -104 38 -176.5t159 -72.5t185.5 72.5t102.5 176.5t-39 177t-160 73t-185 -73t-101 -177zM107 343q26 148 145 251t265 103q147 0 230.5 -103.5t57.5 -250.5t-146 -250t-267 -103q-146 0 -228.5 103t-56.5 250zM496 821q-9 0 -19.5 -11t-14.5 -33h-65
q14 62 46 91t67 29q26 0 49 -20.5t32 -20.5t19.5 9.5t15.5 31.5h64q-15 -62 -46.5 -89.5t-66.5 -27.5q-25 0 -48 20.5t-33 20.5z" />
    <glyph glyph-name="Odieresis" unicode="&#xd6;" horiz-adv-x="792" 
d="M213 343q18 104 101 177t185 73t160 -73t39 -177t-102.5 -176.5t-185.5 -72.5t-159 72.5t-38 176.5zM107 343q-26 -147 56.5 -250t228.5 -103q147 0 267 103t146 250t-57.5 250.5t-230.5 103.5q-146 0 -265 -103t-145 -251zM394 844q4 26 27 43.5t50 17.5
q26 0 40.5 -17.5t10.5 -43.5t-25.5 -44t-47.5 -18q-27 0 -43 18t-12 44zM565 844q4 26 27 43.5t50 17.5q26 0 41 -17.5t11 -43.5t-26 -44t-48 -18q-27 0 -43 18t-12 44z" />
    <glyph glyph-name="multiply" unicode="&#xd7;" horiz-adv-x="495" 
d="M359 269l100 -122l-75 -65l-101 123l-143 -121l-53 63l145 122l-101 122l75 63l100 -121l145 123l52 -65z" />
    <glyph glyph-name="Oslash" unicode="&#xd8;" horiz-adv-x="790" 
d="M186 66l-94 -82l-39 47l96 82q-67 97 -43 230q26 148 145 251t265 103q127 0 210 -81l93 81l39 -46l-94 -82q62 -99 40 -226q-26 -147 -146 -250t-267 -103q-100 0 -174 52q-12 8 -31 24zM212 343q-15 -87 22 -154l404 351q-55 53 -140 53q-102 0 -185 -73t-101 -177z
M409 94q102 0 185.5 72.5t102.5 176.5q15 83 -22 149l-402 -350q54 -48 136 -48z" />
    <glyph glyph-name="Ugrave" unicode="&#xd9;" horiz-adv-x="677" 
d="M354 92q61 0 111 41t62 106l80 450h108l-80 -450q-20 -110 -106.5 -179.5t-192.5 -69.5q-107 0 -169.5 69.5t-43.5 179.5l81 450h108l-81 -450q-11 -65 25.5 -106t97.5 -41zM343 920h116l72 -158h-90z" />
    <glyph glyph-name="Uacute" unicode="&#xda;" horiz-adv-x="677" 
d="M354 92q61 0 111 41t62 106l80 450h108l-80 -450q-20 -110 -106.5 -179.5t-192.5 -69.5q-107 0 -169.5 69.5t-43.5 179.5l81 450h108l-81 -450q-11 -65 25.5 -106t97.5 -41zM532 920h116l-154 -158h-90z" />
    <glyph glyph-name="Ucircumflex" unicode="&#xdb;" horiz-adv-x="677" 
d="M354 92q61 0 111 41t62 106l80 450h108l-80 -450q-20 -110 -106.5 -179.5t-192.5 -69.5q-107 0 -169.5 69.5t-43.5 179.5l81 450h108l-81 -450q-11 -65 25.5 -106t97.5 -41zM447 921h104l83 -158h-87l-60 88l-91 -88h-86z" />
    <glyph glyph-name="Udieresis" unicode="&#xdc;" horiz-adv-x="677" 
d="M354 92q61 0 111 41t62 106l80 450h108l-80 -450q-20 -110 -106.5 -179.5t-192.5 -69.5q-107 0 -169.5 69.5t-43.5 179.5l81 450h108l-81 -450q-11 -65 25.5 -106t97.5 -41zM336 844q4 26 27 43.5t50 17.5q26 0 40.5 -17.5t10.5 -43.5t-25.5 -44t-47.5 -18q-27 0 -43 18
t-12 44zM507 844q4 26 27 43.5t50 17.5q26 0 41 -17.5t11 -43.5t-26 -44t-48 -18q-27 0 -43 18t-12 44z" />
    <glyph glyph-name="Yacute" unicode="&#xdd;" horiz-adv-x="634" 
d="M371 0h-109l56 316l-197 373h127l142 -274l240 274h127l-331 -374zM512 920h116l-154 -158h-90z" />
    <glyph glyph-name="Thorn" unicode="&#xde;" horiz-adv-x="572" 
d="M496 353q9 54 -19 86.5t-76 32.5h-122l-43 -239h128q46 0 84 33.5t48 86.5zM349 135h-130l-23 -135h-106l121 689h106l-21 -120h130q91 0 142.5 -59.5t33.5 -155.5q-18 -98 -90 -158.5t-163 -60.5z" />
    <glyph glyph-name="germandbls" unicode="&#xdf;" horiz-adv-x="565" 
d="M210 3l25 97q38 -13 71 -13q56 0 102 40t55 93q9 50 -22.5 91t-88.5 41h-35l16 86h31q35 0 63.5 25t34.5 59t-16 55.5t-62 22.5q-50 0 -85 -35.5t-44 -85.5l-84 -479h-99l87 490q17 97 82 152t153 55q84 0 132.5 -48t35.5 -122q-14 -74 -85 -120q46 -25 70 -76.5
t14 -112.5q-17 -97 -93.5 -162.5t-177.5 -65.5q-38 -2 -80 13z" />
    <glyph glyph-name="agrave" unicode="&#xe0;" horiz-adv-x="610" 
d="M436 0l11 67q-29 -37 -76.5 -57t-93.5 -20q-98 0 -155.5 67.5t-38.5 176.5q19 108 100.5 175.5t179.5 67.5q46 0 87.5 -19.5t56.5 -56.5l11 66h102l-82 -467h-102zM189 235q-11 -63 23.5 -104t94.5 -41t108.5 39.5t60.5 105.5q11 65 -25 103.5t-93 38.5
q-60 0 -108.5 -39.5t-60.5 -102.5zM282 698h116l72 -158h-90z" />
    <glyph glyph-name="aacute" unicode="&#xe1;" horiz-adv-x="610" 
d="M436 0l11 67q-29 -37 -76.5 -57t-93.5 -20q-98 0 -155.5 67.5t-38.5 176.5q19 108 100.5 175.5t179.5 67.5q46 0 87.5 -19.5t56.5 -56.5l11 66h102l-82 -467h-102zM189 235q-11 -63 23.5 -104t94.5 -41t108.5 39.5t60.5 105.5q11 65 -25 103.5t-93 38.5
q-60 0 -108.5 -39.5t-60.5 -102.5zM456 698h116l-154 -158h-90z" />
    <glyph glyph-name="acircumflex" unicode="&#xe2;" horiz-adv-x="610" 
d="M436 0l11 67q-29 -37 -76.5 -57t-93.5 -20q-98 0 -155.5 67.5t-38.5 176.5q19 108 100.5 175.5t179.5 67.5q46 0 87.5 -19.5t56.5 -56.5l11 66h102l-82 -467h-102zM189 235q-11 -63 23.5 -104t94.5 -41t108.5 39.5t60.5 105.5q11 65 -25 103.5t-93 38.5
q-60 0 -108.5 -39.5t-60.5 -102.5zM376 699h104l82 -158h-87l-59 88l-92 -88h-86z" />
    <glyph glyph-name="atilde" unicode="&#xe3;" horiz-adv-x="610" 
d="M436 0l11 67q-29 -37 -76.5 -57t-93.5 -20q-98 0 -155.5 67.5t-38.5 176.5q19 108 100.5 175.5t179.5 67.5q46 0 87.5 -19.5t56.5 -56.5l11 66h102l-82 -467h-102zM189 235q-11 -63 23.5 -104t94.5 -41t108.5 39.5t60.5 105.5q11 65 -25 103.5t-93 38.5
q-60 0 -108.5 -39.5t-60.5 -102.5zM367 599q-10 0 -20.5 -11t-14.5 -33h-65q14 62 46.5 91t67.5 29q26 0 48 -20.5t31 -20.5q10 0 21 10t16 31h64q-15 -62 -46.5 -89.5t-66.5 -27.5q-24 0 -47.5 20.5t-33.5 20.5z" />
    <glyph glyph-name="adieresis" unicode="&#xe4;" horiz-adv-x="610" 
d="M436 0l11 67q-29 -37 -76.5 -57t-93.5 -20q-98 0 -155.5 67.5t-38.5 176.5q19 108 100.5 175.5t179.5 67.5q46 0 87.5 -19.5t56.5 -56.5l11 66h102l-82 -467h-102zM189 235q-11 -63 23.5 -104t94.5 -41t108.5 39.5t60.5 105.5q11 65 -25 103.5t-93 38.5
q-60 0 -108.5 -39.5t-60.5 -102.5zM265 622q4 26 27 43.5t50 17.5q26 0 40.5 -17.5t10.5 -43.5t-25.5 -44t-47.5 -18q-27 0 -43 18t-12 44zM436 622q4 26 27 43.5t50 17.5q26 0 41 -17.5t11 -43.5t-26 -44t-48 -18q-27 0 -43 18t-12 44z" />
    <glyph glyph-name="aring" unicode="&#xe5;" horiz-adv-x="610" 
d="M436 0l11 67q-29 -37 -76.5 -57t-93.5 -20q-98 0 -155.5 67.5t-38.5 176.5q19 108 100.5 175.5t179.5 67.5q46 0 87.5 -19.5t56.5 -56.5l11 66h102l-82 -467h-102zM189 235q-11 -63 23.5 -104t94.5 -41t108.5 39.5t60.5 105.5q11 65 -25 103.5t-93 38.5
q-60 0 -108.5 -39.5t-60.5 -102.5zM307 638q9 47 46 79t82 32q47 0 73.5 -32t17.5 -79q-8 -45 -46 -76.5t-84 -31.5q-45 0 -71 31.5t-18 76.5zM364 638q-4 -21 8 -36.5t34 -15.5t41.5 15.5t23.5 36.5q4 23 -9.5 39t-36.5 16q-22 0 -39 -16t-22 -39z" />
    <glyph glyph-name="ae" unicode="&#xe6;" horiz-adv-x="969" 
d="M608 272h270q2 54 -28 84.5t-83 30.5q-55 0 -99 -31t-60 -84zM189 235q-11 -63 23.5 -104t94.5 -41t108.5 39.5t60.5 105.5q11 65 -25 103.5t-93 38.5q-60 0 -108.5 -39.5t-60.5 -102.5zM973 235q-4 -20 -9 -38h-370q-2 -54 32 -85.5t91 -31.5q40 0 78 18t61 49
q30 -16 78 -37q-41 -59 -105 -89.5t-133 -30.5q-101 0 -151 63l-10 -53h-99l11 67q-29 -37 -76.5 -57t-93.5 -20q-98 0 -155.5 67.5t-38.5 176.5q19 108 100.5 175.5t179.5 67.5q46 0 87.5 -19.5t56.5 -56.5l11 66h99l-9 -52q78 62 174 62q102 0 156 -66.5t35 -175.5z" />
    <glyph glyph-name="ccedilla" unicode="&#xe7;" horiz-adv-x="515" 
d="M319 -8l17 -47q5 -12 0 -44q-7 -39 -42 -70t-79 -31q-41 0 -65 32.5t-15 83.5l66 -4l-1 -23q4 -14 16 -20t27 -2q16 7 23.5 21t4.5 29l-13 75q-91 11 -142 77.5t-33 165.5q19 108 103.5 175t188.5 67q117 0 172 -81l-92 -64q-33 45 -97 45q-61 0 -111 -39.5t-62 -102.5
q-11 -64 25 -105t96 -41q67 0 113 46l70 -63q-71 -69 -170 -80z" />
    <glyph glyph-name="egrave" unicode="&#xe8;" horiz-adv-x="553" 
d="M556 235q-5 -29 -8 -38h-371q-2 -53 32 -85t91 -32q40 0 78 18t61 49q30 -16 78 -37q-41 -59 -105 -89.5t-133 -30.5q-102 0 -159 68t-38 177t100 175.5t183 66.5t156 -66.5t35 -175.5zM191 272h271q1 54 -29 84.5t-83 30.5q-55 0 -98.5 -31t-60.5 -84zM243 698h116
l72 -158h-90z" />
    <glyph glyph-name="eacute" unicode="&#xe9;" horiz-adv-x="553" 
d="M556 235q19 109 -35 175.5t-156 66.5t-183 -66.5t-100 -175.5t38 -177t159 -68q69 0 133 30.5t105 89.5q-48 21 -78 37q-23 -31 -61 -49t-78 -18q-57 0 -91 32t-32 85h371q3 9 8 38zM191 272q17 53 60.5 84t98.5 31q53 0 83 -30.5t29 -84.5h-271zM439 698h116l-154 -158
h-90z" />
    <glyph glyph-name="ecircumflex" unicode="&#xea;" horiz-adv-x="553" 
d="M556 235q-5 -29 -8 -38h-371q-2 -53 32 -85t91 -32q40 0 78 18t61 49q30 -16 78 -37q-41 -59 -105 -89.5t-133 -30.5q-102 0 -159 68t-38 177t100 175.5t183 66.5t156 -66.5t35 -175.5zM191 272h271q1 54 -29 84.5t-83 30.5q-55 0 -98.5 -31t-60.5 -84zM349 699h104
l82 -158h-87l-59 88l-92 -88h-86z" />
    <glyph glyph-name="edieresis" unicode="&#xeb;" horiz-adv-x="553" 
d="M556 235q19 109 -35 175.5t-156 66.5t-183 -66.5t-100 -175.5t38 -177t159 -68q69 0 133 30.5t105 89.5q-48 21 -78 37q-23 -31 -61 -49t-78 -18q-57 0 -91 32t-32 85h371q3 9 8 38zM191 272q17 53 60.5 84t98.5 31q53 0 83 -30.5t29 -84.5h-271zM238 622q4 26 27 43.5
t50 17.5q26 0 40.5 -17.5t10.5 -43.5t-25.5 -44t-47.5 -18q-27 0 -43 18t-12 44zM409 622q4 26 27 43.5t50 17.5q26 0 41 -17.5t11 -43.5t-26 -44t-48 -18q-27 0 -43 18t-12 44z" />
    <glyph glyph-name="igrave" unicode="&#xec;" horiz-adv-x="246" 
d="M154 467h102l-82 -467h-102zM78 698h116l72 -158h-90z" />
    <glyph glyph-name="iacute" unicode="&#xed;" horiz-adv-x="246" 
d="M256 467h-102l-82 -467h102zM298 698h116l-154 -158h-90z" />
    <glyph glyph-name="icircumflex" unicode="&#xee;" horiz-adv-x="246" 
d="M154 467h102l-82 -467h-102zM184 699h104l82 -158h-87l-60 88l-91 -88h-86z" />
    <glyph glyph-name="idieresis" unicode="&#xef;" horiz-adv-x="246" 
d="M256 467h-102l-82 -467h102zM73 622q4 26 26.5 43.5t49.5 17.5q26 0 41 -17.5t11 -43.5t-26 -44t-48 -18q-27 0 -42.5 18t-11.5 44zM244 622q4 26 26.5 43.5t49.5 17.5q26 0 41.5 -17.5t11.5 -43.5t-26.5 -44t-48.5 -18q-27 0 -42.5 18t-11.5 44z" />
    <glyph glyph-name="eth" unicode="&#xf0;" horiz-adv-x="572" 
d="M421 593l128 -212q35 -61 20 -146q-19 -108 -101.5 -176.5t-184.5 -68.5t-161 68.5t-40 176.5q19 104 97.5 171.5t171.5 67.5q23 0 38 -7l-55 80l-94 -49l-23 47l88 47l-57 97h112l31 -51l78 39l27 -42zM300 89q60 0 110 41t61 105t-24 103.5t-95 39.5
q-61 0 -110.5 -39.5t-60.5 -103.5q-11 -65 23.5 -105.5t95.5 -40.5z" />
    <glyph glyph-name="ntilde" unicode="&#xf1;" horiz-adv-x="563" 
d="M219 251l-44 -251h-103l82 467h103l-12 -70q25 38 70 59t87 21q85 0 121.5 -53t19.5 -152l-47 -272h-103l45 260q10 55 -11 85.5t-67 30.5q-51 0 -90.5 -30.5t-50.5 -94.5zM346 599q-10 0 -20.5 -11t-15.5 -33h-65q15 63 47 91.5t67 28.5q26 0 48.5 -20.5t31.5 -20.5
q10 0 20.5 10t15.5 31h64q-14 -62 -46 -89.5t-67 -27.5q-24 0 -47 20.5t-33 20.5z" />
    <glyph glyph-name="ograve" unicode="&#xf2;" horiz-adv-x="572" 
d="M300 90q60 0 107.5 40t59.5 105q11 63 -23 102t-94 39q-59 0 -107 -39t-59 -102q-12 -64 22.5 -104.5t93.5 -40.5zM282 -10q-102 0 -160.5 68.5t-39.5 176.5t101.5 175t184.5 67q103 0 162 -67t40 -175t-102.5 -176.5t-185.5 -68.5zM231 698h116l72 -158h-90z" />
    <glyph glyph-name="oacute" unicode="&#xf3;" horiz-adv-x="572" 
d="M300 90q-59 0 -93.5 40.5t-22.5 104.5q11 63 59 102t107 39q60 0 94 -39t23 -102q-12 -65 -59.5 -105t-107.5 -40zM282 -10q102 0 185.5 68.5t102.5 176.5t-40 175t-162 67q-102 0 -184.5 -67t-101.5 -175t39.5 -176.5t160.5 -68.5zM459 698h116l-154 -158h-90z" />
    <glyph glyph-name="ocircumflex" unicode="&#xf4;" horiz-adv-x="572" 
d="M300 90q60 0 107.5 40t59.5 105q11 63 -23 102t-94 39q-59 0 -107 -39t-59 -102q-12 -64 22.5 -104.5t93.5 -40.5zM282 -10q-102 0 -160.5 68.5t-39.5 176.5t101.5 175t184.5 67q103 0 162 -67t40 -175t-102.5 -176.5t-185.5 -68.5zM356 699h104l82 -158h-87l-59 88
l-92 -88h-86z" />
    <glyph glyph-name="otilde" unicode="&#xf5;" horiz-adv-x="572" 
d="M300 90q60 0 107.5 40t59.5 105q11 63 -23 102t-94 39q-59 0 -107 -39t-59 -102q-12 -64 22.5 -104.5t93.5 -40.5zM282 -10q-102 0 -160.5 68.5t-39.5 176.5t101.5 175t184.5 67q103 0 162 -67t40 -175t-102.5 -176.5t-185.5 -68.5zM347 599q-10 0 -20.5 -11t-14.5 -33
h-65q14 62 46.5 91t67.5 29q26 0 48 -20.5t31 -20.5q10 0 21 10t16 31h64q-15 -62 -46.5 -89.5t-66.5 -27.5q-24 0 -48 20.5t-33 20.5z" />
    <glyph glyph-name="odieresis" unicode="&#xf6;" horiz-adv-x="572" 
d="M300 90q-59 0 -93.5 40.5t-22.5 104.5q11 63 59 102t107 39q60 0 94 -39t23 -102q-12 -65 -59.5 -105t-107.5 -40zM282 -10q102 0 185.5 68.5t102.5 176.5t-40 175t-162 67q-102 0 -184.5 -67t-101.5 -175t39.5 -176.5t160.5 -68.5zM245 622q4 26 27 43.5t50 17.5
q26 0 40.5 -17.5t10.5 -43.5t-25.5 -44t-47.5 -18q-27 0 -43 18t-12 44zM416 622q4 26 27 43.5t50 17.5q26 0 41 -17.5t11 -43.5t-26 -44t-48 -18q-27 0 -43 18t-12 44z" />
    <glyph glyph-name="divide" unicode="&#xf7;" horiz-adv-x="548" 
d="M218 84q4 28 28.5 47t52.5 19t44.5 -19t12.5 -47t-28.5 -47t-52.5 -19t-44.5 19t-12.5 47zM279 424q4 28 28 46.5t52 18.5t45 -18.5t13 -46.5t-28.5 -47t-52.5 -19t-44.5 19t-12.5 47zM96 209h428l14 86h-428z" />
    <glyph glyph-name="oslash" unicode="&#xf8;" horiz-adv-x="572" 
d="M283 -10q-83 0 -135 43l-68 -58l-39 47l66 57q-41 65 -25 156q20 108 102.5 175t184.5 67q81 0 142 -48l60 52l39 -46l-60 -52q35 -64 21 -148q-19 -108 -102.5 -176.5t-185.5 -68.5zM351 376q-59 0 -107 -39t-59 -102q-9 -49 8 -81l232 201q-30 21 -74 21zM301 90
q60 0 108 40t59 105q7 38 -5 72l-230 -199q29 -18 68 -18z" />
    <glyph glyph-name="ugrave" unicode="&#xf9;" horiz-adv-x="562" 
d="M424 216l45 251h103l-82 -467h-103l11 68q-25 -37 -69 -57.5t-84 -20.5q-86 0 -124.5 53.5t-19.5 151.5l48 272h103l-46 -260q-10 -56 11.5 -86.5t65.5 -30.5q51 0 90.5 30.5t50.5 95.5zM245 698h116l72 -158h-90z" />
    <glyph glyph-name="uacute" unicode="&#xfa;" horiz-adv-x="562" 
d="M424 216l45 251h103l-82 -467h-103l11 68q-25 -37 -69 -57.5t-84 -20.5q-86 0 -124.5 53.5t-19.5 151.5l48 272h103l-46 -260q-10 -56 11.5 -86.5t65.5 -30.5q51 0 90.5 30.5t50.5 95.5zM436 698h116l-154 -158h-90z" />
    <glyph glyph-name="ucircumflex" unicode="&#xfb;" horiz-adv-x="562" 
d="M424 216l45 251h103l-82 -467h-103l11 68q-25 -37 -69 -57.5t-84 -20.5q-86 0 -124.5 53.5t-19.5 151.5l48 272h103l-46 -260q-10 -56 11.5 -86.5t65.5 -30.5q51 0 90.5 30.5t50.5 95.5zM349 699h104l82 -158h-87l-60 88l-91 -88h-86z" />
    <glyph glyph-name="udieresis" unicode="&#xfc;" horiz-adv-x="562" 
d="M424 216l45 251h103l-82 -467h-103l11 68q-25 -37 -69 -57.5t-84 -20.5q-86 0 -124.5 53.5t-19.5 151.5l48 272h103l-46 -260q-10 -56 11.5 -86.5t65.5 -30.5q51 0 90.5 30.5t50.5 95.5zM238 622q4 26 26.5 43.5t49.5 17.5q26 0 41 -17.5t11 -43.5t-26 -44t-48 -18
q-27 0 -42.5 18t-11.5 44zM409 622q4 26 26.5 43.5t49.5 17.5q26 0 41.5 -17.5t11.5 -43.5t-26.5 -44t-48.5 -18q-27 0 -42.5 18t-11.5 44z" />
    <glyph glyph-name="yacute" unicode="&#xfd;" horiz-adv-x="507" 
d="M163 -228l413 695h-110l-188 -320l-73 320h-110l106 -445l-146 -250h108zM398 698h116l-154 -158h-90z" />
    <glyph glyph-name="thorn" unicode="&#xfe;" horiz-adv-x="601" 
d="M216 234q-12 -66 22.5 -105t94.5 -39q58 0 104.5 40.5t57.5 103.5q12 63 -20.5 102.5t-91.5 39.5q-56 0 -105.5 -38.5t-61.5 -103.5zM135 -217h-103l168 937h103l-57 -311q28 33 72 50.5t89 17.5q100 0 155.5 -67.5t35.5 -176.5q-19 -108 -98.5 -175.5t-179.5 -67.5
q-45 0 -82.5 18t-53.5 51z" />
    <glyph glyph-name="ydieresis" unicode="&#xff;" horiz-adv-x="507" 
d="M163 -228l413 695h-110l-188 -320l-73 320h-110l106 -445l-146 -250h108zM217 632q4 26 26.5 43.5t49.5 17.5q26 0 41 -17.5t11 -43.5t-25.5 -44t-47.5 -18q-27 0 -43 18t-12 44zM388 632q4 26 26.5 43.5t49.5 17.5q26 0 41.5 -17.5t11.5 -43.5t-26 -44t-48 -18
q-27 0 -43 18t-12 44z" />
    <glyph glyph-name="Amacron" unicode="&#x100;" horiz-adv-x="647" 
d="M529 0l-37 172h-278l-95 -172h-113l381 689h115l139 -689h-112zM422 556l-155 -289h206zM334 794l14 81h258l-14 -81h-258z" />
    <glyph glyph-name="amacron" unicode="&#x101;" horiz-adv-x="610" 
d="M436 0l11 67q-29 -37 -76.5 -57t-93.5 -20q-98 0 -155.5 67.5t-38.5 176.5q19 108 100.5 175.5t179.5 67.5q46 0 87.5 -19.5t56.5 -56.5l11 66h102l-82 -467h-102zM189 235q-11 -63 23.5 -104t94.5 -41t108.5 39.5t60.5 105.5q11 65 -25 103.5t-93 38.5
q-60 0 -108.5 -39.5t-60.5 -102.5zM277 572l14 81h258l-14 -81h-258z" />
    <glyph glyph-name="Abreve" unicode="&#x102;" horiz-adv-x="647" 
d="M492 172l37 -172h112l-139 689h-115l-381 -689h113l95 172h278zM267 267l155 289l51 -289h-206zM350 896h77q-5 -26 6.5 -41.5t37.5 -15.5q25 0 42.5 17t21.5 40h78q-10 -59 -52 -93.5t-102 -34.5q-65 0 -91.5 37t-17.5 91z" />
    <glyph glyph-name="abreve" unicode="&#x103;" horiz-adv-x="610" 
d="M436 0l11 67q-29 -37 -76.5 -57t-93.5 -20q-98 0 -155.5 67.5t-38.5 176.5q19 108 100.5 175.5t179.5 67.5q46 0 87.5 -19.5t56.5 -56.5l11 66h102l-82 -467h-102zM189 235q-11 -63 23.5 -104t94.5 -41t108.5 39.5t60.5 105.5q11 65 -25 103.5t-93 38.5
q-60 0 -108.5 -39.5t-60.5 -102.5zM293 674h77q-5 -26 6.5 -41.5t37.5 -15.5q25 0 42 17t22 40h78q-11 -59 -53 -93.5t-102 -34.5q-65 0 -91.5 37t-16.5 91z" />
    <glyph glyph-name="Aogonek" unicode="&#x104;" horiz-adv-x="647" 
d="M589 0l-45 -83q-9 -15 -6.5 -29t15.5 -21q33 -9 51 22l8 23l67 4q-9 -51 -45 -83.5t-77 -32.5q-44 0 -68 31t-17 70q4 23 16 44l41 55l-37 172h-278l-95 -172h-113l381 689h115l139 -689h-52zM422 556l-155 -289h206z" />
    <glyph glyph-name="aogonek" unicode="&#x105;" horiz-adv-x="610" 
d="M512 -111l7 23l68 4q-9 -51 -45 -83.5t-77 -32.5q-44 0 -68.5 31t-17.5 70q3 20 16 44l41 55l11 67q-29 -37 -76.5 -57t-93.5 -20q-98 0 -155.5 67.5t-38.5 176.5q19 108 100.5 175.5t179.5 67.5q46 0 87.5 -19.5t56.5 -56.5l11 66h102l-82 -467h-42l-45 -83
q-19 -35 10 -50q33 -9 51 22zM189 235q-11 -63 23.5 -104t94.5 -41t108.5 39.5t60.5 105.5q11 65 -25 103.5t-93 38.5q-60 0 -108.5 -39.5t-60.5 -102.5z" />
    <glyph glyph-name="Cacute" unicode="&#x106;" horiz-adv-x="684" 
d="M611 182q-87 -90 -201 -90q-102 0 -159 73t-38 178t101.5 178.5t184.5 73.5q109 0 170 -86l92 64q-37 58 -100 91t-144 33q-146 0 -265 -103t-145 -251q-26 -147 56.5 -250t228.5 -103q83 0 158.5 34t131.5 93zM589 920h116l-155 -158h-90z" />
    <glyph glyph-name="cacute" unicode="&#x107;" horiz-adv-x="514" 
d="M82 235q19 108 103.5 175t188.5 67q117 0 172 -81l-92 -64q-33 45 -97 45q-61 0 -111 -39.5t-62 -102.5q-11 -64 25 -105t96 -41q67 0 113 46l70 -63q-84 -82 -200 -82q-103 0 -164 68.5t-42 176.5zM439 698h116l-154 -158h-90z" />
    <glyph glyph-name="Ccircumflex" unicode="&#x108;" horiz-adv-x="684" 
d="M611 182l71 -65q-56 -59 -131.5 -93t-158.5 -34q-146 0 -228.5 103t-56.5 250q26 148 145 251t265 103q81 0 144 -33t100 -91l-92 -64q-61 86 -170 86q-102 0 -184.5 -73.5t-101.5 -178.5t38 -178t159 -73q114 0 201 90zM498 921h104l82 -158h-87l-60 88l-91 -88h-86z
" />
    <glyph glyph-name="ccircumflex" unicode="&#x109;" horiz-adv-x="514" 
d="M82 235q19 108 103.5 175t188.5 67q117 0 172 -81l-92 -64q-33 45 -97 45q-61 0 -111 -39.5t-62 -102.5q-11 -64 25 -105t96 -41q67 0 113 46l70 -63q-84 -82 -200 -82q-103 0 -164 68.5t-42 176.5zM348 699h104l82 -158h-87l-59 88l-92 -88h-86z" />
    <glyph glyph-name="Cdotaccent" unicode="&#x10a;" horiz-adv-x="684" 
d="M611 182q-87 -90 -201 -90q-102 0 -159 73t-38 178t101.5 178.5t184.5 73.5q109 0 170 -86l92 64q-37 58 -100 91t-144 33q-146 0 -265 -103t-145 -251q-26 -147 56.5 -250t228.5 -103q83 0 158.5 34t131.5 93zM436 852q4 27 27.5 45t50.5 18q28 0 43.5 -18t11.5 -45
t-27 -45t-51 -18q-27 0 -43 18t-12 45z" />
    <glyph glyph-name="cdotaccent" unicode="&#x10b;" horiz-adv-x="514" 
d="M82 235q19 108 103.5 175t188.5 67q117 0 172 -81l-92 -64q-33 45 -97 45q-61 0 -111 -39.5t-62 -102.5q-11 -64 25 -105t96 -41q67 0 113 46l70 -63q-84 -82 -200 -82q-103 0 -164 68.5t-42 176.5zM297 630q4 27 26.5 45t49.5 18q28 0 44.5 -18t12.5 -45t-27 -45
t-51 -18q-27 0 -43 18t-12 45z" />
    <glyph glyph-name="Ccaron" unicode="&#x10c;" horiz-adv-x="684" 
d="M611 182q-87 -90 -201 -90q-102 0 -159 73t-38 178t101.5 178.5t184.5 73.5q109 0 170 -86l92 64q-37 58 -100 91t-144 33q-146 0 -265 -103t-145 -251q-26 -147 56.5 -250t228.5 -103q83 0 158.5 34t131.5 93zM462 762l-81 157h86l59 -87l92 87h87l-139 -157h-104z" />
    <glyph glyph-name="ccaron" unicode="&#x10d;" horiz-adv-x="514" 
d="M82 235q19 108 103.5 175t188.5 67q117 0 172 -81l-92 -64q-33 45 -97 45q-61 0 -111 -39.5t-62 -102.5q-11 -64 25 -105t96 -41q67 0 113 46l70 -63q-84 -82 -200 -82q-103 0 -164 68.5t-42 176.5zM319 540l-82 157h86l60 -87l91 87h87l-138 -157h-104z" />
    <glyph glyph-name="Dcaron" unicode="&#x10e;" horiz-adv-x="719" 
d="M212 98l88 492h162q98 0 139 -69.5t21 -177.5t-85 -176.5t-163 -68.5h-162zM358 0q143 0 243 96.5t127 246.5q27 151 -39 248.5t-210 97.5h-268l-121 -689h268zM439 762l-82 157h86l59 -87l92 87h87l-138 -157h-104z" />
    <glyph glyph-name="dcaron" unicode="&#x10f;" horiz-adv-x="645" 
d="M434 0l10 68q-28 -37 -75 -57.5t-96 -20.5q-97 0 -153 67.5t-37 175.5q20 109 99 176.5t177 67.5q51 0 91 -20t55 -57l56 321h102l-127 -721h-102zM472 235q12 65 -24 103.5t-93 38.5q-60 0 -107 -39.5t-59 -102.5q-11 -64 22.5 -104.5t92.5 -40.5t107.5 39.5t60.5 105.5
zM706 444l-50 22q90 102 110 223h91q-19 -80 -64.5 -147.5t-86.5 -97.5z" />
    <glyph glyph-name="Dcroat" unicode="&#x110;" horiz-adv-x="723" 
d="M59 304l14 76h93l54 309h265q144 0 209 -97t38 -249q-27 -151 -125.5 -247t-242.5 -96h-265l53 304h-93zM259 304l-35 -202h158q97 0 161 67t83 174t-21.5 175.5t-137.5 68.5h-158l-36 -207h154l-14 -76h-154z" />
    <glyph glyph-name="dcroat" unicode="&#x111;" horiz-adv-x="608" 
d="M382 558l13 68h150l16 95h102l-16 -95h76l-13 -68h-76l-98 -558h-102l10 68q-28 -37 -75 -57.5t-96 -20.5q-97 0 -153 67.5t-37 175.5q20 109 99 176.5t177 67.5q51 0 91 -20t55 -57l27 158h-150zM472 235q12 65 -24 103.5t-93 38.5q-60 0 -107 -39.5t-59 -102.5
q-11 -64 22.5 -104.5t92.5 -40.5t107.5 39.5t60.5 105.5z" />
    <glyph glyph-name="Emacron" unicode="&#x112;" horiz-adv-x="567" 
d="M90 0l121 689h415l-17 -98h-309l-36 -204h270l-18 -97h-270l-34 -193h319l-16 -97h-425zM306 794l14 81h258l-14 -81h-258z" />
    <glyph glyph-name="emacron" unicode="&#x113;" horiz-adv-x="553" 
d="M556 235q-5 -29 -8 -38h-371q-2 -53 32 -85t91 -32q40 0 78 18t61 49q30 -16 78 -37q-41 -59 -105 -89.5t-133 -30.5q-102 0 -159 68t-38 177t100 175.5t183 66.5t156 -66.5t35 -175.5zM191 272h271q1 54 -29 84.5t-83 30.5q-55 0 -98.5 -31t-60.5 -84zM251 572l13 81
h258l-13 -81h-258z" />
    <glyph glyph-name="Ebreve" unicode="&#x114;" horiz-adv-x="567" 
d="M211 689l-121 -689h425l16 97h-319l34 193h270l18 97h-270l36 204h309l17 98h-415zM309 896h77q-5 -26 6.5 -41.5t37.5 -15.5q25 0 42.5 17t21.5 40h78q-10 -59 -52 -93.5t-102 -34.5q-65 0 -91.5 37t-17.5 91z" />
    <glyph glyph-name="ebreve" unicode="&#x115;" horiz-adv-x="553" 
d="M556 235q19 109 -35 175.5t-156 66.5t-183 -66.5t-100 -175.5t38 -177t159 -68q69 0 133 30.5t105 89.5q-48 21 -78 37q-23 -31 -61 -49t-78 -18q-57 0 -91 32t-32 85h371q3 9 8 38zM191 272q17 53 60.5 84t98.5 31q53 0 83 -30.5t29 -84.5h-271zM266 674h77
q-5 -26 6.5 -41.5t37.5 -15.5q25 0 42 17t22 40h78q-11 -59 -53 -93.5t-102 -34.5q-65 0 -91.5 37t-16.5 91z" />
    <glyph glyph-name="Edotaccent" unicode="&#x116;" horiz-adv-x="567" 
d="M211 689l-121 -689h425l16 97h-319l34 193h270l18 97h-270l36 204h309l17 98h-415zM386 852q4 27 27 45t50 18q28 0 44 -18t12 -45t-27.5 -45t-51.5 -18q-27 0 -42.5 18t-11.5 45z" />
    <glyph glyph-name="edotaccent" unicode="&#x117;" horiz-adv-x="553" 
d="M556 235q19 109 -35 175.5t-156 66.5t-183 -66.5t-100 -175.5t38 -177t159 -68q69 0 133 30.5t105 89.5q-48 21 -78 37q-23 -31 -61 -49t-78 -18q-57 0 -91 32t-32 85h371q3 9 8 38zM191 272q17 53 60.5 84t98.5 31q53 0 83 -30.5t29 -84.5h-271zM323 630q4 27 26.5 45
t49.5 18q28 0 44.5 -18t12.5 -45t-27 -45t-51 -18q-27 0 -43 18t-12 45z" />
    <glyph glyph-name="Eogonek" unicode="&#x118;" horiz-adv-x="567" 
d="M454 0h-364l121 689h415l-17 -98h-309l-36 -204h270l-18 -97h-270l-34 -193h319l-17 -94l-46 -86q-19 -35 10 -50q33 -9 51 22l8 23l67 4q-9 -51 -45 -83.5t-77 -32.5q-44 0 -68 31t-17 70q4 23 16 44z" />
    <glyph glyph-name="eogonek" unicode="&#x119;" horiz-adv-x="554" 
d="M371 -83q-17 -37 10 -50q33 -9 51 22l7 23l68 4q-9 -51 -45 -83.5t-77 -32.5q-44 0 -68.5 31t-17.5 70q4 24 17 44l39 55q-36 -10 -76 -10q-102 0 -159 68t-38 177t100 175.5t183 66.5t156 -66.5t35 -175.5q-5 -29 -8 -38h-371q-2 -53 32 -85t91 -32q40 0 78 18t61 49
q30 -16 78 -37q-6 -9 -32.5 -32.5t-56.5 -63t-57 -97.5zM191 272h271q1 54 -29 84.5t-83 30.5q-55 0 -98.5 -31t-60.5 -84z" />
    <glyph glyph-name="Ecaron" unicode="&#x11a;" horiz-adv-x="567" 
d="M211 689l-121 -689h425l16 97h-319l34 193h270l18 97h-270l36 204h309l17 98h-415zM378 762l-82 157h86l59 -87l92 87h87l-138 -157h-104z" />
    <glyph glyph-name="ecaron" unicode="&#x11b;" horiz-adv-x="553" 
d="M556 235q19 109 -35 175.5t-156 66.5t-183 -66.5t-100 -175.5t38 -177t159 -68q69 0 133 30.5t105 89.5q-48 21 -78 37q-23 -31 -61 -49t-78 -18q-57 0 -91 32t-32 85h371q3 9 8 38zM191 272q17 53 60.5 84t98.5 31q53 0 83 -30.5t29 -84.5h-271zM321 540l-82 157h86
l60 -87l91 87h87l-138 -157h-104z" />
    <glyph glyph-name="Gcircumflex" unicode="&#x11c;" horiz-adv-x="755" 
d="M741 600l-91 -69q-54 65 -150 65q-102 0 -185 -74t-102 -179t38.5 -179t159.5 -74q86 0 153 46.5t84 122.5h-193l15 91h315q-31 -179 -135 -269.5t-257 -90.5q-146 0 -229 103t-57 250q26 148 145.5 251t265.5 103q144 0 223 -97zM492 921h104l82 -158h-87l-60 88
l-91 -88h-86z" />
    <glyph glyph-name="gcircumflex" unicode="&#x11d;" horiz-adv-x="610" 
d="M475 233q12 67 -22 105.5t-95 38.5q-60 0 -109 -40.5t-60 -103.5q-12 -64 22.5 -104t94.5 -40q56 0 107 39.5t62 104.5zM139 -59q12 -36 45 -57t72 -21q157 0 189 184q2 16 4 24q-26 -38 -75 -59.5t-98 -21.5q-98 0 -155 67t-38 175q19 109 100.5 177t179.5 68
q49 0 89 -21t55 -58l12 69h101l-71 -398q-53 -302 -310 -302q-68 0 -120 34.5t-73 96.5q10 4 46.5 21.5t46.5 21.5zM361 699h104l82 -158h-87l-60 88l-91 -88h-86z" />
    <glyph glyph-name="Gbreve" unicode="&#x11e;" horiz-adv-x="755" 
d="M741 600q-79 97 -223 97q-146 0 -265.5 -103t-145.5 -251q-26 -147 57 -250t229 -103q153 0 257 90.5t135 269.5h-315l-15 -91h193q-17 -76 -84 -122.5t-153 -46.5q-102 0 -159.5 74t-38.5 179t102 179t185 74q96 0 150 -65zM408 896h77q-5 -26 6.5 -41.5t37.5 -15.5
q25 0 42 17t22 40h78q-11 -59 -53 -93.5t-102 -34.5q-65 0 -91.5 37t-16.5 91z" />
    <glyph glyph-name="gbreve" unicode="&#x11f;" horiz-adv-x="610" 
d="M475 233q-11 -65 -62 -104.5t-107 -39.5q-60 0 -94.5 40t-22.5 104q11 63 60 103.5t109 40.5q61 0 95 -38.5t22 -105.5zM139 -59q-10 -4 -46.5 -21.5t-46.5 -21.5q21 -62 73 -96.5t120 -34.5q257 0 310 302l71 398h-101l-12 -69q-15 37 -55 58t-89 21q-98 0 -179.5 -68
t-100.5 -177q-19 -108 38 -175t155 -67q49 0 98 21.5t75 59.5q-2 -8 -4 -24q-32 -184 -189 -184q-39 0 -72 21t-45 57zM263 674h77q-5 -26 6.5 -41.5t37.5 -15.5q25 0 42.5 17t21.5 40h78q-10 -59 -52 -93.5t-102 -34.5q-65 0 -91.5 37t-17.5 91z" />
    <glyph glyph-name="Gdotaccent" unicode="&#x120;" horiz-adv-x="755" 
d="M741 600q-79 97 -223 97q-146 0 -265.5 -103t-145.5 -251q-26 -147 57 -250t229 -103q153 0 257 90.5t135 269.5h-315l-15 -91h193q-17 -76 -84 -122.5t-153 -46.5q-102 0 -159.5 74t-38.5 179t102 179t185 74q96 0 150 -65zM465 852q4 27 27.5 45t50.5 18q28 0 43.5 -18
t11.5 -45t-27 -45t-51 -18q-27 0 -43 18t-12 45z" />
    <glyph glyph-name="gdotaccent" unicode="&#x121;" horiz-adv-x="610" 
d="M475 233q-11 -65 -62 -104.5t-107 -39.5q-60 0 -94.5 40t-22.5 104q11 63 60 103.5t109 40.5q61 0 95 -38.5t22 -105.5zM139 -59q-10 -4 -46.5 -21.5t-46.5 -21.5q21 -62 73 -96.5t120 -34.5q257 0 310 302l71 398h-101l-12 -69q-15 37 -55 58t-89 21q-98 0 -179.5 -68
t-100.5 -177q-19 -108 38 -175t155 -67q49 0 98 21.5t75 59.5q-2 -8 -4 -24q-32 -184 -189 -184q-39 0 -72 21t-45 57zM320 630q4 27 27 45t50 18q28 0 44 -18t12 -45t-27 -45t-51 -18q-27 0 -43 18t-12 45z" />
    <glyph glyph-name="Gcommaaccent" unicode="&#x122;" horiz-adv-x="755" 
d="M741 600l-91 -69q-54 65 -150 65q-102 0 -185 -74t-102 -179t38.5 -179t159.5 -74q86 0 153 46.5t84 122.5h-193l15 91h315q-31 -179 -135 -269.5t-257 -90.5q-146 0 -229 103t-57 250q26 148 145.5 251t265.5 103q144 0 223 -97zM321 -259l-55 23q38 42 55.5 79.5
t24.5 99.5h97q-28 -138 -122 -202z" />
    <glyph glyph-name="gcommaaccent" unicode="&#x123;" horiz-adv-x="610" 
d="M447 758l56 -23q-39 -43 -57 -80.5t-24 -99.5h-96q26 136 121 203zM475 233q-11 -65 -62 -104.5t-107 -39.5q-60 0 -94.5 40t-22.5 104q11 63 60 103.5t109 40.5q61 0 95 -38.5t22 -105.5zM139 -59q-10 -4 -46.5 -21.5t-46.5 -21.5q21 -62 73 -96.5t120 -34.5
q257 0 310 302l71 398h-101l-12 -69q-15 37 -55 58t-89 21q-98 0 -179.5 -68t-100.5 -177q-19 -108 38 -175t155 -67q49 0 98 21.5t75 59.5q-2 -8 -4 -24q-32 -184 -189 -184q-39 0 -72 21t-45 57z" />
    <glyph glyph-name="Hcircumflex" unicode="&#x124;" horiz-adv-x="705" 
d="M628 689h108l-121 -689h-108l51 294h-311l-51 -294h-106l121 689h106l-52 -298h311zM462 921h104l83 -158h-87l-61 88l-90 -88h-86z" />
    <glyph glyph-name="hcircumflex" unicode="&#x125;" horiz-adv-x="578" 
d="M219 251l-44 -251h-103l127 721h103l-57 -325q25 39 72.5 60t89.5 21q89 0 129 -55.5t22 -155.5l-46 -266h-103l45 260q9 53 -15 84.5t-69 31.5q-51 0 -95.5 -31t-55.5 -94zM235 926h104l83 -158h-87l-61 88l-90 -88h-86z" />
    <glyph glyph-name="Hbar" unicode="&#x126;" horiz-adv-x="705" 
d="M628 689h108l-121 -689h-108l51 294h-311l-51 -294h-106l121 689h106l-52 -298h311zM363 794l14 81h258l-14 -81h-258z" />
    <glyph glyph-name="hbar" unicode="&#x127;" horiz-adv-x="578" 
d="M273 558l-28 -162q25 39 72.5 60t89.5 21q89 0 128.5 -55.5t22.5 -155.5l-46 -266h-103l45 260q9 53 -15 84.5t-69 31.5q-51 0 -95.5 -31t-55.5 -94l-44 -251h-103l98 558h-75l13 68h75l16 95h103l-16 -95h150l-13 -68h-150z" />
    <glyph glyph-name="Itilde" unicode="&#x128;" horiz-adv-x="286" 
d="M90 0l121 689h106l-121 -689h-106zM244 821q-9 0 -19.5 -11t-15.5 -33h-65q14 63 46 91.5t67 28.5q26 0 49 -20.5t32 -20.5q10 0 20 10t15 31h64q-14 -62 -46 -89.5t-67 -27.5q-25 0 -47.5 20.5t-32.5 20.5z" />
    <glyph glyph-name="itilde" unicode="&#x129;" horiz-adv-x="246" 
d="M154 467h102l-82 -467h-102zM175 599q-9 0 -20 -11t-16 -33h-65q15 63 47 91.5t67 28.5q26 0 48.5 -20.5t31.5 -20.5q10 0 20.5 10t15.5 31h64q-14 -62 -46 -89.5t-67 -27.5q-25 0 -48 20.5t-32 20.5z" />
    <glyph glyph-name="Imacron" unicode="&#x12a;" horiz-adv-x="286" 
d="M90 0l121 689h106l-121 -689h-106zM154 794l14 81h258l-14 -81h-258z" />
    <glyph glyph-name="imacron" unicode="&#x12b;" horiz-adv-x="246" 
d="M154 467h102l-82 -467h-102zM85 572l14 81h258l-14 -81h-258z" />
    <glyph glyph-name="Ibreve" unicode="&#x12c;" horiz-adv-x="286" 
d="M211 689l-121 -689h106l121 689h-106zM170 896h77q-5 -26 6.5 -41.5t37.5 -15.5q25 0 42.5 17t21.5 40h78q-10 -59 -52 -93.5t-102 -34.5q-65 0 -91.5 37t-17.5 91z" />
    <glyph glyph-name="ibreve" unicode="&#x12d;" horiz-adv-x="246" 
d="M256 467h-102l-82 -467h102zM101 674h77q-5 -26 6.5 -41.5t37.5 -15.5q25 0 42.5 17t21.5 40h78q-10 -59 -52.5 -93.5t-102.5 -34.5q-65 0 -91.5 37t-16.5 91z" />
    <glyph glyph-name="Iogonek" unicode="&#x12e;" horiz-adv-x="286" 
d="M90 0l121 689h106l-121 -689h-46l-45 -83q-19 -35 10 -50q32 -9 50 22l8 23l68 4q-9 -51 -45 -83.5t-77 -32.5q-44 0 -68.5 31t-17.5 70q3 20 16 44z" />
    <glyph glyph-name="iogonek" unicode="&#x12f;" horiz-adv-x="246" 
d="M132 0l-45 -83q-19 -35 10 -50q32 -9 50 22l8 23l68 4q-9 -51 -45 -83.5t-77 -32.5q-44 0 -68.5 31t-17.5 70q3 20 16 44l41 55l82 467h102l-82 -467h-42zM170 656q4 27 28.5 46t52.5 19t44.5 -18.5t11.5 -46.5q-4 -28 -27.5 -46.5t-52.5 -18.5q-28 0 -44.5 18.5
t-12.5 46.5z" />
    <glyph glyph-name="Idotaccent" unicode="&#x130;" horiz-adv-x="286" 
d="M211 689l-121 -689h106l121 689h-106zM228 852q4 27 27 45t50 18q28 0 44 -18t12 -45t-27.5 -45t-51.5 -18q-27 0 -42.5 18t-11.5 45z" />
    <glyph glyph-name="dotlessi" unicode="&#x131;" horiz-adv-x="246" 
d="M154 467h102l-82 -467h-102z" />
    <glyph glyph-name="IJ" unicode="&#x132;" horiz-adv-x="573" 
d="M90 0l121 689h106l-121 -689h-106zM144 -235l27 99q24 -9 70 -9q56 0 88 34.5t42 89.5l126 710h107l-126 -710q-18 -100 -81.5 -163t-174.5 -63q-28 0 -78 12z" />
    <glyph glyph-name="ij" unicode="&#x133;" horiz-adv-x="494" 
d="M174 0l82 467h-102l-82 -467h102zM170 656q4 27 28 46t52 19q29 0 45 -18.5t12 -46.5t-27.5 -46.5t-52.5 -18.5q-28 0 -44.5 18.5t-12.5 46.5zM142 -231l17 96h56q79 0 97 105l88 497h104l-88 -497q-36 -201 -206 -201h-68zM417 656q4 27 28 46t52 19q29 0 45.5 -18.5
t12.5 -46.5q-4 -27 -28 -46t-53 -19q-28 0 -44.5 18.5t-12.5 46.5z" />
    <glyph glyph-name="Jcircumflex" unicode="&#x134;" horiz-adv-x="287" 
d="M-140 -235l27 99q24 -9 69 -9q55 0 87 34.5t42 89.5l126 710h107l-126 -710q-18 -100 -81 -163t-173 -63q-28 0 -78 12zM249 921h104l83 -158h-87l-61 88l-90 -88h-86z" />
    <glyph glyph-name="jcircumflex" unicode="&#x135;" horiz-adv-x="248" 
d="M-102 -231l17 96h56q79 0 94 105l89 497h104l-88 -497q-36 -201 -204 -201h-68zM202 699h104l82 -158h-87l-60 88l-91 -88h-86z" />
    <glyph glyph-name="Kcommaaccent" unicode="&#x136;" horiz-adv-x="583" 
d="M329 346l265 -346h-140l-208 279l-49 -279h-107l121 689h107l-50 -280l261 280h125zM239 -259l-56 23q38 42 55.5 79.5t24.5 99.5h97q-26 -136 -121 -202z" />
    <glyph glyph-name="kcommaaccent" unicode="&#x137;" horiz-adv-x="506" 
d="M373 0l-161 217l-38 -217h-102l127 721h102l-72 -408l175 154h138l-235 -203l198 -264h-132zM198 -259l-56 23q38 42 55.5 79.5t24.5 99.5h97q-26 -136 -121 -202z" />
    <glyph glyph-name="kgreenlandic" unicode="&#x138;" horiz-adv-x="492" 
d="M353 0l-148 179l-31 -179h-102l82 467h102l-32 -180l176 180h129l-233 -231l194 -236h-137z" />
    <glyph glyph-name="Lacute" unicode="&#x139;" horiz-adv-x="499" 
d="M211 689l-121 -689h382l16 97h-276l105 592h-106zM364 920h116l-154 -158h-90z" />
    <glyph glyph-name="lacute" unicode="&#x13a;" horiz-adv-x="247" 
d="M199 721l-127 -721h103l127 721h-103zM343 928h116l-154 -158h-90z" />
    <glyph glyph-name="Lcommaaccent" unicode="&#x13b;" horiz-adv-x="499" 
d="M90 0l121 689h106l-105 -592h276l-16 -97h-382zM191 -259l-56 23q38 42 55.5 79.5t24.5 99.5h97q-26 -136 -121 -202z" />
    <glyph glyph-name="lcommaaccent" unicode="&#x13c;" horiz-adv-x="247" 
d="M72 0l127 721h103l-127 -721h-103zM41 -259l-53 23q37 42 54.5 79.5t23.5 99.5h97q-26 -137 -122 -202z" />
    <glyph glyph-name="Lcaron" unicode="&#x13d;" horiz-adv-x="500" 
d="M90 0l121 689h106l-105 -592h276l-16 -97h-382zM411 479l-60 21q39 44 59.5 86t26.5 103h97q-28 -145 -123 -210z" />
    <glyph glyph-name="lcaron" unicode="&#x13e;" horiz-adv-x="247" 
d="M72 0l127 721h103l-127 -721h-103zM367 511l-60 21q38 43 58.5 85.5t27.5 103.5h97q-29 -143 -123 -210z" />
    <glyph glyph-name="Ldot" unicode="&#x13f;" horiz-adv-x="499" 
d="M90 0l121 689h106l-105 -592h276l-16 -97h-382zM318 275q5 29 29 48.5t53 19.5q30 0 47.5 -19.5t12.5 -48.5t-30 -48.5t-55 -19.5q-29 0 -45.5 19.5t-11.5 48.5z" />
    <glyph glyph-name="ldot" unicode="&#x140;" horiz-adv-x="387" 
d="M72 0l127 721h103l-127 -721h-103zM284 275q5 29 29 48.5t53 19.5q30 0 47.5 -19.5t12.5 -48.5t-30 -48.5t-55 -19.5q-29 0 -45.5 19.5t-11.5 48.5z" />
    <glyph glyph-name="Lslash" unicode="&#x141;" horiz-adv-x="505" 
d="M151 319l-74 -42l13 73l75 42l52 297h106l-40 -231l111 64l-12 -74l-113 -63l-50 -284h274l-17 -101h-380z" />
    <glyph glyph-name="lslash" unicode="&#x142;" horiz-adv-x="267" 
d="M316 721l-49 -275l89 51l-13 -71l-89 -51l-65 -375h-102l53 310l-79 -46l13 72l80 46l60 339h102z" />
    <glyph glyph-name="Nacute" unicode="&#x143;" horiz-adv-x="681" 
d="M591 0l121 689h-106l-86 -489l-207 489h-102l-121 -689h106l86 493l210 -493h99zM530 920h116l-154 -158h-90z" />
    <glyph glyph-name="nacute" unicode="&#x144;" horiz-adv-x="563" 
d="M219 251l-44 -251h-103l82 467h103l-12 -70q25 38 70 59t87 21q85 0 121.5 -53t19.5 -152l-47 -272h-103l45 260q10 55 -11 85.5t-67 30.5q-51 0 -90.5 -30.5t-50.5 -94.5zM434 698h116l-154 -158h-90z" />
    <glyph glyph-name="Ncommaaccent" unicode="&#x145;" horiz-adv-x="681" 
d="M712 689l-121 -689h-99l-210 493l-86 -493h-106l121 689h102l207 -489l86 489h106zM262 -259l-56 23q38 42 55.5 79.5t24.5 99.5h97q-26 -136 -121 -202z" />
    <glyph glyph-name="ncommaaccent" unicode="&#x146;" horiz-adv-x="563" 
d="M204 -259l-36 23q24 25 36 54t15 49t9 76h97q-26 -136 -121 -202zM219 251l-44 -251h-103l82 467h103l-12 -70q25 38 70 59t87 21q85 0 121.5 -53t19.5 -152l-47 -272h-103l45 260q10 55 -11 85.5t-67 30.5q-51 0 -90.5 -30.5t-50.5 -94.5z" />
    <glyph glyph-name="Ncaron" unicode="&#x147;" horiz-adv-x="681" 
d="M591 0l121 689h-106l-86 -489l-207 489h-102l-121 -689h106l86 493l210 -493h99zM422 762l-82 157h86l59 -87l92 87h87l-138 -157h-104z" />
    <glyph glyph-name="ncaron" unicode="&#x148;" horiz-adv-x="563" 
d="M219 251l-44 -251h-103l82 467h103l-12 -70q25 38 70 59t87 21q85 0 121.5 -53t19.5 -152l-47 -272h-103l45 260q10 55 -11 85.5t-67 30.5q-51 0 -90.5 -30.5t-50.5 -94.5zM327 540l-82 157h86l59 -87l92 87h87l-138 -157h-104z" />
    <glyph glyph-name="napostrophe" unicode="&#x149;" horiz-adv-x="563" 
d="M218 251l-43 -251h-103l81 467h103l-11 -70q26 38 70.5 59t86.5 21q85 0 121.5 -53t19.5 -152l-47 -272h-103l45 260q10 55 -11 85.5t-66 30.5q-52 0 -91.5 -30.5t-51.5 -94.5zM83 469l-63 20q55 62 68 109q3 11 7 63h101q-21 -127 -113 -192z" />
    <glyph glyph-name="Eng" unicode="&#x14a;" horiz-adv-x="680" 
d="M478 31l-196 459l-86 -490h-106l121 689h102l205 -489l86 489h107l-121 -683q-42 -239 -256 -239q-36 0 -81 13l29 106q71 -24 121 -4q66 21 79 105q4 24 -4 44z" />
    <glyph glyph-name="eng" unicode="&#x14b;" horiz-adv-x="562" 
d="M543 272l-46 -254q-18 -103 -78 -166.5t-171 -63.5q-29 0 -67 10l26 100q31 -11 58 -11q55 0 86 33.5t42 86.5l45 253q10 55 -11 85.5t-67 30.5q-51 0 -90.5 -30.5t-50.5 -94.5l-44 -251h-103l82 467h103l-12 -70q25 38 70 59t87 21q85 0 122 -53t19 -152z" />
    <glyph glyph-name="Omacron" unicode="&#x14c;" horiz-adv-x="792" 
d="M213 343q-19 -104 38 -176.5t159 -72.5t185.5 72.5t102.5 176.5t-39 177t-160 73t-185 -73t-101 -177zM107 343q26 148 145 251t265 103q147 0 230.5 -103.5t57.5 -250.5t-146 -250t-267 -103q-146 0 -228.5 103t-56.5 250zM407 794l13 81h258l-13 -81h-258z" />
    <glyph glyph-name="omacron" unicode="&#x14d;" horiz-adv-x="572" 
d="M300 90q60 0 107.5 40t59.5 105q11 63 -23 102t-94 39q-59 0 -107 -39t-59 -102q-12 -64 22.5 -104.5t93.5 -40.5zM282 -10q-102 0 -160.5 68.5t-39.5 176.5t101.5 175t184.5 67q103 0 162 -67t40 -175t-102.5 -176.5t-185.5 -68.5zM258 572l13 81h258l-13 -81h-258z" />
    <glyph glyph-name="Obreve" unicode="&#x14e;" horiz-adv-x="792" 
d="M213 343q18 104 101 177t185 73t160 -73t39 -177t-102.5 -176.5t-185.5 -72.5t-159 72.5t-38 176.5zM107 343q-26 -147 56.5 -250t228.5 -103q147 0 267 103t146 250t-57.5 250.5t-230.5 103.5q-146 0 -265 -103t-145 -251zM422 896h77q-5 -26 6.5 -41.5t37.5 -15.5
q25 0 42 17t22 40h78q-11 -59 -53 -93.5t-102 -34.5q-65 0 -91.5 37t-16.5 91z" />
    <glyph glyph-name="obreve" unicode="&#x14f;" horiz-adv-x="572" 
d="M300 90q-59 0 -93.5 40.5t-22.5 104.5q11 63 59 102t107 39q60 0 94 -39t23 -102q-12 -65 -59.5 -105t-107.5 -40zM282 -10q102 0 185.5 68.5t102.5 176.5t-40 175t-162 67q-102 0 -184.5 -67t-101.5 -175t39.5 -176.5t160.5 -68.5zM273 674h77q-5 -26 6.5 -41.5
t37.5 -15.5q25 0 42 17t22 40h78q-11 -59 -53 -93.5t-102 -34.5q-65 0 -91.5 37t-16.5 91z" />
    <glyph glyph-name="Ohungarumlaut" unicode="&#x150;" horiz-adv-x="792" 
d="M213 343q18 104 101 177t185 73t160 -73t39 -177t-102.5 -176.5t-185.5 -72.5t-159 72.5t-38 176.5zM107 343q-26 -147 56.5 -250t228.5 -103q147 0 267 103t146 250t-57.5 250.5t-230.5 103.5q-146 0 -265 -103t-145 -251zM782 919l-139 -157h-87l127 157h99zM633 919
l-126 -157h-87l116 157h97z" />
    <glyph glyph-name="ohungarumlaut" unicode="&#x151;" horiz-adv-x="572" 
d="M300 90q-59 0 -93.5 40.5t-22.5 104.5q11 63 59 102t107 39q60 0 94 -39t23 -102q-12 -65 -59.5 -105t-107.5 -40zM282 -10q102 0 185.5 68.5t102.5 176.5t-40 175t-162 67q-102 0 -184.5 -67t-101.5 -175t39.5 -176.5t160.5 -68.5zM619 697l-138 -157h-87l126 157h99z
M470 697l-125 -157h-87l115 157h97z" />
    <glyph glyph-name="OE" unicode="&#x152;" horiz-adv-x="1111" 
d="M738 588l19 101h413l-19 -101h-307l-34 -199h269l-18 -101h-269l-33 -187h318l-17 -101h-424l16 98q-114 -108 -261 -108q-146 0 -228 103t-56 250q26 148 144.5 251t264.5 103q71 0 129 -29t93 -80zM213 343q-19 -103 38 -175t159 -72q105 0 186 74t99 181
q15 100 -42 170t-156 70q-102 0 -183.5 -72t-100.5 -176z" />
    <glyph glyph-name="oe" unicode="&#x153;" horiz-adv-x="939" 
d="M577 272h271q1 54 -28.5 84.5t-82.5 30.5q-55 0 -98.5 -31t-61.5 -84zM300 90q60 0 107.5 40t59.5 105q11 63 -23 102t-94 39q-59 0 -107 -39t-59 -102q-12 -64 22.5 -104.5t93.5 -40.5zM491 81q-88 -91 -209 -91q-102 0 -160.5 68.5t-39.5 176.5t101.5 174.5t184.5 66.5
q123 0 178 -89q85 90 206 90q102 0 154.5 -64.5t36.5 -170.5q-4 -27 -9 -45h-370q-2 -53 31.5 -85t90.5 -32q41 0 78.5 17.5t61.5 49.5q30 -16 78 -37q-41 -59 -105 -89.5t-133 -30.5q-123 0 -175 91z" />
    <glyph glyph-name="Racute" unicode="&#x154;" horiz-adv-x="622" 
d="M459 591q51 0 70.5 -36t11.5 -85q-9 -50 -42 -85t-87 -35h-154l43 241h158zM436 257q91 10 145.5 70t69.5 143q16 91 -25.5 155t-145.5 64h-269l-121 -689h107l44 253h74l128 -253h129zM493 920h116l-154 -158h-90z" />
    <glyph glyph-name="racute" unicode="&#x155;" horiz-adv-x="399" 
d="M204 168q17 98 58 155t104 57q37 0 67 -16l33 95q-23 18 -79 18q-94 0 -149 -117l19 107h-103l-82 -467h103zM306 698h116l-154 -158h-90z" />
    <glyph glyph-name="Rcommaaccent" unicode="&#x156;" horiz-adv-x="622" 
d="M459 591h-158l-43 -241h154q54 0 87 35t42 85q8 49 -11.5 85t-70.5 36zM436 257l136 -257h-129l-128 253h-74l-44 -253h-107l121 689h269q104 0 145.5 -64t25.5 -155q-15 -83 -69.5 -143t-145.5 -70zM249 -259l-56 23q38 42 55.5 79.5t24.5 99.5h97q-26 -136 -121 -202z
" />
    <glyph glyph-name="rcommaaccent" unicode="&#x157;" horiz-adv-x="399" 
d="M204 168l-29 -168h-103l82 467h103l-19 -107q55 117 149 117q56 0 79 -18l-33 -95q-30 16 -67 16q-63 0 -104 -57t-58 -155zM41 -259l-53 23q37 42 54.5 79.5t23.5 99.5h97q-26 -137 -122 -202z" />
    <glyph glyph-name="Rcaron" unicode="&#x158;" horiz-adv-x="622" 
d="M459 591q51 0 70.5 -36t11.5 -85q-9 -50 -42 -85t-87 -35h-154l43 241h158zM436 257q91 10 145.5 70t69.5 143q16 91 -25.5 155t-145.5 64h-269l-121 -689h107l44 253h74l128 -253h129zM391 762l-82 157h86l59 -87l92 87h87l-138 -157h-104z" />
    <glyph glyph-name="rcaron" unicode="&#x159;" horiz-adv-x="399" 
d="M204 168q17 98 58 155t104 57q37 0 67 -16l33 95q-23 18 -79 18q-94 0 -149 -117l19 107h-103l-82 -467h103zM251 540l-82 157h86l59 -87l92 87h87l-138 -157h-104z" />
    <glyph glyph-name="Sacute" unicode="&#x15a;" horiz-adv-x="574" 
d="M486 920h116l-154 -158h-90zM190 200h-106q-15 -86 43 -148t163 -62q98 0 171.5 51.5t95.5 133.5q23 76 -13.5 131.5t-133.5 82.5l-85 23q-90 24 -75 90q7 42 46.5 68.5t88.5 26.5q54 0 82.5 -28.5t19.5 -75.5h106q17 93 -37 148.5t-151 55.5q-93 0 -169.5 -55.5
t-91.5 -141.5q-25 -139 137 -185l83 -22q110 -26 89 -112q-13 -41 -51 -67.5t-95 -26.5q-59 0 -91 34.5t-26 78.5z" />
    <glyph glyph-name="sacute" unicode="&#x15b;" horiz-adv-x="444" 
d="M216 202q-69 20 -93 57t-9 95q13 52 68 87.5t120 35.5q69 0 112 -34t35 -104h-98q1 25 -16.5 37.5t-43.5 12.5q-50 0 -71 -26q-15 -17 -11 -42q4 -22 51 -36l68 -18q116 -30 98 -136q-12 -66 -70.5 -103.5t-140.5 -37.5q-70 0 -116.5 41.5t-35.5 111.5h95q-2 -31 19 -49
t61 -18q36 0 62.5 15t30.5 41q7 40 -55 55zM377 698h116l-155 -158h-90z" />
    <glyph glyph-name="Scircumflex" unicode="&#x15c;" horiz-adv-x="574" 
d="M399 921h104l83 -158h-87l-60 88l-91 -88h-86zM84 200h106q-6 -44 26 -78.5t91 -34.5q57 0 95 26.5t51 67.5q21 86 -89 112l-83 22q-162 46 -137 185q15 86 91.5 141.5t169.5 55.5q97 0 151 -55.5t37 -148.5h-106q9 47 -19.5 75.5t-82.5 28.5q-49 0 -88.5 -26.5
t-46.5 -68.5q-15 -66 75 -90l85 -23q97 -27 133.5 -82.5t13.5 -131.5q-22 -82 -95.5 -133.5t-171.5 -51.5q-105 0 -163 62t-43 148z" />
    <glyph glyph-name="scircumflex" unicode="&#x15d;" horiz-adv-x="444" 
d="M216 202q-69 20 -93 57t-9 95q13 52 68 87.5t120 35.5q69 0 112 -34t35 -104h-98q1 25 -16.5 37.5t-43.5 12.5q-50 0 -71 -26q-15 -17 -11 -42q4 -22 51 -36l68 -18q116 -30 98 -136q-12 -66 -70.5 -103.5t-140.5 -37.5q-70 0 -116.5 41.5t-35.5 111.5h95q-2 -31 19 -49
t61 -18q36 0 62.5 15t30.5 41q7 40 -55 55zM293 699h104l81 -158h-87l-59 88l-92 -88h-86z" />
    <glyph glyph-name="Scedilla" unicode="&#x15e;" horiz-adv-x="574" 
d="M219 -111q4 -14 16 -20t27 -2q16 7 23.5 21t4.5 29l-14 73q-98 4 -152.5 65.5t-39.5 144.5h106q-6 -44 26 -78.5t91 -34.5q57 0 95 26.5t51 67.5q21 86 -89 112l-83 22q-162 46 -137 185q15 86 91.5 141.5t169.5 55.5q97 0 151 -55.5t37 -148.5h-106q9 47 -19.5 75.5
t-82.5 28.5q-49 0 -88 -26.5t-47 -68.5q-12 -66 75 -90l85 -23q97 -26 133.5 -82t14.5 -132q-19 -71 -79.5 -120.5t-141.5 -60.5l18 -49q5 -14 0 -44q-7 -39 -42 -70t-79 -31q-41 0 -65 32.5t-15 83.5l66 -4z" />
    <glyph glyph-name="scedilla" unicode="&#x15f;" horiz-adv-x="446" 
d="M224 -83l-14 73q-68 2 -112.5 43.5t-33.5 109.5h95q-2 -31 19 -49t61 -18q36 0 63 15t31 41q3 21 -12.5 34.5t-43.5 20.5l-60 15q-69 20 -93 57t-9 95q13 52 68 87.5t120 35.5q69 0 112 -34t35 -104h-98q1 25 -16.5 37.5t-43.5 12.5q-50 0 -71 -26q-15 -17 -11 -42
q4 -22 51 -36l68 -18q116 -30 98 -136q-9 -54 -51.5 -89.5t-104.5 -46.5l18 -50q5 -14 0 -44q-7 -39 -42 -70t-79 -31q-40 0 -64.5 32.5t-15.5 83.5l66 -4l-1 -23q4 -14 16 -20t27 -2q16 7 23.5 21t4.5 29z" />
    <glyph glyph-name="Scaron" unicode="&#x160;" horiz-adv-x="574" 
d="M371 762l-82 157h86l60 -87l91 87h87l-138 -157h-104zM190 200h-106q-15 -86 43 -148t163 -62q98 0 171.5 51.5t95.5 133.5q23 76 -13.5 131.5t-133.5 82.5l-85 23q-90 24 -75 90q7 42 46.5 68.5t88.5 26.5q54 0 82.5 -28.5t19.5 -75.5h106q17 93 -37 148.5t-151 55.5
q-93 0 -169.5 -55.5t-91.5 -141.5q-25 -139 137 -185l83 -22q110 -26 89 -112q-13 -41 -51 -67.5t-95 -26.5q-59 0 -91 34.5t-26 78.5z" />
    <glyph glyph-name="scaron" unicode="&#x161;" horiz-adv-x="444" 
d="M216 202q-69 20 -93 57t-9 95q13 52 68 87.5t120 35.5q69 0 112 -34t35 -104h-98q1 25 -16.5 37.5t-43.5 12.5q-50 0 -71 -26q-15 -17 -11 -42q4 -22 51 -36l68 -18q116 -30 98 -136q-12 -66 -70.5 -103.5t-140.5 -37.5q-70 0 -116.5 41.5t-35.5 111.5h95q-2 -31 19 -49
t61 -18q36 0 62.5 15t30.5 41q7 40 -55 55zM264 540l-81 157h86l59 -87l92 87h87l-139 -157h-104z" />
    <glyph glyph-name="Tcommaaccent" unicode="&#x162;" horiz-adv-x="570" 
d="M132 590l17 99h514l-17 -99h-203l-104 -590h-108l104 590h-203zM195 -259l-56 23q39 42 56.5 79.5t23.5 99.5h97q-26 -136 -121 -202z" />
    <glyph glyph-name="tcommaaccent" unicode="&#x163;" horiz-adv-x="336" 
d="M325 644l-31 -177h99l-15 -85h-99l-67 -382h-103l67 382h-84l15 85h84l31 177h103zM77 -259l-55 23q38 42 55.5 79.5t24.5 99.5h97q-26 -137 -122 -202z" />
    <glyph glyph-name="Tcaron" unicode="&#x164;" horiz-adv-x="570" 
d="M149 689l-17 -99h203l-104 -590h108l104 590h203l17 99h-514zM367 762l-82 157h86l60 -87l91 87h87l-138 -157h-104z" />
    <glyph glyph-name="tcaron" unicode="&#x165;" horiz-adv-x="336" 
d="M405 526l-56 23q38 42 56 80t25 100h97q-26 -136 -122 -203zM294 467l30 177h-103l-30 -177h-84l-15 -85h84l-67 -382h103l67 382h99l15 85h-99z" />
    <glyph glyph-name="Tbar" unicode="&#x166;" horiz-adv-x="557" 
d="M397 410h133l-12 -66h-133l-60 -344h-93l60 344h-132l12 66h132l33 187h-211l16 92h515l-16 -92h-211z" />
    <glyph glyph-name="tbar" unicode="&#x167;" horiz-adv-x="338" 
d="M110 0l37 215h-65l12 65h65l18 102h-85l15 85h85l31 177h102l-31 -177h99l-15 -85h-99l-18 -102h75l-12 -65h-75l-37 -215h-102z" />
    <glyph glyph-name="Utilde" unicode="&#x168;" horiz-adv-x="677" 
d="M354 92q61 0 111 41t62 106l80 450h108l-80 -450q-20 -110 -106.5 -179.5t-192.5 -69.5q-107 0 -169.5 69.5t-43.5 179.5l81 450h108l-81 -450q-11 -65 25.5 -106t97.5 -41zM438 821q-9 0 -19.5 -11t-14.5 -33h-65q14 62 46 91t67 29q26 0 49 -20.5t32 -20.5t19.5 9.5
t15.5 31.5h64q-15 -62 -46.5 -89.5t-66.5 -27.5q-25 0 -48 20.5t-33 20.5z" />
    <glyph glyph-name="utilde" unicode="&#x169;" horiz-adv-x="562" 
d="M424 216l45 251h103l-82 -467h-103l11 68q-25 -37 -69 -57.5t-84 -20.5q-86 0 -124.5 53.5t-19.5 151.5l48 272h103l-46 -260q-10 -56 11.5 -86.5t65.5 -30.5q51 0 90.5 30.5t50.5 95.5zM340 599q-10 0 -20.5 -11t-15.5 -33h-65q15 63 47 91.5t67 28.5q26 0 48.5 -20.5
t31.5 -20.5q10 0 20.5 10t15.5 31h64q-14 -62 -46 -89.5t-67 -27.5q-24 0 -47 20.5t-33 20.5z" />
    <glyph glyph-name="Umacron" unicode="&#x16a;" horiz-adv-x="677" 
d="M354 92q61 0 111 41t62 106l80 450h108l-80 -450q-20 -110 -106.5 -179.5t-192.5 -69.5q-107 0 -169.5 69.5t-43.5 179.5l81 450h108l-81 -450q-11 -65 25.5 -106t97.5 -41zM349 794l13 81h258l-13 -81h-258z" />
    <glyph glyph-name="umacron" unicode="&#x16b;" horiz-adv-x="562" 
d="M424 216l45 251h103l-82 -467h-103l11 68q-25 -37 -69 -57.5t-84 -20.5q-86 0 -124.5 53.5t-19.5 151.5l48 272h103l-46 -260q-10 -56 11.5 -86.5t65.5 -30.5q51 0 90.5 30.5t50.5 95.5zM250 572l14 81h258l-14 -81h-258z" />
    <glyph glyph-name="Ubreve" unicode="&#x16c;" horiz-adv-x="677" 
d="M354 92q61 0 111 41t62 106l80 450h108l-80 -450q-20 -110 -106.5 -179.5t-192.5 -69.5q-107 0 -169.5 69.5t-43.5 179.5l81 450h108l-81 -450q-11 -65 25.5 -106t97.5 -41zM365 896h77q-5 -26 6.5 -41.5t37.5 -15.5q25 0 42 17t22 40h78q-11 -59 -53 -93.5t-102 -34.5
q-65 0 -91.5 37t-16.5 91z" />
    <glyph glyph-name="ubreve" unicode="&#x16d;" horiz-adv-x="562" 
d="M424 216l45 251h103l-82 -467h-103l11 68q-25 -37 -69 -57.5t-84 -20.5q-86 0 -124.5 53.5t-19.5 151.5l48 272h103l-46 -260q-10 -56 11.5 -86.5t65.5 -30.5q51 0 90.5 30.5t50.5 95.5zM265 674h77q-5 -26 6.5 -41.5t37.5 -15.5q25 0 42.5 17t21.5 40h78
q-10 -59 -52 -93.5t-102 -34.5q-65 0 -92 37t-17 91z" />
    <glyph glyph-name="Uring" unicode="&#x16e;" horiz-adv-x="677" 
d="M354 92q61 0 111 41t62 106l80 450h108l-80 -450q-20 -110 -106.5 -179.5t-192.5 -69.5q-107 0 -169.5 69.5t-43.5 179.5l81 450h108l-81 -450q-11 -65 25.5 -106t97.5 -41zM380 860q8 47 46 79t83 32q47 0 72.5 -32t17.5 -79q-7 -45 -45.5 -76.5t-85.5 -31.5
q-45 0 -70.5 31.5t-17.5 76.5zM436 860q-4 -21 8 -36.5t34 -15.5t41.5 15.5t23.5 36.5q4 23 -8.5 39t-35.5 16q-22 0 -40.5 -16t-22.5 -39z" />
    <glyph glyph-name="uring" unicode="&#x16f;" horiz-adv-x="562" 
d="M424 216l45 251h103l-82 -467h-103l11 68q-25 -37 -69 -57.5t-84 -20.5q-86 0 -124.5 53.5t-19.5 151.5l48 272h103l-46 -260q-10 -56 11.5 -86.5t65.5 -30.5q51 0 90.5 30.5t50.5 95.5zM280 638q9 47 46 79t82 32q47 0 73.5 -32t17.5 -79q-8 -45 -46 -76.5t-84 -31.5
q-45 0 -71 31.5t-18 76.5zM336 638q-4 -21 8.5 -36.5t34.5 -15.5t41 15.5t23 36.5q4 23 -9 39t-36 16q-22 0 -39.5 -16t-22.5 -39z" />
    <glyph glyph-name="Uhungarumlaut" unicode="&#x170;" horiz-adv-x="677" 
d="M354 92q61 0 111 41t62 106l80 450h108l-80 -450q-20 -110 -106.5 -179.5t-192.5 -69.5q-107 0 -169.5 69.5t-43.5 179.5l81 450h108l-81 -450q-11 -65 25.5 -106t97.5 -41zM697 919l-138 -157h-87l126 157h99zM548 919l-125 -157h-87l115 157h97z" />
    <glyph glyph-name="uhungarumlaut" unicode="&#x171;" horiz-adv-x="562" 
d="M424 216l45 251h103l-82 -467h-103l11 68q-25 -37 -69 -57.5t-84 -20.5q-86 0 -124.5 53.5t-19.5 151.5l48 272h103l-46 -260q-10 -56 11.5 -86.5t65.5 -30.5q51 0 90.5 30.5t50.5 95.5zM598 697l-138 -157h-87l126 157h99zM449 697l-125 -157h-87l115 157h97z" />
    <glyph glyph-name="Uogonek" unicode="&#x172;" horiz-adv-x="679" 
d="M388 -111l7 23l68 4q-9 -51 -45 -83.5t-77 -32.5q-44 0 -68 31t-17 70q4 28 16 44l33 47q-94 10 -146 77.5t-34 169.5l79 450h109l-80 -450q-12 -65 24.5 -106t97.5 -41t111.5 41t62.5 106l80 450h106l-79 -450q-18 -102 -94.5 -170t-173.5 -77l-41 -75q-19 -35 10 -50
q33 -9 51 22z" />
    <glyph glyph-name="uogonek" unicode="&#x173;" horiz-adv-x="562" 
d="M463 -111l8 23l68 4q-9 -51 -45 -83.5t-77 -32.5q-44 0 -68.5 31t-17.5 70q4 23 16 44l41 55h-1l11 68q-25 -37 -69 -57.5t-84 -20.5q-86 0 -124.5 53.5t-19.5 151.5l48 272h103l-46 -260q-10 -56 11.5 -86.5t65.5 -30.5q51 0 90.5 30.5t50.5 95.5l45 251h103l-82 -467
h-42l-45 -83q-9 -15 -6.5 -29t15.5 -21q33 -9 51 22z" />
    <glyph glyph-name="Wcircumflex" unicode="&#x174;" horiz-adv-x="897" 
d="M638 176l255 513h114l-354 -689h-89l-44 413l-187 -413h-89l-112 689h114l73 -513l193 419h83zM558 921h104l83 -158h-87l-61 88l-90 -88h-86z" />
    <glyph glyph-name="wcircumflex" unicode="&#x175;" horiz-adv-x="782" 
d="M846 467l-253 -467h-85l-61 331l-172 -331h-84l-94 467h110l52 -315l164 315h96l52 -315l165 315h110zM460 699h104l82 -158h-87l-60 88l-91 -88h-86z" />
    <glyph glyph-name="Ycircumflex" unicode="&#x176;" horiz-adv-x="634" 
d="M371 0h-109l56 316l-197 373h127l142 -274l240 274h127l-331 -374zM428 921h104l83 -158h-87l-61 88l-90 -88h-86z" />
    <glyph glyph-name="ycircumflex" unicode="&#x177;" horiz-adv-x="507" 
d="M576 467l-413 -695h-108l146 250l-106 445h110l73 -320l188 320h110zM327 699h104l82 -158h-87l-60 88l-91 -88h-86z" />
    <glyph glyph-name="Ydieresis" unicode="&#x178;" horiz-adv-x="634" 
d="M371 0h-109l56 316l-197 373h127l142 -274l240 274h127l-331 -374zM317 844q4 26 26.5 43.5t49.5 17.5q26 0 41 -17.5t11 -43.5t-26 -44t-48 -18q-27 0 -42.5 18t-11.5 44zM488 844q4 26 26.5 43.5t49.5 17.5q26 0 41.5 -17.5t11.5 -43.5t-26.5 -44t-48.5 -18
q-27 0 -42.5 18t-11.5 44z" />
    <glyph glyph-name="Zacute" unicode="&#x179;" horiz-adv-x="577" 
d="M55 88l442 503h-338l17 98h474l-15 -89l-444 -502h354l-16 -98h-488zM489 920h116l-154 -158h-90z" />
    <glyph glyph-name="zacute" unicode="&#x17a;" horiz-adv-x="504" 
d="M537 467h-398l-17 -97h248l-315 -288l-14 -82h414l16 97h-268l319 288zM401 698h116l-154 -158h-90z" />
    <glyph glyph-name="Zdotaccent" unicode="&#x17b;" horiz-adv-x="577" 
d="M55 88l442 503h-338l17 98h474l-15 -89l-444 -502h354l-16 -98h-488zM369 852q4 27 27 45t50 18q28 0 44 -18t12 -45t-27.5 -45t-51.5 -18q-27 0 -42.5 18t-11.5 45z" />
    <glyph glyph-name="zdotaccent" unicode="&#x17c;" horiz-adv-x="504" 
d="M537 467h-398l-17 -97h248l-315 -288l-14 -82h414l16 97h-268l319 288zM293 630q4 27 27 45t50 18q28 0 44 -18t12 -45t-27 -45t-51 -18q-27 0 -43 18t-12 45z" />
    <glyph glyph-name="Zcaron" unicode="&#x17d;" horiz-adv-x="577" 
d="M55 88l442 503h-338l17 98h474l-15 -89l-444 -502h354l-16 -98h-488zM367 762l-82 157h86l59 -87l92 87h87l-138 -157h-104z" />
    <glyph glyph-name="zcaron" unicode="&#x17e;" horiz-adv-x="504" 
d="M537 467h-398l-17 -97h248l-315 -288l-14 -82h414l16 97h-268l319 288zM291 540l-82 157h86l59 -87l92 87h87l-138 -157h-104z" />
    <glyph glyph-name="longs" unicode="&#x17f;" horiz-adv-x="310" 
d="M479 721l-17 -99h-51q-84 0 -103 -112l-90 -510h-104l67 382h-89l15 85h89l8 43q17 99 74 155t150 56h51z" />
    <glyph glyph-name="florin" unicode="&#x192;" horiz-adv-x="620" 
d="M-1 -185l34 94h57q76 0 120 110l140 357h-87l36 91h86l15 38q80 202 274 202h40l-36 -97h-56q-24 0 -44 -10.5t-31 -20.5t-25 -36.5t-17.5 -35t-15.5 -40.5h104l-35 -91h-105q-16 -42 -45 -119t-54 -140.5t-49 -118.5q-82 -187 -256 -187q-12 0 -50 4z" />
    <glyph glyph-name="Aringacute" unicode="&#x1fa;" horiz-adv-x="647" 
d="M561 1096h117l-130 -133q50 -31 38 -95q-8 -45 -46 -76.5t-84 -31.5q-45 0 -71 31.5t-18 76.5q7 37 32.5 66t62.5 39zM423 867q-4 -22 9 -37t34 -15q23 0 41.5 15t22.5 37q4 23 -9.5 38.5t-36.5 15.5q-21 0 -39 -15.5t-22 -38.5zM492 172l37 -172h112l-139 689h-115
l-381 -689h113l95 172h278zM267 267l155 289l51 -289h-206z" />
    <glyph glyph-name="aringacute" unicode="&#x1fb;" horiz-adv-x="610" 
d="M482 867h117l-129 -133q48 -31 37 -95q-8 -45 -46.5 -76.5t-84.5 -31.5q-45 0 -70.5 31.5t-17.5 76.5q7 37 33 66t62 39zM344 638q-4 -22 8.5 -37t33.5 -15q23 0 42 15t23 37q4 23 -9.5 38.5t-36.5 15.5q-21 0 -39 -15.5t-22 -38.5zM436 0l11 67q-29 -37 -76.5 -57
t-93.5 -20q-98 0 -155.5 67.5t-38.5 176.5q19 108 100.5 175.5t179.5 67.5q46 0 87.5 -19.5t56.5 -56.5l11 66h102l-82 -467h-102zM189 235q-11 -63 23.5 -104t94.5 -41t108.5 39.5t60.5 105.5q11 65 -25 103.5t-93 38.5q-60 0 -108.5 -39.5t-60.5 -102.5z" />
    <glyph glyph-name="AEacute" unicode="&#x1fc;" horiz-adv-x="931" 
d="M990 689h-441l-556 -689h125l137 169h230l-29 -169v0h424l17 101h-318l33 187h269l18 101h-269l35 199h307zM335 271l217 272l-49 -272h-168zM713 920h116l-154 -158h-90z" />
    <glyph glyph-name="aeacute" unicode="&#x1fd;" horiz-adv-x="969" 
d="M608 272q16 53 60 84t99 31q53 0 83 -30.5t28 -84.5h-270zM189 235q12 63 60.5 102.5t108.5 39.5q57 0 93 -38.5t25 -103.5q-12 -66 -60.5 -105.5t-108.5 -39.5t-94.5 41t-23.5 104zM973 235q19 109 -35 175.5t-156 66.5q-96 0 -174 -62l9 52h-99l-11 -66
q-15 37 -56.5 56.5t-87.5 19.5q-98 0 -179.5 -67.5t-100.5 -175.5q-19 -109 38.5 -176.5t155.5 -67.5q46 0 93.5 20t76.5 57l-11 -67h99l10 53q50 -63 151 -63q69 0 133 30.5t105 89.5q-48 21 -78 37q-23 -31 -61 -49t-78 -18q-57 0 -91 31.5t-32 85.5h370q5 18 9 38z
M658 698h116l-154 -158h-90z" />
    <glyph glyph-name="Oslashacute" unicode="&#x1fe;" horiz-adv-x="790" 
d="M186 66q19 -16 31 -24q74 -52 174 -52q147 0 267 103t146 250q22 127 -40 226l94 82l-39 46l-93 -81q-83 81 -210 81q-146 0 -265 -103t-145 -251q-24 -133 43 -230l-96 -82l39 -47zM212 343q18 104 101 177t185 73q85 0 140 -53l-404 -351q-37 67 -22 154zM409 94
q-82 0 -136 48l402 350q37 -66 22 -149q-19 -104 -102.5 -176.5t-185.5 -72.5zM610 920h116l-154 -158h-90z" />
    <glyph glyph-name="oslashacute" unicode="&#x1ff;" horiz-adv-x="572" 
d="M283 -10q102 0 185.5 68.5t102.5 176.5q14 84 -21 148l60 52l-39 46l-60 -52q-61 48 -142 48q-102 0 -184.5 -67t-102.5 -175q-16 -91 25 -156l-66 -57l39 -47l68 58q52 -43 135 -43zM351 376q44 0 74 -21l-232 -201q-17 32 -8 81q11 63 59 102t107 39zM301 90
q-39 0 -68 18l230 199q12 -34 5 -72q-11 -65 -59 -105t-108 -40zM465 698h116l-154 -158h-90z" />
    <glyph glyph-name="Scommaaccent" unicode="&#x218;" horiz-adv-x="574" 
d="M206 -259l-55 23q38 42 55.5 79.5t24.5 99.5h97q-28 -136 -122 -202zM84 200h106q-6 -44 26 -78.5t91 -34.5q57 0 95 26.5t51 67.5q21 86 -89 112l-83 22q-162 46 -137 185q15 86 91.5 141.5t169.5 55.5q97 0 151 -55.5t37 -148.5h-106q9 47 -19.5 75.5t-82.5 28.5
q-49 0 -88.5 -26.5t-46.5 -68.5q-15 -66 75 -90l85 -23q97 -27 133.5 -82.5t13.5 -131.5q-22 -82 -95.5 -133.5t-171.5 -51.5q-105 0 -163 62t-43 148z" />
    <glyph glyph-name="scommaaccent" unicode="&#x219;" horiz-adv-x="444" 
d="M216 202q-69 20 -93 57t-9 95q13 52 68 87.5t120 35.5q69 0 112 -34t35 -104h-98q1 25 -16.5 37.5t-43.5 12.5q-50 0 -71 -26q-15 -17 -11 -42q4 -22 51 -36l68 -18q116 -30 98 -136q-12 -66 -70.5 -103.5t-140.5 -37.5q-70 0 -116.5 41.5t-35.5 111.5h95q-2 -31 19 -49
t61 -18q36 0 62.5 15t30.5 41q7 40 -55 55zM145 -259l-55 23q38 42 55.5 79.5t24.5 99.5h97q-26 -137 -122 -202z" />
    <glyph glyph-name="circumflex" unicode="&#x2c6;" horiz-adv-x="534" 
d="M338 699h104l82 -158h-87l-60 88l-91 -88h-86z" />
    <glyph glyph-name="caron" unicode="&#x2c7;" horiz-adv-x="534" 
d="M310 540l-82 157h86l60 -87l91 87h87l-138 -157h-104z" />
    <glyph glyph-name="breve" unicode="&#x2d8;" horiz-adv-x="483" 
d="M229 674h77q-5 -26 6.5 -41.5t37.5 -15.5q25 0 42 17t22 40h78q-11 -59 -53 -93.5t-102 -34.5q-65 0 -91.5 37t-16.5 91z" />
    <glyph glyph-name="dotaccent" unicode="&#x2d9;" horiz-adv-x="533" 
d="M311 630q4 27 27 45t50 18q28 0 44 -18t12 -45t-27 -45t-51 -18q-27 0 -43 18t-12 45z" />
    <glyph glyph-name="ring" unicode="&#x2da;" horiz-adv-x="539" 
d="M272 638q9 47 46 79t82 32q47 0 73.5 -32t17.5 -79q-8 -45 -46 -76.5t-84 -31.5q-45 0 -71 31.5t-18 76.5zM328 638q-4 -21 8.5 -36.5t34.5 -15.5t41 15.5t23 36.5q4 23 -9 39t-36 16q-22 0 -39.5 -16t-22.5 -39z" />
    <glyph glyph-name="ogonek" unicode="&#x2db;" horiz-adv-x="524" 
d="M273 -111l8 23l68 4q-9 -51 -45 -83.5t-77 -32.5q-44 0 -68.5 31t-17.5 70q3 20 16 44l69 94h53l-66 -122q-19 -35 10 -50q32 -9 50 22z" />
    <glyph glyph-name="tilde" unicode="&#x2dc;" horiz-adv-x="432" 
d="M277 599q-10 0 -20.5 -11t-14.5 -33h-65q14 62 46.5 91t67.5 29q26 0 48.5 -20.5t31.5 -20.5q10 0 20.5 9.5t15.5 31.5h64q-15 -62 -46.5 -89.5t-66.5 -27.5q-24 0 -48 20.5t-33 20.5z" />
    <glyph glyph-name="hungarumlaut" unicode="&#x2dd;" horiz-adv-x="493" 
d="M536 697l-138 -157h-87l126 157h99zM387 697l-125 -157h-87l115 157h97z" />
    <glyph glyph-name="Wgrave" unicode="&#x1e80;" horiz-adv-x="897" 
d="M638 176l255 513h114l-354 -689h-89l-44 413l-187 -413h-89l-112 689h114l73 -513l193 419h83zM418 920h116l72 -158h-90z" />
    <glyph glyph-name="wgrave" unicode="&#x1e81;" horiz-adv-x="782" 
d="M846 467l-253 -467h-85l-61 331l-172 -331h-84l-94 467h110l52 -315l164 315h96l52 -315l165 315h110zM335 698h116l72 -158h-90z" />
    <glyph glyph-name="Wacute" unicode="&#x1e82;" horiz-adv-x="897" 
d="M893 689l-255 -513l-43 419h-83l-193 -419l-73 513h-114l112 -689h89l187 413l44 -413h89l354 689h-114zM670 920h116l-154 -158h-90z" />
    <glyph glyph-name="wacute" unicode="&#x1e83;" horiz-adv-x="782" 
d="M593 0l253 467h-110l-165 -315l-52 315h-96l-164 -315l-52 315h-110l94 -467h84l172 331l61 -331h85zM568 698h116l-154 -158h-90z" />
    <glyph glyph-name="Wdieresis" unicode="&#x1e84;" horiz-adv-x="897" 
d="M893 689l-255 -513l-43 419h-83l-193 -419l-73 513h-114l112 -689h89l187 413l44 -413h89l354 689h-114zM447 844q4 26 26.5 43.5t49.5 17.5q26 0 41 -17.5t11 -43.5t-26 -44t-48 -18q-27 0 -42.5 18t-11.5 44zM618 844q4 26 26.5 43.5t49.5 17.5q26 0 41.5 -17.5
t11.5 -43.5t-26.5 -44t-48.5 -18q-27 0 -42.5 18t-11.5 44z" />
    <glyph glyph-name="wdieresis" unicode="&#x1e85;" horiz-adv-x="782" 
d="M593 0l253 467h-110l-165 -315l-52 315h-96l-164 -315l-52 315h-110l94 -467h84l172 331l61 -331h85zM349 622q4 26 26.5 43.5t49.5 17.5q26 0 41 -17.5t11 -43.5t-26 -44t-48 -18q-27 0 -42.5 18t-11.5 44zM520 622q4 26 26.5 43.5t49.5 17.5q26 0 41.5 -17.5
t11.5 -43.5t-26.5 -44t-48.5 -18q-27 0 -42.5 18t-11.5 44z" />
    <glyph glyph-name="Ygrave" unicode="&#x1ef2;" horiz-adv-x="634" 
d="M371 0h-109l56 316l-197 373h127l142 -274l240 274h127l-331 -374zM323 920h116l72 -158h-90z" />
    <glyph glyph-name="ygrave" unicode="&#x1ef3;" horiz-adv-x="507" 
d="M576 467l-413 -695h-108l146 250l-106 445h110l73 -320l188 320h110zM236 698h116l72 -158h-90z" />
    <glyph glyph-name="thinspace" unicode="&#x2009;" horiz-adv-x="14" 
 />
    <glyph glyph-name="endash" unicode="&#x2013;" horiz-adv-x="601" 
d="M99 189l16 90h469l-16 -90h-469z" />
    <glyph glyph-name="emdash" unicode="&#x2014;" horiz-adv-x="808" 
d="M99 189l16 90h676l-16 -90h-676z" />
    <glyph glyph-name="quoteleft" unicode="&#x2018;" horiz-adv-x="254" 
d="M291 711l49 -22q-89 -100 -110 -223h-91q19 80 64.5 147.5t87.5 97.5z" />
    <glyph glyph-name="quoteright" unicode="&#x2019;" horiz-adv-x="249" 
d="M175 444l-49 22q90 102 110 223h91q-19 -80 -64.5 -147.5t-87.5 -97.5z" />
    <glyph glyph-name="quotesinglbase" unicode="&#x201a;" horiz-adv-x="245" 
d="M55 -80l-48 22q90 102 111 223h91q-19 -80 -65 -147.5t-89 -97.5z" />
    <glyph glyph-name="quotedblleft" unicode="&#x201c;" horiz-adv-x="408" 
d="M446 712l48 -22q-88 -102 -109 -223h-91q18 79 64 147t88 98zM292 712l48 -22q-89 -100 -110 -223h-91q18 79 64.5 147t88.5 98z" />
    <glyph glyph-name="quotedblright" unicode="&#x201d;" horiz-adv-x="403" 
d="M175 444l-49 22q89 103 110 223h90q-18 -80 -63 -147.5t-88 -97.5zM330 444l-50 22q90 102 110 223h91q-18 -80 -63.5 -147.5t-87.5 -97.5z" />
    <glyph glyph-name="quotedblbase" unicode="&#x201e;" horiz-adv-x="399" 
d="M55 -80l-48 22q89 103 111 223h90q-19 -80 -64.5 -147.5t-88.5 -97.5zM210 -80l-49 22q90 102 111 223h91q-19 -80 -65 -147.5t-88 -97.5z" />
    <glyph glyph-name="dagger" unicode="&#x2020;" horiz-adv-x="415" 
d="M377 679l-31 -175h117l-15 -77h-117l-97 -541h-97l97 541h-117l15 77h117l31 175h97z" />
    <glyph glyph-name="daggerdbl" unicode="&#x2021;" horiz-adv-x="443" 
d="M390 679l-31 -175h117l-15 -77h-117l-42 -241h117l-13 -76h-117l-41 -224h-97l41 224h-117l13 76h117l42 241h-117l15 77h117l31 175h97z" />
    <glyph glyph-name="bullet" unicode="&#x2022;" horiz-adv-x="462" 
d="M120 239q11 62 63 103.5t115 41.5t100 -41.5t26 -103.5q-11 -63 -63 -104.5t-115 -41.5t-100 41.5t-26 104.5z" />
    <glyph glyph-name="ellipsis" unicode="&#x2026;" horiz-adv-x="752" 
d="M73 57q5 29 28.5 48.5t52.5 19.5q30 0 47.5 -19.5t12.5 -48.5t-29.5 -48t-54.5 -19q-29 0 -45.5 19t-11.5 48zM316 57q5 29 28.5 48.5t52.5 19.5q30 0 47.5 -19.5t12.5 -48.5t-29.5 -48t-54.5 -19q-29 0 -45.5 19t-11.5 48zM558 57q5 29 29 48.5t53 19.5t47 -19.5
t13 -48.5t-30 -48t-54 -19q-30 0 -46.5 19t-11.5 48z" />
    <glyph glyph-name="perthousand" unicode="&#x2030;" horiz-adv-x="996" 
d="M652 668h-67l-444 -668h66zM133 536q11 56 56 95t101 39t88 -39.5t22 -94.5q-10 -56 -56 -94.5t-102 -38.5t-87.5 38.5t-21.5 94.5zM206 536q-5 -26 9.5 -43t40.5 -17q25 0 46 17.5t25 42.5t-10.5 43t-39.5 18q-26 0 -46 -17.5t-25 -43.5zM403 123q10 56 55.5 95
t101.5 39q55 0 87.5 -39t22.5 -95t-56 -94.5t-102 -38.5t-87.5 38.5t-21.5 94.5zM476 123q-5 -26 9 -43t40 -17t47 17t26 43q5 25 -10.5 43t-40.5 18t-45.5 -18t-25.5 -43zM714 123q10 56 55.5 95t101.5 39q55 0 87.5 -39t22.5 -95t-56 -94.5t-102 -38.5t-87.5 38.5
t-21.5 94.5zM787 123q-5 -26 9 -43t40 -17t47 17t26 43q5 25 -10.5 43t-40.5 18t-45.5 -18t-25.5 -43z" />
    <glyph glyph-name="guilsinglleft" unicode="&#x2039;" horiz-adv-x="318" 
d="M85 233l175 207h87l-175 -207l102 -207h-87z" />
    <glyph glyph-name="guilsinglright" unicode="&#x203a;" horiz-adv-x="318" 
d="M213 440l100 -207l-174 -207h-87l174 207l-100 207h87z" />
    <glyph glyph-name="fraction" unicode="&#x2044;" horiz-adv-x="180" 
d="M465 668l-569 -678h-71l569 678h71z" />
    <glyph glyph-name="zerosuperior" unicode="&#x2070;" horiz-adv-x="361" 
d="M148 625q17 94 58 147.5t120 53.5q54 0 82.5 -27t31 -72t-6.5 -102q-34 -199 -178 -199q-54 0 -82 27t-30.5 71.5t5.5 100.5zM212 625q-24 -136 53 -136q80 0 104 136q24 137 -55 137q-78 0 -102 -137z" />
    <glyph glyph-name="foursuperior" unicode="&#x2074;" horiz-adv-x="355" 
d="M365 511l-15 -80h-65l15 80h-197l263 310h54l-44 -251h54l-11 -59h-54zM218 570h93l24 143z" />
    <glyph glyph-name="fivesuperior" unicode="&#x2075;" horiz-adv-x="340" 
d="M174 543q7 -26 27 -40.5t45 -14.5q38 0 65.5 21t32.5 51q6 32 -13 49t-49 17q-50 0 -111 -35l-21 23l71 206h207l-11 -61h-154l-32 -87q31 14 68 14q56 0 87.5 -33t20.5 -93q-10 -61 -57.5 -98t-114.5 -37q-41 0 -74.5 21.5t-46.5 59.5q5 3 29 17.5t31 19.5z" />
    <glyph glyph-name="sixsuperior" unicode="&#x2076;" horiz-adv-x="337" 
d="M432 746l-62 -24q-14 42 -52 42t-66.5 -36t-36.5 -91q32 46 88 46q51 0 79.5 -39t17.5 -95q-12 -55 -56.5 -90.5t-99.5 -34.5q-54 2 -83 38t-23 96q5 46 15.5 86.5t31 85t58 70.5t87.5 25q81 -4 102 -79zM206 556q-6 -28 9.5 -47.5t42.5 -20.5t49.5 18t28.5 46
q7 28 -7.5 47.5t-41.5 20.5q-28 1 -51.5 -17.5t-29.5 -46.5z" />
    <glyph glyph-name="sevensuperior" unicode="&#x2077;" horiz-adv-x="325" 
d="M457 821l-273 -390h-74l229 327h-171l11 63h278z" />
    <glyph glyph-name="eightsuperior" unicode="&#x2078;" horiz-adv-x="342" 
d="M190 722q8 44 44.5 74t82.5 30t73 -30t19 -74q-6 -37 -41 -66q51 -37 39 -102q-10 -54 -56.5 -91t-104.5 -37t-91.5 37t-23.5 91q13 69 74 102q-22 30 -15 66zM195 555q-5 -28 13 -47.5t49 -19.5t56.5 19.5t29.5 47.5q5 28 -13 49t-47 21h-6q-29 0 -53 -21.5t-29 -48.5z
M254 722q-3 -19 7.5 -32t30.5 -13q20 1 35 14.5t18 30.5t-8.5 29.5t-30.5 12.5q-20 0 -34.5 -12t-17.5 -30z" />
    <glyph glyph-name="ninesuperior" unicode="&#x2079;" horiz-adv-x="337" 
d="M124 503l64 25q11 -42 51 -42q38 0 66 36t37 90q-31 -46 -87 -46q-51 0 -80 39t-17 96q11 55 55 90.5t100 33.5q53 -2 82.5 -38t23.5 -96q-5 -44 -15.5 -85t-31.5 -85.5t-58.5 -70.5t-86.5 -25q-82 4 -103 78zM352 693q5 28 -11 48t-43 20q-27 1 -48.5 -17.5t-27.5 -45.5
q-7 -28 8 -48t41 -20q28 -1 51 17t30 46z" />
    <glyph glyph-name="zeroinferior" unicode="&#x2080;" horiz-adv-x="360" 
d="M45 47q17 94 58 147.5t120 53.5q54 0 82.5 -27t31 -72t-6.5 -102q-34 -199 -178 -199q-54 0 -82 27t-30.5 71.5t5.5 100.5zM109 47q-24 -136 54 -136q79 0 103 136q24 137 -54 137q-79 0 -103 -137z" />
    <glyph glyph-name="oneinferior" unicode="&#x2081;" horiz-adv-x="209" 
d="M64 -147l52 297l-73 -33l11 60l145 70l-70 -394h-65z" />
    <glyph glyph-name="twoinferior" unicode="&#x2082;" horiz-adv-x="322" 
d="M15 -115l190 189q32 30 36 57q4 24 -11 39.5t-41 15.5q-25 0 -46.5 -17t-31.5 -45l-55 14q17 50 57 80t88 30q52 0 82 -33t21 -84t-59 -101q-22 -21 -118 -114h139l-12 -63h-245z" />
    <glyph glyph-name="threeinferior" unicode="&#x2083;" horiz-adv-x="319" 
d="M118 157q-4 4 -20 16.5t-21 17.5q23 28 56 43t68 13q48 -2 73.5 -33.5t16.5 -73.5q-3 -23 -20 -44.5t-40 -32.5q29 -11 41.5 -42t3.5 -63q-13 -49 -62 -81.5t-103 -28.5q-38 3 -65 25t-38 56q4 2 17.5 8.5t24 12t16.5 8.5q6 -20 22 -34.5t38 -15.5h-1q29 -2 55.5 15.5
t32.5 42.5t-10 45t-47 20h-44l10 57h44q25 0 42 18.5t19 40.5q1 18 -11 29.5t-32 11.5q-38 4 -66 -31z" />
    <glyph glyph-name="fourinferior" unicode="&#x2084;" horiz-adv-x="355" 
d="M262 -67l-15 -80h-65l15 80h-196l262 310h54l-44 -251h54l-11 -59h-54zM115 -8h93l24 143z" />
    <glyph glyph-name="fiveinferior" unicode="&#x2085;" horiz-adv-x="339" 
d="M72 -35q7 -26 27 -40.5t45 -14.5q38 0 65.5 21t32.5 51q6 32 -13 49t-49 17q-50 0 -111 -35l-21 23l71 206h207l-11 -61h-154l-32 -87q32 14 68 14q56 0 87.5 -33t20.5 -93q-10 -61 -57.5 -98t-114.5 -37q-41 0 -74.5 21.5t-46.5 59.5q5 3 29 17.5t31 19.5z" />
    <glyph glyph-name="sixinferior" unicode="&#x2086;" horiz-adv-x="337" 
d="M330 168l-63 -24q-14 42 -52 42t-66.5 -36t-36.5 -91q32 46 88 46q51 0 79.5 -39t17.5 -95q-12 -55 -56.5 -90.5t-99.5 -34.5q-54 2 -83 38t-23 96q5 46 15.5 86.5t31.5 85t58 70.5t87 25q81 -4 103 -79zM103 -22q-5 -28 10.5 -47.5t41.5 -20.5q27 -1 49.5 18t28.5 46
q6 28 -8.5 47.5t-40.5 20.5q-28 1 -51.5 -17.5t-29.5 -46.5z" />
    <glyph glyph-name="seveninferior" unicode="&#x2087;" horiz-adv-x="317" 
d="M354 243l-273 -390h-74l229 327h-171l11 63h278z" />
    <glyph glyph-name="eightinferior" unicode="&#x2088;" horiz-adv-x="342" 
d="M87 144q8 44 44.5 74t82.5 30t73 -30t19 -74q-6 -37 -41 -66q51 -35 39 -102q-10 -54 -56.5 -91t-104.5 -37t-91.5 37t-23.5 91q12 68 74 102q-21 29 -15 66zM93 -23q-5 -28 12.5 -47.5t48.5 -19.5t57 19.5t30 47.5q5 27 -13 48.5t-48 21.5h-6q-29 0 -52.5 -21t-28.5 -49
zM151 144q-4 -18 7 -31.5t32 -13.5q19 1 33.5 14.5t18.5 30.5t-7.5 29.5t-31.5 12.5t-34.5 -12t-17.5 -30z" />
    <glyph glyph-name="nineinferior" unicode="&#x2089;" horiz-adv-x="337" 
d="M22 -75l63 25q11 -42 51 -42q38 0 66 36t37 90q-31 -46 -87 -46q-51 0 -80 39t-17 96q11 54 55.5 90t99.5 34q53 -2 82.5 -37.5t25.5 -96.5q-6 -45 -17 -85t-32 -85t-58.5 -71t-86.5 -25q-81 4 -102 78zM249 115q5 28 -11 48t-43 20q-27 1 -48.5 -17.5t-27.5 -45.5
q-7 -28 8 -48t42 -20q28 -1 50.5 17t29.5 46z" />
    <glyph glyph-name="colonmonetary" unicode="&#x20a1;" horiz-adv-x="702" 
d="M315 -2l-59 -108l-46 18l56 106q-37 16 -64 39l-67 -126l-48 17l77 145q-87 105 -60 254q25 140 135 241t249 111l59 110l48 -18l-51 -92q43 -3 79 -16l47 89l46 -17l-48 -92q58 -33 90 -86l-92 -64q-28 35 -53 50l-246 -463q17 -4 41 -4q114 0 201 90l70 -65
q-55 -59 -131 -93t-159 -34q-37 0 -74 8zM491 595l-234 -439q26 -30 61 -46l252 472q-30 11 -79 13zM210 343q-13 -78 16 -140l204 382q-81 -21 -142.5 -88t-77.5 -154z" />
    <glyph glyph-name="lira" unicode="&#x20a4;" horiz-adv-x="646" 
d="M430 226h-143l-24 -128h229q9 0 16.5 7.5t8.5 18.5l8 50h102l-8 -51q-9 -53 -42.5 -88t-82.5 -35h-445l16 98h96l24 128h-78l9 56h78l11 61h-78l10 56h78l12 69q18 105 85 167t163 62q86 0 134.5 -58t31.5 -156h-103q9 55 -17 84t-72 24q-40 -2 -74 -28.5t-41 -67.5
l-17 -96h143l-10 -56h-143l-11 -61h143z" />
    <glyph glyph-name="uni20A6" unicode="&#x20a6;" horiz-adv-x="755" 
d="M621 0h-89l-107 250h-163l-44 -250h-93l44 250h-69l9 55h69l14 74h-69l10 55h69l44 255h92l110 -255h157l44 255h93l-44 -255h82l-10 -55h-82l-14 -74h82l-9 -55h-82zM285 379l-14 -74h129l-30 74h-85zM471 379l31 -74h79l14 74h-124zM309 519l-14 -85h51zM526 250
l31 -76l15 76h-46z" />
    <glyph glyph-name="peseta" unicode="&#x20a7;" horiz-adv-x="742" 
d="M202 399h-80l10 55h80l8 49h-80l10 55h80l23 131h275q72 0 113 -36.5t52 -94.5h104l-10 -55h-90q-2 -28 -4 -41l-1 -8h87l-10 -55h-95q-62 -141 -223 -141h-181l-44 -258h-94zM599 454l1 8q2 13 2 41h-288l-8 -49h293zM286 345h175q76 0 114 54h-279zM511 602h-180
l-7 -44h264q-22 44 -77 44z" />
    <glyph glyph-name="rupee" unicode="&#x20a8;" horiz-adv-x="684" 
d="M456 462h-310q9 41 10 56h304q-3 33 -24 53t-60 20h-207q7 29 16 98h573l-10 -56h-214q41 -46 39 -115h155l-10 -56h-151q-17 -83 -72.5 -144t-141.5 -61l136 -257h-129l-128 253h-123l17 97h203q52 0 84 32t43 80z" />
    <glyph glyph-name="uni20A9" unicode="&#x20a9;" horiz-adv-x="978" 
d="M241 274h-135l9 55h117l-16 100h-83l9 55h64l-32 205h100l29 -205h202l52 112h71l12 -112h202l103 205h100l-107 -205h66l-9 -55h-84l-52 -100h118l-9 -55h-136l-141 -274h-81l-30 274h-88l-125 -274h-81zM646 429l11 -100h108l50 100h-169zM311 429l14 -100h109l46 100
h-169zM663 274l13 -124l63 124h-76zM334 274l17 -124l58 124h-75zM562 429l-46 -100h58l-11 100h-1z" />
    <glyph glyph-name="afii57636" unicode="&#x20aa;" horiz-adv-x="803" 
d="M601 332l-28 -155h-101l27 148q8 47 -19 79t-79 32h-128l-76 -436h-103l95 538h220q35 0 70 -8q70 -16 102.5 -70t19.5 -128zM295 206l28 155h102l-26 -149q-8 -47 18 -78.5t79 -31.5h127l78 436h103l-95 -538h-220q-42 0 -71 7q-70 16 -103 70.5t-20 128.5z" />
    <glyph glyph-name="Euro" unicode="&#x20ac;" horiz-adv-x="820" 
d="M586 366h-473l10 57h108q48 119 156 196.5t232 77.5q81 0 144 -33t99 -91l-92 -64q-59 86 -169 86q-81 0 -152.5 -48t-108.5 -124h256zM103 307h473l-10 -57h-252q15 -71 68 -114.5t130 -43.5q114 0 201 90l70 -65q-55 -59 -130.5 -93t-158.5 -34q-121 0 -200.5 73
t-89.5 187h-111z" />
    <glyph glyph-name="uni2113" unicode="&#x2113;" horiz-adv-x="393" 
d="M264 553l-48 -274h42q39 0 50 66l38 208q13 72 -27 72q-43 0 -55 -72zM241 95l95 -2l-16 -93h-111q-141 0 -112 161l71 398q28 162 169 162q136 0 107 -164l-38 -213q-16 -86 -61.5 -124t-146.5 -38l-4 -21q-7 -35 3 -50t44 -16z" />
    <glyph glyph-name="afii61352" unicode="&#x2116;" horiz-adv-x="972" 
d="M595 0l121 689h-107l-86 -489l-206 489h-103l-121 -689h107l86 493l209 -493h100zM757 559q10 55 55 93.5t100 38.5t87 -38.5t22 -93.5t-55 -93t-100 -38t-87 38t-22 93zM827 559q-5 -26 10.5 -44t40.5 -18q26 0 47.5 18t26.5 44t-10 44.5t-41 18.5q-25 0 -47 -18.5
t-27 -44.5zM722 333l9 52h254l-9 -52h-254z" />
    <glyph glyph-name="trademark" unicode="&#x2122;" horiz-adv-x="844" 
d="M375 311l94 315h-106l-57 -315h-72l57 315h-117l10 63h365l74 -259l165 259h62l-22 -378h-69l15 256l-136 -215h-57l-60 215l-76 -256h-70z" />
    <glyph glyph-name="estimated" unicode="&#x212e;" horiz-adv-x="655" 
d="M658 279h-429l-34 -193q54 -63 140 -63q76 0 129 33t104 94l27 -19q-56 -68 -117.5 -104.5t-148.5 -36.5q-119 0 -180 84.5t-39 205.5q22 123 112 206.5t215 83.5q124 0 183.5 -84.5t37.5 -206.5zM544 312l28 163q-24 27 -62 44.5t-79 17.5q-97 0 -168 -62l-28 -163h309z
" />
    <glyph glyph-name="minus" unicode="&#x2212;" horiz-adv-x="560" 
d="M525 220h-414l15 87h414z" />
    <glyph glyph-name="notequal" unicode="&#x2260;" horiz-adv-x="591" 
d="M285 120l-72 -109h-70l72 109h-130l16 89h173l71 106h-225l15 89h268l73 107h71l-73 -107h121l-15 -89h-165l-70 -106h216l-16 -89h-260z" />
    <glyph glyph-name="lessequal" unicode="&#x2264;" horiz-adv-x="654" 
d="M598 139l-471 194l17 93l539 193l-18 -100l-400 -139l350 -141zM575 0h-507l14 87h507z" />
    <glyph glyph-name="greaterequal" unicode="&#x2265;" horiz-adv-x="654" 
d="M643 333l-539 -194l17 100l400 141l-350 139l18 100l471 -193zM79 0h507l14 87h-507z" />
    <glyph glyph-name="commaaccent" unicode="&#xf6c3;" horiz-adv-x="277" 
d="M82 -259l-55 23q38 42 55.5 79.5t24.5 99.5h97q-26 -137 -122 -202z" />
    <glyph glyph-name="rupiah" unicode="&#xf6dd;" horiz-adv-x="1155" 
d="M442 591h-158l-43 -241h154q54 0 87 35t42 85q8 49 -11.5 85t-70.5 36zM419 257l136 -257h-129l-128 253h-74l-44 -253h-107l121 689h269q104 0 145.5 -64t25.5 -155q-15 -83 -69.5 -143t-145.5 -70zM814 467l-12 -69q28 37 75 58t95 21q97 0 152 -68t36 -176
q-20 -109 -99 -176t-176 -67q-50 0 -89 20t-53 57l-53 -294h-103l124 694h103zM773 231q-11 -66 24 -104t92 -38q60 0 107.5 39.5t58.5 102.5q12 64 -21 105t-93 41q-59 0 -107.5 -40t-60.5 -106z" />
    <glyph glyph-name="apple" unicode="&#xf8ff;" horiz-adv-x="847" 
d="M755 687l12 -687h-687l-12 687h687zM154 595l6 -377h81l-75 75l-3 178l259 -253l252 253l3 -178l-73 -75h84l-6 377l-262 -263zM177 132h-15l1 -53h9l-1 37l14 -37h10l10 37l1 -37h9l-1 53h-14l-9 -36zM246 132q-12 0 -18.5 -7.5t-6.5 -18.5t7 -19t19 -8q22 0 22 26
q0 11 -6 19t-17 8zM246 89q-7 0 -12 5.5t-5 10.5q0 6 5 11.5t12 5.5q12 0 12 -17q0 -16 -12 -16zM282 99h-13q0 -20 23 -20q21 0 21 17q0 11 -15 14q-16 3 -16 6q0 6 9 6q10 0 10 -6h9q0 16 -19 16t-19 -16q0 -8 16 -15q13 0 13 -5q0 -7 -10 -7q-9 0 -9 10zM313 122h17
l1 -43h8l-1 43h15v10h-40v-10zM375 132h-9l-21 -53h12l3 13h22l4 -13h11zM372 119l7 -18h-16l6 18h3zM424 132h-28l1 -53h9l-1 22h13q9 0 9 -9q0 -3 0.5 -7.5t0.5 -5.5h13q-4 4 -4 13t-7 13q7 3 7 9q0 18 -13 18zM418 108h-13v14h13q9 0 9 -6q0 -8 -9 -8zM464 132h-20l1 -53
h20q11 0 17.5 8t6.5 20q0 25 -25 25zM464 89h-8v33h4q17 0 17 -17q0 -6 -4 -11t-9 -5zM529 132h-37l1 -53h40l-1 10h-28v12h25v9h-25v12h25v10zM541 99h-9q0 -20 23 -20q21 0 21 17q0 11 -15 14q-17 3 -17 6q0 6 7 6q12 0 12 -6h10q0 16 -19 16q-8 0 -15 -4.5t-7 -11.5
t19 -15q12 0 12 -5q0 -7 -9 -7q-13 0 -13 10zM587 132h-7l1 -53h7zM631 86l5 -7h6l-1 29h-22v-9h12q-4 -10 -12 -10q-7 0 -11.5 5.5t-4.5 10.5q0 6 4.5 11.5t11.5 5.5q9 0 9 -10h13q-4 20 -22 20q-11 0 -18 -8t-7 -19q0 -10 7 -18t19 -8q9 0 11 7zM655 132h-8l1 -53h8l-1 33
l23 -33h13l-1 53h-13v-33z" />
    <glyph glyph-name="published" horiz-adv-x="807" 
d="M417 280h67q55 0 90.5 35.5t43.5 79.5q9 47 -14.5 81.5t-78.5 34.5h-136l-63 -353h69zM446 443h67q21 0 29.5 -14t4.5 -34q-3 -19 -17.5 -33t-36.5 -14h-65zM114 343q26 147 145.5 250.5t265.5 103.5t230 -104t58 -250q-26 -147 -146.5 -250t-266.5 -103t-229 103
t-57 250zM175 343q-22 -121 47 -206t190 -85q120 0 218.5 85t120.5 206t-47.5 206.5t-190.5 85.5q-120 0 -218 -85.5t-120 -206.5z" />
    <glyph glyph-name="frenchfranc" horiz-adv-x="730" 
d="M381 0l58 332h-182l-58 -332h-104l121 689h401l-17 -100h-297l-29 -158h284l-19 -111q54 117 148 117q53 0 81 -18l-35 -96q-28 16 -65 16q-63 0 -105 -61t-60 -160l-20 -118h-102z" />
    <glyph glyph-name="parenleft.case" horiz-adv-x="367" 
d="M106 342q38 212 138.5 339t228.5 127l-16 -94q-84 0 -156.5 -104t-101.5 -268q-29 -163 7 -266.5t120 -103.5l-17 -94q-128 0 -184.5 126.5t-18.5 337.5z" />
    <glyph glyph-name="parenright.case" horiz-adv-x="367" 
d="M381 342q-38 -212 -138.5 -338t-228.5 -126l16 94q83 0 156 103.5t102 266.5t-7.5 267.5t-119.5 104.5l17 94q128 0 184.5 -127.5t18.5 -338.5z" />
    <glyph glyph-name="hyphen.case" horiz-adv-x="481" 
d="M118 301l17 93h349l-17 -93h-349z" />
    <glyph glyph-name="at.case" horiz-adv-x="969" 
d="M634 220l22 128q10 53 -21 89.5t-83 36.5t-95.5 -36.5t-52.5 -89.5q-9 -52 22 -88.5t83 -36.5q47 0 101 43l-16 -88q-51 -30 -99 -30q-83 0 -131.5 58.5t-34.5 141.5q15 84 84.5 142.5t152.5 58.5q81 0 130 -55q49 -57 37 -137l-25 -144q-12 -64 57 -64q33 0 61 21
t45.5 55.5t28.5 67.5t17 67q27 148 -66 247.5t-247 99.5q-150 0 -272.5 -106.5t-148.5 -257.5t58.5 -255.5t234.5 -104.5h25l-14 -76h-25q-119 0 -208 58t-128 158t-18 220q32 182 180.5 310.5t329.5 128.5q90 0 167 -32t128.5 -87.5t73.5 -134.5t6 -168q-8 -47 -27 -94.5
t-48 -92t-72.5 -72t-94.5 -27.5q-62 0 -96 34.5t-21 111.5z" />
    <glyph glyph-name="bracketleft.case" horiz-adv-x="328" 
d="M60 -116l163 916h208l-16 -88h-111l-132 -740h111l-15 -88h-208z" />
    <glyph glyph-name="bracketright.case" horiz-adv-x="328" 
d="M389 800l-163 -916h-208l15 88h111l132 740h-111l16 88h208z" />
    <glyph glyph-name="braceleft.case" horiz-adv-x="399" 
d="M103 381q24 0 45.5 17.5t25.5 39.5l32 174q15 88 81 142t150 54h69l-12 -77h-72q-42 0 -77 -31t-43 -77l-29 -157q-7 -42 -29.5 -75.5t-59.5 -46.5q33 -11 43.5 -45t2.5 -77l-27 -149q-8 -45 16 -78t65 -33h72l-13 -78h-69q-84 0 -131 54.5t-32 142.5l30 170
q4 21 -11.5 38.5t-39.5 17.5z" />
    <glyph glyph-name="braceright.case" horiz-adv-x="399" 
d="M429 381l-12 -74q-24 0 -45.5 -17.5t-25.5 -38.5l-31 -170q-16 -88 -82 -142.5t-150 -54.5h-69l13 78h72q41 0 77 33t44 78l27 149q18 101 88 122q-62 24 -45 122l28 157q8 46 -16 77t-66 31h-72l13 77h69q84 0 132 -54t32 -142l-31 -174q-5 -22 10.5 -39.5t39.5 -17.5z
" />
    <glyph glyph-name="exclamdown.case" horiz-adv-x="267" 
d="M262 503l-75 -504h-111l104 504h82zM174 630q5 29 29.5 48t53.5 19q30 0 47 -19t12 -48t-29 -48.5t-54 -19.5q-29 0 -46.5 19.5t-12.5 48.5z" />
    <glyph glyph-name="guillemotleft.case" horiz-adv-x="517" 
d="M291 344l175 207h86l-175 -207l102 -207h-86zM114 344l175 207h87l-175 -207l102 -207h-87z" />
    <glyph glyph-name="periodcentered.case" horiz-adv-x="266" 
d="M130 386q5 29 29 48.5t53 19.5q30 0 47.5 -19.5t12.5 -48.5t-29.5 -48.5t-54.5 -19.5q-29 0 -46 19.5t-12 48.5z" />
    <glyph glyph-name="guillemotright.case" horiz-adv-x="517" 
d="M246 551l100 -207l-174 -207h-86l174 207l-100 207h86zM423 551l100 -207l-174 -207h-87l174 207l-100 207h87z" />
    <glyph glyph-name="questiondown.case" horiz-adv-x="486" 
d="M325 450l11 52h100l-9 -52q-7 -39 -19 -65t-32.5 -42.5t-39 -26.5t-52 -25.5t-58.5 -30.5q-45 -27 -54 -75q-7 -41 19.5 -67t69.5 -26q42 0 76.5 29.5t43.5 77.5h99q-17 -94 -85 -151.5t-153 -57.5q-87 0 -137.5 53.5t-34.5 141.5q13 70 62 120t114 69q35 10 54 26.5
t25 49.5zM479 630q-5 -29 -29.5 -48.5t-53.5 -19.5q-30 0 -47 19.5t-12 48.5t29 48t54 19q29 0 46.5 -19t12.5 -48z" />
    <glyph glyph-name="endash.case" horiz-adv-x="597" 
d="M116 300l16 90h469l-16 -90h-469z" />
    <glyph glyph-name="emdash.case" horiz-adv-x="804" 
d="M116 300l16 90h676l-16 -90h-676z" />
    <glyph glyph-name="bullet.case" horiz-adv-x="464" 
d="M141 350q11 62 63 103.5t115 41.5t100 -41.5t26 -103.5q-11 -63 -63 -104.5t-115 -41.5t-100 41.5t-26 104.5z" />
    <glyph glyph-name="guilsinglleft.case" horiz-adv-x="341" 
d="M114 344l175 207h87l-175 -207l102 -207h-87z" />
    <glyph glyph-name="guilsinglright.case" horiz-adv-x="341" 
d="M247 551l100 -207l-174 -207h-87l174 207l-100 207h87z" />
    <glyph glyph-name="cent.case" horiz-adv-x="533" 
d="M437 697l-18 -103q103 -6 153 -80l-92 -64q-31 45 -97 45q-61 0 -111 -39.5t-61 -102.5q-11 -64 24.5 -105t95.5 -41q67 0 113 46l71 -63q-76 -73 -182 -81l-20 -110h-65l20 113q-85 15 -130.5 80t-28.5 161q17 95 85.5 159t158.5 79l19 106h65z" />
    <glyph glyph-name="zero.tnum" 
d="M109 325q13 74 34.5 131.5t55.5 106t86.5 74t121.5 25.5t112.5 -26.5t60 -72t19 -107t-12.5 -131.5q-13 -74 -34.5 -131t-55.5 -105t-86.5 -73.5t-121.5 -25.5t-112.5 26.5t-60 72t-19 106.5t12.5 130zM211 325q-42 -235 95 -235q136 0 178 235t-94 235q-137 0 -179 -235
z" />
    <glyph glyph-name="one.tnum" 
d="M260 577l226 83l-117 -660h-102l91 521l-114 -39z" />
    <glyph glyph-name="two.tnum" 
d="M491 0h-409l8 49l323 320q54 52 62 99q7 42 -19 68t-72 26q-43 0 -79 -27.5t-50 -72.5l-94 21q28 82 94.5 131t147.5 49q88 0 138.5 -55t35.5 -140q-15 -87 -101 -168q-40 -39 -96.5 -94t-108.5 -106h237z" />
    <glyph glyph-name="three.tnum" 
d="M330 300h-73l17 95h73q36 -1 61.5 22t35.5 52q21 62 -32 85q-14 7 -44 7q-57 1 -101 -51l-68 57q36 47 92.5 73.5t116.5 22.5q79 -4 121.5 -57t30.5 -124q-7 -38 -35 -72.5t-67 -56.5q45 -18 64.5 -67t9.5 -104q-16 -89 -89 -140.5t-173 -51.5q-74 0 -124 36.5t-66 95.5
l100 48q7 -31 41 -55.5t68 -24.5h-1q60 0 96 28t44 72q7 42 -18.5 76.5t-79.5 33.5z" />
    <glyph glyph-name="four.tnum" 
d="M217 230h171l47 255zM566 137h-91l-24 -137h-102l24 137h-334l439 516h88l-76 -423h91z" />
    <glyph glyph-name="five.tnum" 
d="M460 215q10 58 -22 89.5t-88 31.5q-79 0 -168 -59l-53 45l114 331h357l-16 -97h-274l-60 -165q23 16 59.5 26.5t67.5 10.5q95 0 148 -56.5t36 -156.5q-18 -101 -98 -163t-193 -62q-68 0 -121.5 39.5t-74.5 105.5q12 5 49.5 25.5t46.5 24.5q11 -43 43 -69t75 -26
q72 0 117 35.5t55 89.5z" />
    <glyph glyph-name="six.tnum" 
d="M446 203q8 49 -16 83.5t-71 35.5q-48 1 -90.5 -32t-50.5 -79q-9 -50 18 -84t74 -35q47 -2 87.5 30.5t48.5 80.5zM386 421q85 0 132 -63.5t30 -159.5q-20 -90 -93.5 -149t-166.5 -59q-88 0 -136.5 61.5t-38.5 163.5q7 67 19.5 126t38 121t59.5 105t86.5 70t117.5 25
q63 -3 106 -30t62 -96l-99 -40q-21 70 -90 70q-68 0 -119.5 -63t-60.5 -156q56 74 153 74z" />
    <glyph glyph-name="seven.tnum" 
d="M194 653h462l-456 -653h-119l388 554h-293z" />
    <glyph glyph-name="eight.tnum" 
d="M295 491q-5 -33 14 -54.5t55 -21.5q35 1 61.5 23t31.5 53q5 30 -14 51.5t-54 21.5t-62 -21.5t-32 -51.5zM197 208q-9 -50 22 -84.5t85 -34.5t97.5 34.5t52.5 84.5q8 48 -22 83t-82 35h-11q-51 0 -92.5 -35.5t-49.5 -82.5zM195 492q12 71 73 121t138 50t121 -50t32 -121
q-12 -66 -71 -114q42 -28 60 -72.5t8 -98.5q-17 -91 -94.5 -154t-174.5 -63t-153.5 63t-39.5 154q10 54 44 98.5t85 72.5q-40 45 -28 114z" />
    <glyph glyph-name="nine.tnum" 
d="M247 449q-9 -49 15.5 -83.5t71.5 -35.5q47 -2 89.5 31.5t50.5 79.5q9 50 -18 83.5t-73 35.5q-48 1 -87.5 -31t-48.5 -80zM306 231q-85 0 -131.5 63.5t-29.5 159.5q19 90 92.5 149t166.5 59q88 0 136.5 -61.5t38.5 -163.5q-7 -67 -19.5 -126t-37.5 -121t-59 -105t-87 -70
t-118 -25q-63 3 -106.5 30.5t-62.5 95.5l101 40q21 -70 90 -70q68 0 118.5 63t59.5 156q-50 -74 -152 -74z" />
    <glyph glyph-name="zero.taboldstyle" 
d="M286 -10q-101 0 -160 73t-39 187q20 115 105.5 187t186.5 72q103 0 161.5 -71.5t38.5 -187.5q-20 -115 -105 -187.5t-188 -72.5zM304 90q60 0 111.5 44.5t63.5 115.5t-23 114.5t-96 43.5q-60 0 -111 -44t-63 -114q-12 -71 23 -115.5t95 -44.5z" />
    <glyph glyph-name="one.taboldstyle" 
d="M482 516l-90 -516h-103l62 356l-155 -71l18 105z" />
    <glyph glyph-name="two.taboldstyle" 
d="M473 0h-379l8 51l279 248q42 35 46 61q5 24 -13.5 41t-52.5 17q-32 0 -57.5 -19t-35.5 -52l-96 16q20 70 78 112t131 42q79 0 122.5 -44.5t31.5 -110.5q-5 -29 -22.5 -56t-33.5 -43.5t-48 -45.5l-141 -119h199z" />
    <glyph glyph-name="six.taboldstyle" 
d="M446 203q8 49 -16 83.5t-71 35.5q-48 1 -90.5 -32t-50.5 -79q-9 -50 18 -84t74 -35q47 -2 87.5 30.5t48.5 80.5zM386 421q85 0 132 -63.5t30 -159.5q-20 -90 -93.5 -149t-166.5 -59q-88 0 -136.5 61.5t-38.5 163.5q7 67 19.5 126t38 121t59.5 105t86.5 70t117.5 25
q63 -3 106 -30t62 -96l-99 -40q-21 70 -90 70q-68 0 -119.5 -63t-60.5 -156q56 74 153 74z" />
    <glyph glyph-name="eight.taboldstyle" 
d="M295 491q-5 -33 14 -54.5t55 -21.5q35 1 61.5 23t31.5 53q5 30 -14 51.5t-54 21.5t-62 -21.5t-32 -51.5zM197 208q-9 -50 22 -84.5t85 -34.5t97.5 34.5t52.5 84.5q8 48 -22 83t-82 35h-11q-51 0 -92.5 -35.5t-49.5 -82.5zM195 492q12 71 73 121t138 50t121 -50t32 -121
q-12 -66 -71 -114q42 -28 60 -72.5t8 -98.5q-17 -91 -94.5 -154t-174.5 -63t-153.5 63t-39.5 154q10 54 44 98.5t85 72.5q-40 45 -28 114z" />
    <glyph glyph-name="three.taboldstyle" 
d="M300 114h-73l16 95h73q36 -1 61.5 22t36.5 52q17 63 -34 85q-15 7 -44 7q-57 1 -101 -51l-68 57q36 47 93 73.5t117 22.5q79 -4 121.5 -57t29.5 -124q-7 -38 -34.5 -73t-66.5 -56q45 -18 64.5 -67t10.5 -104q-15 -89 -89 -140.5t-174 -51.5q-74 0 -123.5 36.5t-65.5 95.5
l98 48q8 -31 41.5 -55.5t67.5 -24.5h-1q60 0 95.5 27.5t44.5 72.5q8 42 -17.5 76.5t-78.5 33.5z" />
    <glyph glyph-name="four.taboldstyle" 
d="M187 43h170l45 255zM534 -50h-92l-24 -138h-102l24 138h-333l440 516h87l-75 -423h92z" />
    <glyph glyph-name="five.taboldstyle" 
d="M427 29q11 58 -21 89.5t-89 31.5q-79 0 -167 -59l-54 45l115 331h357l-17 -97h-274l-60 -165q24 16 60.5 26.5t67.5 10.5q95 0 148 -56.5t35 -156.5q-18 -101 -97.5 -163t-192.5 -62q-68 0 -121.5 39.5t-74.5 105.5q12 5 49.5 25.5t46.5 24.5q12 -44 43.5 -69.5
t73.5 -25.5q72 0 117 35.5t55 89.5z" />
    <glyph glyph-name="seven.taboldstyle" 
d="M161 466h462l-457 -653h-119l389 554h-293z" />
    <glyph glyph-name="nine.taboldstyle" 
d="M218 264q-8 -49 16 -83.5t70 -35.5q48 -1 90.5 32t50.5 79q9 50 -18 84t-74 35q-47 2 -87 -30.5t-48 -80.5zM277 46q-85 0 -132 63.5t-29 159.5q19 90 92.5 149t166.5 59q88 0 136.5 -61.5t38.5 -163.5q-7 -67 -19.5 -126t-37.5 -120.5t-59 -105t-87 -70.5t-118 -25
q-63 3 -106 30.5t-62 95.5l99 40q22 -70 90 -70t119.5 63t59.5 156q-50 -74 -152 -74z" />
    <glyph glyph-name="zero.oldstyle" horiz-adv-x="594" 
d="M293 -10q-101 0 -160 73t-39 187q20 115 105.5 187t186.5 72q103 0 161.5 -71.5t38.5 -187.5q-20 -115 -105 -187.5t-188 -72.5zM311 90q60 0 111.5 44.5t63.5 115.5t-23 114.5t-96 43.5q-60 0 -111 -44t-63 -114q-12 -71 23 -115.5t95 -44.5z" />
    <glyph glyph-name="one.oldstyle" horiz-adv-x="370" 
d="M377 516l-90 -516h-102l62 356l-156 -71l18 105z" />
    <glyph glyph-name="two.oldstyle" horiz-adv-x="486" 
d="M426 0h-378l8 51l279 248q42 37 46 61q5 24 -13.5 41t-52.5 17q-33 0 -58.5 -19t-35.5 -52l-96 16q20 70 78 112t132 42q78 0 122 -44.5t32 -110.5q-5 -29 -22.5 -56t-33.5 -43.5t-48 -45.5l-141 -119h198z" />
    <glyph glyph-name="three.oldstyle" horiz-adv-x="516" 
d="M268 114h-73l16 95h73q36 -1 61.5 22t36.5 52q17 63 -34 85q-15 7 -44 7q-57 1 -101 -51l-68 57q36 47 93 73.5t117 22.5q79 -4 121.5 -57t29.5 -124q-7 -38 -34.5 -73t-66.5 -56q45 -18 64.5 -67t10.5 -104q-15 -89 -89 -140.5t-174 -51.5q-74 0 -123.5 36.5t-65.5 95.5
l98 48q8 -31 41.5 -55.5t67.5 -24.5h-1q60 0 95.5 27.5t44.5 72.5q8 42 -17.5 76.5t-78.5 33.5z" />
    <glyph glyph-name="four.oldstyle" horiz-adv-x="579" 
d="M187 43h171l45 255zM534 -50h-91l-24 -138h-102l24 138h-334l440 516h88l-75 -423h91z" />
    <glyph glyph-name="five.oldstyle" horiz-adv-x="554" 
d="M414 29q11 58 -21 89.5t-89 31.5q-79 0 -167 -59l-54 45l115 331h357l-17 -97h-274l-60 -165q56 37 128 37q95 0 148 -56.5t35 -156.5q-18 -101 -97.5 -163t-192.5 -62q-68 0 -121.5 39.5t-74.5 105.5q12 5 49.5 25.5t46.5 24.5q12 -44 43.5 -69.5t73.5 -25.5
q72 0 117 35.5t55 89.5z" />
    <glyph glyph-name="six.oldstyle" horiz-adv-x="561" 
d="M437 203q8 49 -16 83.5t-71 35.5q-48 1 -90.5 -32t-50.5 -79q-9 -50 18 -84t74 -35q47 -2 87.5 30.5t48.5 80.5zM377 421q85 0 132 -63.5t30 -159.5q-19 -90 -93 -149t-167 -59q-88 0 -136.5 61.5t-38.5 163.5q7 67 19.5 126t38 121t59.5 105t86.5 70t117.5 25
q63 -3 106 -30t62 -96l-99 -40q-21 70 -90 70q-68 0 -119.5 -63t-60.5 -156q56 74 153 74z" />
    <glyph glyph-name="seven.oldstyle" horiz-adv-x="511" 
d="M127 467h462l-457 -653h-119l389 554h-293z" />
    <glyph glyph-name="eight.oldstyle" horiz-adv-x="570" 
d="M290 491q-5 -33 14 -54.5t55 -21.5q35 1 61.5 23t31.5 53q5 30 -14 51.5t-54 21.5t-62 -21.5t-32 -51.5zM192 208q-9 -50 22 -84.5t85 -34.5t97.5 34.5t52.5 84.5q8 48 -22 83t-82 35h-11q-51 0 -92.5 -35.5t-49.5 -82.5zM190 492q12 71 73 121t138 50t121 -50t32 -121
q-12 -66 -71 -114q42 -28 60 -72.5t8 -98.5q-17 -91 -94.5 -154t-174.5 -63t-153.5 63t-39.5 154q10 54 44 98.5t85 72.5q-40 45 -28 114z" />
    <glyph glyph-name="nine.oldstyle" horiz-adv-x="540" 
d="M198 264q-8 -49 16 -83.5t70 -35.5q48 -1 90.5 32t50.5 79q9 50 -18 84t-74 35q-47 2 -87 -30.5t-48 -80.5zM257 46q-85 0 -132 63.5t-29 159.5q19 90 92.5 149t166.5 59q88 0 136.5 -61.5t38.5 -163.5q-7 -67 -19.5 -126t-37.5 -120.5t-59 -105t-87 -70.5t-118 -25
q-63 3 -106 30.5t-62 95.5l99 40q22 -70 90 -70t119.5 63t59.5 156q-50 -74 -152 -74z" />
    <glyph glyph-name="Lslash.sc" horiz-adv-x="433" 
d="M253 390l94 53l-13 -67l-93 -53l-41 -233h229l-15 -90h-324l46 264l-61 -35l11 67l62 36l44 247h95z" />
    <glyph glyph-name="Zcaron.sc" horiz-adv-x="509" 
d="M377 709l75 70h79l-120 -136h-90l-72 136h79zM59 78l363 414h-279l16 87h401l-14 -77l-366 -414h292l-14 -88h-412z" />
    <glyph glyph-name="exclam.sc" horiz-adv-x="275" 
d="M88 45q4 24 24 40t43 16q25 0 38.5 -16t9.5 -40t-23.5 -39.5t-44.5 -15.5q-24 0 -37.5 15.5t-9.5 39.5zM125 152l62 429h105l-89 -429h-78z" />
    <glyph glyph-name="ampersand.sc" horiz-adv-x="579" 
d="M420 355l13 71h87l-13 -72h71l-13 -74h-71l-19 -104q-9 -51 3.5 -76t63.5 -25l-14 -84q-108 0 -134 60q-27 -28 -68 -44.5t-82 -16.5q-84 0 -129.5 52.5t-31.5 130.5q18 102 113 152q-39 33 -26 104q11 61 64 106t118 45q48 0 83 -22.5t52 -60.5l-85 -48q-22 43 -60 43
q-31 0 -54 -18.5t-28 -46.5q-4 -26 9.5 -49t46.5 -23h104zM407 280h-100q-50 0 -86 -29.5t-45 -70.5q-8 -42 17 -71.5t71 -29.5q106 0 133 146z" />
    <glyph glyph-name="question.sc" horiz-adv-x="427" 
d="M201 407h-88q14 80 71.5 128.5t130.5 48.5q74 0 116.5 -45t29.5 -119q-10 -59 -51.5 -102t-96.5 -59q-39 -11 -50.5 -28t-22.5 -74h-89q4 28 7 42q11 60 44.5 93.5t90.5 50.5q31 9 52.5 30t25.5 47q5 32 -16.5 53t-54.5 21q-34 0 -63 -24.5t-36 -62.5zM114 49
q5 26 26.5 43.5t46.5 17.5q27 0 41.5 -17t9.5 -44q-4 -25 -25.5 -42t-47.5 -17q-25 0 -40 17t-11 42z" />
    <glyph glyph-name="A.sc" horiz-adv-x="570" 
d="M243 228h164l-42 228zM454 0l-30 143h-228l-79 -143h-101l321 579h100l117 -579h-100z" />
    <glyph glyph-name="B.sc" horiz-adv-x="552" 
d="M545 425q-15 -83 -87 -115q43 -14 62.5 -55t11.5 -84q-13 -73 -69 -122t-136 -49h-241l102 579h223q75 0 111 -41.5t23 -112.5zM242 345h124q32 0 54 22t28 55t-11 52t-52 19h-117zM366 262h-139l-31 -175h141q36 0 63 25.5t33 60.5q6 33 -12.5 61t-54.5 28z" />
    <glyph glyph-name="C.sc" horiz-adv-x="596" 
d="M524 157l63 -58q-48 -50 -113 -79.5t-134 -29.5q-123 0 -193.5 87t-47.5 210q23 124 123.5 210.5t223.5 86.5q68 0 121 -28t85 -78l-82 -57q-53 73 -139 73q-84 0 -153 -60t-85 -147q-15 -86 32.5 -146t131.5 -60q93 0 167 76z" />
    <glyph glyph-name="D.sc" horiz-adv-x="625" 
d="M311 0h-225l102 579h225q122 0 177.5 -82t32.5 -209t-106.5 -207.5t-205.5 -80.5zM194 88h131q80 0 133.5 56t69.5 144q16 89 -17.5 146.5t-113.5 57.5h-131z" />
    <glyph glyph-name="E.sc" horiz-adv-x="499" 
d="M188 579h352l-16 -86h-257l-29 -164h225l-15 -87h-225l-28 -155h264l-14 -87h-359z" />
    <glyph glyph-name="F.sc" horiz-adv-x="465" 
d="M188 579h347l-16 -86h-252l-29 -164h199l-15 -87h-199l-42 -242h-95z" />
    <glyph glyph-name="G.sc" horiz-adv-x="651" 
d="M632 501l-78 -62h-1q-46 56 -124 56q-84 0 -152.5 -60.5t-84.5 -147.5q-15 -86 32 -147t130 -61q70 0 124.5 37t68.5 98h-161l14 81h268q-26 -151 -113.5 -228t-216.5 -77q-124 0 -193.5 86.5t-46.5 210.5t122.5 210.5t223.5 86.5q121 0 188 -83z" />
    <glyph glyph-name="H.sc" horiz-adv-x="615" 
d="M631 579l-102 -579h-96l43 245h-252l-43 -245h-95l102 579h95l-44 -248h252l44 248h96z" />
    <glyph glyph-name="I.sc" horiz-adv-x="267" 
d="M188 579h95l-102 -579h-95z" />
    <glyph glyph-name="J.sc" horiz-adv-x="266" 
d="M-107 -195l23 89q24 -8 62 -8q44 0 70.5 28t33.5 71l105 594h94l-105 -594q-15 -84 -68.5 -137.5t-145.5 -53.5q-21 0 -69 11z" />
    <glyph glyph-name="K.sc" horiz-adv-x="516" 
d="M292 290l224 -290h-125l-170 228l-40 -228h-95l102 579h95l-40 -226l212 226h111z" />
    <glyph glyph-name="L.sc" horiz-adv-x="429" 
d="M188 579h95l-88 -492h229l-14 -87h-324z" />
    <glyph glyph-name="M.sc" horiz-adv-x="799" 
d="M428 176l266 403h83l-31 -579h-95l22 402l-224 -338h-79l-105 338l-119 -402h-93l172 579h83z" />
    <glyph glyph-name="N.sc" horiz-adv-x="596" 
d="M510 0h-88l-171 403l-70 -403h-95l102 579h90l169 -398l71 398h94z" />
    <glyph glyph-name="O.sc" horiz-adv-x="683" 
d="M98 287q23 124 122.5 210.5t222.5 86.5q124 0 194.5 -86.5t47.5 -210.5t-123.5 -210.5t-224.5 -86.5q-123 0 -192.5 86.5t-46.5 210.5zM192 287q-16 -85 31.5 -145t130.5 -60t151.5 60t84.5 145q16 86 -31.5 145.5t-131.5 59.5q-83 0 -151 -59.5t-84 -145.5z" />
    <glyph glyph-name="P.sc" horiz-adv-x="532" 
d="M188 579h234q88 0 124 -54t22 -130q-14 -78 -68.5 -131.5t-143.5 -53.5h-138l-36 -210h-96zM405 493h-137l-34 -196h133q43 0 70.5 29t35.5 69q7 39 -10 68.5t-58 29.5z" />
    <glyph glyph-name="Q.sc" horiz-adv-x="685" 
d="M511 39l41 -94l-80 -45l-46 102q-48 -12 -88 -12q-124 0 -193.5 86.5t-46.5 210.5t122.5 210.5t223.5 86.5q125 0 195.5 -86.5t47.5 -210.5q-14 -76 -61 -141.5t-115 -106.5zM430 220l44 -101q45 28 76.5 72t40.5 96q15 87 -31.5 147t-130.5 60t-153 -60.5t-84 -146.5
q-14 -80 28.5 -136t119.5 -67q28 0 50 2q-4 11 -13.5 30.5t-12.5 27.5l-14 31z" />
    <glyph glyph-name="R.sc" horiz-adv-x="547" 
d="M383 215l114 -215h-115l-107 210h-57l-36 -210h-96l102 579h227q88 0 124 -54t22 -130q-12 -69 -57.5 -120t-120.5 -60zM396 493h-128l-34 -196h124q44 0 70.5 28.5t34.5 69.5q8 39 -8.5 68.5t-58.5 29.5z" />
    <glyph glyph-name="S.sc" horiz-adv-x="503" 
d="M81 171h95q-8 -38 18.5 -66t74.5 -28q47 0 78 21.5t41 53.5q11 35 -10.5 58t-61.5 33l-70 19q-136 37 -115 157q12 72 76.5 118.5t143.5 46.5q83 0 128 -47.5t30 -127.5h-94q7 39 -15 63t-65 24q-40 0 -72.5 -21.5t-37.5 -54.5q-10 -53 60 -72l71 -19q79 -21 110 -69.5
t15 -112.5q-20 -68 -83.5 -112.5t-144.5 -44.5q-89 0 -137.5 53.5t-34.5 127.5z" />
    <glyph glyph-name="T.sc" horiz-adv-x="480" 
d="M124 579h434l-15 -87h-169l-86 -492h-96l86 492h-169z" />
    <glyph glyph-name="U.sc" horiz-adv-x="592" 
d="M310 81q50 0 92 33t51 86l66 378h94l-66 -378q-17 -94 -90.5 -152t-163.5 -58q-89 0 -142 58.5t-36 151.5l66 378h96l-66 -378q-9 -53 20 -86t79 -33z" />
    <glyph glyph-name="V.sc" horiz-adv-x="498" 
d="M230 579l47 -417l195 417h98l-277 -579h-87l-74 579h98z" />
    <glyph glyph-name="W.sc" horiz-adv-x="778" 
d="M758 579h102l-299 -579h-78l-35 335l-152 -335h-79l-94 579h101l59 -420l158 342h73l35 -342z" />
    <glyph glyph-name="X.sc" horiz-adv-x="552" 
d="M387 310l148 -310h-114l-105 231l-185 -231h-113l256 311l-133 268h113l90 -191l159 191h112z" />
    <glyph glyph-name="Y.sc" horiz-adv-x="564" 
d="M330 0h-97l46 265l-165 314h112l117 -226l198 226h115l-280 -314z" />
    <glyph glyph-name="Z.sc" horiz-adv-x="509" 
d="M59 78l363 414h-279l16 87h401l-14 -77l-366 -414h292l-14 -88h-412z" />
    <glyph glyph-name="Scaron.sc" horiz-adv-x="503" 
d="M376 709l75 70h79l-121 -136h-89l-72 136h79zM176 171h-95q-14 -74 34.5 -127.5t137.5 -53.5q81 0 144.5 44.5t83.5 112.5q16 64 -15 112.5t-110 69.5l-71 19q-70 19 -60 72q5 33 37.5 54.5t72.5 21.5q43 0 65 -24t15 -63h94q15 80 -30 127.5t-128 47.5
q-79 0 -143.5 -46.5t-76.5 -118.5q-21 -120 115 -157l69 -19q94 -25 73 -91q-10 -32 -41 -53.5t-78 -21.5q-48 0 -74.5 28t-18.5 66z" />
    <glyph glyph-name="OE.sc" horiz-adv-x="952" 
d="M641 579h351l-16 -90h-256l-29 -160h224l-15 -89h-224l-26 -150h264l-16 -90h-359l12 75q-95 -85 -213 -85q-123 0 -192.5 86.5t-46.5 210.5t122.5 210.5t222.5 86.5q119 0 183 -85zM193 287q-15 -84 32 -143t131 -59q83 0 151 62t83 147q9 80 -37 138t-125 58
q-84 0 -152 -59.5t-83 -143.5z" />
    <glyph glyph-name="Ydieresis.sc" horiz-adv-x="564" 
d="M280 714q4 23 23.5 38.5t43.5 15.5q23 0 36.5 -15.5t9.5 -38.5q-4 -24 -22.5 -39t-42.5 -15t-38 15.5t-10 38.5zM423 714q4 23 23.5 38.5t43.5 15.5q23 0 36.5 -15.5t9.5 -38.5q-4 -24 -22.5 -39t-42.5 -15t-38 15.5t-10 38.5zM330 0h-97l46 265l-165 314h112l117 -226
l198 226h115l-280 -314z" />
    <glyph glyph-name="exclamdown.sc" horiz-adv-x="275" 
d="M175 536q4 24 23.5 39.5t43.5 15.5q25 0 38.5 -15.5t9.5 -39.5t-23 -40t-44 -16q-23 0 -37.5 16t-10.5 40zM85 0l89 429h78l-62 -429h-105z" />
    <glyph glyph-name="questiondown.sc" horiz-adv-x="425" 
d="M325 167h88q-14 -80 -71.5 -128.5t-130.5 -48.5q-74 0 -116.5 45t-29.5 119q10 59 51.5 102t96.5 59q39 11 50.5 28t23.5 74h89q-2 -7 -4.5 -21t-3.5 -21q-12 -60 -44.5 -93.5t-90.5 -50.5q-31 -9 -52.5 -30t-25.5 -47q-5 -32 17 -53t56 -21t62 24.5t35 62.5zM412 525
q-5 -26 -26.5 -43.5t-46.5 -17.5q-27 0 -41.5 17t-9.5 44q4 25 25.5 42t47.5 17q25 0 40 -17t11 -42z" />
    <glyph glyph-name="Agrave.sc" horiz-adv-x="570" 
d="M354 644l-86 136h105l63 -136h-82zM243 228h164l-42 228zM454 0l-30 143h-228l-79 -143h-101l321 579h100l117 -579h-100z" />
    <glyph glyph-name="Aacute.sc" horiz-adv-x="570" 
d="M572 775l-133 -136h-82l111 136h104zM407 228h-164l122 228zM424 143l30 -143h100l-117 579h-100l-321 -579h101l79 143h228z" />
    <glyph glyph-name="Acircumflex.sc" horiz-adv-x="570" 
d="M455 644l-48 72l-76 -72h-78l121 137h89l72 -137h-80zM243 228h164l-42 228zM454 0l-30 143h-228l-79 -143h-101l321 579h100l117 -579h-100z" />
    <glyph glyph-name="Atilde.sc" horiz-adv-x="570" 
d="M365 692q-17 0 -25 -36h-60q12 53 38.5 78.5t54.5 26.5q17 0 38.5 -17t33.5 -17q7 0 15 8.5t11 25.5h59q-12 -55 -39.5 -79.5t-57.5 -24.5q-18 0 -39 17.5t-29 17.5zM243 228h164l-42 228zM454 0l-30 143h-228l-79 -143h-101l321 579h100l117 -579h-100z" />
    <glyph glyph-name="Adieresis.sc" horiz-adv-x="570" 
d="M276 714q4 23 23.5 38.5t43.5 15.5q23 0 36.5 -15.5t9.5 -38.5q-4 -24 -23 -39t-43 -15t-37.5 15t-9.5 39zM419 714q4 23 23 38.5t43 15.5t37.5 -15.5t9.5 -38.5q-4 -24 -23.5 -39t-43.5 -15t-37 15t-9 39zM407 228h-164l122 228zM424 143l30 -143h100l-117 579h-100
l-321 -579h101l79 143h228z" />
    <glyph glyph-name="Aring.sc" horiz-adv-x="570" 
d="M314 728q7 40 39 67t71 27q41 0 63 -27t15 -67q-7 -39 -39.5 -66t-72.5 -27q-39 0 -61 27t-15 66zM367 728q-3 -16 7 -28t26 -12q18 0 32.5 11.5t17.5 28.5t-7 29.5t-28 12.5q-16 0 -30.5 -12.5t-17.5 -29.5zM407 228h-164l122 228zM424 143l30 -143h100l-117 579h-100
l-321 -579h101l79 143h228z" />
    <glyph glyph-name="AE.sc" horiz-adv-x="809" 
d="M234 141l-114 -141h-113l469 579h373l-17 -90h-256l-28 -160h223l-15 -89h-223l-27 -150h264l-15 -90h-359l24 141h-186zM305 232h131l38 211z" />
    <glyph glyph-name="Ccedilla.sc" horiz-adv-x="597" 
d="M264 -96q0 -9 10.5 -15t21.5 -2q27 11 23 39l-13 66q-110 13 -169 96.5t-38 198.5q23 124 123.5 211t223.5 87q68 0 121 -28t85 -78l-82 -58q-50 73 -139 73q-84 0 -153 -60t-85 -147q-15 -86 32.5 -146t131.5 -60q90 0 168 76l63 -57q-97 -99 -225 -109q1 -4 7 -19.5
t6.5 -19t3.5 -19t-1 -20.5q-6 -35 -37 -61t-68 -26q-36 0 -56.5 29t-12.5 74l62 -4q-3 -14 -3 -21z" />
    <glyph glyph-name="Egrave.sc" horiz-adv-x="499" 
d="M188 579h352l-16 -86h-257l-29 -164h225l-15 -87h-225l-28 -155h264l-14 -87h-359zM351 644l-86 136h105l63 -136h-82z" />
    <glyph glyph-name="Eacute.sc" horiz-adv-x="499" 
d="M515 780l-134 -136h-82l111 136h105zM540 579h-352l-102 -579h359l14 87h-264l28 155h225l15 87h-225l29 164h257z" />
    <glyph glyph-name="Ecircumflex.sc" horiz-adv-x="499" 
d="M188 579h352l-16 -86h-257l-29 -164h225l-15 -87h-225l-28 -155h264l-14 -87h-359zM424 644l-48 72l-76 -72h-79l121 137h90l71 -137h-79z" />
    <glyph glyph-name="Edieresis.sc" horiz-adv-x="499" 
d="M249 714q4 23 24 38.5t44 15.5q23 0 36.5 -15.5t9.5 -38.5t-23.5 -38.5t-42.5 -15.5q-24 0 -38 15t-10 39zM392 714q4 23 23.5 38.5t43.5 15.5q23 0 36.5 -15.5t9.5 -38.5q-4 -24 -23 -39t-43 -15t-37.5 15t-9.5 39zM540 579h-352l-102 -579h359l14 87h-264l28 155h225
l15 87h-225l29 164h257z" />
    <glyph glyph-name="Igrave.sc" horiz-adv-x="267" 
d="M188 579h95l-102 -579h-95zM124 781h105l65 -134h-83z" />
    <glyph glyph-name="Iacute.sc" horiz-adv-x="267" 
d="M313 781h105l-135 -134h-83zM283 579h-95l-102 -579h95z" />
    <glyph glyph-name="Icircumflex.sc" horiz-adv-x="267" 
d="M188 579h95l-102 -579h-95zM308 644l-48 72l-76 -72h-79l121 137h90l71 -137h-79z" />
    <glyph glyph-name="Idieresis.sc" horiz-adv-x="267" 
d="M283 579h-95l-102 -579h95zM132 714q4 23 24 38.5t44 15.5q23 0 36.5 -15.5t9.5 -38.5t-23.5 -38.5t-42.5 -15.5q-24 0 -38 15t-10 39zM275 714q4 23 23.5 38.5t43.5 15.5q23 0 36.5 -15.5t9.5 -38.5q-4 -24 -23 -39t-43 -15t-37.5 15t-9.5 39z" />
    <glyph glyph-name="Eth.sc" horiz-adv-x="626" 
d="M315 0h-223l45 255h-78l12 65h78l45 259h223q121 0 176 -82t32 -209t-106 -207.5t-204 -80.5zM243 320h129l-12 -65h-129l-29 -164h129q79 0 131.5 55t68.5 142t-17.5 143.5t-112.5 56.5h-129z" />
    <glyph glyph-name="Ntilde.sc" horiz-adv-x="596" 
d="M383 692q-17 0 -25 -36h-60q12 52 38 77.5t55 27.5q17 0 38.5 -17t33.5 -17q7 0 15 8.5t11 25.5h59q-12 -55 -39.5 -79.5t-57.5 -24.5q-18 0 -39 17.5t-29 17.5zM510 0h-88l-171 403l-70 -403h-95l102 579h90l169 -398l71 398h94z" />
    <glyph glyph-name="Ograve.sc" horiz-adv-x="683" 
d="M413 644l-85 136h104l63 -136h-82zM98 287q23 124 122.5 210.5t222.5 86.5q124 0 194.5 -86.5t47.5 -210.5t-123.5 -210.5t-224.5 -86.5q-123 0 -192.5 86.5t-46.5 210.5zM192 287q-16 -85 31.5 -145t130.5 -60t151.5 60t84.5 145q16 86 -31.5 145.5t-131.5 59.5
q-83 0 -151 -59.5t-84 -145.5z" />
    <glyph glyph-name="Oacute.sc" horiz-adv-x="683" 
d="M627 780l-134 -136h-82l112 136h104zM98 287q-23 -124 46.5 -210.5t192.5 -86.5q124 0 224.5 86.5t123.5 210.5t-47.5 210.5t-194.5 86.5q-123 0 -222.5 -86.5t-122.5 -210.5zM192 287q16 86 84 145.5t151 59.5q84 0 131.5 -59.5t31.5 -145.5q-16 -85 -84.5 -145
t-151.5 -60t-130.5 60t-31.5 145z" />
    <glyph glyph-name="Ocircumflex.sc" horiz-adv-x="683" 
d="M516 644l-49 72l-75 -72h-79l122 137h89l70 -137h-78zM98 287q23 124 122.5 210.5t222.5 86.5q124 0 194.5 -86.5t47.5 -210.5t-123.5 -210.5t-224.5 -86.5q-123 0 -192.5 86.5t-46.5 210.5zM192 287q-16 -85 31.5 -145t130.5 -60t151.5 60t84.5 145q16 86 -31.5 145.5
t-131.5 59.5q-83 0 -151 -59.5t-84 -145.5z" />
    <glyph glyph-name="Otilde.sc" horiz-adv-x="683" 
d="M98 287q23 124 122.5 210.5t222.5 86.5q124 0 194.5 -86.5t47.5 -210.5t-123.5 -210.5t-224.5 -86.5q-123 0 -192.5 86.5t-46.5 210.5zM192 287q-16 -85 31.5 -145t130.5 -60t151.5 60t84.5 145q16 86 -31.5 145.5t-131.5 59.5q-83 0 -151 -59.5t-84 -145.5zM424 692
q-17 0 -25 -36h-60q12 52 38 77.5t55 27.5q17 0 38.5 -17t33.5 -17q7 0 15 8.5t11 25.5h59q-12 -55 -39.5 -79.5t-57.5 -24.5q-18 0 -39 17.5t-29 17.5z" />
    <glyph glyph-name="Odieresis.sc" horiz-adv-x="683" 
d="M339 714q4 23 23.5 38.5t43.5 15.5q23 0 36 -15.5t9 -38.5q-4 -24 -22.5 -39t-41.5 -15q-24 0 -38 15t-10 39zM482 714q4 23 23 38.5t43 15.5t37 -15.5t9 -38.5q-4 -24 -22.5 -39t-42.5 -15t-37.5 15t-9.5 39zM98 287q-23 -124 46.5 -210.5t192.5 -86.5q124 0 224.5 86.5
t123.5 210.5t-47.5 210.5t-194.5 86.5q-123 0 -222.5 -86.5t-122.5 -210.5zM192 287q16 86 84 145.5t151 59.5q84 0 131.5 -59.5t31.5 -145.5q-16 -85 -84.5 -145t-151.5 -60t-130.5 60t-31.5 145z" />
    <glyph glyph-name="Oslash.sc" horiz-adv-x="683" 
d="M169 52l-80 -68l-36 43l80 69q-53 82 -34 191q23 124 122 210.5t222 86.5q105 0 174 -66l79 67l36 -42l-79 -67q51 -88 33 -189q-22 -123 -123 -210t-225 -87q-104 0 -169 62zM193 287q-14 -71 17 -125l331 289q-46 41 -114 41q-83 0 -150.5 -59.5t-83.5 -145.5zM354 82
q83 0 151.5 60t84.5 145q12 67 -16 121l-331 -288q47 -38 111 -38z" />
    <glyph glyph-name="Ugrave.sc" horiz-adv-x="592" 
d="M389 644l-85 136h105l62 -136h-82zM310 81q50 0 92 33t51 86l67 379h94l-67 -379q-17 -94 -90.5 -152t-163.5 -58q-89 0 -142 58.5t-36 151.5l67 379h96l-67 -379q-9 -53 20 -86t79 -33z" />
    <glyph glyph-name="Uacute.sc" horiz-adv-x="592" 
d="M559 780l-135 -136h-82l113 136h104zM310 81q50 0 92 33t51 86l67 379h94l-67 -379q-17 -94 -90.5 -152t-163.5 -58q-89 0 -142 58.5t-36 151.5l67 379h96l-67 -379q-9 -53 20 -86t79 -33z" />
    <glyph glyph-name="Ucircumflex.sc" horiz-adv-x="592" 
d="M470 644l-47 72l-76 -72h-79l122 137h89l70 -137h-79zM310 81q50 0 92 33t51 86l67 379h94l-67 -379q-17 -94 -90.5 -152t-163.5 -58q-89 0 -142 58.5t-36 151.5l67 379h96l-67 -379q-9 -53 20 -86t79 -33z" />
    <glyph glyph-name="Udieresis.sc" horiz-adv-x="592" 
d="M294 714q4 23 23.5 38.5t43.5 15.5q23 0 36 -15.5t9 -38.5q-4 -24 -22.5 -39t-41.5 -15q-24 0 -38 15.5t-10 38.5zM436 714q4 23 23.5 38.5t43.5 15.5t37.5 -15.5t9.5 -38.5q-4 -24 -23 -39t-43 -15t-38 15.5t-10 38.5zM310 81q50 0 92 33t51 86l67 379h94l-67 -379
q-17 -94 -90.5 -152t-163.5 -58q-89 0 -142 58.5t-36 151.5l67 379h96l-67 -379q-9 -53 20 -86t79 -33z" />
    <glyph glyph-name="Yacute.sc" horiz-adv-x="564" 
d="M551 780l-134 -136h-82l111 136h105zM330 0h-97l46 265l-165 314h112l117 -226l198 226h115l-280 -314z" />
    <glyph glyph-name="Thorn.sc" horiz-adv-x="501" 
d="M304 113h-104l-20 -113h-94l102 579h94l-18 -100h104q78 0 121.5 -50t28.5 -132q-14 -82 -75 -133t-139 -51zM215 200h103q37 0 67.5 27t37.5 69q8 44 -14 69.5t-62 27.5h-98z" />
    <glyph glyph-name="Amacron.sc" horiz-adv-x="570" 
d="M301 743h221l-13 -74h-221zM243 228h164l-42 228zM454 0l-30 143h-228l-79 -143h-101l321 579h100l117 -579h-100z" />
    <glyph glyph-name="Abreve.sc" horiz-adv-x="570" 
d="M303 760h69q-4 -21 5 -34t29 -13t33.5 14t16.5 33h71q-10 -51 -46 -81.5t-87 -30.5q-55 0 -77 32.5t-14 79.5zM407 228h-164l122 228zM424 143l30 -143h100l-117 579h-100l-321 -579h101l79 143h228z" />
    <glyph glyph-name="Cacute.sc" horiz-adv-x="596" 
d="M611 780l-135 -136h-82l113 136h104zM587 99l-63 58q-74 -76 -167 -76q-84 0 -131.5 60t-32.5 146q16 87 85 147t153 60q86 0 139 -73l82 57q-32 50 -85 78t-121 28q-123 0 -223.5 -86.5t-123.5 -210.5q-23 -123 47.5 -210t193.5 -87q69 0 134 29.5t113 79.5z" />
    <glyph glyph-name="Ccircumflex.sc" horiz-adv-x="596" 
d="M516 644l-49 72l-76 -72h-78l122 137h89l71 -137h-79zM524 157l63 -58q-48 -50 -113 -79.5t-134 -29.5q-123 0 -193.5 87t-47.5 210q23 124 123.5 210.5t223.5 86.5q68 0 121 -28t85 -78l-82 -57q-53 73 -139 73q-84 0 -153 -60t-85 -147q-15 -86 32.5 -146t131.5 -60
q93 0 167 76z" />
    <glyph glyph-name="Cdotaccent.sc" horiz-adv-x="596" 
d="M400 721q4 24 24 39.5t44 15.5t38 -15.5t10 -39.5t-23.5 -39.5t-43.5 -15.5t-38.5 15.5t-10.5 39.5zM587 99l-63 58q-74 -76 -167 -76q-84 0 -131.5 60t-32.5 146q16 87 85 147t153 60q86 0 139 -73l82 57q-32 50 -85 78t-121 28q-123 0 -223.5 -86.5t-123.5 -210.5
q-23 -123 47.5 -210t193.5 -87q69 0 134 29.5t113 79.5z" />
    <glyph glyph-name="Ccaron.sc" horiz-adv-x="596" 
d="M587 99l-63 58q-74 -76 -167 -76q-84 0 -131.5 60t-32.5 146q16 87 85 147t153 60q86 0 139 -73l82 57q-32 50 -85 78t-121 28q-123 0 -223.5 -86.5t-123.5 -210.5q-23 -123 47.5 -210t193.5 -87q69 0 134 29.5t113 79.5zM452 709l75 70h79l-121 -136h-89l-72 136h79z
" />
    <glyph glyph-name="Dcaron.sc" horiz-adv-x="625" 
d="M443 709l74 70h79l-120 -136h-89l-73 136h79zM86 0h225q122 0 205.5 80.5t106.5 207.5t-32.5 209t-177.5 82h-225zM325 88h-131l72 404h131q80 0 113.5 -57.5t17.5 -146.5q-16 -88 -69.5 -144t-133.5 -56z" />
    <glyph glyph-name="Aogonek.sc" horiz-adv-x="570" 
d="M505 0l-39 -73q-14 -28 7 -39q15 -6 29.5 7.5t15.5 30.5l62 4q-9 -47 -39 -75t-66 -28q-38 0 -58.5 26.5t-15.5 60.5q2 11 8 24.5t10.5 20.5t17 24.5t14.5 20.5l-27 139h-228l-79 -143h-101l321 579h100l117 -579h-49zM365 456l-122 -228h165z" />
    <glyph glyph-name="Emacron.sc" horiz-adv-x="499" 
d="M188 579h352l-16 -86h-257l-29 -164h225l-15 -87h-225l-28 -155h264l-14 -87h-359zM281 743h221l-13 -74h-221z" />
    <glyph glyph-name="Ebreve.sc" horiz-adv-x="499" 
d="M270 760h70q-4 -21 5 -34t30 -13q19 0 32.5 14t16.5 33h71q-10 -52 -45.5 -82t-86.5 -30q-55 0 -78 32.5t-15 79.5zM540 579h-352l-102 -579h359l14 87h-264l28 155h225l15 87h-225l29 164h257z" />
    <glyph glyph-name="Edotaccent.sc" horiz-adv-x="499" 
d="M334 721q4 24 23.5 39.5t43.5 15.5q25 0 39.5 -15.5t10.5 -39.5t-24 -39.5t-45 -15.5q-24 0 -38 15.5t-10 39.5zM540 579h-352l-102 -579h359l14 87h-264l28 155h225l15 87h-225l29 164h257z" />
    <glyph glyph-name="Ecaron.sc" horiz-adv-x="499" 
d="M540 579h-352l-102 -579h359l14 87h-264l28 155h225l15 87h-225l29 164h257zM385 709l74 70h79l-120 -136h-89l-73 136h79z" />
    <glyph glyph-name="Gcircumflex.sc" horiz-adv-x="651" 
d="M632 501l-78 -62h-1q-46 56 -124 56q-84 0 -152.5 -60.5t-84.5 -147.5q-15 -86 32 -147t130 -61q70 0 124.5 37t68.5 98h-161l14 81h268q-26 -151 -113.5 -228t-216.5 -77q-124 0 -193.5 86.5t-46.5 210.5t122.5 210.5t223.5 86.5q121 0 188 -83zM513 644l-48 72l-76 -72
h-78l122 137h89l71 -137h-80z" />
    <glyph glyph-name="Gbreve.sc" horiz-adv-x="651" 
d="M554 439l78 62q-67 83 -188 83q-124 0 -223.5 -86.5t-122.5 -210.5t46.5 -210.5t193.5 -86.5q129 0 216.5 77t113.5 228h-268l-14 -81h161q-14 -61 -68.5 -98t-124.5 -37q-83 0 -130 61t-32 147q16 87 84.5 147.5t152.5 60.5q78 0 124 -56h1zM361 760h69q-4 -21 5 -34
t29 -13t33.5 14t16.5 33h71q-10 -51 -46 -81.5t-87 -30.5q-55 0 -77 32.5t-14 79.5z" />
    <glyph glyph-name="Eogonek.sc" horiz-adv-x="499" 
d="M388 0h-302l102 579h352l-16 -86h-257l-29 -164h225l-15 -87h-225l-28 -155h264l-15 -86l-39 -68q-7 -10 -5 -22t12 -16q15 -6 30.5 8.5t13.5 29.5l63 3q-7 -44 -38 -73t-68 -29q-38 0 -58 26.5t-14 60.5q5 26 13 37z" />
    <glyph glyph-name="Dcroat.sc" horiz-adv-x="626" 
d="M315 0h-223l44 253h-78l13 70h78l45 256h223q121 0 176 -82t32 -209t-106 -207.5t-204 -80.5zM243 323h129l-13 -70h-129l-28 -162h129q79 0 131.5 55t68.5 142t-17.5 143.5t-112.5 56.5h-129z" />
    <glyph glyph-name="Gdotaccent.sc" horiz-adv-x="651" 
d="M554 439l78 62q-67 83 -188 83q-124 0 -223.5 -86.5t-122.5 -210.5t46.5 -210.5t193.5 -86.5q129 0 216.5 77t113.5 228h-268l-14 -81h161q-14 -61 -68.5 -98t-124.5 -37q-83 0 -130 61t-32 147q16 87 84.5 147.5t152.5 60.5q78 0 124 -56h1zM400 721q4 24 24.5 39.5
t44.5 15.5q25 0 38.5 -15.5t9.5 -39.5q-5 -24 -23.5 -39.5t-43.5 -15.5t-39.5 15.5t-10.5 39.5z" />
    <glyph glyph-name="Hcircumflex.sc" horiz-adv-x="615" 
d="M631 579l-102 -579h-96l43 245h-252l-43 -245h-95l102 579h95l-44 -248h252l44 248h96zM482 644l-48 72l-76 -72h-78l121 137h89l71 -137h-79z" />
    <glyph glyph-name="Hbar.sc" horiz-adv-x="622" 
d="M617 481h59l-10 -56h-59l-75 -425h-94l42 244h-253l-42 -244h-95l75 425h-57l10 56h57l17 98h95l-17 -98h253l17 98h94zM243 332h253l17 93h-253z" />
    <glyph glyph-name="Itilde.sc" horiz-adv-x="267" 
d="M188 579h95l-102 -579h-95zM218 692q-17 0 -25 -36h-60q12 52 38 77.5t55 27.5q17 0 38.5 -17t33.5 -17q7 0 15 8.5t11 25.5h59q-12 -55 -39.5 -79.5t-57.5 -24.5q-18 0 -39 17.5t-29 17.5z" />
    <glyph glyph-name="Imacron.sc" horiz-adv-x="267" 
d="M188 579h95l-102 -579h-95zM154 743h221l-13 -74h-221z" />
    <glyph glyph-name="Iogonek.sc" horiz-adv-x="267" 
d="M86 5l102 574h95l-102 -579h-43l-38 -73q-14 -28 6 -39q16 -6 29.5 7.5t15.5 30.5l62 4q-9 -46 -39 -74.5t-66 -28.5q-37 0 -59 26.5t-16 60.5q3 18 14 37z" />
    <glyph glyph-name="IJ.sc" horiz-adv-x="533" 
d="M188 579h95l-102 -579h-95zM158 -195l24 89q23 -8 61 -8q46 0 72.5 27.5t33.5 71.5l106 594h94l-106 -594q-15 -85 -68 -138t-147 -53q-22 0 -70 11z" />
    <glyph glyph-name="Jcircumflex.sc" horiz-adv-x="263" 
d="M301 644l-49 72l-75 -72h-79l122 137h90l69 -137h-78zM-107 -194l24 86q20 -8 61 -8q44 0 70 28t34 73l104 593h91l-104 -593q-15 -83 -67.5 -136t-144.5 -53q-26 0 -68 10z" />
    <glyph glyph-name="Lacute.sc" horiz-adv-x="429" 
d="M416 773l-134 -137h-82l111 137h105zM283 579h-95l-102 -579h324l14 87h-229z" />
    <glyph glyph-name="Lcaron.sc" horiz-adv-x="431" 
d="M365 404l-56 16q52 60 64 117q5 18 6 39h87q-22 -117 -101 -172zM188 579h95l-88 -492h229l-14 -87h-324z" />
    <glyph glyph-name="Ldot.sc" horiz-adv-x="429" 
d="M188 579h95l-88 -492h229l-14 -87h-324zM284 230q4 22 22.5 37t40.5 15q23 0 36 -15t9 -37t-22.5 -37t-41.5 -15q-22 0 -35 15t-9 37z" />
    <glyph glyph-name="Nacute.sc" horiz-adv-x="596" 
d="M563 780l-134 -136h-82l111 136h105zM422 0h88l102 579h-94l-71 -398l-169 398h-90l-102 -579h95l70 403z" />
    <glyph glyph-name="Ncaron.sc" horiz-adv-x="596" 
d="M421 709l74 70h78l-119 -136h-90l-72 136h79zM422 0h88l102 579h-94l-71 -398l-169 398h-90l-102 -579h95l70 403z" />
    <glyph glyph-name="Omacron.sc" horiz-adv-x="683" 
d="M361 743h221l-13 -74h-221zM98 287q23 124 122.5 210.5t222.5 86.5q124 0 194.5 -86.5t47.5 -210.5t-123.5 -210.5t-224.5 -86.5q-123 0 -192.5 86.5t-46.5 210.5zM192 287q-16 -85 31.5 -145t130.5 -60t151.5 60t84.5 145q16 86 -31.5 145.5t-131.5 59.5
q-83 0 -151 -59.5t-84 -145.5z" />
    <glyph glyph-name="Obreve.sc" horiz-adv-x="683" 
d="M362 760h69q-4 -21 5.5 -34t29.5 -13t33.5 14t16.5 33h71q-10 -52 -46 -82t-87 -30q-55 0 -77.5 32.5t-14.5 79.5zM98 287q-23 -124 46.5 -210.5t192.5 -86.5q124 0 224.5 86.5t123.5 210.5t-47.5 210.5t-194.5 86.5q-123 0 -222.5 -86.5t-122.5 -210.5zM192 287
q16 86 84 145.5t151 59.5q84 0 131.5 -59.5t31.5 -145.5q-16 -85 -84.5 -145t-151.5 -60t-130.5 60t-31.5 145z" />
    <glyph glyph-name="Ohungarumlaut.sc" horiz-adv-x="683" 
d="M540 779l-110 -136h-80l101 136h89zM663 779l-120 -136h-80l111 136h89zM98 287q-23 -124 46.5 -210.5t192.5 -86.5q124 0 224.5 86.5t123.5 210.5t-47.5 210.5t-194.5 86.5q-123 0 -222.5 -86.5t-122.5 -210.5zM192 287q16 86 84 145.5t151 59.5q84 0 131.5 -59.5
t31.5 -145.5q-16 -85 -84.5 -145t-151.5 -60t-130.5 60t-31.5 145z" />
    <glyph glyph-name="Racute.sc" horiz-adv-x="547" 
d="M512 780l-133 -136h-82l112 136h103zM497 0l-114 215q75 9 120.5 60t57.5 120q14 76 -22 130t-124 54h-227l-102 -579h96l36 210h57l107 -210h115zM268 493h128q42 0 58.5 -29.5t8.5 -68.5q-8 -41 -34.5 -69.5t-70.5 -28.5h-124z" />
    <glyph glyph-name="Rcaron.sc" horiz-adv-x="547" 
d="M397 709l74 70h79l-120 -136h-90l-73 136h80zM497 0l-114 215q75 9 120.5 60t57.5 120q14 76 -22 130t-124 54h-227l-102 -579h96l36 210h57l107 -210h115zM268 493h128q42 0 58.5 -29.5t8.5 -68.5q-8 -41 -34.5 -69.5t-70.5 -28.5h-124z" />
    <glyph glyph-name="Sacute.sc" horiz-adv-x="503" 
d="M515 780l-135 -136h-82l112 136h105zM176 171h-95q-14 -74 34.5 -127.5t137.5 -53.5q81 0 144.5 44.5t83.5 112.5q16 64 -15 112.5t-110 69.5l-71 19q-70 19 -60 72q5 33 37.5 54.5t72.5 21.5q43 0 65 -24t15 -63h94q15 80 -30 127.5t-128 47.5q-79 0 -143.5 -46.5
t-76.5 -118.5q-21 -120 115 -157l69 -19q94 -25 73 -91q-10 -32 -41 -53.5t-78 -21.5q-48 0 -74.5 28t-18.5 66z" />
    <glyph glyph-name="Scircumflex.sc" horiz-adv-x="503" 
d="M422 644l-48 72l-76 -72h-79l122 137h90l69 -137h-78zM81 171h95q-8 -38 18.5 -66t74.5 -28q47 0 78 21.5t41 53.5q21 66 -73 91l-69 19q-136 37 -115 157q12 72 76.5 118.5t143.5 46.5q83 0 128 -47.5t30 -127.5h-94q7 39 -15 63t-65 24q-40 0 -72.5 -21.5t-37.5 -54.5
q-10 -53 60 -72l71 -19q79 -21 110 -69.5t15 -112.5q-20 -68 -83.5 -112.5t-144.5 -44.5q-89 0 -137.5 53.5t-34.5 127.5z" />
    <glyph glyph-name="Scedilla.sc" horiz-adv-x="502" 
d="M304 -4q20 -60 16 -83q-6 -34 -36 -60.5t-68 -26.5q-36 0 -56.5 29t-12.5 74l62 -4q-7 -16 2.5 -30t26.5 -8q27 12 22 39l-15 64q-85 2 -131 55t-33 126h95q-7 -37 19 -65.5t74 -28.5q47 0 77 21t42 54q11 35 -10.5 58t-61.5 33l-70 19q-136 37 -115 157
q12 72 76.5 118.5t143.5 46.5q82 0 126.5 -47.5t30.5 -127.5h-94q7 39 -14.5 62.5t-64.5 23.5q-40 0 -72.5 -21t-38.5 -55q-10 -52 61 -71l70 -19q71 -20 102.5 -60t26.5 -93q-7 -66 -58 -116.5t-122 -63.5z" />
    <glyph glyph-name="Utilde.sc" horiz-adv-x="592" 
d="M310 81q50 0 92 33t51 86l66 378h95l-67 -378q-17 -94 -90.5 -152t-163.5 -58q-89 0 -142 58.5t-36 151.5l67 378h95l-66 -378q-9 -53 20 -86t79 -33zM379 692q-17 0 -25 -36h-60q12 52 38 77.5t55 27.5q17 0 39 -17t34 -17q18 0 25 34h59q-12 -55 -39.5 -79.5
t-57.5 -24.5q-18 0 -39 17.5t-29 17.5z" />
    <glyph glyph-name="Umacron.sc" horiz-adv-x="592" 
d="M317 743h221l-12 -74h-221zM310 81q50 0 92 33t51 86l66 378h95l-67 -378q-17 -94 -90.5 -152t-163.5 -58q-89 0 -142 58.5t-36 151.5l67 378h95l-66 -378q-9 -53 20 -86t79 -33z" />
    <glyph glyph-name="Ubreve.sc" horiz-adv-x="592" 
d="M318 760h70q-4 -21 5 -34t29 -13q19 0 32.5 14t16.5 33h72q-10 -51 -46 -81.5t-87 -30.5q-56 0 -78 32.5t-14 79.5zM310 81q50 0 92 33t51 86l66 378h95l-67 -378q-17 -94 -90.5 -152t-163.5 -58q-89 0 -142 58.5t-36 151.5l67 378h95l-66 -378q-9 -53 20 -86t79 -33z
" />
    <glyph glyph-name="Uring.sc" horiz-adv-x="592" 
d="M331 728q7 40 38.5 67t70.5 27q41 0 63.5 -27t15.5 -67q-7 -39 -39.5 -66t-73.5 -27q-39 0 -60.5 27t-14.5 66zM384 728q-3 -16 6.5 -28t25.5 -12q17 0 32.5 12t18.5 28q3 17 -8 29.5t-28 12.5q-16 0 -30 -12.5t-17 -29.5zM310 81q50 0 92 33t51 86l66 378h95l-67 -378
q-17 -94 -90.5 -152t-163.5 -58q-89 0 -142 58.5t-36 151.5l67 378h95l-66 -378q-9 -53 20 -86t79 -33z" />
    <glyph glyph-name="Uhungarumlaut.sc" horiz-adv-x="592" 
d="M310 81q50 0 92 33t51 86l66 378h95l-67 -378q-17 -94 -90.5 -152t-163.5 -58q-89 0 -142 58.5t-36 151.5l67 378h95l-66 -378q-9 -53 20 -86t79 -33z" />
    <glyph glyph-name="Uogonek.sc" horiz-adv-x="592" 
d="M226 -78q5 18 13 33l28 37q-80 8 -123.5 65t-28.5 142l67 378h96l-67 -378q-9 -52 20.5 -85.5t78.5 -33.5q50 0 92 33.5t51 85.5l67 378h94l-67 -378q-15 -85 -78.5 -142t-144.5 -66q-5 -10 -17.5 -32t-18.5 -34q-14 -28 5 -39q17 -6 31 7.5t15 30.5l63 4
q-9 -47 -39.5 -75t-65.5 -28q-38 0 -59.5 26.5t-15.5 60.5q0 4 4 10z" />
    <glyph glyph-name="Wcircumflex.sc" horiz-adv-x="778" 
d="M564 644l-48 72l-76 -72h-79l121 137h89l72 -137h-79zM758 579h102l-299 -579h-78l-35 335l-152 -335h-79l-94 579h101l59 -420l158 342h73l35 -342z" />
    <glyph glyph-name="Ycircumflex.sc" horiz-adv-x="564" 
d="M457 644l-49 72l-75 -72h-78l120 137h90l71 -137h-79zM330 0h-97l46 265l-165 314h112l117 -226l198 226h115l-280 -314z" />
    <glyph glyph-name="Tcaron.sc" horiz-adv-x="481" 
d="M365 709l75 70h79l-121 -136h-89l-72 136h79zM282 0l88 501h178l15 83h-439l-15 -83h177l-88 -501h84z" />
    <glyph glyph-name="Tbar.sc" horiz-adv-x="470" 
d="M338 350h112l-10 -57h-112l-51 -293h-84l51 293h-110l10 57h110l27 151h-177l15 83h439l-15 -83h-178z" />
    <glyph glyph-name="Zacute.sc" horiz-adv-x="509" 
d="M59 78l363 414h-279l16 87h401l-14 -77l-366 -414h292l-14 -88h-412zM521 780l-135 -136h-82l112 136h105z" />
    <glyph glyph-name="Zdotaccent.sc" horiz-adv-x="509" 
d="M59 78l363 414h-279l16 87h401l-14 -77l-366 -414h292l-14 -88h-412zM323 721q4 24 24 39.5t44 15.5q25 0 39 -15.5t10 -39.5t-23.5 -39.5t-44.5 -15.5q-24 0 -38.5 15.5t-10.5 39.5z" />
    <glyph glyph-name="Wgrave.sc" horiz-adv-x="778" 
d="M439 644l-87 136h105l64 -136h-82zM758 579h102l-299 -579h-78l-35 335l-152 -335h-79l-94 579h101l59 -420l158 342h73l35 -342z" />
    <glyph glyph-name="Wacute.sc" horiz-adv-x="778" 
d="M700 780l-135 -136h-82l112 136h105zM860 579h-102l-209 -420l-35 342h-73l-158 -342l-59 420h-101l94 -579h79l152 335l35 -335h78z" />
    <glyph glyph-name="Wdieresis.sc" horiz-adv-x="778" 
d="M387 714q4 23 23.5 38.5t43.5 15.5q23 0 36.5 -15.5t9.5 -38.5q-4 -24 -22.5 -39t-42.5 -15t-38 15.5t-10 38.5zM529 714q4 23 24 38.5t44 15.5q23 0 36.5 -15.5t9.5 -38.5q-4 -24 -22.5 -39t-42.5 -15q-25 0 -39 15t-10 39zM860 579h-102l-209 -420l-35 342h-73
l-158 -342l-59 420h-101l94 -579h79l152 335l35 -335h78z" />
    <glyph glyph-name="Aringacute.sc" horiz-adv-x="570" 
d="M583 918l-110 -112q40 -28 30 -80q-7 -39 -39.5 -66t-73.5 -27q-39 0 -60.5 27t-14.5 66q5 32 27.5 56.5t52.5 33.5q4 6 83 102h105zM368 726q-3 -16 6.5 -28t25.5 -12q19 0 33.5 11.5t17.5 28.5t-7 29.5t-29 12.5q-16 0 -30 -12.5t-17 -29.5zM407 228h-164l122 228z
M424 143l30 -143h100l-117 579h-100l-321 -579h101l79 143h228z" />
    <glyph glyph-name="AEacute.sc" horiz-adv-x="809" 
d="M721 780l-134 -136h-82l112 136h104zM120 0l114 141h186l-24 -141h359l15 90h-264l27 150h223l15 89h-223l28 160h256l17 90h-373l-469 -579h113zM436 232h-131l169 211z" />
    <glyph glyph-name="Oslashacute.sc" horiz-adv-x="683" 
d="M624 780l-136 -136h-81l112 136h105zM89 -16l80 68q65 -62 169 -62q124 0 225 87t123 210q18 101 -33 189l79 67l-36 42l-79 -67q-69 66 -174 66q-123 0 -222 -86.5t-122 -210.5q-19 -109 34 -191l-80 -69zM193 287q16 86 83.5 145.5t150.5 59.5q68 0 114 -41l-331 -289
q-31 54 -17 125zM354 82q-64 0 -111 38l331 288q28 -54 16 -121q-16 -85 -84.5 -145t-151.5 -60z" />
    <glyph glyph-name="Ibreve.sc" horiz-adv-x="267" 
d="M283 579h-95l-102 -579h95zM155 760h70q-4 -21 5 -34t29 -13q19 0 32.5 14t16.5 33h72q-10 -51 -46 -81.5t-87 -30.5q-56 0 -78 32.5t-14 79.5z" />
    <glyph glyph-name="Eng.sc" horiz-adv-x="594" 
d="M250 400l-71 -400h-93l102 579h89l167 -400l71 400h95l-102 -571q-36 -209 -218 -209q-30 0 -70 11l25 93q29 -5 47 -8q26 -1 48 6q57 18 71 90q4 17 -3 35z" />
    <glyph glyph-name="Ygrave.sc" horiz-adv-x="564" 
d="M365 644l-86 136h104l64 -136h-82zM330 0h-97l46 265l-165 314h112l117 -226l198 226h115l-280 -314z" />
    <glyph glyph-name="Gcommaaccent.sc" horiz-adv-x="651" 
d="M632 501l-78 -62h-1q-46 56 -124 56q-84 0 -152.5 -60.5t-84.5 -147.5q-15 -86 32 -147t130 -61q70 0 124.5 37t68.5 98h-161l14 81h268q-26 -151 -113.5 -228t-216.5 -77q-124 0 -193.5 86.5t-46.5 210.5t122.5 210.5t223.5 86.5q121 0 188 -83zM267 -220l-49 20
q32 36 47.5 70.5t17.5 81.5h83q-17 -113 -99 -172z" />
    <glyph glyph-name="Kcommaaccent.sc" horiz-adv-x="516" 
d="M292 290l224 -290h-125l-170 228l-40 -228h-95l102 579h95l-40 -226l212 226h111zM204 -220l-50 20q33 36 48.5 70.5t17.5 81.5h83q-19 -114 -99 -172z" />
    <glyph glyph-name="Lcommaaccent.sc" horiz-adv-x="429" 
d="M188 579h95l-88 -492h229l-14 -87h-324zM176 -220l-50 20q33 36 48.5 70.5t17.5 81.5h83q-19 -114 -99 -172z" />
    <glyph glyph-name="Ncommaaccent.sc" horiz-adv-x="596" 
d="M510 0h-88l-171 402l-70 -402h-95l102 579h90l169 -397l71 397h94zM227 -220l-50 20q33 36 48.5 70.5t17.5 81.5h83q-19 -114 -99 -172z" />
    <glyph glyph-name="Rcommaaccent.sc" horiz-adv-x="547" 
d="M383 215l114 -215h-115l-107 210h-57l-36 -210h-96l102 579h227q88 0 124 -54t22 -130q-12 -69 -57.5 -120t-120.5 -60zM396 493h-128l-34 -196h124q44 0 70.5 28.5t34.5 69.5q8 39 -8.5 68.5t-58.5 29.5zM202 -220l-50 20q33 36 48.5 70.5t17.5 81.5h83
q-19 -114 -99 -172z" />
    <glyph glyph-name="Tcommaaccent.sc" horiz-adv-x="480" 
d="M124 579h434l-15 -87h-169l-86 -492h-96l86 492h-169zM172 -220l-49 20q33 36 48.5 70.5t16.5 81.5h83q-17 -114 -99 -172z" />
    <glyph glyph-name="Scommaaccent.sc" horiz-adv-x="503" 
d="M81 171h95q-8 -38 18.5 -66t74.5 -28q47 0 78 21.5t41 53.5q21 66 -73 91l-69 19q-136 37 -115 157q12 72 76.5 118.5t143.5 46.5q83 0 128 -47.5t30 -127.5h-94q7 39 -15 63t-65 24q-40 0 -72.5 -21.5t-37.5 -54.5q-10 -53 60 -72l71 -19q79 -21 110 -69.5t15 -112.5
q-20 -68 -83.5 -112.5t-144.5 -44.5q-89 0 -137.5 53.5t-34.5 127.5zM189 -220l-49 20q32 36 47.5 70.5t17.5 81.5h83q-17 -114 -99 -172z" />
    <glyph glyph-name="Idotaccent.sc" horiz-adv-x="267" 
d="M283 579h-95l-102 -579h95zM203 721q4 24 24 39.5t44 15.5q25 0 39 -15.5t10 -39.5t-23.5 -39.5t-44.5 -15.5q-24 0 -38.5 15.5t-10.5 39.5z" />
    <glyph glyph-name="zero.numr" horiz-adv-x="361" 
d="M119 457q18 95 58.5 148.5t119.5 53.5q145 0 107 -202q-17 -92 -58.5 -145.5t-120.5 -53.5q-143 0 -106 199zM183 457q-24 -136 53 -136q80 0 104 136q24 138 -55 138q-78 0 -102 -138z" />
    <glyph glyph-name="one.numr" horiz-adv-x="209" 
d="M138 264l52 297l-73 -33l10 60l145 70l-69 -394h-65z" />
    <glyph glyph-name="two.numr" horiz-adv-x="318" 
d="M84 295l192 190q32 32 36 57q4 24 -11 39.5t-42 15.5q-25 0 -46.5 -17t-31.5 -45l-55 14q17 50 57.5 80t88.5 30q52 0 82 -33t21 -84q-8 -51 -60 -101q-24 -24 -39.5 -38.5t-35.5 -34t-43 -41.5h139l-11 -63h-245z" />
    <glyph glyph-name="three.numr" horiz-adv-x="319" 
d="M190 564q-5 4 -21.5 18t-21.5 19q22 28 56.5 44t70.5 14q48 -2 73.5 -34t17.5 -75q-7 -44 -56 -76q55 -26 40 -98q-12 -54 -57.5 -86t-101.5 -31q-37 1 -68.5 23t-41.5 56l18 9l25 12.5l17 8.5q6 -19 25 -31.5t40 -13.5q28 -1 50 14.5t28 40.5q5 25 -7 44t-42 19h-52
l11 60h46q37 0 54 41q7 22 -4.5 38t-38.5 16q-31 0 -60 -32z" />
    <glyph glyph-name="four.numr" horiz-adv-x="357" 
d="M337 344l-14 -80h-65l14 80h-197l263 309h54l-45 -250h54l-10 -59h-54zM189 403h93l25 142z" />
    <glyph glyph-name="five.numr" horiz-adv-x="338" 
d="M144 376q7 -26 27.5 -40.5t45.5 -14.5q38 0 65 20.5t32 50.5q6 32 -13.5 49.5t-49.5 17.5q-49 0 -109 -35l-21 23l70 206h207l-11 -61h-154l-31 -88q30 15 67 15q56 0 87.5 -33.5t20.5 -93.5q-10 -61 -57.5 -97.5t-114.5 -36.5q-41 0 -74 21.5t-46 59.5q6 5 29.5 19
t29.5 18z" />
    <glyph glyph-name="six.numr" horiz-adv-x="338" 
d="M403 579l-63 -24q-13 42 -52 42q-38 0 -66.5 -36t-36.5 -91q33 46 87 46q52 0 81 -39.5t17 -95.5q-12 -54 -56.5 -89.5t-99.5 -34.5q-53 2 -82.5 37.5t-22.5 96.5q5 46 15.5 86.5t31 85t57.5 70t87 24.5q83 -4 103 -78zM176 389q-6 -28 10 -47.5t43 -20.5t49 17.5
t28 46.5t-8.5 47.5t-40.5 20.5q-28 1 -51.5 -17.5t-29.5 -46.5z" />
    <glyph glyph-name="seven.numr" horiz-adv-x="317" 
d="M424 653l-272 -389h-74l228 327h-171l11 62h278z" />
    <glyph glyph-name="eight.numr" horiz-adv-x="342" 
d="M160 555q8 44 45 74t83 30t72.5 -30t18.5 -74q-8 -41 -41 -66q52 -37 40 -102q-10 -54 -57 -91.5t-105 -37.5t-91.5 37.5t-23.5 91.5q12 68 74 102q-22 30 -15 66zM165 388q-5 -28 13.5 -47.5t49.5 -19.5t56 19.5t30 47.5q5 27 -12.5 48.5t-47.5 21.5h-6
q-29 0 -53.5 -21.5t-29.5 -48.5zM224 555q-3 -19 8 -32t31 -13q20 1 34.5 14.5t17.5 30.5t-8.5 29.5t-30.5 12.5q-20 0 -34.5 -12.5t-17.5 -29.5z" />
    <glyph glyph-name="nine.numr" horiz-adv-x="338" 
d="M95 336l63 25q12 -43 51 -43q38 0 66 36t37 91q-31 -46 -87 -46q-51 0 -79.5 39t-17.5 96q11 54 55.5 89.5t99.5 34.5q53 -2 82.5 -37.5t24.5 -96.5q-5 -44 -16 -85t-31.5 -85.5t-58.5 -71t-87 -24.5q-82 4 -102 78zM322 526q5 28 -10 47.5t-42 20.5t-49.5 -17.5
t-28.5 -46.5t8.5 -48t40.5 -20q28 0 51 18t30 46z" />
    <glyph glyph-name="zero.dnom" horiz-adv-x="361" 
d="M72 194q17 94 58 147.5t120 53.5q54 0 82.5 -27t31 -72t-6.5 -102q-17 -93 -58 -146t-120 -53q-143 0 -107 199zM136 194q-25 -136 53 -136q79 0 104 136q26 137 -54 137q-77 0 -103 -137z" />
    <glyph glyph-name="one.dnom" horiz-adv-x="209" 
d="M91 0l51 297l-72 -33l10 60l145 70l-69 -394h-65z" />
    <glyph glyph-name="two.dnom" horiz-adv-x="319" 
d="M39 32l191 189q33 33 37 57t-11.5 39.5t-41.5 15.5q-25 0 -46.5 -17t-31.5 -45l-55 14q16 50 56.5 80t88.5 30q53 0 83 -33t21 -84q-8 -50 -61 -101q-22 -21 -118 -114h139l-10 -63h-245z" />
    <glyph glyph-name="three.dnom" horiz-adv-x="319" 
d="M143 300q-5 5 -22.5 20t-19.5 17q22 28 56 44t70 14q49 -2 74.5 -34t17.5 -75q-7 -44 -56 -76q55 -28 41 -97q-12 -55 -58 -87t-102 -30q-37 1 -69 23t-42 55q5 3 29.5 14.5t31.5 16.5q5 -19 24 -32.5t40 -13.5q28 0 50.5 15.5t28.5 39.5q5 25 -7.5 44t-42.5 19h-52
l11 60h46q38 0 55 41q6 22 -5 38t-38 16q-32 0 -61 -32z" />
    <glyph glyph-name="four.dnom" horiz-adv-x="357" 
d="M291 80l-14 -80h-65l14 80h-197l263 310h54l-45 -251h54l-10 -59h-54zM143 139h93l25 143z" />
    <glyph glyph-name="five.dnom" horiz-adv-x="338" 
d="M98 112q7 -26 27 -40.5t46 -14.5q38 0 64.5 21t31.5 51q5 32 -13.5 49t-48.5 17q-51 0 -109 -35l-23 23l72 206h207l-11 -61h-154l-32 -87q31 14 68 14q55 0 86.5 -33t20.5 -93q-11 -61 -57.5 -98t-113.5 -37q-41 0 -74.5 21.5t-47.5 59.5q6 4 30 18t31 19z" />
    <glyph glyph-name="six.dnom" horiz-adv-x="338" 
d="M355 315l-63 -24q-11 42 -51 42q-38 0 -66.5 -36t-36.5 -91q30 46 87 46q51 0 80 -39t18 -95q-12 -55 -56.5 -90.5t-99.5 -34.5q-54 2 -83 38t-24 96q6 47 16.5 87t31.5 84.5t58 70.5t87 25q83 -4 102 -79zM128 125q-5 -28 10.5 -47.5t43.5 -20.5q26 -1 48 18t28 46
q6 28 -8 47.5t-40 20.5q-28 1 -51.5 -17.5t-30.5 -46.5z" />
    <glyph glyph-name="seven.dnom" horiz-adv-x="316" 
d="M378 390l-272 -390h-74l228 327h-171l11 63h278z" />
    <glyph glyph-name="eight.dnom" horiz-adv-x="342" 
d="M112 291q8 44 45 74t83 30t72.5 -30t18.5 -74q-6 -37 -40 -66q51 -36 39 -102q-10 -54 -56.5 -91t-104.5 -37t-91.5 37t-23.5 91q12 68 74 102q-22 28 -16 66zM118 124q-5 -28 13.5 -47.5t49.5 -19.5t55.5 19.5t29.5 47.5q5 27 -12.5 48.5t-47.5 21.5h-6q-29 0 -53 -21
t-29 -49zM176 291q-3 -19 8 -32t31 -13q20 1 34.5 14.5t17.5 30.5t-8 29.5t-30 12.5q-20 0 -35 -12t-18 -30z" />
    <glyph glyph-name="nine.dnom" horiz-adv-x="337" 
d="M48 72l64 25q11 -42 51 -42q38 0 65.5 36t36.5 90q-30 -46 -87 -46q-51 0 -79.5 39t-16.5 96q11 54 55.5 90t99.5 34q53 -2 82.5 -37.5t24.5 -96.5q-5 -44 -16 -85t-31.5 -85.5t-58.5 -70.5t-87 -25q-82 4 -103 78zM276 262q5 29 -10.5 48.5t-42.5 19.5
q-27 1 -49.5 -17.5t-28.5 -45.5q-6 -28 9 -48t41 -20q28 -1 51 17t30 46z" />
    <glyph glyph-name="l.alt1" horiz-adv-x="288" 
d="M304 96l-17 -96h-50q-171 0 -135 201l93 520h104l-93 -520q-20 -105 60 -105h38z" />
    <glyph glyph-name="a.alt1" horiz-adv-x="537" 
d="M234 84q40 0 86 14t71 47l7 35q-62 27 -121 27q-57 0 -83 -21t-31 -48q-4 -24 13.5 -39t57.5 -15zM174 320l-48 63q84 94 214 94q101 0 148.5 -51t30.5 -147l-49 -279h-102l8 51q-60 -61 -162 -61q-81 0 -123 39.5t-29 108.5q11 66 67.5 108t160.5 42q64 0 123 -30l4 21
q9 47 -18 76t-82 29q-37 0 -76.5 -17.5t-66.5 -46.5z" />
    <glyph glyph-name="y.alt1" horiz-adv-x="507" 
d="M161 -44l41 65l-106 446h110l73 -322l187 322h111l-328 -550q-52 -83 -98.5 -116.5t-118.5 -33.5q-25 0 -57 8l16 89q21 -4 57 -4t59.5 22.5t53.5 73.5z" />
    <glyph glyph-name="lslash.alt1" horiz-adv-x="301" 
d="M314 96l-16 -96h-50q-172 0 -136 201l18 104l-70 -41l13 72l70 40l62 345h104l-50 -279l96 55l-13 -71l-96 -55l-30 -170q-20 -105 60 -105h38z" />
    <glyph glyph-name="lacute.alt1" horiz-adv-x="288" 
d="M338 928h116l-154 -158h-90zM287 0l17 96h-38q-80 0 -60 105l93 520h-104l-93 -520q-36 -201 135 -201h50z" />
    <glyph glyph-name="lcommaaccent.alt1" horiz-adv-x="288" 
d="M123 -259l-55 23q38 42 55.5 79.5t24.5 99.5h97q-26 -137 -122 -202zM303 96l-16 -96h-50q-172 0 -136 201l93 520h104l-93 -520q-20 -105 60 -105h38z" />
    <glyph glyph-name="lcaron.alt1" horiz-adv-x="288" 
d="M364 511l-61 21q38 43 58.5 85.5t28.5 103.5h97q-29 -143 -123 -210zM287 0l17 96h-38q-80 0 -60 105l93 520h-104l-93 -520q-36 -201 135 -201h50z" />
    <glyph glyph-name="aacute.alt1" horiz-adv-x="537" 
d="M430 698h116l-155 -158h-90zM234 84q40 0 86 14t71 47l7 35q-62 27 -121 27q-57 0 -83 -21t-31 -48q-4 -24 13.5 -39t57.5 -15zM174 320l-48 63q84 94 214 94q101 0 148.5 -51t30.5 -147l-49 -279h-102l8 51q-60 -61 -162 -61q-81 0 -123 39.5t-29 108.5q11 66 67.5 108
t160.5 42q64 0 123 -30l4 21q9 47 -18 76t-82 29q-37 0 -76.5 -17.5t-66.5 -46.5z" />
    <glyph glyph-name="agrave.alt1" horiz-adv-x="537" 
d="M216 698h116l71 -158h-90zM234 84q40 0 86 14t71 47l7 35q-62 27 -121 27q-57 0 -83 -21t-31 -48q-4 -24 13.5 -39t57.5 -15zM174 320l-48 63q84 94 214 94q101 0 148.5 -51t30.5 -147l-49 -279h-102l8 51q-60 -61 -162 -61q-81 0 -123 39.5t-29 108.5q11 66 67.5 108
t160.5 42q64 0 123 -30l4 21q9 47 -18 76t-82 29q-37 0 -76.5 -17.5t-66.5 -46.5z" />
    <glyph glyph-name="acircumflex.alt1" horiz-adv-x="537" 
d="M331 699h104l81 -158h-87l-59 88l-92 -88h-86zM234 84q40 0 86 14t71 47l7 35q-62 27 -121 27q-57 0 -83 -21t-31 -48q-4 -24 13.5 -39t57.5 -15zM174 320l-48 63q84 94 214 94q101 0 148.5 -51t30.5 -147l-49 -279h-102l8 51q-60 -61 -162 -61q-81 0 -123 39.5
t-29 108.5q11 66 67.5 108t160.5 42q64 0 123 -30l4 21q9 47 -18 76t-82 29q-37 0 -76.5 -17.5t-66.5 -46.5z" />
    <glyph glyph-name="adieresis.alt1" horiz-adv-x="537" 
d="M218 622q4 26 26.5 43.5t49.5 17.5q26 0 41 -17.5t11 -43.5t-26 -44t-48 -18q-27 0 -42.5 18t-11.5 44zM389 622q4 26 26.5 43.5t49.5 17.5q26 0 41.5 -17.5t11.5 -43.5t-26.5 -44t-48.5 -18q-27 0 -42.5 18t-11.5 44zM234 84q40 0 86 14t71 47l7 35q-62 27 -121 27
q-57 0 -83 -21t-31 -48q-4 -24 13.5 -39t57.5 -15zM174 320l-48 63q84 94 214 94q101 0 148.5 -51t30.5 -147l-49 -279h-102l8 51q-60 -61 -162 -61q-81 0 -123 39.5t-29 108.5q11 66 67.5 108t160.5 42q64 0 123 -30l4 21q9 47 -18 76t-82 29q-37 0 -76.5 -17.5
t-66.5 -46.5z" />
    <glyph glyph-name="atilde.alt1" horiz-adv-x="537" 
d="M321 599q-9 0 -19.5 -11t-15.5 -33h-65q15 63 47 91.5t67 28.5q26 0 48.5 -20.5t31.5 -20.5q10 0 20.5 10t15.5 31h64q-14 -62 -46 -89.5t-67 -27.5q-24 0 -48 20.5t-33 20.5zM234 84q40 0 86 14t71 47l7 35q-62 27 -121 27q-57 0 -83 -21t-31 -48q-4 -24 13.5 -39
t57.5 -15zM174 320l-48 63q84 94 214 94q101 0 148.5 -51t30.5 -147l-49 -279h-102l8 51q-60 -61 -162 -61q-81 0 -123 39.5t-29 108.5q11 66 67.5 108t160.5 42q64 0 123 -30l4 21q9 47 -18 76t-82 29q-37 0 -76.5 -17.5t-66.5 -46.5z" />
    <glyph glyph-name="aring.alt1" horiz-adv-x="537" 
d="M266 638q9 47 46 79t82 32q47 0 73.5 -32t17.5 -79q-8 -45 -46 -76.5t-84 -31.5q-45 0 -71 31.5t-18 76.5zM322 638q-4 -21 8.5 -36.5t34.5 -15.5t41 15.5t23 36.5q4 23 -9 39t-36 16q-22 0 -39.5 -16t-22.5 -39zM234 84q40 0 86 14t71 47l7 35q-62 27 -121 27
q-57 0 -83 -21t-31 -48q-4 -24 13.5 -39t57.5 -15zM174 320l-48 63q84 94 214 94q101 0 148.5 -51t30.5 -147l-49 -279h-102l8 51q-60 -61 -162 -61q-81 0 -123 39.5t-29 108.5q11 66 67.5 108t160.5 42q64 0 123 -30l4 21q9 47 -18 76t-82 29q-37 0 -76.5 -17.5
t-66.5 -46.5z" />
    <glyph glyph-name="amacron.alt1" horiz-adv-x="537" 
d="M230 572l13 81h258l-13 -81h-258zM234 84q40 0 86 14t71 47l7 35q-62 27 -121 27q-57 0 -83 -21t-31 -48q-4 -24 13.5 -39t57.5 -15zM174 320l-48 63q84 94 214 94q101 0 148.5 -51t30.5 -147l-49 -279h-102l8 51q-60 -61 -162 -61q-81 0 -123 39.5t-29 108.5
q11 66 67.5 108t160.5 42q64 0 123 -30l4 21q9 47 -18 76t-82 29q-37 0 -76.5 -17.5t-66.5 -46.5z" />
    <glyph glyph-name="abreve.alt1" horiz-adv-x="537" 
d="M247 674h77q-5 -26 6.5 -41.5t37.5 -15.5q25 0 42.5 17t21.5 40h78q-11 -59 -53 -93.5t-102 -34.5q-65 0 -91.5 37t-16.5 91zM234 84q40 0 86 14t71 47l7 35q-62 27 -121 27q-57 0 -83 -21t-31 -48q-4 -24 13.5 -39t57.5 -15zM174 320l-48 63q84 94 214 94
q101 0 148.5 -51t30.5 -147l-49 -279h-102l8 51q-60 -61 -162 -61q-81 0 -123 39.5t-29 108.5q11 66 67.5 108t160.5 42q64 0 123 -30l4 21q9 47 -18 76t-82 29q-37 0 -76.5 -17.5t-66.5 -46.5z" />
    <glyph glyph-name="aogonek.alt1" horiz-adv-x="537" 
d="M174 320l-48 63q84 94 214 94q101 0 148.5 -51t30.5 -147l-49 -279h-42l-45 -83q-19 -35 10 -50q33 -9 51 22l7 23l68 4q-9 -51 -45 -83.5t-77 -32.5q-44 0 -68 31t-17 70q4 23 16 44l41 55h-1l8 51q-60 -61 -162 -61q-81 0 -123 39.5t-29 108.5q11 66 67.5 108t160.5 42
q64 0 123 -30l4 21q9 47 -18 76t-82 29q-37 0 -76.5 -17.5t-66.5 -46.5zM234 84q40 0 86 14t71 47l7 35q-62 27 -121 27q-57 0 -83 -21t-31 -48q-4 -24 13.5 -39t57.5 -15z" />
    <glyph glyph-name="yacute.alt1" horiz-adv-x="507" 
d="M424 698h116l-154 -158h-90zM202 21l-41 -65q-22 -35 -34.5 -52t-33 -30.5t-45.5 -13.5q-36 0 -57 4l-16 -89q32 -8 57 -8q72 0 118.5 33.5t98.5 116.5l328 550h-111l-187 -322l-73 322h-110z" />
    <glyph glyph-name="ydieresis.alt1" horiz-adv-x="507" 
d="M216 632q4 26 26.5 43.5t49.5 17.5q26 0 41 -17.5t11 -43.5t-25.5 -44t-47.5 -18q-27 0 -43 18t-12 44zM387 632q4 26 26.5 43.5t49.5 17.5q26 0 41.5 -17.5t11.5 -43.5t-26 -44t-48 -18q-27 0 -43 18t-12 44zM202 21l-41 -65q-22 -35 -34.5 -52t-33 -30.5t-45.5 -13.5
q-36 0 -57 4l-16 -89q32 -8 57 -8q72 0 118.5 33.5t98.5 116.5l328 550h-111l-187 -322l-73 322h-110z" />
    <glyph glyph-name="ae.alt1" horiz-adv-x="879" 
d="M474 31l-4 -31h-102l8 51q-60 -61 -162 -61q-81 0 -123 39.5t-29 108.5q11 66 67.5 108t160.5 42q64 0 123 -30l4 21q9 47 -18 76t-82 29q-35 0 -75.5 -17.5t-67.5 -46.5l-48 63q84 94 214 94q122 0 163 -71q82 71 188 71q102 0 156 -66.5t35 -175.5q-5 -29 -8 -38h-371
q-1 -54 32.5 -85.5t90.5 -31.5q40 0 78 18t61 49q17 -9 78 -37q-41 -59 -105 -89.5t-133 -30.5q-79 0 -131 41zM517 272h271q2 54 -28.5 84.5t-83.5 30.5q-55 0 -98.5 -31t-60.5 -84zM234 84q40 0 86 14t71 47l7 35q-53 18 -122 18q-101 0 -113 -60q-4 -24 13.5 -39
t57.5 -15z" />
    <glyph glyph-name="aeacute.alt1" horiz-adv-x="879" 
d="M611 698h116l-155 -158h-90zM470 0l4 31q52 -41 131 -41q69 0 133 30.5t105 89.5q-61 28 -78 37q-23 -31 -61 -49t-78 -18q-57 0 -90.5 31.5t-32.5 85.5h371q3 9 8 38q19 109 -35 175.5t-156 66.5q-106 0 -188 -71q-41 71 -163 71q-130 0 -214 -94l48 -63
q27 29 67.5 46.5t75.5 17.5q55 0 82 -29t18 -76l-4 -21q-59 30 -123 30q-104 0 -160.5 -42t-67.5 -108q-13 -69 29 -108.5t123 -39.5q102 0 162 61l-8 -51h102zM517 272q17 53 60.5 84t98.5 31q53 0 83.5 -30.5t28.5 -84.5h-271zM234 84q-40 0 -57.5 15t-13.5 39
q12 60 113 60q69 0 122 -18l-7 -35q-25 -33 -71 -47t-86 -14z" />
    <glyph glyph-name="ycircumflex.alt1" horiz-adv-x="507" 
d="M323 699h104l82 -158h-87l-60 88l-91 -88h-86zM161 -44l41 65l-106 446h110l73 -322l187 322h111l-328 -550q-52 -83 -98.5 -116.5t-118.5 -33.5q-25 0 -57 8l16 89q21 -4 57 -4q35 0 58 22t55 74z" />
    <glyph glyph-name="ldot.alt1" horiz-adv-x="368" 
d="M279 275q5 29 29 48.5t53 19.5q30 0 47.5 -19.5t12.5 -48.5t-29.5 -48.5t-54.5 -19.5q-29 0 -46 19.5t-12 48.5zM304 96l-17 -96h-50q-171 0 -135 201l93 520h104l-93 -520q-20 -105 60 -105h38z" />
    <glyph glyph-name="t.alt1" horiz-adv-x="361" 
d="M340 96l-16 -96h-45q-92 0 -123 46t-15 138l35 198h-84l15 85h84l20 112l110 36l-26 -148h98l-15 -85h-98l-36 -198q-9 -42 3 -65t60 -23h33z" />
    <glyph glyph-name="tcaron.alt1" horiz-adv-x="361" 
d="M405 526l-56 23q38 42 56 80t25 100h97q-26 -136 -122 -203zM324 0l16 96h-33q-48 0 -60 23t-3 65l36 198h98l15 85h-98l26 148l-110 -36l-20 -112h-84l-15 -85h84l-35 -198q-16 -92 15 -138t123 -46h45z" />
    <glyph glyph-name="tbar.alt1" horiz-adv-x="363" 
d="M342 96l-16 -96h-45q-92 0 -123 45.5t-15 138.5l5 31h-67l12 65h67l18 102h-84l15 85h84l20 112l110 36l-26 -148h98l-15 -85h-98l-18 -102h71l-12 -65h-71l-6 -31q-8 -42 4 -65t59 -23h33z" />
    <glyph glyph-name="tcommaaccent.alt1" horiz-adv-x="361" 
d="M175 -259l-55 23q38 42 55.5 79.5t24.5 99.5h97q-26 -137 -122 -202zM340 96l-16 -96h-45q-92 0 -123 46t-15 138l35 198h-84l15 85h84l20 112l110 36l-26 -148h98l-15 -85h-98l-36 -198q-9 -42 3 -65t60 -23h33z" />
    <glyph glyph-name="T.sc.alt1" horiz-adv-x="480" 
d="M124 579h434l-15 -87h-169l-86 -492h-96l86 492h-169z" />
    <glyph glyph-name="Tcaron.sc.alt1" horiz-adv-x="481" 
d="M365 709l75 70h79l-121 -136h-89l-72 136h79zM282 0l88 501h178l15 83h-439l-15 -83h177l-88 -501h84z" />
    <glyph glyph-name="Tbar.sc.alt1" horiz-adv-x="470" 
d="M338 350h112l-10 -57h-112l-51 -293h-84l51 293h-110l10 57h110l27 151h-177l15 83h439l-15 -83h-178z" />
    <glyph glyph-name="Tcommaaccent.sc.alt1" horiz-adv-x="480" 
d="M124 579h434l-15 -87h-169l-86 -492h-96l86 492h-169zM172 -220l-49 20q33 36 48.5 70.5t16.5 81.5h83q-17 -114 -99 -172z" />
    <glyph glyph-name="aringacute.alt1" horiz-adv-x="537" 
d="M469 867h117l-130 -133q48 -31 37 -95q-8 -45 -46 -76.5t-84 -31.5q-45 0 -71 31.5t-18 76.5q7 37 33 66t63 39zM330 638q-4 -22 9 -37t34 -15q23 0 41.5 15t22.5 37q4 23 -9 38.5t-36 15.5q-21 0 -39.5 -15.5t-22.5 -38.5zM234 84q40 0 86 14t71 47l7 35q-62 27 -121 27
q-57 0 -83 -21t-31 -48q-4 -24 13.5 -39t57.5 -15zM174 320l-48 63q84 94 214 94q101 0 148.5 -51t30.5 -147l-49 -279h-102l8 51q-60 -61 -162 -61q-81 0 -123 39.5t-29 108.5q11 66 67.5 108t160.5 42q64 0 123 -30l4 21q9 47 -18 76t-82 29q-37 0 -76.5 -17.5
t-66.5 -46.5z" />
    </font>
</defs>
</svg>
