<?xml version="1.0" standalone="no"?>
<!DOCTYPE svg PUBLIC "-//W3C//DTD SVG 1.1//EN" "http://www.w3.org/Graphics/SVG/1.1/DTD/svg11.dtd" >
<svg xmlns="http://www.w3.org/2000/svg" xmlns:xlink="http://www.w3.org/1999/xlink" version="1.1">
<metadata>
Created by FontForge 20201107 at Mon Mar 12 18:23:43 2012
 By 
Copyright (c) Olivier Gourvat - Mostardesign Studio, 2012. All rights reserved.
</metadata>
<defs>
<font id="SofiaProSemiBold-Italic" horiz-adv-x="567" >
  <font-face 
    font-family="Sofia Pro Semi Bold"
    font-weight="400"
    font-style="italic"
    font-stretch="normal"
    units-per-em="1000"
    panose-1="2 11 0 0 0 0 0 0 0 0"
    ascent="750"
    descent="-250"
    x-height="467"
    cap-height="689"
    bbox="-178 -274 1172.91 1110"
    underline-thickness="50"
    underline-position="-250"
    slope="-12"
    unicode-range="U+0020-FB04"
  />
<missing-glyph horiz-adv-x="635" 
d="M80 0l117 665h475l-117 -665h-475zM260 431h62q7 37 32.5 60t57.5 23t52 -20.5t14 -52.5q-5 -29 -32 -50q-21 -17 -37 -21q-47 -13 -75.5 -38t-36.5 -72l-7 -38h62l6 38q3 22 17.5 32.5t41.5 17.5q45 13 79 48t43 83q11 60 -24 97.5t-93 37.5q-57 0 -103.5 -40
t-58.5 -105zM259 131q-4 -18 7.5 -30.5t30.5 -12.5q18 0 33.5 12.5t19.5 30.5t-7.5 30.5t-30.5 12.5t-34 -12t-19 -31z" />
    <glyph glyph-name="f_f" unicode="ff" horiz-adv-x="740" 
d="M873 721l-21 -117h-51q-75 0 -94 -100l-7 -37h99l-17 -98h-99l-65 -369h-123l65 369h-260l-65 -369h-123l65 369h-89l17 98h89l7 37q19 103 80 160t158 57h51l-21 -117h-51q-75 0 -94 -100l-7 -37h260l7 37q19 103 80 160t158 57h51z" />
    <glyph glyph-name="fi" unicode="fi" horiz-adv-x="658" 
d="M672 467l-82 -467h-121l65 369h-234l-65 -369h-123l65 369h-89l17 98h89l7 37q19 103 80 160t158 57h51l-21 -117h-51q-75 0 -94 -100l-7 -37h355zM565 648q5 30 32.5 51.5t60.5 21.5q32 0 50 -21t13 -52t-31.5 -52.5t-58.5 -21.5q-33 0 -52 21.5t-14 52.5z" />
    <glyph glyph-name="fl" unicode="fl" horiz-adv-x="665" 
d="M439 721h285l-128 -721h-122l107 604h-163q-75 0 -94 -100l-7 -37h99l-17 -98h-99l-65 -369h-123l65 369h-89l17 98h89l7 37q19 103 80 160t158 57z" />
    <glyph glyph-name="f_f_i" unicode="ffi" horiz-adv-x="1041" 
d="M1055 467l-82 -467h-121l65 369h-234l-65 -369h-123l65 369h-260l-65 -369h-123l65 369h-89l17 98h89l7 37q19 103 80 160t158 57h51l-21 -117h-51q-75 0 -94 -100l-7 -37h260l7 37q19 103 80 160t158 57h51l-21 -117h-51q-75 0 -94 -100l-7 -37h355zM948 648
q5 30 32.5 51.5t60.5 21.5q32 0 50 -21t13 -52t-31.5 -52.5t-58.5 -21.5q-33 0 -52 21.5t-14 52.5z" />
    <glyph glyph-name="f_f_l" unicode="ffl" horiz-adv-x="1048" 
d="M857 0l107 604h-163q-75 0 -94 -100l-7 -37h99l-17 -98h-99l-65 -369h-123l65 369h-260l-65 -369h-123l65 369h-89l17 98h89l7 37q19 103 80 160t158 57h51l-21 -117h-51q-75 0 -94 -100l-7 -37h260l7 37q19 103 80 160t158 57h285l-128 -721h-122z" />
    <glyph glyph-name="f_f_j" unicode="ffj" horiz-adv-x="1029" 
d="M669 -233l20 112h59q72 0 83 88l72 402h-220l-65 -369h-123l65 369h-260l-65 -369h-123l65 369h-89l17 98h89l7 37q19 103 80 160t158 57h51l-21 -117h-51q-75 0 -94 -100l-7 -37h260l7 37q19 103 80 160t158 57h51l-21 -117h-51q-75 0 -94 -100l-7 -37h344l-89 -498
q-35 -202 -209 -202h-77zM935 648q5 30 32.5 51.5t59.5 21.5q33 0 51 -21t13 -52t-31.5 -52.5t-59.5 -21.5q-32 0 -51 21.5t-14 52.5z" />
    <glyph glyph-name="f_j" unicode="fj" horiz-adv-x="646" 
d="M286 -233l20 112h59q72 0 83 88l72 402h-220l-65 -369h-123l65 369h-89l17 98h89l7 37q19 103 80 160t158 57h51l-21 -117h-51q-75 0 -94 -100l-7 -37h344l-89 -498q-35 -202 -209 -202h-77zM552 648q5 30 32.5 51.5t59.5 21.5q33 0 51 -21t13 -52t-31.5 -52.5
t-59.5 -21.5q-32 0 -51 21.5t-14 52.5z" />
    <glyph glyph-name=".notdef" horiz-adv-x="635" 
d="M80 0l117 665h475l-117 -665h-475zM260 431h62q7 37 32.5 60t57.5 23t52 -20.5t14 -52.5q-5 -29 -32 -50q-21 -17 -37 -21q-47 -13 -75.5 -38t-36.5 -72l-7 -38h62l6 38q3 22 17.5 32.5t41.5 17.5q45 13 79 48t43 83q11 60 -24 97.5t-93 37.5q-57 0 -103.5 -40
t-58.5 -105zM259 131q-4 -18 7.5 -30.5t30.5 -12.5q18 0 33.5 12.5t19.5 30.5t-7.5 30.5t-30.5 12.5t-34 -12t-19 -31z" />
    <glyph glyph-name=".null" horiz-adv-x="0" 
 />
    <glyph glyph-name="nonmarkingreturn" horiz-adv-x="333" 
 />
    <glyph glyph-name="space" unicode=" " horiz-adv-x="248" 
 />
    <glyph glyph-name="exclam" unicode="!" horiz-adv-x="280" 
d="M190 689h143l-105 -488h-105zM72 66q6 32 33 54t59 22q33 0 52.5 -21.5t13.5 -54.5t-33 -54.5t-60 -21.5q-32 0 -51.5 22t-13.5 54z" />
    <glyph glyph-name="quotedbl" unicode="&#x22;" horiz-adv-x="353" 
d="M144 395l42 294h89l-62 -294h-69zM278 395l42 294h89l-62 -294h-69z" />
    <glyph glyph-name="numbersign" unicode="#" horiz-adv-x="699" 
d="M644 515h111l-42 -90h-112l-80 -170h111l-40 -90h-111l-81 -165h-101l79 165h-103l-80 -165h-100l79 165h-110l40 90h110l79 170h-108l41 90h110l81 174h102l-80 -174h103l81 174h102zM395 425l-80 -170h103l81 170h-104z" />
    <glyph glyph-name="dollar" unicode="$" horiz-adv-x="569" 
d="M394 800h69l-20 -106q83 -11 125 -65.5t27 -139.5h-128q8 41 -15 65.5t-71 24.5q-44 0 -77.5 -22.5t-40.5 -58.5q-10 -57 68 -79l81 -25q101 -29 134.5 -85.5t15.5 -124.5q-20 -83 -87.5 -134t-155.5 -59l-20 -113h-69l20 113q-93 10 -140.5 69t-33.5 141h128
q-5 -40 22.5 -68.5t80.5 -28.5q50 0 84 23.5t43 59.5q17 69 -77 94l-82 22q-164 51 -139 192q14 81 81.5 136.5t155.5 63.5z" />
    <glyph glyph-name="percent" unicode="%" horiz-adv-x="688" 
d="M652 661h-68l-441 -661h68zM130 532q10 56 55 95t101 39t88.5 -39.5t22.5 -94.5q-10 -56 -56 -94.5t-102 -38.5t-87.5 38.5t-21.5 94.5zM207 532q-4 -24 9 -40t37 -16q23 0 43 16t24 40q4 23 -10 40t-37 17q-24 0 -43 -17t-23 -40zM406 123q10 56 55 95t101 39
t88.5 -39.5t22.5 -94.5q-10 -56 -56 -94.5t-102 -38.5t-87.5 38.5t-21.5 94.5zM483 123q-4 -24 9 -40t37 -16q23 0 43 16t24 40q4 23 -10 40t-37 17q-24 0 -43 -17t-23 -40z" />
    <glyph glyph-name="ampersand" unicode="&#x26;" horiz-adv-x="682" 
d="M353 319q-61 0 -97 -37t-39 -77q-3 -44 23 -70t76 -26q51 0 94.5 36.5t55.5 104.5l12 69h-125zM281 -10q-100 0 -155 59t-39 149q24 131 141 178q-30 16 -44 51.5t-6 81.5q13 74 77.5 128t147.5 57q59 2 104 -23t67 -69l-114 -63q-19 37 -63 37q-36 0 -60.5 -22
t-30.5 -52q-2 -14 0 -31t19 -35t49 -18h121l16 82h114l-16 -82h83l-17 -99h-83l-20 -114q-11 -61 4 -84t74 -23l-19 -108q-77 1 -117.5 18.5t-49.5 63.5q-28 -38 -80.5 -60t-102.5 -22z" />
    <glyph glyph-name="quotesingle" unicode="'" horiz-adv-x="219" 
d="M144 395l42 294h89l-62 -294h-69z" />
    <glyph glyph-name="parenleft" unicode="(" horiz-adv-x="378" 
d="M82 229q37 207 145 337.5t240 130.5l-18 -102q-79 0 -156.5 -108t-104.5 -258q-16 -102 -5 -182.5t48 -129.5t88 -49l-17 -101q-132 0 -194.5 128t-25.5 334z" />
    <glyph glyph-name="parenright" unicode=")" horiz-adv-x="378" 
d="M376 229q-37 -206 -144 -334t-238 -128l15 101q79 0 157 106.5t104 254.5q16 103 5 184.5t-48 131.5t-88 50l18 102q132 0 194 -131t25 -337z" />
    <glyph glyph-name="asterisk" unicode="*" horiz-adv-x="474" 
d="M158 381l102 102l-122 36l44 86l115 -48l15 132h92l-32 -131l133 47l12 -86l-132 -34l64 -105l-81 -51l-52 109l-96 -111z" />
    <glyph glyph-name="plus" unicode="+" horiz-adv-x="511" 
d="M341 213l-28 -158h-97l28 158h-157l16 97h157l29 156h97l-29 -156h157l-16 -97h-157z" />
    <glyph glyph-name="comma" unicode="," horiz-adv-x="271" 
d="M62 -132l-74 30q93 108 116 245h126q-20 -98 -68.5 -168.5t-99.5 -106.5z" />
    <glyph glyph-name="hyphen" unicode="-" horiz-adv-x="477" 
d="M96 191l18 102h351l-18 -102h-351z" />
    <glyph glyph-name="period" unicode="." horiz-adv-x="272" 
d="M68 66q6 32 33 54t59 22q33 0 52.5 -21.5t13.5 -54.5t-33 -54.5t-60 -21.5q-32 0 -51.5 22t-13.5 54z" />
    <glyph glyph-name="slash" unicode="/" horiz-adv-x="501" 
d="M485 689h107l-455 -689h-107z" />
    <glyph glyph-name="zero" unicode="0" horiz-adv-x="603" 
d="M118 327q14 75 35.5 133t57 106t88.5 74t122 26t113 -26.5t61 -72.5t19 -107.5t-13 -132.5q-11 -59 -26 -107t-39.5 -92t-56.5 -73.5t-77.5 -47t-100.5 -17.5q-245 0 -183 337zM241 327q-38 -217 82 -217q118 0 156 217q40 219 -79 219t-159 -219z" />
    <glyph glyph-name="one" unicode="1" horiz-adv-x="362" 
d="M137 559l251 103l-116 -662h-123l86 493l-117 -44z" />
    <glyph glyph-name="two" unicode="2" horiz-adv-x="541" 
d="M473 0h-418l10 63l324 320q47 45 55 86q6 33 -16 55.5t-64 22.5q-40 0 -72.5 -26.5t-45.5 -68.5l-111 21q30 89 99 141t156 52q88 0 139.5 -55.5t36.5 -141.5q-15 -87 -99 -167l-196 -185h221z" />
    <glyph glyph-name="three" unicode="3" horiz-adv-x="546" 
d="M308 291h-70l21 109h70q40 -1 61 24.5t25 47.5q4 24 -5 46t-39 27q-62 10 -109 -39l-85 63q36 47 95 74t121 23q82 -4 125.5 -56.5t30.5 -126.5q-7 -39 -35 -73t-69 -55q48 -19 70 -72t7 -106q-24 -88 -106.5 -140.5t-177.5 -45.5q-66 4 -114 42t-65 96q5 2 58 26.5
t58 27.5q10 -31 36 -52t58 -21q47 0 83 27.5t44 69.5q4 6 0.5 20.5t-9.5 29t-27 25t-52 9.5z" />
    <glyph glyph-name="four" unicode="4" horiz-adv-x="599" 
d="M243 249h145l41 228zM579 142h-87l-25 -142h-122l25 142h-323l417 512h119l-73 -405h87z" />
    <glyph glyph-name="five" unicode="5" horiz-adv-x="582" 
d="M450 224q9 55 -21 84t-85 29q-89 0 -161 -66l-63 42l116 341h372l-21 -113h-274l-47 -134q49 35 128 35q93 0 144.5 -57.5t33.5 -160.5q-18 -104 -101.5 -169t-201.5 -65q-68 0 -123.5 38t-78.5 100q5 3 57 32.5t57 31.5q14 -36 44 -58.5t66 -22.5q63 0 107 33t52 80z
" />
    <glyph glyph-name="six" unicode="6" horiz-adv-x="573" 
d="M429 207q8 42 -14.5 71t-63.5 30t-76 -28t-43 -70q-7 -42 16 -71.5t64 -29.5q41 -1 75 27.5t42 70.5zM391 422q82 0 132 -61t31 -161q-18 -93 -93 -152t-176 -58q-91 1 -143 63t-41 164q6 66 19 126t39 121.5t62 105.5t91 71t122 25q65 -3 109.5 -30.5t64.5 -96.5
l-121 -48q-20 60 -77 60q-67 0 -110.5 -59t-54.5 -144q16 28 57 51t89 23z" />
    <glyph glyph-name="seven" unicode="7" horiz-adv-x="541" 
d="M164 654h479l-429 -654h-140l354 539h-285z" />
    <glyph glyph-name="eight" unicode="8" horiz-adv-x="584" 
d="M302 484q-5 -30 11.5 -50.5t50.5 -20.5q33 0 56.5 21t28.5 50q5 28 -11.5 48t-48.5 20q-33 0 -57.5 -20.5t-29.5 -47.5zM210 216q-8 -45 21.5 -77.5t78.5 -32.5q48 0 89 32.5t48 77.5q8 43 -19.5 75.5t-72.5 32.5h-18q-45 0 -82 -33t-45 -75zM184 488q13 74 78.5 126
t146.5 52q80 0 127 -52t34 -126q-11 -66 -69 -112q41 -26 59.5 -69t8.5 -95q-17 -92 -98.5 -157t-181.5 -65t-159 65t-42 157q10 53 42.5 95.5t81.5 68.5q-40 46 -28 112z" />
    <glyph glyph-name="nine" unicode="9" horiz-adv-x="574" 
d="M260 449q-9 -41 13.5 -70.5t63.5 -30.5t76.5 27.5t43.5 69.5q7 42 -16 71.5t-64 30.5t-74.5 -27.5t-42.5 -70.5zM296 234q-81 0 -130 61t-31 161q18 93 93 151.5t175 57.5q91 -2 143 -63t43 -163q-7 -67 -20 -126.5t-39 -121.5t-61.5 -106t-90.5 -70.5t-123 -24.5
q-65 3 -110 30.5t-65 96.5l123 48q17 -60 77 -60q67 0 109.5 59t53.5 144q-15 -28 -56.5 -51t-90.5 -23z" />
    <glyph glyph-name="colon" unicode=":" horiz-adv-x="284" 
d="M74 66q6 33 33 54.5t60 21.5t52 -21.5t13 -54.5t-32.5 -54.5t-59.5 -21.5t-52.5 22t-13.5 54zM134 401q6 33 32.5 54.5t59.5 21.5t52.5 -22t13.5 -54q-6 -33 -32.5 -54.5t-59.5 -21.5t-52.5 22t-13.5 54z" />
    <glyph glyph-name="semicolon" unicode=";" horiz-adv-x="291" 
d="M70 -132l-76 30q92 105 117 245h127q-20 -98 -68.5 -168.5t-99.5 -106.5zM144 401q6 33 32.5 54.5t59.5 21.5t52.5 -22t13.5 -54q-6 -33 -32.5 -54.5t-59.5 -21.5t-52.5 22t-13.5 54z" />
    <glyph glyph-name="less" unicode="&#x3c;" horiz-adv-x="628" 
d="M557 45l-470 192l19 104l538 192l-19 -105l-394 -139l345 -139z" />
    <glyph glyph-name="equal" unicode="=" horiz-adv-x="600" 
d="M589 334h-460l16 94h460zM110 229h460l-17 -94h-460z" />
    <glyph glyph-name="greater" unicode="&#x3e;" horiz-adv-x="628" 
d="M623 237l-538 -192l18 105l394 139l-345 139l19 105l471 -192z" />
    <glyph glyph-name="question" unicode="?" horiz-adv-x="491" 
d="M298 233l-7 -33h-119l3 33q5 28 13 50t15.5 38t23.5 31.5t25.5 23.5t35 21.5t37.5 19t47 21.5q40 16 49 65q5 31 -17 51.5t-58 20.5q-37 0 -65 -24t-35 -63h-121q17 95 85 152t158 57q91 0 141 -53.5t34 -141.5q-13 -71 -60 -120.5t-112 -68.5q-33 -10 -49.5 -27.5
t-23.5 -52.5zM130 67q6 32 33 54t60 22t52 -22t13 -54q-6 -33 -32.5 -55t-59.5 -22t-52.5 22t-13.5 55z" />
    <glyph glyph-name="at" unicode="@" horiz-adv-x="967" 
d="M613 133l23 127q8 51 -21 86t-79 35t-91.5 -35t-50.5 -86q-9 -49 20 -84t79 -35q47 0 91 33l-15 -91q-48 -24 -91 -24q-84 0 -132.5 58.5t-33.5 142.5q15 85 84.5 144t153.5 59q81 0 131 -55q51 -56 39 -138l-26 -143q-10 -62 53 -62q32 0 58.5 21t44 54.5t28 66.5
t16.5 66q25 145 -65 242t-241 97q-147 0 -266.5 -104t-146.5 -253q-27 -148 55.5 -250t230.5 -102h29l-15 -83h-29q-182 0 -284 126t-70 309t180 311.5t329 128.5q121 0 214.5 -54.5t138.5 -152t24 -215.5q-7 -37 -19.5 -75.5t-34 -77.5t-48 -69t-64 -49t-78.5 -19
q-64 0 -99.5 35.5t-21.5 114.5z" />
    <glyph glyph-name="A" unicode="A" horiz-adv-x="654" 
d="M519 0l-34 167h-257l-92 -167h-136l379 689h138l137 -689h-135zM423 542l-132 -263h172z" />
    <glyph glyph-name="B" unicode="B" horiz-adv-x="634" 
d="M643 502q-18 -99 -115 -134q57 -15 82 -63t17 -98q-16 -87 -84.5 -147t-165.5 -60h-291l121 689h270q91 0 136 -50.5t30 -136.5zM286 412h133q34 0 58.5 24t30.5 59q6 37 -10.5 58.5t-53.5 21.5h-129zM420 305h-153l-33 -191h156q40 0 68.5 28.5t34.5 66.5q7 37 -12 66.5
t-61 29.5z" />
    <glyph glyph-name="C" unicode="C" horiz-adv-x="693" 
d="M605 204l87 -74q-57 -65 -136.5 -102.5t-167.5 -37.5q-146 0 -228 103t-56 250q26 148 144.5 251t264.5 103q86 0 152 -36t102 -100l-116 -73q-52 88 -159 88q-93 0 -168 -67.5t-92 -165.5q-17 -97 34 -164.5t144 -67.5q112 0 195 93z" />
    <glyph glyph-name="D" unicode="D" horiz-adv-x="714" 
d="M315 572l-82 -455h141q88 0 147.5 64t76.5 162q17 99 -18.5 164t-123.5 65h-141zM355 0h-269l121 689h269q144 0 210.5 -97.5t39.5 -248.5t-127 -247t-244 -96z" />
    <glyph glyph-name="E" unicode="E" horiz-adv-x="572" 
d="M86 0l121 689h426l-20 -114h-299l-31 -179h262l-20 -113h-262l-30 -169h309l-20 -114h-436z" />
    <glyph glyph-name="F" unicode="F" horiz-adv-x="534" 
d="M86 0l121 689h421l-20 -114h-293l-31 -179h232l-21 -114h-232l-49 -282h-128z" />
    <glyph glyph-name="G" unicode="G" horiz-adv-x="756" 
d="M748 592l-107 -82q-54 67 -145 67q-94 0 -170.5 -68.5t-93.5 -165.5t35 -166t146 -69q73 0 135.5 40t75.5 103h-189l18 105h336q-31 -183 -136.5 -274.5t-260.5 -91.5q-147 0 -230.5 103.5t-57.5 249.5q26 148 146 251t267 103q74 0 134 -28t97 -77z" />
    <glyph glyph-name="H" unicode="H" horiz-adv-x="704" 
d="M610 689h129l-121 -689h-129l50 285h-276l-50 -285h-127l121 689h127l-50 -289h276z" />
    <glyph glyph-name="I" unicode="I" horiz-adv-x="299" 
d="M86 0l121 689h127l-121 -689h-127z" />
    <glyph glyph-name="J" unicode="J" horiz-adv-x="300" 
d="M-137 -218l33 116q28 -10 78 -10q46 0 74 30.5t37 78.5l122 692h129l-123 -692q-18 -102 -83 -166t-177 -64q-34 0 -90 15z" />
    <glyph glyph-name="K" unicode="K" horiz-adv-x="598" 
d="M348 347l264 -347h-167l-185 255l-45 -255h-129l121 689h129l-44 -251l229 251h150z" />
    <glyph glyph-name="L" unicode="L" horiz-adv-x="506" 
d="M86 0l121 689h128l-101 -575h266l-20 -114h-394z" />
    <glyph glyph-name="M" unicode="M" horiz-adv-x="919" 
d="M498 223l301 466h110l-37 -689h-128l27 459l-247 -381h-102l-114 381l-134 -459h-128l206 689h108z" />
    <glyph glyph-name="N" unicode="N" horiz-adv-x="682" 
d="M717 689l-121 -689h-117l-186 453l-80 -453h-127l121 689h119l184 -448l79 448h128z" />
    <glyph glyph-name="O" unicode="O" horiz-adv-x="787" 
d="M231 343q-17 -95 35.5 -161t145.5 -66t169.5 66t93.5 161t-35.5 161.5t-145.5 66.5q-94 0 -170.5 -66.5t-92.5 -161.5zM104 343q26 147 145 250.5t266 103.5t230.5 -103.5t57.5 -250.5q-26 -146 -146.5 -249.5t-266.5 -103.5t-229 103.5t-57 249.5z" />
    <glyph glyph-name="P" unicode="P" horiz-adv-x="612" 
d="M465 575h-150l-38 -216h146q46 0 77.5 32.5t38.5 74.5q8 42 -10.5 75.5t-63.5 33.5zM86 0l121 689h280q108 0 152 -65.5t28 -157.5t-83 -156.5t-175 -64.5h-152l-43 -245h-128z" />
    <glyph glyph-name="Q" unicode="Q" horiz-adv-x="792" 
d="M601 50l49 -111l-102 -56l-55 121q-51 -14 -101 -14q-147 0 -230.5 103.5t-57.5 249.5q26 148 146 251t267 103q149 0 233 -103t58 -251q-16 -90 -71 -167t-136 -126zM504 271l50 -114q49 31 82 79.5t43 106.5q17 97 -36 165t-147 68t-170.5 -68t-93.5 -165
q-15 -86 26.5 -149t121.5 -76q35 -5 64 -2l-42 100z" />
    <glyph glyph-name="R" unicode="R" horiz-adv-x="631" 
d="M457 575h-142l-38 -216h138q47 0 77.5 32t38.5 75q8 42 -10.5 75.5t-63.5 33.5zM451 250l132 -250h-154l-119 245h-53l-43 -245h-128l121 689h276q107 0 152 -65.5t29 -157.5q-14 -80 -69 -141t-144 -75z" />
    <glyph glyph-name="S" unicode="S" horiz-adv-x="577" 
d="M81 201h128q-5 -40 22.5 -68.5t80.5 -28.5q50 0 84 23.5t43 59.5q16 69 -78 94l-81 22q-164 51 -139 192q15 89 92.5 145.5t174.5 56.5q100 0 155 -56.5t37 -151.5h-128q8 41 -15.5 65.5t-71.5 24.5q-44 0 -77 -22.5t-40 -58.5q-10 -57 68 -79l81 -25
q101 -29 134.5 -85.5t15.5 -124.5q-21 -90 -99.5 -142.5t-176.5 -52.5q-109 0 -167.5 61t-42.5 151z" />
    <glyph glyph-name="T" unicode="T" horiz-adv-x="573" 
d="M129 572l20 117h517l-20 -117h-194l-101 -572h-129l101 572h-194z" />
    <glyph glyph-name="U" unicode="U" horiz-adv-x="681" 
d="M360 111q54 0 100 37t56 95l79 446h127l-79 -446q-20 -112 -108.5 -182.5t-196.5 -70.5q-109 0 -173.5 70.5t-44.5 182.5l80 446h130l-80 -446q-9 -58 23.5 -95t86.5 -37z" />
    <glyph glyph-name="V" unicode="V" horiz-adv-x="575" 
d="M141 689h133l49 -480l219 480h133l-330 -689h-115z" />
    <glyph glyph-name="W" unicode="W" horiz-adv-x="892" 
d="M637 209l233 480h139l-355 -689h-103l-37 391l-173 -391h-104l-111 689h138l62 -480l174 384h102z" />
    <glyph glyph-name="X" unicode="X" horiz-adv-x="643" 
d="M734 689l-272 -321l175 -368h-152l-118 265l-210 -265h-151l304 368l-160 321h153l100 -219l178 219h153z" />
    <glyph glyph-name="Y" unicode="Y" horiz-adv-x="644" 
d="M387 0h-131l55 314l-198 375h152l131 -265l225 265h153l-332 -377z" />
    <glyph glyph-name="Z" unicode="Z" horiz-adv-x="587" 
d="M59 100l416 474h-319l20 115h484l-18 -101l-419 -473h335l-19 -115h-497z" />
    <glyph glyph-name="bracketleft" unicode="[" horiz-adv-x="332" 
d="M34 -227l163 916h220l-16 -95h-112l-129 -725h112l-18 -96h-220z" />
    <glyph glyph-name="backslash" unicode="\" horiz-adv-x="501" 
d="M151 689h107l213 -689h-107z" />
    <glyph glyph-name="bracketright" unicode="]" horiz-adv-x="332" 
d="M377 689l-163 -916h-218l16 96h112l129 725h-112l16 95h220z" />
    <glyph glyph-name="underscore" unicode="_" horiz-adv-x="728" 
d="M40 -124l16 93h602l-16 -93h-602z" />
    <glyph glyph-name="grave" unicode="`" horiz-adv-x="539" 
d="M254 707h128l76 -163h-95z" />
    <glyph glyph-name="a" unicode="a" horiz-adv-x="614" 
d="M423 0l9 60q-26 -33 -71 -51t-84 -18q-96 0 -155.5 67.5t-40.5 175.5q20 108 102.5 175.5t178.5 67.5q38 0 76.5 -16.5t55.5 -51.5l11 58h122l-82 -467h-122zM207 234q-9 -55 23 -90.5t84 -35.5t96 34.5t54 91.5q10 58 -22.5 92t-83.5 34q-52 0 -97 -35.5t-54 -90.5z" />
    <glyph glyph-name="b" unicode="b" horiz-adv-x="606" 
d="M233 235q-9 -57 21 -92.5t81 -35.5q52 0 93.5 35.5t51.5 92.5q10 56 -19 91t-81 35q-50 0 -93.5 -34.5t-53.5 -91.5zM191 0h-122l127 721h122l-56 -316q25 34 68 53t91 19q95 0 150 -67.5t35 -176.5q-19 -108 -98 -175.5t-174 -67.5q-47 0 -84 19.5t-49 53.5z" />
    <glyph glyph-name="c" unicode="c" horiz-adv-x="520" 
d="M79 235q19 107 105 174.5t190 67.5q59 0 106.5 -24t72.5 -67l-111 -73q-25 46 -89 46q-53 0 -98 -34.5t-55 -89.5t23 -91.5t86 -36.5q61 0 105 47l85 -72q-86 -92 -211 -92q-104 0 -166 69t-43 176z" />
    <glyph glyph-name="d" unicode="d" horiz-adv-x="606" 
d="M416 0l10 63q-25 -34 -68.5 -53.5t-90.5 -19.5q-95 0 -150 67.5t-36 175.5q20 109 98.5 176.5t173.5 67.5q48 0 85 -19t49 -53l57 316h121l-128 -721h-121zM455 235q10 57 -21.5 91.5t-81.5 34.5q-52 0 -93.5 -35t-51.5 -91q-10 -57 19.5 -92.5t81.5 -35.5t95 35.5
t52 92.5z" />
    <glyph glyph-name="e" unicode="e" horiz-adv-x="553" 
d="M559 235q-4 -23 -9 -42h-356q-3 -46 28 -73t83 -27q37 0 72.5 15.5t55.5 44.5q45 -28 84 -50q-41 -57 -105 -85t-133 -28q-102 0 -160 68.5t-39 176.5t101 175t184 67t157.5 -67t36.5 -175zM208 276h240q2 47 -26 73t-74 26q-49 0 -86.5 -26t-53.5 -73z" />
    <glyph glyph-name="f" unicode="f" horiz-adv-x="357" 
d="M490 721l-21 -117h-51q-75 0 -93 -100l-8 -37h99l-17 -98h-99l-65 -369h-123l65 369h-89l17 98h89l8 37q17 103 78.5 160t158.5 57h51z" />
    <glyph glyph-name="g" unicode="g" horiz-adv-x="611" 
d="M460 234q10 58 -20.5 92t-83.5 34q-52 0 -95 -35.5t-53 -90.5q-10 -57 20.5 -92.5t82.5 -35.5q50 0 94.5 35.5t54.5 92.5zM148 -45q9 -34 41 -55.5t70 -21.5q82 0 124 52t50 134q-23 -34 -68.5 -54t-92.5 -20q-95 0 -152.5 67.5t-38.5 174.5q20 109 101 177t176 68
q47 0 85 -19.5t50 -53.5l12 63h119l-71 -400q-27 -152 -108 -226t-206 -74q-73 0 -126 37t-73 101q17 7 56.5 26t51.5 24z" />
    <glyph glyph-name="h" unicode="h" horiz-adv-x="587" 
d="M234 249l-43 -249h-122l127 721h122l-58 -326q23 39 71 60.5t89 21.5q90 0 129 -57t20 -160l-45 -260h-122l44 254q9 48 -15.5 76t-64.5 28q-45 0 -83.5 -26.5t-48.5 -82.5z" />
    <glyph glyph-name="i" unicode="i" horiz-adv-x="259" 
d="M272 467l-82 -467h-121l82 467h121zM165 648q5 30 32 51.5t60 21.5q32 0 50.5 -21t13.5 -52t-31.5 -52.5t-58.5 -21.5q-33 0 -52 21.5t-14 52.5z" />
    <glyph glyph-name="j" unicode="j" horiz-adv-x="261" 
d="M-99 -233l20 112h59q69 0 82 88l89 500h123l-89 -498q-35 -202 -207 -202h-77zM166 648q5 30 32 51.5t59 21.5q33 0 51.5 -21t13.5 -52t-31.5 -52.5t-59.5 -21.5q-32 0 -51 21.5t-14 52.5z" />
    <glyph glyph-name="k" unicode="k" horiz-adv-x="519" 
d="M366 0l-141 200l-35 -200h-121l127 721h121l-70 -394l154 140h158l-233 -205l193 -262h-153z" />
    <glyph glyph-name="l" unicode="l" horiz-adv-x="260" 
d="M69 0l127 721h122l-127 -721h-122z" />
    <glyph glyph-name="m" unicode="m" horiz-adv-x="864" 
d="M655 358q-43 0 -74.5 -28.5t-40.5 -80.5l-43 -249h-122l44 257q8 47 -11 74t-56 27q-42 0 -75 -26.5t-43 -82.5l-43 -249h-122l82 467h122l-12 -69q25 39 67 58.5t81 19.5q110 -6 133 -87q66 88 163 88q85 0 122.5 -54t19.5 -156l-46 -267h-121l44 254q9 49 -10.5 76.5
t-58.5 27.5z" />
    <glyph glyph-name="n" unicode="n" 
d="M234 249l-43 -249h-122l82 467h122l-12 -69q25 36 68 57.5t85 21.5q83 0 119 -51.5t19 -149.5l-48 -276h-122l44 254q9 50 -10 77t-60 27q-45 0 -78 -26t-44 -83z" />
    <glyph glyph-name="o" unicode="o" horiz-adv-x="566" 
d="M302 110q51 0 92 34.5t51 90.5q10 54 -19.5 88t-81.5 34q-51 0 -92 -34t-51 -88q-10 -56 19.5 -90.5t81.5 -34.5zM281 -9q-102 0 -161 68t-40 176t101.5 175t184.5 67t160.5 -67t39.5 -175t-101.5 -176t-183.5 -68z" />
    <glyph glyph-name="p" unicode="p" horiz-adv-x="605" 
d="M273 467l-12 -63q25 34 69 53.5t91 19.5q94 0 148.5 -68t35.5 -175q-19 -109 -97.5 -176.5t-173.5 -67.5q-47 0 -84 19t-49 53l-52 -289h-122l124 694h122zM233 232q-10 -58 20.5 -92t81.5 -34q52 0 93.5 35t51.5 91q10 57 -19.5 92.5t-80.5 35.5q-52 0 -95 -35.5
t-52 -92.5z" />
    <glyph glyph-name="q" unicode="q" horiz-adv-x="605" 
d="M453 232q10 57 -20 92.5t-82 35.5q-51 0 -92.5 -35.5t-51.5 -92.5q-10 -56 19.5 -91t80.5 -35q50 0 93 34t53 92zM484 404l12 63h122l-124 -694h-122l52 289q-24 -34 -67.5 -53t-90.5 -19q-95 0 -149.5 67.5t-35.5 176.5q19 107 98 175t173 68q47 0 84 -19.5t48 -53.5z
" />
    <glyph glyph-name="r" unicode="r" horiz-adv-x="411" 
d="M220 165l-29 -165h-122l82 467h122l-20 -110q28 60 69.5 90t84.5 30q44 0 73 -17l-40 -110q-26 13 -68 13q-118 0 -152 -198z" />
    <glyph glyph-name="s" unicode="s" horiz-adv-x="454" 
d="M216 195q-54 15 -81 39.5t-28 49.5t2 54q10 56 68 97.5t128 41.5q74 0 120.5 -36t36.5 -111h-116q2 24 -15 36t-40 12q-58 0 -67 -46q-3 -13 9 -23t33 -16l75 -19q36 -10 59.5 -28.5t30.5 -38t9.5 -40t-2.5 -33.5q-12 -68 -75.5 -106t-141.5 -38q-74 0 -122.5 42.5
t-37.5 114.5h114q-2 -25 20 -42.5t55 -16.5q26 1 46 14t23 33q8 32 -42 44z" />
    <glyph glyph-name="t" unicode="t" horiz-adv-x="351" 
d="M343 645l-32 -178h99l-17 -98h-99l-65 -369h-121l65 369h-85l17 98h85l32 178h121z" />
    <glyph glyph-name="u" unicode="u" 
d="M414 218l44 249h122l-82 -467h-122l11 66q-25 -36 -65 -56t-78 -20q-85 0 -125.5 52t-22.5 149l49 276h123l-45 -254q-9 -53 12.5 -78.5t58.5 -25.5q43 0 76.5 26.5t43.5 82.5z" />
    <glyph glyph-name="v" unicode="v" horiz-adv-x="518" 
d="M205 0l-114 467h130l65 -311l175 311h131l-279 -467h-108z" />
    <glyph glyph-name="w" unicode="w" horiz-adv-x="774" 
d="M841 467l-249 -467h-102l-49 313l-156 -313h-101l-90 467h130l42 -295l147 295h108l42 -295l148 295h130z" />
    <glyph glyph-name="x" unicode="x" horiz-adv-x="520" 
d="M235 254l-115 213h143l59 -115l99 115h143l-191 -213l139 -254h-142l-83 156l-138 -156h-142z" />
    <glyph glyph-name="y" unicode="y" horiz-adv-x="511" 
d="M584 467l-413 -695h-129l154 264l-105 431h130l64 -291l169 291h130z" />
    <glyph glyph-name="z" unicode="z" horiz-adv-x="508" 
d="M138 467h403l-17 -94l-290 -259h245l-20 -114h-418l15 93l288 260h-226z" />
    <glyph glyph-name="braceleft" unicode="{" horiz-adv-x="407" 
d="M83 273q24 0 44.5 15.5t24.5 40.5l30 162q16 89 83 143.5t151 54.5h78l-16 -94h-81q-38 0 -69.5 -27.5t-38.5 -68.5l-28 -153q-7 -42 -31.5 -72.5t-56.5 -42.5q28 -11 41 -42t6 -72l-25 -147q-7 -41 15 -71t59 -30h81l-19 -96h-78q-85 0 -132 54.5t-32 143.5l29 164
q4 24 -11.5 39.5t-39.5 15.5z" />
    <glyph glyph-name="bar" unicode="|" horiz-adv-x="221" 
d="M218 800h69l-164 -922h-69z" />
    <glyph glyph-name="braceright" unicode="}" horiz-adv-x="407" 
d="M421 273l-15 -83q-24 0 -45.5 -15.5t-25.5 -39.5l-29 -164q-15 -89 -83 -143.5t-153 -54.5h-76l16 96h81q37 0 69.5 30t39.5 71l25 147q7 40 32.5 71.5t56.5 42.5q-27 12 -41 43t-7 72l28 153q7 41 -14.5 68.5t-59.5 27.5h-81l16 94h78q85 0 133 -54.5t32 -143.5
l-29 -162q-4 -24 12 -40t40 -16z" />
    <glyph glyph-name="exclamdown" unicode="&#xa1;" horiz-adv-x="265" 
d="M162 -227h-143l107 493h105zM124 401q6 33 32.5 54.5t58.5 21.5q33 0 53 -21.5t14 -54.5t-33.5 -54.5t-60.5 -21.5q-32 0 -51 22t-13 54z" />
    <glyph glyph-name="cent" unicode="&#xa2;" horiz-adv-x="535" 
d="M419 580l-18 -104q108 -10 156 -90l-111 -73q-25 46 -88 46q-53 0 -98.5 -34.5t-55.5 -89.5t23 -91.5t86 -36.5q63 0 105 47l85 -72q-77 -82 -188 -91l-20 -113h-69l20 116q-86 16 -133 81t-30 160q17 94 87 158t161 80l19 107h69z" />
    <glyph glyph-name="sterling" unicode="&#xa3;" horiz-adv-x="663" 
d="M444 282h-128l-30 -170h190q40 0 45 31l7 39h121l-9 -54q-9 -54 -48 -91t-90 -37h-459l19 112h102l30 170h-81l11 62h81l22 126q18 103 86.5 165t164.5 62q93 0 144.5 -57t32.5 -163h-125q8 49 -14 71.5t-63 20.5q-37 -1 -65.5 -24.5t-35.5 -61.5l-25 -139h128z" />
    <glyph glyph-name="currency" unicode="&#xa4;" horiz-adv-x="618" 
d="M231 169l-84 -72l-52 64l83 72q-22 45 -11 106q10 60 50 107l-59 72l75 64l60 -72q54 31 110 31q62 0 103 -31l83 72l53 -64l-84 -72q22 -55 13 -107q-10 -59 -51 -106l59 -72l-76 -64l-58 72q-53 -32 -113 -32t-101 32zM277 339q-7 -38 14.5 -65t59.5 -27q39 0 71 27
t40 65q7 39 -16 66t-62 27q-38 0 -68.5 -27t-38.5 -66z" />
    <glyph glyph-name="yen" unicode="&#xa5;" horiz-adv-x="723" 
d="M488 322h159l-12 -67h-165l-15 -88h165l-12 -66h-165l-17 -101h-131l17 101h-164l12 66h164l15 88h-164l12 67h158l-193 367h152l130 -265l226 265h153z" />
    <glyph glyph-name="brokenbar" unicode="&#xa6;" horiz-adv-x="225" 
d="M123 263h69l-67 -385h-69zM289 800l-69 -385h-69l69 385h69z" />
    <glyph glyph-name="section" unicode="&#xa7;" horiz-adv-x="532" 
d="M353 213l-20 -110q-29 -7 -49 -7q-87 0 -137 56.5t-34 147.5l33 188q16 91 86.5 147.5t157.5 56.5q70 0 120 -40t55 -114l-110 -32q-5 38 -29 57t-57 19q-40 0 -72 -26t-40 -68l-34 -188q-8 -44 16.5 -68.5t67.5 -24.5q21 0 46 6zM268 302l19 110q29 7 50 7
q87 0 137.5 -56.5t33.5 -147.5l-34 -188q-16 -91 -85.5 -147.5t-156.5 -56.5q-70 0 -120.5 40t-55.5 114l109 32q6 -38 29.5 -57t56.5 -19q40 0 72.5 26t39.5 68l34 188q8 44 -16.5 68.5t-67.5 24.5q-20 0 -45 -6z" />
    <glyph glyph-name="dieresis" unicode="&#xa8;" horiz-adv-x="551" 
d="M232 632q5 28 28 46.5t52 18.5q28 0 45 -19t12 -46t-28.5 -46t-51.5 -19q-29 0 -45.5 18.5t-11.5 46.5zM406 632q5 28 28 46.5t52 18.5t45.5 -18.5t11.5 -46.5t-28 -46.5t-52 -18.5t-45.5 18.5t-11.5 46.5z" />
    <glyph glyph-name="copyright" unicode="&#xa9;" horiz-adv-x="801" 
d="M580 222l-37 50q-58 -48 -101 -48q-47 0 -73.5 33.5t-18.5 80.5t46.5 80t85.5 33q44 0 83 -46l55 47q-52 66 -126 66q-76 0 -137 -52.5t-75 -127.5t29 -128t119 -53q74 0 150 65zM111 343q26 147 145.5 250.5t265.5 103.5t230 -104t58 -250q-26 -147 -146.5 -250
t-266.5 -103t-229 103t-57 250zM172 343q-22 -121 47 -206t190 -85q120 0 218.5 85t120.5 206t-47.5 206.5t-190.5 85.5q-120 0 -218 -85.5t-120 -206.5z" />
    <glyph glyph-name="ordfeminine" unicode="&#xaa;" horiz-adv-x="477" 
d="M383 324l8 46q-21 -24 -53 -38.5t-63 -14.5q-70 0 -111 47.5t-27 124.5t71.5 124.5t127.5 47.5q71 0 98 -52l8 45h71l-59 -330h-71zM413 490q8 46 -18.5 73t-66.5 27q-42 0 -75.5 -28t-40.5 -72q-7 -45 16 -73.5t65 -28.5q43 0 77.5 27.5t42.5 74.5zM116 203l11 62h315
l-11 -62h-315z" />
    <glyph glyph-name="guillemotleft" unicode="&#xab;" horiz-adv-x="499" 
d="M81 233l175 207h98l-175 -207l102 -207h-98zM258 233l175 207h98l-175 -207l102 -207h-98z" />
    <glyph glyph-name="logicalnot" unicode="&#xac;" horiz-adv-x="633" 
d="M134 368h487l-45 -259h-109l26 151h-378z" />
    <glyph glyph-name="registered" unicode="&#xae;" horiz-adv-x="801" 
d="M573 165l-69 127q41 10 66 40.5t31 69.5q8 47 -15.5 81.5t-77.5 34.5h-137l-62 -353h69l21 122h23l67 -122h84zM428 450h68q21 0 30.5 -14t6.5 -34q-3 -19 -19 -33t-38 -14h-66zM111 343q26 147 145.5 250.5t265.5 103.5t230 -104t58 -250q-26 -147 -146.5 -250
t-266.5 -103t-229 103t-57 250zM172 343q-22 -121 47 -206t190 -85q120 0 218.5 85t120.5 206t-47.5 206.5t-190.5 85.5q-120 0 -218 -85.5t-120 -206.5z" />
    <glyph glyph-name="macron" unicode="&#xaf;" horiz-adv-x="509" 
d="M223 585l15 83h269l-15 -83h-269z" />
    <glyph glyph-name="degree" unicode="&#xb0;" horiz-adv-x="373" 
d="M145 558q10 57 58.5 98t105.5 41q58 0 91.5 -41t23.5 -98q-10 -58 -58.5 -99t-106.5 -41q-57 0 -90.5 41t-23.5 99zM216 558q-5 -29 11.5 -49t44.5 -20q29 0 52.5 20t28.5 49t-11 48.5t-45 19.5q-28 0 -52 -20t-29 -48z" />
    <glyph glyph-name="plusminus" unicode="&#xb1;" horiz-adv-x="546" 
d="M371 287l-26 -144h-97l26 144h-155l17 96h155l25 142h97l-25 -142h156l-17 -96h-156zM476 -1h-408l16 95h408z" />
    <glyph glyph-name="twosuperior" unicode="&#xb2;" horiz-adv-x="317" 
d="M112 470l191 187q26 25 31 50q4 20 -8.5 33t-37.5 13q-23 0 -42 -15.5t-29 -41.5l-64 14q19 52 59 82.5t91 30.5q52 0 82.5 -32.5t21.5 -83.5q-8 -50 -58 -98q-27 -25 -112 -106h128l-12 -70h-246z" />
    <glyph glyph-name="threesuperior" unicode="&#xb3;" horiz-adv-x="320" 
d="M228 730q-2 2 -24.5 18.5t-24.5 18.5q21 27 55.5 42.5t70.5 13.5q48 -3 73.5 -34t18.5 -73q-8 -48 -61 -76q28 -11 40.5 -41.5t4.5 -61.5q-13 -49 -62.5 -81t-104.5 -28q-39 3 -67 25t-38 55q48 21 67 32q16 -38 56 -43q25 -1 47 13.5t27 35.5q1 11 0.5 23.5t-13.5 23.5
t-37 11h-42l11 63h42q25 0 39 17.5t15 32.5q2 15 -8.5 27t-29.5 12q-33 1 -55 -26z" />
    <glyph glyph-name="acute" unicode="&#xb4;" horiz-adv-x="539" 
d="M359 707h128l-167 -163h-95z" />
    <glyph glyph-name="mu" unicode="&#xb5;" 
d="M44 -178l114 645h121l-45 -256q-9 -51 12.5 -76.5t56.5 -25.5q43 0 76.5 26.5t43.5 82.5l44 249h122l-82 -467h-122l10 62q-24 -34 -63 -53t-75 -19q-47 0 -74 28l-13 -126l-12 -70h-114z" />
    <glyph glyph-name="paragraph" unicode="&#xb6;" horiz-adv-x="692" 
d="M459 689l-125 -702q-2 -13 -3 -17.5t-5 -12t-11 -9.5t-19 -2h-66l56 309q-85 5 -135 68t-34 149q16 90 90 153.5t165 63.5h87zM626 594h-29l-116 -653q-9 -52 -58 -94t-103 -43h-28h-87l14 86h109q20 0 37.5 13.5t20.5 32.5l133 753h121q57 0 90 -41t23 -96l-15 -85h-90
l14 79q4 20 -6.5 34t-29.5 14z" />
    <glyph glyph-name="periodcentered" unicode="&#xb7;" horiz-adv-x="278" 
d="M114 313q5 32 32.5 54t59.5 22q33 0 52 -21.5t14 -54.5t-32.5 -54.5t-60.5 -21.5q-32 0 -51 21.5t-14 54.5z" />
    <glyph glyph-name="cedilla" unicode="&#xb8;" horiz-adv-x="528" 
d="M214 -122q7 -28 39 -20q30 11 25 46l-23 125h59l34 -94q5 -13 0 -46q-8 -41 -44 -71.5t-79 -30.5q-42 0 -66.5 32.5t-13.5 87.5l68 -4q-2 -13 1 -25z" />
    <glyph glyph-name="onesuperior" unicode="&#xb9;" horiz-adv-x="212" 
d="M164 433l50 284l-70 -30l10 65l152 70l-69 -389h-73z" />
    <glyph glyph-name="ordmasculine" unicode="&#xba;" horiz-adv-x="464" 
d="M284 317q-73 0 -114.5 48t-27.5 126q13 75 72 122.5t131 47.5t114 -47.5t29 -122.5q-14 -77 -73 -125.5t-131 -48.5zM297 388q42 0 76 28.5t43 74.5q8 44 -17 71.5t-67 27.5t-76 -27.5t-42 -71.5q-9 -46 15.5 -74.5t67.5 -28.5zM109 203l11 62h320l-11 -62h-320z" />
    <glyph glyph-name="guillemotright" unicode="&#xbb;" horiz-adv-x="499" 
d="M321 233l-174 -207h-98l174 207l-100 207h98zM498 233l-174 -207h-98l174 207l-100 207h98z" />
    <glyph glyph-name="onequarter" unicode="&#xbc;" horiz-adv-x="777" 
d="M750 669l-571 -679h-78l573 679h76zM152 270l50 284l-71 -30l12 66l151 69l-69 -389h-73zM702 83l-13 -83h-73l13 83h-190l247 302h70l-42 -238h51l-12 -64h-51zM559 147h82l23 130z" />
    <glyph glyph-name="onehalf" unicode="&#xbd;" horiz-adv-x="792" 
d="M750 669l-571 -679h-78l573 679h76zM152 270l50 284l-71 -30l12 66l151 69l-69 -389h-73zM501 38l190 187q27 27 31 50q3 20 -9.5 33t-36.5 13q-23 0 -42.5 -15.5t-27.5 -41.5l-65 13q18 52 59 83t92 31q52 0 82 -33t21 -83q-10 -52 -59 -98q-27 -26 -56 -53.5t-56 -53.5
h128l-11 -70h-246z" />
    <glyph glyph-name="threequarters" unicode="&#xbe;" horiz-adv-x="853" 
d="M826 669l-571 -679h-78l573 679h76zM779 83l-14 -83h-73l14 83h-190l246 302h70l-42 -238h51l-11 -64h-51zM635 147h82l23 130zM215 567l-49 38q22 27 56.5 42.5t70.5 13.5q48 -3 73.5 -34t17.5 -73q-10 -49 -61 -76q28 -11 40.5 -41.5t4.5 -62.5q-13 -49 -62 -81
t-104 -28q-38 3 -66.5 25t-39.5 56l68 32q16 -43 56 -43q24 -1 46 13.5t27 34.5q5 21 -5 40t-45 19h-42l12 63h42q25 0 38.5 17.5t13.5 32.5q2 15 -7.5 27t-28.5 12q-33 1 -56 -27z" />
    <glyph glyph-name="questiondown" unicode="&#xbf;" horiz-adv-x="482" 
d="M269 231l9 36h119l-5 -36q-7 -39 -19.5 -67t-24.5 -45.5t-40.5 -36t-46.5 -27t-64 -29.5q-41 -16 -50 -65q-6 -31 15.5 -51.5t58.5 -20.5t65.5 24t35.5 63h121q-17 -95 -85 -152t-158 -57q-91 0 -140.5 53.5t-34.5 141.5q12 70 60 120t113 69q33 10 49 27.5t22 52.5z
M439 400q-6 -32 -33 -54t-60 -22t-52 22t-13 54q6 33 32.5 55t59.5 22t52.5 -22t13.5 -55z" />
    <glyph glyph-name="Agrave" unicode="&#xc0;" horiz-adv-x="654" 
d="M519 0l-34 167h-257l-92 -167h-136l379 689h138l137 -689h-135zM423 542l-132 -263h172zM315 929h128l76 -163h-95z" />
    <glyph glyph-name="Aacute" unicode="&#xc1;" horiz-adv-x="654" 
d="M485 167l34 -167h135l-137 689h-138l-379 -689h136l92 167h257zM291 279l132 263l40 -263h-172zM536 929h128l-167 -163h-95z" />
    <glyph glyph-name="Acircumflex" unicode="&#xc2;" horiz-adv-x="654" 
d="M519 0l-34 167h-257l-92 -167h-136l379 689h138l137 -689h-135zM423 542l-132 -263h172zM430 932h123l81 -163h-94l-62 88l-92 -88h-94z" />
    <glyph glyph-name="Atilde" unicode="&#xc3;" horiz-adv-x="654" 
d="M519 0l-34 167h-257l-92 -167h-136l379 689h138l137 -689h-135zM423 542l-132 -263h172zM429 829q-8 0 -19 -11t-15 -32h-70q15 65 48.5 95t69.5 30q24 0 47 -20.5t33 -20.5q9 0 19.5 10t15.5 31h70q-15 -64 -49.5 -93.5t-69.5 -29.5q-23 0 -47 20.5t-33 20.5z" />
    <glyph glyph-name="Adieresis" unicode="&#xc4;" horiz-adv-x="654" 
d="M485 167l34 -167h135l-137 689h-138l-379 -689h136l92 167h257zM291 279l132 263l40 -263h-172zM322 854q5 28 28 46.5t52 18.5q28 0 45 -19t12 -46t-28.5 -46t-51.5 -19q-29 0 -45.5 18.5t-11.5 46.5zM496 854q5 28 28 46.5t52 18.5t45.5 -18.5t11.5 -46.5t-28 -46.5
t-52 -18.5t-45.5 18.5t-11.5 46.5z" />
    <glyph glyph-name="Aring" unicode="&#xc5;" horiz-adv-x="654" 
d="M485 167l34 -167h135l-137 689h-138l-379 -689h136l92 167h257zM291 279l132 263l40 -263h-172zM366 876q9 49 48.5 83t86.5 34q50 0 77.5 -34t18.5 -83q-9 -48 -49 -81t-89 -33q-47 0 -74.5 33t-18.5 81zM423 876q-4 -24 10 -40.5t37 -16.5q25 0 44.5 16.5t24.5 40.5
q4 25 -10 42t-39 17q-23 0 -43 -17t-24 -42z" />
    <glyph glyph-name="AE" unicode="&#xc6;" horiz-adv-x="933" 
d="M542 689h452l-21 -116h-298l-30 -177h261l-21 -114h-261l-30 -166h308l-19 -116h-435l-1 1v-1l28 163h-205l-132 -163h-152zM537 516l-172 -230h132z" />
    <glyph glyph-name="Ccedilla" unicode="&#xc7;" horiz-adv-x="694" 
d="M305 -122q7 -28 38 -20q15 5 21.5 18t3.5 28l-16 88q-130 14 -200.5 114t-46.5 237q26 148 145 251t265 103q86 0 152 -36.5t101 -99.5l-116 -73q-52 88 -159 88q-93 0 -168 -67.5t-92 -165.5q-17 -97 34 -164.5t144 -67.5q112 0 195 93l88 -74q-52 -59 -124 -96
t-152 -43l21 -56q5 -13 0 -46q-8 -41 -44 -71.5t-79 -30.5q-42 0 -67 32.5t-14 87.5l69 -4q-2 -13 1 -25z" />
    <glyph glyph-name="Egrave" unicode="&#xc8;" horiz-adv-x="572" 
d="M86 0l121 689h426l-20 -114h-299l-31 -179h262l-20 -113h-262l-30 -169h309l-20 -114h-436zM316 929h128l76 -163h-95z" />
    <glyph glyph-name="Eacute" unicode="&#xc9;" horiz-adv-x="572" 
d="M207 689l-121 -689h436l20 114h-309l30 169h262l20 113h-262l31 179h299l20 114h-426zM460 929h128l-167 -163h-95z" />
    <glyph glyph-name="Ecircumflex" unicode="&#xca;" horiz-adv-x="572" 
d="M86 0l121 689h426l-20 -114h-299l-31 -179h262l-20 -113h-262l-30 -169h309l-20 -114h-436zM387 932h123l81 -163h-94l-62 88l-92 -88h-94z" />
    <glyph glyph-name="Edieresis" unicode="&#xcb;" horiz-adv-x="572" 
d="M207 689l-121 -689h436l20 114h-309l30 169h262l20 113h-262l31 179h299l20 114h-426zM293 854q5 28 28 46.5t52 18.5q28 0 45 -19t12 -46t-28.5 -46t-51.5 -19q-29 0 -45.5 18.5t-11.5 46.5zM467 854q5 28 28 46.5t52 18.5t45.5 -18.5t11.5 -46.5t-28 -46.5t-52 -18.5
t-45.5 18.5t-11.5 46.5z" />
    <glyph glyph-name="Igrave" unicode="&#xcc;" horiz-adv-x="299" 
d="M86 0l121 689h127l-121 -689h-127zM143 929h128l76 -163h-95z" />
    <glyph glyph-name="Iacute" unicode="&#xcd;" horiz-adv-x="299" 
d="M207 689l-121 -689h127l121 689h-127zM356 929h128l-167 -163h-95z" />
    <glyph glyph-name="Icircumflex" unicode="&#xce;" horiz-adv-x="299" 
d="M86 0l121 689h127l-121 -689h-127zM253 932h123l81 -163h-94l-62 88l-92 -88h-94z" />
    <glyph glyph-name="Idieresis" unicode="&#xcf;" horiz-adv-x="299" 
d="M207 689l-121 -689h127l121 689h-127zM145 854q5 28 28 46.5t52 18.5q28 0 45 -19t12 -46t-28.5 -46t-51.5 -19q-29 0 -45.5 18.5t-11.5 46.5zM319 854q5 28 28 46.5t52 18.5t45.5 -18.5t11.5 -46.5t-28 -46.5t-52 -18.5t-45.5 18.5t-11.5 46.5z" />
    <glyph glyph-name="Eth" unicode="&#xd0;" horiz-adv-x="722" 
d="M54 293l15 88h94l55 308h267q145 0 210.5 -97.5t38.5 -248.5t-126 -247t-244 -96h-267l51 293h-94zM275 293l-31 -174h140q88 0 147 63t76 161t-18.5 162.5t-123.5 64.5h-140l-35 -189h138l-15 -88h-138z" />
    <glyph glyph-name="Ntilde" unicode="&#xd1;" horiz-adv-x="682" 
d="M717 689l-121 -689h-117l-186 453l-80 -453h-127l121 689h119l184 -448l79 448h128zM443 829q-8 0 -19 -11t-15 -32h-70q15 65 48.5 95t69.5 30q24 0 47 -20.5t33 -20.5q9 0 19.5 10t15.5 31h70q-15 -64 -49.5 -93.5t-69.5 -29.5q-23 0 -47 20.5t-33 20.5z" />
    <glyph glyph-name="Ograve" unicode="&#xd2;" horiz-adv-x="787" 
d="M231 343q-17 -95 35.5 -161t145.5 -66t169.5 66t93.5 161t-35.5 161.5t-145.5 66.5q-94 0 -170.5 -66.5t-92.5 -161.5zM104 343q26 147 145 250.5t266 103.5t230.5 -103.5t57.5 -250.5q-26 -146 -146.5 -249.5t-266.5 -103.5t-229 103.5t-57 249.5zM371 929h128l76 -163
h-95z" />
    <glyph glyph-name="Oacute" unicode="&#xd3;" horiz-adv-x="787" 
d="M231 343q16 95 92.5 161.5t170.5 66.5q93 0 145.5 -66.5t35.5 -161.5t-93.5 -161t-169.5 -66t-145.5 66t-35.5 161zM104 343q-26 -146 57 -249.5t229 -103.5t266.5 103.5t146.5 249.5q26 147 -57.5 250.5t-230.5 103.5t-266 -103.5t-145 -250.5zM607 929h128l-167 -163
h-95z" />
    <glyph glyph-name="Ocircumflex" unicode="&#xd4;" horiz-adv-x="787" 
d="M231 343q-17 -95 35.5 -161t145.5 -66t169.5 66t93.5 161t-35.5 161.5t-145.5 66.5q-94 0 -170.5 -66.5t-92.5 -161.5zM104 343q26 147 145 250.5t266 103.5t230.5 -103.5t57.5 -250.5q-26 -146 -146.5 -249.5t-266.5 -103.5t-229 103.5t-57 249.5zM495 932h123l81 -163
h-94l-61 88l-93 -88h-94z" />
    <glyph glyph-name="Otilde" unicode="&#xd5;" horiz-adv-x="787" 
d="M231 343q-17 -95 35.5 -161t145.5 -66t169.5 66t93.5 161t-35.5 161.5t-145.5 66.5q-94 0 -170.5 -66.5t-92.5 -161.5zM104 343q26 147 145 250.5t266 103.5t230.5 -103.5t57.5 -250.5q-26 -146 -146.5 -249.5t-266.5 -103.5t-229 103.5t-57 249.5zM495 829q-8 0 -19 -11
t-14 -32h-70q14 65 48 95t70 30q24 0 46.5 -20.5t32.5 -20.5q8 0 19.5 10t16.5 31h70q-16 -64 -50 -93.5t-69 -29.5q-23 0 -47.5 20.5t-33.5 20.5z" />
    <glyph glyph-name="Odieresis" unicode="&#xd6;" horiz-adv-x="787" 
d="M231 343q16 95 92.5 161.5t170.5 66.5q93 0 145.5 -66.5t35.5 -161.5t-93.5 -161t-169.5 -66t-145.5 66t-35.5 161zM104 343q-26 -146 57 -249.5t229 -103.5t266.5 103.5t146.5 249.5q26 147 -57.5 250.5t-230.5 103.5t-266 -103.5t-145 -250.5zM389 854q5 28 28 46.5
t52 18.5q28 0 45 -19t12 -46t-28.5 -46t-51.5 -19q-29 0 -45.5 18.5t-11.5 46.5zM563 854q5 28 28 46.5t52 18.5t45.5 -18.5t11.5 -46.5t-28 -46.5t-52 -18.5t-45.5 18.5t-11.5 46.5z" />
    <glyph glyph-name="multiply" unicode="&#xd7;" horiz-adv-x="492" 
d="M360 264l98 -119l-80 -69l-99 119l-139 -117l-55 68l139 118l-98 119l80 67l98 -118l142 120l55 -69z" />
    <glyph glyph-name="Oslash" unicode="&#xd8;" horiz-adv-x="785" 
d="M183 66l-94 -82l-39 47l96 82q-67 97 -43 230q26 148 145.5 251t265.5 103q128 0 209 -81l93 81l39 -46l-94 -82q63 -99 41 -226q-26 -146 -146.5 -249.5t-266.5 -103.5q-113 0 -191 65q-3 2 -8 5.5t-7 5.5zM229 343q-13 -78 21 -139l367 321q-48 46 -124 46
q-94 0 -170.5 -66.5t-93.5 -161.5zM411 116q93 0 169.5 66t93.5 161q13 74 -20 134l-365 -319q47 -42 122 -42z" />
    <glyph glyph-name="Ugrave" unicode="&#xd9;" horiz-adv-x="681" 
d="M360 111q54 0 100 37t56 95l79 446h127l-79 -446q-20 -112 -108.5 -182.5t-196.5 -70.5q-109 0 -173.5 70.5t-44.5 182.5l80 446h130l-80 -446q-9 -58 23.5 -95t86.5 -37zM346 929h128l76 -163h-95z" />
    <glyph glyph-name="Uacute" unicode="&#xda;" horiz-adv-x="681" 
d="M360 111q54 0 100 37t56 95l79 446h127l-79 -446q-20 -112 -108.5 -182.5t-196.5 -70.5q-109 0 -173.5 70.5t-44.5 182.5l80 446h130l-80 -446q-9 -58 23.5 -95t86.5 -37zM524 929h128l-167 -163h-95z" />
    <glyph glyph-name="Ucircumflex" unicode="&#xdb;" horiz-adv-x="681" 
d="M360 111q54 0 100 37t56 95l79 446h127l-79 -446q-20 -112 -108.5 -182.5t-196.5 -70.5q-109 0 -173.5 70.5t-44.5 182.5l80 446h130l-80 -446q-9 -58 23.5 -95t86.5 -37zM442 932h123l81 -163h-94l-61 88l-93 -88h-94z" />
    <glyph glyph-name="Udieresis" unicode="&#xdc;" horiz-adv-x="681" 
d="M360 111q54 0 100 37t56 95l79 446h127l-79 -446q-20 -112 -108.5 -182.5t-196.5 -70.5q-109 0 -173.5 70.5t-44.5 182.5l80 446h130l-80 -446q-9 -58 23.5 -95t86.5 -37zM335 854q5 28 28.5 46.5t52.5 18.5q28 0 44.5 -19t11.5 -46q-5 -28 -28 -46.5t-51 -18.5
q-29 0 -46 19t-12 46zM509 854q5 28 28.5 46.5t52.5 18.5t45 -18.5t11 -46.5t-28 -46.5t-51 -18.5q-29 0 -46 19t-12 46z" />
    <glyph glyph-name="Yacute" unicode="&#xdd;" horiz-adv-x="644" 
d="M387 0h-131l55 314l-198 375h152l131 -265l225 265h153l-332 -377zM517 929h128l-167 -163h-95z" />
    <glyph glyph-name="Thorn" unicode="&#xde;" horiz-adv-x="573" 
d="M479 351q9 50 -15.5 80.5t-64.5 30.5h-105l-39 -220h108q40 0 73.5 30t42.5 79zM348 130h-113l-22 -130h-127l121 689h127l-21 -116h113q93 0 145.5 -60.5t34.5 -159.5t-91.5 -161t-166.5 -62z" />
    <glyph glyph-name="germandbls" unicode="&#xdf;" 
d="M222 2l38 115q31 -8 59 -8q49 0 86.5 34.5t45.5 80.5q7 42 -16.5 78.5t-78.5 36.5h-31l18 104h24q30 0 52 21t27 52q5 30 -13.5 49.5t-54.5 19.5q-38 0 -66.5 -25.5t-41.5 -98.5l-81 -461h-120l87 490q17 97 82.5 152t154.5 55t137.5 -48.5t35.5 -119.5q-15 -80 -85 -122
q47 -25 71.5 -75t12.5 -114q-17 -99 -89 -163.5t-178 -64.5q-37 0 -76 12z" />
    <glyph glyph-name="agrave" unicode="&#xe0;" horiz-adv-x="614" 
d="M423 0l9 60q-26 -33 -71 -51t-84 -18q-96 0 -155.5 67.5t-40.5 175.5q20 108 102.5 175.5t178.5 67.5q38 0 76.5 -16.5t55.5 -51.5l11 58h122l-82 -467h-122zM207 234q-9 -55 23 -90.5t84 -35.5t96 34.5t54 91.5q10 58 -22.5 92t-83.5 34q-52 0 -97 -35.5t-54 -90.5z
M279 707h128l76 -163h-95z" />
    <glyph glyph-name="aacute" unicode="&#xe1;" horiz-adv-x="614" 
d="M423 0l9 60q-26 -33 -71 -51t-84 -18q-96 0 -155.5 67.5t-40.5 175.5q20 108 102.5 175.5t178.5 67.5q38 0 76.5 -16.5t55.5 -51.5l11 58h122l-82 -467h-122zM207 234q-9 -55 23 -90.5t84 -35.5t96 34.5t54 91.5q10 58 -22.5 92t-83.5 34q-52 0 -97 -35.5t-54 -90.5z
M449 707h128l-167 -163h-95z" />
    <glyph glyph-name="acircumflex" unicode="&#xe2;" horiz-adv-x="614" 
d="M423 0l9 60q-26 -33 -71 -51t-84 -18q-96 0 -155.5 67.5t-40.5 175.5q20 108 102.5 175.5t178.5 67.5q38 0 76.5 -16.5t55.5 -51.5l11 58h122l-82 -467h-122zM207 234q-9 -55 23 -90.5t84 -35.5t96 34.5t54 91.5q10 58 -22.5 92t-83.5 34q-52 0 -97 -35.5t-54 -90.5z
M370 710h123l82 -163h-94l-64 88l-90 -88h-94z" />
    <glyph glyph-name="atilde" unicode="&#xe3;" horiz-adv-x="614" 
d="M423 0l9 60q-26 -33 -71 -51t-84 -18q-96 0 -155.5 67.5t-40.5 175.5q20 108 102.5 175.5t178.5 67.5q38 0 76.5 -16.5t55.5 -51.5l11 58h122l-82 -467h-122zM207 234q-9 -55 23 -90.5t84 -35.5t96 34.5t54 91.5q10 58 -22.5 92t-83.5 34q-52 0 -97 -35.5t-54 -90.5z
M371 607q-8 0 -19 -11t-15 -32h-70q15 65 48 95t69 30q24 0 47.5 -20.5t33.5 -20.5q9 0 19.5 10t14.5 31h70q-14 -64 -48 -93.5t-69 -29.5q-23 0 -47.5 20.5t-33.5 20.5z" />
    <glyph glyph-name="adieresis" unicode="&#xe4;" horiz-adv-x="614" 
d="M423 0l9 60q-26 -33 -71 -51t-84 -18q-96 0 -155.5 67.5t-40.5 175.5q20 108 102.5 175.5t178.5 67.5q38 0 76.5 -16.5t55.5 -51.5l11 58h122l-82 -467h-122zM207 234q-9 -55 23 -90.5t84 -35.5t96 34.5t54 91.5q10 58 -22.5 92t-83.5 34q-52 0 -97 -35.5t-54 -90.5z
M264 632q5 28 28 46.5t52 18.5q28 0 45 -19t12 -46q-5 -28 -28 -46.5t-51 -18.5q-29 0 -46 19t-12 46zM438 632q5 28 28 46.5t52 18.5t45.5 -18.5t11.5 -46.5t-28 -46.5t-51 -18.5q-29 0 -46 19t-12 46z" />
    <glyph glyph-name="aring" unicode="&#xe5;" horiz-adv-x="614" 
d="M423 0l9 60q-26 -33 -71 -51t-84 -18q-96 0 -155.5 67.5t-40.5 175.5q20 108 102.5 175.5t178.5 67.5q38 0 76.5 -16.5t55.5 -51.5l11 58h122l-82 -467h-122zM207 234q-9 -55 23 -90.5t84 -35.5t96 34.5t54 91.5q10 58 -22.5 92t-83.5 34q-52 0 -97 -35.5t-54 -90.5z
M308 654q9 49 48 83t86 34q50 0 78 -34t19 -83q-9 -48 -49 -81t-89 -33q-47 0 -74.5 33t-18.5 81zM365 654q-4 -24 9.5 -40.5t36.5 -16.5q25 0 45.5 16.5t24.5 40.5q4 25 -10 42t-39 17q-23 0 -43 -17t-24 -42z" />
    <glyph glyph-name="ae" unicode="&#xe6;" horiz-adv-x="993" 
d="M648 276h240q3 46 -25 72.5t-75 26.5q-49 0 -86.5 -26t-53.5 -73zM207 234q-9 -55 23 -90.5t84 -35.5t96 34.5t54 91.5q10 58 -22.5 92t-83.5 34q-52 0 -97 -35.5t-54 -90.5zM999 235q-4 -23 -9 -42h-356q-2 -46 28.5 -73t82.5 -27q37 0 72.5 15.5t55.5 44.5
q32 -20 85 -50q-41 -57 -105 -85t-133 -28q-57 0 -102 23t-69 64l-13 -77h-113l9 60q-26 -33 -71 -51t-84 -18q-96 0 -155.5 67.5t-40.5 175.5q20 108 102.5 175.5t178.5 67.5q38 0 76.5 -16.5t55.5 -51.5l11 58h113l-12 -75q80 85 200 85q102 0 157 -67t36 -175z" />
    <glyph glyph-name="ccedilla" unicode="&#xe7;" horiz-adv-x="522" 
d="M318 -8l21 -57q5 -15 0 -46q-8 -41 -44.5 -71.5t-79.5 -30.5q-42 0 -66.5 32.5t-13.5 87.5l68 -4q-2 -13 1 -25q7 -28 39 -20q15 5 21.5 18t3.5 28l-16 89q-90 12 -140 78.5t-32 163.5q19 107 105 174.5t190 67.5q59 0 106.5 -24t72.5 -67l-111 -73q-25 46 -88 46
q-53 0 -98.5 -34.5t-55.5 -89.5t23 -91.5t86 -36.5q63 0 105 47l85 -72q-74 -79 -182 -90z" />
    <glyph glyph-name="egrave" unicode="&#xe8;" horiz-adv-x="553" 
d="M559 235q-4 -23 -9 -42h-356q-3 -46 28 -73t83 -27q37 0 72.5 15.5t55.5 44.5q45 -28 84 -50q-41 -57 -105 -85t-133 -28q-102 0 -160 68.5t-39 176.5t101 175t184 67t157.5 -67t36.5 -175zM208 276h240q2 47 -26 73t-74 26q-49 0 -86.5 -26t-53.5 -73zM236 707h128
l76 -163h-95z" />
    <glyph glyph-name="eacute" unicode="&#xe9;" horiz-adv-x="553" 
d="M559 235q19 108 -36.5 175t-157.5 67t-184 -67t-101 -175t39 -176.5t160 -68.5q69 0 133 28t105 85q-39 22 -84 50q-20 -29 -55.5 -44.5t-72.5 -15.5q-52 0 -83 27t-28 73h356q5 19 9 42zM208 276q16 47 53.5 73t86.5 26q46 0 74 -26t26 -73h-240zM456 707h128l-167 -163
h-95z" />
    <glyph glyph-name="ecircumflex" unicode="&#xea;" horiz-adv-x="553" 
d="M559 235q-4 -23 -9 -42h-356q-3 -46 28 -73t83 -27q37 0 72.5 15.5t55.5 44.5q45 -28 84 -50q-41 -57 -105 -85t-133 -28q-102 0 -160 68.5t-39 176.5t101 175t184 67t157.5 -67t36.5 -175zM208 276h240q2 47 -26 73t-74 26q-49 0 -86.5 -26t-53.5 -73zM341 710h123
l82 -163h-94l-64 88l-90 -88h-94z" />
    <glyph glyph-name="edieresis" unicode="&#xeb;" horiz-adv-x="553" 
d="M559 235q19 108 -36.5 175t-157.5 67t-184 -67t-101 -175t39 -176.5t160 -68.5q69 0 133 28t105 85q-39 22 -84 50q-20 -29 -55.5 -44.5t-72.5 -15.5q-52 0 -83 27t-28 73h356q5 19 9 42zM208 276q16 47 53.5 73t86.5 26q46 0 74 -26t26 -73h-240zM235 632q5 28 28 46.5
t52 18.5q28 0 45 -19t12 -46q-5 -28 -28 -46.5t-51 -18.5q-29 0 -46 19t-12 46zM409 632q5 28 28 46.5t52 18.5t45.5 -18.5t11.5 -46.5t-28 -46.5t-51 -18.5q-29 0 -46 19t-12 46z" />
    <glyph glyph-name="igrave" unicode="&#xec;" horiz-adv-x="259" 
d="M151 467h121l-82 -467h-121zM79 707h128l76 -163h-95z" />
    <glyph glyph-name="iacute" unicode="&#xed;" horiz-adv-x="259" 
d="M272 467h-121l-82 -467h121zM298 707h128l-167 -163h-95z" />
    <glyph glyph-name="icircumflex" unicode="&#xee;" horiz-adv-x="259" 
d="M150 467h121l-81 -467h-121zM192 710h123l82 -163h-94l-64 88l-90 -88h-94z" />
    <glyph glyph-name="idieresis" unicode="&#xef;" horiz-adv-x="259" 
d="M272 467h-121l-82 -467h121zM85 632q5 28 28.5 46.5t52.5 18.5q28 0 44.5 -19t11.5 -46q-5 -28 -28 -46.5t-51 -18.5q-29 0 -46 19t-12 46zM259 632q5 28 28.5 46.5t52.5 18.5t45 -18.5t11 -46.5t-28 -46.5t-51 -18.5q-29 0 -46 19t-12 46z" />
    <glyph glyph-name="eth" unicode="&#xf0;" 
d="M425 588l121 -209q34 -59 19 -145q-19 -108 -101 -176t-184 -68t-160.5 68t-39.5 176q18 98 90 163t163 72q20 2 44 -3l-49 76l-92 -43l-22 48l86 41l-57 101h123l32 -56l87 39l28 -43zM302 109q52 0 93.5 34.5t51.5 90.5q10 55 -20 88.5t-83 33.5q-52 0 -93.5 -33.5
t-50.5 -88.5q-10 -56 20 -90.5t82 -34.5z" />
    <glyph glyph-name="ntilde" unicode="&#xf1;" 
d="M234 249l-43 -249h-122l82 467h122l-12 -69q25 36 68 57.5t85 21.5q83 0 119 -51.5t19 -149.5l-48 -276h-122l44 254q9 50 -10 77t-60 27q-45 0 -78 -26t-44 -83zM346 607q-8 0 -18.5 -11t-15.5 -32h-70q15 65 48.5 95t69.5 30q24 0 47.5 -20.5t33.5 -20.5q9 0 19.5 10
t14.5 31h70q-14 -64 -48.5 -93.5t-69.5 -29.5q-23 0 -47.5 20.5t-33.5 20.5z" />
    <glyph glyph-name="ograve" unicode="&#xf2;" horiz-adv-x="566" 
d="M302 110q51 0 92 34.5t51 90.5q10 54 -19.5 88t-81.5 34q-51 0 -92 -34t-51 -88q-10 -56 19.5 -90.5t81.5 -34.5zM281 -9q-102 0 -161 68t-40 176t101.5 175t184.5 67t160.5 -67t39.5 -175t-101.5 -176t-183.5 -68zM239 707h128l76 -163h-95z" />
    <glyph glyph-name="oacute" unicode="&#xf3;" horiz-adv-x="566" 
d="M302 110q-52 0 -81.5 34.5t-19.5 90.5q10 54 51 88t92 34q52 0 81.5 -34t19.5 -88q-10 -56 -51 -90.5t-92 -34.5zM281 -9q101 0 183.5 68t101.5 176t-39.5 175t-160.5 67t-184.5 -67t-101.5 -175t40 -176t161 -68zM448 707h128l-167 -163h-95z" />
    <glyph glyph-name="ocircumflex" unicode="&#xf4;" horiz-adv-x="566" 
d="M302 110q51 0 92 34.5t51 90.5q10 54 -19.5 88t-81.5 34q-51 0 -92 -34t-51 -88q-10 -56 19.5 -90.5t81.5 -34.5zM281 -9q-102 0 -161 68t-40 176t101.5 175t184.5 67t160.5 -67t39.5 -175t-101.5 -176t-183.5 -68zM345 710h123l82 -163h-94l-64 88l-90 -88h-94z" />
    <glyph glyph-name="otilde" unicode="&#xf5;" horiz-adv-x="566" 
d="M302 110q51 0 92 34.5t51 90.5q10 54 -19.5 88t-81.5 34q-51 0 -92 -34t-51 -88q-10 -56 19.5 -90.5t81.5 -34.5zM281 -9q-102 0 -161 68t-40 176t101.5 175t184.5 67t160.5 -67t39.5 -175t-101.5 -176t-183.5 -68zM345 607q-8 0 -19 -11t-15 -32h-70q15 65 48.5 95
t69.5 30q24 0 47 -20.5t33 -20.5q9 0 19.5 10t15.5 31h70q-15 -64 -49 -93.5t-69 -29.5q-23 0 -47.5 20.5t-33.5 20.5z" />
    <glyph glyph-name="odieresis" unicode="&#xf6;" horiz-adv-x="566" 
d="M302 110q-52 0 -81.5 34.5t-19.5 90.5q10 54 51 88t92 34q52 0 81.5 -34t19.5 -88q-10 -56 -51 -90.5t-92 -34.5zM281 -9q101 0 183.5 68t101.5 176t-39.5 175t-160.5 67t-184.5 -67t-101.5 -175t40 -176t161 -68zM238 632q5 28 28 46.5t52 18.5q28 0 45 -19t12 -46
q-5 -28 -28 -46.5t-51 -18.5q-29 0 -46 19t-12 46zM412 632q5 28 28 46.5t52 18.5t45.5 -18.5t11.5 -46.5t-28 -46.5t-51 -18.5q-29 0 -46 19t-12 46z" />
    <glyph glyph-name="divide" unicode="&#xf7;" 
d="M220 66q5 30 30.5 50.5t56.5 20.5q30 0 48 -20.5t13 -50.5t-30.5 -50.5t-55.5 -20.5t-48.5 20.5t-13.5 50.5zM285 432q5 30 30.5 50t56.5 20q30 0 48 -20t13 -50q-5 -31 -30.5 -51t-56.5 -20t-48.5 20t-12.5 51zM90 202h455l16 91h-455z" />
    <glyph glyph-name="oslash" unicode="&#xf8;" horiz-adv-x="566" 
d="M281 -10q-82 0 -134 43l-69 -59l-39 47l66 58q-41 63 -25 155q19 108 102 175.5t185 67.5q83 0 141 -49l61 53l39 -46l-61 -53q34 -64 20 -148q-19 -108 -101.5 -176t-184.5 -68zM345 357q-51 0 -92 -34.5t-51 -88.5q-7 -43 5 -67l199 173q-28 17 -61 17zM302 109
q51 0 92.5 34.5t51.5 90.5q6 33 -3 58l-196 -170q25 -13 55 -13z" />
    <glyph glyph-name="ugrave" unicode="&#xf9;" 
d="M260 707h127l77 -163h-96zM414 218l44 249h122l-82 -467h-122l11 66q-25 -36 -65 -56t-78 -20q-85 0 -125.5 52t-22.5 149l49 276h123l-45 -254q-9 -53 12.5 -78.5t58.5 -25.5q43 0 76.5 26.5t43.5 82.5z" />
    <glyph glyph-name="uacute" unicode="&#xfa;" 
d="M437 707h128l-167 -163h-96zM414 218l44 249h122l-82 -467h-122l11 66q-25 -36 -65 -56t-78 -20q-85 0 -125.5 52t-22.5 149l49 276h123l-45 -254q-9 -53 12.5 -78.5t58.5 -25.5q43 0 76.5 26.5t43.5 82.5z" />
    <glyph glyph-name="ucircumflex" unicode="&#xfb;" 
d="M341 710h123l81 -163h-94l-63 88l-91 -88h-94zM414 218l44 249h122l-82 -467h-122l11 66q-25 -36 -65 -56t-78 -20q-85 0 -125.5 52t-22.5 149l49 276h123l-45 -254q-9 -53 12.5 -78.5t58.5 -25.5q43 0 76.5 26.5t43.5 82.5z" />
    <glyph glyph-name="udieresis" unicode="&#xfc;" 
d="M236 635q4 27 28 46t53 19q28 0 43.5 -18.5t11.5 -46.5t-26.5 -46.5t-50.5 -18.5q-29 0 -46 19t-13 46zM410 635q4 27 28 46t53 19q28 0 44 -18.5t12 -46.5t-27 -46.5t-51 -18.5q-29 0 -46 19t-13 46zM414 218l44 249h122l-82 -467h-122l11 66q-25 -36 -65 -56t-78 -20
q-85 0 -125.5 52t-22.5 149l49 276h123l-45 -254q-9 -53 12.5 -78.5t58.5 -25.5q43 0 76.5 26.5t43.5 82.5z" />
    <glyph glyph-name="yacute" unicode="&#xfd;" horiz-adv-x="511" 
d="M171 -228l413 695h-130l-169 -291l-64 291h-130l105 -431l-154 -264h129zM398 707h128l-167 -163h-95z" />
    <glyph glyph-name="thorn" unicode="&#xfe;" horiz-adv-x="603" 
d="M232 235q-10 -58 20 -93t82 -35q51 0 92.5 35.5t51.5 92.5q10 55 -19 90t-80 35q-50 0 -93.5 -34t-53.5 -91zM148 -227h-121l169 948h121l-55 -311q26 31 68 49t87 18q96 0 151 -67.5t35 -176.5q-19 -108 -98 -175.5t-175 -67.5q-44 0 -80 18t-51 50z" />
    <glyph glyph-name="ydieresis" unicode="&#xff;" horiz-adv-x="511" 
d="M171 -228l413 695h-130l-169 -291l-64 291h-130l105 -431l-154 -264h129zM214 632q5 28 28.5 46.5t52.5 18.5q28 0 44.5 -19t11.5 -46q-5 -28 -28 -46.5t-51 -18.5q-29 0 -46 19t-12 46zM388 632q5 28 28.5 46.5t52.5 18.5t45 -18.5t11 -46.5t-28 -46.5t-51 -18.5
q-29 0 -46 19t-12 46z" />
    <glyph glyph-name="Amacron" unicode="&#x100;" horiz-adv-x="654" 
d="M519 0l-34 167h-257l-92 -167h-136l379 689h138l137 -689h-135zM423 542l-132 -263h172zM334 807l15 83h269l-15 -83h-269z" />
    <glyph glyph-name="amacron" unicode="&#x101;" horiz-adv-x="614" 
d="M423 0l9 60q-26 -33 -71 -51t-84 -18q-96 0 -155.5 67.5t-40.5 175.5q20 108 102.5 175.5t178.5 67.5q38 0 76.5 -16.5t55.5 -51.5l11 58h122l-82 -467h-122zM207 234q-9 -55 23 -90.5t84 -35.5t96 34.5t54 91.5q10 58 -22.5 92t-83.5 34q-52 0 -97 -35.5t-54 -90.5z
M276 585l15 83h269l-15 -83h-269z" />
    <glyph glyph-name="Abreve" unicode="&#x102;" horiz-adv-x="654" 
d="M485 167l34 -167h135l-137 689h-138l-379 -689h136l92 167h257zM291 279l132 263l40 -263h-172zM354 909h82q-11 -55 41 -55q25 0 41 16t20 39h83q-10 -59 -54 -94.5t-104 -35.5q-65 0 -92 38t-17 92z" />
    <glyph glyph-name="abreve" unicode="&#x103;" horiz-adv-x="614" 
d="M423 0l9 60q-26 -33 -71 -51t-84 -18q-96 0 -155.5 67.5t-40.5 175.5q20 108 102.5 175.5t178.5 67.5q38 0 76.5 -16.5t55.5 -51.5l11 58h122l-82 -467h-122zM207 234q-9 -55 23 -90.5t84 -35.5t96 34.5t54 91.5q10 58 -22.5 92t-83.5 34q-52 0 -97 -35.5t-54 -90.5z
M296 687h82q-11 -55 40 -55q25 0 41.5 16t20.5 39h83q-10 -59 -53.5 -94.5t-103.5 -35.5q-65 0 -92.5 38t-17.5 92z" />
    <glyph glyph-name="Aogonek" unicode="&#x104;" horiz-adv-x="654" 
d="M518 0l-33 167h-257l-92 -167h-136l379 689h138l137 -689h-72l-53 -96q-17 -35 8 -46q31 -9 48 20l9 25l70 4q-10 -55 -46 -87.5t-78 -32.5q-44 0 -69.5 31t-17.5 71q4 28 18 46zM423 542l-132 -263h172z" />
    <glyph glyph-name="aogonek" unicode="&#x105;" horiz-adv-x="614" 
d="M423 0l9 60q-26 -33 -71 -51t-84 -18q-96 0 -155.5 67.5t-40.5 175.5q20 108 102.5 175.5t178.5 67.5q38 0 76.5 -16.5t55.5 -51.5l11 58h122l-82 -467h-58l-53 -96q-7 -14 -5 -27.5t14 -18.5q13 -4 26.5 1.5t20.5 18.5l9 25l70 4q-10 -55 -46 -87.5t-78 -32.5
q-44 0 -69 31t-17 71q5 29 17 46zM207 234q-9 -55 23 -90.5t84 -35.5t96 34.5t54 91.5q10 58 -22.5 92t-83.5 34q-52 0 -97 -35.5t-54 -90.5z" />
    <glyph glyph-name="Cacute" unicode="&#x106;" horiz-adv-x="693" 
d="M605 204q-83 -93 -195 -93q-93 0 -144 67.5t-34 164.5q17 98 92 165.5t168 67.5q107 0 159 -88l116 73q-36 64 -102 100t-152 36q-146 0 -264.5 -103t-144.5 -251q-26 -147 56 -250t228 -103q88 0 167.5 37.5t136.5 102.5zM601 929h128l-167 -163h-95z" />
    <glyph glyph-name="cacute" unicode="&#x107;" horiz-adv-x="520" 
d="M79 235q19 107 105 174.5t190 67.5q59 0 106.5 -24t72.5 -67l-111 -73q-25 46 -89 46q-53 0 -98 -34.5t-55 -89.5t23 -91.5t86 -36.5q61 0 105 47l85 -72q-86 -92 -211 -92q-104 0 -166 69t-43 176zM468 707h128l-167 -163h-95z" />
    <glyph glyph-name="Ccircumflex" unicode="&#x108;" horiz-adv-x="693" 
d="M605 204l87 -74q-57 -65 -136.5 -102.5t-167.5 -37.5q-146 0 -228 103t-56 250q26 148 144.5 251t264.5 103q86 0 152 -36t102 -100l-116 -73q-52 88 -159 88q-93 0 -168 -67.5t-92 -165.5q-17 -97 34 -164.5t144 -67.5q112 0 195 93zM492 932h123l81 -163h-94l-61 88
l-93 -88h-94z" />
    <glyph glyph-name="ccircumflex" unicode="&#x109;" horiz-adv-x="520" 
d="M79 235q19 107 105 174.5t190 67.5q59 0 106.5 -24t72.5 -67l-111 -73q-25 46 -89 46q-53 0 -98 -34.5t-55 -89.5t23 -91.5t86 -36.5q61 0 105 47l85 -72q-86 -92 -211 -92q-104 0 -166 69t-43 176zM347 710h123l82 -163h-94l-64 88l-90 -88h-94z" />
    <glyph glyph-name="Cdotaccent" unicode="&#x10a;" horiz-adv-x="693" 
d="M605 204q-83 -93 -195 -93q-93 0 -144 67.5t-34 164.5q17 98 92 165.5t168 67.5q107 0 159 -88l116 73q-36 64 -102 100t-152 36q-146 0 -264.5 -103t-144.5 -251q-26 -147 56 -250t228 -103q88 0 167.5 37.5t136.5 102.5zM463 850q5 29 30 49t55 20q31 0 48 -20t12 -49
q-6 -31 -30 -50.5t-55 -19.5q-30 0 -48 20t-12 50z" />
    <glyph glyph-name="cdotaccent" unicode="&#x10b;" horiz-adv-x="520" 
d="M79 235q19 107 105 174.5t190 67.5q59 0 106.5 -24t72.5 -67l-111 -73q-25 46 -89 46q-53 0 -98 -34.5t-55 -89.5t23 -91.5t86 -36.5q61 0 105 47l85 -72q-86 -92 -211 -92q-104 0 -166 69t-43 176zM329 628q5 29 29.5 49t54.5 20q31 0 48.5 -20t12.5 -49
q-6 -31 -30 -50.5t-55 -19.5q-30 0 -48 20t-12 50z" />
    <glyph glyph-name="Ccaron" unicode="&#x10c;" horiz-adv-x="693" 
d="M605 204q-83 -93 -195 -93q-93 0 -144 67.5t-34 164.5q17 98 92 165.5t168 67.5q107 0 159 -88l116 73q-36 64 -102 100t-152 36q-146 0 -264.5 -103t-144.5 -251q-26 -147 56 -250t228 -103q88 0 167.5 37.5t136.5 102.5zM456 766l-80 163h94l61 -89l93 89h94l-139 -163
h-123z" />
    <glyph glyph-name="ccaron" unicode="&#x10d;" horiz-adv-x="520" 
d="M79 235q19 107 105 174.5t190 67.5q59 0 106.5 -24t72.5 -67l-111 -73q-25 46 -89 46q-53 0 -98 -34.5t-55 -89.5t23 -91.5t86 -36.5q61 0 105 47l85 -72q-86 -92 -211 -92q-104 0 -166 69t-43 176zM314 544l-80 163h94l61 -89l93 89h94l-139 -163h-123z" />
    <glyph glyph-name="Dcaron" unicode="&#x10e;" horiz-adv-x="714" 
d="M233 117l82 455h141q88 0 123.5 -65t18.5 -164q-17 -98 -76.5 -162t-147.5 -64h-141zM355 0q144 0 244 96t127 247t-39.5 248.5t-210.5 97.5h-269l-121 -689h269zM428 766l-80 163h94l60 -89l94 89h94l-139 -163h-123z" />
    <glyph glyph-name="dcaron" unicode="&#x10f;" horiz-adv-x="651" 
d="M416 0l10 63q-25 -34 -68.5 -53.5t-90.5 -19.5q-95 0 -150 67.5t-36 175.5q20 109 98.5 176.5t173.5 67.5q48 0 85 -19t49 -53l57 316h121l-128 -721h-121zM455 235q10 57 -21.5 91.5t-81.5 34.5q-52 0 -93.5 -35t-51.5 -91q-10 -57 19.5 -92.5t81.5 -35.5t95 35.5
t52 92.5zM727 452l-72 25q86 97 102 212h107q-18 -83 -56.5 -145t-80.5 -92z" />
    <glyph glyph-name="Dcroat" unicode="&#x110;" horiz-adv-x="722" 
d="M54 293l15 88h94l55 308h267q145 0 210.5 -97.5t38.5 -248.5t-126 -247t-244 -96h-267l51 293h-94zM275 293l-31 -174h140q88 0 147 63t76 161t-18.5 162.5t-123.5 64.5h-140l-35 -189h138l-15 -88h-138z" />
    <glyph glyph-name="dcroat" unicode="&#x111;" horiz-adv-x="606" 
d="M366 558l12 77h149l17 86h121l-17 -86h76l-12 -77h-76l-99 -558h-121l10 63q-25 -34 -68.5 -53.5t-90.5 -19.5q-95 0 -150 67.5t-36 175.5q20 109 98.5 176.5t173.5 67.5q48 0 85 -19t49 -53l28 153h-149zM455 235q10 57 -21.5 91.5t-81.5 34.5q-52 0 -93.5 -35
t-51.5 -91q-10 -57 19.5 -92.5t81.5 -35.5t95 35.5t52 92.5z" />
    <glyph glyph-name="Emacron" unicode="&#x112;" horiz-adv-x="572" 
d="M86 0l121 689h426l-20 -114h-299l-31 -179h262l-20 -113h-262l-30 -169h309l-20 -114h-436zM307 807l15 83h269l-15 -83h-269z" />
    <glyph glyph-name="emacron" unicode="&#x113;" horiz-adv-x="553" 
d="M559 235q-4 -23 -9 -42h-356q-3 -46 28 -73t83 -27q37 0 72.5 15.5t55.5 44.5q45 -28 84 -50q-41 -57 -105 -85t-133 -28q-102 0 -160 68.5t-39 176.5t101 175t184 67t157.5 -67t36.5 -175zM208 276h240q2 47 -26 73t-74 26q-49 0 -86.5 -26t-53.5 -73zM247 585l15 83
h269l-15 -83h-269z" />
    <glyph glyph-name="Ebreve" unicode="&#x114;" horiz-adv-x="572" 
d="M207 689l-121 -689h436l20 114h-309l30 169h262l20 113h-262l31 179h299l20 114h-426zM311 909h82q-11 -55 41 -55q25 0 41 16t20 39h83q-10 -59 -54 -94.5t-104 -35.5q-65 0 -92 38t-17 92z" />
    <glyph glyph-name="ebreve" unicode="&#x115;" horiz-adv-x="553" 
d="M559 235q19 108 -36.5 175t-157.5 67t-184 -67t-101 -175t39 -176.5t160 -68.5q69 0 133 28t105 85q-39 22 -84 50q-20 -29 -55.5 -44.5t-72.5 -15.5q-52 0 -83 27t-28 73h356q5 19 9 42zM208 276q16 47 53.5 73t86.5 26q46 0 74 -26t26 -73h-240zM268 687h82
q-13 -55 40 -55q25 0 41 16t21 39h83q-11 -59 -54.5 -94.5t-103.5 -35.5q-65 0 -92.5 38t-16.5 92z" />
    <glyph glyph-name="Edotaccent" unicode="&#x116;" horiz-adv-x="572" 
d="M207 689l-121 -689h436l20 114h-309l30 169h262l20 113h-262l31 179h299l20 114h-426zM379 850q5 29 29.5 49t54.5 20q31 0 48.5 -20t12.5 -49q-6 -31 -30.5 -50.5t-55.5 -19.5q-30 0 -47.5 20t-11.5 50z" />
    <glyph glyph-name="edotaccent" unicode="&#x117;" horiz-adv-x="553" 
d="M559 235q19 108 -36.5 175t-157.5 67t-184 -67t-101 -175t39 -176.5t160 -68.5q69 0 133 28t105 85q-39 22 -84 50q-20 -29 -55.5 -44.5t-72.5 -15.5q-52 0 -83 27t-28 73h356q5 19 9 42zM208 276q16 47 53.5 73t86.5 26q46 0 74 -26t26 -73h-240zM317 628q5 29 29.5 49
t54.5 20q31 0 48.5 -20t12.5 -49q-6 -31 -30 -50.5t-55 -19.5q-30 0 -48 20t-12 50z" />
    <glyph glyph-name="Eogonek" unicode="&#x118;" horiz-adv-x="572" 
d="M522 0l-55 -96q-17 -35 8 -46q31 -9 48 20l9 25l70 4q-10 -55 -46 -87.5t-78 -32.5q-44 0 -69.5 31t-17.5 71q4 28 18 46l47 65h-370l121 689h426l-20 -114h-299l-31 -179h262l-20 -113h-262l-30 -169h309z" />
    <glyph glyph-name="eogonek" unicode="&#x119;" horiz-adv-x="554" 
d="M365 -96q-15 -36 9 -46q13 -4 26.5 1.5t20.5 18.5l9 25l70 4q-9 -55 -45.5 -87.5t-78.5 -32.5q-44 0 -69 31t-17 71q4 28 17 46l46 64q-36 -9 -74 -9q-102 0 -160 68.5t-39 176.5t101 175t184 67t157.5 -67t36.5 -175q-4 -23 -9 -42h-356q-3 -46 28 -73t83 -27
q37 0 72.5 15.5t55.5 44.5l84 -50q-12 -16 -41 -42.5t-55.5 -62t-55.5 -94.5zM208 276h240q2 47 -26 73t-74 26q-49 0 -86.5 -26t-53.5 -73z" />
    <glyph glyph-name="Ecaron" unicode="&#x11a;" horiz-adv-x="572" 
d="M207 689l-121 -689h436l20 114h-309l30 169h262l20 113h-262l31 179h299l20 114h-426zM370 766l-80 163h94l60 -89l94 89h94l-139 -163h-123z" />
    <glyph glyph-name="ecaron" unicode="&#x11b;" horiz-adv-x="553" 
d="M559 235q19 108 -36.5 175t-157.5 67t-184 -67t-101 -175t39 -176.5t160 -68.5q69 0 133 28t105 85q-39 22 -84 50q-20 -29 -55.5 -44.5t-72.5 -15.5q-52 0 -83 27t-28 73h356q5 19 9 42zM208 276q16 47 53.5 73t86.5 26q46 0 74 -26t26 -73h-240zM313 544l-80 163h94
l61 -89l93 89h94l-139 -163h-123z" />
    <glyph glyph-name="Gcircumflex" unicode="&#x11c;" horiz-adv-x="756" 
d="M748 592l-107 -82q-54 67 -145 67q-94 0 -170.5 -68.5t-93.5 -165.5t35 -166t146 -69q73 0 135.5 40t75.5 103h-189l18 105h336q-31 -183 -136.5 -274.5t-260.5 -91.5q-147 0 -230.5 103.5t-57.5 249.5q26 148 146 251t267 103q74 0 134 -28t97 -77zM483 932h123l81 -163
h-94l-61 88l-93 -88h-94z" />
    <glyph glyph-name="gcircumflex" unicode="&#x11d;" horiz-adv-x="611" 
d="M460 234q10 58 -20.5 92t-83.5 34q-52 0 -95 -35.5t-53 -90.5q-10 -57 20.5 -92.5t82.5 -35.5q50 0 94.5 35.5t54.5 92.5zM148 -45q9 -34 41 -55.5t70 -21.5q82 0 124 52t50 134q-23 -34 -68.5 -54t-92.5 -20q-95 0 -152.5 67.5t-38.5 174.5q20 109 101 177t176 68
q47 0 85 -19.5t50 -53.5l12 63h119l-71 -400q-27 -152 -108 -226t-206 -74q-73 0 -126 37t-73 101q17 7 56.5 26t51.5 24zM369 710h123l82 -163h-94l-64 88l-90 -88h-94z" />
    <glyph glyph-name="Gbreve" unicode="&#x11e;" horiz-adv-x="756" 
d="M748 592q-37 49 -97 77t-134 28q-147 0 -267 -103t-146 -251q-26 -146 57.5 -249.5t230.5 -103.5q155 0 260.5 91.5t136.5 274.5h-336l-18 -105h189q-13 -63 -75.5 -103t-135.5 -40q-94 0 -146 69t-35 166t93.5 165.5t170.5 68.5q91 0 145 -67zM408 909h82
q-6 -26 4.5 -40.5t36.5 -14.5q25 0 40.5 16t20.5 39h83q-11 -59 -54.5 -94.5t-103.5 -35.5q-65 0 -92 38t-17 92z" />
    <glyph glyph-name="gbreve" unicode="&#x11f;" horiz-adv-x="611" 
d="M460 234q-10 -57 -54.5 -92.5t-94.5 -35.5q-52 0 -82.5 35.5t-20.5 92.5q10 55 53 90.5t95 35.5q53 0 83.5 -34t20.5 -92zM148 -45q-12 -5 -51.5 -24t-56.5 -26q20 -64 73 -101t126 -37q125 0 206 74t108 226l71 400h-119l-12 -63q-12 34 -50 53.5t-85 19.5
q-95 0 -176 -68t-101 -177q-19 -107 38.5 -174.5t152.5 -67.5q47 0 92.5 20t68.5 54q-8 -82 -50 -134t-124 -52q-38 0 -70 21.5t-41 55.5zM294 687h82q-11 -55 40 -55q25 0 41.5 16t20.5 39h83q-10 -59 -53.5 -94.5t-103.5 -35.5q-65 0 -92.5 38t-17.5 92z" />
    <glyph glyph-name="Gdotaccent" unicode="&#x120;" horiz-adv-x="756" 
d="M748 592q-37 49 -97 77t-134 28q-147 0 -267 -103t-146 -251q-26 -146 57.5 -249.5t230.5 -103.5q155 0 260.5 91.5t136.5 274.5h-336l-18 -105h189q-13 -63 -75.5 -103t-135.5 -40q-94 0 -146 69t-35 166t93.5 165.5t170.5 68.5q91 0 145 -67zM457 850q5 29 30 49t55 20
q31 0 48 -20t12 -49q-6 -31 -30 -50.5t-55 -19.5q-30 0 -48 20t-12 50z" />
    <glyph glyph-name="gdotaccent" unicode="&#x121;" horiz-adv-x="611" 
d="M460 234q-10 -57 -54.5 -92.5t-94.5 -35.5q-52 0 -82.5 35.5t-20.5 92.5q10 55 53 90.5t95 35.5q53 0 83.5 -34t20.5 -92zM148 -45q-12 -5 -51.5 -24t-56.5 -26q20 -64 73 -101t126 -37q125 0 206 74t108 226l71 400h-119l-12 -63q-12 34 -50 53.5t-85 19.5
q-95 0 -176 -68t-101 -177q-19 -107 38.5 -174.5t152.5 -67.5q47 0 92.5 20t68.5 54q-8 -82 -50 -134t-124 -52q-38 0 -70 21.5t-41 55.5zM344 628q5 29 29.5 49t54.5 20q31 0 48.5 -20t12.5 -49q-6 -31 -30 -50.5t-55 -19.5q-30 0 -48 20t-12 50z" />
    <glyph glyph-name="Gcommaaccent" unicode="&#x122;" horiz-adv-x="756" 
d="M748 592l-107 -82q-54 67 -145 67q-94 0 -170.5 -68.5t-93.5 -165.5t35 -166t146 -69q73 0 135.5 40t75.5 103h-189l18 105h336q-31 -183 -136.5 -274.5t-260.5 -91.5q-147 0 -230.5 103.5t-57.5 249.5q26 148 146 251t267 103q74 0 134 -28t97 -77zM313 -274l-58 29
q40 44 59.5 84t28.5 105h107q-33 -147 -137 -218z" />
    <glyph glyph-name="gcommaaccent" unicode="&#x123;" horiz-adv-x="611" 
d="M455 772l58 -29q-40 -45 -59 -85t-27 -103h-108q34 145 136 217zM460 234q-10 -57 -54.5 -92.5t-94.5 -35.5q-52 0 -82.5 35.5t-20.5 92.5q10 55 53 90.5t95 35.5q53 0 83.5 -34t20.5 -92zM148 -45q-12 -5 -51.5 -24t-56.5 -26q20 -64 73 -101t126 -37q125 0 206 74
t108 226l71 400h-119l-12 -63q-12 34 -50 53.5t-85 19.5q-95 0 -176 -68t-101 -177q-19 -107 38.5 -174.5t152.5 -67.5q47 0 92.5 20t68.5 54q-8 -82 -50 -134t-124 -52q-38 0 -70 21.5t-41 55.5z" />
    <glyph glyph-name="Hcircumflex" unicode="&#x124;" horiz-adv-x="704" 
d="M610 689h129l-121 -689h-129l50 285h-276l-50 -285h-127l121 689h127l-50 -289h276zM455 932h123l81 -163h-94l-62 88l-92 -88h-94z" />
    <glyph glyph-name="hcircumflex" unicode="&#x125;" horiz-adv-x="587" 
d="M234 249l-43 -249h-122l127 721h122l-58 -326q23 39 71 60.5t89 21.5q90 0 129 -57t20 -160l-45 -260h-122l44 254q9 48 -15.5 76t-64.5 28q-45 0 -83.5 -26.5t-48.5 -82.5zM234 927h123l81 -163h-94l-62 88l-92 -88h-94z" />
    <glyph glyph-name="Hbar" unicode="&#x126;" horiz-adv-x="716" 
d="M181 508h-71l13 75h71l19 106h128l-19 -106h275l19 106h129l-19 -106h71l-13 -75h-71l-89 -508h-129l50 284h-275l-50 -284h-128zM291 400h275l18 108h-275z" />
    <glyph glyph-name="hbar" unicode="&#x127;" horiz-adv-x="581" 
d="M234 249l-43 -249h-122l98 558h-74l13 77h74l16 86h122l-16 -86h142l-13 -77h-142l-29 -163q23 39 68.5 60.5t85.5 21.5q90 0 129 -57t20 -160l-45 -260h-123l44 254q9 48 -13.5 76t-61.5 28q-44 0 -82 -26.5t-48 -82.5z" />
    <glyph glyph-name="Itilde" unicode="&#x128;" horiz-adv-x="299" 
d="M86 0l121 689h127l-121 -689h-127zM252 829q-8 0 -19 -11t-15 -32h-70q15 65 48.5 95t69.5 30q24 0 47 -20.5t33 -20.5q9 0 19.5 10t15.5 31h70q-15 -64 -49.5 -93.5t-69.5 -29.5q-23 0 -47 20.5t-33 20.5z" />
    <glyph glyph-name="itilde" unicode="&#x129;" horiz-adv-x="259" 
d="M151 467h121l-82 -467h-121zM192 607q-8 0 -18.5 -11t-15.5 -32h-70q15 65 48.5 95t69.5 30q24 0 47.5 -20.5t33.5 -20.5q9 0 19.5 10t14.5 31h70q-14 -64 -48.5 -93.5t-69.5 -29.5q-23 0 -47.5 20.5t-33.5 20.5z" />
    <glyph glyph-name="Imacron" unicode="&#x12a;" horiz-adv-x="299" 
d="M86 0l121 689h127l-121 -689h-127zM157 807l15 83h269l-15 -83h-269z" />
    <glyph glyph-name="imacron" unicode="&#x12b;" horiz-adv-x="259" 
d="M151 467h121l-82 -467h-121zM99 585l14 83h269l-14 -83h-269z" />
    <glyph glyph-name="Ibreve" unicode="&#x12c;" horiz-adv-x="299" 
d="M207 689l-121 -689h127l121 689h-127zM177 909h82q-11 -55 41 -55q25 0 41 16t20 39h83q-10 -59 -54 -94.5t-104 -35.5q-65 0 -92 38t-17 92z" />
    <glyph glyph-name="ibreve" unicode="&#x12d;" horiz-adv-x="259" 
d="M272 467h-121l-82 -467h121zM118 687h82q-11 -55 40 -55q25 0 41 16t21 39h83q-11 -59 -54.5 -94.5t-103.5 -35.5q-65 0 -92.5 38t-16.5 92z" />
    <glyph glyph-name="Iogonek" unicode="&#x12e;" horiz-adv-x="299" 
d="M150 0l-53 -96q-17 -35 9 -46q13 -4 26.5 1.5t20.5 18.5l9 25l70 4q-10 -55 -46 -87.5t-78 -32.5q-44 0 -69.5 31t-17.5 71q4 28 18 46l47 65l121 689h127l-121 -689h-63z" />
    <glyph glyph-name="iogonek" unicode="&#x12f;" horiz-adv-x="259" 
d="M137 -122l9 25l70 4q-10 -55 -46 -87.5t-78 -32.5q-43 0 -68 30.5t-19 71.5q4 28 18 46l46 65l82 467h121l-82 -467h-56l-53 -96q-17 -35 9 -46q13 -4 26.5 1.5t20.5 18.5zM165 648q5 30 32.5 51.5t60.5 21.5q32 0 50 -21t13 -52t-31.5 -52.5t-58.5 -21.5q-33 0 -52 21.5
t-14 52.5z" />
    <glyph glyph-name="Idotaccent" unicode="&#x130;" horiz-adv-x="299" 
d="M207 689l-121 -689h127l121 689h-127zM227 850q5 29 29.5 49t54.5 20q31 0 48.5 -20t12.5 -49q-6 -31 -30.5 -50.5t-55.5 -19.5q-30 0 -47.5 20t-11.5 50z" />
    <glyph glyph-name="dotlessi" unicode="&#x131;" horiz-adv-x="259" 
d="M151 467h121l-82 -467h-121z" />
    <glyph glyph-name="IJ" unicode="&#x132;" horiz-adv-x="599" 
d="M86 0l121 689h127l-121 -689h-127zM160 -218l33 116q27 -10 78 -10q47 0 75.5 30.5t37.5 78.5l122 692h128l-122 -692q-18 -102 -83 -166t-179 -64q-34 0 -90 15z" />
    <glyph glyph-name="ij" unicode="&#x133;" horiz-adv-x="520" 
d="M272 467l-82 -467h-121l82 467h121zM165 648q5 30 32 51.5t60 21.5q32 0 50.5 -21t13.5 -52t-31.5 -52.5t-58.5 -21.5q-33 0 -52 21.5t-14 52.5zM158 -233l20 112h59q71 0 84 88l89 500h123l-89 -498q-35 -202 -209 -202h-77zM425 648q5 30 32 51.5t59 21.5
q33 0 51.5 -21t13.5 -52t-31.5 -52.5t-59.5 -21.5q-32 0 -51 21.5t-14 52.5z" />
    <glyph glyph-name="Jcircumflex" unicode="&#x134;" horiz-adv-x="300" 
d="M-137 -218l33 116q28 -10 78 -10q46 0 74 30.5t37 78.5l122 692h129l-123 -692q-18 -102 -83 -166t-177 -64q-34 0 -90 15zM251 932h123l81 -163h-94l-62 88l-92 -88h-94z" />
    <glyph glyph-name="jcircumflex" unicode="&#x135;" horiz-adv-x="261" 
d="M-99 -233l20 112h59q69 0 82 88l89 500h123l-89 -498q-35 -202 -207 -202h-77zM201 710h123l81 -163h-94l-63 88l-91 -88h-94z" />
    <glyph glyph-name="Kcommaaccent" unicode="&#x136;" horiz-adv-x="598" 
d="M348 347l264 -347h-167l-185 255l-45 -255h-129l121 689h129l-44 -251l229 251h150zM237 -274l-59 29q41 45 60 85t28 104h107q-33 -147 -136 -218z" />
    <glyph glyph-name="kcommaaccent" unicode="&#x137;" horiz-adv-x="519" 
d="M366 0l-141 200l-35 -200h-121l127 721h121l-70 -394l154 140h158l-233 -205l193 -262h-153zM197 -274l-59 29q41 45 60 85t28 104h107q-33 -147 -136 -218z" />
    <glyph glyph-name="kgreenlandic" unicode="&#x138;" horiz-adv-x="498" 
d="M340 0l-123 159l-27 -159h-121l82 467h121l-27 -154l157 154h147l-244 -230l189 -237h-154z" />
    <glyph glyph-name="Lacute" unicode="&#x139;" horiz-adv-x="506" 
d="M207 689l-121 -689h394l20 114h-266l101 575h-128zM360 929h128l-167 -163h-95z" />
    <glyph glyph-name="lacute" unicode="&#x13a;" horiz-adv-x="260" 
d="M196 721l-127 -721h122l127 721h-122zM343 929h128l-167 -163h-95z" />
    <glyph glyph-name="Lcommaaccent" unicode="&#x13b;" horiz-adv-x="506" 
d="M86 0l121 689h128l-101 -575h266l-20 -114h-394zM186 -274l-59 29q41 45 60 85t28 104h107q-33 -147 -136 -218z" />
    <glyph glyph-name="lcommaaccent" unicode="&#x13c;" horiz-adv-x="260" 
d="M69 0l127 721h122l-127 -721h-122zM36 -274l-57 29q39 44 58 84t28 105h107q-33 -147 -136 -218z" />
    <glyph glyph-name="Lcaron" unicode="&#x13d;" horiz-adv-x="508" 
d="M86 0l121 689h128l-101 -575h266l-20 -114h-394zM436 452l-71 25q86 97 102 212h107q-19 -84 -57.5 -145.5t-80.5 -91.5z" />
    <glyph glyph-name="lcaron" unicode="&#x13e;" horiz-adv-x="260" 
d="M385 484l-70 25q85 95 102 212h107q-19 -84 -57.5 -145.5t-81.5 -91.5zM196 721l-127 -721h122l127 721h-122z" />
    <glyph glyph-name="Ldot" unicode="&#x13f;" horiz-adv-x="506" 
d="M86 0l121 689h128l-101 -575h266l-20 -114h-394zM320 313q5 32 32 54t59 22q33 0 52.5 -21.5t14.5 -54.5q-5 -32 -32.5 -54t-61.5 -22q-32 0 -50.5 21.5t-13.5 54.5z" />
    <glyph glyph-name="ldot" unicode="&#x140;" horiz-adv-x="394" 
d="M69 0l127 721h122l-127 -721h-122zM303 313q5 32 32 54t59 22q33 0 52.5 -21.5t14.5 -54.5q-5 -32 -32.5 -54t-61.5 -22q-32 0 -50.5 21.5t-13.5 54.5z" />
    <glyph glyph-name="Lslash" unicode="&#x141;" horiz-adv-x="512" 
d="M144 304l-76 -44l15 85l77 44l53 300h128l-40 -220l108 60l-14 -85l-108 -60l-48 -268h266l-19 -116h-394z" />
    <glyph glyph-name="lslash" unicode="&#x142;" horiz-adv-x="292" 
d="M343 721l-47 -264l92 52l-15 -84l-92 -52l-66 -373h-122l51 296l-88 -50l16 84l88 50l61 341h122z" />
    <glyph glyph-name="Nacute" unicode="&#x143;" horiz-adv-x="682" 
d="M596 0l121 689h-128l-79 -448l-184 448h-119l-121 -689h127l80 453l186 -453h117zM542 929h128l-167 -163h-95z" />
    <glyph glyph-name="nacute" unicode="&#x144;" 
d="M234 249l-43 -249h-122l82 467h122l-12 -69q25 36 68 57.5t85 21.5q83 0 119 -51.5t19 -149.5l-48 -276h-122l44 254q9 50 -10 77t-60 27q-45 0 -78 -26t-44 -83zM444 707h128l-167 -163h-95z" />
    <glyph glyph-name="Ncommaaccent" unicode="&#x145;" horiz-adv-x="682" 
d="M717 689l-121 -689h-117l-186 453l-80 -453h-127l121 689h119l184 -448l79 448h128zM254 -274l-59 29q41 45 60 85t28 104h107q-33 -147 -136 -218z" />
    <glyph glyph-name="ncommaaccent" unicode="&#x146;" 
d="M234 249l-43 -249h-122l82 467h122l-12 -69q25 36 68 57.5t85 21.5q83 0 119 -51.5t19 -149.5l-48 -276h-122l44 254q9 50 -10 77t-60 27q-45 0 -78 -26t-44 -83zM198 -274l-59 29q41 45 60 85t28 104h107q-33 -147 -136 -218z" />
    <glyph glyph-name="Ncaron" unicode="&#x147;" horiz-adv-x="682" 
d="M596 0l121 689h-128l-79 -448l-184 448h-119l-121 -689h127l80 453l186 -453h117zM414 766l-80 163h94l60 -89l94 89h94l-139 -163h-123z" />
    <glyph glyph-name="ncaron" unicode="&#x148;" 
d="M234 249l-43 -249h-122l82 467h122l-12 -69q25 36 68 57.5t85 21.5q83 0 119 -51.5t19 -149.5l-48 -276h-122l44 254q9 50 -10 77t-60 27q-45 0 -78 -26t-44 -83zM318 544l-80 163h94l60 -89l94 89h94l-139 -163h-123z" />
    <glyph glyph-name="napostrophe" unicode="&#x149;" 
d="M233 249l-42 -249h-122l82 467h122l-12 -69q26 36 68 57.5t84 21.5q83 0 119.5 -51.5t19.5 -149.5l-48 -276h-122l44 254q9 50 -10.5 77t-60.5 27q-100 0 -122 -109zM84 478l-66 21q63 70 69 171h110q-21 -127 -113 -192z" />
    <glyph glyph-name="Eng" unicode="&#x14a;" horiz-adv-x="681" 
d="M461 -3l-168 454l-79 -451h-128l121 689h119l181 -456l81 456h128l-120 -679q-19 -109 -82 -176t-180 -67q-37 0 -91 15l34 119q59 -16 104 -8q38 7 64 41t16 63z" />
    <glyph glyph-name="eng" unicode="&#x14b;" horiz-adv-x="568" 
d="M552 276l-44 -250q-18 -102 -78.5 -164.5t-170.5 -62.5q-26 0 -66 10l32 112q21 -7 54 -7q45 0 71.5 30t34.5 75l41 235q9 50 -10 77t-60 27q-45 0 -78 -26t-44 -83l-43 -249h-122l82 467h122l-12 -69q25 36 68 57.5t85 21.5q83 0 119.5 -51.5t18.5 -149.5z" />
    <glyph glyph-name="Omacron" unicode="&#x14c;" horiz-adv-x="787" 
d="M231 343q-17 -95 35.5 -161t145.5 -66t169.5 66t93.5 161t-35.5 161.5t-145.5 66.5q-94 0 -170.5 -66.5t-92.5 -161.5zM104 343q26 147 145 250.5t266 103.5t230.5 -103.5t57.5 -250.5q-26 -146 -146.5 -249.5t-266.5 -103.5t-229 103.5t-57 249.5zM401 807l15 83h269
l-15 -83h-269z" />
    <glyph glyph-name="omacron" unicode="&#x14d;" horiz-adv-x="566" 
d="M302 110q51 0 92 34.5t51 90.5q10 54 -19.5 88t-81.5 34q-51 0 -92 -34t-51 -88q-10 -56 19.5 -90.5t81.5 -34.5zM281 -9q-102 0 -161 68t-40 176t101.5 175t184.5 67t160.5 -67t39.5 -175t-101.5 -176t-183.5 -68zM250 585l15 83h269l-15 -83h-269z" />
    <glyph glyph-name="Obreve" unicode="&#x14e;" horiz-adv-x="787" 
d="M231 343q16 95 92.5 161.5t170.5 66.5q93 0 145.5 -66.5t35.5 -161.5t-93.5 -161t-169.5 -66t-145.5 66t-35.5 161zM104 343q-26 -146 57 -249.5t229 -103.5t266.5 103.5t146.5 249.5q26 147 -57.5 250.5t-230.5 103.5t-266 -103.5t-145 -250.5zM421 909h82
q-6 -26 4.5 -40.5t36.5 -14.5q25 0 40.5 16t20.5 39h83q-11 -59 -54.5 -94.5t-103.5 -35.5q-65 0 -92 38t-17 92z" />
    <glyph glyph-name="obreve" unicode="&#x14f;" horiz-adv-x="566" 
d="M302 110q-52 0 -81.5 34.5t-19.5 90.5q10 54 51 88t92 34q52 0 81.5 -34t19.5 -88q-10 -56 -51 -90.5t-92 -34.5zM281 -9q101 0 183.5 68t101.5 176t-39.5 175t-160.5 67t-184.5 -67t-101.5 -175t40 -176t161 -68zM271 687h82q-13 -55 40 -55q25 0 41 16t21 39h83
q-11 -59 -54.5 -94.5t-103.5 -35.5q-65 0 -92.5 38t-16.5 92z" />
    <glyph glyph-name="Ohungarumlaut" unicode="&#x150;" horiz-adv-x="787" 
d="M231 343q16 95 92.5 161.5t170.5 66.5q93 0 145.5 -66.5t35.5 -161.5t-93.5 -161t-169.5 -66t-145.5 66t-35.5 161zM104 343q-26 -146 57 -249.5t229 -103.5t266.5 103.5t146.5 249.5q26 147 -57.5 250.5t-230.5 103.5t-266 -103.5t-145 -250.5zM795 929l-150 -163h-97
l140 163h107zM639 929l-139 -163h-94l128 163h105z" />
    <glyph glyph-name="ohungarumlaut" unicode="&#x151;" horiz-adv-x="566" 
d="M302 110q-52 0 -81.5 34.5t-19.5 90.5q10 54 51 88t92 34q52 0 81.5 -34t19.5 -88q-10 -56 -51 -90.5t-92 -34.5zM281 -9q101 0 183.5 68t101.5 176t-39.5 175t-160.5 67t-184.5 -67t-101.5 -175t40 -176t161 -68zM644 707l-150 -163h-97l140 163h107zM488 707l-139 -163
h-94l128 163h105z" />
    <glyph glyph-name="OE" unicode="&#x152;" horiz-adv-x="1100" 
d="M721 605l15 84h425l-21 -116h-298l-30 -177h261l-21 -114h-261l-30 -166h308l-19 -116h-435l13 81q-107 -91 -239 -91q-145 0 -228 103.5t-57 249.5q26 148 145 251t265 103q136 0 207 -92zM232 343q-17 -94 35 -160t144 -66q95 0 170.5 67t92.5 163q14 93 -37.5 158
t-143.5 65q-93 0 -168.5 -66.5t-92.5 -160.5z" />
    <glyph glyph-name="oe" unicode="&#x153;" horiz-adv-x="919" 
d="M574 276h240q2 46 -25.5 72.5t-74.5 26.5q-49 0 -86.5 -26t-53.5 -73zM302 109q51 0 92 34.5t51 90.5q10 54 -20 88.5t-81 34.5t-92 -34.5t-51 -88.5q-10 -56 19.5 -90.5t81.5 -34.5zM476 71q-84 -81 -196 -81q-102 0 -160.5 68t-39.5 176t101.5 175.5t184.5 67.5
q113 0 169 -80q85 80 197 80q102 0 153 -61.5t41 -161.5q-4 -42 -9 -61h-357q-2 -46 28.5 -73t82.5 -27q37 0 72.5 15.5t55.5 44.5l85 -50q-41 -57 -105 -85t-133 -28q-114 0 -170 81z" />
    <glyph glyph-name="Racute" unicode="&#x154;" horiz-adv-x="631" 
d="M457 575q45 0 63.5 -33.5t10.5 -75.5q-8 -43 -38.5 -75t-77.5 -32h-138l38 216h142zM451 250q89 14 144 75t69 141q16 92 -29 157.5t-152 65.5h-276l-121 -689h128l43 245h53l119 -245h154zM492 929h128l-167 -163h-95z" />
    <glyph glyph-name="racute" unicode="&#x155;" horiz-adv-x="411" 
d="M306 707h128l-167 -163h-95zM220 165q34 198 152 198q42 0 68 -13l40 110q-29 17 -73 17q-43 0 -84.5 -30t-69.5 -90l20 110h-122l-82 -467h122z" />
    <glyph glyph-name="Rcommaaccent" unicode="&#x156;" horiz-adv-x="631" 
d="M457 575h-142l-38 -216h138q47 0 77.5 32t38.5 75q8 42 -10.5 75.5t-63.5 33.5zM451 250l132 -250h-154l-119 245h-53l-43 -245h-128l121 689h276q107 0 152 -65.5t29 -157.5q-14 -80 -69 -141t-144 -75zM246 -274l-59 29q41 45 60 85t28 104h107q-33 -147 -136 -218z
" />
    <glyph glyph-name="rcommaaccent" unicode="&#x157;" horiz-adv-x="411" 
d="M38 -274l-57 29q39 44 58 84t28 105h107q-33 -147 -136 -218zM220 165l-29 -165h-122l82 467h122l-21 -110q28 60 69.5 90t84.5 30q45 0 74 -17l-40 -110q-27 13 -69 13q-117 0 -151 -198z" />
    <glyph glyph-name="Rcaron" unicode="&#x158;" horiz-adv-x="631" 
d="M457 575q45 0 63.5 -33.5t10.5 -75.5q-8 -43 -38.5 -75t-77.5 -32h-138l38 216h142zM451 250q89 14 144 75t69 141q16 92 -29 157.5t-152 65.5h-276l-121 -689h128l43 245h53l119 -245h154zM385 766l-80 163h94l60 -89l94 89h94l-139 -163h-123z" />
    <glyph glyph-name="rcaron" unicode="&#x159;" horiz-adv-x="411" 
d="M249 544l-80 163h94l60 -89l94 89h94l-139 -163h-123zM220 165q34 198 152 198q42 0 68 -13l40 110q-29 17 -73 17q-43 0 -84.5 -30t-69.5 -90l20 110h-122l-82 -467h122z" />
    <glyph glyph-name="Sacute" unicode="&#x15a;" horiz-adv-x="577" 
d="M508 929h128l-167 -163h-95zM209 201h-128q-16 -90 42.5 -151t167.5 -61q98 0 176.5 52.5t99.5 142.5q18 68 -15.5 124.5t-134.5 85.5l-81 25q-78 22 -68 79q7 36 40 58.5t77 22.5q48 0 71.5 -24.5t15.5 -65.5h128q18 95 -37 151.5t-155 56.5q-97 0 -174.5 -56.5
t-92.5 -145.5q-25 -141 139 -192l81 -22q94 -25 78 -94q-9 -36 -43 -59.5t-84 -23.5q-53 0 -80.5 28.5t-22.5 68.5z" />
    <glyph glyph-name="sacute" unicode="&#x15b;" horiz-adv-x="454" 
d="M216 195q-54 15 -81 39.5t-28 49.5t2 54q10 56 68 97.5t128 41.5q74 0 120.5 -36t36.5 -111h-116q2 24 -15 36t-40 12q-58 0 -67 -46q-3 -13 9 -23t33 -16l75 -19q36 -10 59.5 -28.5t30.5 -38t9.5 -40t-2.5 -33.5q-12 -68 -75.5 -106t-141.5 -38q-74 0 -122.5 42.5
t-37.5 114.5h114q-2 -25 20 -42.5t55 -16.5q26 1 46 14t23 33q8 32 -42 44zM392 707h128l-167 -163h-95z" />
    <glyph glyph-name="Scircumflex" unicode="&#x15c;" horiz-adv-x="577" 
d="M394 932h123l81 -163h-94l-62 88l-92 -88h-94zM81 201h128q-5 -40 22.5 -68.5t80.5 -28.5q50 0 84 23.5t43 59.5q16 69 -78 94l-81 22q-164 51 -139 192q15 89 92.5 145.5t174.5 56.5q100 0 155 -56.5t37 -151.5h-128q8 41 -15.5 65.5t-71.5 24.5q-44 0 -77 -22.5
t-40 -58.5q-10 -57 68 -79l81 -25q101 -29 134.5 -85.5t15.5 -124.5q-21 -90 -99.5 -142.5t-176.5 -52.5q-109 0 -167.5 61t-42.5 151z" />
    <glyph glyph-name="scircumflex" unicode="&#x15d;" horiz-adv-x="454" 
d="M216 195q-54 15 -81 39.5t-28 49.5t2 54q10 56 68 97.5t128 41.5q74 0 120.5 -36t36.5 -111h-116q2 24 -15 36t-40 12q-58 0 -67 -46q-3 -13 9 -23t33 -16l75 -19q36 -10 59.5 -28.5t30.5 -38t9.5 -40t-2.5 -33.5q-12 -68 -75.5 -106t-141.5 -38q-74 0 -122.5 42.5
t-37.5 114.5h114q-2 -25 20 -42.5t55 -16.5q26 1 46 14t23 33q8 32 -42 44zM288 710h123l82 -163h-94l-63 88l-91 -88h-94z" />
    <glyph glyph-name="Scedilla" unicode="&#x15e;" horiz-adv-x="579" 
d="M223 -122q7 -28 39 -20q15 5 21.5 18t3.5 28l-16 86q-100 6 -152.5 65.5t-37.5 145.5h128q-5 -40 22.5 -68.5t80.5 -28.5q50 0 84 23.5t43 59.5q17 69 -77 94l-82 22q-164 51 -139 192q15 89 92.5 145.5t174.5 56.5q100 0 155 -56.5t37 -151.5h-128q8 41 -15.5 65.5
t-71.5 24.5q-44 0 -77 -22.5t-40 -58.5q-10 -57 68 -79l81 -25q101 -29 134.5 -85.5t15.5 -124.5q-19 -79 -82.5 -129.5t-147.5 -62.5l21 -57q5 -13 0 -46q-8 -41 -44.5 -71.5t-79.5 -30.5q-42 0 -66.5 32.5t-13.5 87.5l68 -4q-2 -13 1 -25z" />
    <glyph glyph-name="scedilla" unicode="&#x15f;" horiz-adv-x="455" 
d="M287 -2l23 -63q5 -15 0 -46q-8 -41 -44 -71.5t-79 -30.5q-42 0 -67 32.5t-14 87.5l68 -4q-1 -13 2 -25q7 -28 38 -20q15 5 21.5 18t3.5 28l-16 86h-1q-74 0 -122.5 42.5t-37.5 114.5h114q-2 -25 20 -42.5t55 -16.5q26 1 46 14t23 33q8 32 -42 44l-61 16q-54 15 -81 39.5
t-28 49.5t2 54q10 56 68 97.5t128 41.5q74 0 120.5 -36t36.5 -111h-116q2 24 -15 36t-40 12q-58 0 -67 -46q-3 -13 9 -23t33 -16l75 -19q36 -10 59.5 -28.5t30.5 -38t9.5 -40t-2.5 -33.5q-10 -53 -52 -88t-100 -48z" />
    <glyph glyph-name="Scaron" unicode="&#x160;" horiz-adv-x="577" 
d="M364 766l-80 163h94l61 -89l93 89h94l-139 -163h-123zM209 201h-128q-16 -90 42.5 -151t167.5 -61q98 0 176.5 52.5t99.5 142.5q18 68 -15.5 124.5t-134.5 85.5l-81 25q-78 22 -68 79q7 36 40 58.5t77 22.5q48 0 71.5 -24.5t15.5 -65.5h128q18 95 -37 151.5t-155 56.5
q-97 0 -174.5 -56.5t-92.5 -145.5q-25 -141 139 -192l81 -22q94 -25 78 -94q-9 -36 -43 -59.5t-84 -23.5q-53 0 -80.5 28.5t-22.5 68.5z" />
    <glyph glyph-name="scaron" unicode="&#x161;" horiz-adv-x="454" 
d="M216 195q-54 15 -81 39.5t-28 49.5t2 54q10 56 68 97.5t128 41.5q74 0 120.5 -36t36.5 -111h-116q2 24 -15 36t-40 12q-58 0 -67 -46q-3 -13 9 -23t33 -16l75 -19q36 -10 59.5 -28.5t30.5 -38t9.5 -40t-2.5 -33.5q-12 -68 -75.5 -106t-141.5 -38q-74 0 -122.5 42.5
t-37.5 114.5h114q-2 -25 20 -42.5t55 -16.5q26 1 46 14t23 33q8 32 -42 44zM259 544l-80 163h94l61 -89l93 89h94l-139 -163h-123z" />
    <glyph glyph-name="Tcommaaccent" unicode="&#x162;" horiz-adv-x="573" 
d="M129 572l20 117h517l-20 -117h-194l-101 -572h-129l101 572h-194zM190 -274l-59 29q41 45 60 85t28 104h107q-33 -147 -136 -218z" />
    <glyph glyph-name="tcommaaccent" unicode="&#x163;" horiz-adv-x="351" 
d="M342 645l-31 -178h99l-18 -98h-99l-64 -369h-121l64 369h-85l18 98h85l31 178h121zM77 -274l-59 29q40 44 59.5 84t28.5 105h107q-33 -147 -136 -218z" />
    <glyph glyph-name="Tcaron" unicode="&#x164;" horiz-adv-x="573" 
d="M149 689l-20 -117h194l-101 -572h129l101 572h194l20 117h-517zM360 766l-80 163h94l60 -89l94 89h94l-139 -163h-123z" />
    <glyph glyph-name="tcaron" unicode="&#x165;" horiz-adv-x="350" 
d="M437 524l-59 29q40 44 59 84t28 105h107q-32 -147 -135 -218zM172 369l-65 -369h122l65 369h98l17 98h-98l32 178h-122l-32 -178h-84l-17 -98h84z" />
    <glyph glyph-name="Tbar" unicode="&#x166;" horiz-adv-x="573" 
d="M280 334h-115l14 76h115l29 162h-194l20 117h517l-20 -117h-194l-29 -162h114l-14 -76h-114l-58 -334h-129z" />
    <glyph glyph-name="tbar" unicode="&#x167;" horiz-adv-x="354" 
d="M109 0l35 198h-58l13 71h58l17 100h-84l17 98h84l32 178h122l-32 -178h98l-17 -98h-98l-17 -100h72l-13 -71h-72l-35 -198h-122z" />
    <glyph glyph-name="Utilde" unicode="&#x168;" horiz-adv-x="681" 
d="M360 111q54 0 100 37t56 95l79 446h127l-79 -446q-20 -112 -108.5 -182.5t-196.5 -70.5q-109 0 -173.5 70.5t-44.5 182.5l80 446h130l-80 -446q-9 -58 23.5 -95t86.5 -37zM442 829q-8 0 -19 -11t-14 -32h-70q14 65 48 95t70 30q24 0 46.5 -20.5t32.5 -20.5q8 0 19.5 10
t16.5 31h70q-16 -64 -50 -93.5t-69 -29.5q-23 0 -47.5 20.5t-33.5 20.5z" />
    <glyph glyph-name="utilde" unicode="&#x169;" 
d="M414 218l44 249h122l-82 -467h-122l11 66q-25 -36 -65 -56t-78 -20q-85 0 -125.5 52t-22.5 149l49 276h123l-45 -254q-9 -53 12.5 -78.5t58.5 -25.5q43 0 76.5 26.5t43.5 82.5zM353 607q-8 0 -18.5 -11t-15.5 -32h-70q16 65 49 95t69 30q24 0 47.5 -20.5t33.5 -20.5
q9 0 19.5 10t14.5 31h70q-14 -64 -48.5 -93.5t-69.5 -29.5q-23 0 -47.5 20.5t-33.5 20.5z" />
    <glyph glyph-name="Umacron" unicode="&#x16a;" horiz-adv-x="681" 
d="M360 111q54 0 100 37t56 95l79 446h127l-79 -446q-20 -112 -108.5 -182.5t-196.5 -70.5q-109 0 -173.5 70.5t-44.5 182.5l80 446h130l-80 -446q-9 -58 23.5 -95t86.5 -37zM347 807l16 83h269l-16 -83h-269z" />
    <glyph glyph-name="umacron" unicode="&#x16b;" 
d="M414 218l44 249h122l-82 -467h-122l11 66q-25 -36 -65 -56t-78 -20q-85 0 -125.5 52t-22.5 149l49 276h123l-45 -254q-9 -53 12.5 -78.5t58.5 -25.5q43 0 76.5 26.5t43.5 82.5zM259 585l14 83h269l-14 -83h-269z" />
    <glyph glyph-name="Ubreve" unicode="&#x16c;" horiz-adv-x="681" 
d="M360 111q54 0 100 37t56 95l79 446h127l-79 -446q-20 -112 -108.5 -182.5t-196.5 -70.5q-109 0 -173.5 70.5t-44.5 182.5l80 446h130l-80 -446q-9 -58 23.5 -95t86.5 -37zM368 909h82q-6 -26 4.5 -40.5t36.5 -14.5q25 0 40.5 16t20.5 39h83q-11 -59 -54.5 -94.5
t-103.5 -35.5q-65 0 -92 38t-17 92z" />
    <glyph glyph-name="ubreve" unicode="&#x16d;" 
d="M414 218l44 249h122l-82 -467h-122l11 66q-25 -36 -65 -56t-78 -20q-85 0 -125.5 52t-22.5 149l49 276h123l-45 -254q-9 -53 12.5 -78.5t58.5 -25.5q43 0 76.5 26.5t43.5 82.5zM279 687h82q-11 -55 40 -55q25 0 41.5 16t20.5 39h83q-11 -59 -54.5 -94.5t-103.5 -35.5
q-65 0 -92.5 38t-16.5 92z" />
    <glyph glyph-name="Uring" unicode="&#x16e;" horiz-adv-x="681" 
d="M360 111q54 0 100 37t56 95l79 446h127l-79 -446q-20 -112 -108.5 -182.5t-196.5 -70.5q-109 0 -173.5 70.5t-44.5 182.5l80 446h130l-80 -446q-9 -58 23.5 -95t86.5 -37zM379 876q9 49 48.5 83t86.5 34q50 0 77.5 -34t18.5 -83q-9 -48 -49 -81t-89 -33q-47 0 -74.5 33
t-18.5 81zM436 876q-4 -24 10 -40.5t37 -16.5q25 0 44.5 16.5t24.5 40.5q4 25 -10 42t-39 17q-23 0 -43 -17t-24 -42z" />
    <glyph glyph-name="uring" unicode="&#x16f;" 
d="M414 218l44 249h122l-82 -467h-122l11 66q-25 -36 -65 -56t-78 -20q-85 0 -125.5 52t-22.5 149l49 276h123l-45 -254q-9 -53 12.5 -78.5t58.5 -25.5q43 0 76.5 26.5t43.5 82.5zM291 654q9 49 48 83t86 34q50 0 78 -34t19 -83q-9 -48 -49 -81t-89 -33q-47 0 -74.5 33
t-18.5 81zM348 654q-4 -24 9.5 -40.5t36.5 -16.5q25 0 45.5 16.5t24.5 40.5q4 25 -10 42t-39 17q-23 0 -43 -17t-24 -42z" />
    <glyph glyph-name="Uhungarumlaut" unicode="&#x170;" horiz-adv-x="681" 
d="M360 111q54 0 100 37t56 95l79 446h127l-79 -446q-20 -112 -108.5 -182.5t-196.5 -70.5q-109 0 -173.5 70.5t-44.5 182.5l80 446h130l-80 -446q-9 -58 23.5 -95t86.5 -37zM745 929l-150 -163h-97l140 163h107zM589 929l-139 -163h-94l128 163h105z" />
    <glyph glyph-name="uhungarumlaut" unicode="&#x171;" 
d="M414 218l44 249h122l-82 -467h-122l11 66q-25 -36 -65 -56t-78 -20q-85 0 -125.5 52t-22.5 149l49 276h123l-45 -254q-9 -53 12.5 -78.5t58.5 -25.5q43 0 76.5 26.5t43.5 82.5zM628 707l-150 -163h-97l140 163h107zM472 707l-139 -163h-94l128 163h105z" />
    <glyph glyph-name="Uogonek" unicode="&#x172;" horiz-adv-x="681" 
d="M377 -122l8 25l70 4q-9 -55 -45.5 -87.5t-78.5 -32.5q-44 0 -69 31t-17 71q4 28 18 46l41 57q-95 12 -148 80t-35 171l79 446h130l-79 -446q-10 -58 22.5 -95t86.5 -37t100 37t56 95l79 446h128l-79 -446q-18 -104 -97 -173t-178 -78l-49 -88q-15 -36 9 -46q13 -4 27 1.5
t21 18.5z" />
    <glyph glyph-name="uogonek" unicode="&#x173;" 
d="M443 -122l9 25l70 4q-10 -55 -46 -87.5t-78 -32.5q-44 0 -69.5 31t-17.5 71q4 28 18 46l47 65l11 66q-25 -36 -65 -56t-78 -20q-85 0 -125.5 52t-22.5 149l49 276h123l-45 -254q-9 -53 12.5 -78.5t58.5 -25.5q43 0 76.5 26.5t43.5 82.5l44 249h122l-82 -467h-58l-53 -96
q-17 -35 9 -46q13 -4 26.5 1.5t20.5 18.5z" />
    <glyph glyph-name="Wcircumflex" unicode="&#x174;" horiz-adv-x="892" 
d="M637 209l233 480h139l-355 -689h-103l-37 391l-173 -391h-104l-111 689h138l62 -480l174 384h102zM549 932h123l81 -163h-94l-62 88l-92 -88h-94z" />
    <glyph glyph-name="wcircumflex" unicode="&#x175;" horiz-adv-x="774" 
d="M841 467l-249 -467h-102l-49 313l-156 -313h-101l-90 467h130l42 -295l147 295h108l42 -295l148 295h130zM448 710h123l82 -163h-94l-64 88l-90 -88h-94z" />
    <glyph glyph-name="Ycircumflex" unicode="&#x176;" horiz-adv-x="644" 
d="M387 0h-131l55 314l-198 375h152l131 -265l225 265h153l-332 -377zM425 932h123l81 -163h-94l-62 88l-92 -88h-94z" />
    <glyph glyph-name="ycircumflex" unicode="&#x177;" horiz-adv-x="511" 
d="M584 467l-413 -695h-129l154 264l-105 431h130l64 -291l169 291h130zM321 710h123l81 -163h-94l-63 88l-91 -88h-94z" />
    <glyph glyph-name="Ydieresis" unicode="&#x178;" horiz-adv-x="644" 
d="M387 0h-131l55 314l-198 375h152l131 -265l225 265h153l-332 -377zM318 854q5 28 28 46.5t52 18.5q28 0 45 -19t12 -46t-28.5 -46t-51.5 -19q-29 0 -45.5 18.5t-11.5 46.5zM492 854q5 28 28 46.5t52 18.5t45.5 -18.5t11.5 -46.5t-28 -46.5t-52 -18.5t-45.5 18.5
t-11.5 46.5z" />
    <glyph glyph-name="Zacute" unicode="&#x179;" horiz-adv-x="587" 
d="M59 100l416 474h-319l20 115h484l-18 -101l-419 -473h335l-19 -115h-497zM484 929h128l-167 -163h-95z" />
    <glyph glyph-name="zacute" unicode="&#x17a;" horiz-adv-x="508" 
d="M541 467h-403l-20 -114h226l-288 -260l-15 -93h418l20 114h-245l290 259zM409 707h128l-167 -163h-95z" />
    <glyph glyph-name="Zdotaccent" unicode="&#x17b;" horiz-adv-x="587" 
d="M59 100l416 474h-319l20 115h484l-18 -101l-419 -473h335l-19 -115h-497zM368 850q5 29 29.5 49t54.5 20q31 0 48.5 -20t12.5 -49q-6 -31 -30.5 -50.5t-55.5 -19.5q-30 0 -47.5 20t-11.5 50z" />
    <glyph glyph-name="zdotaccent" unicode="&#x17c;" horiz-adv-x="508" 
d="M541 467h-403l-20 -114h226l-288 -260l-15 -93h418l20 114h-245l290 259zM288 628q5 29 29.5 49t54.5 20q31 0 48.5 -20t12.5 -49q-6 -31 -30.5 -50.5t-55.5 -19.5q-30 0 -47.5 20t-11.5 50z" />
    <glyph glyph-name="Zcaron" unicode="&#x17d;" horiz-adv-x="587" 
d="M59 100l416 474h-319l20 115h484l-18 -101l-419 -473h335l-19 -115h-497zM364 766l-80 163h94l60 -89l94 89h94l-139 -163h-123z" />
    <glyph glyph-name="zcaron" unicode="&#x17e;" horiz-adv-x="508" 
d="M541 467h-403l-20 -114h226l-288 -260l-15 -93h418l20 114h-245l290 259zM284 544l-80 163h94l60 -89l94 89h94l-139 -163h-123z" />
    <glyph glyph-name="longs" unicode="&#x17f;" horiz-adv-x="324" 
d="M490 721l-21 -117h-51q-75 0 -93 -100l-90 -504h-123l65 369h-89l17 98h89l8 37q17 103 78.5 160t158.5 57h51z" />
    <glyph glyph-name="florin" unicode="&#x192;" horiz-adv-x="623" 
d="M-3 -189l42 115h54q72 0 111 99l131 341h-88l40 101h87l14 35q40 103 112.5 159t171.5 54l46 -1l-43 -116h-53q-48 0 -75.5 -34.5t-49.5 -96.5h99l-39 -101h-100q-122 -321 -142 -371q-36 -86 -107 -136t-162 -50q-17 0 -49 2z" />
    <glyph glyph-name="Aringacute" unicode="&#x1fa;" horiz-adv-x="654" 
d="M485 167l34 -167h135l-137 689h-138l-379 -689h136l92 167h257zM566 1110h128l-137 -133q52 -34 40 -101q-8 -48 -48 -81t-90 -33q-47 0 -74 33t-19 81q7 40 35 70.5t65 41.5zM291 279l132 263l40 -263h-172zM423 876q-4 -24 10 -40.5t37 -16.5q25 0 44.5 16.5t24.5 40.5
q4 25 -10 42t-39 17q-23 0 -43 -17t-24 -42z" />
    <glyph glyph-name="aringacute" unicode="&#x1fb;" horiz-adv-x="614" 
d="M423 0l9 60q-26 -33 -71 -51t-84 -18q-96 0 -155.5 67.5t-40.5 175.5q20 108 102.5 175.5t178.5 67.5q38 0 76.5 -16.5t55.5 -51.5l11 58h122l-82 -467h-122zM207 234q-9 -55 23 -90.5t84 -35.5t96 34.5t54 91.5q10 58 -22.5 92t-83.5 34q-52 0 -97 -35.5t-54 -90.5z
M480 882h128l-137 -133q50 -32 39 -101q-8 -48 -48 -81t-89 -33q-47 0 -74.5 33t-19.5 81q7 40 35 70.5t65 41.5zM336 648q-4 -24 10 -40.5t37 -16.5q25 0 44.5 16.5t24.5 40.5q5 25 -9 42t-39 17q-23 0 -43.5 -17t-24.5 -42z" />
    <glyph glyph-name="AEacute" unicode="&#x1fc;" horiz-adv-x="933" 
d="M994 689h-452l-556 -689h152l132 163h205l-28 -163v1l1 -1h435l19 116h-308l30 166h261l21 114h-261l30 177h298zM365 286l172 230l-40 -230h-132zM691 929h128l-167 -163h-95z" />
    <glyph glyph-name="aeacute" unicode="&#x1fd;" horiz-adv-x="993" 
d="M648 276q16 47 53.5 73t86.5 26q47 0 75 -26.5t25 -72.5h-240zM207 234q9 55 54 90.5t97 35.5q51 0 83.5 -34t22.5 -92q-10 -57 -54 -91.5t-96 -34.5t-84 35.5t-23 90.5zM999 235q19 108 -36 175t-157 67q-120 0 -200 -85l12 75h-113l-11 -58q-17 35 -55.5 51.5
t-76.5 16.5q-96 0 -178.5 -67.5t-102.5 -175.5q-19 -108 40.5 -175.5t155.5 -67.5q39 0 84 18t71 51l-9 -60h113l13 77q24 -41 69 -64t102 -23q69 0 133 28t105 85q-53 30 -85 50q-20 -29 -55.5 -44.5t-72.5 -15.5q-52 0 -82.5 27t-28.5 73h356q5 19 9 42zM653 707h128
l-167 -163h-95z" />
    <glyph glyph-name="Oslashacute" unicode="&#x1fe;" horiz-adv-x="785" 
d="M612 929h128l-167 -163h-95zM183 66q2 -2 7 -5.5t8 -5.5q78 -65 191 -65q146 0 266.5 103.5t146.5 249.5q22 127 -41 226l94 82l-39 46l-93 -81q-81 81 -209 81q-146 0 -265.5 -103t-145.5 -251q-24 -133 43 -230l-96 -82l39 -47zM229 343q17 95 93.5 161.5t170.5 66.5
q76 0 124 -46l-367 -321q-34 61 -21 139zM411 116q-75 0 -122 42l365 319q33 -60 20 -134q-17 -95 -93.5 -161t-169.5 -66z" />
    <glyph glyph-name="oslashacute" unicode="&#x1ff;" horiz-adv-x="566" 
d="M469 707h128l-167 -163h-95zM281 -10q102 0 184.5 68t101.5 176q14 84 -20 148l61 53l-39 46l-61 -53q-58 49 -141 49q-102 0 -185 -67.5t-102 -175.5q-16 -92 25 -155l-66 -58l39 -47l69 59q52 -43 134 -43zM345 357q33 0 61 -17l-199 -173q-12 24 -5 67q10 54 51 88.5
t92 34.5zM302 109q-30 0 -55 13l196 170q9 -25 3 -58q-10 -56 -51.5 -90.5t-92.5 -34.5z" />
    <glyph glyph-name="Scommaaccent" unicode="&#x218;" horiz-adv-x="577" 
d="M81 201h128q-5 -40 22.5 -68.5t80.5 -28.5q50 0 84 23.5t43 59.5q16 69 -78 94l-81 23q-165 47 -139 191q15 89 92.5 145.5t174.5 56.5q100 0 155 -56.5t37 -151.5h-128q8 41 -15.5 65.5t-71.5 24.5q-44 0 -77 -22.5t-40 -58.5q-10 -56 68 -79l81 -25
q101 -31 134.5 -86.5t15.5 -123.5q-21 -90 -99.5 -142.5t-176.5 -52.5q-86 0 -167 84q-55 57 -62 101q-4 27 19 27zM204 -274l-58 29q40 44 59 84t28 105h107q-32 -147 -136 -218z" />
    <glyph glyph-name="scommaaccent" unicode="&#x219;" horiz-adv-x="454" 
d="M216 195q-54 15 -81 39.5t-28 49.5t2 54q10 56 68 97.5t128 41.5q74 0 120.5 -36t36.5 -111h-116q2 24 -15 36t-40 12q-58 0 -67 -46q-3 -13 9 -23t33 -16l75 -19q36 -10 59.5 -28.5t30.5 -38t9.5 -40t-2.5 -33.5q-12 -68 -75.5 -106t-141.5 -38q-74 0 -122.5 42.5
t-37.5 114.5h114q-2 -25 20 -42.5t55 -16.5q26 1 46 14t23 33q8 32 -42 44zM138 -274l-59 29q40 44 59.5 84t28.5 105h107q-33 -147 -136 -218z" />
    <glyph glyph-name="circumflex" unicode="&#x2c6;" horiz-adv-x="582" 
d="M353 710h123l82 -163h-94l-64 88l-90 -88h-94z" />
    <glyph glyph-name="caron" unicode="&#x2c7;" horiz-adv-x="582" 
d="M325 544l-80 163h94l61 -89l93 89h94l-139 -163h-123z" />
    <glyph glyph-name="breve" unicode="&#x2d8;" horiz-adv-x="507" 
d="M242 687h82q-13 -55 40 -55q25 0 41 16t21 39h83q-11 -59 -54.5 -94.5t-103.5 -35.5q-65 0 -92.5 38t-16.5 92z" />
    <glyph glyph-name="dotaccent" unicode="&#x2d9;" horiz-adv-x="365" 
d="M221 628q5 29 29.5 49t54.5 20q31 0 48.5 -20t12.5 -49q-6 -31 -30 -50.5t-55 -19.5q-30 0 -48 20t-12 50z" />
    <glyph glyph-name="ring" unicode="&#x2da;" horiz-adv-x="531" 
d="M276 654q9 49 48 83t86 34q50 0 78 -34t19 -83q-9 -48 -49 -81t-89 -33q-47 0 -74.5 33t-18.5 81zM333 654q-4 -24 9.5 -40.5t36.5 -16.5q25 0 45.5 16.5t24.5 40.5q4 25 -10 42t-39 17q-23 0 -43 -17t-24 -42z" />
    <glyph glyph-name="ogonek" unicode="&#x2db;" horiz-adv-x="528" 
d="M271 -122l9 25l70 4q-10 -55 -46 -87.5t-78 -32.5q-44 0 -69.5 31t-17.5 71q4 28 18 46l68 94h58l-68 -125q-8 -13 -5.5 -27t14.5 -19q13 -4 26.5 1.5t20.5 18.5z" />
    <glyph glyph-name="tilde" unicode="&#x2dc;" horiz-adv-x="441" 
d="M283 607q-8 0 -19 -11t-15 -32h-70q15 65 48.5 95t69.5 30q24 0 47.5 -20.5t33.5 -20.5q8 0 18.5 10t15.5 31h70q-15 -64 -49 -93.5t-69 -29.5q-23 0 -47.5 20.5t-33.5 20.5z" />
    <glyph glyph-name="hungarumlaut" unicode="&#x2dd;" horiz-adv-x="520" 
d="M565 707l-150 -163h-97l140 163h107zM409 707l-139 -163h-94l128 163h105z" />
    <glyph glyph-name="Wgrave" unicode="&#x1e80;" horiz-adv-x="892" 
d="M637 209l233 480h139l-355 -689h-103l-37 391l-173 -391h-104l-111 689h138l62 -480l174 384h102zM403 929h128l76 -163h-95z" />
    <glyph glyph-name="wgrave" unicode="&#x1e81;" horiz-adv-x="774" 
d="M841 467l-249 -467h-102l-49 313l-156 -313h-101l-90 467h130l42 -295l147 295h108l42 -295l148 295h130zM323 707h128l76 -163h-95z" />
    <glyph glyph-name="Wacute" unicode="&#x1e82;" horiz-adv-x="892" 
d="M870 689l-233 -480l-35 384h-102l-174 -384l-62 480h-138l111 -689h104l173 391l37 -391h103l355 689h-139zM672 929h128l-167 -163h-95z" />
    <glyph glyph-name="wacute" unicode="&#x1e83;" horiz-adv-x="774" 
d="M592 0l249 467h-130l-148 -295l-42 295h-108l-147 -295l-42 295h-130l90 -467h101l156 313l49 -313h102zM560 707h128l-167 -163h-95z" />
    <glyph glyph-name="Wdieresis" unicode="&#x1e84;" horiz-adv-x="892" 
d="M870 689l-233 -480l-35 384h-102l-174 -384l-62 480h-138l111 -689h104l173 391l37 -391h103l355 689h-139zM442 854q5 28 28 46.5t52 18.5q28 0 45 -19t12 -46t-28.5 -46t-51.5 -19q-29 0 -45.5 18.5t-11.5 46.5zM616 854q5 28 28 46.5t52 18.5t45.5 -18.5t11.5 -46.5
t-28 -46.5t-52 -18.5t-45.5 18.5t-11.5 46.5z" />
    <glyph glyph-name="wdieresis" unicode="&#x1e85;" horiz-adv-x="774" 
d="M592 0l249 467h-130l-148 -295l-42 295h-108l-147 -295l-42 295h-130l90 -467h101l156 313l49 -313h102zM341 632q5 28 28.5 46.5t52.5 18.5q28 0 44.5 -19t11.5 -46q-5 -28 -28 -46.5t-51 -18.5q-29 0 -46 19t-12 46zM515 632q5 28 28.5 46.5t52.5 18.5t45 -18.5
t11 -46.5t-28 -46.5t-51 -18.5q-29 0 -46 19t-12 46z" />
    <glyph glyph-name="Ygrave" unicode="&#x1ef2;" horiz-adv-x="644" 
d="M387 0h-131l55 314l-198 375h152l131 -265l225 265h153l-332 -377zM317 929h128l76 -163h-95z" />
    <glyph glyph-name="ygrave" unicode="&#x1ef3;" horiz-adv-x="511" 
d="M584 467l-413 -695h-129l154 264l-105 431h130l64 -291l169 291h130zM219 707h128l76 -163h-95z" />
    <glyph glyph-name="thinspace" unicode="&#x2009;" horiz-adv-x="14" 
 />
    <glyph glyph-name="endash" unicode="&#x2013;" horiz-adv-x="619" 
d="M94 181l19 108h493l-19 -108h-493z" />
    <glyph glyph-name="emdash" unicode="&#x2014;" horiz-adv-x="830" 
d="M94 181l19 108h704l-19 -108h-704z" />
    <glyph glyph-name="quoteleft" unicode="&#x2018;" horiz-adv-x="267" 
d="M310 714l51 -27q-49 -54 -81.5 -109t-45.5 -134h-104q17 81 74 157.5t106 112.5z" />
    <glyph glyph-name="quoteright" unicode="&#x2019;" horiz-adv-x="265" 
d="M168 421l-48 27q32 36 52 62.5t42.5 75.5t31.5 104h103q-16 -82 -74 -158.5t-107 -110.5z" />
    <glyph glyph-name="quotesinglbase" unicode="&#x201a;" horiz-adv-x="250" 
d="M35 -103l-47 26q33 39 51 64t41.5 74.5t33.5 104.5h103q-17 -82 -75 -158.5t-107 -110.5z" />
    <glyph glyph-name="quotedblleft" unicode="&#x201c;" horiz-adv-x="431" 
d="M474 714l51 -27q-32 -35 -52.5 -62.5t-43 -76t-31.5 -103.5h-104q17 82 74.5 158.5t105.5 110.5zM311 714l50 -27q-31 -35 -52 -62.5t-43 -76t-32 -103.5h-103q17 81 74 157.5t106 111.5z" />
    <glyph glyph-name="quotedblright" unicode="&#x201d;" horiz-adv-x="427" 
d="M168 421l-48 26q32 36 51.5 63t42 76t31.5 104h103q-16 -82 -73.5 -158.5t-106.5 -110.5zM331 421l-48 26q32 37 51.5 63.5t42 75.5t31.5 104h104q-17 -82 -74.5 -158.5t-106.5 -110.5z" />
    <glyph glyph-name="quotedblbase" unicode="&#x201e;" horiz-adv-x="413" 
d="M35 -103l-46 26q32 38 50.5 63.5t41.5 75t33 104.5h103q-17 -82 -75 -158.5t-107 -110.5zM199 -103l-49 26q33 37 52.5 63.5t42.5 75.5t32 104h103q-17 -82 -74.5 -158.5t-106.5 -110.5z" />
    <glyph glyph-name="dagger" unicode="&#x2020;" horiz-adv-x="413" 
d="M382 689l-30 -173h111l-15 -85h-111l-95 -534h-111l95 534h-111l15 85h111l30 173h111z" />
    <glyph glyph-name="daggerdbl" unicode="&#x2021;" horiz-adv-x="441" 
d="M397 689l-31 -173h111l-14 -85h-111l-39 -223h111l-16 -84h-111l-40 -227h-111l40 227h-111l16 84h111l39 223h-111l14 85h111l31 173h111z" />
    <glyph glyph-name="bullet" unicode="&#x2022;" horiz-adv-x="464" 
d="M117 238q12 64 65 107t118 43t103 -43t26 -107q-11 -64 -64.5 -107t-118.5 -43t-102.5 43t-26.5 107z" />
    <glyph glyph-name="ellipsis" unicode="&#x2026;" horiz-adv-x="811" 
d="M68 66q6 33 33 54.5t60 21.5t52 -21.5t13 -54.5t-32.5 -54.5t-59.5 -21.5t-52.5 22t-13.5 54zM338 66q6 33 32.5 54.5t59.5 21.5t52.5 -22t13.5 -54q-6 -33 -33 -54.5t-60 -21.5t-52 21.5t-13 54.5zM607 66q6 33 33 54.5t60 21.5t52 -21.5t13 -54.5t-32.5 -54.5
t-59.5 -21.5t-52.5 22t-13.5 54z" />
    <glyph glyph-name="perthousand" unicode="&#x2030;" horiz-adv-x="995" 
d="M654 661h-68l-441 -661h68zM132 532q10 56 55 95t101 39t88.5 -39.5t22.5 -94.5q-10 -56 -56 -94.5t-102 -38.5t-87.5 38.5t-21.5 94.5zM209 532q-4 -24 9 -40t37 -16q23 0 43 16t24 40q4 23 -10 40t-37 17q-24 0 -43 -17t-23 -40zM408 123q10 56 55 95t101 39
t88.5 -39.5t22.5 -94.5q-10 -56 -56 -94.5t-102 -38.5t-87.5 38.5t-21.5 94.5zM485 123q-4 -24 9 -40t37 -16q23 0 43 16t24 40q4 23 -10 40t-37 17q-24 0 -43 -17t-23 -40zM714 123q10 56 55 95t101 39t88.5 -39.5t22.5 -94.5q-10 -56 -56 -94.5t-102 -38.5t-87.5 38.5
t-21.5 94.5zM791 123q-4 -24 9 -40t37 -16q23 0 43 16t24 40q4 23 -10 40t-37 17q-24 0 -43 -17t-23 -40z" />
    <glyph glyph-name="guilsinglleft" unicode="&#x2039;" horiz-adv-x="322" 
d="M81 233l175 207h98l-175 -207l102 -207h-98z" />
    <glyph glyph-name="guilsinglright" unicode="&#x203a;" horiz-adv-x="322" 
d="M321 233l-174 -207h-98l174 207l-100 207h98z" />
    <glyph glyph-name="fraction" unicode="&#x2044;" horiz-adv-x="180" 
d="M469 669l-569 -679h-78l571 679h76z" />
    <glyph glyph-name="zerosuperior" unicode="&#x2070;" horiz-adv-x="356" 
d="M146 624q17 93 58 146t119 53q143 0 107 -199q-36 -197 -177 -197q-143 0 -107 197zM219 624q-22 -126 46 -126q70 0 92 126q22 128 -47 128t-91 -128z" />
    <glyph glyph-name="foursuperior" unicode="&#x2074;" horiz-adv-x="350" 
d="M365 515l-15 -82h-73l15 82h-190l246 302h70l-42 -238h51l-11 -64h-51zM221 579h82l23 130z" />
    <glyph glyph-name="fivesuperior" unicode="&#x2075;" horiz-adv-x="340" 
d="M181 546q7 -21 25.5 -34t40.5 -13q35 0 60 19t30 46q6 31 -11.5 47.5t-48.5 16.5q-54 0 -100 -38l-31 23l68 204h215l-12 -68h-156l-26 -74q30 17 70 17q55 0 85 -33.5t19 -94.5t-59 -99t-117 -38q-40 0 -72.5 21.5t-47.5 57.5q4 2 34 20t34 20z" />
    <glyph glyph-name="sixsuperior" unicode="&#x2076;" horiz-adv-x="339" 
d="M435 747l-71 -28q-11 35 -45 35q-39 0 -64 -34t-32 -83q11 17 35 30.5t50 13.5q48 0 77.5 -36t18.5 -95q-11 -55 -55.5 -90t-102.5 -34q-54 1 -84.5 37t-24.5 96q5 48 16 89.5t32.5 84.5t59.5 67t88 23q83 -4 102 -76zM217 556q-5 -25 8.5 -42t37.5 -17q23 0 43 16.5
t24 40.5q5 24 -8 41.5t-36 17.5q-25 0 -45.5 -16.5t-23.5 -40.5z" />
    <glyph glyph-name="sevensuperior" unicode="&#x2077;" horiz-adv-x="324" 
d="M456 817l-253 -384h-83l207 315h-166l12 69h283z" />
    <glyph glyph-name="eightsuperior" unicode="&#x2078;" horiz-adv-x="345" 
d="M186 718q8 44 46.5 74.5t85.5 30.5t75 -30.5t20 -74.5q-8 -40 -39 -64q49 -37 39 -97q-10 -54 -58 -92t-107 -38t-93.5 38t-24.5 92q10 63 73 97q-24 29 -17 64zM203 558q-5 -26 12.5 -44t45.5 -18t51.5 18.5t27.5 43.5q5 25 -11 44t-43 19h-9q-26 0 -47.5 -19t-26.5 -44
zM258 717q-3 -17 6.5 -28.5t28.5 -11.5t32.5 12t16.5 28t-7.5 27.5t-28.5 11.5q-19 0 -32 -11.5t-16 -27.5z" />
    <glyph glyph-name="ninesuperior" unicode="&#x2079;" horiz-adv-x="339" 
d="M124 503l73 28q11 -36 45 -36q38 0 63 34t33 84q-12 -17 -35.5 -30.5t-50.5 -13.5q-48 0 -77.5 36t-18.5 95q11 55 55 89.5t102 33.5q55 -1 85.5 -37t25.5 -96q-4 -36 -11.5 -70t-22.5 -71t-36 -63.5t-54 -43t-73 -15.5q-81 4 -103 76zM345 694q5 24 -9 41.5t-37 17.5
q-24 0 -44.5 -16.5t-24.5 -40.5q-5 -25 8.5 -42t37.5 -17t44 16t25 41z" />
    <glyph glyph-name="zeroinferior" unicode="&#x2080;" horiz-adv-x="356" 
d="M43 43q17 93 58 146t119 53q143 0 107 -199q-34 -197 -177 -197q-141 0 -107 197zM116 43q-24 -126 46 -126q68 0 92 126q24 128 -46 128q-68 0 -92 -128z" />
    <glyph glyph-name="oneinferior" unicode="&#x2081;" horiz-adv-x="212" 
d="M60 -149l50 285l-70 -30l12 65l151 70l-70 -390h-73z" />
    <glyph glyph-name="twoinferior" unicode="&#x2082;" horiz-adv-x="321" 
d="M13 -111l191 187q27 27 31 50q3 20 -10 33t-37 13q-23 0 -42 -15.5t-28 -41.5l-64 13q19 53 59 83.5t91 30.5q52 0 82 -32.5t21 -83.5q-10 -53 -58 -98q-98 -94 -111 -107h128l-13 -70h-246z" />
    <glyph glyph-name="threeinferior" unicode="&#x2083;" horiz-adv-x="318" 
d="M123 148l-49 38q51 61 127 56q48 -3 73.5 -34t17.5 -73q-3 -22 -20 -42.5t-41 -33.5q29 -11 42 -41.5t4 -62.5q-13 -49 -62.5 -81t-104.5 -28q-38 3 -66 25t-39 56l67 32q18 -43 56 -43q24 -1 46 13.5t27 34.5q5 21 -5 40t-45 19h-42l12 63h42q25 0 38.5 17.5t14.5 32.5
q2 15 -8 27t-29 12q-31 1 -56 -27z" />
    <glyph glyph-name="fourinferior" unicode="&#x2084;" horiz-adv-x="347" 
d="M259 -66l-15 -83h-73l15 83h-188l245 302h70l-42 -238h51l-12 -64h-51zM116 -2h82l23 130z" />
    <glyph glyph-name="fiveinferior" unicode="&#x2085;" horiz-adv-x="338" 
d="M77 -35q18 -47 66 -47q35 0 60.5 19t30.5 46q6 31 -12 47.5t-49 16.5q-53 0 -100 -38l-31 23l69 204h215l-12 -68h-156l-27 -75q29 18 71 18q55 0 85 -33.5t19 -94.5t-59 -99.5t-117 -38.5q-40 0 -73 21.5t-48 57.5q4 2 34 20t34 21z" />
    <glyph glyph-name="sixinferior" unicode="&#x2086;" horiz-adv-x="338" 
d="M332 166l-72 -28q-11 35 -46 35q-39 0 -63.5 -34t-31.5 -84q11 17 34.5 31t50.5 14q48 0 77.5 -36.5t18.5 -94.5q-11 -55 -55.5 -90t-102.5 -34q-54 1 -84.5 37t-24.5 96q5 47 16 89t32.5 84.5t59.5 67t88 23.5q84 -4 103 -76zM112 -26q-5 -24 9 -41t38 -17q23 0 43 16.5
t24 39.5q4 25 -9 42t-36 17q-25 1 -45 -15.5t-24 -41.5z" />
    <glyph glyph-name="seveninferior" unicode="&#x2087;" horiz-adv-x="314" 
d="M351 236l-254 -385h-83l208 316h-166l12 69h283z" />
    <glyph glyph-name="eightinferior" unicode="&#x2088;" horiz-adv-x="345" 
d="M83 137q7 44 46 74.5t86 30.5t74.5 -30.5t20.5 -74.5q-6 -38 -40 -64q49 -35 39 -97q-10 -54 -58 -92t-106 -38q-59 0 -94 38t-25 92q10 61 73 97q-22 28 -16 64zM99 -23q-5 -26 12.5 -44t45.5 -18t51.5 18.5t27.5 43.5q5 25 -11 44t-42 19h-9q-26 0 -48 -19t-27 -44z
M154 136q-3 -17 7 -29t29 -12q19 1 32 13t16 28t-7 27.5t-28 11.5q-19 0 -32.5 -11.5t-16.5 -27.5z" />
    <glyph glyph-name="nineinferior" unicode="&#x2089;" horiz-adv-x="339" 
d="M21 -79l72 29q11 -36 45 -36q38 0 63 34t33 84q-12 -18 -35 -31t-50 -13q-48 0 -77.5 36t-18.5 95q11 54 55 89t102 34q55 -1 85.5 -37t26.5 -96q-5 -46 -16.5 -88.5t-33.5 -85t-60 -67t-88 -23.5q-82 4 -103 76zM242 112q4 25 -9 42t-37 17q-24 1 -44 -15.5t-25 -40.5
q-5 -25 8.5 -42t37.5 -17t44 16t25 40z" />
    <glyph glyph-name="colonmonetary" unicode="&#x20a1;" horiz-adv-x="704" 
d="M323 -4l-58 -107l-50 20l54 102q-33 13 -60 32l-64 -118l-51 19l74 136q-46 50 -64 118t-4 145q26 144 139.5 246t255.5 107l59 109l50 -20l-49 -92q42 -5 70 -17l50 93l50 -20l-51 -96q56 -34 89 -92l-115 -73q-16 26 -39 44l-223 -419q12 -2 20 -2q54 0 106 25t90 68
l87 -74q-57 -65 -137 -102.5t-168 -37.5q-31 0 -61 6zM493 575l-219 -410q24 -27 56 -39l234 435q-36 13 -71 14zM228 343q-13 -68 11 -127l188 351q-74 -20 -129 -82t-70 -142z" />
    <glyph glyph-name="lira" unicode="&#x20a4;" horiz-adv-x="667" 
d="M439 227h-128l-21 -115h205q11 0 19.5 9t10.5 22l7 39h121l-9 -54q-9 -55 -48 -91.5t-90 -36.5h-459l19 112h102l21 115h-81l10 60h81l10 53h-81l11 60h81l12 71q17 102 85.5 164t164.5 62q93 0 144.5 -57t32.5 -163h-125q8 49 -14 71.5t-63 20.5q-37 -1 -65.5 -24.5
t-35.5 -61.5l-14 -83h128l-11 -60h-128l-10 -53h128z" />
    <glyph glyph-name="uni20A6" unicode="&#x20a6;" horiz-adv-x="786" 
d="M224 487h-90l10 55h90l26 147h119l60 -147h177l26 147h128l-26 -147h87l-10 -55h-87l-19 -108h87l-10 -55h-87l-56 -324h-117l-134 324h-76l-56 -324h-127l56 324h-90l10 55h90zM462 487l44 -108h81l19 108h-144zM528 324l34 -83l15 83h-49zM346 453l-14 -74h43z" />
    <glyph glyph-name="peseta" unicode="&#x20a7;" horiz-adv-x="755" 
d="M196 385h-80l10 55h80l9 52h-80l10 55h80l25 142h280q79 0 123.5 -39.5t55.5 -102.5h101l-10 -55h-88q-1 -12 -3 -34q-1 -6 -5 -18h87l-10 -55h-97q-31 -64 -90 -102t-143 -38h-152l-42 -245h-128zM581 458q2 22 1 34h-239l-9 -52h241q1 2 2.5 5.5t2.5 6.5t1 6zM508 575
h-150l-5 -28h211q-21 28 -56 28zM319 359h146q43 0 74 26h-215z" />
    <glyph glyph-name="rupee" unicode="&#x20a8;" horiz-adv-x="701" 
d="M456 453h-313q0 4 5 30.5t5 27.5h307q-11 64 -75 64h-221q15 76 19 114h594l-10 -58h-212q44 -49 41 -120h150l-10 -58h-146q-18 -77 -71.5 -133.5t-139.5 -69.5l132 -250h-154l-119 245h-132l20 114h217q43 0 72 27t41 67z" />
    <glyph glyph-name="uni20A9" unicode="&#x20a9;" horiz-adv-x="993" 
d="M237 322h-133l10 55h115l-11 64h-93l10 55h75l-31 193h138l25 -193h166l44 97h102l9 -97h166l94 193h139l-100 -193h68l-10 -55h-87l-32 -64h108l-10 -55h-127l-165 -322h-103l-31 322h-38l-141 -322h-104zM349 441l8 -64h98l28 64h-134zM668 441l6 -64h98l30 64h-134z
M364 322l15 -113l51 113h-66zM679 322l11 -113l55 113h-66z" />
    <glyph glyph-name="afii57636" unicode="&#x20aa;" horiz-adv-x="884" 
d="M663 332l-24 -136h-122l21 119q8 42 -17 71.5t-74 29.5h-41h-120l-73 -416h-123l95 538h257q27 0 71 -4q83 -7 123.5 -64t26.5 -138zM314 206l25 136h122l-21 -119q-8 -43 16.5 -72t73.5 -29h41h120l75 416h123l-95 -538h-257q-37 0 -73 3q-82 7 -123 64t-27 139z" />
    <glyph glyph-name="Euro" unicode="&#x20ac;" horiz-adv-x="835" 
d="M597 370h-484l11 60h117q48 116 154.5 191.5t229.5 75.5q86 0 152 -36t102 -100l-116 -73q-24 40 -65.5 64t-94.5 24q-70 0 -132.5 -40.5t-96.5 -105.5h234zM103 314h484l-11 -60h-233q14 -64 61.5 -103.5t116.5 -39.5q54 0 106 25t90 68l87 -74q-57 -65 -136.5 -102.5
t-167.5 -37.5q-122 0 -201.5 74t-88.5 190h-118z" />
    <glyph glyph-name="uni2113" unicode="&#x2113;" horiz-adv-x="399" 
d="M268 525l-43 -245l34 2q32 1 40 51l34 192q12 65 -19 65q-21 0 -30.5 -17.5t-15.5 -47.5zM248 105l97 -5l-18 -100h-117q-145 0 -116 166l64 365q30 166 175 166q140 0 111 -171l-33 -187q-15 -85 -59.5 -125.5t-145.5 -40.5l-1 -7q-4 -31 3.5 -45.5t39.5 -15.5z" />
    <glyph glyph-name="afii61352" unicode="&#x2116;" horiz-adv-x="979" 
d="M599 0l121 689h-128l-79 -448l-183 448h-120l-121 -689h128l80 453l186 -453h116zM765 561q10 56 55 94.5t101 38.5q55 0 87.5 -39t22.5 -94t-55.5 -93.5t-100.5 -38.5q-56 0 -88 38t-22 94zM838 561q-5 -25 9.5 -42.5t39.5 -17.5t46 17.5t25 42.5q5 25 -9.5 43t-39.5 18
t-45.5 -18t-25.5 -43zM729 325l10 60h253l-10 -60h-253z" />
    <glyph glyph-name="trademark" unicode="&#x2122;" horiz-adv-x="849" 
d="M385 319l90 301h-107l-54 -301h-78l54 301h-118l12 69h378l73 -241l155 241h67l-21 -370h-77l15 238l-126 -197h-58l-57 197l-71 -238h-77z" />
    <glyph glyph-name="estimated" unicode="&#x212e;" horiz-adv-x="651" 
d="M656 279h-429l-34 -193q54 -63 140 -63q76 0 129 33t104 94l27 -19q-56 -68 -117.5 -104.5t-148.5 -36.5q-119 0 -180 84.5t-39 205.5q22 123 112 206.5t215 83.5q124 0 183.5 -84.5t37.5 -206.5zM542 312l28 163q-24 27 -62 44.5t-79 17.5q-97 0 -168 -62l-28 -163h309z
" />
    <glyph glyph-name="minus" unicode="&#x2212;" horiz-adv-x="530" 
d="M497 215h-390l16 95h390z" />
    <glyph glyph-name="notequal" unicode="&#x2260;" horiz-adv-x="610" 
d="M295 135l-70 -106h-70l70 106h-128l17 94h173l70 105h-224l16 94h270l68 101h71l-68 -101h119l-16 -94h-165l-70 -105h216l-17 -94h-262z" />
    <glyph glyph-name="lessequal" unicode="&#x2264;" horiz-adv-x="642" 
d="M591 144l-469 192l18 104l538 192l-18 -105l-394 -139l344 -139zM562 0h-492l14 88h492z" />
    <glyph glyph-name="greaterequal" unicode="&#x2265;" horiz-adv-x="642" 
d="M638 336l-539 -192l19 105l394 139l-344 139l18 105l470 -192zM80 0h492l14 88h-492z" />
    <glyph glyph-name="commaaccent" unicode="&#xf6c3;" horiz-adv-x="301" 
d="M84 -274l-59 29q40 44 59.5 84t28.5 105h107q-33 -147 -136 -218z" />
    <glyph glyph-name="rupiah" unicode="&#xf6dd;" horiz-adv-x="1162" 
d="M443 575h-142l-38 -216h138q47 0 77.5 32t38.5 75q8 42 -10.5 75.5t-63.5 33.5zM437 250l132 -250h-154l-119 245h-53l-43 -245h-128l121 689h276q107 0 152 -65.5t29 -157.5q-14 -80 -69 -141t-144 -75zM836 467l-12 -63q25 34 69 53.5t91 19.5q94 0 148.5 -68
t35.5 -175q-19 -109 -97.5 -176.5t-173.5 -67.5q-47 0 -84 19t-49 53l-52 -289h-122l124 694h122zM796 232q-10 -58 20.5 -92t81.5 -34q52 0 93.5 35t51.5 91q10 57 -19.5 92.5t-80.5 35.5q-52 0 -95 -35.5t-52 -92.5z" />
    <glyph glyph-name="apple" unicode="&#xf8ff;" horiz-adv-x="847" 
d="M755 687l12 -687h-687l-12 687h687zM154 595l6 -377h81l-75 75l-3 178l259 -253l252 253l3 -178l-73 -75h84l-6 377l-262 -263zM177 132h-15l1 -53h9l-1 37l14 -37h10l10 37l1 -37h9l-1 53h-14l-9 -36zM246 132q-12 0 -18.5 -7.5t-6.5 -18.5t7 -19t19 -8q22 0 22 26
q0 11 -6 19t-17 8zM246 89q-7 0 -12 5.5t-5 10.5q0 6 5 11.5t12 5.5q12 0 12 -17q0 -16 -12 -16zM282 99h-13q0 -20 23 -20q21 0 21 17q0 11 -15 14q-16 3 -16 6q0 6 9 6q10 0 10 -6h9q0 16 -19 16t-19 -16q0 -8 16 -15q13 0 13 -5q0 -7 -10 -7q-9 0 -9 10zM313 122h17
l1 -43h8l-1 43h15v10h-40v-10zM375 132h-9l-21 -53h12l3 13h22l4 -13h11zM372 119l7 -18h-16l6 18h3zM424 132h-28l1 -53h9l-1 22h13q9 0 9 -9q0 -3 0.5 -7.5t0.5 -5.5h13q-4 4 -4 13t-7 13q7 3 7 9q0 18 -13 18zM418 108h-13v14h13q9 0 9 -6q0 -8 -9 -8zM464 132h-20l1 -53
h20q11 0 17.5 8t6.5 20q0 25 -25 25zM464 89h-8v33h4q17 0 17 -17q0 -6 -4 -11t-9 -5zM529 132h-37l1 -53h40l-1 10h-28v12h25v9h-25v12h25v10zM541 99h-9q0 -20 23 -20q21 0 21 17q0 11 -15 14q-17 3 -17 6q0 6 7 6q12 0 12 -6h10q0 16 -19 16q-8 0 -15 -4.5t-7 -11.5
t19 -15q12 0 12 -5q0 -7 -9 -7q-13 0 -13 10zM587 132h-7l1 -53h7zM631 86l5 -7h6l-1 29h-22v-9h12q-4 -10 -12 -10q-7 0 -11.5 5.5t-4.5 10.5q0 6 4.5 11.5t11.5 5.5q9 0 9 -10h13q-4 20 -22 20q-11 0 -18 -8t-7 -19q0 -10 7 -18t19 -8q9 0 11 7zM655 132h-8l1 -53h8l-1 33
l23 -33h13l-1 53h-13v-33z" />
    <glyph glyph-name="published" horiz-adv-x="801" 
d="M414 280h67q55 0 90.5 35.5t43.5 79.5q9 47 -14.5 81.5t-78.5 34.5h-136l-63 -353h69zM443 443h67q21 0 29.5 -14t4.5 -34q-3 -19 -17.5 -33t-36.5 -14h-65zM111 343q26 147 145.5 250.5t265.5 103.5t230 -104t58 -250q-26 -147 -146.5 -250t-266.5 -103t-229 103
t-57 250zM172 343q-22 -121 47 -206t190 -85q120 0 218.5 85t120.5 206t-47.5 206.5t-190.5 85.5q-120 0 -218 -85.5t-120 -206.5z" />
    <glyph glyph-name="frenchfranc" horiz-adv-x="737" 
d="M373 0l54 310h-154l-54 -310h-127l121 689h417l-20 -115h-290l-27 -152h272l-19 -109q55 120 146 120q57 0 83 -18l-41 -112q-29 16 -68 16q-118 0 -155 -198l-20 -121h-118z" />
    <glyph glyph-name="parenleft.case" horiz-adv-x="378" 
d="M102 341q37 207 144.5 337.5t239.5 130.5l-17 -102q-79 0 -156.5 -108t-104.5 -258q-16 -102 -5 -182.5t48 -129.5t88 -49l-17 -101q-132 0 -194.5 128t-25.5 334z" />
    <glyph glyph-name="parenright.case" horiz-adv-x="378" 
d="M396 341q-37 -206 -144.5 -334t-239.5 -128l17 101q79 0 156.5 106t104.5 255q16 103 5 184.5t-48 131.5t-88 50l17 102q132 0 194.5 -131t25.5 -337z" />
    <glyph glyph-name="hyphen.case" horiz-adv-x="477" 
d="M116 303l18 102h351l-18 -102h-351z" />
    <glyph glyph-name="at.case" horiz-adv-x="967" 
d="M633 245l23 127q8 51 -21 86t-79 35t-91.5 -35t-50.5 -86q-9 -49 20 -84t79 -35q47 0 92 33l-16 -91q-48 -24 -90 -24q-84 0 -133 58.5t-34 142.5q15 85 84.5 144t153.5 59q81 0 131 -55q51 -56 39 -138l-26 -143q-10 -62 53 -62q32 0 58.5 21t43.5 54.5t27.5 66
t16.5 66.5q25 145 -65 242t-241 97q-147 0 -266.5 -104t-145.5 -253q-26 -148 56.5 -250t229.5 -102h29l-15 -83h-29q-182 0 -284 126t-70 309t180 311.5t329 128.5q121 0 215 -54.5t138.5 -152t23.5 -215.5q-7 -37 -19.5 -75.5t-34 -77.5t-48 -69t-64 -49t-78.5 -19
q-64 0 -99.5 35.5t-21.5 114.5z" />
    <glyph glyph-name="bracketleft.case" horiz-adv-x="332" 
d="M55 -115l163 916h220l-17 -95h-112l-130 -725h112l-16 -96h-220z" />
    <glyph glyph-name="bracketright.case" horiz-adv-x="332" 
d="M398 801l-163 -916h-220l16 96h112l130 725h-112l17 95h220z" />
    <glyph glyph-name="braceleft.case" horiz-adv-x="407" 
d="M102 385q24 0 45.5 16t25.5 40l29 162q15 89 82.5 143.5t152.5 54.5h78l-17 -94h-81q-38 0 -69.5 -27.5t-38.5 -68.5l-27 -153q-7 -41 -32 -72t-57 -43q27 -11 41 -42t7 -72l-26 -147q-8 -41 14 -71t59 -30h81l-17 -96h-78q-85 0 -133 54.5t-32 143.5l29 164
q4 24 -11.5 39.5t-39.5 15.5z" />
    <glyph glyph-name="braceright.case" horiz-adv-x="407" 
d="M440 385l-14 -83q-24 0 -45.5 -15.5t-25.5 -39.5l-30 -164q-16 -89 -83 -143.5t-151 -54.5h-78l16 96h81q37 0 69 30t40 71l27 147q7 41 32 72t56 42q-27 12 -40.5 43t-6.5 72l26 153q7 41 -14 68.5t-59 27.5h-81l17 94h78q85 0 132.5 -54.5t31.5 -143.5l-29 -162
q-4 -24 11.5 -40t39.5 -16z" />
    <glyph glyph-name="exclamdown.case" horiz-adv-x="280" 
d="M212 0h-143l104 487h105zM171 622q6 33 32.5 54.5t58.5 21.5q33 0 53 -21.5t14 -54.5t-33.5 -54.5t-60.5 -21.5q-32 0 -51 22t-13 54z" />
    <glyph glyph-name="guillemotleft.case" horiz-adv-x="522" 
d="M110 345l175 207h98l-175 -207l102 -207h-98zM287 345l175 207h98l-175 -207l102 -207h-98z" />
    <glyph glyph-name="periodcentered.case" horiz-adv-x="278" 
d="M134 425q6 32 33 54t59 22q33 0 52.5 -21.5t13.5 -54.5t-33 -54.5t-60 -21.5q-32 0 -51.5 22t-13.5 54z" />
    <glyph glyph-name="guillemotright.case" horiz-adv-x="522" 
d="M355 345l-174 -207h-98l174 207l-100 207h98zM532 345l-174 -207h-98l174 207l-100 207h98z" />
    <glyph glyph-name="questiondown.case" horiz-adv-x="491" 
d="M313 452l8 36h119l-4 -36q-4 -24 -9.5 -43.5t-15.5 -36.5t-16.5 -28t-22.5 -24t-24.5 -19.5t-32 -18t-34.5 -16.5t-41 -19q-41 -16 -50 -65q-6 -31 16 -51.5t59 -20.5t65 24t35 63h121q-17 -95 -85 -152t-158 -57q-91 0 -141 53.5t-34 141.5q13 70 60.5 120t112.5 69
q33 10 49 27.5t23 52.5zM481 620q-6 -32 -33 -54t-59 -22q-33 0 -52.5 22t-13.5 54q6 33 33 55t60 22t52 -22t13 -55z" />
    <glyph glyph-name="endash.case" horiz-adv-x="621" 
d="M115 293l20 108h493l-20 -108h-493z" />
    <glyph glyph-name="emdash.case" horiz-adv-x="832" 
d="M115 293l20 108h704l-20 -108h-704z" />
    <glyph glyph-name="bullet.case" horiz-adv-x="468" 
d="M138 350q11 64 65 107t119 43q64 0 101.5 -42.5t26.5 -107.5q-11 -64 -64 -107t-118 -43t-103 43t-27 107z" />
    <glyph glyph-name="guilsinglleft.case" horiz-adv-x="345" 
d="M110 345l175 207h98l-175 -207l102 -207h-98z" />
    <glyph glyph-name="guilsinglright.case" horiz-adv-x="345" 
d="M355 345l-174 -207h-98l174 207l-100 207h98z" />
    <glyph glyph-name="cent.case" horiz-adv-x="537" 
d="M439 692l-19 -104q108 -9 156 -90l-110 -73q-25 46 -88 46q-53 0 -99 -34.5t-55 -89.5t23.5 -91.5t85.5 -36.5q63 0 105 47l85 -72q-79 -82 -189 -91l-20 -113h-69l21 116q-86 16 -133 81t-30 160q17 94 87 158t161 80l19 107h69z" />
    <glyph glyph-name="zero.tnum" horiz-adv-x="580" 
d="M106 327q14 75 35.5 133t57 106t88.5 74t122 26t113 -26.5t61 -72.5t19 -107.5t-13 -132.5q-11 -59 -26 -107t-39.5 -92t-56.5 -73.5t-77.5 -47t-100.5 -17.5q-245 0 -183 337zM229 327q-38 -217 82 -217q118 0 156 217q40 219 -79 219t-159 -219z" />
    <glyph glyph-name="one.tnum" horiz-adv-x="580" 
d="M246 559l251 103l-116 -662h-123l86 493l-117 -44z" />
    <glyph glyph-name="two.tnum" horiz-adv-x="580" 
d="M492 0h-418l10 63l324 320q47 45 55 86q6 33 -16.5 55.5t-63.5 22.5q-40 0 -72.5 -26.5t-45.5 -68.5l-111 21q30 89 99 141t156 52q88 0 139.5 -55.5t36.5 -141.5q-15 -87 -99 -167l-196 -185h221z" />
    <glyph glyph-name="three.tnum" horiz-adv-x="580" 
d="M325 291h-70l21 109h70q40 -1 61 24.5t25 47.5q4 24 -5 46t-39 27q-62 10 -109 -39l-85 63q36 47 95 74t121 23q82 -4 125.5 -56.5t30.5 -126.5q-7 -39 -35 -73t-69 -55q48 -19 70 -72t7 -106q-24 -88 -106.5 -140.5t-177.5 -45.5q-66 4 -114 42t-65 96q5 2 58 26.5
t58 27.5q10 -31 36 -52t58 -21q47 0 83 27.5t44 69.5q4 6 0.5 20.5t-9.5 29t-27 25t-52 9.5z" />
    <glyph glyph-name="four.tnum" horiz-adv-x="580" 
d="M233 249h145l41 228zM569 142h-87l-25 -142h-122l25 142h-323l417 512h119l-73 -405h87z" />
    <glyph glyph-name="five.tnum" horiz-adv-x="580" 
d="M449 224q9 55 -21 84t-85 29q-89 0 -161 -66l-63 42l116 341h372l-21 -113h-274l-47 -134q49 35 128 35q93 0 144.5 -57.5t33.5 -160.5q-18 -104 -101.5 -169t-201.5 -65q-68 0 -123.5 38t-78.5 100q5 3 57 32.5t57 31.5q14 -36 44 -58.5t66 -22.5q63 0 107 33t52 80z
" />
    <glyph glyph-name="six.tnum" horiz-adv-x="580" 
d="M432 207q8 42 -14.5 71t-63.5 30t-76 -28t-43 -70q-7 -42 16 -71.5t64 -29.5q41 -1 75 27.5t42 70.5zM394 422q82 0 132 -61t31 -161q-18 -93 -93 -152t-176 -58q-91 1 -143 63t-41 164q6 66 19 126t39 121.5t62 105.5t91 71t122 25q65 -3 109.5 -30.5t64.5 -96.5
l-121 -48q-20 60 -77 60q-67 0 -110.5 -59t-54.5 -144q16 28 57 51t89 23z" />
    <glyph glyph-name="seven.tnum" horiz-adv-x="580" 
d="M183 654h479l-429 -654h-140l354 539h-285z" />
    <glyph glyph-name="eight.tnum" horiz-adv-x="580" 
d="M300 484q-5 -30 11.5 -50.5t50.5 -20.5q33 0 56.5 21t28.5 50q5 28 -11.5 48t-48.5 20q-33 0 -57.5 -20.5t-29.5 -47.5zM208 216q-8 -45 21.5 -77.5t78.5 -32.5q48 0 89 32.5t48 77.5q8 43 -19.5 75.5t-72.5 32.5h-18q-45 0 -82 -33t-45 -75zM182 488q13 74 78.5 126
t146.5 52q80 0 127 -52t34 -126q-11 -66 -69 -112q41 -26 59.5 -69t8.5 -95q-17 -92 -98.5 -157t-181.5 -65t-159 65t-42 157q10 53 42.5 95.5t81.5 68.5q-40 46 -28 112z" />
    <glyph glyph-name="nine.tnum" horiz-adv-x="580" 
d="M263 449q-9 -41 13.5 -70.5t63.5 -30.5t76.5 27.5t43.5 69.5q7 42 -16 71.5t-64 30.5t-74.5 -27.5t-42.5 -70.5zM299 234q-81 0 -130 61t-31 161q18 93 93 151.5t175 57.5q91 -2 143 -63t43 -163q-7 -67 -20 -126.5t-39 -121.5t-61.5 -106t-90.5 -70.5t-123 -24.5
q-65 3 -110 30.5t-65 96.5l123 48q17 -60 77 -60q67 0 109.5 59t53.5 144q-15 -28 -56.5 -51t-90.5 -23z" />
    <glyph glyph-name="zero.taboldstyle" horiz-adv-x="580" 
d="M288 -9q-102 0 -164 73.5t-42 188.5q20 117 108 189.5t191 72.5q105 0 164.5 -72.5t39.5 -189.5q-20 -115 -106.5 -188.5t-190.5 -73.5zM308 107q55 0 103 41t59 105q12 64 -21 104.5t-89 40.5q-55 0 -101.5 -40t-58.5 -105q-11 -64 21.5 -105t86.5 -41z" />
    <glyph glyph-name="one.taboldstyle" horiz-adv-x="580" 
d="M490 517l-90 -517h-123l58 334l-146 -61l21 120z" />
    <glyph glyph-name="two.taboldstyle" horiz-adv-x="580" 
d="M485 0h-400l11 66l278 240q39 32 43 54q4 20 -12 34.5t-46 14.5t-54 -16.5t-33 -47.5l-116 16q23 74 83 118.5t143 44.5q85 0 132.5 -46.5t35.5 -112.5q-11 -64 -94 -133l-149 -121h197z" />
    <glyph glyph-name="six.taboldstyle" horiz-adv-x="580" 
d="M432 207q8 42 -14.5 71t-63.5 30t-76 -28t-43 -70q-7 -42 16 -71.5t64 -29.5q41 -1 75 27.5t42 70.5zM394 422q82 0 132 -61t31 -161q-18 -93 -93 -152t-176 -58q-91 2 -143 63.5t-42 163.5q7 66 20 126t39 121.5t62 105.5t91 71t122 25q65 -3 109.5 -30.5t64.5 -96.5
l-121 -48q-20 60 -77 60q-67 0 -110.5 -59t-54.5 -144q16 28 57 51t89 23z" />
    <glyph glyph-name="eight.taboldstyle" horiz-adv-x="580" 
d="M300 484q-5 -30 11.5 -50.5t50.5 -20.5q33 0 56.5 21t28.5 50q5 28 -11.5 48t-48.5 20q-33 0 -57.5 -20.5t-29.5 -47.5zM208 216q-8 -45 21.5 -77.5t78.5 -32.5q48 0 89 32.5t48 77.5q8 43 -19.5 75.5t-72.5 32.5h-18q-45 0 -82 -33t-45 -75zM182 488q13 74 78.5 126
t146.5 52q80 0 127 -52t34 -126q-11 -66 -69 -112q41 -26 59.5 -69t8.5 -95q-17 -92 -98.5 -157t-181.5 -65t-159 65t-42 157q10 53 42.5 95.5t81.5 68.5q-40 46 -28 112z" />
    <glyph glyph-name="three.taboldstyle" horiz-adv-x="580" 
d="M294 102h-70l19 109h70q40 -1 62 24.5t26 47.5q4 23 -6 45.5t-40 28.5q-61 8 -108 -40l-85 63q36 47 95 74t121 23q82 -4 126 -56.5t30 -126.5q-7 -40 -35 -73.5t-68 -54.5q47 -19 69 -72t8 -106q-24 -88 -107 -140.5t-179 -45.5q-65 4 -113 42t-64 96q5 3 58.5 27.5
t57.5 26.5q9 -31 34.5 -52t58.5 -21q47 0 83 27.5t44 69.5q4 6 0.5 20.5t-9 29t-26.5 25t-52 9.5z" />
    <glyph glyph-name="four.taboldstyle" horiz-adv-x="580" 
d="M201 61h145l41 227zM538 -46h-87l-25 -142h-123l25 142h-323l417 512h120l-73 -405h87z" />
    <glyph glyph-name="five.taboldstyle" horiz-adv-x="580" 
d="M415 36q10 55 -20 84t-86 29q-89 0 -162 -65l-62 42l116 340h372l-20 -113h-274l-47 -134q49 36 128 36q93 0 144 -58t33 -161t-101.5 -168.5t-201.5 -65.5q-68 0 -123 38t-78 100q4 3 56.5 32t57.5 32q13 -36 42.5 -58t66.5 -22q64 0 107 32.5t52 79.5z" />
    <glyph glyph-name="seven.taboldstyle" horiz-adv-x="580" 
d="M150 466h479l-430 -654h-140l354 539h-284z" />
    <glyph glyph-name="nine.taboldstyle" horiz-adv-x="580" 
d="M232 261q-9 -41 14.5 -70.5t64.5 -30.5t75.5 27.5t42.5 69.5q7 42 -16 71.5t-64 30.5t-74.5 -27.5t-42.5 -70.5zM269 46q-81 0 -130.5 61t-31.5 161q19 93 93.5 151.5t174.5 57.5q92 -2 144 -63t42 -163q-7 -66 -20 -126t-39 -122t-61.5 -106t-90.5 -70.5t-123 -24.5
q-65 3 -110 30.5t-64 96.5l122 48q18 -60 77 -60q67 0 109.5 59t53.5 144q-15 -28 -56 -51t-90 -23z" />
    <glyph glyph-name="zero.oldstyle" horiz-adv-x="600" 
d="M297 -9q-102 0 -164 73.5t-42 188.5q20 117 108 189.5t191 72.5q105 0 164.5 -72.5t39.5 -189.5q-20 -115 -106.5 -188.5t-190.5 -73.5zM317 107q55 0 103 41t59 105q12 64 -21 104.5t-89 40.5q-55 0 -101.5 -40t-58.5 -105q-11 -64 21.5 -105t86.5 -41z" />
    <glyph glyph-name="one.oldstyle" horiz-adv-x="379" 
d="M390 517l-90 -517h-122l58 334l-147 -61l21 120z" />
    <glyph glyph-name="two.oldstyle" horiz-adv-x="522" 
d="M457 0h-400l11 66l278 240q38 31 42 54q4 20 -11.5 34.5t-45.5 14.5q-68 0 -87 -64l-116 16q22 74 82.5 118.5t143.5 44.5q85 0 132 -46.5t35 -112.5q-11 -66 -94 -133l-149 -121h198z" />
    <glyph glyph-name="three.oldstyle" horiz-adv-x="527" 
d="M268 102h-70l19 109h70q40 -1 62 24.5t26 47.5q4 23 -6 45.5t-40 28.5q-61 8 -108 -40l-85 63q36 47 95 74t121 23q82 -4 126 -56.5t30 -126.5q-7 -40 -35 -73.5t-68 -54.5q47 -19 69 -72t8 -106q-24 -88 -107 -140.5t-179 -45.5q-65 4 -113 42t-64 96q5 3 58.5 27.5
t57.5 26.5q9 -31 34.5 -52t58.5 -21q47 0 83 27.5t44 69.5q4 6 0.5 20.5t-9 29t-26.5 25t-52 9.5z" />
    <glyph glyph-name="four.oldstyle" horiz-adv-x="586" 
d="M204 61h145l41 227zM541 -46h-87l-25 -142h-123l25 142h-322l416 512h120l-73 -405h87z" />
    <glyph glyph-name="five.oldstyle" 
d="M410 35q10 55 -20.5 84.5t-85.5 29.5q-90 0 -162 -66l-62 42l116 341h371l-21 -114h-273l-47 -133q51 35 127 35q93 0 144.5 -58t33.5 -161q-18 -104 -101.5 -168.5t-201.5 -64.5q-68 0 -123 38t-78 100q4 2 30.5 17t54 30.5t29.5 16.5q14 -37 43.5 -59t65.5 -22
q64 0 107.5 32.5t52.5 79.5z" />
    <glyph glyph-name="six.oldstyle" horiz-adv-x="573" 
d="M429 207q8 42 -14.5 71t-63.5 30t-76 -28t-43 -70q-7 -42 16 -71.5t64 -29.5q41 -1 75 27.5t42 70.5zM391 422q82 0 132 -61t31 -161q-18 -93 -93 -152t-176 -58q-91 2 -143 63.5t-42 163.5q7 66 20 126t39 121.5t62 105.5t91 71t122 25q65 -3 109.5 -30.5t64.5 -96.5
l-121 -48q-20 60 -77 60q-67 0 -110.5 -59t-54.5 -144q16 28 57 51t89 23z" />
    <glyph glyph-name="seven.oldstyle" horiz-adv-x="518" 
d="M119 466h479l-429 -654h-140l354 539h-285z" />
    <glyph glyph-name="eight.oldstyle" horiz-adv-x="584" 
d="M302 484q-5 -30 11.5 -50.5t50.5 -20.5q33 0 56.5 21t28.5 50q5 28 -11.5 48t-48.5 20q-33 0 -57.5 -20.5t-29.5 -47.5zM210 216q-8 -45 21.5 -77.5t78.5 -32.5q48 0 89 32.5t48 77.5q8 43 -19.5 75.5t-72.5 32.5h-18q-45 0 -82 -33t-45 -75zM184 488q13 74 78.5 126
t146.5 52q80 0 127 -52t34 -126q-11 -66 -69 -112q41 -26 59.5 -69t8.5 -95q-17 -92 -98.5 -157t-181.5 -65t-159 65t-42 157q10 53 42.5 95.5t81.5 68.5q-40 46 -28 112z" />
    <glyph glyph-name="nine.oldstyle" horiz-adv-x="554" 
d="M219 261q-9 -41 14.5 -70.5t64.5 -30.5t75.5 27.5t42.5 69.5q7 42 -16 71.5t-64 30.5t-74.5 -27.5t-42.5 -70.5zM256 46q-81 0 -130.5 61t-31.5 161q19 93 93.5 151.5t174.5 57.5q92 -2 144 -63t42 -163q-7 -66 -20 -126t-39 -122t-61.5 -106t-90.5 -70.5t-123 -24.5
q-65 3 -110 30.5t-64 96.5l122 48q18 -60 77 -60q67 0 109.5 59t53.5 144q-15 -28 -56 -51t-90 -23z" />
    <glyph glyph-name="Lslash.sc" horiz-adv-x="434" 
d="M268 394l88 50l-14 -73l-87 -50l-39 -219h218l-17 -102h-330l43 251l-64 -35l13 73l65 36l44 247h112z" />
    <glyph glyph-name="Zcaron.sc" horiz-adv-x="514" 
d="M382 699l76 70h84l-119 -139h-105l-69 139h84zM61 87l340 385h-259l18 100h403l-15 -86l-341 -385h272l-17 -101h-415z" />
    <glyph glyph-name="exclam.sc" horiz-adv-x="290" 
d="M126 166l56 404h129l-88 -404h-97zM221 55q5 28 -12 47t-45 19q-29 0 -52 -18.5t-28 -47.5q-5 -28 11.5 -46.5t45.5 -18.5q28 0 51.5 18.5t28.5 46.5z" />
    <glyph glyph-name="ampersand.sc" horiz-adv-x="584" 
d="M417 349l12 67h100l-13 -68h68l-14 -86h-68l-16 -91q-9 -48 4 -66.5t61 -18.5l-17 -95q-64 1 -99 14.5t-44 48.5q-24 -30 -66.5 -47t-81.5 -17q-84 0 -130 49.5t-33 125.5q19 106 112 147q-50 29 -36 108q11 61 66.5 108.5t122.5 47.5q102 0 143 -80l-99 -56
q-20 32 -50 32q-29 0 -49 -17t-24 -41q-2 -11 0 -23.5t15.5 -27t38.5 -14.5h97zM401 262h-82q-53 0 -84 -22t-40 -57q-10 -38 13 -63.5t64 -25.5q42 0 77 32.5t44 87.5z" />
    <glyph glyph-name="question.sc" horiz-adv-x="427" 
d="M213 406h-103q15 80 71 127t133 47q76 0 117 -44.5t28 -118.5q-10 -59 -49.5 -101.5t-93.5 -57.5q-23 -6 -35 -18.5t-15.5 -24t-13.5 -50.5h-104q2 18 4 31q11 64 42 100t89 56q63 21 70 65q4 24 -13 40t-45 16q-29 0 -52 -18.5t-30 -48.5zM113 55q5 29 28 47.5t51 18.5
q29 0 46 -18.5t12 -47.5q-5 -28 -28.5 -46.5t-52.5 -18.5q-28 0 -44.5 18.5t-11.5 46.5z" />
    <glyph glyph-name="A.sc" horiz-adv-x="570" 
d="M258 235h134l-31 204zM440 0l-27 137h-207l-76 -137h-118l315 572h118l113 -572h-118z" />
    <glyph glyph-name="B.sc" horiz-adv-x="551" 
d="M546 415q-14 -78 -88 -109q44 -14 62.5 -53t11.5 -80q-13 -73 -70 -123t-138 -50h-242l101 572h225q77 0 114 -42t24 -115zM253 346h106q26 0 45.5 18t24.5 46q5 29 -8 45.5t-42 16.5h-103zM360 250h-123l-27 -150h125q31 0 53.5 22.5t28.5 53.5q5 28 -10 51t-47 23z" />
    <glyph glyph-name="C.sc" horiz-adv-x="600" 
d="M511 174l79 -65q-50 -55 -117.5 -87t-138.5 -32q-122 0 -190.5 85.5t-46.5 207.5q23 124 121 209.5t220 85.5q71 0 126 -31t86 -85l-100 -64q-44 74 -130 74q-76 0 -136.5 -55t-74.5 -134q-14 -78 27 -132.5t117 -54.5q90 0 158 78z" />
    <glyph glyph-name="D.sc" horiz-adv-x="614" 
d="M306 0h-224l101 572h224q121 0 176 -81t32 -207q-22 -125 -105 -204.5t-204 -79.5zM210 102h113q70 0 118 52t62 130q15 80 -14.5 133t-100.5 53h-113z" />
    <glyph glyph-name="E.sc" horiz-adv-x="499" 
d="M183 572h356l-18 -100h-246l-25 -140h216l-18 -100h-216l-23 -132h253l-17 -100h-363z" />
    <glyph glyph-name="F.sc" horiz-adv-x="466" 
d="M183 572h352l-18 -100h-241l-25 -140h191l-18 -100h-191l-40 -232h-111z" />
    <glyph glyph-name="G.sc" horiz-adv-x="648" 
d="M633 488l-93 -71h-2q-40 56 -117 56q-75 0 -137 -55.5t-76 -134.5q-14 -78 28 -133.5t117 -55.5q57 0 108 30.5t62 79.5h-155l16 93h282q-27 -153 -115 -230t-216 -77q-122 0 -191.5 86t-47.5 207q23 124 122 209.5t221 85.5q62 0 112.5 -24t81.5 -66z" />
    <glyph glyph-name="H.sc" horiz-adv-x="607" 
d="M626 572l-101 -572h-112l40 234h-221l-40 -234h-110l101 572h110l-42 -237h221l42 237h112z" />
    <glyph glyph-name="I.sc" horiz-adv-x="274" 
d="M183 572h110l-101 -572h-110z" />
    <glyph glyph-name="J.sc" horiz-adv-x="275" 
d="M-103 -185l28 102q23 -9 67 -9q37 0 59 24t29 62l103 578h111l-103 -578q-15 -85 -69.5 -138.5t-148.5 -53.5q-34 0 -76 13z" />
    <glyph glyph-name="K.sc" horiz-adv-x="522" 
d="M305 288l219 -288h-145l-150 205l-35 -205h-112l101 572h112l-36 -199l184 199h131z" />
    <glyph glyph-name="L.sc" horiz-adv-x="428" 
d="M183 572h111l-84 -472h218l-17 -100h-329z" />
    <glyph glyph-name="M.sc" horiz-adv-x="784" 
d="M425 194l246 378h95l-32 -572h-111l20 361l-196 -297h-88l-92 297l-107 -361h-111l171 572h94z" />
    <glyph glyph-name="N.sc" horiz-adv-x="589" 
d="M507 0h-101l-150 364l-64 -364h-110l101 572h102l147 -358l64 358h112z" />
    <glyph glyph-name="O.sc" horiz-adv-x="674" 
d="M97 283q23 124 121 209.5t219 85.5q123 0 193.5 -86t47.5 -209q-22 -121 -122.5 -207t-222.5 -86q-121 0 -189.5 86t-46.5 207zM208 283q-14 -76 28 -129.5t117 -53.5q76 0 138 53.5t76 129.5q14 77 -29.5 131t-119.5 54q-75 0 -135.5 -54t-74.5 -131z" />
    <glyph glyph-name="P.sc" horiz-adv-x="530" 
d="M183 572h233q90 0 127 -54.5t24 -131.5t-70 -130.5t-148 -53.5h-122l-34 -202h-111zM396 472h-120l-31 -171h116q37 0 62.5 25.5t31.5 59.5t-9 60t-50 26z" />
    <glyph glyph-name="Q.sc" horiz-adv-x="677" 
d="M512 43l39 -92l-91 -51l-44 101q-41 -11 -81 -11q-122 0 -191.5 86t-47.5 207q23 124 122 209.5t221 85.5q124 0 194.5 -86t47.5 -209q-13 -72 -58.5 -135.5t-110.5 -104.5zM428 230l42 -94q37 26 64.5 65t34.5 82q14 79 -29 134t-119 55q-75 0 -137 -55t-76 -134
q-13 -72 24.5 -122.5t107.5 -60.5h34q-5 12 -23 51l-13 29z" />
    <glyph glyph-name="R.sc" horiz-adv-x="549" 
d="M389 206l111 -206h-135l-100 202h-38l-34 -202h-111l101 572h230q89 0 127.5 -55t24.5 -131q-11 -65 -57 -115.5t-119 -64.5zM390 472h-114l-31 -171h110q38 0 62.5 25.5t30.5 59.5t-8 60t-50 26z" />
    <glyph glyph-name="S.sc" horiz-adv-x="503" 
d="M79 170h112q-5 -33 16.5 -56t63.5 -23q40 0 67 18t35 47q14 55 -63 74l-66 20q-137 42 -117 160q13 74 77.5 121t145.5 47q84 0 129.5 -47.5t30.5 -128.5h-110q6 33 -12.5 53.5t-55.5 20.5q-34 0 -61.5 -18t-32.5 -46q-8 -43 55 -62l67 -20q80 -24 109 -71.5t16 -105.5
q-17 -75 -84 -119t-149 -44q-91 0 -139 52t-34 128z" />
    <glyph glyph-name="T.sc" horiz-adv-x="477" 
d="M124 572h431l-18 -101h-159l-83 -471h-113l83 471h-159z" />
    <glyph glyph-name="U.sc" horiz-adv-x="588" 
d="M311 96q43 0 80 29.5t45 75.5l66 371h111l-66 -371q-17 -93 -91.5 -152t-164.5 -59t-143.5 59t-36.5 152l66 371h113l-66 -371q-8 -46 18 -75.5t69 -29.5z" />
    <glyph glyph-name="V.sc" horiz-adv-x="505" 
d="M245 572l39 -384l177 384h117l-275 -572h-100l-74 572h116z" />
    <glyph glyph-name="W.sc" horiz-adv-x="770" 
d="M734 572h120l-296 -572h-89l-30 308l-138 -308h-89l-93 572h120l52 -379l137 301h89l30 -300z" />
    <glyph glyph-name="X.sc" horiz-adv-x="564" 
d="M401 306l146 -306h-132l-97 213l-169 -213h-132l252 306l-132 266h134l80 -176l145 176h132z" />
    <glyph glyph-name="Y.sc" horiz-adv-x="572" 
d="M342 0h-113l45 260l-164 312h132l105 -215l184 215h135l-279 -312z" />
    <glyph glyph-name="Z.sc" horiz-adv-x="514" 
d="M61 87l340 385h-259l18 100h403l-15 -86l-341 -385h272l-17 -101h-415z" />
    <glyph glyph-name="Scaron.sc" horiz-adv-x="503" 
d="M371 699l76 70h84l-120 -139h-105l-68 139h83zM191 170h-112q-14 -76 34 -128t139 -52q82 0 149 44.5t84 118.5q13 57 -15.5 105.5t-109.5 71.5l-67 20q-63 19 -55 62q5 28 32.5 46t61.5 18q37 0 55.5 -20.5t12.5 -53.5h110q15 81 -30.5 128.5t-129.5 47.5
q-81 0 -145.5 -47t-77.5 -121q-20 -118 117 -160l66 -20q77 -19 63 -74q-8 -29 -35 -47t-67 -18q-42 0 -63.5 23t-16.5 56z" />
    <glyph glyph-name="OE.sc" horiz-adv-x="933" 
d="M616 572h357l-18 -101h-245l-25 -139h214l-18 -101h-214l-23 -129h252l-17 -102h-364l9 61q-89 -71 -191 -71q-122 0 -190.5 86t-46.5 207q23 124 121 209.5t220 85.5q107 0 167 -72zM207 283q-14 -75 28.5 -128.5t117.5 -53.5t136.5 55t75.5 130q11 74 -31.5 127.5
t-115.5 53.5q-75 0 -136 -53.5t-75 -130.5z" />
    <glyph glyph-name="Ydieresis.sc" horiz-adv-x="572" 
d="M275 708q4 24 24.5 40t45.5 16t38.5 -16t9.5 -40q-4 -25 -23.5 -41t-44.5 -16t-39.5 16.5t-10.5 40.5zM419 708q4 24 24.5 40t44.5 16q25 0 39 -16t10 -40q-4 -25 -24 -41t-45 -16q-24 0 -38.5 16.5t-10.5 40.5zM342 0h-113l45 260l-164 312h132l105 -215l184 215h135
l-279 -312z" />
    <glyph glyph-name="exclamdown.sc" horiz-adv-x="290" 
d="M167 404l-86 -404h129l54 404h-97zM303 515q-5 -29 -28.5 -47.5t-51.5 -18.5q-29 0 -45.5 18.5t-11.5 47.5q5 28 28 46.5t52 18.5q28 0 45 -18.5t12 -46.5z" />
    <glyph glyph-name="questiondown.sc" horiz-adv-x="427" 
d="M313 164h103q-14 -80 -70.5 -127t-133.5 -47q-76 0 -117 44.5t-28 118.5q10 59 50 101.5t94 57.5q31 9 41 23.5t20 57.5l3 12h104q-1 -6 -2.5 -16t-2.5 -15q-11 -64 -42 -100t-89 -56q-63 -21 -70 -65q-4 -24 13 -40t45 -16q29 0 52 18.5t30 48.5zM414 515
q-5 -29 -28.5 -47.5t-51.5 -18.5q-29 0 -45.5 18.5t-11.5 47.5q5 28 28 46.5t52 18.5q28 0 45 -18.5t12 -46.5z" />
    <glyph glyph-name="Agrave.sc" horiz-adv-x="570" 
d="M360 631l-93 139h113l65 -139h-85zM258 235h134l-31 204zM440 0l-27 137h-207l-76 -137h-118l315 572h118l113 -572h-118z" />
    <glyph glyph-name="Aacute.sc" horiz-adv-x="570" 
d="M575 768l-142 -140h-86l116 140h112zM392 235h-134l103 204zM413 137l27 -137h118l-113 572h-118l-315 -572h118l76 137h207z" />
    <glyph glyph-name="Acircumflex.sc" horiz-adv-x="570" 
d="M454 632l-49 71l-76 -71h-83l120 140h104l69 -140h-85zM258 235h134l-31 204zM440 0l-27 137h-207l-76 -137h-118l315 572h118l113 -572h-118z" />
    <glyph glyph-name="Atilde.sc" horiz-adv-x="570" 
d="M365 682q-6 0 -13.5 -9t-10.5 -26h-64q12 51 37 77.5t54 29.5q18 2 40 -15t36 -17q17 0 25 33h64q-13 -56 -42 -81.5t-60 -25.5q-16 0 -35.5 17t-30.5 17zM258 235h134l-31 204zM440 0l-27 137h-207l-76 -137h-118l315 572h118l113 -572h-118z" />
    <glyph glyph-name="Adieresis.sc" horiz-adv-x="570" 
d="M268 708q4 24 25 40t46 16q24 0 38 -16t10 -40q-4 -25 -24 -41t-44 -16q-25 0 -40 16.5t-11 40.5zM412 708q4 24 24.5 40t45.5 16t39 -16t10 -40q-4 -25 -24 -41t-45 -16t-39.5 16.5t-10.5 40.5zM392 235h-134l103 204zM413 137l27 -137h118l-113 572h-118l-315 -572h118
l76 137h207z" />
    <glyph glyph-name="Aring.sc" horiz-adv-x="570" 
d="M311 724q7 42 40 70.5t74 28.5q42 0 65.5 -28.5t16.5 -70.5q-7 -41 -40.5 -69t-75.5 -28q-41 0 -64 28t-16 69zM366 724q-3 -17 7.5 -29t27.5 -12q18 0 32.5 12t17.5 29t-7 30t-28 13q-17 0 -32 -13t-18 -30zM392 235h-134l103 204zM413 137l27 -137h118l-113 572h-118
l-315 -572h118l76 137h207z" />
    <glyph glyph-name="AE.sc" horiz-adv-x="802" 
d="M244 134l-109 -134h-133l463 572h377l-18 -101h-245l-25 -139h214l-18 -101h-214l-23 -129h253l-17 -102h-364l23 134h-164zM327 242h100l31 173z" />
    <glyph glyph-name="Ccedilla.sc" horiz-adv-x="601" 
d="M267 -96q0 -10 9.5 -14.5t19.5 -0.5q21 8 19 34l-14 70q-109 12 -166.5 94.5t-37.5 196.5q22 124 120.5 209.5t221.5 85.5q71 0 125.5 -31t85.5 -85l-100 -64q-42 74 -130 74q-76 0 -136.5 -55t-74.5 -134q-14 -77 27.5 -131.5t117.5 -54.5q91 0 158 77l78 -65
q-94 -105 -228 -117q1 -4 7.5 -21.5t6.5 -20t3.5 -19.5t-0.5 -21q-6 -35 -37 -61t-69 -26q-36 0 -57 29t-11 76l65 -3q-3 -15 -3 -22z" />
    <glyph glyph-name="Egrave.sc" horiz-adv-x="499" 
d="M183 572h356l-18 -100h-246l-25 -140h216l-18 -100h-216l-23 -132h253l-17 -100h-363zM352 631l-94 139h114l66 -139h-86z" />
    <glyph glyph-name="Eacute.sc" horiz-adv-x="499" 
d="M524 770l-144 -139h-85l115 139h114zM539 572h-356l-101 -572h363l17 100h-253l23 132h216l18 100h-216l25 140h246z" />
    <glyph glyph-name="Ecircumflex.sc" horiz-adv-x="499" 
d="M183 572h356l-18 -100h-246l-25 -140h216l-18 -100h-216l-23 -132h253l-17 -100h-363zM421 632l-50 71l-76 -71h-83l119 140h105l68 -140h-83z" />
    <glyph glyph-name="Edieresis.sc" horiz-adv-x="499" 
d="M242 708q4 24 24.5 40t46.5 16q24 0 38 -16t10 -40t-24 -40.5t-44 -16.5q-26 0 -40.5 16t-10.5 41zM385 708q4 24 24.5 40t46.5 16q24 0 38 -16t10 -40q-4 -25 -24 -41t-44 -16q-26 0 -40.5 16t-10.5 41zM539 572h-356l-101 -572h363l17 100h-253l23 132h216l18 100h-216
l25 140h246z" />
    <glyph glyph-name="Igrave.sc" horiz-adv-x="274" 
d="M183 572h110l-101 -572h-110zM215 631l-94 139h114l66 -139h-86z" />
    <glyph glyph-name="Iacute.sc" horiz-adv-x="274" 
d="M311 773h115l-145 -133h-88zM293 572h-110l-101 -572h110z" />
    <glyph glyph-name="Icircumflex.sc" horiz-adv-x="274" 
d="M183 572h110l-101 -572h-110zM312 632l-50 71l-76 -71h-83l119 140h105l68 -140h-83z" />
    <glyph glyph-name="Idieresis.sc" horiz-adv-x="274" 
d="M293 572h-110l-101 -572h110zM132 708q4 24 24.5 40t46.5 16q24 0 38 -16t10 -40t-24 -40.5t-44 -16.5q-26 0 -40.5 16t-10.5 41zM275 708q4 24 24.5 40t46.5 16q24 0 38 -16t10 -40q-4 -25 -24 -41t-44 -16q-26 0 -40.5 16t-10.5 41z" />
    <glyph glyph-name="Eth.sc" horiz-adv-x="620" 
d="M313 0h-223l42 244h-77l14 72h77l45 256h223q120 0 174.5 -81t31.5 -207q-22 -125 -104.5 -204.5t-202.5 -79.5zM257 316h113l-14 -72h-113l-24 -140h112q70 0 117 51t61 129q14 80 -15 132t-99 52h-112z" />
    <glyph glyph-name="Ntilde.sc" horiz-adv-x="589" 
d="M507 0h-101l-150 364l-64 -364h-110l101 572h102l147 -358l64 358h112zM378 682q-6 0 -13.5 -9t-10.5 -26h-65q13 56 42 82t60 26q17 0 36 -16.5t30 -16.5q3 0 7.5 2.5t9.5 10.5t7 20h64q-12 -56 -41.5 -81.5t-59.5 -25.5q-16 0 -36 17t-30 17z" />
    <glyph glyph-name="Ograve.sc" horiz-adv-x="674" 
d="M395 631l-94 139h113l66 -139h-85zM97 283q23 124 121 209.5t219 85.5q123 0 193.5 -86t47.5 -209q-22 -121 -122.5 -207t-222.5 -86q-121 0 -189.5 86t-46.5 207zM208 283q-14 -76 28 -129.5t117 -53.5q76 0 138 53.5t76 129.5q14 77 -29.5 131t-119.5 54
q-75 0 -135.5 -54t-74.5 -131z" />
    <glyph glyph-name="Oacute.sc" horiz-adv-x="674" 
d="M634 770l-144 -139h-85l115 139h114zM97 283q-22 -121 46.5 -207t189.5 -86q122 0 222.5 86t122.5 207q23 123 -47.5 209t-193.5 86q-121 0 -219 -85.5t-121 -209.5zM208 283q14 77 74.5 131t135.5 54q76 0 119.5 -54t29.5 -131q-14 -76 -76 -129.5t-138 -53.5
q-75 0 -117 53.5t-28 129.5z" />
    <glyph glyph-name="Ocircumflex.sc" horiz-adv-x="674" 
d="M511 632l-51 72l-74 -72h-84l120 140h104l68 -140h-83zM97 283q23 124 121 209.5t219 85.5q123 0 193.5 -86t47.5 -209q-22 -121 -122.5 -207t-222.5 -86q-121 0 -189.5 86t-46.5 207zM208 283q-14 -76 28 -129.5t117 -53.5q76 0 138 53.5t76 129.5q14 77 -29.5 131
t-119.5 54q-75 0 -135.5 -54t-74.5 -131z" />
    <glyph glyph-name="Otilde.sc" horiz-adv-x="674" 
d="M97 283q23 124 121 209.5t219 85.5q123 0 193.5 -86t47.5 -209q-22 -121 -122.5 -207t-222.5 -86q-121 0 -189.5 86t-46.5 207zM208 283q-14 -76 28 -129.5t117 -53.5q76 0 138 53.5t76 129.5q14 77 -29.5 131t-119.5 54q-75 0 -135.5 -54t-74.5 -131zM421 682
q-6 0 -13.5 -9t-10.5 -26h-64q12 56 41 82t60 26q18 0 37.5 -16.5t29.5 -16.5q16 0 24 33h63q-12 -56 -41 -81.5t-60 -25.5q-15 0 -35 17t-31 17z" />
    <glyph glyph-name="Odieresis.sc" horiz-adv-x="674" 
d="M331 708q4 24 24.5 40t45.5 16q24 0 38 -16t10 -40q-4 -25 -24 -41t-44 -16q-25 0 -39.5 16.5t-10.5 40.5zM475 708q4 24 24 40t45 16t39 -16t10 -40q-4 -25 -24 -41t-45 -16t-39 16t-10 41zM97 283q-22 -121 46.5 -207t189.5 -86q122 0 222.5 86t122.5 207
q23 123 -47.5 209t-193.5 86q-121 0 -219 -85.5t-121 -209.5zM208 283q14 77 74.5 131t135.5 54q76 0 119.5 -54t29.5 -131q-14 -76 -76 -129.5t-138 -53.5q-75 0 -117 53.5t-28 129.5z" />
    <glyph glyph-name="Oslash.sc" horiz-adv-x="673" 
d="M166 52l-79 -68l-35 43l78 68q-53 84 -34 188q23 124 121 209.5t219 85.5q105 0 174 -66l77 67l35 -42l-79 -67q53 -86 34 -187q-22 -121 -122 -207t-222 -86q-100 0 -167 62zM207 283q-11 -61 13 -109l299 259q-42 35 -102 35q-75 0 -135.5 -54t-74.5 -131zM353 100
q76 0 137.5 53.5t75.5 129.5q10 58 -14 107l-296 -258q38 -32 97 -32z" />
    <glyph glyph-name="Ugrave.sc" horiz-adv-x="588" 
d="M386 631l-93 139h113l65 -139h-85zM311 96q43 0 80 29.5t45 75.5l66 371h111l-66 -371q-17 -93 -91.5 -152t-164.5 -59t-143.5 59t-36.5 152l66 371h113l-66 -371q-8 -46 18 -75.5t69 -29.5z" />
    <glyph glyph-name="Uacute.sc" horiz-adv-x="588" 
d="M564 770l-143 -139h-86l117 139h112zM311 96q43 0 80 29.5t45 75.5l66 371h111l-66 -371q-17 -93 -91.5 -152t-164.5 -59t-143.5 59t-36.5 152l66 371h113l-66 -371q-8 -46 18 -75.5t69 -29.5z" />
    <glyph glyph-name="Ucircumflex.sc" horiz-adv-x="588" 
d="M467 632l-50 72l-75 -72h-84l120 140h104l69 -140h-84zM311 96q43 0 80 29.5t45 75.5l66 371h111l-66 -371q-17 -93 -91.5 -152t-164.5 -59t-143.5 59t-36.5 152l66 371h113l-66 -371q-8 -46 18 -75.5t69 -29.5z" />
    <glyph glyph-name="Udieresis.sc" horiz-adv-x="588" 
d="M287 708q4 24 25 40t46 16q24 0 37.5 -16t9.5 -40q-4 -25 -23.5 -41t-43.5 -16q-25 0 -40 16.5t-11 40.5zM431 708q4 24 24.5 40t45.5 16t39 -16t10 -40q-4 -25 -24 -41t-45 -16t-39.5 16.5t-10.5 40.5zM311 96q43 0 80 29.5t45 75.5l66 371h111l-66 -371
q-17 -93 -91.5 -152t-164.5 -59t-143.5 59t-36.5 152l66 371h113l-66 -371q-8 -46 18 -75.5t69 -29.5z" />
    <glyph glyph-name="Yacute.sc" horiz-adv-x="572" 
d="M342 0h-113l45 260l-164 312h132l105 -215l184 215h135l-279 -312zM562 770l-144 -139h-85l115 139h114z" />
    <glyph glyph-name="Thorn.sc" horiz-adv-x="497" 
d="M300 108h-89l-18 -108h-111l101 572h111l-17 -95h89q79 0 122 -50.5t28 -133.5t-76 -134t-140 -51zM228 205h85q31 0 58 24t34 62q7 40 -11.5 63.5t-50.5 25.5h-84z" />
    <glyph glyph-name="Amacron.sc" horiz-adv-x="570" 
d="M298 738h227l-13 -74h-227zM258 235h134l-31 204zM440 0l-27 137h-207l-76 -137h-118l315 572h118l113 -572h-118z" />
    <glyph glyph-name="Abreve.sc" horiz-adv-x="570" 
d="M302 753h73q-8 -45 31 -45q19 0 31.5 13t15.5 32h74q-9 -51 -46 -81.5t-87 -30.5q-55 0 -78 32.5t-14 79.5zM392 235h-134l103 204zM413 137l27 -137h118l-113 572h-118l-315 -572h118l76 137h207z" />
    <glyph glyph-name="Cacute.sc" horiz-adv-x="600" 
d="M620 770l-143 -139h-86l116 139h113zM590 109l-79 65q-68 -78 -158 -78q-76 0 -117 54.5t-27 132.5q14 79 74.5 134t136.5 55q86 0 130 -74l100 64q-31 54 -86 85t-126 31q-122 0 -220 -85.5t-121 -209.5q-22 -122 46.5 -207.5t190.5 -85.5q71 0 138.5 32t117.5 87z" />
    <glyph glyph-name="Ccircumflex.sc" horiz-adv-x="600" 
d="M508 632l-50 71l-76 -71h-83l120 140h104l68 -140h-83zM511 174l79 -65q-50 -55 -117.5 -87t-138.5 -32q-122 0 -190.5 85.5t-46.5 207.5q23 124 121 209.5t220 85.5q71 0 126 -31t86 -85l-100 -64q-44 74 -130 74q-76 0 -136.5 -55t-74.5 -134q-14 -78 27 -132.5
t117 -54.5q90 0 158 78z" />
    <glyph glyph-name="Cdotaccent.sc" horiz-adv-x="600" 
d="M393 714q4 25 25 42t48 17q26 0 41 -16.5t11 -42.5t-25 -43t-48 -17q-26 0 -41 17t-11 43zM590 109l-79 65q-68 -78 -158 -78q-76 0 -117 54.5t-27 132.5q14 79 74.5 134t136.5 55q86 0 130 -74l100 64q-31 54 -86 85t-126 31q-122 0 -220 -85.5t-121 -209.5
q-22 -122 46.5 -207.5t190.5 -85.5q71 0 138.5 32t117.5 87z" />
    <glyph glyph-name="Ccaron.sc" horiz-adv-x="600" 
d="M590 109l-79 65q-68 -78 -158 -78q-76 0 -117 54.5t-27 132.5q14 79 74.5 134t136.5 55q86 0 130 -74l100 64q-31 54 -86 85t-126 31q-122 0 -220 -85.5t-121 -209.5q-22 -122 46.5 -207.5t190.5 -85.5q71 0 138.5 32t117.5 87zM464 699l76 70h84l-120 -139h-105l-68 139
h83z" />
    <glyph glyph-name="Dcaron.sc" horiz-adv-x="614" 
d="M427 699l77 70h84l-120 -139h-105l-69 139h84zM82 0h224q121 0 204 79.5t105 204.5q23 126 -32 207t-176 81h-224zM323 102h-113l65 368h113q71 0 100.5 -53t14.5 -133q-14 -78 -62 -130t-118 -52z" />
    <glyph glyph-name="Aogonek.sc" horiz-adv-x="570" 
d="M494 0l-40 -77q-13 -26 7 -34q16 -7 28.5 8t11.5 29l64 3q-7 -48 -37.5 -76.5t-67.5 -28.5t-58 26t-16 61q2 11 8 24t11 21t17 24.5t16 22.5l-25 134h-207l-76 -137h-118l315 572h118l113 -572h-64zM362 438l-104 -203h135z" />
    <glyph glyph-name="Emacron.sc" horiz-adv-x="499" 
d="M183 572h356l-18 -100h-246l-25 -140h216l-18 -100h-216l-23 -132h253l-17 -100h-363zM269 738h226l-13 -74h-226z" />
    <glyph glyph-name="Ebreve.sc" horiz-adv-x="499" 
d="M267 753h73q-8 -45 32 -45q19 0 31 13t15 32h74q-9 -51 -45 -81.5t-87 -30.5q-55 0 -78.5 33t-14.5 79zM539 572h-356l-101 -572h363l17 100h-253l23 132h216l18 100h-216l25 140h246z" />
    <glyph glyph-name="Edotaccent.sc" horiz-adv-x="499" 
d="M322 714q4 25 25.5 42t48.5 17q26 0 40.5 -17t10.5 -42q-4 -26 -25 -43t-47 -17t-41.5 17t-11.5 43zM539 572h-356l-101 -572h363l17 100h-253l23 132h216l18 100h-216l25 140h246z" />
    <glyph glyph-name="Ecaron.sc" horiz-adv-x="499" 
d="M539 572h-356l-101 -572h363l17 100h-253l23 132h216l18 100h-216l25 140h246zM372 699l76 70h84l-120 -139h-105l-68 139h83z" />
    <glyph glyph-name="Gcircumflex.sc" horiz-adv-x="648" 
d="M633 488l-93 -71h-2q-40 56 -117 56q-75 0 -137 -55.5t-76 -134.5q-14 -78 28 -133.5t117 -55.5q57 0 108 30.5t62 79.5h-155l16 93h282q-27 -153 -115 -230t-216 -77q-122 0 -191.5 86t-47.5 207q23 124 122 209.5t221 85.5q62 0 112.5 -24t81.5 -66zM500 632l-50 72
l-75 -72h-84l120 140h104l69 -140h-84z" />
    <glyph glyph-name="Gbreve.sc" horiz-adv-x="648" 
d="M540 417l93 71q-31 42 -81.5 66t-112.5 24q-122 0 -221 -85.5t-122 -209.5q-22 -121 47.5 -207t191.5 -86q128 0 216 77t115 230h-282l-16 -93h155q-11 -49 -62 -79.5t-108 -30.5q-75 0 -117 55.5t-28 133.5q14 79 76 134.5t137 55.5q77 0 117 -56h2zM347 753h73
q-8 -45 32 -45q19 0 31 13t15 32h74q-9 -51 -45 -81.5t-87 -30.5q-55 0 -78.5 33t-14.5 79z" />
    <glyph glyph-name="Eogonek.sc" horiz-adv-x="499" 
d="M384 0h-302l101 572h356l-18 -100h-246l-25 -140h216l-18 -100h-216l-23 -132h253l-18 -99l-42 -75q-14 -26 6 -34q16 -7 28.5 8.5t10.5 28.5l66 3q-7 -48 -37.5 -76t-67.5 -28q-38 0 -59.5 25.5t-14.5 61.5q5 26 14 39z" />
    <glyph glyph-name="Dcroat.sc" horiz-adv-x="620" 
d="M313 0h-223l42 243h-77l14 75h77l45 254h223q120 0 174.5 -81t31.5 -207q-22 -125 -104.5 -204.5t-202.5 -79.5zM257 318h113l-14 -75h-113l-24 -139h112q70 0 117 51t61 129q14 80 -15 132t-99 52h-112z" />
    <glyph glyph-name="Gdotaccent.sc" horiz-adv-x="648" 
d="M540 417l93 71q-31 42 -81.5 66t-112.5 24q-122 0 -221 -85.5t-122 -209.5q-22 -121 47.5 -207t191.5 -86q128 0 216 77t115 230h-282l-16 -93h155q-11 -49 -62 -79.5t-108 -30.5q-75 0 -117 55.5t-28 133.5q14 79 76 134.5t137 55.5q77 0 117 -56h2zM400 714
q4 25 25.5 42t48.5 17q26 0 40.5 -17t10.5 -42q-4 -26 -25 -43t-47 -17t-41.5 17t-11.5 43z" />
    <glyph glyph-name="Hcircumflex.sc" horiz-adv-x="607" 
d="M626 572l-101 -572h-112l40 234h-221l-40 -234h-110l101 572h110l-42 -237h221l42 237h112zM477 632l-50 71l-75 -71h-84l120 140h104l68 -140h-83z" />
    <glyph glyph-name="Hbar.sc" horiz-adv-x="618" 
d="M616 484h59l-11 -61h-59l-74 -423h-112l40 234h-221l-40 -234h-111l74 423h-58l11 61h58l16 88h111l-16 -88h221l16 88h112zM257 335h221l15 88h-221z" />
    <glyph glyph-name="Itilde.sc" horiz-adv-x="274" 
d="M221 682q-6 0 -13.5 -9t-10.5 -26h-64q12 56 41 82t60 26q18 0 36.5 -16.5t29.5 -16.5q17 0 25 33h64q-13 -56 -42 -81.5t-60 -25.5q-16 0 -36 17t-30 17zM183 572h110l-101 -572h-110z" />
    <glyph glyph-name="Imacron.sc" horiz-adv-x="274" 
d="M183 572h110l-101 -572h-110zM154 738h227l-13 -74h-227z" />
    <glyph glyph-name="Iogonek.sc" horiz-adv-x="274" 
d="M81 4l102 568h110l-101 -572h-54l-41 -77q-14 -27 6 -34q15 -7 27.5 8t12.5 29l65 3q-9 -48 -38.5 -76.5t-66.5 -28.5q-38 0 -59.5 26t-15.5 61q4 22 14 40z" />
    <glyph glyph-name="IJ.sc" horiz-adv-x="549" 
d="M183 572h110l-101 -572h-110zM169 -185l28 102q24 -9 68 -9q73 0 89 86l103 578h111l-103 -578q-15 -86 -70 -139t-150 -53q-34 0 -76 13z" />
    <glyph glyph-name="Jcircumflex.sc" horiz-adv-x="275" 
d="M309 632l-51 71l-74 -71h-84l119 140h104l70 -140h-84zM-103 -185l28 102q23 -9 67 -9q37 0 59 24t29 62l103 578h111l-103 -578q-15 -85 -69.5 -138.5t-148.5 -53.5q-34 0 -76 13z" />
    <glyph glyph-name="Lacute.sc" horiz-adv-x="428" 
d="M421 767l-143 -140h-85l114 140h114zM294 572h-111l-101 -572h329l17 100h-218z" />
    <glyph glyph-name="Lcaron.sc" horiz-adv-x="434" 
d="M376 374l-64 20q51 57 73 125q9 30 14 52h93q-16 -70 -48.5 -121t-67.5 -76zM183 572h111l-84 -472h218l-17 -100h-329z" />
    <glyph glyph-name="Ldot.sc" horiz-adv-x="428" 
d="M183 572h111l-84 -472h218l-17 -100h-329zM295 243q5 23 24.5 38.5t43.5 15.5q23 0 37 -16t10 -38q-4 -24 -23.5 -40t-43.5 -16t-38 16t-10 40z" />
    <glyph glyph-name="Nacute.sc" horiz-adv-x="589" 
d="M575 770l-144 -139h-85l116 139h113zM406 0h101l101 572h-112l-64 -358l-147 358h-102l-101 -572h110l64 364z" />
    <glyph glyph-name="Ncaron.sc" horiz-adv-x="589" 
d="M413 699l75 70h84l-119 -139h-105l-68 139h83zM406 0h101l101 572h-112l-64 -358l-147 358h-102l-101 -572h110l64 364z" />
    <glyph glyph-name="Omacron.sc" horiz-adv-x="674" 
d="M353 738h227l-12 -74h-227zM97 283q23 124 121 209.5t219 85.5q123 0 193.5 -86t47.5 -209q-22 -121 -122.5 -207t-222.5 -86q-121 0 -189.5 86t-46.5 207zM208 283q-14 -76 28 -129.5t117 -53.5q76 0 138 53.5t76 129.5q14 77 -29.5 131t-119.5 54q-75 0 -135.5 -54
t-74.5 -131z" />
    <glyph glyph-name="Obreve.sc" horiz-adv-x="674" 
d="M357 753h73q-8 -45 31 -45t47 45h74q-9 -51 -45.5 -81.5t-87.5 -30.5q-55 0 -78 33t-14 79zM97 283q-22 -121 46.5 -207t189.5 -86q122 0 222.5 86t122.5 207q23 123 -47.5 209t-193.5 86q-121 0 -219 -85.5t-121 -209.5zM208 283q14 77 74.5 131t135.5 54
q76 0 119.5 -54t29.5 -131q-14 -76 -76 -129.5t-138 -53.5q-75 0 -117 53.5t-28 129.5z" />
    <glyph glyph-name="Ohungarumlaut.sc" horiz-adv-x="674" 
d="M548 769l-120 -139h-85l111 139h94zM676 769l-129 -139h-87l121 139h95zM97 283q-22 -121 46.5 -207t189.5 -86q122 0 222.5 86t122.5 207q23 123 -47.5 209t-193.5 86q-121 0 -219 -85.5t-121 -209.5zM208 283q14 77 74.5 131t135.5 54q76 0 119.5 -54t29.5 -131
q-14 -76 -76 -129.5t-138 -53.5q-75 0 -117 53.5t-28 129.5z" />
    <glyph glyph-name="Racute.sc" horiz-adv-x="549" 
d="M531 770l-144 -139h-85l116 139h113zM500 0l-111 206q73 14 119 64.5t57 115.5q14 76 -24.5 131t-127.5 55h-230l-101 -572h111l34 202h38l100 -202h135zM276 472h114q36 0 50 -26t8 -60t-30.5 -59.5t-62.5 -25.5h-110z" />
    <glyph glyph-name="Rcaron.sc" horiz-adv-x="549" 
d="M394 699l76 70h84l-119 -139h-105l-70 139h85zM500 0l-111 206q73 14 119 64.5t57 115.5q14 76 -24.5 131t-127.5 55h-230l-101 -572h111l34 202h38l100 -202h135zM276 472h114q36 0 50 -26t8 -60t-30.5 -59.5t-62.5 -25.5h-110z" />
    <glyph glyph-name="Sacute.sc" horiz-adv-x="503" 
d="M530 770l-143 -139h-86l116 139h113zM191 170h-112q-14 -76 34 -128t139 -52q82 0 149 44t84 119q13 58 -16 105.5t-109 71.5l-67 20q-63 19 -55 62q5 28 32.5 46t61.5 18q37 0 55.5 -20.5t12.5 -53.5h110q15 81 -30.5 128.5t-129.5 47.5q-81 0 -145.5 -47t-77.5 -121
q-20 -118 117 -160l66 -20q77 -19 63 -74q-8 -29 -35 -47t-67 -18q-42 0 -63.5 23t-16.5 56z" />
    <glyph glyph-name="Scircumflex.sc" horiz-adv-x="503" 
d="M425 632l-50 71l-76 -71h-84l120 140h105l68 -140h-83zM79 170h112q-5 -33 16.5 -56t63.5 -23q40 0 67 18t35 47q14 55 -63 74l-66 20q-137 42 -117 160q13 74 77.5 121t145.5 47q84 0 129.5 -47.5t30.5 -128.5h-110q6 33 -12.5 53.5t-55.5 20.5q-34 0 -61.5 -18
t-32.5 -46q-8 -43 55 -62l67 -20q80 -24 109 -71.5t16 -105.5q-17 -75 -84 -119t-149 -44q-91 0 -139 52t-34 128z" />
    <glyph glyph-name="Scedilla.sc" horiz-adv-x="502" 
d="M296 -5q2 -5 8 -22t6.5 -20.5t4 -20.5t-0.5 -21q-6 -35 -37.5 -61t-68.5 -26t-57 28.5t-11 76.5l65 -3q-6 -13 1 -29t24 -8q23 8 19 34l-13 69q-83 5 -126.5 55.5t-29.5 123.5h111q-6 -32 16 -56t64 -24q83 0 104 65q12 53 -65 74l-66 19q-138 40 -116 161
q13 74 77.5 121t144.5 47q84 0 129.5 -48t30.5 -128h-110q7 32 -12 52.5t-57 20.5q-34 0 -61 -17.5t-32 -45.5q-7 -44 55 -63l65 -20q76 -24 106 -68t22 -94q-11 -69 -65 -115.5t-125 -56.5z" />
    <glyph glyph-name="Utilde.sc" horiz-adv-x="588" 
d="M311 96q43 0 80 29.5t45 75.5l66 371h111l-66 -371q-17 -93 -91.5 -152t-164.5 -59t-143.5 59t-36.5 152l66 371h113l-66 -371q-8 -45 18 -75t69 -30zM378 682q-6 0 -13 -8.5t-11 -26.5h-64q13 56 41.5 82t59.5 26q17 0 36 -16.5t31 -16.5q6 0 13.5 8t10.5 25h63
q-12 -56 -41 -81.5t-60 -25.5q-17 0 -36.5 17t-29.5 17z" />
    <glyph glyph-name="Umacron.sc" horiz-adv-x="588" 
d="M310 738h228l-12 -74h-228zM311 96q43 0 80 29.5t45 75.5l66 371h111l-66 -371q-17 -93 -91.5 -152t-164.5 -59t-143.5 59t-36.5 152l66 371h113l-66 -371q-8 -46 18 -75.5t69 -29.5z" />
    <glyph glyph-name="Ubreve.sc" horiz-adv-x="588" 
d="M315 753h72q-6 -45 31 -45q19 0 32 13.5t15 31.5h75q-9 -51 -46 -81.5t-88 -30.5q-54 0 -77 33t-14 79zM311 96q43 0 80 29.5t45 75.5l66 371h111l-66 -371q-17 -93 -91.5 -152t-164.5 -59t-143.5 59t-36.5 152l66 371h113l-66 -371q-8 -46 18 -75.5t69 -29.5z" />
    <glyph glyph-name="Uring.sc" horiz-adv-x="588" 
d="M324 724q8 42 40.5 70.5t73.5 28.5q42 0 65.5 -28.5t16.5 -70.5q-7 -41 -40.5 -69t-75.5 -28q-41 0 -64 28t-16 69zM380 724q-3 -17 7 -29t27 -12q18 0 32.5 12t17.5 29t-7 30t-28 13q-17 0 -31.5 -13t-17.5 -30zM311 96q43 0 80 29.5t45 75.5l66 371h111l-66 -371
q-17 -93 -91.5 -152t-164.5 -59t-143.5 59t-36.5 152l66 371h113l-66 -371q-8 -46 18 -75.5t69 -29.5z" />
    <glyph glyph-name="Uhungarumlaut.sc" horiz-adv-x="588" 
d="M311 96q43 0 80 29.5t45 75.5l66 371h111l-66 -371q-17 -93 -91.5 -152t-164.5 -59t-143.5 59t-36.5 152l66 371h113l-66 -371q-8 -46 18 -75.5t69 -29.5zM490 769l-120 -139h-85l111 139h94zM618 769l-129 -139h-87l121 139h95z" />
    <glyph glyph-name="Uogonek.sc" horiz-adv-x="590" 
d="M213 -89q4 24 24 55l21 29q-77 11 -119.5 67.5t-27.5 139.5l66 370h113l-66 -370q-8 -45 18 -74.5t69 -29.5t80 29.5t45 74.5l66 370h111l-66 -370q-15 -86 -80 -143t-147 -66q-26 -42 -39 -70q-13 -26 5 -34q17 -7 29.5 8t12.5 29l65 3q-8 -49 -38.5 -77t-66.5 -28
q-38 0 -59.5 26t-15.5 61z" />
    <glyph glyph-name="Wcircumflex.sc" horiz-adv-x="770" 
d="M559 632l-50 71l-76 -71h-83l120 140h104l69 -140h-84zM734 572h120l-296 -572h-89l-30 308l-138 -308h-89l-93 572h120l52 -379l137 301h89l30 -300z" />
    <glyph glyph-name="Ycircumflex.sc" horiz-adv-x="572" 
d="M459 632l-49 71l-76 -71h-83l120 140h104l68 -140h-84zM342 0h-113l45 260l-164 312h132l105 -215l184 215h135l-279 -312z" />
    <glyph glyph-name="Tcaron.sc" horiz-adv-x="477" 
d="M367 699l76 70h84l-120 -139h-105l-68 139h83zM555 572h-431l-18 -101h159l-83 -471h113l83 471h159z" />
    <glyph glyph-name="Tbar.sc" horiz-adv-x="477" 
d="M225 246h-95l12 67h95l28 158h-159l18 101h431l-18 -101h-159l-28 -158h98l-12 -67h-98l-43 -246h-113z" />
    <glyph glyph-name="Zacute.sc" horiz-adv-x="514" 
d="M535 770l-145 -139h-85l116 139h114zM61 87l340 385h-259l18 100h403l-15 -86l-341 -385h272l-17 -101h-415z" />
    <glyph glyph-name="Zdotaccent.sc" horiz-adv-x="514" 
d="M328 714q4 25 25.5 42t47.5 17q27 0 41.5 -16.5t10.5 -42.5t-25 -43t-48 -17q-26 0 -41 17t-11 43zM61 87l340 385h-259l18 100h403l-15 -86l-341 -385h272l-17 -101h-415z" />
    <glyph glyph-name="Wgrave.sc" horiz-adv-x="770" 
d="M464 631l-93 139h113l66 -139h-86zM734 572h120l-296 -572h-89l-30 308l-138 -308h-89l-93 572h120l52 -379l137 301h89l30 -300z" />
    <glyph glyph-name="Wacute.sc" horiz-adv-x="770" 
d="M671 770l-144 -139h-85l116 139h113zM854 572h-120l-187 -378l-30 300h-89l-137 -301l-52 379h-120l93 -572h89l138 308l30 -308h89z" />
    <glyph glyph-name="Wdieresis.sc" horiz-adv-x="770" 
d="M379 708q4 24 24.5 40t45.5 16q24 0 38.5 -16t10.5 -40t-24.5 -40.5t-44.5 -16.5q-25 0 -39.5 16.5t-10.5 40.5zM522 708q4 24 24.5 40t46.5 16q24 0 38.5 -16t10.5 -40t-24.5 -40.5t-44.5 -16.5q-26 0 -40.5 16t-10.5 41zM854 572h-120l-187 -378l-30 300h-89l-137 -301
l-52 379h-120l93 -572h89l138 308l30 -308h89z" />
    <glyph glyph-name="Aringacute.sc" horiz-adv-x="570" 
d="M592 914l-114 -112q39 -30 30 -83q-7 -41 -41.5 -69.5t-77.5 -28.5q-39 0 -62 28.5t-16 69.5q6 32 30.5 58.5t55.5 36.5l83 100h112zM367 719q-3 -17 6.5 -29.5t26.5 -12.5q19 0 33.5 12.5t17.5 29.5q4 18 -6.5 30.5t-29.5 12.5q-16 0 -30 -12.5t-18 -30.5zM392 235h-134
l103 204zM413 137l27 -137h118l-113 572h-118l-315 -572h118l76 137h207z" />
    <glyph glyph-name="AEacute.sc" horiz-adv-x="802" 
d="M725 770l-144 -139h-85l116 139h113zM135 0l109 134h164l-23 -134h364l17 102h-253l23 129h214l18 101h-214l25 139h245l18 101h-377l-463 -572h133zM427 242h-100l131 173z" />
    <glyph glyph-name="Oslashacute.sc" horiz-adv-x="673" 
d="M631 770l-145 -139h-84l115 139h114zM87 -16l79 68q67 -62 167 -62q122 0 222 86t122 207q19 101 -34 187l79 67l-35 42l-77 -67q-69 66 -174 66q-121 0 -219 -85.5t-121 -209.5q-19 -104 34 -188l-78 -68zM207 283q14 77 74.5 131t135.5 54q60 0 102 -35l-299 -259
q-24 48 -13 109zM353 100q-59 0 -97 32l296 258q24 -49 14 -107q-14 -76 -75.5 -129.5t-137.5 -53.5z" />
    <glyph glyph-name="Ibreve.sc" horiz-adv-x="274" 
d="M293 572h-110l-101 -572h110zM158 753h73q-8 -45 32 -45q19 0 31 13t15 32h74q-9 -51 -45 -81.5t-87 -30.5q-55 0 -78.5 33t-14.5 79z" />
    <glyph glyph-name="Eng.sc" horiz-adv-x="589" 
d="M394 4l-138 358l-63 -362h-111l101 572h103l143 -369l66 369h113l-100 -561q-16 -90 -69.5 -146t-150.5 -56q-29 0 -77 13l30 108q21 -5 47 -9q20 -1 36 2q28 6 46 28.5t24 52.5z" />
    <glyph glyph-name="Ygrave.sc" horiz-adv-x="572" 
d="M371 631l-93 139h113l66 -139h-86zM342 0h-113l45 260l-164 312h132l105 -215l184 215h135l-279 -312z" />
    <glyph glyph-name="Gcommaaccent.sc" horiz-adv-x="648" 
d="M633 488l-93 -71h-2q-40 56 -117 56q-75 0 -137 -55.5t-76 -134.5q-14 -78 28 -133.5t117 -55.5q57 0 108 30.5t62 79.5h-155l16 93h282q-27 -153 -115 -230t-216 -77q-122 0 -191.5 86t-47.5 207q23 124 122 209.5t221 85.5q62 0 112.5 -24t81.5 -66zM263 -248l-52 24
q54 58 69 184h97q-10 -67 -44.5 -124.5t-69.5 -83.5z" />
    <glyph glyph-name="Kcommaaccent.sc" horiz-adv-x="522" 
d="M305 288l219 -288h-145l-150 205l-35 -205h-112l101 572h112l-36 -199l184 199h131zM221 -248l-52 24q54 58 69 184h97q-11 -67 -45 -125t-69 -83z" />
    <glyph glyph-name="Lcommaaccent.sc" horiz-adv-x="428" 
d="M183 572h111l-84 -472h218l-17 -100h-329zM169 -248l-52 24q54 58 69 184h97q-11 -67 -45 -125t-69 -83z" />
    <glyph glyph-name="Ncommaaccent.sc" horiz-adv-x="589" 
d="M507 0h-101l-151 360l-63 -360h-110l101 572h102l148 -355l63 355h112zM221 -248l-52 24q54 58 69 184h97q-11 -67 -45 -125t-69 -83z" />
    <glyph glyph-name="Rcommaaccent.sc" horiz-adv-x="549" 
d="M389 206l111 -206h-135l-100 202h-38l-34 -202h-111l101 572h230q89 0 127.5 -55t24.5 -131q-11 -65 -57 -115.5t-119 -64.5zM390 472h-114l-31 -171h110q38 0 62.5 25.5t30.5 59.5t-8 60t-50 26zM221 -248l-52 24q54 58 69 184h97q-11 -67 -45 -125t-69 -83z" />
    <glyph glyph-name="Tcommaaccent.sc" horiz-adv-x="477" 
d="M124 572h431l-18 -101h-159l-83 -471h-113l83 471h-159zM165 -248l-53 24q54 58 69 184h97q-10 -66 -44.5 -124t-68.5 -84z" />
    <glyph glyph-name="Scommaaccent.sc" horiz-adv-x="503" 
d="M79 170h112q-5 -33 16.5 -56t63.5 -23q40 0 67.5 18t34.5 47q13 51 -64 74l-66 20q-137 41 -116 160q13 74 77.5 121t145.5 47q84 0 129.5 -47.5t30.5 -128.5h-110q6 33 -12.5 53.5t-55.5 20.5q-34 0 -61.5 -18t-32.5 -46q-7 -43 55 -62l66 -20q81 -25 109.5 -72
t16.5 -105q-17 -75 -84 -119t-149 -44q-91 0 -139 52t-34 128zM187 -248l-53 24q54 58 69 184h97q-10 -66 -44.5 -124t-68.5 -84z" />
    <glyph glyph-name="Idotaccent.sc" horiz-adv-x="274" 
d="M293 572h-110l-101 -572h110zM201 714q4 25 25.5 42t48.5 17q26 0 40.5 -17t10.5 -42q-4 -26 -25 -43t-47 -17t-41.5 17t-11.5 43z" />
    <glyph glyph-name="zero.numr" horiz-adv-x="356" 
d="M116 461q34 200 179 200q78 0 99.5 -53t5.5 -147q-16 -91 -56.5 -144t-118.5 -53q-144 0 -109 197zM189 461q-22 -126 48 -126q68 0 90 126q22 128 -45 128q-71 0 -93 -128z" />
    <glyph glyph-name="one.numr" horiz-adv-x="213" 
d="M135 270l50 284l-71 -30l12 66l152 69l-70 -389h-73z" />
    <glyph glyph-name="two.numr" horiz-adv-x="318" 
d="M85 307l191 188q25 24 30 50q4 20 -9 33t-37 13q-23 0 -42 -16t-28 -42l-64 14q19 53 59 83.5t91 30.5q52 0 82 -33t21 -83q-10 -52 -58 -99q-24 -23 -52.5 -50t-58.5 -56h128l-13 -70h-246z" />
    <glyph glyph-name="three.numr" horiz-adv-x="317" 
d="M197 567l-49 38q22 27 56.5 42.5t70.5 13.5q48 -3 73.5 -34t17.5 -73q-10 -49 -61 -76q28 -11 40.5 -41.5t4.5 -62.5q-13 -49 -62 -81t-104 -28q-38 3 -66.5 25t-39.5 56l68 32q16 -43 56 -43q24 -1 46 13.5t27 34.5q5 21 -5 40t-45 19h-42l12 63h42q25 0 38.5 17.5
t13.5 32.5q2 15 -7.5 27t-28.5 12q-33 1 -56 -27z" />
    <glyph glyph-name="four.numr" horiz-adv-x="346" 
d="M333 353l-15 -83h-73l15 83h-190l247 301h70l-43 -238h51l-11 -63h-51zM189 416h82l24 130z" />
    <glyph glyph-name="five.numr" horiz-adv-x="339" 
d="M153 383q7 -21 25.5 -34t40.5 -13q35 0 60.5 19t30.5 46q6 31 -12.5 47.5t-49.5 16.5q-52 0 -99 -38l-31 23l69 204h215l-13 -68h-156l-26 -74q28 17 70 17q55 0 85.5 -33.5t19.5 -94.5t-59 -99t-117 -38q-41 0 -74 21.5t-47 57.5q12 8 68 40z" />
    <glyph glyph-name="six.numr" horiz-adv-x="338" 
d="M406 584l-71 -28q-12 36 -46 36q-39 0 -64 -34t-32 -84q12 17 35.5 30.5t49.5 13.5q48 0 77.5 -36t19.5 -95q-11 -55 -56 -90t-103 -34q-54 1 -84.5 37t-23.5 96q5 48 16 90t32.5 84.5t59.5 66.5t88 23q82 -4 102 -76zM187 393q-5 -24 8.5 -41.5t37.5 -17.5
q23 0 43.5 16.5t24.5 40.5q5 24 -8.5 41.5t-36.5 17.5q-25 0 -45 -16.5t-24 -40.5z" />
    <glyph glyph-name="seven.numr" horiz-adv-x="314" 
d="M424 654l-254 -384h-83l207 316h-166l13 68h283z" />
    <glyph glyph-name="eight.numr" horiz-adv-x="345" 
d="M157 556q8 44 46.5 74.5t85.5 30.5t75 -31t20 -74q-8 -40 -40 -65q49 -34 39 -97q-10 -54 -58 -92t-106 -38q-59 0 -94 38t-25 92q10 63 73 97q-23 28 -16 65zM173 395q-5 -26 12.5 -44t45.5 -18t51.5 18.5t27.5 43.5q5 25 -10.5 44t-42.5 19h-9q-26 0 -48 -19t-27 -44z
M228 554q-3 -16 6.5 -28t29.5 -12q19 1 32 12.5t16 27.5t-7 27.5t-28 11.5q-19 0 -32.5 -11.5t-16.5 -27.5z" />
    <glyph glyph-name="nine.numr" horiz-adv-x="338" 
d="M95 340l73 28q10 -36 44 -36q38 0 63 34t33 84q-12 -17 -35.5 -30.5t-50.5 -13.5q-48 0 -77 36t-18 95q11 55 55 89.5t102 33.5q55 -1 85.5 -36.5t25.5 -96.5q-5 -46 -16.5 -88.5t-33 -84.5t-59.5 -67t-88 -23q-83 4 -103 76zM315 531q5 24 -8.5 41t-37.5 18t-43.5 -16
t-24.5 -41q-5 -25 8 -42t37 -17t44.5 16.5t24.5 40.5z" />
    <glyph glyph-name="zero.dnom" horiz-adv-x="356" 
d="M69 192q36 199 179 199q78 0 100 -53t5 -146q-35 -198 -176 -198q-143 0 -108 198zM142 192q-22 -127 46 -127q70 0 92 127t-46 127q-70 0 -92 -127z" />
    <glyph glyph-name="one.dnom" horiz-adv-x="213" 
d="M89 0l50 284l-72 -30l13 66l151 69l-69 -389h-73z" />
    <glyph glyph-name="two.dnom" horiz-adv-x="318" 
d="M38 38l190 187q27 27 31 50q3 20 -9.5 33t-36.5 13q-23 0 -42.5 -15.5t-27.5 -41.5l-65 13q18 52 59 83t92 31q52 0 82 -33t21 -83q-10 -52 -59 -98q-27 -26 -55.5 -53.5t-56.5 -53.5h128l-11 -70h-246z" />
    <glyph glyph-name="three.dnom" horiz-adv-x="319" 
d="M151 297l-48 38q21 27 55.5 42.5t71.5 13.5q48 -3 73.5 -34t17.5 -73q-9 -48 -61 -76q28 -11 40.5 -41.5t4.5 -62.5q-13 -49 -62.5 -81t-104.5 -28q-38 3 -66.5 25t-38.5 56l67 32q18 -43 55 -43q25 -1 47.5 13.5t27.5 34.5q5 21 -5.5 40t-45.5 19h-42l11 63h42
q25 0 39.5 17.5t14.5 32.5q2 15 -8 27t-29 12q-33 1 -56 -27z" />
    <glyph glyph-name="four.dnom" horiz-adv-x="347" 
d="M286 83l-14 -83h-73l14 83h-190l247 302h70l-42 -238h51l-12 -64h-51zM143 147h82l23 130z" />
    <glyph glyph-name="five.dnom" horiz-adv-x="339" 
d="M105 113q8 -21 25.5 -34t39.5 -13q35 0 60.5 19t30.5 47q5 31 -13 47.5t-48 16.5q-55 0 -99 -39l-32 23l69 204h215l-12 -68h-156l-27 -74q28 17 71 17q55 0 85 -33.5t19 -93.5q-11 -61 -59 -99.5t-117 -38.5q-40 0 -73 21.5t-48 57.5q4 2 34.5 20t34.5 20z" />
    <glyph glyph-name="six.dnom" horiz-adv-x="338" 
d="M357 315l-71 -29q-11 36 -45 36q-39 0 -64 -34t-32 -84q11 17 34 30.5t50 13.5q48 0 77.5 -36t18.5 -95q-10 -54 -54.5 -89t-102.5 -34q-54 1 -84.5 36.5t-25.5 96.5q5 47 16.5 89t33 84.5t59.5 66.5t88 23q83 -4 102 -75zM138 123q-5 -24 8.5 -41t37.5 -17t44 16t24 40
q5 25 -8.5 42t-36.5 17q-25 0 -45 -16.5t-24 -40.5z" />
    <glyph glyph-name="seven.dnom" horiz-adv-x="317" 
d="M377 385l-253 -385h-83l207 316h-166l12 69h283z" />
    <glyph glyph-name="eight.dnom" horiz-adv-x="345" 
d="M109 286q7 43 46.5 74t86.5 31t74.5 -30.5t19.5 -74.5q-6 -37 -40 -65q49 -34 39 -97q-10 -54 -58 -92t-106 -38q-59 0 -93.5 38t-25.5 92q10 62 73 97q-22 27 -16 65zM125 126q-4 -26 12.5 -44.5t45.5 -18.5q28 0 51.5 18.5t27.5 44.5q5 24 -11 43t-43 19h-9
q-26 0 -47.5 -18.5t-26.5 -43.5zM181 285q-3 -17 6 -29t28 -12q20 1 34 13t16 28q2 15 -8 26.5t-28 11.5q-19 0 -32.5 -11t-15.5 -27z" />
    <glyph glyph-name="nine.dnom" horiz-adv-x="339" 
d="M47 70l74 29q10 -37 44 -37q38 0 63 34.5t33 84.5q-11 -17 -35 -31t-51 -14q-48 0 -77.5 36.5t-17.5 94.5q11 55 55 89.5t102 33.5q55 -1 86 -36.5t25 -96.5q-5 -46 -16.5 -88.5t-33 -84.5t-59.5 -67t-88 -23q-82 4 -104 76zM269 261q4 25 -9 42t-37 17q-24 1 -45 -16
t-25 -41q-5 -24 9 -41t38 -17q24 -1 44 15.5t25 40.5z" />
    <glyph glyph-name="l.alt1" horiz-adv-x="305" 
d="M322 112l-19 -112h-65q-176 0 -139 202l92 519h124l-93 -521q-15 -88 53 -88h47z" />
    <glyph glyph-name="a.alt1" horiz-adv-x="540" 
d="M242 97q32 0 74.5 14.5t65.5 40.5l3 22q-17 14 -52 21.5t-58 7.5q-82 0 -92 -52q-4 -22 11.5 -38t47.5 -16zM185 312l-60 69q85 96 221 96q101 0 148.5 -51.5t30.5 -148.5l-48 -277h-120l8 48q-29 -29 -72.5 -43.5t-78.5 -14.5q-83 0 -125 41t-29 112q12 67 67.5 107
t160.5 40q25 0 60.5 -8.5t53.5 -22.5l3 18q7 40 -15.5 66.5t-69.5 26.5q-32 0 -69.5 -14t-65.5 -44z" />
    <glyph glyph-name="y.alt1" horiz-adv-x="509" 
d="M155 -36l40 67l-103 436h129l65 -287l167 287h130l-326 -549q-51 -83 -98 -116.5t-120 -33.5q-29 0 -66 10l20 107q30 -5 65 -5q30 0 50 19.5t47 64.5z" />
    <glyph glyph-name="lslash.alt1" horiz-adv-x="326" 
d="M341 112l-19 -112h-65q-174 0 -139 202l16 91l-83 -47l16 84l83 47l61 344h123l-48 -267l97 55l-15 -84l-97 -55l-30 -170q-15 -88 53 -88h47z" />
    <glyph glyph-name="lacute.alt1" horiz-adv-x="305" 
d="M339 929h128l-167 -163h-95zM303 0l19 112h-47q-68 0 -53 88l93 521h-124l-92 -519q-37 -202 139 -202h65z" />
    <glyph glyph-name="lcommaaccent.alt1" horiz-adv-x="305" 
d="M121 -274l-59 29q40 44 59.5 84t28.5 105h107q-33 -147 -136 -218zM322 112l-19 -112h-65q-175 0 -140 202l93 519h123l-93 -521q-15 -88 54 -88h47z" />
    <glyph glyph-name="lcaron.alt1" horiz-adv-x="305" 
d="M381 484l-69 25q83 93 102 212h107q-20 -84 -58.5 -145.5t-81.5 -91.5zM303 0l19 112h-47q-68 0 -53 88l93 521h-124l-92 -519q-37 -202 139 -202h65z" />
    <glyph glyph-name="aacute.alt1" horiz-adv-x="540" 
d="M452 707h128l-167 -163h-95zM242 97q32 0 74.5 14.5t65.5 40.5l3 22q-17 14 -52 21.5t-58 7.5q-82 0 -92 -52q-4 -22 11.5 -38t47.5 -16zM185 312l-60 69q85 96 221 96q101 0 148.5 -51.5t30.5 -148.5l-48 -277h-120l8 48q-29 -29 -72.5 -43.5t-78.5 -14.5q-83 0 -125 41
t-29 112q12 67 67.5 107t160.5 40q25 0 60.5 -8.5t53.5 -22.5l3 18q7 40 -15.5 66.5t-69.5 26.5q-32 0 -69.5 -14t-65.5 -44z" />
    <glyph glyph-name="agrave.alt1" horiz-adv-x="540" 
d="M220 707h128l76 -163h-95zM242 97q32 0 74.5 14.5t65.5 40.5l3 22q-17 14 -52 21.5t-58 7.5q-82 0 -92 -52q-4 -22 11.5 -38t47.5 -16zM185 312l-60 69q85 96 221 96q101 0 148.5 -51.5t30.5 -148.5l-48 -277h-120l8 48q-29 -29 -72.5 -43.5t-78.5 -14.5q-83 0 -125 41
t-29 112q12 67 67.5 107t160.5 40q25 0 60.5 -8.5t53.5 -22.5l3 18q7 40 -15.5 66.5t-69.5 26.5q-32 0 -69.5 -14t-65.5 -44z" />
    <glyph glyph-name="acircumflex.alt1" horiz-adv-x="540" 
d="M329 710h123l82 -163h-94l-63 88l-91 -88h-94zM242 97q32 0 74.5 14.5t65.5 40.5l3 22q-17 14 -52 21.5t-58 7.5q-82 0 -92 -52q-4 -22 11.5 -38t47.5 -16zM185 312l-60 69q85 96 221 96q101 0 148.5 -51.5t30.5 -148.5l-48 -277h-120l8 48q-29 -29 -72.5 -43.5
t-78.5 -14.5q-83 0 -125 41t-29 112q12 67 67.5 107t160.5 40q25 0 60.5 -8.5t53.5 -22.5l3 18q7 40 -15.5 66.5t-69.5 26.5q-32 0 -69.5 -14t-65.5 -44z" />
    <glyph glyph-name="adieresis.alt1" horiz-adv-x="540" 
d="M223 632q5 28 28.5 46.5t52.5 18.5q28 0 44.5 -19t11.5 -46q-5 -28 -28 -46.5t-51 -18.5q-29 0 -46 19t-12 46zM397 632q5 28 28.5 46.5t52.5 18.5t45 -18.5t11 -46.5t-28 -46.5t-51 -18.5q-29 0 -46 19t-12 46zM242 97q32 0 74.5 14.5t65.5 40.5l3 22q-17 14 -52 21.5
t-58 7.5q-82 0 -92 -52q-4 -22 11.5 -38t47.5 -16zM185 312l-60 69q85 96 221 96q101 0 148.5 -51.5t30.5 -148.5l-48 -277h-120l8 48q-29 -29 -72.5 -43.5t-78.5 -14.5q-83 0 -125 41t-29 112q12 67 67.5 107t160.5 40q25 0 60.5 -8.5t53.5 -22.5l3 18q7 40 -15.5 66.5
t-69.5 26.5q-32 0 -69.5 -14t-65.5 -44z" />
    <glyph glyph-name="atilde.alt1" horiz-adv-x="540" 
d="M338 607q-8 0 -19 -11t-15 -32h-70q15 65 48.5 95t69.5 30q24 0 47.5 -20.5t33.5 -20.5q8 0 18.5 10t15.5 31h70q-15 -64 -49 -93.5t-69 -29.5q-23 0 -47.5 20.5t-33.5 20.5zM242 97q32 0 74.5 14.5t65.5 40.5l3 22q-17 14 -52 21.5t-58 7.5q-82 0 -92 -52
q-4 -22 11.5 -38t47.5 -16zM185 312l-60 69q85 96 221 96q101 0 148.5 -51.5t30.5 -148.5l-48 -277h-120l8 48q-29 -29 -72.5 -43.5t-78.5 -14.5q-83 0 -125 41t-29 112q12 67 67.5 107t160.5 40q25 0 60.5 -8.5t53.5 -22.5l3 18q7 40 -15.5 66.5t-69.5 26.5
q-32 0 -69.5 -14t-65.5 -44z" />
    <glyph glyph-name="aring.alt1" horiz-adv-x="540" 
d="M267 654q9 49 48 83t86 34q50 0 78 -34t19 -83q-9 -48 -49 -81t-89 -33q-47 0 -74.5 33t-18.5 81zM325 654q-4 -24 9 -40.5t36 -16.5q25 0 46 16.5t25 40.5q4 25 -10.5 42t-39.5 17q-23 0 -42 -17t-24 -42zM242 97q32 0 74.5 14.5t65.5 40.5l3 22q-17 14 -52 21.5
t-58 7.5q-82 0 -92 -52q-4 -22 11.5 -38t47.5 -16zM185 312l-60 69q85 96 221 96q101 0 148.5 -51.5t30.5 -148.5l-48 -277h-120l8 48q-29 -29 -72.5 -43.5t-78.5 -14.5q-83 0 -125 41t-29 112q12 67 67.5 107t160.5 40q25 0 60.5 -8.5t53.5 -22.5l3 18q7 40 -15.5 66.5
t-69.5 26.5q-32 0 -69.5 -14t-65.5 -44z" />
    <glyph glyph-name="amacron.alt1" horiz-adv-x="540" 
d="M237 585l14 83h269l-14 -83h-269zM242 97q32 0 74.5 14.5t65.5 40.5l3 22q-17 14 -52 21.5t-58 7.5q-82 0 -92 -52q-4 -22 11.5 -38t47.5 -16zM185 312l-60 69q85 96 221 96q101 0 148.5 -51.5t30.5 -148.5l-48 -277h-120l8 48q-29 -29 -72.5 -43.5t-78.5 -14.5
q-83 0 -125 41t-29 112q12 67 67.5 107t160.5 40q25 0 60.5 -8.5t53.5 -22.5l3 18q7 40 -15.5 66.5t-69.5 26.5q-32 0 -69.5 -14t-65.5 -44z" />
    <glyph glyph-name="abreve.alt1" horiz-adv-x="540" 
d="M261 687h82q-13 -55 40 -55q25 0 41 16t21 39h83q-11 -59 -54.5 -94.5t-103.5 -35.5q-65 0 -92.5 38t-16.5 92zM242 97q32 0 74.5 14.5t65.5 40.5l3 22q-17 14 -52 21.5t-58 7.5q-82 0 -92 -52q-4 -22 11.5 -38t47.5 -16zM185 312l-60 69q85 96 221 96q101 0 148.5 -51.5
t30.5 -148.5l-48 -277h-120l8 48q-29 -29 -72.5 -43.5t-78.5 -14.5q-83 0 -125 41t-29 112q12 67 67.5 107t160.5 40q25 0 60.5 -8.5t53.5 -22.5l3 18q7 40 -15.5 66.5t-69.5 26.5q-32 0 -69.5 -14t-65.5 -44z" />
    <glyph glyph-name="aogonek.alt1" horiz-adv-x="540" 
d="M185 312l-60 69q85 96 221 96q101 0 148.5 -51.5t30.5 -148.5l-48 -277h-56l-54 -96q-15 -36 9 -46q13 -4 27 1.5t21 18.5l9 25l69 4q-9 -55 -45 -87.5t-78 -32.5q-44 0 -69.5 31t-17.5 71q4 28 18 46l47 65l8 48q-29 -29 -72.5 -43.5t-78.5 -14.5q-83 0 -125 41t-29 112
q12 67 67.5 107t160.5 40q25 0 60.5 -8.5t53.5 -22.5l3 18q7 40 -15.5 66.5t-69.5 26.5q-32 0 -69.5 -14t-65.5 -44zM242 97q32 0 74.5 14.5t65.5 40.5l3 22q-17 14 -52 21.5t-58 7.5q-82 0 -92 -52q-4 -22 11.5 -38t47.5 -16z" />
    <glyph glyph-name="yacute.alt1" horiz-adv-x="509" 
d="M406 707h128l-167 -163h-95zM195 31l-40 -67q-27 -45 -47 -64.5t-50 -19.5q-35 0 -65 5l-20 -107q37 -10 66 -10q73 0 120 33.5t98 116.5l326 549h-130l-167 -287l-65 287h-129z" />
    <glyph glyph-name="ydieresis.alt1" horiz-adv-x="509" 
d="M207 632q5 28 28.5 46.5t52.5 18.5q28 0 44.5 -19t11.5 -46q-5 -28 -28 -46.5t-51 -18.5q-29 0 -46 19t-12 46zM381 632q5 28 28.5 46.5t52.5 18.5t45 -18.5t11 -46.5t-28 -46.5t-51 -18.5q-29 0 -46 19t-12 46zM195 31l-40 -67q-27 -45 -47 -64.5t-50 -19.5q-35 0 -65 5
l-20 -107q37 -10 66 -10q73 0 120 33.5t98 116.5l326 549h-130l-167 -287l-65 287h-129z" />
    <glyph glyph-name="ae.alt1" horiz-adv-x="871" 
d="M479 21l-2 -21h-120l8 48q-29 -29 -72.5 -43.5t-78.5 -14.5q-83 0 -125 41t-29 112q12 67 67.5 107t160.5 40q26 0 61 -7.5t53 -21.5l3 16q7 40 -15.5 66.5t-69.5 26.5q-32 0 -69.5 -14.5t-65.5 -44.5l-60 70q85 96 221 96q114 0 157 -63q82 63 179 63q102 0 157.5 -67
t36.5 -175q-4 -23 -9 -42h-356q-2 -46 28.5 -73t82.5 -27q37 0 72.5 15.5t55.5 44.5l84 -50q-41 -57 -105 -85t-133 -28q-66 0 -117 31zM525 276h240q2 47 -26 73t-74 26q-49 0 -86.5 -26t-53.5 -73zM236 97q32 0 77.5 14.5t68.5 40.5l4 18q-19 14 -54 21.5t-58 7.5
q-82 0 -93 -56q-3 -19 10.5 -32.5t44.5 -13.5z" />
    <glyph glyph-name="aeacute.alt1" horiz-adv-x="871" 
d="M621 707h128l-167 -163h-95zM477 0l2 21q51 -31 117 -31q69 0 133 28t105 85l-84 50q-20 -29 -55.5 -44.5t-72.5 -15.5q-52 0 -82.5 27t-28.5 73h356q5 19 9 42q19 108 -36.5 175t-157.5 67q-97 0 -179 -63q-43 63 -157 63q-136 0 -221 -96l60 -70q28 30 65.5 44.5
t69.5 14.5q47 0 69.5 -26.5t15.5 -66.5l-3 -16q-18 14 -53 21.5t-61 7.5q-105 0 -160.5 -40t-67.5 -107q-13 -71 29 -112t125 -41q35 0 78.5 14.5t72.5 43.5l-8 -48h120zM525 276q16 47 53.5 73t86.5 26q46 0 74 -26t26 -73h-240zM236 97q-31 0 -44.5 13.5t-10.5 32.5
q11 56 93 56q23 0 58 -7.5t54 -21.5l-4 -18q-23 -26 -68.5 -40.5t-77.5 -14.5z" />
    <glyph glyph-name="ycircumflex.alt1" horiz-adv-x="509" 
d="M319 710h123l82 -163h-94l-64 88l-90 -88h-94zM155 -36l40 67l-103 436h129l65 -287l167 287h130l-326 -549q-51 -83 -98 -116.5t-120 -33.5q-29 0 -66 10l20 107q30 -5 65 -5q30 0 50 19.5t47 64.5z" />
    <glyph glyph-name="ldot.alt1" horiz-adv-x="404" 
d="M299 313q5 32 32.5 54t59.5 22q33 0 52 -21.5t14 -54.5q-5 -32 -32.5 -54t-61.5 -22q-32 0 -50.5 21.5t-13.5 54.5zM322 112l-19 -112h-65q-176 0 -139 202l92 519h124l-93 -521q-15 -88 53 -88h47z" />
    <glyph glyph-name="t.alt1" horiz-adv-x="383" 
d="M365 112l-19 -112h-63q-94 0 -126.5 47t-15.5 141l33 181h-85l17 98h85l18 97l130 39l-25 -136h97l-17 -98h-97l-33 -183q-6 -35 4.5 -54.5t51.5 -19.5h45z" />
    <glyph glyph-name="tcaron.alt1" horiz-adv-x="383" 
d="M428 524l-59 29q40 44 59 84t28 105h107q-32 -147 -135 -218zM346 0l19 112h-45q-41 0 -51.5 19.5t-4.5 54.5l33 183h97l17 98h-97l25 136l-130 -39l-18 -97h-85l-17 -98h85l-33 -181q-17 -94 15.5 -141t126.5 -47h63z" />
    <glyph glyph-name="tbar.alt1" horiz-adv-x="385" 
d="M368 112l-20 -112h-63q-95 0 -127.5 47.5t-13.5 140.5l2 10h-59l13 71h59l17 100h-85l17 98h85l18 97l130 39l-25 -136h97l-17 -98h-97l-17 -100h70l-13 -71h-70l-3 -12q-17 -74 57 -74h45z" />
    <glyph glyph-name="tcommaaccent.alt1" horiz-adv-x="383" 
d="M155 -274l-58 29q40 44 59 84t28 105h107q-32 -147 -136 -218zM365 112l-19 -112h-63q-94 0 -126.5 47t-15.5 141l33 181h-85l17 98h85l18 97l130 39l-25 -136h97l-17 -98h-97l-33 -183q-6 -35 4.5 -54.5t51.5 -19.5h45z" />
    <glyph glyph-name="T.sc.alt1" horiz-adv-x="477" 
d="M124 572h431l-18 -101h-159l-83 -471h-113l83 471h-159z" />
    <glyph glyph-name="Tcaron.sc.alt1" horiz-adv-x="477" 
d="M367 699l76 70h84l-120 -139h-105l-68 139h83zM555 572h-431l-18 -101h159l-83 -471h113l83 471h159z" />
    <glyph glyph-name="Tbar.sc.alt1" horiz-adv-x="477" 
d="M225 246h-95l12 67h95l28 158h-159l18 101h431l-18 -101h-159l-28 -158h98l-12 -67h-98l-43 -246h-113z" />
    <glyph glyph-name="Tcommaaccent.sc.alt1" horiz-adv-x="477" 
d="M124 572h431l-18 -101h-159l-83 -471h-113l83 471h-159zM165 -248l-53 24q54 58 69 184h97q-10 -66 -44.5 -124t-68.5 -84z" />
    <glyph glyph-name="aringacute.alt1" horiz-adv-x="540" 
d="M471 882h128l-136 -133q49 -33 38 -101q-8 -48 -48 -81t-89 -33q-47 0 -74 33t-19 81q7 40 35 70.5t65 41.5zM328 648q-4 -24 10 -40.5t37 -16.5q25 0 44.5 16.5t24.5 40.5q4 25 -10 42t-39 17q-23 0 -43 -17t-24 -42zM242 97q32 0 74.5 14.5t65.5 40.5l3 22
q-17 14 -52 21.5t-58 7.5q-82 0 -92 -52q-4 -22 11.5 -38t47.5 -16zM185 312l-60 69q85 96 221 96q101 0 148.5 -51.5t30.5 -148.5l-48 -277h-120l8 48q-29 -29 -72.5 -43.5t-78.5 -14.5q-83 0 -125 41t-29 112q12 67 67.5 107t160.5 40q25 0 60.5 -8.5t53.5 -22.5l3 18
q7 40 -15.5 66.5t-69.5 26.5q-32 0 -69.5 -14t-65.5 -44z" />
    </font>
</defs>
</svg>
